<?xml version="1.0" encoding="UTF-8"?>
<svg width="50px" height="50px" viewBox="0 0 50 50" version="1.1" xmlns="http://www.w3.org/2000/svg" xmlns:xlink="http://www.w3.org/1999/xlink">
    <!-- Generator: Sketch 61 (89581) - https://sketch.com -->
    <title>fake logo</title>
    <desc>Created with Sketch.</desc>
    <g id="fake-logo" stroke="none" stroke-width="1" fill="none" fill-rule="evenodd">
        <circle id="Oval" fill="#00BA81" cx="25" cy="25" r="25"></circle>
        <g id="aliwangwang" transform="translate(6.000000, 7.000000)" fill-rule="nonzero">
            <rect id="Rectangle" fill="#000000" opacity="0" x="0" y="0" width="38" height="38"></rect>
            <path d="M32.8768621,13.5211735 C32.1669188,11.8529337 31.1376888,10.3548469 29.8267352,9.06020408 C28.5232942,7.77295918 26.9944744,6.76313776 25.3003768,6.05663265 C23.5461782,5.32423469 21.6830465,4.95433673 19.7598137,4.95433673 C18.1859182,4.95433673 16.6458294,5.20216837 15.180867,5.69413265 C11.7588649,4.12206633 7.80722264,4 6.67281582,4 C6.59017692,4 6.39484859,4 6.31972231,4.00739796 C5.87272095,4.02219388 5.46328272,4.24783163 5.22287863,4.61403061 C4.97871822,4.98022959 4.93364245,5.44260204 5.09516395,5.85318878 L7.51047384,11.8307398 C6.2107892,13.9872449 5.52714006,16.4581633 5.52714006,18.9771684 C5.52714006,20.8784439 5.90277146,22.7131378 6.64652163,24.4368622 C7.35646497,26.1014031 8.38193868,27.6031888 9.69664857,28.8941327 C11.0000895,30.1813776 12.5289093,31.191199 14.2230069,31.8977041 C15.9772055,32.630102 17.8403373,33 19.7598137,33 C21.6868028,33 23.5499345,32.6264031 25.3078895,31.8977041 C26.9944744,31.1985969 28.5195379,30.1850765 29.8304915,28.8941327 C31.1339324,27.6068878 32.1631625,26.105102 32.8806184,24.4331633 C33.6243686,22.7057398 34,20.863648 34,18.9734694 C33.9924874,17.0795918 33.6206123,15.244898 32.8768621,13.5211735 Z M30.3826696,23.3789541 C29.800441,24.7401786 28.9665393,25.9571429 27.9072587,27.0039541 C26.8404656,28.0581633 25.6046383,28.8793367 24.23734,29.4415816 L24.2335837,29.4415816 C22.8061844,30.0334184 21.2923898,30.3367347 19.7297632,30.3367347 C18.1671366,30.3367347 16.6570984,30.0334184 15.2334554,29.4415816 C13.8548881,28.8682398 12.6190608,28.0433673 11.5597803,27.0002551 C10.4929871,25.9460459 9.65908543,24.7290816 9.08812571,23.3826531 L9.08812571,23.3789541 C8.48711547,21.9807398 8.18285404,20.486352 8.18285404,18.9438776 C8.18285404,16.8946429 8.73878851,14.8860969 9.79055642,13.1364796 L10.2863899,12.3190051 L9.92954004,11.434949 L8.00255097,6.66326531 C8.56224175,6.68545918 9.35106769,6.74094388 10.2450704,6.87040816 C11.8903359,7.11084184 13.3440294,7.51772959 14.5610752,8.07627551 L15.2747748,8.40548469 L16.0222813,8.15395408 C17.2055202,7.75446429 18.4563728,7.55471939 19.7372758,7.55471939 C21.2999024,7.55471939 22.813697,7.85803571 24.2335837,8.44987245 C25.6121509,9.02321429 26.8479782,9.84808673 27.9072587,10.891199 C28.9740519,11.9454082 29.8079536,13.1623724 30.3789133,14.508801 L30.3826696,14.5125 L30.386426,14.516199 C30.9874362,15.9070153 31.2916976,17.4014031 31.2954539,18.9475765 C31.2916976,20.490051 30.9836799,21.9807398 30.3826696,23.3789541 Z M25.8487987,13.0329082 C25.0825106,13.0329082 24.4552062,13.6506378 24.4552062,14.4052296 L24.4552062,16.4433673 C24.4552062,17.1979592 25.0787543,17.8156888 25.8487987,17.8156888 C26.618843,17.8156888 27.2423912,17.1979592 27.2423912,16.4433673 L27.2423912,14.4052296 C27.2423912,13.6469388 26.6150867,13.0329082 25.8487987,13.0329082 Z M19.2677366,13.0329082 C18.4976922,13.0329082 17.8741441,13.6506378 17.8741441,14.4052296 L17.8741441,16.4433673 C17.8741441,17.1979592 18.5014485,17.8156888 19.2677366,17.8156888 C20.037781,17.8156888 20.6613291,17.1979592 20.6613291,16.4433673 L20.6613291,14.4052296 C20.6613291,13.6469388 20.0340246,13.0329082 19.2677366,13.0329082 Z" id="Shape" fill="#FFFFFF"></path>
        </g>
    </g>
</svg>
