<?xml version="1.0" encoding="UTF-8"?>
<svg width="20px" height="24px" viewBox="0 0 20 24" version="1.1" xmlns="http://www.w3.org/2000/svg" xmlns:xlink="http://www.w3.org/1999/xlink">
    <!-- Generator: Sketch 61.2 (89653) - https://sketch.com -->
    <title>bell 2</title>
    <desc>Created with Sketch.</desc>
    <g id="Page-1" stroke="none" stroke-width="1" fill="none" fill-rule="evenodd">
        <g id="Icon-/-36-/-bell" transform="translate(-8.000000, -6.000000)">
            <g id="bell-2" transform="translate(9.000000, 7.000000)">
                <path d="M7.66666667,4 L10.3333333,4 C10.7015232,4 11,3.70152317 11,3.33333333 L11,2 C11,0.8954305 10.1045695,0 9,0 C7.8954305,0 7,0.8954305 7,2 L7,3.33333333 C7,3.70152317 7.29847683,4 7.66666667,4 Z" id="Shape" stroke="#262626" fill="#FFDF14"></path>
                <path d="M11.8184896,18.4346667 C11.7093269,18.1732621 11.4286786,17.9998592 11.1149927,18 L6.88501092,18 C6.57263579,18 6.29297,18.1721029 6.18301395,18.4320001 C6.06091387,18.7200661 5.99890085,19.0255012 6,19.3333334 C6,20.8060927 7.34315469,22 9,22 C10.6568489,22 12,20.8060927 12,19.3333334 C12.0009528,19.0264997 11.939463,18.7220418 11.8184896,18.4346667 L11.8184896,18.4346667 Z" id="Shape" stroke="#262626" fill="#FFDF14"></path>
                <path d="M17.6451239,17.7373333 C16.2828859,17.0375797 15.4231097,15.5951592 15.4285573,14.0186667 L15.4285573,9.66666667 C15.4285573,5.98476833 12.5503942,3 9,3 C5.44960582,3 2.57144266,5.98476833 2.57144266,9.66666667 L2.57144266,14.0186667 C2.57689032,15.5951592 1.71711411,17.0375797 0.354876086,17.7373333 C0.0884467547,17.8758119 -0.0512741099,18.1860311 0.0173253952,18.4867898 C0.0859249003,18.7875485 0.34485607,19 0.642875455,19 L17.3571245,19 C17.6551439,19 17.9140751,18.7875485 17.9826746,18.4867898 C18.0512741,18.1860311 17.9115532,17.8758119 17.6451239,17.7373333 Z" id="Shape" stroke="#262626" fill="#FFC51A"></path>
                <circle id="Oval" fill="#FFFFFF" cx="7" cy="6" r="1"></circle>
                <path d="M5.31174592,7.75504324 C4.45359607,8.5921672 4.18286731,10.3404861 4.49955965,13" id="Path-14" stroke="#FFFFFF" stroke-linecap="round"></path>
            </g>
        </g>
    </g>
</svg>