<?xml version="1.0" encoding="UTF-8"?>
<svg width="47px" height="45px" viewBox="0 0 47 45" version="1.1" xmlns="http://www.w3.org/2000/svg" xmlns:xlink="http://www.w3.org/1999/xlink">
    <!-- Generator: Sketch 58 (84663) - https://sketch.com -->
    <title>poker</title>
    <desc>Created with Sketch.</desc>
    <g id="共同" stroke="none" stroke-width="1" fill="none" fill-rule="evenodd">
        <g id="首頁-中獎信息+我的收藏" transform="translate(-850.000000, -969.000000)" fill-rule="nonzero">
            <g id="poker" transform="translate(850.000000, 969.000000)">
                <path d="M22.965,34.12 C22.965,39.295 15.95,43.55 15.605,43.78 C15.49,43.895 15.375,43.895 15.26,43.895 C15.145,43.895 15.03,43.895 14.915,43.78 C14.57,43.55 7.555,39.41 7.555,34.12 C7.555,31.475 9.625,29.405 12.155,29.405 C13.305,29.405 14.455,29.865 15.26,30.67 C16.065,29.865 17.215,29.405 18.365,29.405 C20.895,29.29 22.965,31.475 22.965,34.12 Z" id="Path" fill="#F25B95"></path>
                <path d="M46.425,13.075 C46.425,13.305 46.31,13.535 46.08,13.765 C43.665,15.49 40.56,18.595 38.835,20.895 C38.72,21.125 38.49,21.24 38.26,21.24 C38.03,21.24 37.8,21.125 37.685,20.895 C35.96,18.48 32.855,15.375 30.44,13.765 C30.21,13.65 30.095,13.42 30.095,13.075 C30.095,12.845 30.21,12.615 30.44,12.5 C32.855,10.775 35.96,7.67 37.685,5.37 C37.8,5.14 38.03,5.025 38.26,5.025 C38.49,5.025 38.72,5.14 38.835,5.37 C40.56,7.785 43.665,10.89 46.08,12.5 C46.31,12.615 46.425,12.845 46.425,13.075 Z" id="Path" fill="#F25B95"></path>
                <path d="M15.525,24.035 C13.8,24.035 12.19,24.725 11.04,25.875 C9.89,24.725 8.165,24.035 6.555,24.035 C2.99,24.035 -6.57252031e-14,27.025 -6.57252031e-14,30.82 C-6.57252031e-14,38.18 10.005,44.275 10.465,44.505 C10.58,44.62 10.81,44.62 11.04,44.62 C11.27,44.62 11.385,44.62 11.615,44.505 C12.075,44.275 22.08,38.295 22.08,30.82 C21.965,27.14 19.09,24.035 15.525,24.035 Z M11.04,42.32 C9.2,41.055 2.185,36.11 2.185,30.82 C2.185,28.29 4.14,26.22 6.555,26.22 C7.935,26.22 9.315,26.91 10.12,28.175 C10.35,28.52 10.695,28.635 11.04,28.635 C11.385,28.635 11.73,28.52 11.96,28.175 C12.765,26.91 14.145,26.22 15.525,26.22 C17.94,26.22 19.895,28.29 19.895,30.82 C19.895,36.225 12.88,41.17 11.04,42.32 Z" id="Shape" fill="#040000"></path>
                <path d="M45.08,10.12 C41.86,7.82 37.72,3.565 35.305,0.46 C35.075,0.23 34.73,6.21724894e-14 34.5,6.21724894e-14 C34.27,6.21724894e-14 33.81,0.115 33.695,0.46 C31.395,3.68 27.14,7.82 23.92,10.12 C23.69,10.35 23.46,10.695 23.46,10.925 C23.46,11.27 23.575,11.615 23.92,11.845 C27.14,14.145 31.28,18.4 33.695,21.505 C33.925,21.735 34.27,21.965 34.5,21.965 C34.73,21.965 35.19,21.85 35.305,21.505 C37.605,18.285 41.86,14.145 45.08,11.845 C45.31,11.615 45.54,11.27 45.54,10.925 C45.425,10.58 45.31,10.235 45.08,10.12 Z M34.5,19.09 C32.2,16.215 29.095,13.11 26.335,10.925 C29.21,8.74 32.315,5.52 34.5,2.76 C36.8,5.635 39.905,8.74 42.665,10.925 C39.79,13.11 36.685,16.33 34.5,19.09 Z" id="Shape" fill="#040000"></path>
                <path d="M7.13,21.62 C7.13,21.62 7.015,21.62 7.13,21.62 C7.015,21.505 7.015,21.39 7.015,21.39 C7.82,20.47 8.51,19.55 9.085,18.515 L9.66,17.25 L8.395,17.71 C7.82,17.94 7.245,17.94 6.67,17.94 C3.68,17.94 1.265,15.525 1.265,12.535 C1.38,6.44 10.005,1.38 11.04,0.805 L11.155,0.805 C11.5,1.035 20.7,6.44 20.7,12.765 C20.7,15.64 18.285,18.055 15.295,18.055 C14.72,18.055 14.145,17.94 13.57,17.825 L12.305,17.365 L12.88,18.63 C13.34,19.665 14.03,20.7 14.835,21.505 C14.835,21.505 14.835,21.62 14.835,21.62 C14.835,21.735 14.72,21.735 14.72,21.735 L7.13,21.62 Z" id="Path" fill="#040000"></path>
                <path d="M31.625,43.7 C31.625,43.7 31.51,43.7 31.51,43.585 C31.51,43.47 31.51,43.47 31.51,43.47 C32.775,42.09 33.695,40.48 34.155,38.64 L33.12,38.18 C32.315,39.445 30.935,40.135 29.555,40.135 C28.405,40.135 27.255,39.675 26.45,38.87 C25.645,38.065 25.185,36.915 25.3,35.765 C25.415,33.58 27.14,31.74 29.325,31.625 C29.44,31.625 29.44,31.625 29.555,31.625 C31.05,31.625 32.315,32.315 33.12,33.58 L34.155,33.12 C34.04,32.89 34.04,32.66 33.925,32.43 C33.81,32.2 33.58,31.97 33.35,31.74 C31.855,30.935 30.935,29.555 30.935,27.945 C30.935,26.795 31.395,25.645 32.315,24.84 C33.12,24.035 34.155,23.69 35.305,23.69 L35.535,23.69 C37.72,23.805 39.56,25.53 39.675,27.715 C39.79,29.44 38.87,31.05 37.375,31.855 C37.03,31.97 36.915,32.2 36.8,32.545 C36.685,32.775 36.685,33.005 36.57,33.235 L37.605,33.695 C38.41,32.43 39.79,31.74 41.17,31.74 C41.285,31.74 41.285,31.74 41.4,31.74 C43.585,31.855 45.31,33.695 45.425,35.88 C45.425,37.03 45.08,38.18 44.275,38.985 C43.47,39.79 42.32,40.25 41.17,40.25 C39.675,40.25 38.41,39.56 37.605,38.295 L36.57,38.755 C37.03,40.595 37.95,42.205 39.215,43.585 C39.215,43.585 39.215,43.7 39.215,43.7 C39.215,43.7 39.1,43.815 39.1,43.815 L31.625,43.815 L31.625,43.7 Z" id="Path" fill="#040000"></path>
            </g>
        </g>
    </g>
</svg>