<?xml version="1.0" encoding="UTF-8"?>
<svg width="25px" height="25px" viewBox="0 0 25 25" version="1.1" xmlns="http://www.w3.org/2000/svg" xmlns:xlink="http://www.w3.org/1999/xlink">
    <!-- Generator: Sketch 59.1 (86144) - https://sketch.com -->
    <title>ball/share/dice/1</title>
    <desc>Created with Sketch.</desc>
    <g id="ball/share/dice/1" stroke="none" stroke-width="1" fill="none" fill-rule="evenodd">
        <g id="Group" transform="translate(1.000000, 1.000000)" fill-rule="nonzero">
            <path d="M20.4379747,22.8835443 L2.38734177,22.8835443 C1.10632911,22.8835443 0.0582278481,21.835443 0.0582278481,20.5544304 L0.0582278481,2.50379747 C0.0582278481,1.22278481 1.10632911,0.174683544 2.38734177,0.174683544 L20.4379747,0.174683544 C21.7189873,0.174683544 22.7670886,1.22278481 22.7670886,2.50379747 L22.7670886,20.5544304 C22.7670886,21.835443 21.7189873,22.8835443 20.4379747,22.8835443 Z" id="Path" stroke="#E4E5E8" stroke-width="0.5" fill="#F4F7FA"></path>
            <path d="M14.7607595,11.5291139 C14.7607595,13.3924051 13.2468354,14.8772152 11.4126582,14.8772152 C9.54936709,14.8772152 8.06455696,13.3632911 8.06455696,11.5291139 C8.06455696,9.66582278 9.57848101,8.18101266 11.4126582,8.18101266 C13.2759494,8.18101266 14.7607595,9.66582278 14.7607595,11.5291139 Z" id="Path" fill="#DC3E47"></path>
        </g>
    </g>
</svg>