<?xml version="1.0" encoding="UTF-8"?>
<svg width="25px" height="25px" viewBox="0 0 25 25" version="1.1" xmlns="http://www.w3.org/2000/svg" xmlns:xlink="http://www.w3.org/1999/xlink">
    <!-- Generator: Sketch 59.1 (86144) - https://sketch.com -->
    <title>ball/share/dice/5</title>
    <desc>Created with Sketch.</desc>
    <g id="ball/share/dice/5" stroke="none" stroke-width="1" fill="none" fill-rule="evenodd">
        <g id="Group" transform="translate(1.000000, 1.000000)" fill-rule="nonzero">
            <path d="M20.4379747,22.8835443 L2.38734177,22.8835443 C1.10632911,22.8835443 0.0582278481,21.835443 0.0582278481,20.5544304 L0.0582278481,2.50379747 C0.0582278481,1.22278481 1.10632911,0.174683544 2.38734177,0.174683544 L20.4379747,0.174683544 C21.7189873,0.174683544 22.7670886,1.22278481 22.7670886,2.50379747 L22.7670886,20.5544304 C22.7670886,21.835443 21.7189873,22.8835443 20.4379747,22.8835443 Z" id="Path" stroke="#E4E5E8" stroke-width="0.5" fill="#F4F7FA"></path>
            <g transform="translate(3.493671, 4.075949)" fill="#343434" id="Path">
                <path d="M5.24050633,2.62025316 C5.24050633,3.98860759 4.13417722,5.12405063 2.73670886,5.12405063 C1.36835443,5.12405063 0.232911392,4.01772152 0.232911392,2.62025316 C0.232911392,1.25189873 1.33924051,0.116455696 2.73670886,0.116455696 C4.10506329,0.14556962 5.24050633,1.25189873 5.24050633,2.62025316 Z"></path>
                <path d="M15.6050633,2.62025316 C15.6050633,3.98860759 14.4987342,5.12405063 13.1012658,5.12405063 C11.7037975,5.12405063 10.5974684,4.01772152 10.5974684,2.62025316 C10.5974684,1.25189873 11.7037975,0.116455696 13.1012658,0.116455696 C14.4987342,0.116455696 15.6050633,1.25189873 15.6050633,2.62025316 Z"></path>
                <path d="M5.24050633,12.256962 C5.24050633,13.6253165 4.13417722,14.7607595 2.73670886,14.7607595 C1.36835443,14.7607595 0.232911392,13.6544304 0.232911392,12.256962 C0.232911392,10.8594937 1.33924051,9.75316456 2.73670886,9.75316456 C4.10506329,9.75316456 5.24050633,10.8886076 5.24050633,12.256962 Z"></path>
                <path d="M15.6050633,12.256962 C15.6050633,13.6253165 14.4987342,14.7607595 13.1012658,14.7607595 C11.7037975,14.7607595 10.5974684,13.6544304 10.5974684,12.256962 C10.5974684,10.8594937 11.7037975,9.75316456 13.1012658,9.75316456 C14.4987342,9.75316456 15.6050633,10.8886076 15.6050633,12.256962 Z"></path>
                <path d="M10.5974684,7.45316456 C10.5974684,8.82151899 9.49113924,9.95696203 8.09367089,9.95696203 C6.72531646,9.95696203 5.58987342,8.85063291 5.58987342,7.45316456 C5.58987342,6.0556962 6.69620253,4.94936709 8.09367089,4.94936709 C9.49113924,4.94936709 10.5974684,6.08481013 10.5974684,7.45316456 Z"></path>
            </g>
        </g>
    </g>
</svg>