<?xml version="1.0" encoding="UTF-8"?>
<svg width="25px" height="25px" viewBox="0 0 25 25" version="1.1" xmlns="http://www.w3.org/2000/svg" xmlns:xlink="http://www.w3.org/1999/xlink">
    <!-- Generator: Sketch 59.1 (86144) - https://sketch.com -->
    <title>ball/share/dice/6</title>
    <desc>Created with Sketch.</desc>
    <g id="ball/share/dice/6" stroke="none" stroke-width="1" fill="none" fill-rule="evenodd">
        <g id="Group" transform="translate(1.000000, 1.000000)" fill-rule="nonzero">
            <path d="M20.4962025,22.8835443 L2.44556962,22.8835443 C1.16455696,22.8835443 0.116455696,21.835443 0.116455696,20.5544304 L0.116455696,2.50379747 C0.116455696,1.22278481 1.16455696,0.174683544 2.44556962,0.174683544 L20.4962025,0.174683544 C21.7772152,0.174683544 22.8253165,1.22278481 22.8253165,2.50379747 L22.8253165,20.5544304 C22.8253165,21.835443 21.7772152,22.8835443 20.4962025,22.8835443 Z" id="Path" stroke="#E4E5E8" stroke-width="0.5" fill="#F4F7FA"></path>
            <g transform="translate(4.367089, 2.620253)" fill="#343434" id="Path">
                <path d="M4.89113924,2.50379747 C4.89113924,3.84303797 3.81392405,4.94936709 2.47468354,4.94936709 C1.13544304,4.94936709 0.0291139241,3.8721519 0.0291139241,2.53291139 C0.0291139241,1.19367089 1.10632911,0.116455696 2.44556962,0.0873417722 C3.81392405,0.0873417722 4.89113924,1.16455696 4.89113924,2.50379747 Z"></path>
                <path d="M4.92025316,8.93797468 C4.92025316,10.2772152 3.84303797,11.3544304 2.50379747,11.3835443 C1.16455696,11.3835443 0.0873417722,10.3063291 0.0582278481,8.96708861 C0.0582278481,7.6278481 1.13544304,6.55063291 2.47468354,6.52151899 C3.84303797,6.52151899 4.92025316,7.59873418 4.92025316,8.93797468 Z"></path>
                <path d="M4.97848101,15.3139241 C4.97848101,16.6531646 3.90126582,17.7303797 2.56202532,17.7594937 C1.22278481,17.7594937 0.14556962,16.6822785 0.116455696,15.343038 C0.116455696,14.0037975 1.19367089,12.9265823 2.53291139,12.8974684 C3.90126582,12.8974684 4.97848101,13.9746835 4.97848101,15.3139241 Z"></path>
                <path d="M14.0620253,2.44556962 C14.0620253,3.78481013 12.9848101,4.86202532 11.6455696,4.89113924 C10.3063291,4.89113924 9.22911392,3.81392405 9.2,2.47468354 C9.2,1.13544304 10.2772152,0.0582278481 11.6164557,0.0291139241 C12.9848101,0.0291139241 14.0620253,1.10632911 14.0620253,2.44556962 Z"></path>
                <path d="M14.0911392,8.87974684 C14.0911392,10.2189873 13.0139241,11.2962025 11.6746835,11.3253165 C10.335443,11.3253165 9.25822785,10.2481013 9.22911392,8.90886076 C9.22911392,7.56962025 10.3063291,6.46329114 11.6455696,6.46329114 C13.0139241,6.46329114 14.0911392,7.54050633 14.0911392,8.87974684 Z"></path>
                <path d="M14.1493671,15.2556962 C14.1493671,16.5949367 13.0721519,17.6721519 11.7329114,17.7012658 C10.3936709,17.7012658 9.3164557,16.6240506 9.28734177,15.2848101 C9.28734177,13.9455696 10.364557,12.8683544 11.7037975,12.8392405 C13.0721519,12.8392405 14.1493671,13.9164557 14.1493671,15.2556962 Z"></path>
            </g>
        </g>
    </g>
</svg>