<?xml version="1.0" encoding="UTF-8"?>
<svg width="25px" height="25px" viewBox="0 0 25 25" version="1.1" xmlns="http://www.w3.org/2000/svg" xmlns:xlink="http://www.w3.org/1999/xlink">
    <!-- Generator: Sketch 59.1 (86144) - https://sketch.com -->
    <title>ball/share/dice/4</title>
    <desc>Created with Sketch.</desc>
    <g id="ball/share/dice/4" stroke="none" stroke-width="1" fill="none" fill-rule="evenodd">
        <g id="Group" transform="translate(1.000000, 1.000000)" fill-rule="nonzero">
            <path d="M20.6417722,22.8835443 L2.59113924,22.8835443 C1.31012658,22.8835443 0.262025316,21.835443 0.262025316,20.5544304 L0.262025316,2.50379747 C0.262025316,1.22278481 1.31012658,0.174683544 2.59113924,0.174683544 L20.6417722,0.174683544 C21.9227848,0.174683544 22.9708861,1.22278481 22.9708861,2.50379747 L22.9708861,20.5544304 C22.9708861,21.835443 21.9227848,22.8835443 20.6417722,22.8835443 Z" id="Path" stroke="#E4E5E8" stroke-width="0.5" fill="#F4F7FA"></path>
            <g transform="translate(4.658228, 4.658228)" fill="#343434" id="Path">
                <path d="M5.82278481,2.82405063 C5.82278481,4.39620253 4.57088608,5.64810127 2.99873418,5.64810127 C1.42658228,5.64810127 0.174683544,4.39620253 0.174683544,2.82405063 C0.174683544,1.25189873 1.42658228,0 2.99873418,0 C4.57088608,0 5.82278481,1.28101266 5.82278481,2.82405063 Z"></path>
                <path d="M13.7708861,2.82405063 C13.7708861,4.39620253 12.5189873,5.64810127 10.9468354,5.64810127 C9.37468354,5.64810127 8.12278481,4.39620253 8.12278481,2.82405063 C8.12278481,1.25189873 9.37468354,0 10.9468354,0 C12.4898734,0 13.7708861,1.28101266 13.7708861,2.82405063 Z"></path>
                <path d="M5.82278481,10.8886076 C5.82278481,12.4607595 4.57088608,13.7126582 2.99873418,13.7126582 C1.42658228,13.7126582 0.174683544,12.4607595 0.174683544,10.8886076 C0.174683544,9.3164557 1.42658228,8.06455696 2.99873418,8.06455696 C4.57088608,8.06455696 5.82278481,9.34556962 5.82278481,10.8886076 Z"></path>
                <path d="M13.7708861,10.8886076 C13.7708861,12.4607595 12.5189873,13.7126582 10.9468354,13.7126582 C9.37468354,13.7126582 8.12278481,12.4607595 8.12278481,10.8886076 C8.12278481,9.3164557 9.37468354,8.06455696 10.9468354,8.06455696 C12.4898734,8.06455696 13.7708861,9.34556962 13.7708861,10.8886076 Z"></path>
            </g>
        </g>
    </g>
</svg>