<?xml version="1.0" encoding="UTF-8"?>
<svg width="25px" height="25px" viewBox="0 0 25 25" version="1.1" xmlns="http://www.w3.org/2000/svg" xmlns:xlink="http://www.w3.org/1999/xlink">
    <!-- Generator: Sketch 59.1 (86144) - https://sketch.com -->
    <title>ball/share/dice/2</title>
    <desc>Created with Sketch.</desc>
    <g id="ball/share/dice/2" stroke="none" stroke-width="1" fill="none" fill-rule="evenodd">
        <g id="Group" transform="translate(1.000000, 1.000000)" fill-rule="nonzero">
            <path d="M20.5253165,22.8835443 L2.47468354,22.8835443 C1.19367089,22.8835443 0.14556962,21.835443 0.14556962,20.5544304 L0.14556962,2.50379747 C0.14556962,1.22278481 1.19367089,0.174683544 2.47468354,0.174683544 L20.5253165,0.174683544 C21.8063291,0.174683544 22.8544304,1.22278481 22.8544304,2.50379747 L22.8544304,20.5544304 C22.8544304,21.835443 21.8063291,22.8835443 20.5253165,22.8835443 Z" id="Path" stroke="#E4E5E8" stroke-width="0.5" fill="#F4F7FA"></path>
            <g transform="translate(4.658228, 4.658228)" fill="#343434" id="Path">
                <path d="M4.92025316,8.79240506 C6.02658228,9.89873418 6.02658228,11.6746835 4.92025316,12.7810127 C3.81392405,13.8873418 2.03797468,13.8873418 0.93164557,12.7810127 C-0.174683544,11.6746835 -0.174683544,9.89873418 0.93164557,8.79240506 C2.00886076,7.68607595 3.81392405,7.68607595 4.92025316,8.79240506 Z"></path>
                <path d="M12.7518987,0.960759494 C13.8582278,2.06708861 13.8582278,3.84303797 12.7518987,4.94936709 C11.6455696,6.0556962 9.86962025,6.0556962 8.76329114,4.94936709 C7.65696203,3.84303797 7.65696203,2.06708861 8.76329114,0.960759494 C9.84050633,-0.14556962 11.6455696,-0.14556962 12.7518987,0.960759494 Z"></path>
            </g>
        </g>
    </g>
</svg>