<?xml version="1.0" encoding="UTF-8"?>
<svg width="25px" height="25px" viewBox="0 0 25 25" version="1.1" xmlns="http://www.w3.org/2000/svg" xmlns:xlink="http://www.w3.org/1999/xlink">
    <!-- Generator: Sketch 59.1 (86144) - https://sketch.com -->
    <title>ball/share/dice/3</title>
    <desc>Created with Sketch.</desc>
    <g id="ball/share/dice/3" stroke="none" stroke-width="1" fill="none" fill-rule="evenodd">
        <g id="Group" transform="translate(1.000000, 1.000000)" fill-rule="nonzero">
            <path d="M20.5835443,22.8835443 L2.53291139,22.8835443 C1.25189873,22.8835443 0.203797468,21.835443 0.203797468,20.5544304 L0.203797468,2.50379747 C0.203797468,1.22278481 1.25189873,0.174683544 2.53291139,0.174683544 L20.5835443,0.174683544 C21.864557,0.174683544 22.9126582,1.22278481 22.9126582,2.50379747 L22.9126582,20.5544304 C22.9126582,21.835443 21.864557,22.8835443 20.5835443,22.8835443 Z" id="Path" stroke="#E4E5E8" stroke-width="0.5" fill="#F4F7FA"></path>
            <g transform="translate(2.911392, 2.911392)" fill="#343434" id="Path">
                <path d="M5.03670886,12.2278481 C6.14303797,13.3341772 6.14303797,15.1101266 5.03670886,16.2164557 C3.93037975,17.3227848 2.15443038,17.3227848 1.04810127,16.2164557 C-0.0582278481,15.1101266 -0.0582278481,13.3341772 1.04810127,12.2278481 C2.15443038,11.121519 3.93037975,11.121519 5.03670886,12.2278481 Z"></path>
                <path d="M10.6556962,6.60886076 C11.7620253,7.71518987 11.7620253,9.49113924 10.6556962,10.5974684 C9.54936709,11.7037975 7.77341772,11.7037975 6.66708861,10.5974684 C5.56075949,9.49113924 5.56075949,7.71518987 6.66708861,6.60886076 C7.7443038,5.50253165 9.54936709,5.50253165 10.6556962,6.60886076 Z"></path>
                <path d="M16.2455696,1.01898734 C17.3518987,2.12531646 17.3518987,3.90126582 16.2455696,5.00759494 C15.1392405,6.11392405 13.3632911,6.11392405 12.256962,5.00759494 C11.1506329,3.90126582 11.1506329,2.12531646 12.256962,1.01898734 C13.3632911,-0.0873417722 15.1392405,-0.0873417722 16.2455696,1.01898734 Z"></path>
            </g>
        </g>
    </g>
</svg>