<?xml version="1.0" encoding="UTF-8"?>
<svg width="1024px" height="1024px" viewBox="0 0 1024 1024" version="1.1" xmlns="http://www.w3.org/2000/svg" xmlns:xlink="http://www.w3.org/1999/xlink">
    <!-- Generator: Sketch 56.2 (81672) - https://sketch.com -->
    <title>dragon-default</title>
    <desc>Created with Sketch.</desc>
    <g id="dragon-default" stroke="none" stroke-width="1" fill="none" fill-rule="evenodd">
        <g id="龍">
            <circle id="橢圓形" stroke="#979797" fill="#D8D8D8" fill-rule="nonzero" cx="512" cy="512" r="512"></circle>
            <path d="M499.646426,415.803468 L492.349374,466.09203 L508,466.09203 L508,493.433526 L347,493.433526 L347,466.09203 L362.298451,466.09203 L355.353574,415.803468 L413.110158,415.803468 L419.970514,466.09203 L434.916791,466.09203 L441.875755,415.803468 L499.646426,415.803468 Z M350,373.632533 L388.915433,373.632533 L388.915433,348 L466.422473,348 L466.422473,373.632533 L505,373.632533 L505,401.063584 L350,401.063584 L350,373.632533 Z M351.014126,510.138728 L503,510.138728 L503,646.977487 C503.018686,657.845592 498.844222,668.275609 491.396067,675.970082 C483.947913,683.664556 473.837061,687.99229 463.29066,688 L431.209632,688 L431.209632,664.286134 L437.142715,664.286134 C442.603415,664.120192 446.937115,659.492719 446.90405,653.863097 L446.90405,643.090684 L407.505553,643.090684 L407.505553,688 L351,688 L351.014126,510.138728 Z M408.013978,561.236994 L447,561.236994 L447,533.722543 L408,533.722543 L408.013978,561.236994 Z M408.013978,615.283237 L447,615.283237 L447,588.751445 L408,588.751445 L408.013978,615.283237 Z M604.034284,440.625455 L515,440.625455 L515,348 L589.308296,348 L589.308296,365.585455 L673.382099,365.585455 L673.382099,392.872727 L589.378958,392.872727 L589.378958,413.701818 L675.233447,413.701818 L675.233447,472.945455 C675.233447,480.843636 670.696938,501.658182 647.321905,501.658182 L589.378958,501.658182 L589.378958,521.774545 L673.452761,521.774545 L673.452761,549.061818 L589.378958,549.061818 L589.378958,568.8 L673.452761,568.8 L673.452761,596.087273 L589.378958,596.087273 L589.378958,616.552727 L673.452761,616.552727 L673.452761,643.84 L589.378958,643.84 L589.378958,660.712727 L677,660.712727 L677,688 L515.070662,688 L515.070662,474.370909 L590.778069,474.370909 C601.236064,474.734545 604.034284,466.836364 604.034284,458.574545 L604.034284,440.625455 Z" id="形狀" fill="#000000" fill-rule="nonzero"></path>
            <path d="M295.544586,577.858111 C299.334259,568.565272 302.613245,559.073289 305.366948,549.424407 C307.105312,543.495162 312.02865,540.23347 317.049239,541.20349 C321.267506,542.028007 324.464636,546.890231 324.45248,552.540596 C324.606608,554.817108 324.113622,557.090801 323.030182,559.100354 C318.508005,566.266375 314.52071,573.844654 309.001709,580.319536 C307.891386,581.643227 307.019434,583.148824 306.424554,584.769501 C303.057234,593.52393 299.762853,602.314733 296.322594,611.032786 C293.052526,619.326454 293.016056,626.904734 300.431454,633.197737 C301.176493,633.93172 301.800157,634.778877 302.279225,635.707663 C302.972143,636.545454 302.972143,637.75568 302.279225,638.593471 C301.367496,639.611992 300.346359,639.199734 299.471099,638.593471 C297.307262,637.138442 295.131268,635.671287 293.088995,634.058629 C290.438902,631.948836 288.384472,631.560828 286.488075,635.1014 C284.586439,638.624461 282.441753,642.011515 280.069502,645.238107 C272.641948,655.423314 276.90884,664.796129 284.129736,671.840898 C297.501764,684.899788 312.660782,695.776135 327.005322,707.646751 C335.874381,714.927705 345.563468,721.153526 355.876747,726.198379 C364.38622,730.417964 371.169485,737.717363 379.922085,741.75507 C405.316783,753.480184 430.225225,766.272319 457.868855,772.541071 C490.435823,779.925347 523.355326,780.701362 556.566582,780.592235 C583.869833,780.495233 608.255551,770.722284 633.151836,761.798103 C654.279641,754.219824 672.453444,741.076056 692.316984,731.133354 C694.738725,729.742046 696.983574,728.064757 699.002999,726.137752 C700.98449,724.440218 702.649915,722.57293 705.761951,723.142816 C707.816381,723.530824 709.275148,721.845415 710.794696,720.717767 C722.476987,711.963339 731.156649,700.298852 740.820979,689.604384 C743.383557,686.777197 746.235562,684.225096 749.330451,681.989729 C766.033331,669.864483 781.702917,656.526711 792.169568,638.338841 C799.548497,625.546706 804.435365,611.881553 802.538968,596.615867 C801.693085,588.744007 797.85094,581.496053 791.804876,576.366706 C787.19006,572.53745 784.539972,566.845904 784.583981,560.858515 C784.024787,541.033737 786.735662,521.754595 793.944401,503.142341 C801.238235,484.299708 806.100791,464.996315 802.004087,444.589525 C799.852406,433.955683 796.387835,423.976605 788.145803,416.022444 C779.514767,407.692399 771.467237,398.743967 763.225205,390.025915 C759.068149,385.856235 754.597799,382.009422 749.853176,378.519056 C739.970031,370.88015 729.685726,363.641378 721.261348,354.268562 C719.903086,352.682973 718.397048,351.229513 716.763484,349.927724 C700.425296,337.802477 685.643126,323.66444 668.940247,311.951451 C658.789662,304.833932 651.301326,295.267112 645.150193,284.572644 C639.759096,275.133381 637.62371,264.189877 639.071998,253.422886 C639.278657,251.591974 639.655505,249.785312 638.318302,247.9544 C627.377551,233.088847 627.559897,216.428758 631.231127,199.526164 C633.959719,186.06361 641.694461,174.129515 652.881657,166.12111 C653.586727,165.611849 654.303954,165.102589 655.045494,164.653955 C657.075611,163.44143 659.142197,163.44143 660.698215,165.284468 C662.0962,166.957752 661.780134,168.922042 660.442931,170.546825 C652.456183,180.489527 652.56559,192.032762 653.829855,203.794251 C654.000044,205.370533 654.206703,207.359074 655.750565,207.771332 C657.513241,208.244217 657.963027,206.013171 658.935539,204.934024 C664.940795,198.277264 671.833468,193.063408 680.81704,190.917239 C673.523206,200.132427 667.639514,210.026628 664.527478,221.133354 C658.826131,241.503768 657.075611,261.789306 668.174395,281.298828 C672.100908,288.173843 677.972445,292.21155 685.19334,295.667245 C679.224553,267.124415 701.99347,235.610898 729.928854,229.730154 C733.843211,228.905637 737.757568,228.05687 741.611144,226.989848 C747.604244,225.340815 753.269122,226.250208 758.836748,228.638882 C759.63907,228.990514 760.575112,229.184518 760.708832,230.203038 C760.879021,231.50044 759.857885,231.961199 758.885374,232.373458 C757.438763,232.97972 756.016466,233.585982 754.545542,234.180119 C740.711571,239.248472 729.94101,248.330282 721.297817,259.970519 C710.612351,274.338936 709.056333,290.598892 714.137704,307.077102 C716.799953,315.722403 724.203194,321.991156 730.913521,328.07803 C741.854272,337.996481 754.071443,346.2659 767.735225,351.552507 C791.79272,360.791945 812.349175,375.608996 833.501293,389.650032 C857.169783,405.340101 870.602594,427.674806 877.106262,454.714106 C882.16332,475.690782 877.48311,494.800171 866.590985,513.048667 C859.28941,524.886505 857.196557,539.200733 860.804544,552.625473 C862.980537,561.113145 866.189824,568.970305 872.243706,575.663441 C880.862586,585.254511 881.446093,597.488885 881.786472,609.51713 C882.564481,637.186943 871.161788,660.673546 856.74431,683.287131 C845.803559,700.448396 834.246885,717.161028 822.074286,733.425026 C819.557914,736.783719 820.44533,738.202373 824.007152,739.79078 C835.507097,744.94401 853.972653,743.767861 864.414991,733.485652 C867.916032,730.054207 868.402287,725.373862 868.912855,721.033023 C869.143827,719.12936 866.177668,718.025962 863.770703,717.771332 C858.713645,717.249947 853.693056,716.328428 849.608509,713.00611 C844.989081,709.247284 845.426711,702.845153 850.678271,702.093388 C860.597885,700.638359 869.228922,695.145622 879.124223,693.884596 C889.408528,692.57507 899.121484,689.277002 908.591311,685.20292 C916.140429,681.965479 923.397793,678.424907 928.625041,671.598393 C931.877839,667.217081 937.169505,664.82336 942.617045,665.269014 C952.889195,665.754024 957.204713,671.331637 952.925664,680.78933 C947.917231,691.702052 938.848565,698.189059 926.874521,700.189724 C924.212272,700.638359 921.452771,700.529231 919.143057,702.360144 C925.816915,703.099784 932.369209,703.221036 938.885034,701.147619 C945.400859,699.074202 951.940996,697.510045 958.481134,695.667007 C959.654202,695.330805 960.848082,695.071578 962.055112,694.890992 C969.579917,693.920972 974.72207,696.27327 976.411808,701.4265 C978.210954,706.919236 975.90124,711.2722 969.227382,715.346283 C955.697321,723.591451 941.267686,723.833955 926.303171,720.60864 C915.860832,718.341219 905.69809,715.346283 896.264732,710.350681 C891.061797,707.586125 886.454526,711.138822 881.519031,710.932693 C879.890075,710.859942 880.862586,712.860607 881.519031,713.770001 C882.880547,715.782792 884.460878,717.65008 885.822393,719.662871 C894.331866,732.285252 891.997839,760.888709 876.097282,773.450465 C859.965753,786.2426 841.585292,789.989301 821.600187,788.364518 C812.081734,787.588502 803.304821,784.169183 794.515751,780.83474 C791.817033,779.804094 790.054356,779.804094 787.963457,782.447398 C778.815691,793.883297 768.927639,804.710012 758.362649,814.858182 C723.267152,848.954376 682.142086,873.592877 637.163445,892.374884 C599.80686,907.980077 560.833475,916.067616 520.535043,918.383538 C456.215586,922.021112 395.141885,909.532108 337.168063,881.668291 L332.889014,879.6555 C332.439228,886.03338 332.183944,892.047502 330.360485,897.84337 C329.995794,899.055895 329.764822,900.195668 329.387974,901.347567 C328.549183,903.772616 327.114729,905.821783 324.221508,905.712655 C321.109473,905.591403 319.77227,903.445234 319.140138,900.644302 C316.599259,889.799423 312.707322,879.314447 307.555098,869.433917 C305.7431,865.67667 302.875411,862.52566 299.30091,860.364233 C293.222715,856.726659 287.436274,852.519198 281.345923,848.445115 C281.127107,848.833123 280.665165,849.257507 280.725947,849.65764 C282.391372,859.73372 281.698458,869.737049 280.130284,879.752502 C279.631872,882.929317 279.522464,886.385012 275.46223,886.870022 C271.401996,887.355032 270.198513,883.862961 269.493443,880.88015 C265.554772,864.220061 258.260939,848.736121 252.80272,832.621669 C250.44906,825.136738 246.024631,818.466661 240.038511,813.378902 C236.063371,810.044459 232.5988,806.103754 227.979372,801.532536 C227.862682,808.275814 226.998373,814.985517 225.402218,821.539193 C224.563427,824.922137 223.797574,828.341456 221.414922,831.057512 C219.871061,832.839923 217.998977,834.137324 215.458291,833.373434 C212.917606,832.609543 212.941918,830.451249 212.723103,828.317206 C210.54711,807.158651 206.839411,786.351727 197.260176,765.726683 C194.75596,772.625948 189.358523,775.111624 183.535612,777.015287 C180.421743,778.123105 177.089287,778.480426 173.8105,778.058059 C170.905123,777.62155 169.458513,775.924015 170.163584,772.929079 C173.093273,760.488576 171.79254,748.048073 170.163584,735.63182 C169.944133,733.908149 169.45175,732.230151 168.704817,730.660469 C166.869202,726.889518 164.839085,725.349611 160.402003,728.368798 C149.631442,735.643946 134.533206,734.431421 123.932834,725.30111 C119.053951,720.817524 114.537974,715.956331 110.427085,710.76294 C107.891715,707.5962 106.454254,703.69479 106.330382,699.644088 C105.345714,679.516179 106.2696,659.630774 115.958243,641.212525 C118.608335,636.156297 120.480419,630.687811 122.644257,625.449704 C122.989274,624.668005 123.070333,623.79566 122.875228,622.964028 C116.262152,603.563634 117.854639,583.593353 117.307602,563.635197 C116.578218,536.753525 119.094591,510.223485 122.948167,483.754071 C123.81127,477.78845 126.035889,472.016833 127.883661,465.311571 C116.639,466.451344 108.615783,459.57633 99.6929933,454.871734 C88.8981194,449.184993 83.7194974,436.404983 86.9530971,422.46095 C90.1099908,408.497915 96.3706095,395.420348 105.272776,384.193671 C109.747499,379.067101 110.811664,371.807617 107.995807,365.617793 C103.850479,355.420461 99.5714294,345.453508 100.799225,334.0194 C101.394888,328.466037 102.999531,323.749316 106.962514,319.590357 C122.680726,303.075771 142.653674,296.758517 164.644583,294.988231 C167.932203,294.641466 171.198845,294.119333 174.430476,293.424075 C180.630235,292.21155 185.821013,290.004755 188.665609,283.517748 C190.659256,278.970781 194.901836,275.745465 198.658161,271.695633 C193.953638,270.677112 189.63812,269.828345 185.359071,268.785573 C183.118293,268.324589 181.028772,267.311684 179.280876,265.839138 C177.226446,263.996101 175.950025,261.777181 176.582157,258.915623 C177.21429,256.054064 179.438909,254.732412 182.222722,254.247403 C185.991203,253.604765 189.77184,252.913625 193.552477,252.295238 C202.36586,250.840208 209.878508,246.462994 217.293906,241.8554 C219.384805,240.557999 220.807103,238.64221 220.405942,236.253537 C219.968312,233.585982 217.293906,234.750006 215.616324,234.361998 C211.896469,233.525356 208.018581,233.23435 204.359507,232.191579 C200.919249,231.209434 197.843683,229.220893 197.539773,225.158936 C197.235863,221.096978 199.351075,218.247545 203.046617,216.537885 C203.776001,216.198379 204.432446,215.701243 206.158653,214.634222 C197.64918,214.015834 190.464754,213.421697 183.20739,212.960938 C178.162488,212.621431 173.10543,212.378926 168.267187,210.754143 C165.337497,209.771998 162.748186,208.329093 162.286243,204.921899 C161.787831,201.126697 163.842261,198.519769 166.784107,196.725232 C174.835685,191.7152 184.249501,189.325403 193.722667,189.886593 C206.073558,190.589858 218.412294,191.462875 230.738873,192.505647 C234.344521,192.786019 237.966633,192.238495 241.327088,190.905114 C248.462889,188.273935 255.914756,186.503649 263.208589,183.836095 C256.579408,181.68061 249.595752,180.820182 242.639978,181.301919 C235.686523,181.823304 228.757381,182.696322 221.816083,181.301919 C220.268863,181.058963 218.744211,180.689928 217.257437,180.198521 C214.765377,179.252752 213.148577,177.42184 213.452487,174.633033 C213.683953,172.268754 215.556324,170.396105 217.926038,170.158817 C222.228964,169.558606 226.457759,168.514274 230.544371,167.042629 L195.947286,157.694063 C194.269704,157.245429 192.555653,156.881672 190.902384,156.348161 C185.128099,154.480873 183.110138,151.716317 184.04618,147.048097 C185.103786,141.688738 189.018144,138.560424 194.573614,139.166686 C207.204103,140.633841 219.846748,142.404127 232.039606,146.053827 C255.56222,153.11072 279.157772,160.131238 301.039274,171.516845 C307.275501,174.778536 313.256445,176.645824 320.331464,175.4818 C323.629527,175.070753 326.975984,175.293004 330.190296,176.136564 C345.470877,179.652885 346.321825,187.946554 339.319744,199.914172 C338.628588,200.785978 337.864007,201.597279 337.034343,202.339222 C360.265204,198.944153 382.949026,198.180262 404.72112,191.620504 C414.143183,188.747845 422.278256,182.711439 427.745322,174.536031 C431.05186,169.81931 431.805556,165.442096 429.240558,159.985735 C425.674503,151.753181 418.578734,145.56196 409.924055,143.131642 C395.774017,138.766553 381.636136,139.33644 367.534724,142.222249 C352.497271,145.289936 338.104105,145.73857 324.987361,136.159625 C323.018026,134.740971 320.586748,135.310858 318.410754,134.801598 C316.939831,134.462091 315.699879,133.722451 315.870069,132.024916 C316.040258,130.327382 317.41393,130 318.957792,130 C322.495301,130 325.838308,130.424384 328.901718,132.509926 C337.17699,138.254411 347.514829,140.208188 357.323357,137.88141 C364.994039,136.256627 372.810598,135.395735 380.481279,133.807327 C391.665158,131.503531 402.593752,132.388674 413.619597,135.019852 C423.940372,137.444901 431.598897,143.01039 436.716737,152.201327 C438.018234,154.531245 439.124188,156.964598 440.023275,159.476475 C442.794932,166.545493 440.740502,172.814246 436.558704,178.561613 C434.796028,180.986662 435.002687,181.847555 437.300244,183.751218 C445.312029,190.491272 452.681809,197.955825 459.315466,206.049547 C465.770509,213.858206 463.64314,220.090583 454.161156,223.38865 C446.344598,226.11683 437.871594,227.511234 431.890651,234.143744 C430.395415,235.804902 428.243734,234.919759 426.468901,234.277121 C416.804571,230.797176 407.395526,231.488315 397.937855,235.319893 C390.161705,238.338581 382.592307,241.862457 375.278345,245.868857 C372.093371,247.675519 368.19117,248.827417 366.659464,245.032215 C362.550605,234.871258 353.749379,234.750006 345.337157,234.495376 C335.478325,234.20437 327.503734,239.721357 319.565611,244.813961 C317.875873,245.893108 316.356324,247.23901 313.487416,249.542807 C318.349972,249.542807 321.680823,249.336678 325.011674,249.542807 C337.241002,250.4522 348.303316,255.144671 359.049565,260.564656 C361.364694,262.019512 364.334249,261.923501 366.550057,260.322151 C382.851775,250.840208 400.126005,245.5051 419.406039,247.966525 C434.771715,249.930815 450.380519,247.784646 465.794821,250.039942 C474.417214,251.224861 482.974068,252.843625 491.432647,254.890041 C514.906635,260.746535 538.490031,259.970519 560.894257,251.67685 C571.762069,247.651268 582.301659,241.879651 593.060064,237.053803 C595.491341,235.962531 598.153591,233.74361 600.609181,236.65367 C603.064772,239.563729 600.451148,241.782649 599.06532,244.086446 C598.530439,244.971589 597.971245,245.844607 597.3148,246.911628 C600.353897,248.512161 603.61181,247.760396 606.602282,248.439409 C609.592753,249.118423 612.619694,249.651934 613.300452,253.289508 C614.029836,257.181712 611.282492,259.182378 608.352802,260.322151 C600.426836,263.426214 592.452244,266.445401 584.331776,268.967452 C559.034329,276.836737 533.505911,275.52721 507.843773,270.774114 C498.203756,268.991703 488.989213,265.754262 479.446447,263.753596 C464.782232,260.591544 449.795067,259.167077 434.796028,259.50976 C424.669755,259.78864 414.798767,256.514824 404.623869,257.278714 C393.439991,258.103231 382.596491,260.116022 372.239247,266.372649 C378.755072,268.664321 384.966987,270.010223 391.28831,269.670716 C401.050407,269.31275 410.720105,267.648847 420.038171,264.723616 C428.547644,261.849932 432.036527,264.080978 431.611054,272.920282 C431.136955,282.426476 427.040251,289.895628 418.008054,294.090963 C416.391254,294.854854 414.628578,295.715746 412.999621,295.242862 C407.857469,293.751456 403.007069,295.448991 398.059419,296.115879 C379.010356,298.710682 361.006743,294.769977 343.501542,287.555455 C336.098301,284.512018 328.743685,281.286703 320.64753,280.462186 C318.921323,280.280307 317.243741,279.783172 315.578316,280.825943 C313.147038,282.353724 311.566707,283.566249 314.192487,286.730938 C324.823059,299.441517 332.562339,314.301256 336.87631,330.284824 C343.562324,354.692946 341.143203,376.227384 320.635374,394.22125 C309.111116,404.321581 296.06731,408.383538 281.674145,411.087468 C268.168396,413.621645 255.367718,411.802858 242.56704,407.801526 C241.351401,407.437769 239.783227,405.873612 238.920123,407.583272 C238.057019,409.292932 239.661663,410.408454 241.011022,411.305723 C249.4354,416.84696 258.92954,418.774875 268.788372,419.27201 C276.607583,419.648783 284.444409,419.409577 292.225891,418.55662 C289.412736,421.122034 287.211243,424.283234 285.783005,427.808183 C284.498854,430.286429 282.791703,432.522607 280.738103,434.416443 C263.366622,451.804047 260.072241,452.822567 236.428063,443.134495 C236.549627,446.905447 238.774246,449.657878 240.07498,452.652814 C241.472872,455.463848 241.321289,458.794714 239.673819,461.467868 C231.922624,476.000189 226.048878,491.453626 222.192931,507.458929 C220.34516,514.964456 221.840396,522.99137 220.503193,530.715152 C216.041798,556.68743 223.639541,580.51354 233.875221,603.806139 C237.655858,612.390813 241.351401,621.011864 246.335521,629.026652 C248.195448,631.997337 249.386774,632.470222 252.085493,629.936045 C255.864483,626.345986 260.153104,623.330805 264.813233,620.987613 C269.347566,618.744443 274.270904,617.847174 279.935781,616.707401 C260.704373,603.697011 254.68696,583.084092 246.177488,564.071705 C244.305404,559.900621 244.670095,555.20815 244.475593,550.733934 C244.293247,546.696227 248.183292,546.599225 250.383598,545.13207 C253.029483,543.200624 256.666659,543.367132 259.124042,545.532203 C262.039711,548.057689 264.109987,551.413269 265.05636,555.147524 C267.062165,561.670907 267.050008,568.558047 268.59387,575.142056 C270.052637,581.374432 271.888251,587.546183 273.942681,593.596681 C275.15832,597.040251 277.589598,599.816933 281.236515,602.593614 C281.747083,592.372031 283.558385,583.193219 280.020876,573.493022 C275.450074,560.943392 272.301569,547.81175 273.821117,534.182972 C274.465406,528.277977 275.437917,522.397233 283.084286,520.954328 C286.342199,520.335941 288.919353,520.711823 291.277693,522.857992 C298.097427,529.041868 300.04245,536.559521 296.650817,545.071444 C293.282195,553.525097 292.536821,562.793064 294.511292,571.674235 C293.842367,573.770474 293.795925,576.015009 294.377572,578.136992 C294.730107,579.507144 295.204207,577.967238 295.544586,577.858111 Z" id="路徑" fill="#8C8C8C"></path>
            <path d="M296.887173,577.589803 C297.255353,579.119351 296.714589,580.34299 295.379936,582 C294.919711,577.946698 294.655082,574.466976 295.932206,571 C296.749106,573.103129 295.414453,575.614137 296.887173,577.589803 Z" id="路徑" fill="#D8D8D8"></path>
            <path d="M439.984095,158 C438.449465,155.972094 437.422844,153.563878 437,151 C439.029542,152.65868 440.148557,155.283631 439.984095,158 L439.984095,158 Z" id="路徑" fill="#D8D8D8"></path>
            <path d="M272.698758,677 C279.583712,686.727705 287.738084,695.468182 296.939944,702.983551 C307.012157,711.027539 315.484451,721.376815 327.059617,727.176825 C343.180006,735.257599 357.494426,746.158673 372.778494,755.502451 C384.588757,762.597719 397.183976,768.260984 410.30385,772.375206 C429.818005,778.702489 449.247315,785.164655 469.306897,789.64035 C488.966499,794.042471 508.844271,795.256426 528.819008,795.207378 C534.394481,795.207378 538.067021,796.789198 540.575984,801.681807 C541.909249,804.269126 544.054594,806.427269 545,809.738056 C539.182115,810.473787 533.715728,811.67548 528.225099,811.78584 C493.645047,812.484784 459.36801,811.982034 425.478832,802.307178 C391.589654,792.632321 359.530686,779.205238 329.810992,760.358273 C319.253955,753.638601 309.702928,745.34937 300.406433,736.888468 C294.346137,731.358227 288.588855,725.447858 282.225544,720.236433 C278.338558,717.220399 275.775451,712.782723 275.086515,707.876159 C273.874455,699.378471 271.450337,691.027929 271.450337,682.334047 C271.389734,680.433409 269.898901,678.23848 272.698758,677 Z" id="路徑" fill="#D8D8D8"></path>
            <path d="M117.013651,417.268912 C116.712736,403.032565 121.394961,391.981464 130.253875,383.009282 C137.632291,375.544622 137.608218,367.459933 134.250015,358.499909 C130.639045,348.773967 132.793591,343.910996 143.253368,340.373184 C150.114212,338.038958 157.119494,336.300446 163.619241,332.908524 C176.20949,326.343513 188.896033,320.094596 198.97064,309.590578 C200.078004,308.374836 201.293697,307.329297 203.00289,308.532882 C204.904667,309.870199 206.312946,311.365563 205.939812,314.125299 C204.603753,323.851241 195.684657,334.270156 186.055403,336.51928 C181.328982,337.500306 176.556383,338.238803 171.75596,338.731932 C168.578306,339.145284 165.966371,340.239453 165.183994,343.594903 C164.353471,347.242131 166.387651,349.673616 169.37272,351.181137 C172.127951,352.613861 174.96105,353.888366 177.8585,354.99857 C180.771349,356.12921 182.023152,359.375243 180.061192,361.806729 C161.765609,384.541118 152.112282,412.089848 138.823911,437.596131 C136.789731,441.486508 135.405526,441.656712 132.02325,440.027616 C120.444072,434.216366 116.929395,428.769839 117.013651,417.268912 Z" id="路徑" fill="#D8D8D8"></path>
            <path d="M212.308912,570 C217.472275,591.302667 224.749579,611.663379 235.489374,630.695694 C235.620108,631.017902 235.791574,631.322256 235.999636,631.60142 C245.864696,640.767363 238.575242,649.715933 235.732356,658.809418 C235.367883,659.956671 234.651087,659.546075 233.703458,659.715144 C224.980412,661.309221 221.00766,655.983554 217.824598,649.46233 C214.495748,642.62712 211.324836,635.707376 208.105327,628.823861 C204.4606,621.058773 204.812924,612.738174 205.298887,604.574567 C205.906342,594.43044 207.011909,584.26216 210.158523,574.480323 C210.59589,572.97078 210.486548,571.050642 212.308912,570 Z" id="路徑" fill="#D8D8D8"></path>
            <path d="M574.125675,803.962194 C571.392925,804.340546 571.405071,801.789722 570.676337,800.300724 C566.473976,791.537605 566.510413,791.415556 575.971799,790.317115 C593.910781,788.242282 610.999574,782.859921 627.541818,776.012971 C642.772342,769.727447 658.197194,763.710431 672.298182,754.861878 C676.97422,751.932702 678.953945,757.217424 681.2616,759.585175 C683.569255,761.952926 679.84057,762.819474 678.626015,763.85689 C663.674839,776.598807 645.104288,781.920143 627.238179,788.571814 C610.938847,794.674265 594.10511,798.982595 577.295664,803.327539 C576.287583,803.559432 575.255211,803.791326 574.125675,803.962194 Z" id="路徑" fill="#D8D8D8"></path>
            <path d="M277.016439,368.612079 C292.095654,362.360547 307.223201,356.197846 322.22992,349.735339 C325.854731,348.202992 326.446784,349.069101 326.857596,352.300355 C327.497979,357.397075 326.096386,360.483977 320.236274,362.082948 C311.669636,364.41478 303.670886,368.401103 294.669271,369.555916 C289.30455,370.388713 283.903581,369.766891 278.514694,369.911242 C277.572243,369.977866 276.883529,369.666955 277.016439,368.612079 Z" id="路徑" fill="#D8D8D8"></path>
            <path d="M196,533 C198.028321,517.041049 202.824705,503.25497 211.439105,490.917473 C212.226571,489.78807 212.882792,488.376317 214.648625,489.297025 C216.151969,490.094973 216.140038,491.27348 215.841755,492.832547 C213.908884,501.720455 212.083395,510.632916 210.269837,519.545376 C210.158273,520.59972 209.621461,521.557382 208.790356,522.184741 C204.316118,525.094181 200.48617,528.813844 196,533 Z" id="路徑" fill="#D8D8D8"></path>
            <path d="M162.580801,318.94019 C155.516589,321.998785 147.79991,322.653348 140.359274,324.307607 C128.840719,326.866353 121.211872,333.007344 119.342302,344.539553 C119.104621,344.830035 118.738722,345 118.351054,345 C117.963387,345 117.597488,344.830035 117.359806,344.539553 C115.364762,339.422061 116.017229,334.161755 116.50658,328.925251 C116.770076,326.199889 119.016069,325.093082 121.374989,323.974375 C131.97758,318.880685 143.546326,318.904487 154.977049,318.190418 C157.486538,318.035703 159.996027,318.059506 162.505517,318 C162.93213,318.178517 163.082699,318.380837 162.957225,318.595057 C162.83175,318.809278 162.706276,318.94019 162.580801,318.94019 Z" id="路徑" fill="#D8D8D8"></path>
            <path d="M141.771744,678 C145.259644,685.457189 148.254829,691.932514 151.340777,698.370553 C152.209511,700.172707 152.4818,701.589573 150.497976,702.931867 C147.084844,705.380925 143.297204,707.30943 139.269274,708.649045 C137.635536,709.146191 135.936968,709.51905 136.001799,706.809605 C136.222224,697.276832 136.312987,687.719202 141.771744,678 Z" id="路徑" fill="#D8D8D8"></path>
            <path d="M284,212 C292.192507,199.430365 305.005787,196.795447 325,203.812933 L284,212 Z" id="路徑" fill="#D8D8D8"></path>
            <path d="M111.452191,435.003369 C115.770406,441.742281 122.161365,445.73397 129.162631,448.962543 C130.394762,449.537816 132.824477,449.27953 131.719014,452.097194 C130.763249,454.539168 129.220207,454.139999 127.320192,453.564727 C118.925582,450.993609 112.557654,446.309243 110.358243,437.128357 C109.897634,435.977811 109.563692,434.932928 111.452191,435.003369 Z" id="路徑" fill="#D8D8D8"></path>
            <path d="M176.997903,302.42244 C165.538483,307.049892 153.420756,306.413773 141.461511,307 L140.827585,306.900217 C139.35249,306.688177 137.779867,307.112256 136.402299,306.239152 L136,305.71529 C148.72727,302.434913 161.698358,301.486971 174.754782,301.287405 C175.778816,301.075365 177.058857,300.376882 176.997903,302.42244 Z" id="路徑" fill="#D8D8D8"></path>
            <path d="M127.50771,674.550239 C128.301861,669.108834 130.261602,663.838003 133.289424,659 C135.815416,662.815789 137.359078,666.009569 134.327887,669.897129 C132.281649,672.836586 130.440106,675.87613 128.812805,679 C125.711449,678.055024 127.535776,676.105263 127.50771,674.550239 Z" id="路徑" fill="#D8D8D8"></path>
            <path d="M139,715.617521 C143.648739,713.513849 148.087768,710.88678 152.246406,707.778144 C155.25525,705.357564 155.105432,709.249746 156.166643,710.432529 C157.964459,712.44051 156.528703,713.183188 154.91816,714.104659 C150.223863,716.538991 145.442173,716.112639 139,715.617521 Z" id="路徑" fill="#D8D8D8"></path>
            <path d="M731.924288,716.272035 C729.422042,720.047299 726.32924,723.440516 722.751685,726.335605 C721.517167,727.39228 720.003887,728.989872 718.477332,727.178429 C716.950777,725.366986 719.49946,724.989603 720.349021,724.197096 C723.707441,721.07739 727.238429,718.121216 730.703044,715.089566 C731.857916,714.787659 732.163227,715.265678 731.924288,716.272035 Z" id="路徑" fill="#D8D8D8"></path>
            <path d="M383,287.782649 C375.4375,288.597044 368.189619,287.000402 361,285.02871 C368.492585,284.750102 375.658898,286.561058 383,287.782649 Z" id="路徑" fill="#D8D8D8"></path>
            <path d="M271,630 C267.281947,635.319149 262.021298,636.462766 258,640 C259.595335,635.957447 264.407708,632.140957 271,630 Z" id="路徑" fill="#D8D8D8"></path>
            <path d="M276.763441,369.02614 C280.149405,371.250836 284.007279,369.594784 287.629198,369.953928 C289.750636,370.068529 291.878562,370.068529 294,369.953928 C288.101109,371.719718 282.048847,370.702144 276.055575,370.762001 C275.347708,370.762001 274.757819,370.442762 275.099954,369.694546 C275.44209,368.94633 276.067372,368.966282 276.763441,369.02614 Z" id="路徑" fill="#D8D8D8"></path>
            <path d="M731.097557,716 L730,714.860759 C731.074785,712.42763 732.806206,710.38786 734.974795,709 C735.261114,712.78481 733.054071,714.329114 731.097557,716 Z" id="路徑" fill="#D8D8D8"></path>
            <path d="M243.430879,669 C243.998748,671.232855 245.938965,673.320574 244.44831,676 C241.952055,673.834131 243.44271,671.232855 243.430879,669 Z" id="路徑" fill="#D8D8D8"></path>
            <path d="M142,308.436337 C139.957624,309.820513 137.574853,309.308368 135.362279,309.682095 C134.262539,309.903564 132.900955,310.706386 133.005692,308.422495 C134.000696,307.813457 134.812409,306.789167 136.134716,307.038319 C136.49067,306.975332 136.85543,307.070491 137.142812,307.301312 C138.556764,308.256394 140.167099,307.412046 141.63342,307.827299 C141.835677,307.962067 141.97019,308.185547 142,308.436337 L142,308.436337 Z" id="路徑" fill="#D8D8D8"></path>
            <path d="M127.075081,673 C127.582294,674.676907 126.717047,676.869785 128,678.274374 C127.731475,679.506972 127.472895,680.753903 127.20437,681.986501 C125.533548,682.158491 126.030817,680.653575 126.209834,679.377979 C126.418686,677.228099 126.050708,674.92056 127.075081,673 Z" id="路徑" fill="#D8D8D8"></path>
            <path d="M271.996833,678.747766 C270.135378,680.148362 271.850173,682.369996 270.868679,684 C269.740525,682.188885 270.067689,680.100065 270,678.107839 C270,677.359244 270.315883,676.779687 271.128154,677.08154 C271.940425,677.383392 272.019396,678.035394 271.996833,678.747766 Z" id="路徑" fill="#D8D8D8"></path>
            <path d="M262,171 C263.813333,171 265.613333,171.048993 266,172.851917 C263.2,173.48882 262.933333,171.921059 262,171 Z" id="路徑" fill="#D8D8D8"></path>
            <path d="M126.848613,680 C127.200653,680.771784 126.962174,681.879668 127.984225,682.26556 C128.106222,683.724673 127.514292,685.145515 126.428437,686 C125.734877,684.033043 125.889303,681.827876 126.848613,680 L126.848613,680 Z" id="路徑" fill="#D8D8D8"></path>
            <path d="M176.058166,304 L174,302.914156 C175.521253,301.816381 177.221477,301.971501 179,302.06696 C178.776286,304.178985 177.288591,303.868744 176.058166,304 Z" id="路徑" fill="#D8D8D8"></path>
            <path d="M111,434.920747 C109.766227,435.255738 110.172965,436.318467 109.644205,437 C108.42399,436.249159 108.586685,435.059364 108.28841,433.996635 C107.990135,432.933906 107.434259,431.790317 109.644205,432.032897 L111,434.920747 Z" id="路徑" fill="#D8D8D8"></path>
            <path d="M317,375 C316.583942,376.745226 315.751825,377.269802 314,376.87637 C314.339416,375.554841 315.456204,375.282464 317,375 Z" id="路徑" fill="#D8D8D8"></path>
            <path d="M119.105692,349.402985 C120.281961,350.746269 120.117283,352.235075 119.635013,355 C118.870439,352.369403 118.458745,350.891791 118,349.402985 C118.364643,348.865672 118.729287,348.865672 119.105692,349.402985 Z" id="路徑" fill="#D8D8D8"></path>
            <path d="M163.065041,318.893433 C163.185855,318.599757 163.161524,318.262208 163,317.991126 C164.214092,317.248721 165.428184,316.586268 167,317.317251 C166.118231,318.641811 164.55925,319.266275 163.065041,318.893433 L163.065041,318.893433 Z" id="路徑" fill="#D8D8D8"></path>
            <path d="M110,431.126722 C108.847505,431.347107 109.089529,432.294766 108.847505,433 C107.939483,431.850471 107.745922,430.32366 108.340407,429 C109.492902,429.319559 109.746451,430.22314 110,431.126722 Z" id="路徑" fill="#D8D8D8"></path>
            <path d="M131.820823,308 L134,309.081146 C132.486683,310.186053 130.815981,310.079127 129,309.853393 C129.520581,308.392064 130.840194,308.439587 131.820823,308 Z" id="路徑" fill="#D8D8D8"></path>
            <path d="M743,701.068457 C742.48717,702.684708 741.336953,703.808679 740,704 C740.87234,702.077904 741.170213,700.667444 743,701.068457 Z" id="路徑" fill="#D8D8D8"></path>
            <path d="M740,704 C738.531466,706.204545 738.374123,707.784091 736.000867,708 C735.961532,705.931818 737.259611,705.261364 740,704 Z" id="路徑" fill="#D8D8D8"></path>
            <polygon id="路徑" fill="#D8D8D8" points="119 349 117.900585 349 117 346 118.847953 346"></polygon>
            <path d="M746,696.819882 C745.626831,697.259104 745.192081,697.637707 744.710316,697.943007 C744.211782,698.156401 743.767437,697.740844 744.135918,697.190513 C744.528816,696.727089 744.985256,696.325972 745.490629,696 L746,696.819882 Z" id="路徑" fill="#D8D8D8"></path>
            <path d="M334,229.617453 C332.748494,230.286427 332.06687,230.687812 331.351723,231 C331.351723,231 330.949453,230.345892 331.005324,230.212097 C331.541684,228.993077 332.312701,228.517362 334,229.617453 Z" id="路徑" fill="#D8D8D8"></path>
            <path d="M414,197.930371 C413.465241,198.441371 413.15508,198.967855 412.823529,198.998824 C412.491979,199.029794 412.278075,198.441371 412,198.131674 C412.299465,197.729069 412.55615,197.140645 412.909091,197.016767 C413.262032,196.892888 413.497326,197.481312 414,197.930371 Z" id="路徑" fill="#D8D8D8"></path>
            <path d="M140,307.554402 C138.662791,307.464402 137.151163,308.714402 136,307.174402 C137.360465,307.194402 138.767442,306.704402 140,307.554402 Z" id="路徑" fill="#D8D8D8"></path>
        </g>
    </g>
</svg>