<?xml version="1.0" encoding="UTF-8"?>
<svg width="20px" height="13px" viewBox="0 0 20 13" version="1.1" xmlns="http://www.w3.org/2000/svg" xmlns:xlink="http://www.w3.org/1999/xlink">
    <!-- Generator: Sketch 58 (84663) - https://sketch.com -->
    <title>Group 2</title>
    <desc>Created with Sketch.</desc>
    <g id="symbol" stroke="none" stroke-width="1" fill="none" fill-rule="evenodd">
        <g id="icon/24/game" transform="translate(-2.000000, -5.000000)">
            <g id="Group-2" transform="translate(3.000000, 6.000000)">
                <path d="M15.8303427,2.94938149 L15.871381,3.09243195 L17.1968311,8.53271709 C17.2741603,8.85011331 17.2406482,9.18440859 17.1018547,9.48013912 C16.7658269,10.1961217 15.913004,10.5041359 15.1970214,10.1681081 C14.4065733,9.79713176 13.7338481,9.24514111 13.221945,8.57248251 L7.96036981,8.57255093 C7.38023242,9.24901833 6.63849777,9.79009213 5.78250136,10.1344404 L5.69880885,10.1681081 C4.84369771,10.5121002 3.87163241,10.0977564 3.52764024,9.24264528 C3.38948201,8.89920537 3.36943229,8.51957768 3.47064585,8.16349555 L3.73961562,7.21728887 L4.80587857,2.57143173 L5.23846239,2.5710781 C5.77501382,1.89362501 6.67659093,1.55805889 7.56509352,1.78248588 C8.07759551,1.91193884 8.51531967,2.19418926 8.83827881,2.57060599 L12.4422177,2.57123367 C12.7266314,2.20392015 13.1244454,1.92184508 13.5973488,1.78248588 C13.6249422,1.77435445 13.6527251,1.76688087 13.680674,1.7600715 C14.6048988,1.53489693 15.5362938,2.06199578 15.8303427,2.94938149 Z" id="Combined-Shape" fill="#F7E126"></path>
                <path d="M2.66697098,10.9683538 C1.72620466,11.4043807 0.610093172,10.9952086 0.174066212,10.0544423 C-0.00460371646,9.66894629 -0.0472313047,9.23424525 0.0531503253,8.82138493 L1.75798234,1.80956926 C2.06703833,0.538450649 3.34802295,-0.241455192 4.61914156,0.0676008063 C4.65644733,0.0766712204 4.69352706,0.0866473209 4.73034787,0.0975202646 C5.22546666,0.243725597 5.6577415,0.509320051 6.00153402,0.85588255 L11.9975638,0.856881513 C12.3415164,0.509830429 12.7741461,0.243866044 13.2697405,0.0975202646 C13.3065613,0.0866473209 13.343641,0.0766712204 13.3809468,0.0676008063 C14.5991022,-0.228577859 15.8263185,0.475349054 16.1984829,1.65328107 L16.242106,1.80956926 L17.9469381,8.82138493 C18.0473197,9.23424525 18.0046921,9.66894629 17.8260222,10.0544423 C17.3899952,10.9952086 16.2738837,11.4043807 15.3331174,10.9683538 C14.5168147,10.5900133 13.7966522,10.0626023 13.2008947,9.42556315 L4.79919368,9.42556315 C4.20343614,10.0626023 3.48327365,10.5900133 2.66697098,10.9683538 Z" id="Combined-Shape" stroke="#555555"></path>
                <circle id="橢圓形" fill="#555555" cx="12.857187" cy="4.28571744" r="1"></circle>
                <circle id="橢圓形" fill="#555555" cx="14.5714728" cy="6.00000316" r="1"></circle>
                <circle id="橢圓形" fill="#555555" cx="11.1429013" cy="6.00000316" r="1"></circle>
                <path d="M3.00004419,5.57143173 L6.42861562,5.57143173" id="直線" stroke="#555555" stroke-linecap="square"></path>
                <path d="M3.00004419,5.57143173 L6.42861562,5.57143173" id="直線" stroke="#555555" stroke-linecap="square" transform="translate(4.714330, 5.571432) rotate(-270.000000) translate(-4.714330, -5.571432) "></path>
            </g>
        </g>
    </g>
</svg>