<?xml version="1.0" encoding="UTF-8"?>
<svg width="52px" height="35px" viewBox="0 0 52 35" version="1.1" xmlns="http://www.w3.org/2000/svg" xmlns:xlink="http://www.w3.org/1999/xlink">
    <!-- Generator: Sketch 58 (84663) - https://sketch.com -->
    <title>電子</title>
    <desc>Created with Sketch.</desc>
    <g id="共同" stroke="none" stroke-width="1" fill="none" fill-rule="evenodd">
        <g id="首頁-中獎信息+我的收藏" transform="translate(-662.000000, -976.000000)">
            <g id="電子" transform="translate(662.000000, 966.000000)">
                <path d="M41.8619485,11.5555556 L44.5453608,25.2855556 L46.6271655,33.14104 C46.8909422,34.1363245 46.8436858,35.1861792 46.4954327,36.1504452 L46.3929994,36.4111995 C45.3015272,38.9781596 42.335782,40.1742789 39.7688219,39.0828067 C37.3628426,38.0597837 35.2571268,36.540677 33.5582659,34.6678953 L15.6728086,34.6678953 C13.9739477,36.540677 11.8682319,38.0597837 9.46225265,39.0828067 C6.89529258,40.1742789 3.92954731,38.9781596 2.83807518,36.4111995 C2.39855137,35.3775129 2.31615267,34.2268049 2.60390904,33.14104 L6.89539234,16.9483767 C7.1449757,16.0066466 7.58573004,15.1665215 8.16491332,14.4586444 L8.73264607,11.5555556 L41.8619485,11.5555556 Z" id="Combined-Shape" fill="#FFFFFF"></path>
                <path d="M16.3542205,43.2640085 L16.0689185,43.3783378 C13.4640211,44.4221996 10.5061173,43.1567303 9.46225543,40.5518329 C9.04321265,39.5061356 8.98355598,38.3508311 9.2926635,37.2675342 L13.4388885,22.7366923 C14.460611,19.1559679 18.1407563,17.0333347 21.7518393,17.9419505 C23.4383983,18.3663202 24.8590653,19.3349213 25.8597429,20.6219136 L35.7844917,20.6230368 C36.7187864,19.3519981 38.0715894,18.383485 39.6913832,17.9419505 C39.7083436,17.9373273 39.7253237,17.9327769 39.7423232,17.9282994 C42.9503469,17.0833367 46.2341785,18.9362352 47.1887783,22.0847557 L47.2515689,22.3065045 L51.3513772,37.8720222 C51.6199755,38.8917945 51.5376824,39.9722791 51.1177401,40.9396101 C50.0844551,43.3197672 47.3173135,44.4116228 44.9371563,43.3783378 C42.464821,42.3050359 40.333133,40.6767911 38.6720363,38.6684372 L22.8481067,38.6690122 C21.1043557,40.6561834 18.8948338,42.2459073 16.3542205,43.2640085 Z" id="Combined-Shape" fill="#69DEE6"></path>
                <path d="M7.69497564,42.8609381 C10.684964,41.3640975 13.2141712,39.1222352 15.0556117,36.3633286 L15.4844882,35.7207717 L35.1519917,35.7207717 L35.5808682,36.3633286 C37.4223088,39.1222352 39.9515159,41.3640975 42.9415043,42.8609381 C44.8877545,43.8352651 47.2553502,43.0473657 48.2296772,41.1011154 C48.6368159,40.2878426 48.7501289,39.3587812 48.5503995,38.4714916 L43.396119,15.5727954 L43.346373,15.3676889 C42.6442637,12.692336 39.9430968,11.0458795 37.2359122,11.6552683 C37.0896291,11.6881967 36.944854,11.7274989 36.8020009,11.7730625 C35.4629095,12.2001713 34.29092,12.9864361 33.3946898,14.0401737 L32.9620984,14.5487906 L17.6743816,14.5487906 L17.2417902,14.0401737 C16.3455599,12.9864361 15.1735704,12.2001713 13.834479,11.7730625 C13.691626,11.7274989 13.5468509,11.6881967 13.4005677,11.6552683 C10.6261139,11.0307371 7.87069208,12.7735938 7.24616091,15.5480477 L2.0860804,38.4714916 C1.886351,39.3587812 1.99966407,40.2878426 2.40680273,41.1011154 C3.38112974,43.0473657 5.7487254,43.8352651 7.69497564,42.8609381 Z" id="Combined-Shape" stroke="#000000" stroke-width="2.88888889"></path>
                <rect id="矩形" stroke="#000000" stroke-width="0.722222222" fill="#000000" x="11.2432432" y="24.5555556" width="9.83783784" height="1.44444444" rx="0.722222222"></rect>
                <path d="M11.8093093,24.5750751 L20.515015,24.5750751 C20.903107,24.5750751 21.2177177,24.8896858 21.2177177,25.2777778 C21.2177177,25.6658698 20.903107,25.9804805 20.515015,25.9804805 L11.8093093,25.9804805 C11.4212173,25.9804805 11.1066066,25.6658698 11.1066066,25.2777778 C11.1066066,24.8896858 11.4212173,24.5750751 11.8093093,24.5750751 Z" id="矩形" stroke="#000000" stroke-width="0.722222222" fill="#000000" transform="translate(16.162162, 25.277778) rotate(-270.000000) translate(-16.162162, -25.277778) "></path>
                <ellipse id="橢圓形" fill="#000000" cx="35.1351351" cy="21.6666667" rx="1.40540541" ry="1.44444444"></ellipse>
                <ellipse id="橢圓形" fill="#000000" cx="32.3243243" cy="24.5555556" rx="1.40540541" ry="1.44444444"></ellipse>
                <ellipse id="橢圓形" fill="#000000" cx="37.9459459" cy="24.5555556" rx="1.40540541" ry="1.44444444"></ellipse>
                <ellipse id="橢圓形" fill="#000000" cx="35.1351351" cy="27.4444444" rx="1.40540541" ry="1.44444444"></ellipse>
            </g>
        </g>
    </g>
</svg>