<?xml version="1.0" encoding="UTF-8"?>
<svg width="60px" height="53px" viewBox="0 0 60 53" version="1.1" xmlns="http://www.w3.org/2000/svg" xmlns:xlink="http://www.w3.org/1999/xlink">
    <!-- Generator: Sketch 58 (84663) - https://sketch.com -->
    <title>fishing</title>
    <desc>Created with Sketch.</desc>
    <g id="共同" stroke="none" stroke-width="1" fill="none" fill-rule="evenodd">
        <g id="首頁-中獎信息+我的收藏" transform="translate(-1032.000000, -963.000000)" fill-rule="nonzero">
            <g id="fishing" transform="translate(1032.000000, 963.000000)">
                <path d="M36.7777778,34 L48.7777778,25.7777778 C49.3333333,25.4444444 49.3333333,24.6666667 48.8888889,24.3333333 C45.8888889,21.6666667 41.5555556,20 36.7777778,20 C27.5555556,20 20,26.3333333 20,34 C20,41.6666667 27.5555556,48 36.7777778,48 C43.4444444,48 49.2222222,44.7777778 51.8888889,40 C52.2222222,39.4444444 51.8888889,38.7777778 51.3333333,38.6666667 L36.7777778,34 Z" id="Path" fill="#FF9022"></path>
                <path d="M46.8333333,38.4444444 L33.5,31.3333333 L46.8333333,24.2222222 C47.0555556,24.1111111 47.2777778,23.7777778 47.3888889,23.5555556 C47.5,23.2222222 47.3888889,22.8888889 47.2777778,22.6666667 C44.0555556,17.6666667 38.1666667,14.3333333 31.7222222,13.8888889 C30.7222222,11.1111111 28.0555556,9.22222222 24.9444444,9.22222222 L16.3888889,9.22222222 C15.9444444,9.22222222 15.5,9.55555556 15.5,10.1111111 L15.5,10.2222222 C15.5,10.6666667 15.7222222,11 16.1666667,11 C18.6111111,11.4444444 20.3888889,13.3333333 20.8333333,15.6666667 C15.9444444,17.7777778 12.0555556,21.6666667 10.5,26.3333333 C8.05555556,25 4.83333333,24.1111111 1.16666667,24 C0.722222222,24 0.388888889,24.2222222 0.166666667,24.5555556 C-0.0555555556,24.8888889 -0.0555555556,25.3333333 0.166666667,25.6666667 C1.27777778,27.4444444 1.83333333,29.4444444 1.83333333,31.4444444 C1.83333333,33.4444444 1.27777778,35.4444444 0.166666667,37.2222222 C-0.0555555556,37.5555556 -0.0555555556,38 0.166666667,38.3333333 C0.388888889,38.6666667 0.722222222,38.8888889 1.16666667,38.8888889 C4.83333333,38.7777778 8.16666667,37.8888889 10.5,36.5555556 C12.0555556,41.1111111 15.7222222,44.7777778 20.2777778,47 C20.1666667,48.8888889 18.7222222,50.5555556 16.7222222,50.8888889 C16.2777778,51 16.0555556,51.4444444 16.0555556,51.7777778 C16.0555556,52.2222222 16.3888889,52.6666667 16.9444444,52.6666667 L23.5,52.6666667 C25.9444444,52.6666667 27.9444444,51.2222222 28.8333333,49.1111111 C29.1666667,49.1111111 29.3888889,49.1111111 29.7222222,49.1111111 C36.9444444,49.1111111 43.6111111,45.6666667 47.1666667,40.2222222 C47.3888889,40 47.3888889,39.6666667 47.2777778,39.3333333 C47.2777778,38.7777778 47.0555556,38.5555556 46.8333333,38.4444444 Z M19.8333333,10.6666667 L24.9444444,10.6666667 C27.0555556,10.6666667 28.9444444,11.8888889 29.8333333,13.5555556 L29.7222222,13.5555556 C27.1666667,13.5555556 24.7222222,14 22.5,14.7777778 C22.0555556,13.1111111 21.1666667,11.6666667 19.8333333,10.6666667 Z M23.6111111,50.7777778 L20.2777778,50.7777778 C21.1666667,49.8888889 21.8333333,48.7777778 22.0555556,47.5555556 C23.7222222,48.1111111 25.3888889,48.5555556 27.2777778,48.7777778 C26.3888889,50 25.0555556,50.7777778 23.6111111,50.7777778 Z M29.7222222,46.6666667 L29.2777778,46.6666667 C28.7222222,46.6666667 28.1666667,46.6666667 27.6111111,46.5555556 C25.6111111,46.3333333 23.6111111,45.7777778 21.8333333,45 C21.0555556,44.6666667 20.1666667,44.2222222 19.5,43.7777778 C15.8333333,41.5555556 13.1666667,38.2222222 12.2777778,34.2222222 C12.1666667,33.8888889 11.9444444,33.5555556 11.6111111,33.4444444 C11.5,33.4444444 11.3888889,33.4444444 11.2777778,33.4444444 C11.0555556,33.4444444 10.8333333,33.5555556 10.6111111,33.6666667 C8.94444444,35 6.27777778,35.8888889 3.16666667,36.3333333 C3.83333333,34.6666667 4.16666667,33 4.16666667,31.2222222 C4.16666667,29.4444444 3.83333333,27.6666667 3.16666667,26.1111111 C6.27777778,26.4444444 8.94444444,27.4444444 10.6111111,28.7777778 C10.9444444,29 11.2777778,29.1111111 11.7222222,29 C12.1666667,28.8888889 12.3888889,28.5555556 12.3888889,28.2222222 C13.5,23.7777778 16.7222222,20.1111111 21.0555556,18 C21.6111111,17.6666667 22.2777778,17.4444444 22.8333333,17.2222222 C25.0555556,16.4444444 27.3888889,16 29.9444444,16 C30.1666667,16 30.5,16 30.7222222,16 C31.2777778,16 31.8333333,16.1111111 32.3888889,16.1111111 C37.5,16.6666667 41.9444444,19.2222222 44.8333333,22.8888889 L30.7222222,30.4444444 C30.3888889,30.6666667 30.1666667,31 30.1666667,31.4444444 C30.1666667,31.8888889 30.3888889,32.2222222 30.7222222,32.4444444 L44.8333333,40 C41.3888889,44.1111111 35.7222222,46.6666667 29.7222222,46.6666667 Z" id="Shape" fill="#040000"></path>
                <circle id="Oval" fill="#000000" cx="37.1666667" cy="21.6666667" r="1.33333333"></circle>
                <path d="M56.1666667,17.1111111 L56.1666667,0.888888889 C56.1666667,0.444444444 55.7222222,2.98427949e-13 55.2777778,2.98427949e-13 C54.8333333,2.98427949e-13 54.3888889,0.444444444 54.3888889,0.888888889 L54.3888889,17.2222222 C52.3888889,17.6666667 50.9444444,19.4444444 50.9444444,21.5555556 C50.9444444,23.6666667 52.5,25.4444444 54.3888889,25.8888889 L54.3888889,28.7777778 C54.3888889,30.3333333 53.1666667,31.5555556 51.6111111,31.5555556 C50.0555556,31.5555556 48.8333333,30.3333333 48.8333333,28.7777778 C48.8333333,28.3333333 48.3888889,27.8888889 47.9444444,27.8888889 C47.5,27.8888889 47.0555556,28.3333333 47.0555556,28.7777778 C47.0555556,31.2222222 49.0555556,33.3333333 51.6111111,33.3333333 C54.1666667,33.3333333 56.1666667,31.3333333 56.1666667,28.7777778 L56.1666667,25.8888889 C58.1666667,25.4444444 59.6111111,23.6666667 59.6111111,21.5555556 C59.6111111,19.3333333 58.0555556,17.5555556 56.1666667,17.1111111 Z M55.2777778,24.1111111 C53.8333333,24.1111111 52.6111111,22.8888889 52.6111111,21.4444444 C52.6111111,20 53.8333333,18.7777778 55.2777778,18.7777778 C56.7222222,18.7777778 57.9444444,20 57.9444444,21.4444444 C57.9444444,22.8888889 56.7222222,24.1111111 55.2777778,24.1111111 Z" id="Shape" fill="#000000"></path>
            </g>
        </g>
    </g>
</svg>