<svg xmlns="http://www.w3.org/2000/svg" width="20" height="20" viewBox="0 0 20 20">
    <g fill="none" fill-rule="nonzero">
        <g transform="translate(-1 -2)">
            <circle cx="13" cy="13" r="7" fill="#D8D8D8"/>
            <circle cx="11" cy="12" r="9" stroke="#555" stroke-width="1.5"/>
        </g>
        <path fill="#555" d="M10.288 4.352c1.04 0 1.888.272 2.528.848.64.56.96 1.328.96 2.304 0 .8-.208 1.456-.592 1.968-.144.16-.608.592-1.376 1.264a2.272 2.272 0 0 0-.64.784c-.16.32-.24.672-.24 1.056v.224h-1.84v-.224c0-.608.096-1.136.32-1.568.208-.432.576-.88 1.104-1.344.512-.464.832-.768.96-.912.288-.352.432-.736.432-1.136 0-.528-.16-.944-.448-1.248-.304-.304-.736-.448-1.28-.448-.688 0-1.184.208-1.504.64-.272.368-.4.896-.4 1.584H6.448c0-1.184.336-2.112 1.04-2.784.688-.672 1.616-1.008 2.8-1.008zM10 13.584c.352 0 .656.112.896.336.224.224.352.512.352.864s-.128.656-.352.88A1.3 1.3 0 0 1 10 16c-.352 0-.64-.128-.864-.352-.256-.224-.368-.512-.368-.864s.112-.64.368-.864c.224-.224.512-.336.864-.336z"/>
    </g>
</svg>
