<?xml version="1.0" encoding="UTF-8"?>
<svg width="20px" height="20px" viewBox="0 0 20 20" version="1.1" xmlns="http://www.w3.org/2000/svg" xmlns:xlink="http://www.w3.org/1999/xlink">
    <!-- Generator: Sketch 56.2 (81672) - https://sketch.com -->
    <title>icon/20/normal_member</title>
    <desc>Created with Sketch.</desc>
    <g id="icon/20/normal_member" stroke="none" stroke-width="1" fill="none" fill-rule="evenodd">
        <g id="群組" transform="translate(1.000000, 0.000000)" fill-rule="nonzero">
            <path d="M9,10 C7.93255814,10 6.92790698,9.58372093 6.17209302,8.82790698 C5.41627907,8.07209302 5,7.06744186 5,6 C5,4.93255814 5.41627907,3.92790698 6.17209302,3.17209302 C6.92790698,2.41627907 7.93255814,2 9,2 C10.0674419,2 11.072093,2.41627907 11.827907,3.17209302 C12.5837209,3.92790698 13,4.93255814 13,6 C13,7.06744186 12.5837209,8.07209302 11.827907,8.82790698 C11.072093,9.58372093 10.0674419,10 9,10 Z" id="路徑" fill="#D8D8D8"></path>
            <path d="M5,20 C5,17.8651163 5.6244186,15.855814 6.75813953,14.344186 C7.89186047,12.8325581 9.39883721,12 11,12 C12.6011628,12 14.1081395,12.8325581 15.2418605,14.344186 C16.3755814,15.855814 17,17.8651163 17,20" id="路徑" fill="#D8D8D8"></path>
            <path d="M17.293795,16.321608 C17.7390031,17.4246231 17.9759687,18.5929648 17.9999533,19.7939698 C18.0022982,19.9070352 17.9161289,20 17.8084172,20 L16.3722623,20 C16.2669442,20 16.1831685,19.9145729 16.1807749,19.8040201 C16.1329031,17.8643216 15.3908897,16.0477387 14.0792015,14.6708543 C12.722035,13.2462312 10.9196605,12.4623116 9,12.4623116 C7.0803395,12.4623116 5.277965,13.2462312 3.92079854,14.6708543 C2.60911032,16.0477387 1.86709691,17.8643216 1.81922508,19.8040201 C1.81683149,19.9120603 1.73305578,20 1.62773775,20 L0.191582764,20 C0.0838711406,20 -0.00229815844,19.9070352 4.6747773e-05,19.7939698 C0.0240313496,18.5929648 0.260996922,17.4246231 0.706204967,16.3241206 C1.16098738,15.1984925 1.80965071,14.1884422 2.63543983,13.321608 C3.46122894,12.4522613 4.42345278,11.7713568 5.49578184,11.2964824 C5.50535621,11.2914573 5.51493057,11.2889447 5.52450494,11.2839196 C4.03329735,10.1507538 3.06389273,8.30904523 3.06389273,6.23115578 C3.06389273,2.78894472 5.72077945,0 9,0 C12.2792205,0 14.9361073,2.78894472 14.9361073,6.23115578 C14.9361073,8.30904523 13.9667027,10.1507538 12.4754951,11.281407 C12.4850694,11.2864322 12.4946438,11.2889447 12.5042182,11.2939698 C13.5765472,11.7713568 14.5387711,12.4522613 15.3645602,13.3190955 C16.1903493,14.1859296 16.8414062,15.1959799 17.293795,16.321608 Z M9,10 C10.0674363,10 11.0720823,9.58372093 11.8278923,8.82790698 C12.5837023,8.07209302 12.9999792,7.06744186 12.9999792,6 C12.9999792,4.93255814 12.5837023,3.92790698 11.8278923,3.17209302 C11.0720823,2.41627907 10.0674363,2 9,2 C7.93256368,2 6.92791774,2.41627907 6.17210771,3.17209302 C5.41629768,3.92790698 5.00002078,4.93255814 5.00002078,6 C5.00002078,7.06744186 5.41629768,8.07209302 6.17210771,8.82790698 C6.92791774,9.58372093 7.93256368,10 9,10 Z" id="形狀" fill="#555555"></path>
        </g>
    </g>
</svg>