<?xml version="1.0" encoding="UTF-8"?>
<svg width="30px" height="25px" viewBox="0 0 30 25" version="1.1" xmlns="http://www.w3.org/2000/svg" xmlns:xlink="http://www.w3.org/1999/xlink">
    <!-- Generator: Sketch 56.2 (81672) - https://sketch.com -->
    <title>ic/36/test</title>
    <desc>Created with Sketch.</desc>
    <g id="共同" stroke="none" stroke-width="1" fill="none" fill-rule="evenodd">
        <g id="首頁-公告通知+熱門彩種" transform="translate(-423.000000, -102.000000)" fill-rule="nonzero">
            <g id="ic/36/test" transform="translate(419.000000, 96.000000)">
                <g id="ic">
                    <rect id="矩形" fill="#000000" opacity="0" x="0" y="0" width="36" height="36"></rect>
                    <path d="M33.9161577,17.7527698 C33.9001104,17.9273848 33.8876495,18.0712663 33.881419,18.1774417 C33.4260476,26.1401224 26.137522,27 23.0105554,27 L22.9900708,27 C16.3779008,27 12.7314041,24.0544689 12.1513017,18.2441156 L12.1165631,17.9229857 C11.7583262,14.7405349 12.3232931,14.1517818 12.5059826,14.0465041 C12.5594431,14.0158006 12.6316254,14 12.7189736,14 C12.9889808,14 13.5272327,14.1465449 14.5627064,14.844077 C17.5354917,16.8463881 20.4058238,17.8624466 23.0961408,17.8641823 C23.1674417,17.8615488 23.2316004,17.8624167 23.2262513,17.8536485 L23.2806235,17.9194545 L23.3715276,17.8624166 C23.4036221,17.8562819 23.4651062,17.8553841 23.5550985,17.8527507 C25.9433137,17.7790444 28.6015363,16.7664872 31.4549396,14.844047 C32.8905311,13.877994 33.4189966,13.9947032 33.5027584,14.042943 C33.7691186,14.1930191 34.17726,14.8756782 33.9161577,17.7527698 Z" id="路徑" fill="#FFB343"></path>
                    <path d="M32.3629842,11.6457782 C31.2105947,10.9844727 29.7285023,11.3177526 27.7272599,12.7116378 C23.2527102,15.8295783 20.3691305,16.0716745 19.5914586,16.0716745 C19.4773691,16.0716745 19.4114357,16.068529 19.4135419,16.068529 L19.3737747,16.0601291 L19.337149,16.0643112 C19.3193716,16.0664201 19.2209534,16.0737477 19.0503546,16.0737477 C18.1292855,16.0737477 14.7757471,15.8316515 10.2875966,12.7116378 C8.26750588,11.3062073 6.77809545,10.9813272 5.62152935,11.6615057 C3.78774433,12.7378384 3.87359702,15.7803226 4.15200249,18.310305 L4.19073437,18.6708221 C4.97154767,26.6212862 10.2258398,31 19.0095523,31 L19.031542,31 C31.7716537,31 33.636817,22.2593007 33.8472185,18.5020732 C33.8535013,18.3951619 33.8671021,18.245286 33.8838442,18.0608454 C34.0365942,16.3494078 34.3537316,12.7881663 32.3629842,11.6457782 Z M31.8187031,17.8785137 C31.7998548,18.0870817 31.7852188,18.2589404 31.7779008,18.3857612 C31.2430438,27.8967504 22.6822984,28.9238275 19.0095165,28.9238275 L18.9854564,28.9238275 C11.2191251,28.9238275 6.93612861,25.4055507 6.25476879,18.4653995 L6.21396644,18.0818273 C5.79319899,14.2805628 6.45678144,13.5773292 6.67135961,13.4515808 C6.73415168,13.4149071 6.81893344,13.3960341 6.92152831,13.3960341 C7.23866566,13.3960341 7.87086993,13.571074 9.0870867,14.4042381 C12.5787748,16.79589 15.9501262,18.0095166 19.1100409,18.0115897 C19.1937875,18.0084442 19.2691451,18.0094808 19.2628623,17.9990077 L19.3267253,18.0776095 L19.4334968,18.0094808 C19.4711934,18.0021532 19.5434097,18.0010809 19.6491102,17.9979354 C22.4541909,17.9098972 25.5764089,16.7004526 28.9278768,14.4042024 C30.6140523,13.2503045 31.234762,13.3897073 31.3331445,13.4473272 C31.6459982,13.6265849 32.1253811,14.4419842 31.8187031,17.8785137 Z M29.6175542,16.2184049 C29.0910862,16.2184049 28.655647,16.6124859 28.5897136,17.1197334 L28.5468051,17.1197334 L28.5813604,17.3513566 C28.5813604,17.3869936 28.1982896,21.2856971 25.7019573,23.5243276 L25.5355352,23.6783856 L25.5533126,23.6961862 C25.4277285,23.8691172 25.3607241,24.0734674 25.3607241,24.2883265 C25.3607241,24.8605571 25.8254353,25.3258766 26.396918,25.3258766 C26.571729,25.3258766 26.7412569,25.2797664 26.8951492,25.1896193 L26.9202803,25.2200019 L27.0856672,25.0711626 C29.9975194,22.4573599 30.7123993,18.2505047 30.6453949,17.315648 L30.6527129,17.2548469 C30.6527129,16.6837243 30.1880017,16.2184049 29.6175542,16.2184049 Z M11.3656637,11.9675485 C11.3656637,12.5355971 11.8272335,12.9988076 12.3945395,12.9988076 C12.7033237,12.9988076 12.9859057,12.8583682 13.1795294,12.616272 L13.2371096,12.6382905 L13.3135025,12.4401955 C14.4313367,9.54444165 16.2944295,8.07613685 18.8514476,8.07613685 C21.5780293,8.07613685 24.0377358,9.69642646 25.1178734,12.2043903 L25.2120793,12.3846488 L25.248705,12.3710303 C25.4412935,12.6026534 25.7176285,12.7368018 26.0159176,12.7368018 C26.5800822,12.7368018 27.0395816,12.276701 27.0395816,11.7117979 C27.0395816,11.6971427 27.0385464,11.6824518 27.0374754,11.6677966 L27.0793487,11.6510326 L27.001885,11.4508644 C26.9945669,11.4319914 26.9851428,11.4131184 26.9809662,11.4120818 C26.9579413,11.3345167 26.923386,11.2611693 26.885725,11.2014406 C25.414092,8.04157203 22.261531,6 18.8514476,6 C15.448718,6 12.7953877,8.02166247 11.3802997,11.6919241 L11.3405326,11.9046742 L11.3688051,11.9162196 C11.3666989,11.9319114 11.3656637,11.9497121 11.3656637,11.9675485 Z" id="形狀" fill="#000000"></path>
                </g>
            </g>
        </g>
    </g>
</svg>