<?xml version="1.0" encoding="UTF-8"?>
<svg width="20px" height="20px" viewBox="0 0 20 20" version="1.1" xmlns="http://www.w3.org/2000/svg" xmlns:xlink="http://www.w3.org/1999/xlink">
    <!-- Generator: Sketch 57.1 (83088) - https://sketch.com -->
    <title>icon/20/報表/money change</title>
    <desc>Created with Sketch.</desc>
    <g id="icon/20/報表/money-change" stroke="none" stroke-width="1" fill="none" fill-rule="evenodd">
        <g id="Group-3">
            <rect id="Rectangle" x="0" y="0" width="20" height="20"></rect>
            <path d="M2.24556628,7.54212117 L3.76944308,9.05302127 C3.75882475,9.20064363 3.75342466,9.34969683 3.75342466,9.50000054 C3.75342466,12.920511 6.5501117,15.6933826 10,15.6933826 L10,14.561256 C10,14.5064791 10.0205111,14.4536876 10.0574933,14.4132794 C10.1392185,14.3239834 10.2778586,14.317846 10.3671546,14.3995712 L10.3671546,14.3995712 L12.6726522,16.5096003 L12.6726522,16.5096003 L12.6863604,16.5233085 C12.7680856,16.6126046 12.7619482,16.7512447 12.6726522,16.8329699 L12.6726522,16.8329699 L10.3671546,18.942999 C10.3267465,18.9799812 10.273955,19.0004923 10.2191781,19.0004923 C10.0981294,19.0004923 10,18.9023629 10,18.7813142 L10,18.7813142 L10,17.4318759 L10,17.4318759 C5.581722,17.4318759 2,13.8806543 2,9.50000054 C2,8.82431159 2.08521335,8.16835581 2.24556628,7.54212117 Z M9.9425067,0.0707103315 C9.97948893,0.111118518 10,0.163910007 10,0.218686893 L10,1.56812521 C14.418278,1.56812521 18,5.11934676 18,9.50000054 C18,10.1130207 17.9298604,10.7097984 17.7971038,11.282875 L16.241935,9.74094931 C16.2450192,9.66101202 16.2465753,9.58068646 16.2465753,9.50000054 C16.2465753,6.07949006 13.4498883,3.30661844 10,3.30661844 L10,4.24916974 C10,4.37021845 9.90187063,4.46834782 9.78082192,4.46834782 C9.72929926,4.46834782 9.67942346,4.45019702 9.63995187,4.41708239 L7.34228691,2.48946017 C7.24955131,2.41165979 7.23744392,2.27341306 7.3152443,2.18067746 C7.32142579,2.17330932 7.32808555,2.16635605 7.3351804,2.15986272 L9.63284536,0.057002111 C9.7221414,-0.0247230875 9.8607815,-0.0185857081 9.9425067,0.0707103315 Z" id="Combined-Shape" fill="#4899B4"></path>
            <polygon id="¥" fill="#4899B4" fill-rule="nonzero" points="7.02121212 11.8494475 7.02121212 10.7472376 9.36787879 10.7472376 9.36787879 10.4668508 8.95090909 9.89640884 7.02121212 9.89640884 7.02121212 8.7941989 8.14606061 8.7941989 6.1 6 7.88424242 6 10.1145455 9.2679558 12.3642424 6 14.1 6 12.0151515 8.7941989 13.1690909 8.7941989 13.1690909 9.89640884 11.2006061 9.89640884 10.8321212 10.3991713 10.8321212 10.7472376 13.1690909 10.7472376 13.1690909 11.8494475 10.8321212 11.8494475 10.8321212 13 9.36787879 13 9.36787879 11.8494475"></polygon>
        </g>
    </g>
</svg>