<?xml version="1.0" encoding="UTF-8"?>
<svg viewBox="0 0 16 16" version="1.1" xmlns="http://www.w3.org/2000/svg" xmlns:xlink="http://www.w3.org/1999/xlink">
    <!-- Generator: Sketch 56.2 (81672) - https://sketch.com -->
    <title>icon/16/more</title>
    <desc>Created with Sketch.</desc>
    <g id="icon/16/more" stroke="none" stroke-width="1" fill-rule="evenodd">
        <rect id="矩形" fill="#D0E2F8" x="0" y="4" width="16" height="9" rx="4.5"></rect>
        <path d="M3.876,8 C4.128,8 4.344,8.072 4.512,8.24 C4.68,8.396 4.764,8.6 4.764,8.852 C4.764,9.104 4.68,9.308 4.512,9.476 C4.332,9.632 4.116,9.716 3.876,9.716 C3.636,9.716 3.432,9.632 3.264,9.464 C3.084,9.296 3,9.092 3,8.852 C3,8.6 3.084,8.396 3.264,8.24 C3.432,8.072 3.636,8 3.876,8 Z M7.884,8 C8.136,8 8.352,8.072 8.52,8.24 C8.688,8.396 8.772,8.6 8.772,8.852 C8.772,9.104 8.688,9.308 8.52,9.476 C8.34,9.632 8.124,9.716 7.884,9.716 C7.644,9.716 7.44,9.632 7.272,9.464 C7.092,9.296 7.008,9.092 7.008,8.852 C7.008,8.6 7.092,8.396 7.272,8.24 C7.44,8.072 7.644,8 7.884,8 Z M11.88,8 C12.132,8 12.348,8.072 12.516,8.24 C12.684,8.396 12.768,8.6 12.768,8.852 C12.768,9.104 12.672,9.308 12.504,9.476 C12.336,9.632 12.12,9.716 11.88,9.716 C11.64,9.716 11.424,9.632 11.256,9.464 C11.088,9.296 11.004,9.092 11.004,8.852 C11.004,8.6 11.088,8.396 11.256,8.24 C11.424,8.072 11.64,8 11.88,8 Z" id="…" fill="#5FA7F8" fill-rule="nonzero"></path>
    </g>
</svg>
