<svg xmlns="http://www.w3.org/2000/svg" width="31" height="28" viewBox="0 0 31 28">
    <g fill="none" fill-rule="evenodd">
        <path fill="#69E6C0" d="M12.803 22.612l-4.303.681a1 1 0 0 1-1.144-.831L6.26 15.548a1 1 0 0 1 .831-1.144l4.31-.683c.25-.382.663-.753 1.177-1.03l10.44-7.058c1.008-.848 2.14-.602 2.535.594.043.13.076.267.098.41l2.901 18.315c.21 1.33-.597 2.172-1.802 1.891-.13-.03-.26-.07-.392-.122l-12.11-3.487c-.579-.104-1.09-.332-1.446-.622z"/>
        <path fill="#000" fill-rule="nonzero" d="M7.942 21.575l-1.971.348.918 5.21c.06.336-.333.687-.877.783-.544.095-1.033-.1-1.092-.437L4 22.27l-.009.002c-1.058.187-2.059-.47-2.235-1.468L.484 13.582c-.176-.997.54-1.956 1.598-2.143l4.79-.845c.152-.026.301-.036.448-.03.342-.593.919-1.13 1.623-1.525l10.91-7.493c1.55-1.282 3.526-.87 4.2 1.03.066.187.118.383.153.586l.815 4.618c2.743-.245 5.277 1.71 5.778 4.547.5 2.838-1.213 5.54-3.875 6.248l.614 3.48c.36 2.048-1.06 3.55-3.023 3.147a2.972 2.972 0 0 1-.47-.13L11.234 21.76a4.846 4.846 0 0 1-1.296-.385l.842 4.776c.06.337-.334.688-.877.784-.544.096-1.033-.1-1.093-.436l-.868-4.924zm.37-2.096l-1.216-6.893-4.667.823 1.216 6.893 4.667-.823zm1.162 1.693l.846 4.795-.846-4.795zm-3.918.824l.873 4.951-.873-4.95zM8.967 11.62c.065.138.113.286.14.442l1.274 7.222c.005.029.01.058.013.087.212.149.634.34 1.205.432l12.992 3.36c.095.034.189.06.283.079.602.123.869-.16.747-.85L22.29 3.5a1.624 1.624 0 0 0-.067-.258c-.187-.529-.583-.608-1.158-.119l-.08.061L10 10.73l-.08.05c-.505.277-.838.638-.952.841zM25.37 9.761l1.205 6.834c1.603-.513 2.616-2.181 2.307-3.93-.308-1.75-1.83-2.97-3.512-2.904zM6.01 26.958l3.806-.81-3.807.81zM5.8 25.98l3.807-.81a.987.987 0 0 1 1.16.777.987.987 0 0 1-.744 1.18l-3.807.81a.987.987 0 0 1-1.16-.777.987.987 0 0 1 .744-1.18z"/>
    </g>
</svg>
