<?xml version="1.0" encoding="UTF-8"?>
<svg width="20px" height="20px" viewBox="0 0 20 20" version="1.1" xmlns="http://www.w3.org/2000/svg" xmlns:xlink="http://www.w3.org/1999/xlink">
    <!-- Generator: Sketch 56.2 (81672) - https://sketch.com -->
    <title>icon/20/select_recharge</title>
    <desc>Created with Sketch.</desc>
    <g id="icon/20/select_recharge" stroke="none" stroke-width="1" fill="none" fill-rule="evenodd">
        <g id="群組-4" transform="translate(2.000000, 2.000000)">
            <circle id="橢圓形" fill="#FFDCBE" cx="9.5" cy="9.5" r="7.5"></circle>
            <circle id="橢圓形" stroke="#FF8113" stroke-width="1.5" cx="8.5" cy="8.5" r="8.5"></circle>
            <path d="M12.572,4 C12.6840006,4 12.74,4.0399996 12.74,4.12 C12.74,4.14400012 12.7280001,4.1759998 12.704,4.216 L9.98,8.668 L11.48,8.668 C11.5840005,8.668 11.636,8.72399944 11.636,8.836 L11.636,9.316 C11.636,9.3960004 11.6140002,9.45399982 11.57,9.49 C11.5259998,9.52600018 11.4560005,9.544 11.36,9.544 L9.788,9.544 L9.788,10.552 L11.48,10.552 C11.5840005,10.552 11.636,10.6039995 11.636,10.708 L11.636,11.2 C11.636,11.2800004 11.6140002,11.3379998 11.57,11.374 C11.5259998,11.4100002 11.4560005,11.428 11.36,11.428 L9.788,11.428 L9.788,12.64 C9.788,12.7360005 9.76600022,12.8039998 9.722,12.844 C9.67799978,12.8840002 9.60000056,12.904 9.488,12.904 L8.252,12.904 C8.16399956,12.904 8.10200018,12.8860002 8.066,12.85 C8.02999982,12.8139998 8.012,12.7560004 8.012,12.676 L8.012,11.428 L6.38,11.428 C6.2999996,11.428 6.24400016,11.4120002 6.212,11.38 C6.17999984,11.3479998 6.164,11.2960004 6.164,11.224 L6.164,10.744 C6.164,10.6159994 6.21599948,10.552 6.32,10.552 L8.012,10.552 L8.012,9.556 L6.38,9.556 C6.2999996,9.556 6.24400016,9.53800018 6.212,9.502 C6.17999984,9.46599982 6.164,9.41200036 6.164,9.34 L6.164,8.86 C6.164,8.73199936 6.21599948,8.668 6.32,8.668 L7.7,8.668 L5.048,4.252 C5.01599984,4.2119998 5,4.1720002 5,4.132 C5,4.04399956 5.06799932,4 5.204,4 L6.704,4 C6.79200044,4 6.85399982,4.01199988 6.89,4.036 C6.92600018,4.06000012 6.96799976,4.1119996 7.016,4.192 L8.948,7.564 C8.9880002,7.6440004 9.01999988,7.684 9.044,7.684 C9.0840002,7.684 9.11999984,7.64800036 9.152,7.576 L11.084,4.192 C11.1240002,4.1119996 11.1639998,4.06000012 11.204,4.036 C11.2440002,4.01199988 11.3079996,4 11.396,4 L12.572,4 Z" id="¥" fill="#FF8113" fill-rule="nonzero"></path>
        </g>
    </g>
</svg>