<?xml version="1.0" encoding="UTF-8"?>
<svg width="20px" height="20px" viewBox="0 0 20 20" version="1.1" xmlns="http://www.w3.org/2000/svg" xmlns:xlink="http://www.w3.org/1999/xlink">
    <!-- Generator: Sketch 56.2 (81672) - https://sketch.com -->
    <title>icon/20/select_member</title>
    <desc>Created with Sketch.</desc>
    <g id="icon/20/select_member" stroke="none" stroke-width="1" fill="none" fill-rule="evenodd">
        <path d="M10,10 C8.93255814,10 7.92790698,9.58372093 7.17209302,8.82790698 C6.41627907,8.07209302 6,7.06744186 6,6 C6,4.93255814 6.41627907,3.92790698 7.17209302,3.17209302 C7.92790698,2.41627907 8.93255814,2 10,2 C11.0674419,2 12.072093,2.41627907 12.827907,3.17209302 C13.5837209,3.92790698 14,4.93255814 14,6 C14,7.06744186 13.5837209,8.07209302 12.827907,8.82790698 C12.072093,9.58372093 11.0674419,10 10,10 Z" id="路徑" fill="#FFDCBE" fill-rule="nonzero"></path>
        <path d="M6,20 C6,17.8651163 6.6244186,15.855814 7.75813953,14.344186 C8.89186047,12.8325581 10.3988372,12 12,12 C13.6011628,12 15.1081395,12.8325581 16.2418605,14.344186 C17.3755814,15.855814 18,17.8651163 18,20" id="路徑" fill="#FFDCBE" fill-rule="nonzero"></path>
        <path d="M18.293795,16.321608 C18.7390031,17.4246231 18.9759687,18.5929648 18.9999533,19.7939698 C19.0022982,19.9070352 18.9161289,20 18.8084172,20 L17.3722623,20 C17.2669442,20 17.1831685,19.9145729 17.1807749,19.8040201 C17.1329031,17.8643216 16.3908897,16.0477387 15.0792015,14.6708543 C13.722035,13.2462312 11.9196605,12.4623116 10,12.4623116 C8.0803395,12.4623116 6.277965,13.2462312 4.92079854,14.6708543 C3.60911032,16.0477387 2.86709691,17.8643216 2.81922508,19.8040201 C2.81683149,19.9120603 2.73305578,20 2.62773775,20 L1.19158276,20 C1.08387114,20 0.997701842,19.9070352 1.00004675,19.7939698 C1.02403135,18.5929648 1.26099692,17.4246231 1.70620497,16.3241206 C2.16098738,15.1984925 2.80965071,14.1884422 3.63543983,13.321608 C4.46122894,12.4522613 5.42345278,11.7713568 6.49578184,11.2964824 C6.50535621,11.2914573 6.51493057,11.2889447 6.52450494,11.2839196 C5.03329735,10.1507538 4.06389273,8.30904523 4.06389273,6.23115578 C4.06389273,2.78894472 6.72077945,0 10,0 C13.2792205,0 15.9361073,2.78894472 15.9361073,6.23115578 C15.9361073,8.30904523 14.9667027,10.1507538 13.4754951,11.281407 C13.4850694,11.2864322 13.4946438,11.2889447 13.5042182,11.2939698 C14.5765472,11.7713568 15.5387711,12.4522613 16.3645602,13.3190955 C17.1903493,14.1859296 17.8414062,15.1959799 18.293795,16.321608 Z M10,10 C11.0674363,10 12.0720823,9.58372093 12.8278923,8.82790698 C13.5837023,8.07209302 13.9999792,7.06744186 13.9999792,6 C13.9999792,4.93255814 13.5837023,3.92790698 12.8278923,3.17209302 C12.0720823,2.41627907 11.0674363,2 10,2 C8.93256368,2 7.92791774,2.41627907 7.17210771,3.17209302 C6.41629768,3.92790698 6.00002078,4.93255814 6.00002078,6 C6.00002078,7.06744186 6.41629768,8.07209302 7.17210771,8.82790698 C7.92791774,9.58372093 8.93256368,10 10,10 Z" id="形狀" fill="#FF8113" fill-rule="nonzero"></path>
    </g>
</svg>