<?xml version="1.0" encoding="UTF-8"?>
<svg width="20px" height="20px" viewBox="0 0 20 20" version="1.1" xmlns="http://www.w3.org/2000/svg" xmlns:xlink="http://www.w3.org/1999/xlink">
    <!-- Generator: Sketch 56.2 (81672) - https://sketch.com -->
    <title>icon/20/select-help</title>
    <desc>Created with Sketch.</desc>
    <g id="icon/20/select-help" stroke="none" stroke-width="1" fill="none" fill-rule="evenodd">
        <g id="interation" transform="translate(-1.000000, -2.000000)" fill-rule="nonzero">
            <rect id="矩形" fill="#000000" opacity="0" x="0" y="0" width="23" height="23"></rect>
            <circle id="橢圓形" fill="#FFDCBE" cx="13" cy="13" r="7"></circle>
            <circle id="橢圓形" stroke="#FF8113" stroke-width="1.5" cx="11" cy="12" r="9"></circle>
        </g>
        <path d="M10.288,4.352 C11.328,4.352 12.176,4.624 12.816,5.2 C13.456,5.76 13.776,6.528 13.776,7.504 C13.776,8.304 13.568,8.96 13.184,9.472 C13.04,9.632 12.576,10.064 11.808,10.736 C11.52,10.96 11.312,11.232 11.168,11.52 C11.008,11.84 10.928,12.192 10.928,12.576 L10.928,12.8 L9.088,12.8 L9.088,12.576 C9.088,11.968 9.184,11.44 9.408,11.008 C9.616,10.576 9.984,10.128 10.512,9.664 C11.024,9.2 11.344,8.896 11.472,8.752 C11.76,8.4 11.904,8.016 11.904,7.616 C11.904,7.088 11.744,6.672 11.456,6.368 C11.152,6.064 10.72,5.92 10.176,5.92 C9.488,5.92 8.992,6.128 8.672,6.56 C8.4,6.928 8.272,7.456 8.272,8.144 L6.448,8.144 C6.448,6.96 6.784,6.032 7.488,5.36 C8.176,4.688 9.104,4.352 10.288,4.352 Z M10,13.584 C10.352,13.584 10.656,13.696 10.896,13.92 C11.12,14.144 11.248,14.432 11.248,14.784 C11.248,15.136 11.12,15.44 10.896,15.664 C10.64,15.888 10.352,16 10,16 C9.648,16 9.36,15.872 9.136,15.648 C8.88,15.424 8.768,15.136 8.768,14.784 C8.768,14.432 8.88,14.144 9.136,13.92 C9.36,13.696 9.648,13.584 10,13.584 Z" id="？" fill="#FF8113" fill-rule="nonzero"></path>
    </g>
</svg>
