<?xml version="1.0" encoding="UTF-8"?>
<svg width="20px" height="20px" viewBox="0 0 20 20" version="1.1" xmlns="http://www.w3.org/2000/svg" xmlns:xlink="http://www.w3.org/1999/xlink">
    <!-- Generator: Sketch 56.2 (81672) - https://sketch.com -->
    <title>icon/20/select_withdraw</title>
    <desc>Created with Sketch.</desc>
    <g id="icon/20/select_withdraw" stroke="none" stroke-width="1" fill="none" fill-rule="evenodd">
        <g id="money-collect" transform="translate(-2.000000, -2.000000)" fill-rule="nonzero">
            <rect id="矩形-2" fill="#000000" opacity="0" x="0" y="0" width="24" height="24"></rect>
            <polygon id="路徑" fill="#FFDCBE" points="13.08 21.519655 7 19.3086682 7 6 19.16 6 19.16 19.3086682"></polygon>
            <path d="M20.988125,16.9807512 C20.9525,16.8810074 20.84325,16.8311356 20.7435,16.8667583 L19.29,17.3963502 L19.29,4.61489907 C19.29,3.72195488 18.568,3 17.675,3 L5.325,3 C4.432,3 3.71,3.72195488 3.71,4.61489907 L3.71,17.3963502 L2.254125,16.8667583 C2.23275,16.8596338 2.211375,16.8548841 2.19,16.8548841 C2.0855,16.8548841 2,16.9403787 2,17.0448722 L2,18.4602837 C2,18.5386538 2.049875,18.6098994 2.125875,18.6383976 L11.23875,21.9536904 C11.407375,22.0154365 11.59025,22.0154365 11.758875,21.9536904 L20.874125,18.6407725 C20.950125,18.6122742 21,18.5410287 21,18.4626586 L21,17.047247 C21,17.0234985 20.99525,17.0021249 20.988125,16.9807512 Z M11.5,20.2295482 L5.42,18.0185613 L5.42,4.70989313 L17.58,4.70989313 L17.58,18.0185613 L11.5,20.2295482 Z M12.312799,7.30664062 L11.343514,7.30664062 L11.343514,8.29354898 C11.0444188,8.36404279 10.7767142,8.46138992 10.5403921,8.58559329 C10.30407,8.70979667 10.1055994,8.85665656 9.94497419,9.02617738 C9.78434902,9.1956982 9.66157415,9.38451807 9.5766459,9.59264264 C9.49171764,9.80076721 9.44925415,10.0256726 9.44925415,10.2673657 C9.44925415,10.7776066 9.62833931,11.2156687 9.98651498,11.5815651 C10.2117595,11.826615 10.6825503,12.0951588 11.3989017,12.3872046 C11.7459998,12.531549 12.0312436,12.6649817 12.2546419,12.7875067 C12.4780401,12.9100316 12.6469709,13.0199668 12.7614395,13.1173153 C12.9866839,13.3187262 13.0993045,13.5855916 13.0993045,13.9179196 C13.0993045,14.2905297 12.9645291,14.5943199 12.6949742,14.8292992 C12.4217268,15.0676354 12.0820189,15.1868018 11.6758403,15.1868018 C11.2585841,15.1868018 10.9244149,15.082741 10.6733226,14.8746165 C10.433308,14.6564213 10.2302218,14.2922088 10.0640578,13.7819679 L8.84552807,14.0135893 C9.02646218,14.7353116 9.30709045,15.2690424 9.68742132,15.6147977 C10.0677522,15.9605531 10.6197776,16.1871369 11.343514,16.294556 L11.343514,17.3066406 L12.312799,17.3066406 L12.312799,16.2643446 C12.936837,16.1132864 13.4353214,15.821245 13.8082672,15.3882116 C14.1849056,14.9518214 14.3732219,14.4483018 14.3732219,13.8776376 C14.3732219,13.2969029 14.164597,12.8017753 13.7473408,12.3922398 C13.5996395,12.2411817 13.379937,12.0842514 13.088227,11.9214443 C12.7965169,11.7586371 12.4272691,11.5849229 11.9804727,11.4002962 C11.4635181,11.1888148 11.1201177,11.0058693 10.9502612,10.8514543 C10.7767122,10.6936825 10.6899389,10.4956314 10.6899389,10.2572952 C10.6899389,9.99546107 10.7970208,9.77726923 11.0111877,9.60271313 C11.2253546,9.42815704 11.4949054,9.3408803 11.8198483,9.3408803 C12.344188,9.3408803 12.7688229,9.60942411 13.0937657,10.1465198 L14.1738262,9.59767789 C13.9227339,9.18814244 13.6587218,8.88435226 13.3817818,8.68629823 C13.1048419,8.4882442 12.7485178,8.35732909 12.312799,8.29354898 L12.312799,7.30664062 Z" id="形狀" fill="#FF8113"></path>
        </g>
    </g>
</svg>