<?xml version="1.0" encoding="UTF-8"?>
<svg width="20px" height="20px" viewBox="0 0 20 20" version="1.1" xmlns="http://www.w3.org/2000/svg" xmlns:xlink="http://www.w3.org/1999/xlink">
    <!-- Generator: Sketch 61.1 (89650) - https://sketch.com -->
    <title>Group 8</title>
    <desc>Created with Sketch.</desc>
    <g id="Page-1" stroke="none" stroke-width="1" fill="none" fill-rule="evenodd">
        <g id="icon/24/Machine-selection" transform="translate(-2.000000, -2.000000)" fill="#4A4A4A" fill-rule="nonzero">
            <g id="Group-8" transform="translate(2.000000, 2.000000)">
                <path d="M5.86875,18.4297872 C5.96490731,18.903528 6.24168097,19.3187273 6.63800173,19.5837727 C7.03432249,19.8488182 7.51761779,19.9419263 7.98125,19.8425532 L15.6041667,18.2170213 C16.5688536,18.010394 17.1877018,17.0452385 16.9875,16.0595745 L14.03125,1.59148936 C13.8279565,0.607141938 12.8832156,-0.0237161535 11.91875,0.180851064 L4.29583333,1.80638298 C3.33283985,2.01499196 2.71625645,2.9795207 2.91666667,3.96382979 L5.86875,18.4297872 Z M15.2645833,16.5510638 L7.64166667,18.1744681 C7.5784803,18.1891452 7.51543893,18.1493794 7.5,18.0851064 L7.07083333,15.9829787 L14.9270833,14.3085106 L15.35625,16.4106383 C15.3665909,16.4743031 15.3263016,16.5350877 15.2645833,16.5489362 L15.2645833,16.5510638 Z M14.5833333,12.6382979 L6.73125,14.3148936 L5.13125,6.49148936 L12.9875,4.81702128 L14.5833333,12.6382979 Z M4.56041667,3.52553191 C4.57730226,3.49813137 4.60437882,3.47892813 4.63541667,3.47234043 L12.2583333,1.84680706 L12.2916667,1.84680706 C12.347833,1.84652942 12.3965094,1.88647663 12.4083333,1.94255319 L12.65625,3.15106383 L4.79166667,4.82553191 L4.54375,3.61702128 C4.53693249,3.58547835 4.54294742,3.55246024 4.56041667,3.52553191 Z" id="Shape"></path>
                <polygon id="Rectangle-path" transform="translate(11.217561, 16.212247) rotate(-11.790000) translate(-11.217561, -16.212247) " points="9.41756091 15.361183 13.0175609 15.361183 13.0175609 17.0633107 9.41756091 17.0633107"></polygon>
                <polygon id="Rectangle-path" transform="translate(16.736917, 8.646255) rotate(-11.534621) translate(-16.736917, -8.646255) " points="15.9034167 5.13704305 17.5704167 5.13704305 17.5704167 12.1554676 15.9034167 12.1554676"></polygon>
                <polygon id="Rectangle-path" transform="translate(18.623721, 8.163627) rotate(-11.790000) translate(-18.623721, -8.163627) " points="17.7903882 6.11362657 19.4570548 6.11362657 19.4570548 10.2136266 17.7903882 10.2136266"></polygon>
                <polygon id="Rectangle-path" transform="translate(3.268780, 11.422253) rotate(-12.680000) translate(-3.268780, -11.422253) " points="2.4354466 7.91374235 4.10211327 7.91374235 4.10211327 14.9307636 2.4354466 14.9307636"></polygon>
                <polygon id="Rectangle-path" transform="translate(1.411991, 11.848188) rotate(-12.680000) translate(-1.411991, -11.848188) " points="0.578657608 9.7981883 2.24532427 9.7981883 2.24532427 13.8981883 0.578657608 13.8981883"></polygon>
            </g>
        </g>
    </g>
</svg>