<svg xmlns="http://www.w3.org/2000/svg" width="24" height="24" viewBox="0 0 24 24">
    <g fill="none" fill-rule="evenodd" stroke="#646464" transform="translate(4 6)">
        <path fill="#646464" d="M8.461 7.36l.431.421a.5.5 0 0 1 0 .716l-.43.42a.5.5 0 0 1-.7 0l-.43-.42a.5.5 0 0 1 0-.716l.43-.42a.5.5 0 0 1 .7 0zM12.103 8.139l.366.358V7.78l-.366.358zm-.049.047l-.35.342h.7l-.35-.342zm-.049-.047l-.366-.358v.716l.366-.358zm.05-.048l.348-.34h-.698l.35.34zM4.535 8.139l.367.358V7.78l-.367.358zm-.049.047l-.349.342h.699l-.35-.342zm-.048-.047L4.07 7.78v.716l.367-.358zm.048-.048l.35-.34h-.699l.35.34z"/>
        <path d="M14.543 3.517l-3.192 2.33L10.1 4.505a2.5 2.5 0 0 0-3.66 0L5.272 5.76 1.998 3.37a.5.5 0 0 0-.795.404v5.532a1.5 1.5 0 0 0 1.5 1.5h11.135a1.5 1.5 0 0 0 1.5-1.5V3.92a.5.5 0 0 0-.795-.404z"/>
        <ellipse cx="8.27" cy="1.806" rx="1.081" ry="1.056"/>
        <ellipse cx="1.243" cy="1.806" rx="1.081" ry="1.056"/>
        <ellipse cx="15.297" cy="1.806" rx="1.081" ry="1.056"/>
    </g>
</svg>
