<svg
	viewBox="0 0 37 36"
	version="1.1"
	xmlns="http://www.w3.org/2000/svg"
>
	<title>Crown</title>
	<g id="ic/36/test4" stroke="none" strokeWidth="1" fill="none" fillRule="evenodd">
		<path d="M25.2777778,19.2777778 L32,15 L32,22 L32,27 C32,28.1045695 31.1045695,29 30,29 L10,29 L10,22 L10,15 L16.7222222,19.2777778 L21,15 L25.2777778,19.2777778 Z" id="合併形狀" fill="#F7E126"></path>
		<rect id="矩形" stroke="#646464" fill="#646464" transform="translate(18.707107, 23.000000) rotate(-315.000000) translate(-18.707107, -23.000000) " x="17.2071068" y="21.5" width="3" height="3"></rect>
		<rect id="矩形" stroke="#646464" fill="#646464" transform="translate(26.000000, 23.000000) rotate(-315.000000) translate(-26.000000, -23.000000) " x="25.5" y="22.5" width="1" height="1"></rect>
		<rect id="矩形" stroke="#646464" fill="#646464" transform="translate(12.000000, 23.000000) rotate(-315.000000) translate(-12.000000, -23.000000) " x="11.5" y="22.5" width="1" height="1"></rect>
		<path d="M31.7005549,12.8742592 L24.7520719,18.0705825 L20.8498502,13.7781386 C20.7964937,13.7194465 20.7403741,13.6633269 20.681682,13.6099704 C19.6600379,12.6812031 18.0789171,12.7564946 17.1501498,13.7781386 L13.3984483,17.9050103 L6.29944506,12.5961226 C6.07830163,12.4307437 5.76496334,12.4759497 5.5995844,12.6970932 C5.53493545,12.7835412 5.5,12.8885903 5.5,12.9965382 L5.5,27 C5.5,27.8284271 6.17157288,28.5 7,28.5 L31,28.5 C31.8284271,28.5 32.5,27.8284271 32.5,27 L32.5,13.2746749 C32.5,13.1667269 32.4650646,13.0616779 32.4004156,12.9752298 C32.2350367,12.7540864 31.9216984,12.7088803 31.7005549,12.8742592 Z" id="合併形狀" stroke="#646464"></path>
		<circle id="Oval-15" stroke="#646464" fill="#FFFFFF" cx="19" cy="11" r="2"></circle>
		<circle id="Oval-15" stroke="#646464" fill="#FFFFFF" cx="6" cy="11" r="2"></circle>
		<circle id="Oval-15" stroke="#646464" fill="#FFFFFF" cx="32" cy="11" r="2"></circle>
	</g>
</svg>
