<?xml version="1.0" encoding="UTF-8"?>
<svg viewBox="0 0 24 24" version="1.1" xmlns="http://www.w3.org/2000/svg" xmlns:xlink="http://www.w3.org/1999/xlink">
    <!-- Generator: Sketch 56.2 (81672) - https://sketch.com -->
    <title>icon/24/prize</title>
    <desc>Created with Sketch.</desc>
    <g id="icon/24/prize" stroke="none" stroke-width="1" fill="none" fill-rule="evenodd">
        <g id="ic/36/test4copycopy">
            <path d="M16.3963964,12.316358 L20.7567568,9.58333333 L20.7567568,14.0555556 L20.7567568,16.5277778 C20.7567568,17.6323473 19.8613263,18.5277778 18.7567568,18.5277778 L6.48648649,18.5277778 L6.48648649,14.0555556 L6.48648649,9.58333333 L10.8468468,12.316358 L13.6216216,9.58333333 L16.3963964,12.316358 Z" id="合併形狀" fill="#6E6D6D"></path>
            <path d="M11.6684689,13.7323782 L12.599689,13.7253193 C12.8758235,13.7232262 13.1013715,13.9453806 13.1034646,14.221515 C13.1034838,14.2240416 13.1034838,14.2265683 13.1034646,14.229095 L13.0964058,15.1603151 C13.0943351,15.433494 12.8733891,15.65444 12.6002102,15.6565107 L11.6689901,15.6635695 C11.3928556,15.6656627 11.1673076,15.4435083 11.1652144,15.1673739 C11.1651953,15.1648473 11.1651953,15.1623205 11.1652144,15.1597939 L11.1722732,14.2285738 C11.174344,13.9553948 11.3952899,13.7344489 11.6684689,13.7323782 Z" id="矩形" stroke="#FFFFFF" transform="translate(12.134340, 14.694444) rotate(-315.000000) translate(-12.134340, -14.694444) "></path>
            <path d="M17.00968,14.5496293 L17.5173035,14.5457814 L17.0135279,14.0420058 L17.00968,14.5496293 Z M17.0075011,14.8370807 L17.0037681,15.3295434 L17.4999638,14.8333477 L17.0075011,14.8370807 Z M16.7200497,14.8392596 L16.2124262,14.8431075 L16.7162019,15.3468831 L16.7200497,14.8392596 Z M16.7222287,14.5518082 L16.7259616,14.0593455 L16.229766,14.5555412 L16.7222287,14.5518082 Z" id="矩形" stroke="#FFFFFF" transform="translate(16.864865, 14.694444) rotate(-315.000000) translate(-16.864865, -14.694444) "></path>
            <path d="M7.92859892,14.5496293 L8.43622241,14.5457814 L7.9324468,14.0420058 L7.92859892,14.5496293 Z M7.92641999,14.8370807 L7.92268704,15.3295434 L8.41888269,14.8333477 L7.92641999,14.8370807 Z M7.63896865,14.8392596 L7.13134516,14.8431075 L7.63512077,15.3468831 L7.63896865,14.8392596 Z M7.64114758,14.5518082 L7.64488053,14.0593455 L7.14868487,14.5555412 L7.64114758,14.5518082 Z" id="矩形" stroke="#FFFFFF" transform="translate(7.783784, 14.694444) rotate(-315.000000) translate(-7.783784, -14.694444) "></path>
            <path d="M20.1088734,8.7814785 L16.0333074,11.7834731 L14.1614232,9.75538198 C14.116165,9.70634702 14.0689617,9.65914374 14.0199268,9.61388553 C13.0053251,8.67743016 11.4236808,8.74078028 10.4872254,9.75538198 L8.71297602,11.6776909 L4.53977528,8.6037801 C4.31743779,8.44000998 4.00443573,8.48748821 3.84066561,8.7098257 C3.77738131,8.79574169 3.74324324,8.89965038 3.74324324,9.00635774 L3.74324324,16.5277778 C3.74324324,17.3562049 4.41481612,18.0277778 5.24324324,18.0277778 L19.4054054,18.0277778 C20.2338325,18.0277778 20.9054054,17.3562049 20.9054054,16.5277778 L20.9054054,9.18405613 C20.9054054,9.07734877 20.8712673,8.97344009 20.807983,8.8875241 C20.6442129,8.66518661 20.3312109,8.61770838 20.1088734,8.7814785 Z" id="合併形狀" stroke="#FFFFFF"></path>
            <ellipse id="Oval-15" stroke="#FFFFFF" cx="12.3243243" cy="7.66666667" rx="1.2972973" ry="1.27777778"></ellipse>
            <ellipse id="Oval-15" stroke="#FFFFFF" cx="3.89189189" cy="7.66666667" rx="1.2972973" ry="1.27777778"></ellipse>
            <ellipse id="Oval-15" stroke="#FFFFFF" cx="20.7567568" cy="7.66666667" rx="1.2972973" ry="1.27777778"></ellipse>
        </g>
    </g>
</svg>
