<?xml version="1.0" encoding="UTF-8"?>
<svg width="20px" height="20px" viewBox="0 0 20 20" version="1.1" xmlns="http://www.w3.org/2000/svg" xmlns:xlink="http://www.w3.org/1999/xlink">
    <!-- Generator: Sketch 56.2 (81672) - https://sketch.com -->
    <title>icon/20/normal_proxy</title>
    <desc>Created with Sketch.</desc>
    <g id="icon/20/normal_proxy" stroke="none" stroke-width="1" fill="none" fill-rule="evenodd">
        <rect id="矩形" fill="#D8D8D8" x="5" y="6" width="14" height="13" rx="2"></rect>
        <path d="M18.4166667,9.40813019 L20,9.40813019 L20,16.75 C20,17.9926407 18.9366763,19 17.625,19 L3.375,19 C2.06332372,19 1,17.9926407 1,16.75 L1,3.25 C1,2.00735931 2.06332372,1 3.375,1 L10.7545863,1 L10.7545863,2.5 L3.375,2.5 C2.93777457,2.5 2.58333333,2.83578644 2.58333333,3.25 L2.58333333,16.75 C2.58333333,17.1642136 2.93777457,17.5 3.375,17.5 L17.625,17.5 C18.0622254,17.5 18.4166667,17.1642136 18.4166667,16.75 L18.4166667,9.40813019 Z M8.76624319,9.53117744 C8.44470645,9.8009788 8.38784113,10.2625655 8.63923094,10.5621602 C8.89062076,10.861755 9.3550695,10.8859072 9.67660625,10.6161059 L17.8273191,3.77684571 C18.1488559,3.50704435 18.2057212,3.04545763 17.9543314,2.74586291 C17.7029416,2.44626819 17.2384928,2.42211591 16.9169561,2.69191727 L8.76624319,9.53117744 Z M7.85588013,8.44624899 L16.006593,1.60698883 C16.9712032,0.797584734 18.3645495,0.87004159 19.1187189,1.76882574 C19.8728884,2.66760989 19.7022924,4.05237007 18.7376822,4.86177416 L10.5869693,11.7010343 C9.62235907,12.5104384 8.22901284,12.4379816 7.47484339,11.5391974 C6.72067394,10.6404133 6.8912699,9.25565308 7.85588013,8.44624899 Z M4.5,14 L13.5,14 C13.7761424,14 14,14.2238576 14,14.5 C14,14.7761424 13.7761424,15 13.5,15 L4.5,15 C4.22385763,15 4,14.7761424 4,14.5 C4,14.2238576 4.22385763,14 4.5,14 Z" id="Combined-Shape" fill="#555555"></path>
    </g>
</svg>