<svg xmlns="http://www.w3.org/2000/svg" width="20" height="20" viewBox="0 0 20 20">
    <g fill="none" fill-rule="evenodd">
        <path d="M0 0h20v20H0z"/>
        <path fill="#5EA4BC" fill-rule="nonzero" d="M14.455 15.727V17h-1.273v-1.273h1.273zm2.545 0V17h-1.273v-1.273H17zm-7.636-5.09V17H3v-6.364h6.364zm5.09 0v1.272h1.273v-1.273H17v3.819h-3.818v-1.273h-1.273V17h-1.273v-6.364h3.819zm-6.363 1.272H4.273v3.808H8.09V11.91zm-1.273 1.273v1.273H5.545v-1.273h1.273zM9.364 3v6.364H3V3h6.364zM17 3v6.364h-6.364V3H17zM8.09 4.273H4.274V8.09H8.09V4.273zm7.637 0H11.91V8.09h3.818V4.273zM6.818 5.545v1.273H5.545V5.545h1.273zm7.637 0v1.273h-1.273V5.545h1.273z"/>
    </g>
</svg>
