<?xml version="1.0" encoding="UTF-8"?>
<svg width="48px" height="50px" viewBox="0 0 48 50" version="1.1" xmlns="http://www.w3.org/2000/svg" xmlns:xlink="http://www.w3.org/1999/xlink">
    <!-- Generator: Sketch 58 (84663) - https://sketch.com -->
    <title>資產 1</title>
    <desc>Created with Sketch.</desc>
    <g id="共同" stroke="none" stroke-width="1" fill="none" fill-rule="evenodd">
        <g id="首頁-中獎信息+我的收藏" transform="translate(-480.000000, -966.000000)">
            <g id="資產-1" transform="translate(480.000000, 966.000000)">
                <path d="M0.533653846,14.0192308 C0.504807692,14.3365385 0.490384615,14.6586538 0.485576923,14.9807692 C0.485576923,15.0673077 0.485576923,15.1586538 0.485576923,15.2451923 L0.485576923,14.0192308 L0.533653846,14.0192308 Z" id="Path" fill="#000000" fill-rule="nonzero"></path>
                <path d="M30.9711538,14.0192308 L30.9711538,15.2451923 C30.9711538,14.8317308 30.9711538,14.4230769 30.9230769,14.0192308 L30.9711538,14.0192308 Z" id="Path" fill="#000000" fill-rule="nonzero"></path>
                <circle id="Oval" fill="#FFF4D5" fill-rule="nonzero" cx="17.6153846" cy="18.9471154" r="10.2596154"></circle>
                <path d="M15.8653846,25.6923077 C17.5799896,25.6923077 18.9615385,24.3490666 18.9615385,22.7028007 C18.9615385,21.637528 12.7692308,21.637528 12.7692308,22.7028007 C12.7692308,24.3490666 14.1507797,25.6923077 15.8653846,25.6923077 Z" id="Oval" stroke="#000000" stroke-width="1.5"></path>
                <path d="M30.9182692,14.0379285 C30.8720093,13.3912829 30.7804384,12.7486796 30.6442308,12.1148516 C30.4827374,11.3302299 30.2576349,10.5600578 29.9711538,9.81196694 C27.5258537,3.40598764 21.1058063,-0.580305771 14.2797914,0.0689898752 C7.45377656,0.718285522 1.90042239,5.84349786 0.706730769,12.5956208 C0.622625766,13.0730041 0.563251688,13.5544156 0.528846154,14.0379285 C0.5,14.3552362 0.485576923,14.6773516 0.480769231,14.9994669 C0.480769231,15.0860054 0.480769231,15.1773516 0.480769231,15.26389 L0.480769231,34.4369669 L30.9663462,34.4369669 L30.9663462,15.26389 C30.9663462,14.8504285 30.9519231,14.4417746 30.9182692,14.0379285 Z M15.7259615,2.42254386 C20.8933295,2.42829298 25.5554383,5.52626619 27.5625,10.2879285 C27.1682692,10.32639 26.7740385,10.3456208 26.3653846,10.3456208 C22.9612723,10.3413187 19.6994608,8.9794908 17.3028846,6.56196694 C16.6552957,5.91631126 16.0798009,5.20218191 15.5865385,4.43215925 C15.2751133,5.29111273 14.8704521,6.11333282 14.3798077,6.88408232 C12.0301128,10.6326715 7.91451547,12.9057895 3.49038462,12.8985229 C3.36057692,12.8985229 3.22596154,12.8985229 3.10096154,12.8985229 C4.24655955,6.82725045 9.54757218,2.4285808 15.7259615,2.42254386 L15.7259615,2.42254386 Z M3.49038462,15.3023516 C8.50314481,15.3003106 13.1945779,12.8341627 16.0384615,8.70619771 C18.8477695,11.3079364 22.5363836,12.7521285 26.3653846,12.7494669 C27.0084357,12.7493311 27.6508038,12.7075771 28.2884615,12.6244669 C29.2958774,17.4226199 27.4832889,22.3756829 23.6167975,25.3902147 C19.750306,28.4047464 14.5047405,28.9546127 10.0971703,26.8074093 C5.68960002,24.6602058 2.88928997,20.1906898 2.87980769,15.2879285 C3.07692308,15.2975439 3.28846154,15.3023516 3.49038462,15.3023516 Z M28.5625,32.0331208 L2.87980769,32.0331208 L2.87980769,23.4802362 C5.68025473,27.8615804 10.5212807,30.5127494 15.7211538,30.5127494 C20.921027,30.5127494 25.762053,27.8615804 28.5625,23.4802362 L28.5625,32.0331208 Z" id="Shape" fill="#000000" fill-rule="nonzero"></path>
                <circle id="Oval" fill="#000000" fill-rule="nonzero" cx="9.55288462" cy="17.3365385" r="1.50961538"></circle>
                <circle id="Oval" fill="#000000" fill-rule="nonzero" cx="22.0288462" cy="17.3365385" r="1.50961538"></circle>
                <path d="M29.4230769,42.4038462 C29.4230769,35.7932692 23.3173077,30.4375 15.7884615,30.4375 C8.25961538,30.4375 2.14903846,35.7932692 2.14903846,42.4038462 L2.14903846,42.4038462 C2.14673626,42.4246159 2.14673626,42.4455764 2.14903846,42.4663462 C2.14903846,44.0336538 8.25480769,45.3028846 15.7884615,45.3028846 C23.3221154,45.3028846 29.4230769,44.0336538 29.4230769,42.4663462 C29.4230769,42.4663462 29.4230769,42.4230769 29.4230769,42.4038462 L29.4230769,42.4038462 Z" id="Path" fill="#FFFFFF" fill-rule="nonzero"></path>
                <path d="M15.7884615,46.5048077 C13.3076923,46.5048077 0.947115385,46.3125 0.947115385,42.4663462 L0.947115385,42.4038462 C0.961538462,35.1442308 7.60576923,29.2355769 15.7884615,29.2355769 C23.9711538,29.2355769 30.625,35.1442308 30.625,42.4038462 L30.625,42.4663462 C30.625,46.3125 18.2692308,46.5048077 15.7884615,46.5048077 Z M3.36538462,42.2644231 C4.15865385,42.9278846 8.44711538,44.1009615 15.8028846,44.1009615 C23.1586538,44.1009615 27.4471154,42.9278846 28.2355769,42.2644231 C28.1346154,36.3942308 22.5961538,31.6394231 15.7884615,31.6394231 C8.98076923,31.6394231 3.44230769,36.3942308 3.36538462,42.2644231 Z" id="Shape" fill="#000000" fill-rule="nonzero"></path>
                <path d="M27.8230791,18.7548861 L35.0778868,18.7548861 C37.8393105,18.7548861 40.0778868,20.9934623 40.0778868,23.7548861 L40.0778868,35.0241169 C40.0778868,37.7855406 37.8393105,40.0241169 35.0778868,40.0241169 L27.8230791,40.0241169 C25.0616553,40.0241169 22.8230791,37.7855406 22.8230791,35.0241169 L22.8230791,23.7548861 C22.8230791,20.9934623 25.0616553,18.7548861 27.8230791,18.7548861 Z" id="Rectangle" fill="#FFFFFF" fill-rule="nonzero" transform="translate(31.450483, 29.389501) rotate(31.510000) translate(-31.450483, -29.389501) "></path>
                <path d="M25.2167714,23.6048363 L40.4715791,23.6048363 C41.0238638,23.6048363 41.4715791,24.0525515 41.4715791,24.6048363 L41.4715791,43.874067 C41.4715791,44.4263518 41.0238638,44.874067 40.4715791,44.874067 L25.2167714,44.874067 C24.6644867,44.874067 24.2167714,44.4263518 24.2167714,43.874067 L24.2167714,24.6048363 C24.2167714,24.0525515 24.6644867,23.6048363 25.2167714,23.6048363 Z" id="Rectangle" fill="#FFB343" fill-rule="nonzero" transform="translate(32.844175, 34.239452) rotate(31.510000) translate(-32.844175, -34.239452) "></path>
                <path d="M30.3822917,17.4038462 L43.0697917,25.1826923 L33.0938301,41.4519231 L20.4015224,33.6682692 L30.3726763,17.4086538 C30.3726763,17.4086538 30.3726763,17.4086538 30.3726763,17.4086538 M30.3726763,15.0048077 C29.5341557,15.0012221 28.7543651,15.4348439 28.314984,16.1490385 L18.3534455,32.4134615 C17.6615771,33.5447638 18.0165292,35.022655 19.1467147,35.7163462 L31.8390224,43.4951923 C32.2145063,43.7276966 32.6473818,43.8509728 33.0890224,43.8509728 C33.928503,43.8535234 34.7085078,43.4179599 35.1467147,42.7019231 L45.1178686,26.4423077 C45.4516694,25.8985813 45.5556236,25.2444588 45.4068308,24.6240379 C45.258038,24.003617 44.8687052,23.4677973 44.3245993,23.1346154 L31.6370993,15.3509615 C31.2605106,15.1215365 30.8280698,15 30.3870993,15 L30.3726763,15.0048077 Z" id="Shape" fill="#000000" fill-rule="nonzero"></path>
                <path d="M33.6682692,49.1202818 C33.0517196,49.1247073 32.4459765,48.9582944 31.9182692,48.6394231 L18.4278846,40.3461538 C17.6664016,39.8797051 17.1215239,39.1297357 16.9132265,38.2613792 C16.7049291,37.3930226 16.8502919,36.4774815 17.3173077,35.7163462 L19.3653846,36.9807692 C19.2306395,37.1985838 19.188363,37.4611559 19.2479305,37.7102566 C19.3074981,37.9593573 19.4639865,38.1743986 19.6826923,38.3076923 L33.1730769,46.5961538 C33.390232,46.7292448 33.65132,46.7707422 33.8990385,46.7115385 C34.1490922,46.6533233 34.3654797,46.4975243 34.5,46.2788462 L45.0144231,29.1057692 C45.1491682,28.8879546 45.1914447,28.6253826 45.1318771,28.3762819 C45.0723096,28.1271812 44.9158212,27.9121399 44.6971154,27.7788462 L45.9519231,25.7307692 C46.7134061,26.197218 47.2582838,26.9471874 47.4665812,27.8155439 C47.6748786,28.6839004 47.5295158,29.5994415 47.0625,30.3605769 L36.5480769,47.5144231 C36.0802302,48.2743733 35.3296972,48.8173857 34.4615385,49.0240385 C34.2017447,49.0867759 33.9355284,49.1190445 33.6682692,49.1202818 L33.6682692,49.1202818 Z" id="Path" fill="#000000" fill-rule="nonzero"></path>
                <path d="M29.8886737,32.9928869 C29.83971,32.9607182 29.8025754,32.9134561 29.7829045,32.8582716 C29.7252122,32.7140408 28.4271353,29.2861562 29.3021353,27.8726946 C29.857709,26.9973741 31.0170724,26.7371089 31.8934814,27.2909639 C32.3157752,27.572652 32.6095664,28.0098824 32.7107891,28.50731 C33.2013158,28.387251 33.7193832,28.4649611 34.1530968,28.7236562 C35.0284173,29.2792299 35.2886826,30.4385933 34.7348276,31.3150023 C33.883866,32.7284639 30.2107891,33.0217331 30.0377122,33.0313485 C29.9853785,33.0330297 29.9336586,33.0196826 29.8886737,32.9928869 Z" id="Path" fill="#000000" fill-rule="nonzero"></path>
            </g>
        </g>
    </g>
</svg>