<?xml version="1.0" encoding="UTF-8"?>
<svg viewBox="0 0 16 16" version="1.1" xmlns="http://www.w3.org/2000/svg" xmlns:xlink="http://www.w3.org/1999/xlink">
    <!-- Generator: Sketch 56.2 (81672) - https://sketch.com -->
    <title>icon/16/充值</title>
    <desc>Created with Sketch.</desc>
    <g id="icon/16/充值" stroke="none" stroke-width="1" fill-rule="evenodd">
        <g id="dollar-currency" fill-rule="nonzero">
            <path d="M8,0 C3.581722,0 0,3.581722 0,8 C0,12.418278 3.581722,16 8,16 C12.418278,16 16,12.418278 16,8 C16,5.87826808 15.1571453,3.84343678 13.6568542,2.34314575 C12.1565632,0.842854723 10.1217319,0 8,0 Z M8.5,11.46 L8.5,12 C8.5,12.2761424 8.27614237,12.5 8,12.5 C7.72385763,12.5 7.5,12.2761424 7.5,12 L7.5,11.458 C7.00859838,11.3865964 6.54709958,11.1787141 6.168,10.858 C5.96144551,10.6746415 5.94264148,10.3585545 6.12600001,10.152 C6.30935854,9.94544552 6.6254455,9.92664147 6.832,10.11 C7.16223593,10.3753677 7.57657632,10.5137177 8,10.5 C8.813,10.5 9.5,10.042 9.5,9.5 C9.5,8.958 8.813,8.5 8,8.5 C6.76328459,8.6179166 5.65643353,7.73243576 5.5,6.5 C5.6014948,5.44731652 6.44548112,4.62020993 7.5,4.54 L7.5,4 C7.5,3.72385763 7.72385763,3.5 8,3.5 C8.27614237,3.5 8.5,3.72385763 8.5,4 L8.5,4.542 C8.99140162,4.61340356 9.45290042,4.8212859 9.832,5.142 C10.0385545,5.32535854 10.0573585,5.6414455 9.874,5.848 C9.69064146,6.0545545 9.3745545,6.07335854 9.168,5.89 C8.83789354,5.62439516 8.42346266,5.48601499 8,5.5 C7.187,5.5 6.5,5.958 6.5,6.5 C6.5,7.042 7.187,7.5 8,7.5 C9.23671541,7.3820834 10.3435665,8.26756424 10.5,9.5 C10.3985052,10.5526835 9.55451888,11.3797901 8.5,11.46 Z" id="形狀"></path>
        </g>
    </g>
</svg>
