<?xml version="1.0" encoding="UTF-8"?>
<svg width="14px" height="14px" viewBox="0 0 14 14" version="1.1" xmlns="http://www.w3.org/2000/svg" xmlns:xlink="http://www.w3.org/1999/xlink">
    <!-- Generator: Sketch 61 (89581) - https://sketch.com -->
    <title>Path 2</title>
    <desc>Created with Sketch.</desc>
    <g id="官方" stroke="none" stroke-width="1" fill="none" fill-rule="evenodd">
        <g id="快三-二同號單選-copy" transform="translate(-182.000000, -503.000000)" fill="#4A4A4A" fill-rule="nonzero">
            <g id="Path-2" transform="translate(182.000000, 503.000000)">
                <path d="M6.65555556,11.6666667 C3.88888889,11.6666667 1.65555556,9.43333333 1.65555556,6.66666667 C1.65555556,3.9 3.88888889,1.66666667 6.65555556,1.66666667 C8.03333333,1.66666667 9.27777778,2.24444444 10.1777778,3.14444444 L7.76666667,5.55555556 L13.3222222,5.55555556 L13.3222222,-1.50102153e-13 L11.3666667,1.95555556 C10.1555556,0.755555556 8.5,-1.50102153e-13 6.65555556,-1.50102153e-13 C2.97777778,-1.50102153e-13 -6.92779167e-14,2.98888889 -6.92779167e-14,6.66666667 C-6.92779167e-14,10.3444444 2.97777778,13.3333333 6.65555556,13.3333333 C9.95555556,13.3333333 12.6888889,10.9333333 13.2111111,7.77777778 L11.5222222,7.77777778 C11.0111111,10 9.03333333,11.6666667 6.65555556,11.6666667 Z" id="Path"></path>
            </g>
        </g>
    </g>
</svg>