<?xml version="1.0" encoding="UTF-8"?>
<svg width="26px" height="28px" viewBox="0 0 26 28" version="1.1" xmlns="http://www.w3.org/2000/svg" xmlns:xlink="http://www.w3.org/1999/xlink">
    <!-- Generator: Sketch 56.2 (81672) - https://sketch.com -->
    <title>ic/36/test</title>
    <desc>Created with Sketch.</desc>
    <g id="共同" stroke="none" stroke-width="1" fill="none" fill-rule="evenodd">
        <g id="首頁-公告通知+熱門彩種" transform="translate(-112.000000, -101.000000)">
            <g id="ic/36/test" transform="translate(112.000000, 101.000000)">
                <path d="M3,22.3638221 C5.63973441,11.2649313 12.8325946,6.59810518 24.5785805,8.36334373 C26.620098,18.9116832 21.2441958,25.1239019 8.45087377,27 C6.78026429,25.6263176 4.96330637,24.080925 3,22.3638221 Z" id="Path-2" fill="#F25B95" transform="translate(14.000000, 17.500000) rotate(-2.000000) translate(-14.000000, -17.500000) "></path>
                <path d="M25.8311666,1.15900735 C25.8311666,0.621323529 25.3988458,0.298713235 24.8584449,0.191176471 C24.4261241,0.0836397059 13.5100244,-1.09926471 8.32217502,4.0625 C7.78177404,4.60018382 7.34945326,5.13786765 6.91713248,5.67555147 L0.43232078,9.97702206 C0.108080195,10.1920956 0,10.5147059 0,10.8373162 C0,11.1599265 0.108080195,11.4825368 0.324240585,11.6976103 L2.81008507,14.1709559 C2.2696841,15.8915441 2.1616039,17.0744485 2.1616039,17.1819853 C2.1616039,17.5045956 2.2696841,17.8272059 2.48584449,18.0422794 L7.88985424,23.4191176 C8.10601463,23.6341912 8.32217502,23.7417279 8.6464156,23.7417279 L8.7544958,23.7417279 C8.86257599,23.7417279 10.0514581,23.5266544 11.7807413,23.0965074 L14.3746659,25.6773897 C14.5908263,25.8924632 14.8069867,26 15.1312273,26 L15.2393075,26 C15.5635481,26 15.8877887,25.7849265 15.9958689,25.5698529 L20.3190767,19.1176471 C20.8594776,18.6875 21.3998786,18.2573529 21.9402796,17.7196691 C27.0200488,12.5579044 25.9392468,1.58915441 25.8311666,1.15900735 Z M2.70200488,11.0523897 L4.3232078,9.97702206 C3.99896722,10.6222426 3.78280683,11.2674632 3.56664644,11.8051471 L2.70200488,11.0523897 Z M14.9150669,23.2040441 L14.0504254,22.34375 C14.6989065,22.1286765 15.3473877,21.8060662 15.9958689,21.5909926 L14.9150669,23.2040441 Z M8.97065619,21.5909926 L4.3232078,16.9669118 C4.64744839,15.2463235 5.94441073,9.43933824 9.83529775,5.56801471 C13.5100244,1.91176471 21.1837182,2.12683824 23.7776429,2.234375 C23.8857231,4.81525735 23.9938033,12.5579044 20.4271569,16.1066176 C16.64435,19.7628676 10.6999393,21.2683824 8.97065619,21.5909926 Z M2.91816527,20.9457721 C2.70200488,20.7306985 2.2696841,20.6231618 1.94544351,20.6231618 C1.62120293,20.7306985 1.29696234,20.9457721 1.18888215,21.3759191 L0.108080195,24.6020221 C1.01307851e-15,25.0321691 0.108080195,25.4623162 0.324240585,25.6773897 C0.43232078,25.8924632 0.756561365,26 1.08080195,26 C1.18888215,26 1.29696234,26 1.40504254,25.8924632 L4.64744839,24.8170956 C4.97168897,24.7095588 5.29592956,24.3869485 5.40400975,24.0643382 C5.51208995,23.7417279 5.40400975,23.3115809 5.07976917,23.0965074 L2.91816527,20.9457721 L2.91816527,20.9457721 Z M18.3736332,4.49264706 C16.5362698,4.49264706 15.1312273,5.890625 15.1312273,7.71875 C15.1312273,9.546875 16.5362698,10.9448529 18.3736332,10.9448529 C20.2109965,10.9448529 21.616039,9.546875 21.616039,7.71875 C21.616039,5.890625 20.1029163,4.49264706 18.3736332,4.49264706 Z M18.3736332,8.79411765 C17.725152,8.79411765 17.2928312,8.36397059 17.2928312,7.71875 C17.2928312,7.07352941 17.725152,6.64338235 18.3736332,6.64338235 C19.0221143,6.64338235 19.4544351,7.07352941 19.4544351,7.71875 C19.4544351,8.36397059 18.9140341,8.79411765 18.3736332,8.79411765 Z" id="Shape" fill="#000000" fill-rule="nonzero"></path>
            </g>
        </g>
    </g>
</svg>
