<?xml version="1.0" encoding="UTF-8"?>
<svg width="1024px" height="1024px" viewBox="0 0 1024 1024" version="1.1" xmlns="http://www.w3.org/2000/svg" xmlns:xlink="http://www.w3.org/1999/xlink">
    <!-- Generator: Sketch 56.2 (81672) - https://sketch.com -->
    <title>tiger-selected</title>
    <desc>Created with Sketch.</desc>
    <defs>
        <linearGradient x1="50%" y1="0%" x2="25.8544922%" y2="95.0408936%" id="linearGradient-1">
            <stop stop-color="#A07C1C" offset="0%"></stop>
            <stop stop-color="#DEA30A" offset="100%"></stop>
        </linearGradient>
        <linearGradient x1="50%" y1="0%" x2="50%" y2="100%" id="linearGradient-2">
            <stop stop-color="#FBE3A3" offset="0%"></stop>
            <stop stop-color="#E2B43C" offset="100%"></stop>
        </linearGradient>
        <linearGradient x1="50%" y1="0%" x2="50%" y2="100%" id="linearGradient-3">
            <stop stop-color="#F7D06A" offset="0%"></stop>
            <stop stop-color="#E8BD4A" offset="100%"></stop>
        </linearGradient>
        <linearGradient x1="50%" y1="0%" x2="50%" y2="100%" id="linearGradient-4">
            <stop stop-color="#F7D069" offset="0%"></stop>
            <stop stop-color="#E7BC49" offset="100%"></stop>
        </linearGradient>
    </defs>
    <g id="tiger-selected" stroke="none" stroke-width="1" fill="none" fill-rule="evenodd">
        <g id="龍" fill="url(#linearGradient-1)" fill-rule="nonzero" stroke="#979797">
            <circle id="橢圓形" cx="512" cy="512" r="512"></circle>
        </g>
        <g id="tiger" transform="translate(47.000000, 61.000000)">
            <polygon id="路徑" points="283 590.5 340 590.5 340 590.5"></polygon>
            <g id="群組">
                <path d="M495.301724,6.20296447 C499.056842,0.108191241 505.158909,0.108191241 512.199755,1.15901421 C525.107973,3.05049556 538.48558,3.47082475 551.863188,6.20296447 C549.985629,9.14526879 547.169291,11.0367501 544.587647,12.9282315 C526.750837,26.1686009 515.016093,42.5614393 507.740552,61.6864173 C506.332383,65.46938 506.097688,69.4625073 506.332383,73.4556346 C506.567078,75.1369513 506.567078,76.8182681 509.148722,77.0284327 C511.260975,77.2385973 512.669145,75.9776097 513.607924,74.5064576 C514.077314,73.6657992 514.546704,72.8251408 514.781398,71.9844824 C517.363042,59.1644422 526.281447,49.0765417 534.495768,38.7784766 C535.434547,37.517489 536.608021,36.466666 538.016191,35.8361722 C554.914221,27.6397531 571.342862,18.8128401 589.883757,13.5587253 C592.230706,12.9282315 594.342959,12.7180669 596.689908,13.1383961 C660.292218,24.066955 715.680207,49.2867063 765.43552,83.9638643 C766.139604,84.3841935 766.374299,85.0146873 767.313079,85.6451811 C752.996692,87.9569916 739.384389,90.8992959 727.884341,98.0448921 C724.363917,100.356703 720.843494,102.458349 719.20063,106.451476 C718.027156,109.183616 714.741428,110.654768 711.690394,112.12592 C705.353633,115.278389 700.425041,119.90201 695.731143,124.525631 C694.322974,125.996783 692.68011,127.888264 694.322974,129.359417 C696.200533,131.040733 698.547482,129.149252 699.720956,128.098429 C704.649548,122.844314 710.98631,118.851187 717.557766,115.068224 C734.455797,104.980324 751.823217,96.1534108 773.415145,95.3127524 C778.343738,95.1025878 782.33355,95.522917 786.323363,98.4652213 C814.017358,117.800364 835.374591,140.918469 848.048114,169.711019 C858.844078,193.879947 865.650229,219.099698 875.976804,243.478791 C879.262532,251.254881 879.497227,251.67521 889.354411,250.834552 C898.038121,250.204058 906.721832,248.943071 915.405542,248.312577 C926.436201,247.471919 931.834183,252.305704 930.895403,261.552946 C929.721929,272.271341 923.854557,280.46776 911.885119,284.671052 C908.130001,285.932039 909.06878,287.193027 909.53817,289.715002 C912.589203,306.318005 921.742303,320.819362 928.783149,336.161377 C931.834183,342.67648 931.364793,349.191582 927.609675,355.706685 C921.742303,365.374256 920.568829,376.09265 920.334134,386.811044 C920.099439,396.268451 920.803524,405.725858 918.925965,414.9731 C918.22188,418.335734 917.987185,421.698367 918.456575,425.271165 C920.334134,435.989559 916.344321,444.396143 906.017747,451.331575 C895.221783,458.477171 886.538073,467.724413 876.446193,477.391985 C883.252345,478.022478 887.711547,476.341162 892.17075,474.239516 C896.864647,471.927705 901.558544,469.195565 906.252442,466.67359 C909.772865,464.782109 913.058593,464.151615 916.109626,466.883755 C919.395355,470.246388 921.272914,474.870009 920.803524,478.652972 C917.987185,498.408444 915.405542,518.163916 909.53817,537.499058 C906.252442,548.427617 907.191221,560.406999 902.027934,570.915229 C890.997275,592.982511 890.293191,617.781933 876.446193,639.008557 C868.231873,651.618433 861.895111,664.648638 857.905299,678.729666 C855.323655,687.766743 848.048114,693.861517 838.660319,698.064808 C828.803135,702.478265 819.650035,699.115631 816.364307,690.288718 C815.425527,687.976908 815.190832,685.665097 814.721442,683.353287 C813.782663,678.93983 813.782663,674.526374 810.027545,670.743411 C807.680596,668.221436 807.915291,664.858803 809.32346,661.916498 C810.26224,659.814852 812.139799,657.503042 811.905104,655.401396 C811.435714,640.269545 820.354119,626.819011 822.935763,612.107489 C824.109237,605.382222 823.874542,598.656955 823.405153,592.141853 C822.701068,581.633623 826.456186,571.966052 830.211304,562.508645 C836.313371,547.376794 840.303183,532.034779 840.537878,515.852105 C840.772573,507.655686 841.711353,499.669432 841.711353,491.473012 C841.711353,481.385112 837.25215,472.348034 833.027642,463.310957 C832.323558,461.839805 830.680694,460.788982 829.272524,459.317829 C835.374591,456.58569 841.241963,453.643385 847.578724,450.911246 C855.323655,447.548612 860.486942,441.453839 867.527788,437.250547 C872.221686,434.518407 876.446193,431.155774 880.905396,428.003305 C881.374786,425.48133 879.497227,426.952482 878.558447,426.952482 C871.752296,428.633799 865.884924,431.365938 860.017552,434.938737 C849.456283,441.453839 837.25215,446.287625 825.752101,451.962069 C822.935763,453.433221 821.292899,452.382398 820.119425,450.490916 C817.772476,446.918118 815.190832,443.34532 813.078578,439.562358 C811.905104,437.670876 810.496935,436.830218 808.149986,437.670876 C793.129514,442.294497 779.282517,437.881041 766.374299,431.996432 C749.476269,424.220342 731.874153,417.70524 713.802648,412.24096 C702.771989,408.878327 694.557669,402.15306 687.047433,395.007464 C677.424943,385.550057 666.863674,377.353638 652.781982,372.940181 C650.200339,372.099523 649.965644,370.838535 649.496254,368.31656 C647.149305,351.713557 653.251372,337.002036 660.057523,322.080349 C662.873862,316.195741 663.812641,309.470474 665.22081,303.165536 C666.394285,298.121586 663.812641,295.809775 657.945269,295.809775 C645.975831,295.809775 634.710477,293.918294 623.914513,289.504837 C617.812446,286.982862 615.230803,283.1999 615.700193,277.73562 C616.638972,269.329036 620.39409,260.081794 630.485969,261.132617 C634.006392,261.763111 634.006392,261.763111 634.475782,260.081794 C618.985921,250.834552 602.322585,243.478791 585.659249,236.12303 C571.577557,229.818093 557.965255,222.462332 542.475393,218.679369 C540.597834,218.25904 539.89375,217.208217 539.42436,215.5269 C536.138632,202.076366 533.087598,188.415668 535.199852,174.544804 C537.312106,159.412954 540.597834,144.281103 546.465206,129.569581 C547.169291,127.888264 548.10807,126.206948 545.995816,125.156125 C543.414173,123.895137 541.301919,125.576454 539.89375,127.047606 C531.914124,136.294848 525.342668,145.96242 522.761024,157.521472 C519.005906,174.33464 515.016093,191.147807 512.199755,208.381304 C511.730365,210.693115 510.556891,210.903279 508.444637,210.48295 C479.811863,206.699987 450.709699,204.598341 421.84223,203.127189 C405.648284,202.496695 389.923728,204.178012 374.199171,207.540646 C369.974664,208.381304 368.801189,207.960975 368.801189,203.967848 C369.035884,194.720605 366.454241,186.103857 361.290953,177.907438 C358.70931,173.704146 357.066446,169.29069 355.892971,164.667068 C352.607243,153.528345 347.209261,143.020115 339.229636,133.772873 C337.352077,131.461063 335.943907,129.149252 335.239823,126.417112 C333.831654,120.532504 329.607146,115.908883 325.147943,111.495426 C324.209164,110.654768 322.800995,108.553122 321.392825,110.024274 C320.219351,111.285262 317.168318,112.756414 319.749961,115.068224 C330.545925,124.315466 331.015315,135.45419 329.137756,147.223407 C328.198977,152.897851 331.7194,158.151966 333.127569,163.616245 C336.882687,177.907438 338.994941,192.408795 341.341889,207.120316 C342.045974,211.533773 340.8725,214.055748 334.770433,214.686242 C326.556113,215.737065 318.576487,217.628546 310.127472,217.628546 C306.607049,217.628546 303.086626,218.25904 300.035592,220.360686 C296.045779,223.30299 290.882492,222.672496 286.657985,220.99118 C281.494698,218.889534 283.137562,214.896406 285.015121,211.533773 C289.004933,204.808506 290.178408,197.873074 287.831459,190.517314 C285.015121,182.11073 274.688546,174.754969 264.831362,173.914311 C265.066057,176.015957 266.239531,177.907438 267.882395,178.958261 C279.851833,187.785174 280.086528,199.554391 278.443664,211.323608 C277.974274,215.5269 275.862021,219.730192 275.157936,223.933484 C273.984462,230.868916 268.821175,235.492537 262.953803,239.695829 C262.015023,240.326322 261.310939,241.377145 259.902769,240.116158 C250.74967,231.499409 237.372062,228.76727 226.106708,223.092826 C213.433185,216.787888 199.820883,211.743938 186.20858,207.330481 C183.157547,206.489823 180.341208,205.018671 176.351396,207.960975 C200.994357,213.845583 212.494406,231.709574 227.749572,246.210931 C231.50469,249.783729 231.0353,255.037844 235.259808,258.610642 C237.137367,260.291959 233.851639,261.132617 232.44347,261.973276 C222.116895,267.857884 211.555626,273.111999 199.820883,276.684797 C195.596375,277.945785 192.545342,280.257595 189.963698,283.1999 C182.218767,292.447142 175.177921,302.324878 163.443178,308.83998 C162.739093,309.260309 161.800314,310.311132 161.800314,310.941626 C161.800314,321.870185 160.626839,333.429238 172.361583,341.415492 C181.279988,347.510265 185.973885,354.866026 185.73919,364.743762 C185.73919,374.411333 178.228955,380.295942 172.126888,388.072032 C170.484024,383.658576 170.249329,379.665448 166.494211,376.933309 C164.851347,376.302815 164.381957,376.933309 164.851347,378.404461 C165.086042,380.506107 165.320737,382.817917 165.320737,384.919563 C165.320737,393.536311 156.167637,398.790426 146.545147,395.427793 C135.983878,391.854995 126.361388,386.811044 116.034814,382.817917 C102.657206,377.563802 99.3714783,368.31656 98.4326988,357.388001 C97.4939193,346.249278 97.7286142,334.90039 97.0245296,323.761666 C96.320445,313.463601 93.7388014,303.375701 91.6265476,293.2878 C89.5142937,282.989735 90.9224629,273.742493 100.544953,266.386732 C101.718427,265.335909 102.657206,264.074921 103.830681,263.024099 C105.942935,260.922453 106.881714,259.4513 102.657206,257.769984 C97.7286142,255.878502 95.1469706,251.885375 93.7388014,247.682083 C90.6877681,238.645006 85.7591758,230.238422 80.8305835,221.201344 C73.5550426,230.868916 64.8713324,239.695829 59.2386555,249.573564 C48.6773863,268.488378 39.7589813,288.24385 35.0650838,309.050145 C28.9630172,336.581706 25.677289,364.533597 24.2691198,392.695653 C24.0344249,395.427793 24.2691198,398.159933 24.9732044,400.892072 C31.5446608,425.691494 36.9426428,450.701081 47.7386068,474.44968 C59.2386555,499.879596 73.0856528,524.258689 96.5551398,543.803996 C108.289883,553.681732 109.698053,563.349304 102.187817,573.016875 C92.565327,585.416586 73.0856528,587.518232 59.9427401,577.430331 C51.9631145,571.335558 45.8610479,563.769633 41.4018453,555.363049 C24.5038147,523.628195 14.4119353,490.212025 6.66700456,456.165361 C0.0955481943,426.742317 -0.843231286,397.10911 0.564937935,367.475902 C2.20780203,337.632529 4.55475073,307.578992 16.0547994,279.206772 C26.8507634,252.936198 37.4120325,226.455459 55.9529273,203.127189 C60.8815196,196.822251 66.7488913,190.937643 71.9121785,184.842869 C76.371381,179.588755 78.9530246,173.914311 80.8305835,167.819537 C88.1061245,143.020115 100.779647,120.532504 122.60627,102.248184 C135.045099,91.7399543 145.136978,78.919914 160.392145,70.7234949 C161.565619,70.0930011 162.973788,69.4625073 164.616652,68.6218489 C159.453365,89.4281438 175.647311,101.407526 189.494308,114.017401 C191.606562,115.908883 194.422901,116.119047 197.004544,114.43773 C199.351493,112.966578 199.586188,110.654768 198.882103,108.553122 C198.647408,107.502299 197.943324,106.451476 197.239239,105.610817 C187.616749,96.1534108 187.382055,84.5943581 188.320834,73.24547 C188.790224,66.3100384 193.953511,60.4254298 196.30046,53.9103273 C196.535155,53.069669 198.178019,52.4391752 199.351493,52.018846 C223.525065,44.0325914 247.933331,36.2565014 272.106903,28.4804114 C272.576292,28.2702469 273.280377,28.4804114 274.923241,28.4804114 C270.229344,39.4089703 266.004836,50.1273646 260.841549,60.6355944 C257.086431,68.4116843 253.331313,75.9776097 254.035398,84.5943581 C254.270093,87.5366624 254.739482,90.2688021 258.259905,91.1094605 C262.484413,92.1602835 263.892582,89.2179792 265.066057,86.696004 C269.055869,77.6589265 274.453851,69.2523427 279.617139,60.6355944 C282.668172,55.1713149 286.657985,50.5476938 291.821272,46.1342374 C302.147846,37.517489 312.005031,28.4804114 321.862215,19.4433339 C323.03569,18.3925109 324.209164,17.5518526 326.086723,17.1315234 C346.035787,13.7688899 365.750156,9.98592717 386.872694,7.46395204 C380.535933,15.6603712 373.729781,22.8059674 367.86241,30.5820574 C362.933817,36.8869952 364.576682,43.8224268 363.403207,50.3375292 C363.168512,50.968023 364.341987,52.2290106 365.046071,52.4391752 C366.219546,52.8595044 366.688935,51.8086814 367.158325,50.968023 C368.566494,48.4460479 370.444053,46.344402 371.617528,43.8224268 C378.423679,29.5312344 391.801286,20.4941569 404.709504,10.4062564 C417.148332,0.738685023 431.46472,2.63016637 445.077022,0.528520429 C452.587258,-0.522302542 460.332189,0.318355835 469.719983,0.318355835 C461.975053,6.41312907 454.934207,11.8774085 447.658666,17.341688 C441.321904,22.1754736 434.515753,26.5889301 427.944296,31.0023866 C422.546314,34.7853493 422.31162,40.2496287 421.37284,45.293579 C419.025891,58.1136192 413.862604,70.5133303 411.515656,83.5435351 C408.464622,99.5160443 408.699317,115.278389 411.046266,131.040733 C412.21974,138.396494 417.617722,144.701432 419.964671,151.847028 C420.434061,153.108016 421.607535,154.579168 423.485094,154.369003 C425.362653,154.158839 426.066738,152.687687 426.536127,151.216534 C427.240212,149.535218 427.709602,147.643736 427.240212,145.96242 C423.719789,129.569581 427.474907,113.386907 431.934109,97.6245629 C434.046363,90.2688021 434.985143,82.9130413 436.158617,75.7674451 C437.801481,65.46938 442.025989,55.8018087 447.189276,46.344402 C453.526037,34.1548555 465.964865,27.0092593 477.934304,19.2331693 C481.689422,16.9213588 485.44454,14.3993836 489.199658,12.0875731 C492.250691,10.1960918 494.59764,8.7249396 495.301724,6.20296447 Z" id="路徑" fill="url(#linearGradient-2)"></path>
                <path d="M662.882896,515.395514 C664.524535,506.347583 661.710297,496.247567 656.785382,486.147551 C651.860466,476.257952 651.860466,465.316268 649.515268,454.795417 C645.059392,436.068304 639.430916,417.341191 634.506001,398.614078 C633.333402,394.616154 633.098882,390.407814 632.160803,386.199474 C631.222723,381.5703 634.506001,379.46613 638.961877,378.624462 C650.922387,376.309875 663.820975,380.518215 668.980411,389.776563 C676.719564,404.08492 689.618153,412.291183 706.738099,416.70994 C711.193975,417.762025 715.415331,419.866195 719.402168,421.970365 C729.721039,427.651624 732.769796,437.75164 727.375841,447.220405 C725.968722,449.745409 724.561603,450.797494 721.043806,449.534992 C716.35341,447.851656 711.428495,446.378737 706.972618,444.274567 C702.047703,441.95998 696.888267,440.276644 691.259792,440.276644 C689.618153,440.276644 687.507475,439.645393 686.803916,441.539146 C686.334876,443.222482 687.976515,444.274567 689.383634,444.905818 C698.529906,448.693324 705.5655,455.637085 715.649851,458.372506 C719.636688,459.424591 721.043806,461.318344 720.809287,465.105851 C720.105727,477.941288 721.278326,490.776725 722.216405,503.612162 C722.450925,507.820502 724.561603,511.608008 725.968722,515.605931 C729.486519,525.705947 729.486519,535.174713 721.512846,544.012227 C718.698608,547.168482 716.58793,550.745571 714.008212,554.112243 C705.800019,564.84351 695.715668,565.895595 684.927757,557.058081 C680.002842,553.060158 675.781485,548.641401 670.15301,545.274729 C664.993574,542.118474 662.882896,536.858049 662.648377,531.387207 C662.882896,526.758032 662.882896,521.918441 662.882896,515.395514 Z" id="路徑" fill="url(#linearGradient-3)"></path>
                <path d="M341.928273,345.8613 C329.078141,346.28188 317.396203,344.599559 305.714265,342.917238 C303.144239,342.496658 300.574212,342.076078 298.705102,340.604047 C292.163217,335.136504 284.219499,330.510121 280.948556,323.149967 C275.808504,310.74285 267.163869,300.438634 259.687429,289.293257 C254.547376,281.512523 254.781015,274.362659 260.388345,267.423085 C264.126566,262.586412 268.565702,258.170319 273.238477,253.964517 C277.677614,249.548424 280.24764,244.501461 282.584028,239.244208 C283.051305,238.192758 283.518583,236.510437 283.051305,235.669276 C279.079446,229.781153 284.920415,228.939992 288.658636,227.678252 C296.135076,225.15477 304.546071,225.57535 312.489789,224.10332 C321.83534,222.420999 331.18089,220.738678 340.292802,218.635776 C348.703797,216.743165 355.245682,219.266647 361.32029,223.682739 C376.039532,234.407536 380.712307,259.43206 360.619374,276.25527 C351.741101,283.615424 341.694634,288.241807 329.779057,290.765288 C328.143586,291.185868 326.508115,291.396159 324.872643,291.816739 C320.433507,292.657899 316.695287,294.971091 313.190705,297.284282 C308.51793,300.438634 315.293454,303.382695 315.059815,306.537047 C315.059815,307.798788 315.760732,309.060529 316.228009,310.111979 C317.629842,314.528072 320.900785,315.579523 325.807199,313.476621 C330.479974,311.37372 335.152749,309.270819 340.292802,308.009078 C364.123955,302.120955 377.675003,320.626485 376.974087,334.085053 C376.50681,340.183467 371.133118,344.178979 362.722123,345.23043 C355.71296,345.65101 348.470158,346.28188 341.928273,345.8613 Z" id="路徑" fill="url(#linearGradient-4)"></path>
                <path d="M494.306069,6 C496.76668,10.8888889 492.050509,10.4444444 490,12 C490.820204,9.33333333 491.640407,7.11111111 494.306069,6 Z" id="路徑" fill="#BA8C14"></path>
                <path d="M471,6 C472,3.33333333 473.4,2.76190476 475,2 C474.8,3.71428571 473.4,4.47619048 471,6 Z" id="路徑" fill="#BA8C14"></path>
                <path d="M634.4,261 C635.4,261.177778 636,261.711111 636,262.422222 C636,263.311111 635,262.955556 634.4,262.777778 C633.2,262.6 632.2,262.244444 631,261.888889 C632.2,261.533333 633.4,261.355556 634.4,261 Z" id="路徑" fill="#BA8C14"></path>
                <path d="M470,7 C469.578947,9.2 468.315789,10 466,11 C466.842105,9 467.894737,8.2 470,7 Z" id="路徑" fill="#BA8C14"></path>
                <path d="M419.819859,115 C419.219859,113.47619 419.019859,112.333333 420.019859,111 C421.419859,112.333333 420.219859,113.47619 419.819859,115 Z" id="路徑" fill="#BA8C14"></path>
                <path d="M163.6,379 C162.4,377.857143 162,376.714286 162,375 C163.6,375.380952 164.6,376.333333 165,377.666667 C164.6,378.238095 164.2,378.619048 163.6,379 Z" id="路徑" fill="#BA8C14"></path>
                <path d="M878,427.019741 C879.300704,425.843431 880.818193,425.64738 881.902113,426.627638 C882.335681,427.019741 881.251761,428 880.16784,428 C879.517488,427.803948 878.867136,427.411845 878,427.019741 Z" id="路徑" fill="#BA8C14"></path>
                <path d="M779.936265,175.698159 C752.567942,175.908847 724.497867,176.540912 697.129545,182.861559 C678.883996,187.075323 662.743703,194.870787 647.772997,204.983822 C640.053726,210.040339 632.334456,214.886168 626.018689,221.417503 C625.08302,222.470944 623.445599,223.735074 621.808178,222.470944 C620.170757,221.206815 621.340343,219.942686 622.50993,218.678556 C627.65611,212.989974 633.270125,207.933457 640.287644,203.719693 C649.644335,198.241799 659.001027,192.974593 666.018545,185.179129 C669.761222,180.754677 676.076989,179.279859 681.457086,176.7516 C697.597379,169.166824 714.907259,164.95306 733.620642,166.638566 C749.2931,167.902695 763.562055,161.792737 779.000596,160.739296 C782.509355,160.528607 786.252031,159.475166 789.760791,159.896543 C799.819234,161.160672 809.175926,158.632413 818.532617,156.104155 C821.105707,155.47209 824.614467,153.575896 826.485805,156.946908 C828.123226,159.896543 825.550136,162.003425 822.977046,163.899619 C807.07067,175.276783 804.263663,175.908847 779.936265,175.698159 Z" id="路徑" fill="#BA8C14"></path>
                <path d="M571.021265,171.679466 C570.787604,160.589872 572.423231,152.638843 578.732076,144.897051 C592.985392,127.530329 605.369421,108.908181 622.66033,93.2153594 C627.099887,89.2398447 631.773106,86.3105181 637.84829,84.6366171 C648.363032,81.7072905 658.176791,77.5225381 667.055906,71.6638849 C668.457871,70.6176968 670.093498,69.1530335 671.962785,70.6176968 C673.598412,72.0823601 673.13109,74.1747363 671.729124,75.6393996 C664.719296,82.9627162 658.410451,90.4952704 648.129371,95.7262108 C633.175071,103.258765 619.856399,112.674458 609.575318,125.019477 C600.462542,135.899833 593.219053,147.826378 584.80726,159.125209 C581.068685,164.146912 578.965737,170.214803 580.601363,176.701169 C581.302346,179.630495 580.835024,182.76906 580.601363,185.907624 C580.601363,186.953812 579.666719,188 578.264754,188 C576.862788,188 575.694484,187.16305 575.694484,186.116861 C574.993501,180.258208 572.890553,174.81803 571.021265,171.679466 Z" id="路徑" fill="#BA8C14"></path>
                <path d="M729,272.935406 C733.95941,268.434325 739.391144,266.388379 745.059041,265.160811 C766.313653,260.65973 787.804428,258 809.767528,258 C811.420664,258 813.309963,258.204595 814.726937,258.613784 C826.298893,262.091892 838.107011,264.137838 850.623616,264.342433 C853.457565,264.342433 857,264.547027 857,267.615946 C857,270.684865 853.457565,270.88946 850.387454,271.094055 C836.453875,272.321622 822.756458,271.912433 809.295203,267.615946 C802.210332,265.365406 793.944649,266.183784 786.387454,267.002163 C776.940959,268.025136 767.494465,267.820541 758.04797,268.025136 C752.852399,268.22973 748.129151,269.661892 743.169742,270.88946 C738.918819,271.707838 735.140221,273.344595 729,272.935406 Z" id="路徑" fill="#BA8C14"></path>
                <path d="M702,329 C721.428571,333.217934 741.094077,337.435869 760.522648,341.653803 C761.707317,341.8647 763.12892,342.075597 764.313589,342.49739 C766.445993,343.13008 769.763066,342.708287 770,345.239048 C770,347.558912 768.815331,350.511466 765.735192,351.355053 C758.390244,353.46402 751.045296,355.151194 743.463415,356.838367 C741.567944,357.260161 739.672474,356.838367 738.013937,355.783884 C725.456446,347.558912 712.662021,339.544836 702,329 Z" id="路徑" fill="#BA8C14"></path>
                <path d="M885,332.009821 C875.010009,337.749856 868.040248,345.403235 860.141185,352.206239 C857.817932,354.119584 855.262353,354.119584 852.474448,353.90699 C845.272362,353.269209 838.3026,352.418833 831.100514,351.781051 C829.474236,351.568458 827.847959,351.14327 826.221681,350.505488 C822.969126,349.229925 822.504475,346.041017 822.039825,343.702484 C821.575174,341.363951 825.29238,342.001733 827.150983,341.789139 C844.807711,338.175043 862.464439,334.986135 880.121167,331.584633 C881.282794,330.946852 882.444421,330.521664 885,332.009821 Z" id="路徑" fill="#BA8C14"></path>
                <path d="M821.478344,288.233011 C827.566078,288.233011 833.887956,288.233011 839.975691,288.233011 C843.721989,288.233011 847,289.525079 847,293.185936 C847,297.062137 843.721989,298.13886 839.975691,298.13886 C830.844089,298.13886 821.712487,297.923516 812.580885,296.416104 C796.424974,293.831969 780.503207,293.40128 765.283871,300.292306 C763.644865,300.938339 762.00586,301.584373 760.600998,300.076961 C758.961992,298.13886 761.069285,296.846793 762.240003,295.985415 C766.454589,292.970591 771.605749,291.893868 776.991052,290.817146 C791.507958,288.233011 806.493151,287.586978 821.478344,288.233011 Z" id="路徑" fill="#BA8C14"></path>
                <path d="M764,377.980506 C762.948116,378.580506 762.527363,378.980506 762.527363,378.980506 C761.896232,378.580506 761.265102,378.180506 761.054725,377.780506 C760.844348,377.180506 761.265102,376.780506 761.896232,377.180506 C762.527363,377.180506 763.158493,377.580506 764,377.980506 Z" id="路徑" fill="#BA8C14"></path>
            </g>
            <path d="M292,626.725 L292,331.1 L432.911624,331.1 L432.911624,275 L521.359076,275 L521.359076,287.375 L626.836783,287.375 L626.836783,315.7 L521.359076,315.7 L521.359076,331.375 L637,331.375 L637,382.525 L552.672771,382.525 L552.672771,359.425 L382.095541,359.425 L382.095541,627 L292,627 L292,626.725 Z M393,401.645161 L437.595506,401.645161 L437.595506,373 L525.410112,373 L525.410112,401.645161 L621.758427,401.645161 L621.758427,430.014888 L525.410112,430.014888 L525.410112,455.630273 L638,455.630273 L638,484 L437.595506,484 L437.595506,430.014888 L393,430.014888 L393,401.645161 Z M401,503 L613.777003,503 L613.777003,598.68071 L638,598.68071 L638,627 L525.69338,627 L525.69338,531.31929 L489.358885,531.31929 L489.358885,627 L401.275261,627 L401.275261,503 L401,503 Z" id="形狀" fill="#FFFFFF" fill-rule="nonzero"></path>
        </g>
    </g>
</svg>