<?xml version="1.0" encoding="UTF-8"?>
<svg width="1024px" height="1024px" viewBox="0 0 1024 1024" version="1.1" xmlns="http://www.w3.org/2000/svg" xmlns:xlink="http://www.w3.org/1999/xlink">
    <!-- Generator: Sketch 56.2 (81672) - https://sketch.com -->
    <title>h-selected</title>
    <desc>Created with Sketch.</desc>
    <defs>
        <linearGradient x1="85.4446411%" y1="84.6412659%" x2="9.15527344%" y2="21.9161987%" id="linearGradient-1">
            <stop stop-color="#E3D0F2" offset="0%"></stop>
            <stop stop-color="#E170BD" offset="100%"></stop>
        </linearGradient>
        <linearGradient x1="50%" y1="0%" x2="50%" y2="100%" id="linearGradient-2">
            <stop stop-color="#C71495" offset="0%"></stop>
            <stop stop-color="#7E27A3" offset="100%"></stop>
        </linearGradient>
        <linearGradient x1="50%" y1="0%" x2="50%" y2="100%" id="linearGradient-3">
            <stop stop-color="#C71495" offset="0%"></stop>
            <stop stop-color="#9164B0" offset="100%"></stop>
        </linearGradient>
        <linearGradient x1="50%" y1="0%" x2="50%" y2="100%" id="linearGradient-4">
            <stop stop-color="#C51796" offset="0%"></stop>
            <stop stop-color="#7927A3" offset="100%"></stop>
        </linearGradient>
        <linearGradient x1="50%" y1="0%" x2="50%" y2="100%" id="linearGradient-5">
            <stop stop-color="#C02099" offset="0%"></stop>
            <stop stop-color="#B9299C" offset="100%"></stop>
        </linearGradient>
    </defs>
    <g id="h-selected" stroke="none" stroke-width="1" fill="none" fill-rule="evenodd">
        <g id="龍" transform="translate(-8.000000, 2.000000)" fill="url(#linearGradient-1)" fill-rule="nonzero">
            <circle id="橢圓形" cx="512" cy="512" r="512"></circle>
        </g>
        <g id="fire" transform="translate(183.000000, 61.000000)">
            <polygon id="路徑" points="0 722 85 722 85 722"></polygon>
            <g id="HqgPI9_1_" transform="translate(36.000000, 183.000000)">
                <g id="群組">
                    <path d="M256.202811,0 C417.342671,62.3356559 549.593971,198.817934 464.253453,379.263254 C443.845938,422.351409 417.342671,462.596183 382.358359,499.12269 C344.988754,537.836413 312.919801,578.737352 306.82405,630.136928 C303.908691,654.633747 307.619148,678.693123 314.509997,702.315056 C316.365226,708.876704 318.220455,715.21963 317.425357,722 C314.509997,722 311.594638,722 308.679279,722 C303.643658,713.907301 292.777319,714.344744 284.296274,711.720085 C226.519153,693.128749 172.452489,669.288095 123.156414,638.010906 C32.7802753,580.924568 -4.58933038,504.372008 0.446290239,412.071493 C4.68681287,335.08149 30.9250466,263.122084 74.1253709,195.099667 C75.7155669,192.475008 77.8358282,190.06907 82.3413835,183.944865 C80.4861548,198.161769 78.3658935,208.222963 77.8358282,218.502878 C77.3057629,228.782793 77.5707955,239.28143 78.8959589,249.342623 C84.7266775,291.555892 119.710989,318.67737 170.862293,321.30203 C258.853138,325.45774 316.895291,284.338079 326.436467,209.972736 C335.712611,136.482278 315.835161,69.1160254 260.973399,9.84247198 C258.588105,6.56164799 255.672746,3.93698879 256.202811,0 Z" id="路徑" fill="url(#linearGradient-2)"></path>
                    <path d="M527.098581,280 C529.219988,280.437341 531.341396,280.218671 531.871748,280.874683 C588.619399,353.910705 625.74403,430.882801 597.105029,519.444444 C582.520352,564.490614 547.517128,598.821918 502.437219,626.155758 C456.296605,654.145611 407.504232,679.292745 362.159146,711 C345.453062,681.042111 344.392358,651.521563 354.469044,620.907661 C367.462665,582.202943 392.919555,548.964992 423.679964,518.351091 C483.874903,458.653983 513.839784,388.679351 527.894109,313.23795 C528.954812,307.333841 528.954812,301.21106 528.689637,295.08828 C528.954812,290.058853 527.894109,285.248097 527.098581,280 Z" id="路徑" fill="url(#linearGradient-3)"></path>
                </g>
            </g>
            <g id="HqgPI9_1_" transform="translate(339.500000, 361.000000) scale(-1, -1) translate(-339.500000, -361.000000) translate(36.000000, 0.000000)">
                <g id="群組">
                    <path d="M256.202811,0 C417.342671,62.3356559 549.593971,198.817934 464.253453,379.263254 C443.845938,422.351409 417.342671,462.596183 382.358359,499.12269 C344.988754,537.836413 312.919801,578.737352 306.82405,630.136928 C303.908691,654.633747 307.619148,678.693123 314.509997,702.315056 C316.365226,708.876704 318.220455,715.21963 317.425357,722 C314.509997,722 311.594638,722 308.679279,722 C303.643658,713.907301 292.777319,714.344744 284.296274,711.720085 C226.519153,693.128749 172.452489,669.288095 123.156414,638.010906 C32.7802753,580.924568 -4.58933038,504.372008 0.446290239,412.071493 C4.68681287,335.08149 30.9250466,263.122084 74.1253709,195.099667 C75.7155669,192.475008 77.8358282,190.06907 82.3413835,183.944865 C80.4861548,198.161769 78.3658935,208.222963 77.8358282,218.502878 C77.3057629,228.782793 77.5707955,239.28143 78.8959589,249.342623 C84.7266775,291.555892 119.710989,318.67737 170.862293,321.30203 C258.853138,325.45774 316.895291,284.338079 326.436467,209.972736 C335.712611,136.482278 315.835161,69.1160254 260.973399,9.84247198 C258.588105,6.56164799 255.672746,3.93698879 256.202811,0 Z" id="路徑" fill="url(#linearGradient-4)"></path>
                    <path d="M527.098581,280 C529.219988,280.437341 531.341396,280.218671 531.871748,280.874683 C588.619399,353.910705 625.74403,430.882801 597.105029,519.444444 C582.520352,564.490614 547.517128,598.821918 502.437219,626.155758 C456.296605,654.145611 407.504232,679.292745 362.159146,711 C345.453062,681.042111 344.392358,651.521563 354.469044,620.907661 C367.462665,582.202943 392.919555,548.964992 423.679964,518.351091 C483.874903,458.653983 513.839784,388.679351 527.894109,313.23795 C528.954812,307.333841 528.954812,301.21106 528.689637,295.08828 C528.954812,290.058853 527.894109,285.248097 527.098581,280 Z" id="路徑" fill="url(#linearGradient-5)"></path>
                </g>
            </g>
        </g>
        <g id="fire2" transform="translate(340.000000, 349.000000)">
            <polygon id="路徑" points="25 508.5 107 508.5 107 508.5"></polygon>
            <path d="M2.29396092,0 L185.155417,0 L185.155417,26.8604651 L133.705151,26.8604651 L133.705151,59.3291592 L187.12167,59.3291592 L187.12167,86.1896243 L133.705151,86.1896243 L133.705151,330 L53.0888099,330 L53.0888099,86.1896243 L0,86.1896243 L0,59.3291592 L53.4165187,59.3291592 L53.4165187,26.8604651 L2.29396092,26.8604651 L2.29396092,0 Z M45.2238011,108.91771 L39.6527531,330 L0,330 L4.58792185,108.91771 L45.2238011,108.91771 Z M182.533748,108.91771 L187.12167,330 L147.468917,330 L142.880995,108.91771 L182.533748,108.91771 Z M203.179396,330 L203.179396,9.15026834 L369,9.15026834 L369,296.350626 C369,314.651163 353.9254,330 335.901421,330 L203.179396,330 L203.179396,330 Z M270.687389,35.7155635 L270.687389,302.844365 L291.660746,302.844365 C296.904085,302.844365 301.164298,298.121646 301.164298,292.808587 L301.164298,35.4203936 L270.687389,35.4203936 L270.687389,35.7155635 Z" id="形狀" fill="#FFFFFF" fill-rule="nonzero"></path>
        </g>
    </g>
</svg>