<?xml version="1.0" encoding="UTF-8"?>
<svg width="25px" height="26px" viewBox="0 0 25 26" version="1.1" xmlns="http://www.w3.org/2000/svg" xmlns:xlink="http://www.w3.org/1999/xlink">
    <!-- Generator: Sketch 61.2 (89653) - https://sketch.com -->
    <title>Group 2</title>
    <desc>Created with Sketch.</desc>
    <g id="Page-1" stroke="none" stroke-width="1" fill="none" fill-rule="evenodd">
        <g id="Icon-/-30-/-settings-personal-info" transform="translate(-3.000000, -2.000000)">
            <g id="Group-2" transform="translate(3.000000, 3.000000)">
                <g id="Group">
                    <path d="M15.9004046,15.5753474 C14.0756231,16.4986139 12.0652079,16.9857685 9.9883049,16.9857685 C8.13412393,16.9857685 6.33173285,16.5975983 4.66444072,15.8556287 C2.33892723,17.5238885 0.824103938,20.1092534 0.537796998,22.9849722 L20.4388052,22.9849722 C20.1352223,19.9365915 18.4509966,17.2194669 15.9004046,15.5753474 Z" id="Combined-Shape" stroke="#5F5F5F" fill="#FFFFFF"></path>
                    <circle id="Oval-3" stroke="#5F5F5F" fill="#FFFFFF" stroke-linecap="square" cx="10" cy="9" r="9"></circle>
                    <circle id="Oval-2" fill="#5F5F5F" cx="5.5" cy="8.5" r="1.5"></circle>
                    <circle id="Oval-2" fill="#5F5F5F" cx="14.5" cy="8.5" r="1.5"></circle>
                </g>
                <g id="Group" transform="translate(13.000000, 13.000000)" fill-rule="nonzero" stroke="#5F5F5F">
                    <path d="M10.65625,4.08046452 L9.3885,4.08046452 C9.21980077,3.58637718 8.96333477,3.12909183 8.63225,2.73205169 L9.2681875,1.59654615 C9.36310696,1.42683054 9.30677968,1.20981793 9.142375,1.11182722 L7.35625,0.0472907708 C7.19199464,-0.0502099337 6.98228229,0.00787818536 6.887375,0.177164217 L6.2500625,1.31266976 C5.75460521,1.21634576 5.24608229,1.21634576 4.750625,1.31266976 L4.112625,0.177164217 C4.01771771,0.00787818536 3.80800536,-0.0502099337 3.64375,0.0472907708 L1.85625,1.11182722 C1.69184532,1.20981793 1.63551804,1.42683054 1.7304375,1.59654615 L2.3670625,2.73205169 C2.03609092,3.12905239 1.77984506,3.58636096 1.6115,4.08046452 L0.34375,4.08046452 C0.153902117,4.08046452 0,4.23933426 0,4.43531 L0,6.5643829 C0,6.76035865 0.153902117,6.91922838 0.34375,6.91922838 L1.6115,6.91922838 C1.77983099,7.4134908 2.03633479,7.87084354 2.36775,8.26764121 L1.731125,9.40314676 C1.63620554,9.57286236 1.69253282,9.78987497 1.8569375,9.88786568 L3.6444375,10.9524021 C3.80884636,11.0503854 4.01907331,10.99224 4.114,10.8225287 L4.7513125,9.68702314 C5.24670745,9.78403412 5.75535505,9.78403412 6.25075,9.68702314 L6.8880625,10.8225287 C6.98298919,10.99224 7.19321614,11.0503854 7.357625,10.9524021 L9.145125,9.88786568 C9.30952968,9.78987497 9.36585696,9.57286236 9.2709375,9.40314676 L8.635,8.26764121 C8.9661902,7.87067842 9.22266825,7.41337159 9.39125,6.91922838 L10.65625,6.91922838 C10.8460979,6.91922838 11,6.76035865 11,6.5643829 L11,4.43531 C11,4.23933426 10.8460979,4.08046452 10.65625,4.08046452 Z" id="Shape" fill="#FFFFFF"></path>
                    <circle id="Oval" cx="5.5" cy="5.5" r="2"></circle>
                </g>
            </g>
        </g>
    </g>
</svg>