<?xml version="1.0" encoding="UTF-8"?>
<svg viewBox="0 0 16 16" version="1.1" xmlns="http://www.w3.org/2000/svg" xmlns:xlink="http://www.w3.org/1999/xlink">
    <!-- Generator: Sketch 56.2 (81672) - https://sketch.com -->
    <title>icon/16/setting</title>
    <desc>Created with Sketch.</desc>
    <g id="icon/16/setting" stroke="none" stroke-width="1" fill-rule="evenodd">
        <g id="setting-fill" transform="translate(2.000000, 2.000000)" fill-rule="nonzero">
            <g id="ic-settings-24px">
                <path d="M10.0096101,6.405 C10.0329434,6.21833333 10.0504434,6.03166667 10.0504434,5.83333333 C10.0504434,5.635 10.0329434,5.44833333 10.0096101,5.26166667 L11.2404434,4.29916667 C11.3512768,4.21166667 11.3804434,4.05416667 11.3104434,3.92583333 L10.1437768,1.9075 C10.0737768,1.77916667 9.91627677,1.7325 9.78794344,1.77916667 L8.33544344,2.3625 C8.0321101,2.12916667 7.70544344,1.93666667 7.3496101,1.79083333 L7.12794344,0.245 C7.11044344,0.105 6.98794344,0 6.8421101,0 L4.50877677,0 C4.36294344,0 4.24044344,0.105 4.22294344,0.245 L4.00127677,1.79083333 C3.64544344,1.93666667 3.31877677,2.135 3.01544344,2.3625 L1.56294344,1.77916667 C1.42877677,1.72666667 1.2771101,1.77916667 1.2071101,1.9075 L0.0404434356,3.92583333 C-0.0353898977,4.05416667 -0.000389897707,4.21166667 0.110443436,4.29916667 L1.34127677,5.26166667 C1.31794344,5.44833333 1.30044344,5.64083333 1.30044344,5.83333333 C1.30044344,6.02583333 1.31794344,6.21833333 1.34127677,6.405 L0.110443436,7.3675 C-0.000389897707,7.455 -0.0295565644,7.6125 0.0404434356,7.74083333 L1.2071101,9.75916667 C1.2771101,9.8875 1.4346101,9.93416667 1.56294344,9.8875 L3.01544344,9.30416667 C3.31877677,9.5375 3.64544344,9.73 4.00127677,9.87583333 L4.22294344,11.4216667 C4.24044344,11.5616667 4.36294344,11.6666667 4.50877677,11.6666667 L6.8421101,11.6666667 C6.98794344,11.6666667 7.11044344,11.5616667 7.12794344,11.4216667 L7.3496101,9.87583333 C7.70544344,9.73 8.0321101,9.53166667 8.33544344,9.30416667 L9.78794344,9.8875 C9.9221101,9.94 10.0737768,9.8875 10.1437768,9.75916667 L11.3104434,7.74083333 C11.3804434,7.6125 11.3512768,7.455 11.2404434,7.3675 L10.0096101,6.405 Z M5.67544344,7.875 C4.5496101,7.875 3.63377677,6.95916667 3.63377677,5.83333333 C3.63377677,4.7075 4.5496101,3.79166667 5.67544344,3.79166667 C6.80127677,3.79166667 7.7171101,4.7075 7.7171101,5.83333333 C7.7171101,6.95916667 6.80127677,7.875 5.67544344,7.875 Z" id="形狀"></path>
            </g>
        </g>
    </g>
</svg>
