<?xml version="1.0" encoding="UTF-8"?>
<svg width="31px" height="28px" viewBox="0 0 31 28" version="1.1" xmlns="http://www.w3.org/2000/svg" xmlns:xlink="http://www.w3.org/1999/xlink">
    <!-- Generator: Sketch 61.2 (89653) - https://sketch.com -->
    <title>群組</title>
    <desc>Created with Sketch.</desc>
    <g id="Page-1" stroke="none" stroke-width="1" fill="none" fill-rule="evenodd">
        <g id="Icon-/-36-/-settings-wechat-promotion" transform="translate(-3.000000, -4.000000)">
            <g id="群組" transform="translate(2.049649, 4.186223)">
                <g id="Group">
                    <path d="M10.6936835,12.3137771 C10.5004299,12.3137771 10.3244793,12.4251446 10.241779,12.5998089 L4.28914539,25.1718725 C4.19413954,25.3725265 4.1448587,25.5917677 4.1448587,25.8137771 C4.1448587,26.6422042 4.81643158,27.3137771 5.6448587,27.3137771 L11.4803537,27.3137771 C11.7041022,27.3137771 11.9006122,27.1651262 11.9614905,26.9498188 L15.9200005,12.9498188 C15.932516,12.9055552 15.9388636,12.8597761 15.9388636,12.8137771 C15.9388636,12.5376347 15.715006,12.3137771 15.4388636,12.3137771 L10.6936835,12.3137771 Z" id="Rectangle" stroke="#262626" fill="#6CAD28" transform="translate(9.950351, 19.813777) rotate(-180.000000) translate(-9.950351, -19.813777) "></path>
                    <path d="M28.4503506,15.3137771 L28.4503506,5.31377707 L24.4503506,5.31377707 C21.6889268,5.31377707 19.4503506,7.55235332 19.4503506,10.3137771 C19.4503506,13.0752008 21.6889268,15.3137771 24.4503506,15.3137771 L28.4503506,15.3137771 Z" id="Rectangle" stroke="#262626" fill="#FFF367" transform="translate(23.950351, 10.313777) rotate(-180.000000) translate(-23.950351, -10.313777) "></path>
                    <path d="M1.45035058,13.2036108 C1.45035058,13.9218875 1.9595382,14.5393549 2.66466743,14.6761546 L21.6646674,18.3622793 C21.7587987,18.3805413 21.8544642,18.3897355 21.9503506,18.3897355 C22.7787777,18.3897355 23.4503506,17.7181626 23.4503506,16.8897355 L23.4503506,2.73278492 C23.4503506,2.63066634 23.4399224,2.52881467 23.4192284,2.42881485 C23.2513504,1.617576 22.4576193,1.09602902 21.6463805,1.26390705 L2.6463805,5.19577338 C1.94987225,5.33990903 1.45035058,5.95338559 1.45035058,6.66465125 L1.45035058,13.2036108 Z" id="Combined-Shape" stroke="#262626" fill="#8AD140"></path>
                    <path d="M27.5329423,16.4458151 L30.7398389,16.4561331 C31.1859262,16.4575683 31.5471935,16.81884 31.5486234,17.2649272 C31.5500416,17.7073287 31.192554,18.0671155 30.7501525,18.0685336 C30.7484375,18.0685391 30.7467225,18.0685391 30.7450075,18.0685336 L27.5381109,18.0582156 C27.0920236,18.0567804 26.7307563,17.6955088 26.7293264,17.2494215 C26.7279082,16.8070201 27.0853958,16.4472332 27.5277973,16.4458151 C27.5295123,16.4458096 27.5312273,16.4458096 27.5329423,16.4458151 Z" id="Rectangle" fill="#262626" transform="translate(29.138975, 17.257174) rotate(30.000000) translate(-29.138975, -17.257174) "></path>
                    <path d="M27.5381109,1.10997924 L30.7450075,1.09966127 C31.1874089,1.09823787 31.5472,1.45572119 31.5486234,1.8981226 C31.5486289,1.89983761 31.5486289,1.90155263 31.5486234,1.90326764 C31.5471935,2.34935492 31.1859262,2.71062654 30.7398389,2.7120618 L27.5329423,2.72237977 C27.0905409,2.72380317 26.7307498,2.36631985 26.7293264,1.92391843 C26.7293209,1.92220343 26.7293209,1.92048841 26.7293264,1.9187734 C26.7307563,1.47268612 27.0920236,1.11141449 27.5381109,1.10997924 Z" id="Rectangle" fill="#262626" transform="translate(29.138975, 1.911021) rotate(-30.000000) translate(-29.138975, -1.911021) "></path>
                </g>
                <g id="Group-3" transform="translate(7.950351, 6.813777)" fill="#262626">
                    <path d="M1.3125,2.625 C0.587626266,2.625 1.77635684e-15,2.03737373 1.77635684e-15,1.3125 C1.77635684e-15,0.587626266 0.587626266,0 1.3125,0 C2.03737373,0 2.625,0.587626266 2.625,1.3125 C2.625,2.03737373 2.03737373,2.625 1.3125,2.625 Z" id="Path"></path>
                    <path d="M8.3125,2.625 C7.58762627,2.625 7,2.03737373 7,1.3125 C7,0.587626266 7.58762627,0 8.3125,0 C9.03737373,0 9.625,0.587626266 9.625,1.3125 C9.625,2.03737373 9.03737373,2.625 8.3125,2.625 Z" id="Path"></path>
                </g>
            </g>
        </g>
    </g>
</svg>