<?xml version="1.0" encoding="UTF-8"?>
<svg width="22px" height="23px" viewBox="0 0 22 23" version="1.1" xmlns="http://www.w3.org/2000/svg" xmlns:xlink="http://www.w3.org/1999/xlink">
    <!-- Generator: Sketch 61.2 (89653) - https://sketch.com -->
    <title>Group</title>
    <desc>Created with Sketch.</desc>
    <g id="Page-1" stroke="none" stroke-width="1" fill="none" fill-rule="evenodd">
        <g id="Icon-/-30-/-settings-bank" transform="translate(-4.000000, -3.000000)" fill-rule="nonzero">
            <g id="Group" transform="translate(5.000000, 4.000000)">
                <path d="M10.3612524,0.287754438 L19.1383674,6.46772928 C19.589945,6.78568547 19.6982666,7.40951584 19.3803104,7.86109342 C19.1930067,8.12711164 18.8880003,8.28538281 18.5626568,8.28538281 L1.0084267,8.28538281 C0.456141948,8.28538281 0.00842669821,7.83766756 0.00842669821,7.28538281 C0.00842669821,6.96003936 0.166697872,6.65503295 0.432716091,6.46772928 L9.20983116,0.287754438 C9.55513482,0.044625813 10.0159487,0.044625813 10.3612524,0.287754438 Z" id="Triangle-2" stroke="#5F5F5F" fill="#FFFFFF"></path>
                <rect id="Rectangle" stroke="#5F5F5F" fill="#FFFFFF" x="2.11132812" y="8.46875" width="2.75" height="9.95703125"></rect>
                <rect id="Rectangle" stroke="#5F5F5F" fill="#FFFFFF" x="14.9433594" y="8.46875" width="2.75" height="9.95703125"></rect>
                <rect id="Rectangle-2" stroke="#5F5F5F" fill="#FFFFFF" x="0.029296875" y="18.5742188" width="19.5410156" height="2.90039062" rx="1"></rect>
                <polygon id="￥" fill="#5F5F5F" points="7.24511719 10.2773438 8.40527344 10.2773438 9.78515625 12.9755859 11.1650391 10.2773438 12.3251953 10.2773438 10.6113281 13.3623047 11.7802734 13.3623047 11.7802734 13.9072266 10.3037109 13.9072266 10.2949219 13.9160156 10.2949219 14.671875 11.7802734 14.671875 11.7802734 15.2167969 10.2949219 15.2167969 10.2949219 16.5527344 9.27539062 16.5527344 9.27539062 15.2167969 7.79882812 15.2167969 7.79882812 14.671875 9.27539062 14.671875 9.27539062 13.9160156 9.26660156 13.9072266 7.79882812 13.9072266 7.79882812 13.3623047 8.95898438 13.3623047"></polygon>
            </g>
        </g>
    </g>
</svg>