<?xml version="1.0" encoding="UTF-8"?>
<svg width="24px" height="25px" viewBox="0 0 24 25" version="1.1" xmlns="http://www.w3.org/2000/svg" xmlns:xlink="http://www.w3.org/1999/xlink">
    <!-- Generator: Sketch 61.2 (89653) - https://sketch.com -->
    <title>Group</title>
    <desc>Created with Sketch.</desc>
    <defs>
        <path d="M20.7320487,8.5339157 C20.7320487,3.8207642 16.261538,2.66453526e-14 10.7468837,2.66453526e-14 C5.23222938,2.66453526e-14 0.76171875,3.8207642 0.76171875,8.5339157" id="path-1"></path>
    </defs>
    <g id="Page-1" stroke="none" stroke-width="1" fill="none" fill-rule="evenodd">
        <g id="Icon-/-30-/-contact_agent" transform="translate(-3.000000, -3.000000)">
            <g id="Group" transform="translate(4.000000, 4.000000)">
                <path d="M11.8505859,19.5976562 L14.1650391,19.5976562 C14.9832187,19.5976562 15.6464844,20.2609219 15.6464844,21.0791016 C15.6464844,21.8972812 14.9832187,22.5605469 14.1650391,22.5605469 L11.8505859,22.5605469 C11.0324063,22.5605469 10.3691406,21.8972812 10.3691406,21.0791016 C10.3691406,20.2609219 11.0324063,19.5976562 11.8505859,19.5976562 Z" id="Rectangle-43" stroke="#5F5F5F" fill="#FFFFFF" fill-rule="nonzero"></path>
                <path d="M20.4313888,16.3183594 C20.5396429,19.57718 18.8268362,21.2065904 15.2929687,21.2065904" id="Path-10" stroke="#5F5F5F" fill-rule="nonzero"></path>
                <path d="M20.21875,8.02539062 L20.7675781,8.02539062 C21.5960052,8.02539062 22.2675781,8.6969635 22.2675781,9.52539062 L22.2675781,14.4980469 C22.2675781,15.326474 21.5960052,15.9980469 20.7675781,15.9980469 L20.21875,15.9980469 C19.3903229,15.9980469 18.71875,15.326474 18.71875,14.4980469 L18.71875,9.52539062 C18.71875,8.6969635 19.3903229,8.02539062 20.21875,8.02539062 Z" id="Rectangle-35" stroke="#5F5F5F" fill="#FFFFFF" fill-rule="nonzero"></path>
                <path d="M1,8.02539062 L1.54882812,8.02539062 C2.37725525,8.02539062 3.04882812,8.6969635 3.04882812,9.52539062 L3.04882812,14.4980469 C3.04882812,15.326474 2.37725525,15.9980469 1.54882812,15.9980469 L1,15.9980469 C0.171572875,15.9980469 -0.5,15.326474 -0.5,14.4980469 L-0.5,9.52539062 C-0.5,8.6969635 0.171572875,8.02539062 1,8.02539062 Z" id="Rectangle-35" stroke="#5F5F5F" fill="#FFFFFF" fill-rule="nonzero"></path>
                <mask id="mask-2" fill="white">
                    <use xlink:href="#path-1"></use>
                </mask>
                <use id="Combined-Shape" stroke="#5F5F5F" fill-rule="nonzero" xlink:href="#path-1"></use>
            </g>
        </g>
    </g>
</svg>