<?xml version="1.0" encoding="UTF-8"?>
<svg width="30px" height="31px" viewBox="0 0 30 31" version="1.1" xmlns="http://www.w3.org/2000/svg" xmlns:xlink="http://www.w3.org/1999/xlink">
    <!-- Generator: Sketch 61.2 (89653) - https://sketch.com -->
    <title>Group</title>
    <desc>Created with Sketch.</desc>
    <g id="Page-1" stroke="none" stroke-width="1" fill="none" fill-rule="evenodd">
        <g id="Icon-/-36-/-settings-bet-record" transform="translate(-3.000000, -2.000000)">
            <g id="Group" transform="translate(3.000000, 2.000000)">
                <path d="M0.5,11.5 L0.5,29 C0.5,29.8284271 1.17157288,30.5 2,30.5 L28,30.5 C28.8284271,30.5 29.5,29.8284271 29.5,29 L29.5,11.5 L0.5,11.5 Z" id="Rectangle" stroke="#262626" fill="#DEEFFC"></path>
                <path d="M0.5,13.5 L29.5,13.5 L29.5,6 C29.5,5.17157288 28.8284271,4.5 28,4.5 L2,4.5 C1.17157288,4.5 0.5,5.17157288 0.5,6 L0.5,13.5 Z" id="Rectangle" stroke="#262626" fill="#FF645E"></path>
                <rect id="Rectangle" stroke="#262626" fill="#FFF367" x="4.5" y="0.5" width="4" height="10" rx="2"></rect>
                <rect id="Rectangle" stroke="#262626" fill="#FFF367" x="21.5" y="0.5" width="4" height="10" rx="2"></rect>
                <path d="M9,24 C9.55228475,24 10,24.4477153 10,25 L10,26 C10,26.5522847 9.55228475,27 9,27 L5,27 C4.44771525,27 4,26.5522847 4,26 L4,25 C4,24.4477153 4.44771525,24 5,24 L9,24 Z M17,24 C17.5522847,24 18,24.4477153 18,25 L18,26 C18,26.5522847 17.5522847,27 17,27 L13,27 C12.4477153,27 12,26.5522847 12,26 L12,25 C12,24.4477153 12.4477153,24 13,24 L17,24 Z M25,24 C25.5522847,24 26,24.4477153 26,25 L26,26 C26,26.5522847 25.5522847,27 25,27 L21,27 C20.4477153,27 20,26.5522847 20,26 L20,25 C20,24.4477153 20.4477153,24 21,24 L25,24 Z M9,18 C9.55228475,18 10,18.4477153 10,19 L10,20 C10,20.5522847 9.55228475,21 9,21 L5,21 C4.44771525,21 4,20.5522847 4,20 L4,19 C4,18.4477153 4.44771525,18 5,18 L9,18 Z M17,18 C17.5522847,18 18,18.4477153 18,19 L18,20 C18,20.5522847 17.5522847,21 17,21 L13,21 C12.4477153,21 12,20.5522847 12,20 L12,19 C12,18.4477153 12.4477153,18 13,18 L17,18 Z M25,18 C25.5522847,18 26,18.4477153 26,19 L26,20 C26,20.5522847 25.5522847,21 25,21 L21,21 C20.4477153,21 20,20.5522847 20,20 L20,19 C20,18.4477153 20.4477153,18 21,18 L25,18 Z" id="Combined-Shape" fill="#388AFC"></path>
            </g>
        </g>
    </g>
</svg>