<?xml version="1.0" encoding="UTF-8"?>
<svg width="32px" height="32px" viewBox="0 0 32 32" version="1.1" xmlns="http://www.w3.org/2000/svg" xmlns:xlink="http://www.w3.org/1999/xlink">
    <!-- Generator: Sketch 61.2 (89653) - https://sketch.com -->
    <title>Group 4</title>
    <desc>Created with Sketch.</desc>
    <g id="Page-1" stroke="none" stroke-width="1" fill="none" fill-rule="evenodd">
        <g id="Icon-/-36-/-settings-personal-statistic" transform="translate(-2.000000, -2.000000)">
            <g id="Group-4" transform="translate(3.000000, 3.000000)">
                <path d="M14.1912439,-0.000118943563 L14.5010685,15.0007126 L4.448,25.639 L4.43729171,25.6281525 L4.18739104,25.3743683 C0.0801516683,21.1035957 -1.13466066,14.7999046 1.11847358,9.295548 C3.32212281,3.91208215 8.42697425,0.309713838 14.1912439,-0.000118943563 Z" id="Combined-Shape" fill="#FF645E" fill-rule="nonzero"></path>
                <path d="M15.4366574,0.000712618094 C17.9719235,-0.00986813731 20.3918091,0.615997885 22.5218471,1.74559269 C23.6691708,2.43266961 24.7236153,3.31790222 25.6845842,4.40123145 C28.5700212,7.65407168 30.0085056,11.3525453 30.0000374,15.4966523 L30.0000374,15.4966523 L15,15.5007126 L14.500708,0.0337449975 C14.8108181,0.0131248844 15.1229184,0.00203503461 15.4366574,0.000712618094 Z" id="Combined-Shape" fill="#FFF367" fill-rule="nonzero"></path>
                <path d="M14.5,15.5007126 C14.7306992,15.6375212 19.8054152,15.6387723 29.7241481,15.5044657 C29.7301198,16.0691238 29.702303,16.6313415 29.6434394,17.1882755 C28.1198502,23.528475 24.9877666,27.5037762 20.246576,29.114491 C15.097709,30.863705 9.82794759,29.7090619 4.43729171,25.6505617 C10.9129356,18.7459245 14.2671717,15.3626414 14.5,15.5007126 Z" id="Combined-Shape" fill="#388AFC" fill-rule="nonzero"></path>
                <path d="M14.9366574,0.000712618095 C14.9576845,0.000624862771 14.9787038,0.00058088744 14.9997149,0.000580616384 L15,15.0007126 L30,15.0005088 C30.0000204,15.3349689 29.9888116,15.6683939 29.9665864,16.0002644 L14.556,16.0007126 L4.67532607,25.8807126 L4.43729171,25.6505617 L4.18739104,25.3967775 C4.11507826,25.3215855 4.04366206,25.2457634 3.97314559,25.1693265 L14,15.1427126 L13.9997077,0.0338115471 C14.3101469,0.0131487448 14.6225811,0.00203645656 14.9366574,0.000712618095 Z" id="Combined-Shape" fill="#262626"></path>
                <path d="M14.9366574,0.000712618094 C8.87036276,0.0262821813 3.4166705,3.70351349 1.11847358,9.31795723 C-1.17972334,14.932401 0.13013134,21.3784723 4.43729171,25.6505617 C4.43729171,25.6505617 4.43729171,25.6505617 4.43729171,25.6505617 L4.43729171,25.6505617 C9.25741663,30.4314388 16.6876026,31.3785172 22.5527961,27.9596294 C28.4179896,24.5407416 31.25564,17.608425 29.4712594,11.0579781 C27.6868787,4.50753125 21.725422,-0.0276198149 14.9366574,0.000712618094 Z" id="Shape" stroke="#262626" fill-rule="nonzero"></path>
                <path d="M29.0715312,9.99990665 L19.5467105,15.4987749 L17.5457105,15.4987749 L28.6996071,9.06030401 C28.8339978,9.37029697 28.9579725,9.68349785 29.0715312,9.99990665 Z M29.8263767,13.0284253 L25.5487105,15.4967749 L23.5487105,15.4977749 L29.6377963,11.9825389 C29.7120802,12.3276494 29.7749403,12.6762782 29.8263767,13.0284253 Z M27.7901143,7.27581665 L15,14.660254 L14.9707105,14.6097749 L14.9367105,13.5417749 L27.2575594,6.42927878 C27.44465,6.70850999 27.6221683,6.99068928 27.7901143,7.27581665 Z M25.6845842,4.40123145 C25.8074246,4.53971317 25.9276425,4.67900257 26.045238,4.81909964 L14.8637105,11.2747749 L14.8267105,10.1417749 L25.3681936,4.0552915 C25.474759,4.16826842 25.5802228,4.28358176 25.6845842,4.40123145 Z M23.8212192,2.63943313 L14.7537105,7.87477488 L14.7167105,6.74077488 L22.9280877,1.99968417 C23.2326106,2.19842015 23.530325,2.41167019 23.8212192,2.63943313 Z M20.7501568,0.94847612 L14.6437105,4.47377488 L14.6077105,3.33977488 L19.4678271,0.533720823 C19.9028209,0.653042342 20.3306299,0.791572313 20.7501568,0.94847612 Z" id="Combined-Shape" fill="#262626"></path>
            </g>
        </g>
    </g>
</svg>