<?xml version="1.0" encoding="UTF-8"?>
<svg width="33px" height="30px" viewBox="0 0 33 30" version="1.1" xmlns="http://www.w3.org/2000/svg" xmlns:xlink="http://www.w3.org/1999/xlink">
    <!-- Generator: Sketch 61.2 (89653) - https://sketch.com -->
    <title>Group 2</title>
    <desc>Created with Sketch.</desc>
    <g id="Page-1" stroke="none" stroke-width="1" fill="none" fill-rule="evenodd">
        <g id="Icon-/-36-/-settings-wage-management" transform="translate(-1.000000, -3.000000)">
            <g id="Group-2" transform="translate(2.000000, 4.000000)">
                <circle id="Oval" stroke="#262626" fill="#007A69" cx="12" cy="12" r="12"></circle>
                <polygon id="Path" fill="#FFFFFF" fill-rule="nonzero" points="14.125 10.8113208 16.125 10.8113208 16.125 12.8584906 13.25 12.8584906 13.25 14.1132075 16.125 14.1132075 16.125 16.1603774 13.25 16.1603774 13.25 19 10.75 19 10.75 16.1603774 7.875 16.1603774 7.875 14.1132075 10.75 14.1132075 10.75 12.8584906 7.875 12.8584906 7.875 10.8113208 9.9375 10.8113208 7 5 9.9375 5 12.0625 10.1509434 14.125 5 17 5"></polygon>
                <g id="Group" transform="translate(15.000000, 12.000000)" stroke="#262626">
                    <path d="M6.92305026,0.5 C6.89050307,0.501753779 6.82862578,0.553986839 6.82844824,0.553561958 L6.45406131,2.52834857 L6.18522457,2.6250257 C5.54479875,2.85533101 4.95386782,3.17288627 4.42655922,3.56941794 L4.20840048,3.73347151 L3.95242641,3.63868709 L2.27836509,3.01880032 C2.24020833,3.00464731 2.16802449,3.02823275 2.15087822,3.05543975 L0.505178011,5.62956171 C0.497253374,5.64231245 0.504112738,5.68406058 0.521470892,5.69871096 L2.07448936,7.01724835 L2.01581999,7.30664024 C1.92861395,7.73679175 1.8837319,8.12517654 1.8837319,8.50001813 C1.8837319,8.87176032 1.92835799,9.25495113 2.01586877,9.6876983 L2.07436273,9.97695516 L1.84939689,10.1679563 L0.51824542,11.2981112 C0.501885191,11.3117656 0.494959062,11.3542686 0.501780949,11.3650591 L2.1500211,13.9432246 C2.16569973,13.9675783 2.23786231,13.9905678 2.28008076,13.9746739 L4.20909601,13.2671833 L4.4264159,13.4304841 C4.94625968,13.8211106 5.53735178,14.1360383 6.18525686,14.3690835 L6.45406587,14.4657715 L6.50727593,14.7464413 L6.82855963,16.4411346 C6.83209553,16.4599085 6.8817826,16.4998162 6.91777941,16.5 L10.0834869,16.5000115 C10.1213914,16.5002689 10.1719196,16.460083 10.1755997,16.4405456 L10.5499823,14.4657712 L10.8187916,14.3690833 C11.4666961,14.1360391 12.0577866,13.8211119 12.5776322,13.4304841 L12.7949521,13.2671833 L13.050165,13.3607859 L14.7240977,13.9747218 C14.7621516,13.9886905 14.8331356,13.9658857 14.8469939,13.9445599 L16.4967644,11.3640081 C16.5049787,11.3512299 16.4984405,11.3088791 16.4815958,11.2945607 L14.9308565,9.97106515 L14.9877957,9.68372096 C15.0713161,9.26223516 15.1141398,8.87548306 15.1141398,8.50001813 C15.1141398,8.12132767 15.0711252,7.729763 14.9878464,7.31064161 L14.9307234,7.02315549 L15.1536714,6.83287805 L16.4802847,5.70066919 C16.4962002,5.68699062 16.5026753,5.6453918 16.4960902,5.63495 L14.8461885,3.05417651 C14.8307949,3.02993822 14.7597465,3.00652418 14.725424,3.0188963 L12.7956476,3.73347151 L12.5774888,3.56941794 C12.0501803,3.17288627 11.4592493,2.85533101 10.8188235,2.6250257 L10.5499868,2.52834857 L10.4967722,2.24765679 L10.17654,0.558391363 C10.1727469,0.539406363 10.1221751,0.499722889 10.0800923,0.5 L6.92305026,0.5 Z" id="Path" fill="#FFDF14"></path>
                    <path d="M8.5,5 C6.57241152,5 5,6.57239665 5,8.50001446 C5,10.4275866 6.57241304,12 8.5,12 C10.4275885,12 12,10.4275866 12,8.50001446 C12,6.57239817 10.42759,5 8.5,5 Z" id="Path" fill="#FFFFFF"></path>
                </g>
            </g>
        </g>
    </g>
</svg>