<?xml version="1.0" encoding="UTF-8"?>
<svg width="22px" height="26px" viewBox="0 0 22 26" version="1.1" xmlns="http://www.w3.org/2000/svg" xmlns:xlink="http://www.w3.org/1999/xlink">
    <!-- Generator: Sketch 61.2 (89653) - https://sketch.com -->
    <title>Group</title>
    <desc>Created with Sketch.</desc>
    <g id="Page-1" stroke="none" stroke-width="1" fill="none" fill-rule="evenodd">
        <g id="Icon-/-30-/-settings-salary-ranking" transform="translate(-4.000000, -3.000000)">
            <g id="Group" transform="translate(5.000000, 4.000000)">
                <path d="M2,-0.5 L17.0429732,-0.5 C18.4236851,-0.5 19.5429732,0.619288125 19.5429732,2 L19.5429732,16.7577498 L14.7749739,23.6738282 L2,23.6738282 C0.619288125,23.6738282 -0.5,22.5545401 -0.5,21.1738282 L-0.5,2 C-0.5,0.619288125 0.619288125,-0.5 2,-0.5 Z" id="Rectangle-6" stroke="#5F5F5F" fill="#FFFFFF"></path>
                <path d="M3.00161542,17.6854743 C3.07774047,19.6157058 5.82502026,21.0974278 9.13783659,20.9949932 C12.4506529,20.8925586 15.0745096,19.2447572 14.9983846,17.3145257 C14.9222595,15.3842942 12.1749797,13.9025722 8.86216341,14.0050068 C5.54934708,14.1074414 2.92549037,15.7552428 3.00161542,17.6854743 Z" id="橢圓形" stroke="#5F5F5F" fill="#FFFFFF" fill-rule="nonzero"></path>
                <path d="M3.00161542,15.6854743 C3.07774047,17.6157058 5.82502026,19.0974278 9.13783659,18.9949932 C12.4506529,18.8925586 15.0745096,17.2447572 14.9983846,15.3145257 C14.9222595,13.3842942 12.1749797,11.9025722 8.86216341,12.0050068 C5.54934708,12.1074414 2.92549037,13.7552428 3.00161542,15.6854743 Z" id="橢圓形" stroke="#5F5F5F" fill="#FFFFFF" fill-rule="nonzero"></path>
                <path d="M3.00161542,13.6854743 C3.07774047,15.6157058 5.82502026,17.0974278 9.13783659,16.9949932 C12.4506529,16.8925586 15.0745096,15.2447572 14.9983846,13.3145257 C14.9222595,11.3842942 12.1749797,9.90257215 8.86216341,10.0050068 C5.54934708,10.1074414 2.92549037,11.7552428 3.00161542,13.6854743 Z" id="橢圓形" stroke="#5F5F5F" fill="#FFFFFF" fill-rule="nonzero"></path>
                <path d="M5.5570135,13.5854339 C7.55943527,14.7402869 10.7241964,13.3996539 12.6257054,10.5910463 C14.5272143,7.78243872 14.4454083,4.56941909 12.4429865,3.41456611 C10.4405647,2.25971312 7.27580359,3.60034611 5.37429465,6.4089537 C3.47278571,9.21756128 3.55459172,12.4305809 5.5570135,13.5854339 Z" id="橢圓形" stroke="#5F5F5F" fill="#FFFFFF" fill-rule="nonzero"></path>
                <path d="M16.7898943,17.0851429 L18.7153514,21.1376559 L11.5353434,21.211395 L14.1569344,16.9437349 C14.5905515,16.2378541 15.5142971,16.0171408 16.2201779,16.450758 C16.4674517,16.6026564 16.6653538,16.8230224 16.7898943,17.0851429 Z" id="Triangle" stroke="#5F5F5F" fill="#FFFFFF" fill-rule="nonzero" transform="translate(15.181518, 18.715428) rotate(-54.000000) translate(-15.181518, -18.715428) "></path>
                <polygon id="￥" fill="#5F5F5F" fill-rule="nonzero" transform="translate(8.501126, 8.299762) rotate(37.000000) translate(-8.501126, -8.299762) " points="6.00112633 5.79976184 7.14299485 5.79976184 8.50112633 7.94962179 9.85925782 5.79976184 11.0011263 5.79976184 9.31427512 8.25774504 10.4647942 8.25774504 10.4647942 8.69191871 9.01150696 8.69191871 9.00285644 8.69892151 9.00285644 9.3011624 10.4647942 9.3011624 10.4647942 9.73533607 9.00285644 9.73533607 9.00285644 10.7997618 7.99939623 10.7997618 7.99939623 9.73533607 6.54610903 9.73533607 6.54610903 9.3011624 7.99939623 9.3011624 7.99939623 8.69892151 7.99074571 8.69191871 6.54610903 8.69191871 6.54610903 8.25774504 7.68797754 8.25774504"></polygon>
            </g>
        </g>
    </g>
</svg>