<?xml version="1.0" encoding="UTF-8"?>
<svg width="23px" height="25px" viewBox="0 0 23 25" version="1.1" xmlns="http://www.w3.org/2000/svg" xmlns:xlink="http://www.w3.org/1999/xlink">
    <!-- Generator: Sketch 61.2 (89653) - https://sketch.com -->
    <title>Group 2</title>
    <desc>Created with Sketch.</desc>
    <g id="Page-1" stroke="none" stroke-width="1" fill="none" fill-rule="evenodd">
        <g id="Icon-/-30-/-bonus_managment" transform="translate(-3.000000, -2.000000)">
            <g id="Group-2" transform="translate(4.000000, 3.000000)">
                <circle id="Oval" stroke="#5F5F5F" cx="9.85839844" cy="9.85839844" r="9.85839844"></circle>
                <polygon id="￥" fill="#5F5F5F" fill-rule="nonzero" points="5.7796875 4.87148437 7.6359375 4.87148437 9.84375 9.18867187 12.0515625 4.87148437 13.9078125 4.87148437 11.165625 9.80742187 13.0359375 9.80742187 13.0359375 10.6792969 10.6734375 10.6792969 10.659375 10.6933594 10.659375 11.9027344 13.0359375 11.9027344 13.0359375 12.7746094 10.659375 12.7746094 10.659375 14.9121094 9.028125 14.9121094 9.028125 12.7746094 6.665625 12.7746094 6.665625 11.9027344 9.028125 11.9027344 9.028125 10.6933594 9.0140625 10.6792969 6.665625 10.6792969 6.665625 9.80742187 8.521875 9.80742187"></polygon>
                <g id="Group" transform="translate(11.162109, 13.300781)" fill-rule="nonzero" stroke="#5F5F5F">
                    <path d="M9.6875,3.71575342 L8.535,3.71575342 C8.38163706,3.26870675 8.14848615,2.85495825 7.8475,2.49571918 L8.425625,1.46832192 C8.51191542,1.31476446 8.4607088,1.11841301 8.31125,1.02975171 L6.6875,0.0665667808 C6.53817695,-0.0216511564 6.34752935,0.0309065566 6.26125,0.184075342 L5.681875,1.2114726 C5.23145928,1.12431934 4.76916572,1.12431934 4.31875,1.2114726 L3.73875,0.184075342 C3.65247065,0.0309065566 3.46182305,-0.0216511564 3.3125,0.0665667808 L1.6875,1.02975171 C1.5380412,1.11841301 1.48683458,1.31476446 1.573125,1.46832192 L2.151875,2.49571918 C1.85099175,2.85492256 1.61804097,3.26869207 1.465,3.71575342 L0.3125,3.71575342 C0.139911016,3.71575342 0,3.85949762 0,4.03681507 L0,5.96318493 C0,6.14050238 0.139911016,6.28424658 0.3125,6.28424658 L1.465,6.28424658 C1.61802818,6.73145166 1.85121345,7.14526114 2.1525,7.50428082 L1.57375,8.53167808 C1.48745958,8.68523554 1.5386662,8.88158699 1.688125,8.97024829 L3.313125,9.93343322 C3.4625876,10.0220878 3.65370301,9.96947822 3.74,9.81592466 L4.319375,8.7885274 C4.76973405,8.87630223 5.23214095,8.87630223 5.6825,8.7885274 L6.261875,9.81592466 C6.34817199,9.96947822 6.5392874,10.0220878 6.68875,9.93343322 L8.31375,8.97024829 C8.4632088,8.88158699 8.51441542,8.68523554 8.428125,8.53167808 L7.85,7.50428082 C8.151082,7.14511174 8.38424386,6.73134381 8.5375,6.28424658 L9.6875,6.28424658 C9.86008898,6.28424658 10,6.14050238 10,5.96318493 L10,4.03681507 C10,3.85949762 9.86008898,3.71575342 9.6875,3.71575342 Z" id="Shape" fill="#FFFFFF"></path>
                    <ellipse id="Oval" cx="5.08333333" cy="5.08561644" rx="1.65" ry="1.70890411"></ellipse>
                </g>
            </g>
        </g>
    </g>
</svg>