<?xml version="1.0" encoding="UTF-8"?>
<svg width="22px" height="26px" viewBox="0 0 22 26" version="1.1" xmlns="http://www.w3.org/2000/svg" xmlns:xlink="http://www.w3.org/1999/xlink">
    <!-- Generator: Sketch 61.2 (89653) - https://sketch.com -->
    <title>Group</title>
    <desc>Created with Sketch.</desc>
    <g id="Page-1" stroke="none" stroke-width="1" fill="none" fill-rule="evenodd">
        <g id="Icon-/-30-/-settings-group-atm" transform="translate(-4.000000, -3.000000)">
            <g id="Group" transform="translate(5.000000, 3.000000)">
                <path d="M2,0.5 L17.0429732,0.5 C18.4236851,0.5 19.5429732,1.61928813 19.5429732,3 L19.5429732,17.7577498 L14.7749739,24.6738282 L2,24.6738282 C0.619288125,24.6738282 -0.5,23.5545401 -0.5,22.1738282 L-0.5,3 C-0.5,1.61928813 0.619288125,0.5 2,0.5 Z" id="Rectangle-6" stroke="#5F5F5F" fill="#FFFFFF"></path>
                <g id="Group-5" transform="translate(9.527397, 10.866494) rotate(30.000000) translate(-9.527397, -10.866494) translate(4.527397, 1.866494)">
                    <path d="M5,0.628797302 L0.5,4.06045431 L0.5,16.8912175 C0.841447049,16.6398043 1.24331336,16.5 1.66666667,16.5 C2.16079542,16.5 2.62565233,16.6904561 2.99933305,17.0265361 L3.66733362,17.0265361 C4.04101434,16.6904561 4.50587125,16.5 5,16.5 C5.49412875,16.5 5.95898566,16.6904561 6.33266638,17.0265361 L7.00066695,17.0265361 C7.37434767,16.6904561 7.83920458,16.5 8.33333333,16.5 C8.75668664,16.5 9.15855295,16.6398043 9.5,16.8912175 L9.5,4.06045431 L5,0.628797302 Z M0.5,17.0265815 L0.5,17.4905302 L0.169407227,17.1905306 C0.221917469,17.1326655 0.276767146,17.0780267 0.333736827,17.0267731 L0.5,17.0265815 Z M9.66626317,17.0267731 C9.72323285,17.0780267 9.77808253,17.1326655 9.83059277,17.1905306 L9.5,17.4905302 L9.5,17.0265815 L9.66626317,17.0267731 Z" id="Combined-Shape" stroke="#5F5F5F" fill="#FFFFFF"></path>
                    <circle id="Oval" fill="#5F5F5F" cx="5" cy="5" r="1"></circle>
                    <polygon id="￥" fill="#5F5F5F" fill-rule="nonzero" points="2.0640625 8.0203125 3.43430471 8.0203125 5.0640625 10.6001444 6.69382029 8.0203125 8.0640625 8.0203125 6.03984105 10.9698923 7.42046388 10.9698923 7.42046388 11.4909007 5.67651925 11.4909007 5.66613862 11.4993041 5.66613862 12.2219932 7.42046388 12.2219932 7.42046388 12.7430016 5.66613862 12.7430016 5.66613862 14.0203125 4.46198638 14.0203125 4.46198638 12.7430016 2.71804174 12.7430016 2.71804174 12.2219932 4.46198638 12.2219932 4.46198638 11.4993041 4.45160575 11.4909007 2.71804174 11.4909007 2.71804174 10.9698923 4.08828395 10.9698923"></polygon>
                </g>
                <path d="M16.7898943,18.0851429 L18.7153514,22.1376559 L11.5353434,22.211395 L14.1569344,17.9437349 C14.5905515,17.2378541 15.5142971,17.0171408 16.2201779,17.450758 C16.4674517,17.6026564 16.6653538,17.8230224 16.7898943,18.0851429 Z" id="Triangle" stroke="#5F5F5F" fill="#FFFFFF" fill-rule="nonzero" transform="translate(15.181518, 19.715428) rotate(-54.000000) translate(-15.181518, -19.715428) "></path>
            </g>
        </g>
    </g>
</svg>