<?xml version="1.0" encoding="UTF-8"?>
<svg width="26px" height="27px" viewBox="0 0 26 27" version="1.1" xmlns="http://www.w3.org/2000/svg" xmlns:xlink="http://www.w3.org/1999/xlink">
    <!-- Generator: Sketch 61.2 (89653) - https://sketch.com -->
    <title>Group</title>
    <desc>Created with Sketch.</desc>
    <g id="Page-1" stroke="none" stroke-width="1" fill="none" fill-rule="evenodd">
        <g id="Icon-/-36-/-settings-account-details" transform="translate(-5.000000, -4.000000)" fill-rule="nonzero" stroke="#262626">
            <g id="Group" transform="translate(6.000000, 5.000000)">
                <path d="M19.0070596,-0.112789716 L23.9029517,4.49756608 C24.6990161,5.05843459 24.6990161,6.05627961 23.9574863,6.57266739 L18.9704733,11.2619565 L18.8491193,11.3461263 C18.5437442,11.4967331 18.21932,11.5549155 17.8850822,11.4450212 C17.4261249,11.2941202 17.1745607,11.1168803 17.1745607,10.6806802 L17.1745607,7.79349314 L0.880061115,7.79349314 C0.124771405,7.79349314 -0.5,7.32223757 -0.5,6.64244213 L-0.5,4.32759408 C-0.5,3.64779863 0.124771405,3.17654306 0.880061115,3.17654306 L17.1745607,3.17654306 L17.1745607,0.289356007 C17.1745607,-0.14684405 17.4261249,-0.324084038 17.8850822,-0.474984963 L18.0412529,-0.5 C18.5036804,-0.5 18.7698155,-0.434292955 19.0070596,-0.112789716 Z" id="Path" fill="#FFDF14"></path>
                <path d="M6.87928408,17.2181989 L23.12262,17.2181989 C23.8769158,17.2181989 24.5,17.6919319 24.5,18.3724456 L24.5,20.6259618 C24.5,21.3064754 23.8769158,21.7802085 23.12262,21.7802085 L6.80616908,21.7802085 L6.80616908,24.6791128 C6.80616908,25.1146145 6.55494249,25.2930289 6.09788798,25.4445033 C5.76319411,25.5554256 5.43845509,25.4967221 5.13309887,25.344923 L5.01190747,25.2602716 L0.0943457914,20.5974555 C-0.698115264,20.0346706 -0.698115264,19.0364308 0.0400872125,18.5182276 L5.0794323,13.7571444 C5.43666842,13.5203581 5.79844789,13.430434 6.17100299,13.5539041 C6.62805749,13.7053785 6.87928408,13.8837929 6.87928408,14.3192945 L6.87928408,17.2181989 Z" id="Path" fill="#0BCC99"></path>
            </g>
        </g>
    </g>
</svg>