<?xml version="1.0" encoding="UTF-8"?>
<svg width="46px" height="46px" viewBox="0 0 46 46" version="1.1" xmlns="http://www.w3.org/2000/svg" xmlns:xlink="http://www.w3.org/1999/xlink">
    <!-- Generator: Sketch 58 (84663) - https://sketch.com -->
    <title>football</title>
    <desc>Created with Sketch.</desc>
    <g id="共同" stroke="none" stroke-width="1" fill="none" fill-rule="evenodd">
        <g id="首頁-中獎信息+我的收藏" transform="translate(-1224.000000, -968.000000)" fill-rule="nonzero">
            <g id="football" transform="translate(1224.000000, 968.000000)">
                <path d="M7.935,35.995 L12.765,36.685 L15.64,41.285 C12.65,40.135 10.005,38.41 7.935,35.995 Z M37.605,35.995 C35.7586111,38.1672222 33.3993364,39.8265586 30.8178112,40.9730093 L30.36,41.17 L32.89,36.685 L37.605,35.995 Z M25.415,19.32 L31.51,24.035 L29.67,31.28 L21.275,31.28 L19.435,24.035 L25.415,19.32 Z M4.83,14.375 L5.75,18.285 L2.99,21.62 C3.105,19.09 3.795,16.675 4.83,14.375 Z M40.71,14.375 C41.676,16.4143333 42.3414667,18.7542 42.5194015,21.1141022 L42.55,21.62 L39.79,18.285 L40.71,14.375 Z M22.77,2.99 C24.4055556,2.99 25.9502469,3.1717284 27.4848422,3.53518519 L28.06,3.68 L22.77,5.75 L17.48,3.68 C19.205,3.22 20.93,2.99 22.77,2.99 Z" id="Combined-Shape" fill="#00BA81"></path>
                <path d="M22.77,3.26849658e-13 C10.235,3.26849658e-13 -2.84217094e-14,10.235 -2.84217094e-14,22.77 C-2.84217094e-14,35.305 10.235,45.655 22.77,45.655 C35.305,45.655 45.54,35.42 45.54,22.885 C45.54,10.35 35.305,3.26849658e-13 22.77,3.26849658e-13 Z M40.71,14.375 C41.745,16.675 42.435,19.09 42.55,21.62 L39.79,18.285 L40.71,14.375 Z M39.215,11.615 L37.835,17.71 L30.245,20.24 L29.9,20.01 L23.92,15.18 L23.92,14.375 L23.92,7.705 L31.165,4.83 C34.385,6.325 37.145,8.625 39.215,11.615 Z M28.75,21.735 L26.91,28.865 L18.515,28.865 L16.675,21.62 L22.655,16.79 L28.75,21.735 Z M22.77,2.99 C24.61,2.99 26.335,3.22 28.06,3.68 L22.77,5.75 L17.48,3.68 C19.205,3.22 20.93,2.99 22.77,2.99 Z M14.375,4.83 L21.62,7.705 L21.62,14.375 L21.62,15.18 L15.295,20.24 L13.34,19.55 L7.82,17.71 L6.44,11.615 C8.395,8.625 11.155,6.325 14.375,4.83 Z M4.83,14.375 L5.75,18.285 L2.99,21.62 C3.105,19.09 3.68,16.56 4.83,14.375 Z M6.095,33.58 C4.37,30.935 3.335,27.945 2.99,24.84 L7.245,19.78 L13.34,21.85 L14.605,22.31 L16.56,29.9 L14.835,32.2 L12.995,34.73 L6.095,33.58 Z M7.935,35.995 L12.765,36.8 L15.64,41.4 C12.65,40.25 10.005,38.41 7.935,35.995 Z M22.77,42.665 C21.39,42.665 20.125,42.55 18.745,42.32 L14.605,35.88 L17.365,32.2 L18.17,31.165 L27.255,31.165 L28.06,32.2 L30.935,35.88 L27.37,42.205 C25.875,42.55 24.265,42.665 22.77,42.665 Z M30.36,41.17 L32.89,36.8 L37.605,36.11 C35.65,38.295 33.12,40.02 30.36,41.17 Z M39.445,33.58 L32.66,34.615 L29.9,30.935 L28.98,29.785 L29.9,26.335 L30.935,22.195 L38.41,19.78 L42.665,24.84 C42.205,27.945 41.17,30.935 39.445,33.58 Z" id="Shape" fill="#000000"></path>
            </g>
        </g>
    </g>
</svg>