<?xml version="1.0" encoding="UTF-8"?>
<svg width="24px" height="16px" viewBox="0 0 24 16" version="1.1" xmlns="http://www.w3.org/2000/svg" xmlns:xlink="http://www.w3.org/1999/xlink">
    <!-- Generator: Sketch 61.2 (89653) - https://sketch.com -->
    <title>Group</title>
    <desc>Created with Sketch.</desc>
    <g id="Page-1" stroke="none" stroke-width="1" fill="none" fill-rule="evenodd">
        <g id="Icon-/-30-/-entertain-report-pay" transform="translate(-3.000000, -8.000000)">
            <g id="Group" transform="translate(3.000000, 8.000000)">
                <rect id="Rectangle" stroke="#5F5F5F" fill="#FFFFFF" x="0.5" y="0.5" width="20" height="12" rx="1"></rect>
                <rect id="Rectangle" stroke="#5F5F5F" fill="#FFFFFF" x="5.5" y="3.5" width="18" height="12" rx="1"></rect>
                <polygon id="￥" fill="#5F5F5F" fill-rule="nonzero" points="12 6 13.1418685 6 14.5 9.00980392 15.8581315 6 17 6 15.3131488 9.44117647 16.4636678 9.44117647 16.4636678 10.0490196 15.0103806 10.0490196 15.0017301 10.0588235 15.0017301 10.9019608 16.4636678 10.9019608 16.4636678 11.5098039 15.0017301 11.5098039 15.0017301 13 13.9982699 13 13.9982699 11.5098039 12.5449827 11.5098039 12.5449827 10.9019608 13.9982699 10.9019608 13.9982699 10.0588235 13.9896194 10.0490196 12.5449827 10.0490196 12.5449827 9.44117647 13.6868512 9.44117647"></polygon>
            </g>
        </g>
    </g>
</svg>