<?xml version="1.0" encoding="UTF-8"?>
<svg viewBox="0 0 24 24" version="1.1" xmlns="http://www.w3.org/2000/svg" xmlns:xlink="http://www.w3.org/1999/xlink">
    <!-- Generator: Sketch 56.2 (81672) - https://sketch.com -->
    <title>icon/24/ticket-star</title>
    <desc>Created with Sketch.</desc>
    <g id="icon/24/ticket-star" stroke="none" stroke-width="1" fill-rule="evenodd">
        <g id="ticket-star" transform="translate(1.000000, 4.000000)" fill-rule="nonzero">
            <path d="M14.577,13.7979 L10.999,11.4979 L7.422,13.7979 L8.499,9.6819 L5.21,6.99187 L9.455,6.74286 L10.999,2.79787 L12.544,6.74286 L16.789,6.99187 L13.499,9.6819 L14.577,13.7979 Z M18.999,8.9979 C18.999,7.8939 19.895,6.99787 20.999,6.99787 L20.999,2.99787 C20.999,1.89387 20.104,0.99787 18.999,0.99787 L2.999,0.99787 C1.895,0.99787 1.01,1.89387 1.01,2.99787 L1.006,6.99886 C2.107,7.0029 2.999,7.8959 2.999,8.9979 C2.999,10.1019 2.106,10.9959 1.003,10.9979 L0.999,14.9979 C0.999,16.1029 1.895,16.9979 2.999,16.9979 L18.999,16.9979 C20.104,16.9979 20.999,16.1029 20.999,14.9979 L20.999,10.9979 C19.895,10.9979 18.999,10.1029 18.999,8.9979 Z" id="Shape"></path>
        </g>
    </g>
</svg>
