<?xml version="1.0" encoding="UTF-8"?>
<svg width="9px" height="10px" viewBox="0 0 9 10" version="1.1" xmlns="http://www.w3.org/2000/svg" xmlns:xlink="http://www.w3.org/1999/xlink">
    <!-- Generator: Sketch 56.2 (81672) - https://sketch.com -->
    <title>timer</title>
    <desc>Created with Sketch.</desc>
    <g id="共同" stroke="none" stroke-width="1" fill="none" fill-rule="evenodd">
        <g id="首頁-公告通知+熱門彩種" transform="translate(-129.000000, -1120.000000)" fill="#9F9F9F" fill-rule="nonzero">
            <g id="Group-4" transform="translate(107.000000, 902.000000)">
                <g id="timer" transform="translate(22.000000, 218.000000)">
                    <path d="M5.37397864,0.730184332 C5.27610318,0.285070071 4.88469115,-0.0224426537 4.44621055,0.0012836564 C4.00772996,0.0250099665 3.64912157,0.37310651 3.59619727,0.82638059 C3.54327298,1.27965467 3.81135444,1.70688279 4.23163361,1.83904393 C4.65191278,1.97120507 5.10271823,1.7700384 5.30018255,1.36221643 C7.30006429,1.80451892 8.62956142,3.78106979 8.34328055,5.88636157 C8.05699968,7.99165336 6.25262143,9.50734882 4.21322287,9.35565061 C2.17382431,9.20395241 0.595259547,7.4366208 0.600031718,5.31038933 C0.596476787,4.63678291 0.757282863,3.97324541 1.06740694,3.38184913 C1.14660038,3.23040528 1.09274309,3.04087377 0.947113318,2.95851864 C0.80148355,2.87616351 0.619228333,2.93217098 0.540034898,3.08361483 C0.181839023,3.76643453 -0.00394519316,4.53258543 0,5.31038933 C-0.00503358946,7.77773462 1.83297234,9.82526426 4.20033885,9.98947559 C6.56770537,10.1536869 8.65092592,8.37815139 8.96098721,5.93195981 C9.2710485,3.48576823 7.70140306,1.20951408 5.37397864,0.730184332 L5.37397864,0.730184332 Z" id="路徑"></path>
                    <path d="M4.52777597,6.74747887 C4.86456758,7.08417371 5.41061467,7.08417371 5.74740629,6.74747886 C6.0841979,6.410784 6.0841979,5.86489379 5.7474063,5.52819893 C5.33588164,5.1167925 2.75350696,3.26891113 2.4598071,3.05746201 C2.34539626,2.97167854 2.1852998,2.98305297 2.08417395,3.08414977 C1.9830481,3.18524656 1.9716704,3.34529703 2.05747853,3.459675 C2.27128742,3.75673802 4.14154053,6.3613544 4.52777597,6.74747887 Z" id="路徑"></path>
                </g>
            </g>
        </g>
    </g>
</svg>