<?xml version="1.0" encoding="UTF-8"?>
<svg width="28px" height="28px" viewBox="0 0 28 28" version="1.1" xmlns="http://www.w3.org/2000/svg" xmlns:xlink="http://www.w3.org/1999/xlink">
    <!-- Generator: Sketch 61.2 (89653) - https://sketch.com -->
    <title>Group 10</title>
    <desc>Created with Sketch.</desc>
    <defs>
        <filter x="-22.5%" y="-22.5%" width="145.0%" height="145.0%" filterUnits="objectBoundingBox" id="filter-1">
            <feOffset dx="0" dy="3" in="SourceAlpha" result="shadowOffsetOuter1"></feOffset>
            <feGaussianBlur stdDeviation="2" in="shadowOffsetOuter1" result="shadowBlurOuter1"></feGaussianBlur>
            <feColorMatrix values="0 0 0 0 0   0 0 0 0 0   0 0 0 0 0  0 0 0 0.200010927 0" type="matrix" in="shadowBlurOuter1" result="shadowMatrixOuter1"></feColorMatrix>
            <feMerge>
                <feMergeNode in="shadowMatrixOuter1"></feMergeNode>
                <feMergeNode in="SourceGraphic"></feMergeNode>
            </feMerge>
        </filter>
        <polygon id="path-2" points="0 0.067715736 20 0.067715736 20 14.1116751 0 14.1116751"></polygon>
    </defs>
    <g id="Page-1" stroke="none" stroke-width="1" fill="none" fill-rule="evenodd">
        <g id="Button-/-Oval-/-Smart_Bidding" transform="translate(-18.000000, -11.000000)">
            <g id="Group-3" filter="url(#filter-1)" transform="translate(2.000000, 2.000000)">
                <g id="Group-10" transform="translate(20.000000, 10.000000)">
                    <path d="M3.0964467,4.06091371 L3.29949239,4.06091371 C3.60659898,4.06091371 3.85786802,3.80964467 3.85786802,3.50253807 L3.85786802,0.862944162 C3.85786802,0.555837563 3.60659898,0.304568528 3.29949239,0.304568528 L3.0964467,0.304568528 C2.7893401,0.304568528 2.53807107,0.555837563 2.53807107,0.862944162 L2.53807107,3.50253807 C2.53807107,3.80964467 2.7893401,4.06091371 3.0964467,4.06091371" id="Fill-1" fill="#FFFFFF"></path>
                    <path d="M7.51269036,12.7918782 L7.51269036,11.2690355 L17.1329949,11.2690355 C17.7076142,11.2690355 18.1725888,11.7340102 18.1725888,12.3086294 L18.1725888,13.6812183 C18.1725888,14.2558376 17.7076142,14.7208122 17.1329949,14.7208122 L8.55228426,14.7208122 C7.97766497,14.7208122 7.51269036,14.2558376 7.51269036,13.6812183 L7.51269036,12.7918782 Z M7.51269036,4.18680203 C7.51269036,3.61218274 7.97766497,3.14720812 8.55228426,3.14720812 L17.1329949,3.14720812 C17.7076142,3.14720812 18.1725888,3.61218274 18.1725888,4.18680203 L18.1725888,5.55939086 C18.1725888,6.13401015 17.7076142,6.59898477 17.1329949,6.59898477 L7.51269036,6.59898477 L7.51269036,4.18680203 Z M8.4893401,16.142132 L17.1959391,16.142132 C18.5705584,16.142132 19.6954315,15.0172589 19.6954315,13.6426396 L19.6954315,12.3472081 C19.6954315,10.9725888 18.5705584,9.84771574 17.1959391,9.84771574 L9.74619289,9.84771574 L8.4893401,9.84771574 L7.51269036,9.84771574 L7.51269036,8.02030457 L17.1959391,8.02030457 C18.5705584,8.02030457 19.6954315,6.89543147 19.6954315,5.52081218 L19.6954315,4.22538071 C19.6954315,2.85076142 18.5705584,1.72588832 17.1959391,1.72588832 L11.2690355,1.72588832 L11.2690355,0.710659898 C11.2690355,0.319796954 10.9492386,2.13162821e-14 10.5583756,2.13162821e-14 C10.1675127,2.13162821e-14 9.84771574,0.319796954 9.84771574,0.710659898 L9.84771574,1.72588832 L8.4893401,1.72588832 C7.11472081,1.72588832 5.98984772,2.85076142 5.98984772,4.22538071 L5.98984772,5.52081218 C5.98984772,5.57563452 5.99187817,5.63147208 5.99593909,5.68527919 L5.98984772,5.68527919 L5.98984772,12.7918782 L5.98984772,13.6426396 C5.98984772,15.0172589 7.11472081,16.142132 8.4893401,16.142132 L8.4893401,16.142132 Z" id="Fill-3" fill="#FFFFFF"></path>
                    <g id="Group-7" transform="translate(0.000000, 5.311980)">
                        <mask id="mask-3" fill="white">
                            <use xlink:href="#path-2"></use>
                        </mask>
                        <g id="Clip-6"></g>
                        <path d="M19.2385787,12.5560406 L5.63451777,12.5560406 C5.00203046,12.5560406 4.43756345,12.5052792 4.13908629,11.8463959 C3.95228426,11.4321827 3.94923858,10.9611168 3.95025381,10.5062944 C3.95532995,8.14335025 3.97969543,5.77715736 3.97096447,3.41593909 C3.96862944,2.79928934 3.56639594,2.9928934 3.14314721,2.9093401 C3.24538071,2.92954315 3.8093401,0.875025381 3.80406091,0.640304569 C3.79360406,0.180609137 3.43208122,0.0717766497 3.03654822,0.0717766497 C2.69441624,0.0717766497 2.35126904,0.0707614213 2.00913706,0.0697461929 C2,0.0687309645 1.98984772,0.0687309645 1.97969543,0.0687309645 L1.21624365,0.0687309645 C1.0142132,0.0687309645 0.811167513,0.067715736 0.609137056,0.067715736 L0.609137056,0.0707614213 C0.269035533,0.0971573604 0,0.382436548 0,0.728629442 L0,0.830152284 C0,1.17634518 0.269035533,1.46162437 0.609137056,1.4880203 L0.609137056,1.49005076 L0.658883249,1.49005076 C1.1035533,1.49005076 1.54720812,1.48903553 1.99086294,1.48903553 C2.08913706,2.30294416 0.747614213,3.45116751 1.42345178,4.1915736 C1.5715736,4.35401015 1.81015228,4.3986802 2.03045685,4.39563452 C2.24974619,4.3915736 2.47106599,4.34994924 2.6893401,4.38040609 C2.67208122,5.72964467 2.65482234,7.07888325 2.63756345,8.42913706 C2.6284264,9.10324873 2.62030457,9.77837563 2.61116751,10.4524873 C2.60304569,11.0981726 2.5248731,11.7113706 2.76548223,12.3296447 C3.01522843,12.9722843 3.50761421,13.526599 4.13807107,13.8149239 C4.61522843,14.0321827 5.12182741,14.0626396 5.63451777,14.0768528 C8.34213198,14.1540102 11.0527919,14.0788832 13.7604061,14.0788832 L19.2385787,14.0788832 C19.657868,14.0788832 20,13.7367513 20,13.3174619 C20,12.8981726 19.657868,12.5560406 19.2385787,12.5560406" id="Fill-5" fill="#FFFFFF" mask="url(#mask-3)"></path>
                    </g>
                    <path d="M1.97969543,6.80391932 C1.98375635,6.80391932 1.98680203,6.80391932 1.99086294,6.80286668 C1.54720812,6.80286668 1.1035533,6.80391932 0.659898477,6.80391932 L1.97969543,6.80391932 Z" id="Fill-8" fill="#FFFFFF"></path>
                </g>
            </g>
        </g>
    </g>
</svg>