<?xml version="1.0" encoding="UTF-8"?>
<svg viewBox="0 0 16 16" version="1.1" xmlns="http://www.w3.org/2000/svg" xmlns:xlink="http://www.w3.org/1999/xlink">
    <!-- Generator: Sketch 56.2 (81672) - https://sketch.com -->
    <title>icon/16/轉帳</title>
    <desc>Created with Sketch.</desc>
    <g id="icon/16/轉帳" stroke="none" stroke-width="1" fill-rule="evenodd">
        <g id="money-history" transform="translate(0.000000, 1.000000)" fill-rule="nonzero">
            <path d="M13.0569849,1.00979438 L14.7699849,1.00979438 C15.0461273,1.00979438 15.2699849,0.785936751 15.2699849,0.509794376 C15.2699849,0.233652002 15.0461273,0.00979437649 14.7699849,0.00979437649 L11.5989849,0.00979437649 C11.4671175,-0.0166942904 11.3301391,0.011061849 11.2189849,0.0867943765 C11.0689058,0.188776896 10.9858557,0.364062471 11.0019849,0.544794376 L11.2719849,3.54479438 C11.2947828,3.8028561 11.5109182,4.00076317 11.7699849,4.00079438 L11.8159849,4.00079438 C11.9480658,3.98886708 12.0699976,3.92495551 12.1549531,3.82312144 C12.2399086,3.72128738 12.2809275,3.58987384 12.2689849,3.45779438 L12.0929849,1.50079438 C13.9173772,2.93797112 14.9111226,5.18574034 14.7462937,7.50235763 C14.5814648,9.81897491 13.2794807,11.9034014 11.2699849,13.0677944 C11.0438586,13.2115424 10.9712448,13.5079928 11.1053383,13.7399745 C11.2394318,13.9719562 11.5325597,14.0569952 11.7699849,13.9327944 C13.9976854,12.6439347 15.4692707,10.3620274 15.7243211,7.80102015 C15.9793715,5.24001293 14.9867365,2.71269417 13.0569849,1.00979438 L13.0569849,1.00979438 Z" id="路徑"></path>
            <path d="M3.945392,9.98525568 C3.81331115,9.99718298 3.69137928,10.0610946 3.60642379,10.1629286 C3.5214683,10.2647627 3.48044939,10.3961762 3.492392,10.5282557 L3.668392,12.4772557 C1.84651892,11.0401653 0.85439129,8.79423549 1.018976,6.47963787 C1.18356071,4.16504024 2.48350294,2.08209326 4.490392,0.917255684 C4.71120026,0.771373368 4.78008972,0.478697683 4.64753387,0.249641174 C4.51497802,0.0205846645 4.22689344,-0.0655088175 3.990392,0.053255684 C1.76368339,1.34535011 0.293619908,3.6288535 0.0392581416,6.19069646 C-0.215103625,8.75253942 0.777233315,11.2805311 2.706392,12.9852557 L0.990392001,12.9852557 C0.714249626,12.9852557 0.490392001,13.2091133 0.490392001,13.4852557 C0.490392001,13.7613981 0.714249626,13.9852598 0.990392001,13.9852598 L4.260392,13.9852598 C4.40117828,13.9858271 4.53568159,13.9270177 4.63085822,13.8232752 C4.72603485,13.7195326 4.77306403,13.5804717 4.760392,13.4402557 L4.490392,10.4402557 C4.46295219,10.1654763 4.22065523,9.96319166 3.945392,9.98525568 Z" id="路徑"></path>
            <path d="M13,7 C13,4.23857625 10.7614237,2 8,2 C5.23857625,2 3,4.23857625 3,7 C3,9.76142375 5.23857625,12 8,12 C10.7600532,11.9966939 12.9966939,9.76005315 13,7 L13,7 Z M8,6.5 C8.72389902,6.50819371 9.33865554,7.03224862 9.46133021,7.74572452 C9.58400488,8.45920041 9.17958978,9.15849115 8.5,9.408 L8.5,10 C8.5,10.2761424 8.27614237,10.5 8,10.5 C7.72385763,10.5 7.5,10.2761424 7.5,10 L7.5,9.5 L7,9.5 C6.72385763,9.5 6.5,9.27614237 6.5,9 C6.5,8.72385763 6.72385763,8.5 7,8.5 L8,8.5 C8.27614237,8.5 8.5,8.27614237 8.5,8 C8.5,7.72385763 8.27614237,7.5 8,7.5 C7.27610098,7.49180629 6.66134446,6.96775138 6.53866979,6.25427548 C6.41599512,5.54079959 6.82041022,4.84150885 7.5,4.592 L7.5,4 C7.5,3.72385763 7.72385763,3.5 8,3.5 C8.27614237,3.5 8.5,3.72385763 8.5,4 L8.5,4.5 L9,4.5 C9.27614237,4.5 9.5,4.72385763 9.5,5 C9.5,5.27614237 9.27614237,5.5 9,5.5 L8,5.5 C7.72385763,5.5 7.5,5.72385763 7.5,6 C7.5,6.27614237 7.72385763,6.5 8,6.5 Z" id="形狀"></path>
        </g>
    </g>
</svg>
