<?xml version="1.0" encoding="UTF-8"?>
<svg width="20px" height="20px" viewBox="0 0 20 20" version="1.1" xmlns="http://www.w3.org/2000/svg" xmlns:xlink="http://www.w3.org/1999/xlink">
    <!-- Generator: Sketch 56.2 (81672) - https://sketch.com -->
    <title>icon/20/normal_transfer</title>
    <desc>Created with Sketch.</desc>
    <g id="icon/20/normal_transfer" stroke="none" stroke-width="1" fill="none" fill-rule="evenodd">
        <g id="interation" transform="translate(-1.000000, -2.000000)" fill-rule="nonzero">
            <rect id="矩形" fill="#000000" opacity="0" x="0" y="0" width="23" height="23"></rect>
            <circle id="橢圓形" fill="#D8D8D8" cx="13" cy="13" r="7"></circle>
            <circle id="橢圓形" stroke="#555555" stroke-width="1.5" cx="11" cy="12" r="9"></circle>
            <g id="形狀-2" transform="translate(6.184438, 6.731410)" fill="#555555">
                <path d="M0.1535625,5.53858975 L1.2943125,5.53858975 C1.3775625,5.53858975 1.4473125,5.47108975 1.4473125,5.38558975 L1.4473125,3.61033975 C1.4473125,3.16708975 1.8050625,2.80933975 2.2460625,2.80933975 L6.8743125,2.80933975 L6.8743125,4.01083975 C6.8743125,4.13908975 7.0205625,4.20883975 7.1195625,4.13008975 L9.5743125,2.20183975 C9.6530625,2.14108975 9.6530625,2.02183975 9.5743125,1.96108975 L7.1195625,0.0328397476 C7.0205625,-0.0459102524 6.8743125,0.0260897476 6.8743125,0.152089748 L6.8743125,1.35358975 L2.2438125,1.35358975 C1.0040625,1.35358975 0.0005625,2.36158975 0.0005625,3.60583975 L0.0005625,5.38108975 C0.0005625,5.47108975 0.0680625,5.53858975 0.1535625,5.53858975 Z M0.0590625,8.57383975 L2.5138125,10.5020897 C2.6128125,10.5808397 2.7590625,10.5088397 2.7590625,10.3828397 L2.7590625,9.18133975 L7.3873125,9.18133975 C8.6270625,9.18133975 9.6305625,8.17333975 9.6305625,6.92908975 L9.6305625,5.15383975 C9.6305625,5.07058975 9.5630625,5.00083975 9.4775625,5.00083975 L8.3368125,5.00083975 C8.2535625,5.00083975 8.1838125,5.06833975 8.1838125,5.15383975 L8.1838125,6.92908975 C8.1838125,7.37233975 7.8260625,7.73008975 7.3850625,7.73008975 L2.7590625,7.73008975 L2.7590625,6.52858975 C2.7590625,6.40033975 2.6128125,6.33058975 2.5138125,6.40933975 L0.0590625,8.33758975 C-0.0196875,8.39383975 -0.0196875,8.51308975 0.0590625,8.57383975 L0.0590625,8.57383975 Z" id="形狀"></path>
            </g>
        </g>
    </g>
</svg>