<?xml version="1.0" encoding="UTF-8"?>
<svg width="13px" height="17px" viewBox="0 0 13 17" version="1.1" xmlns="http://www.w3.org/2000/svg" xmlns:xlink="http://www.w3.org/1999/xlink">
    <!-- Generator: Sketch 61 (89581) - https://sketch.com -->
    <title>Group</title>
    <desc>Created with Sketch.</desc>
    <g id="官方" stroke="none" stroke-width="1" fill="none" fill-rule="evenodd">
        <g id="快三-二同號單選-copy" transform="translate(-220.000000, -501.000000)" fill="#4A4A4A" fill-rule="nonzero">
            <g id="Group" transform="translate(220.000000, 501.000000)">
                <path d="M1.22648405,15.0424661 C1.22648405,15.7098177 1.76757995,16.2328771 2.43493157,16.2328771 L10.5694067,16.2328771 C11.2367583,16.2328771 11.7778542,15.7098177 11.7778542,15.0424661 L12.246804,5.23059374 L0.775570796,5.23059374 L1.22648405,15.0424661 Z M8.65753447,7.19657552 C8.65753447,6.85388145 8.8559363,6.5833335 9.19863037,6.5833335 C9.54132444,6.5833335 9.73972627,6.85388145 9.73972627,7.19657552 L9.73972627,13.9783109 C9.73972627,14.3210049 9.54132444,14.5915529 9.19863037,14.5915529 C8.8559363,14.5915529 8.65753447,14.3210049 8.65753447,13.9783109 L8.65753447,7.19657552 Z M5.95205495,7.19657552 C5.95205495,6.85388145 6.15045678,6.5833335 6.49315085,6.5833335 C6.83584492,6.5833335 7.03424675,6.85388145 7.03424675,7.19657552 L7.03424675,13.9783109 C7.03424675,14.3210049 6.83584492,14.5915529 6.49315085,14.5915529 C6.15045678,14.5915529 5.95205495,14.3210049 5.95205495,13.9783109 L5.95205495,7.19657552 Z M3.24657542,7.19657552 C3.24657542,6.85388145 3.44497726,6.5833335 3.78767133,6.5833335 C4.1303654,6.5833335 4.32876723,6.85388145 4.32876723,7.19657552 L4.32876723,13.9783109 C4.32876723,14.3210049 4.1303654,14.5915529 3.78767133,14.5915529 C3.44497726,14.5915529 3.24657542,14.3210049 3.24657542,13.9783109 L3.24657542,7.19657552 Z" id="Shape"></path>
                <path d="M12.4632423,2.16438362 L9.19863037,2.16438362 L9.19863037,0.559132434 C9.19863037,0.234474892 9.0363016,0 8.69360753,0 L4.32876723,0 C3.98607316,0 3.78767133,0.234474892 3.78767133,0.559132434 L3.78767133,2.16438362 L0.559132434,2.16438362 C0.216438362,2.16438362 1.77635684e-15,2.41689504 1.77635684e-15,2.75958911 L1.77635684e-15,3.44497726 C1.77635684e-15,3.78767133 0.216438362,4.14840193 0.559132434,4.14840193 L12.4812789,4.14840193 C12.8239729,4.14840193 13.0043382,3.7696348 13.0043382,3.44497726 L13.0043382,2.75958911 C12.9863017,2.41689504 12.8059364,2.16438362 12.4632423,2.16438362 Z M8.11643856,2.16438362 L4.86986314,2.16438362 L4.86986314,1.08219181 L8.11643856,1.08219181 L8.11643856,2.16438362 Z" id="Shape"></path>
            </g>
        </g>
    </g>
</svg>