<svg xmlns="http://www.w3.org/2000/svg" width="20" height="20" viewBox="0 0 20 20">
    <path fill="#549FB8" fill-rule="nonzero" d="M8.09 7.938v5.625c0 .09-.029.165-.088.224a.307.307 0 0 1-.23.088h-.636a.316.316 0 0 1-.229-.088.295.295 0 0 1-.089-.225V7.939c0-.091.03-.166.09-.225a.307.307 0 0 1 .228-.088h.637c.092 0 .169.03.229.088.06.058.09.133.089.225zm2.546 0v5.625c0 .09-.03.165-.089.224a.307.307 0 0 1-.229.088h-.636a.316.316 0 0 1-.23-.088.295.295 0 0 1-.088-.225V7.939c0-.091.03-.166.089-.225a.307.307 0 0 1 .229-.088h.636c.093 0 .169.03.23.088.06.058.09.133.088.225zm2.546 0v5.625c0 .09-.03.165-.09.224a.307.307 0 0 1-.228.088h-.637a.316.316 0 0 1-.229-.088.295.295 0 0 1-.089-.225V7.939c0-.091.03-.166.09-.225a.307.307 0 0 1 .228-.088h.637c.092 0 .168.03.229.088.06.058.09.133.089.225zm1.273 7.07V5.75h-8.91v9.258c0 .143.024.275.07.395.047.12.095.207.144.263.05.056.084.084.105.083h8.272c.02 0 .055-.028.105-.083a.844.844 0 0 0 .144-.264c.045-.12.069-.252.07-.394zM7.773 4.5h4.454l-.477-1.143a.286.286 0 0 0-.17-.107H8.429a.286.286 0 0 0-.17.107L7.774 4.5zM17 4.813v.625c0 .09-.03.165-.09.225a.307.307 0 0 1-.228.087h-.955v9.258c0 .54-.155 1.007-.467 1.4-.311.395-.686.592-1.124.592H5.864c-.438 0-.813-.19-1.124-.571-.312-.381-.467-.841-.467-1.381V5.75h-.955a.316.316 0 0 1-.229-.087A.295.295 0 0 1 3 5.438v-.625c0-.091.03-.166.09-.225a.307.307 0 0 1 .228-.088h3.073l.696-1.631c.099-.241.278-.446.537-.615.259-.17.52-.254.785-.254h3.182c.265 0 .526.085.785.254.259.169.438.374.537.615L13.61 4.5h3.073c.092 0 .169.03.229.088.06.058.09.133.089.225z"/>
</svg>
