<?xml version="1.0" encoding="UTF-8"?>
<svg viewBox="0 0 24 24" version="1.1" xmlns="http://www.w3.org/2000/svg" xmlns:xlink="http://www.w3.org/1999/xlink">
    <!-- Generator: Sketch 56.2 (81672) - https://sketch.com -->
    <title>icon/24/wallet</title>
    <desc>Created with Sketch.</desc>
    <g id="icon/24/wallet" stroke="none" stroke-width="1" fill-rule="evenodd">
        <g id="wallet" transform="translate(2.000000, 5.000000)" fill-rule="nonzero">
            <path d="M16.25,7.5 C15.5596441,7.5 15,8.05964406 15,8.75 C15,9.44035594 15.5596441,10 16.25,10 L20,10 L20,7.5 L16.25,7.5 Z" id="Path"></path>
            <path d="M13.75,8.75 C13.75,7.36928813 14.8692881,6.25 16.25,6.25 L18.75,6.25 L18.75,3.125 C18.75,2.77982203 18.470178,2.5 18.125,2.5 L16.25,2.5 L16.25,0.625 C16.25,0.279822031 15.970178,0 15.625,0 L1.875,0 C0.839466094,0 0,0.839466094 0,1.875 L0,13.125 C0,14.1605339 0.839466094,15 1.875,15 L18.125,15 C18.470178,15 18.75,14.720178 18.75,14.375 L18.75,11.25 L16.25,11.25 C14.8692881,11.25 13.75,10.1307119 13.75,8.75 Z M1.25,1.875 C1.25,1.52982203 1.52982203,1.25 1.875,1.25 L15,1.25 L15,2.5 L1.875,2.5 C1.52982203,2.5 1.25,2.22017797 1.25,1.875 Z" id="Shape"></path>
        </g>
    </g>
</svg>
