<?xml version="1.0" encoding="UTF-8"?>
<svg width="16px" height="16px" viewBox="0 0 16 16" version="1.1" xmlns="http://www.w3.org/2000/svg" xmlns:xlink="http://www.w3.org/1999/xlink">
    <!-- Generator: Sketch 56.2 (81672) - https://sketch.com -->
    <title>icon/16/wechat-g</title>
    <desc>Created with Sketch.</desc>
    <g id="icon/16/wechat-g" stroke="none" stroke-width="1" fill="none" fill-rule="evenodd">
        <g id="wechat" transform="translate(0.000000, 1.000000)" fill="#646464" fill-rule="nonzero">
            <path d="M2,10.5000274 C1.82663594,10.5000274 1.66564697,10.4101852 1.57457142,10.2626714 C1.48349587,10.1151575 1.4753329,9.93099328 1.553,9.776 L2.053,8.768 C0.798751491,7.91866834 0.0336277215,6.51438858 0,5 C0,2.243 2.691,0 6,0 C9.309,0 12,2.243 12,5 C12.0019003,5.20335185 11.9858379,5.40647424 11.952,5.607 C11.9249422,5.78691434 11.8022922,5.93793147 11.6317527,6.00131576 C11.4612132,6.06470004 11.2697037,6.03044632 11.1317088,5.911877 C10.9937138,5.79330768 10.9310157,5.60913887 10.968,5.431 C10.9915584,5.28858226 11.0022682,5.14433525 11,5 C11,2.794 8.757,1 6,1 C3.243,1 1,2.794 1,5 C1.05368059,6.32971111 1.79905561,7.53444958 2.965,8.176 C3.18355242,8.31233116 3.26276587,8.5923918 3.148,8.823 L3.057,9 L3.745,8.706 C3.85861463,8.66063825 3.98491734,8.65850355 4.1,8.7 C4.87987135,8.94466163 5.69854848,9.04165486 6.514,8.986 C6.64775443,8.97280574 6.78089873,9.0164129 6.88093244,9.10617699 C6.98096615,9.19594108 7.03868506,9.3236028 7.04,9.458 C7.05475957,9.73353649 6.84352039,9.96894286 6.568,9.984 C5.69187161,10.0442164 4.81196091,9.9508105 3.968,9.708 L2.2,10.46 C2.13684164,10.4871005 2.06872331,10.5007242 2,10.5000274 Z" id="路徑"></path>
            <path d="M14.5,14 C14.431336,14.0001065 14.3633412,13.9865075 14.3,13.96 L11.9,12.931 C11.6021581,12.9765654 11.301307,12.9996307 11,13 C8.243,13 6,11.206 6,9 C6,6.794 8.243,5 11,5 C13.757,5 16,6.794 16,9 C15.9571108,10.2151715 15.322114,11.3323923 14.3,11.991 L14.943,13.276 C15.0203559,13.4303585 15.0126008,13.6137044 14.9224865,13.7609793 C14.8323722,13.9082542 14.6726516,13.9986157 14.5,14 L14.5,14 Z M11.967,11.914 C12.0356826,11.913703 12.1037149,11.9273095 12.167,11.954 L13.445,12.503 L13.212,12.036 C13.0939332,11.7986112 13.1816878,11.5103373 13.412,11.379 C14.3343574,10.9335389 14.942368,10.0226716 15,9 C15,7.346 13.206,6 11,6 C8.794,6 7,7.346 7,9 C7,10.654 8.794,12 11,12 C11.2957386,11.9993802 11.5908587,11.9729465 11.882,11.921 C11.9100823,11.91625 11.938519,11.9139082 11.967,11.914 Z" id="形狀"></path>
            <path d="M4.02,4 C3.74385763,4 3.52,3.77614237 3.52,3.5 C3.52,3.22385763 3.74385763,3 4.02,3 L4.03,3 C4.30614237,3 4.53,3.22385763 4.53,3.5 C4.53,3.77614237 4.30614237,4 4.03,4 L4.02,4 Z" id="路徑"></path>
            <path d="M8.02,4 C7.74385763,4 7.52,3.77614237 7.52,3.5 C7.52,3.22385763 7.74385763,3 8.02,3 L8.03,3 C8.30614237,3 8.53,3.22385763 8.53,3.5 C8.53,3.77614237 8.30614237,4 8.03,4 L8.02,4 Z" id="路徑"></path>
            <path d="M9.52,8.5 C9.24385763,8.5 9.02,8.27614237 9.02,8 C9.02,7.72385763 9.24385763,7.5 9.52,7.5 L9.53,7.5 C9.80614237,7.5 10.03,7.72385763 10.03,8 C10.03,8.27614237 9.80614237,8.5 9.53,8.5 L9.52,8.5 Z" id="路徑"></path>
            <path d="M12.52,8.5 C12.2438576,8.5 12.02,8.27614237 12.02,8 C12.02,7.72385763 12.2438576,7.5 12.52,7.5 L12.53,7.5 C12.8061424,7.5 13.03,7.72385763 13.03,8 C13.03,8.27614237 12.8061424,8.5 12.53,8.5 L12.52,8.5 Z" id="路徑"></path>
        </g>
    </g>
</svg>