<?xml version="1.0" encoding="UTF-8"?>
<svg viewBox="0 0 16 16" version="1.1" xmlns="http://www.w3.org/2000/svg" xmlns:xlink="http://www.w3.org/1999/xlink">
    <!-- Generator: Sketch 56.2 (81672) - https://sketch.com -->
    <title>icon/16/提現</title>
    <desc>Created with Sketch.</desc>
    <g id="icon/16/提現" stroke="none" stroke-width="1" fill-rule="evenodd">
        <g id="dollar-money-bag" transform="translate(2.000000, 0.000000)" fill-rule="nonzero">
            <path d="M4,3 C3.72385763,3 3.5,3.22385763 3.5,3.5 C3.5,3.77614237 3.72385763,4 4,4 L8,4 C8.27614237,4 8.5,3.77614237 8.5,3.5 C8.5,3.22385763 8.27614237,3 8,3 L4,3 Z" id="路徑"></path>
            <path d="M11.445,10.384 L8.417,5 L3.583,5 L0.554,10.384 C0.191289403,11.030299 0.000536562471,11.7588785 0,12.5 C0,14.4329966 1.56700338,16 3.5,16 L8.5,16 C10.4329966,16 12,14.4329966 12,12.5 C11.999606,11.758732 11.8084781,11.0300356 11.445,10.384 Z M6,10 C6.72389902,10.0081937 7.33865554,10.5322486 7.46133021,11.2457245 C7.58400488,11.9592004 7.17958978,12.6584912 6.5,12.908 L6.5,13.5 C6.5,13.7761424 6.27614237,14 6,14 C5.72385763,14 5.5,13.7761424 5.5,13.5 L5.5,13 L5,13 C4.72385763,13 4.5,12.7761424 4.5,12.5 C4.5,12.2238576 4.72385763,12 5,12 L6,12 C6.27614237,12 6.5,11.7761424 6.5,11.5 C6.5,11.2238576 6.27614237,11 6,11 C5.27610098,10.9918063 4.66134446,10.4677514 4.53866979,9.75427548 C4.41599512,9.04079959 4.82041022,8.34150885 5.5,8.092 L5.5,7.5 C5.5,7.22385763 5.72385763,7 6,7 C6.27614237,7 6.5,7.22385763 6.5,7.5 L6.5,8 L7,8 C7.27614237,8 7.5,8.22385763 7.5,8.5 C7.5,8.77614237 7.27614237,9 7,9 L6,9 C5.72385763,9 5.5,9.22385763 5.5,9.5 C5.5,9.77614237 5.72385763,10 6,10 Z" id="形狀"></path>
            <path d="M3.4,2 L8.6,2 L9.416,0.777 C9.51808886,0.623587275 9.52751912,0.426456685 9.44054072,0.263999435 C9.35356232,0.101542185 9.18427586,9.51928122e-05 9,0 L3,0 C2.81572414,9.51928122e-05 2.64643768,0.101542185 2.55945928,0.263999435 C2.47248088,0.426456685 2.48191114,0.623587275 2.584,0.777 L3.4,2 Z" id="路徑"></path>
        </g>
    </g>
</svg>
