<svg id="圖層_1" data-name="圖層 1" xmlns="http://www.w3.org/2000/svg" viewBox="0 0 226.3 226.4"><defs><style>.cls-1{fill:#199698;}.cls-2{fill:#fefefe;}.cls-3{fill:#fbd78b;}.cls-4{fill:#c1f0ec;}.cls-5{fill:#fbed8b;}.cls-6{fill:#fad78b;}.cls-7{fill:#ebd38c;}.cls-8{fill:#b0e7e3;}.cls-9{fill:#cfcb8e;}.cls-10{fill:#a1bd91;}.cls-11{fill:#d5cc8e;}</style></defs><title>27</title><path class="cls-1" d="M27.25,28.29c4.18.65,9.1-.59,14-2a6.64,6.64,0,0,1,1-.27c1-.1,1.42-.64,1.68-1.64.85-3.28,3.29-5.18,6.28-6.23,4.15-1.46,8-.9,11.23,2.43.41.43.78.29,1.19.18l32.82-8.46Q118.1,6.5,140.72.71c1.12-.29,2.12-1,3.46-.58A6.41,6.41,0,0,1,147,1.8q9.09,9.39,18.21,18.77c.64.66,1,1,1.86.15a7.48,7.48,0,0,1,6.57-1.8c2.93.42,5.65,1.36,7,4.18a12.89,12.89,0,0,1,1,7c-.17,1.55-.17,1.52,1.35,1.56,2.63.05,5.27-.21,7.88.42,4.75,1.13,6.34,2.77,7.17,7.6a9.89,9.89,0,0,1-2,8.22,5.39,5.39,0,0,1-.94.91c-1.36,1-1.39,1.06-.17,2.32q7.65,7.89,15.31,15.74,7.32,7.53,14.62,15.07a4.43,4.43,0,0,1,1.17,4.6q-4.47,16-8.9,32Q206.56,156.78,195.91,195a4.27,4.27,0,0,1-3.38,3.28Q146.95,210,101.37,221.75c-5.76,1.49-11.52,3-17.27,4.47a4.46,4.46,0,0,1-4.65-1.34Q68.71,213.81,58,202.77q-13.14-13.5-26.25-27a1.24,1.24,0,0,0-1.63-.34A15.18,15.18,0,0,1,10.4,167.7a15,15,0,0,1-.05-12.55,1.31,1.31,0,0,0-.32-1.74c-2.88-2.89-5.69-5.84-8.55-8.76A4.5,4.5,0,0,1,.2,140q4.72-16.83,9.38-33.69c2.86-10.26,5.7-20.54,8.6-30.8.29-1,.06-1.27-.92-1.18a10.84,10.84,0,0,1-1.8-.06c-6.7-.5-8.71-7.18-7.79-11.51a8.37,8.37,0,0,1,2.76-4.91c.39-.32.44-.54.13-1A8.77,8.77,0,0,1,9,51.44c0-4-.07-8.08,0-12.11a11.74,11.74,0,0,1,4.17-9c1.9-1.66,4.24-1.95,6.61-2.06C21.94,28.22,24.11,28.29,27.25,28.29Z"/><path class="cls-2" d="M130.89,90c-.36-.49-.88-.22-1.3-.2a3.68,3.68,0,0,1-3.2-6.16c1.74-2.11,3.78-3.91,5.64-5.9,1.61-1.72,1.61-1.72-.2-3.17l-4.77-3.83a3.6,3.6,0,0,1-.8-4.91c2-3.08,4-6.14,6.12-9.33-2.22-.38-5,.52-5.82-2.89-.66,1.14-1.22,2.06-1.74,3a111.14,111.14,0,0,1-5.43,9.72,2.36,2.36,0,0,0-.24,1.51v41.39c0,2.37-.82,3.67-3,4.44a7,7,0,0,1-6.21-.73,4.47,4.47,0,0,1-2-4q0-13.43,0-26.87V80.71a6.89,6.89,0,0,1-8-4.31,4.2,4.2,0,0,1,.17-3A7.31,7.31,0,0,1,101.65,71c3.85-3.82,6.36-8.59,9.26-13.07a88.76,88.76,0,0,0,5.34-9.64,3.64,3.64,0,0,1,3.94-2.06,8.54,8.54,0,0,1,6.27,4.14c.09,0,.21-.07.22-.12.65-2.85,2.93-3.31,5.26-3.32,8.76-.06,17.52,0,26.28,0,.39,0,.79,0,1.19,0,2.31-.14,4.49,0,5.37,3a44.12,44.12,0,0,0,2.12-8.39,102,102,0,0,0,1.26-14c.07-1.36,0-2.75,1.2-3.84,1.76-1.52,3.65-1.19,5.55-.63a3.82,3.82,0,0,1,2.86,3.45c.39,2.71-.11,5.35-.42,8-.11.93.14,1,1,1,3.11,0,6.23,0,9.35,0a13.2,13.2,0,0,1,3.89.64A3.45,3.45,0,0,1,194,38.71a11.68,11.68,0,0,1,.47,3.32A4.77,4.77,0,0,1,191,46.81a1.1,1.1,0,0,0-.91,1.12c-.91,9.42-1.84,18.85-4,28.09a89.57,89.57,0,0,1-3.52,11.56,3,3,0,0,0,.25,2.79c2.8,5,6.16,9.53,9.35,14.23a3.59,3.59,0,0,1,.33,3.72,7.65,7.65,0,0,1-2.47,3.19c-3.35,2.52-6,2-8.19-1.51-1.56-2.51-3.12-5-4.45-7.67a2.16,2.16,0,0,0-.76-1.09c-1.61,2.28-3.2,4.57-4.83,6.83a62,62,0,0,1-4.24,5.2,4.29,4.29,0,0,1-5,1.3c-3-1-4.82-3-4.51-5.41.17-1.29.82-2.51-.74-3.35Q154.78,100,152,94.29a3,3,0,0,1,1.34-3.81,7.43,7.43,0,0,1,.77-.33,1.71,1.71,0,0,0,.77-2.9c-.27-.35-.58-.21-.86-.16-1.26.24-2.5.54-3.76.77-.66.12-.66.55-.65,1.06,0,2.76,0,5.52.12,8.27.13,3,.13,6.08.11,9.12,0,4.23-3.9,7.79-7.88,7-2.11-.39-4.26-.58-6.37-1-4.43-1-4.05-4.73-2.42-7.47.73-1.23,2-1.32,3.31-1.09,2.34.4,2.35.4,2.35-1.95,0-3.84,0-7.68,0-11.52,0-.81-.22-1-1-.93-2.07.18-4.15.27-6.22.39C131.45,90.06,131.24,90.2,130.89,90Z"/><path class="cls-3" d="M153.66,107.13c.36.61.64,1,.62,1.5a9.23,9.23,0,0,0,6.78,9.42c4.85,1.5,7.59.09,10.65-3.68,1.55-1.92,3-3.89,4.65-5.94,1,1.59,2,3.11,3,4.58a8.08,8.08,0,0,0,10.49,3,11.09,11.09,0,0,0,6.8-8.53,6.07,6.07,0,0,0-.94-4.46c-2.89-4.37-6-8.57-8.69-13.08a2.78,2.78,0,0,1-.29-2.65,126.51,126.51,0,0,0,5.89-26.85c.18-1.45.36-2.9.57-4.54a58.51,58.51,0,0,1,6,6.33A62.83,62.83,0,0,1,213.6,95.68c2.64,24-5.18,44.09-23.74,59.8-.56.47-1,.67-1.64.12a6,6,0,0,0-4-1.25c-16.68,0-33.35-.06-50,0a7.38,7.38,0,0,0-6.55,3.34c-.33.51-.61.69-1.08.2a.89.89,0,0,0-.39-.28c-1.72-.46-1.71-1.74-1.69-3.19.07-4.36,0-8.72,0-13.08a8.93,8.93,0,0,0-1.23-4.81c-1.65-2.61-4.3-3.15-7.07-3.31-1.84-.11-3.68,0-5.52,0-.68,0-1-.15-1.1-.89-.51-4.4-3.93-6.28-7.43-6.71a7.92,7.92,0,0,0-8.23,5.76c-.38-.16-.41-.55-.54-.85a69.18,69.18,0,0,1-3.92-12.18c-.18-.8-.12-1.06.86-1a8.58,8.58,0,0,0,6.87-2.81,9.89,9.89,0,0,0,3-5.6,9,9,0,0,0-3.47-8.57,25,25,0,0,0-4.84-3.08,19.5,19.5,0,0,0-2.14-1.08c-1-.38-1.21-1-1-2a68,68,0,0,1,6-19.13c.17-.34.29-.79.82-.72s.36.62.39,1c.41,4.55,3.38,7.35,7.25,9,.74.32.94.59.93,1.33,0,7.64,0,15.28,0,22.92a8.66,8.66,0,0,0,7,8.88c3.35.68,6.34.35,9.05-1.76a6.59,6.59,0,0,0,2.64-4.14c.13-.75.28-1.15,1.28-.81a6.4,6.4,0,0,0,4.1.46c.42-.14.49.12.66.44a7.59,7.59,0,0,0,4.51,3.9,35.12,35.12,0,0,0,10,1.68,10.37,10.37,0,0,0,9.71-7.56C153.23,108.89,153.41,108.13,153.66,107.13Z"/><path class="cls-4" d="M87.54,198.6c-2.06,7.59-4.09,15.05-6.13,22.52-.56-.11-.8-.57-1.12-.9q-19-19.54-38.06-39.12c-2.45-2.53-4.89-5.07-7.36-7.57-.51-.51-.54-.73,0-1.28a15.18,15.18,0,0,0-4.44-24.73c-6-2.61-11.59-1.61-16.51,2.68-.85.74-1.2.56-1.86-.13-2.55-2.7-5.16-5.35-7.75-8-.34-.34-.71-.63-.44-1.22a12.24,12.24,0,0,0,.4-1.5q3.59-12.86,7.18-25.7c.12,0,.22,0,.26.06,3.08,4,7.16,4.93,11.79,3.69,12.14-3.27,24-7.31,35-13.54a2.13,2.13,0,0,1,2.1-.08c8.22,3.46,16.07,7.67,23.93,11.87a1.34,1.34,0,0,1,.74,1,73.64,73.64,0,0,0,4.89,16.24,2.42,2.42,0,0,1,.08.42,7.7,7.7,0,0,0-5.9,2.73c-.41.51-.92.06-1.33,0-2-.43-2-.45-2-2.52.05-5.5-4.28-8.25-9.2-7.54-4.68.68-6.47,4.21-6.41,7.76a5.25,5.25,0,0,1-.07,2.25c-.39.8-1.34.11-2.05.24-2.08.4-4.07.87-5.3,2.83a7.46,7.46,0,0,0-1.08,4.35,95.84,95.84,0,0,1-1.21,18.14c-.49,3.24,0,6.19,3,8.16a6.72,6.72,0,0,0,5.7,1.06c.94-.27,1.06,0,1.06.87q0,10,0,19.92c0,5.54,4.36,8.34,9.35,7.58a7.24,7.24,0,0,0,4.92-2.68c.3-.38.51-.39.86-.07A8.09,8.09,0,0,0,87.54,198.6Z"/><path class="cls-2" d="M52.79,59.25H94.3a5.11,5.11,0,0,1,5.4,5.06,8.42,8.42,0,0,1-.4,3.19,4.07,4.07,0,0,1-4.16,3c-3,0-6.08,0-9.12,0-.59,0-1,0-1.31.71A52.82,52.82,0,0,1,70.42,90.34a5.56,5.56,0,0,1-.67.42c4.35,2.06,8.44,4,12.56,5.93,3.24,1.48,6.32,3.25,9.46,4.91a11.34,11.34,0,0,1,3.49,2.7,4.79,4.79,0,0,1,.48,5.88c-1.48,2.53-3.68,3.75-6,3.32a16.68,16.68,0,0,1-4.65-1.85A238,238,0,0,0,60.05,99.43a1.53,1.53,0,0,0-1.55,0c-9.11,5.55-19,9.19-29.14,12.38a58.58,58.58,0,0,1-7,2,8.44,8.44,0,0,1-4.62-.16c-3.42-1.28-4.93-4.92-3.51-8.63a3.59,3.59,0,0,1,2.32-1.77,50.6,50.6,0,0,1,7.77-2A101.44,101.44,0,0,0,44.44,94.8l1.27-.61c-.11-.5-.52-.44-.78-.53a121.12,121.12,0,0,0-17.85-5c-3.45-.62-5.15-4.88-4.53-7.34a12.07,12.07,0,0,1,2.91-5c1.37-1.56,2.77-3.1,4.14-4.66.23-.26.61-.55.45-.91s-.64-.19-1-.2H16.84c-3.63,0-5.66-2.08-5.64-5.78a5.29,5.29,0,0,1,5.64-5.4q10.26,0,20.52,0a1.84,1.84,0,0,0,1.83-1c2.29-3.75,4.65-7.46,6.92-11.22a4.48,4.48,0,0,1,3.83-2.27,9.32,9.32,0,0,1,4.34.69A5,5,0,0,1,57,52.64a38.39,38.39,0,0,1-3.3,5.14Z"/><path class="cls-2" d="M109,169a67.11,67.11,0,0,0,14.8,18.45,4,4,0,0,1,.9,5.6,4.17,4.17,0,0,1-5.52,1.71,10.46,10.46,0,0,1-3.18-2.51,81.37,81.37,0,0,1-12.12-16.62c-.29-.53-.57-1-.92-1.67a4.11,4.11,0,0,0-.31.52c-2.84,7.75-8,13.88-13.9,19.41a3.52,3.52,0,0,1-4.12.66c-1.68-.81-3-2-3.11-4.07A3.35,3.35,0,0,1,82.8,188a81.15,81.15,0,0,0,7.58-9,33.83,33.83,0,0,0,5-9.89H87.56c-3.39,0-5.14-2.28-4.29-5.6.5-1.94,1.21-2.61,3.21-2.82a93.5,93.5,0,0,1,9.47-.12c1,0,1.3-.27,1.38-1.25.32-4.27.18-8.56.42-12.83,0-.73-.15-1-.91-1-2.12,0-4.24,0-6.36,0-3.14,0-4.72-1.91-4.16-5a3.85,3.85,0,0,1,4.06-3.46c2.08,0,4.16,0,6.23.1.75,0,1-.19.94-.93-.07-1-.06-2,0-3a4,4,0,0,1,4.78-3.84,4,4,0,0,1,3.6,4.11,11.19,11.19,0,0,1-.07,2.39c-.17,1,.23,1.12,1.08,1.11,3-.05,6,0,9,0a9.58,9.58,0,0,1,1.78.16,3.16,3.16,0,0,1,2.91,3.39c.08,2.31,0,4.63,0,7,0,3.88,0,7.76,0,11.64,0,.87.17,1.27,1.11,1.15a3.14,3.14,0,0,1,3.59,2.15c.73,1.88.85,3.78-.5,5.45a3.62,3.62,0,0,1-3,1.09H109Z"/><path class="cls-2" d="M49.38,32.13c-.43-.9-.79-1.65-1.13-2.4-1.91-4.11.09-7.75,4.61-8.4,3.17-.46,5.19.53,6.77,3.33a32.19,32.19,0,0,1,2.9,6.55,1.15,1.15,0,0,0,1.35.94c8.88,0,17.76,0,26.64,0a6.2,6.2,0,0,1,6.26,6.32A42.62,42.62,0,0,1,93.6,52.76c-1,2.62-3.15,3.47-7,2.75-2.75-.51-5.47-2.61-4.15-6.84.37-1.18.68-2.38,1-3.56s-.2-1.4-1.13-1.45c-.32,0-.64,0-1,0q-27.48,0-54.95,0c-1.74,0-1.9.46-1.88,1.95a32.88,32.88,0,0,1-.2,6.35c-.37,2-1.1,3.77-3.23,4.35C18.56,57,16,57,13.93,55a4,4,0,0,1-1.11-3.07c0-4.28,0-8.56,0-12.84a6.73,6.73,0,0,1,6.93-7q14.1,0,28.2,0Z"/><path class="cls-4" d="M85.33,222c1-3.82,2-7.44,3-11.05,1.3-4.77,2.62-9.54,3.9-14.33a3.54,3.54,0,0,1,1-1.71,59.34,59.34,0,0,0,9.5-11.86c.56-.92.78-.68,1.23,0A80.19,80.19,0,0,0,113.26,195a11.5,11.5,0,0,0,6.1,3.8,7.65,7.65,0,0,0,6.64-1.5,1.57,1.57,0,0,1,1.87-.35,8,8,0,0,0,3.17.51h48.82l0,.27Z"/><path class="cls-4" d="M115.79,172.83c1.83,0,3.42,0,5,0,3,.06,5.83-.49,7.62-3.31.38-.59.83-.27,1.27-.13a74.26,74.26,0,0,0,14.22,3.19,60.53,60.53,0,0,0,22-1.38,26.41,26.41,0,0,1,7-.85q5.94.12,11.87,0c2.69,0,5-1,6.09-3.66a8.77,8.77,0,0,0,.62-5.86,2,2,0,0,1,.87-2.48,64.89,64.89,0,0,0,13.15-14,8.33,8.33,0,0,1,.5-.67c0-.05.14,0,.34-.09-3.88,13.91-7.73,27.75-11.65,41.81-1.91-3.37-4.93-4-8.22-4q-28,0-56,0a7.34,7.34,0,0,0-4.71,1.5.88.88,0,0,1-1.4,0A65.36,65.36,0,0,1,115.79,172.83Z"/><path class="cls-4" d="M140.3,4.73c-1.37,5-2.69,9.87-4,14.72-.61,2.22-.61,2.23-2.89,1.71a8.06,8.06,0,0,0-4.25.26,1.37,1.37,0,0,1-1.59-.38,9.84,9.84,0,0,0-6.38-3A7.5,7.5,0,0,0,114.1,21c-3.38,4.56-6.58,9.25-10.38,13.49-.93,1-1.89,2-2.88,3.1a3.56,3.56,0,0,1-.58-1.71,10.14,10.14,0,0,0-9.55-7.53c-7.95,0-15.91,0-23.86,0a1.56,1.56,0,0,1-1.8-1.25,7.61,7.61,0,0,0-.78-1.75c-.48-.78-.25-1,.59-1.25,5.88-1.47,11.75-3,17.62-4.5L139.39,4.93Z"/><path class="cls-2" d="M144.63,44.13c-4.16,0-8.32-.1-12.47,0-3.4.1-4.46-1.74-4.56-4.42-.15-4-.06-8,0-12a2.63,2.63,0,0,1,1.79-2.48,6,6,0,0,1,5.53.33,3.21,3.21,0,0,1,1.74,2.93c0,2.08,0,4.16,0,6.24,0,1,.36,1.44,1.4,1.46,2.7,0,2.7.07,2.7-2.65s0-5.35,0-8a3,3,0,0,1,2.55-3.28,7.07,7.07,0,0,1,3.42-.26,4.18,4.18,0,0,1,3.41,4.06q0,4.5,0,9c0,.81.17,1.1,1,1.1,3.06,0,3.06,0,3.06-3,0-1.72,0-3.44,0-5.16a2.55,2.55,0,0,1,2-2.73,7.28,7.28,0,0,1,5.47.57,2.44,2.44,0,0,1,1.41,2.2,115.27,115.27,0,0,1,0,12.47,3.28,3.28,0,0,1-2.93,3.38,16.67,16.67,0,0,1-3.46.28Z"/><path class="cls-2" d="M159,185.25h28.43c1.44,0,2.88.15,3.62,1.59a5.14,5.14,0,0,1,0,5.27c-.74,1.21-2.05,1.44-3.37,1.45-2.6,0-5.2,0-7.79,0H130.53c-2,0-3.32-1.24-3.64-3.39-.4-2.59.35-4.22,2.25-4.79a4.33,4.33,0,0,1,1.3-.16H159Z"/><path class="cls-2" d="M77.15,162.81c0,9.84,0,19.68,0,29.52a2.58,2.58,0,0,1-1.54,2.59A5,5,0,0,1,71,195a3.25,3.25,0,0,1-1.79-3.15q0-29.34,0-58.68c0-2.23,1.52-3.54,4.06-3.54s3.85,1.31,3.85,3.59Q77.16,148,77.15,162.81Z"/><path class="cls-2" d="M159.42,166.53H134.36c-2.72,0-4.18-1.59-4.17-4.55,0-2.4,1.5-3.82,4.08-3.82H184a3.57,3.57,0,0,1,3.74,3.41,11.47,11.47,0,0,1,0,1.55c-.1,2.52-1,3.41-3.57,3.41Z"/><path class="cls-5" d="M24.23,150a11.4,11.4,0,1,1-11.4,11.33A11.41,11.41,0,0,1,24.23,150Z"/><path class="cls-2" d="M119.93,21.78c3.28,0,6.44,2.54,6.74,4.94a6.34,6.34,0,0,1-1.17,4.06,97.71,97.71,0,0,1-7.44,10.28,62.9,62.9,0,0,1-7.47,8.09,3.94,3.94,0,0,1-5.44.37,7.51,7.51,0,0,1-3.57-4.89,3.76,3.76,0,0,1,1.06-3.52c5.45-5.24,9.8-11.37,14.16-17.48A4,4,0,0,1,119.93,21.78Z"/><path class="cls-2" d="M67.5,148.16a101.52,101.52,0,0,1-1.43,16.13,3.26,3.26,0,0,1-3.38,2.9,3.36,3.36,0,0,1-3.36-3.26c-.16-1.85.42-3.64.61-5.46a89.33,89.33,0,0,0,.73-15.07c-.13-2.27.79-3.29,3-3.43a3.18,3.18,0,0,1,3.58,3.19C67.41,145.15,67.45,147.15,67.5,148.16Z"/><path class="cls-2" d="M130.89,90l.72-.24a22.58,22.58,0,0,1,2.67,1.18c1.94,1.32,2.37,2.66,1.44,4.81a47.56,47.56,0,0,1-5.88,10.12,4,4,0,0,1-6.22.38,3.62,3.62,0,0,1-.75-4.87c.87-1.67,2.07-3.12,3-4.75.77-1.36,1.38-2.79,2.15-4.14C128.69,91.3,129.41,90.19,130.89,90Z"/><path class="cls-4" d="M140.58,18.93c1.3-4.75,2.56-9.39,3.89-14.24l15.94,16.39c-1.37.14-2.65-.15-3.92.24a7.25,7.25,0,0,0-2.06.56c-1.23.89-1.67.12-2.34-.73-2.16-2.72-5.07-3.39-8.37-2.83A18.2,18.2,0,0,1,140.58,18.93Z"/><path class="cls-4" d="M60,55.34c1.17-2.55,1.83-5.06.88-7.85h3c4.63,0,9.26,0,13.89,0,.78,0,1.19,0,.88,1a8.08,8.08,0,0,0,1,6.84Z"/><path class="cls-2" d="M82.49,158.37a2.65,2.65,0,0,1-3-2.37c-.47-3.07-.78-6.16-1.17-9.25-.16-1.26-.39-2.52-.51-3.79-.19-1.93.83-3.1,2.86-3.41A2.8,2.8,0,0,1,84.16,142a120.5,120.5,0,0,1,2,13.36C86.32,157,84.54,158.36,82.49,158.37Z"/><path class="cls-4" d="M15.38,99.55c1.27-4.59,2.51-9,3.78-13.63a11.18,11.18,0,0,0,2.42,4,8.15,8.15,0,0,0,4.49,2.29c2.89.6,5.73,1.4,8.92,2.2C28.5,96.79,22,97.81,15.38,99.55Z"/><path class="cls-4" d="M88.93,74.32c1.83,0,1.83,0,1.13,1.57a73.93,73.93,0,0,0-5,16.85c-.15.78-.31.93-1,.58-2.22-1.09-4.47-2.13-6.72-3.16-.52-.24-.67-.41-.2-.9A58.74,58.74,0,0,0,87.22,74.88C87.65,74,88.39,74.46,88.93,74.32Z"/><path class="cls-4" d="M211,73.59c1.77,1.67,3.54,3.28,5.23,5,1.95,1.94,3.84,3.94,5.76,5.92.34.35.61.62.44,1.23-1.42,4.94-2.78,9.9-4.16,14.85,0,.1-.1.2-.3.6a75.57,75.57,0,0,0-2.21-14.3A68.25,68.25,0,0,0,211,73.59Z"/><path class="cls-4" d="M41.47,47.49c-1.64,2.63-3.14,5-4.62,7.43a1,1,0,0,1-1,.55H28.47c-.52,0-.82,0-.62-.73.65-2.17,1.22-4.37,1.82-6.56.11-.41.26-.7.79-.7C34.05,47.5,37.63,47.49,41.47,47.49Z"/><path class="cls-4" d="M81.06,170.38c2.34,2.71,5.32,2.79,8.6,2.59-2.23,4.33-5.35,7.75-8.6,11.34Z"/><path class="cls-4" d="M96.44,55.64c1.26-2.25,1.63-4.6,2.52-7a14.74,14.74,0,0,0,6.41,5.26c-1.29,1.38-2.57,2.73-3.83,4.1-.27.29-.43.24-.67,0A7.64,7.64,0,0,0,96.44,55.64Z"/><path class="cls-4" d="M93.7,153.06c0,.8,0,1.6,0,2.4a1.44,1.44,0,0,1,0,.59c-.72,1.52-2.06.41-3.09.7-.67.19-.71-.31-.69-.87a34.14,34.14,0,0,0-.53-5.34c-.1-.81.09-1.18,1-1.11,1.11.08,2.57-.35,3.24.21s.09,2.08.16,3.18v.24Z"/><path class="cls-6" d="M123.05,81.78V72.32c1.45,1.19,2.84,2.36,4.27,3.48.51.4.65.64.09,1.16A33.54,33.54,0,0,0,123.05,81.78Z"/><path class="cls-7" d="M123,93.75V90.86C124.24,91.81,124.24,91.81,123,93.75Z"/><path class="cls-8" d="M122.2,42l1.4-1.89C124.19,41.37,124.08,41.53,122.2,42Z"/><path class="cls-9" d="M104.21,61.27c-.16.26-.29.5-.44.72s-.31.44-.49.69C103.09,61.8,103.28,61.51,104.21,61.27Z"/><path class="cls-10" d="M104.91,60c0,.41-.13.68-.34.66-.44,0-.06-.25,0-.37S104.74,60.13,104.91,60Z"/><path class="cls-1" d="M162.57,56.15a38.42,38.42,0,0,1-3.87,7.78,4,4,0,0,0,.07,4.59,7,7,0,0,0,3,2.66,3.71,3.71,0,0,0,3.88-.11c.51-.34.87-.51,1,.38a128.2,128.2,0,0,0,4,15.76,2.63,2.63,0,0,1-.14,2,67.9,67.9,0,0,1-5.69,9.85,2.31,2.31,0,0,1-.94,1q-2.34-5-5.11-9.84A30.12,30.12,0,0,0,161.66,89a3.28,3.28,0,0,0,1.75-3.72,50.06,50.06,0,0,0-3.31-10c-.57-1.36-1.29-2.65-2-4a2.94,2.94,0,0,0-3.78-1.61,7.93,7.93,0,0,0-3.24,1.49A2.94,2.94,0,0,0,150.2,75c.34.89.78,1.74,1.19,2.61.23.47.3.77-.42.86-2.69.36-5.37.79-8.06,1.16-.31,0-.77.29-.94-.18s.29-.53.5-.74A100.86,100.86,0,0,0,155.2,63.94c1.89-2.73,1-4.95-1.64-6.29a8,8,0,0,0-4.3-.78,3,3,0,0,0-2.19,1.69c-1.91,2.86-3.77,5.75-5.94,8.42-.23.29-.44,1-1.06.44s-1.71-.8-1.2-1.79c1.56-3,3.26-6,4.9-8.93.29-.52.78-.32,1.18-.32q7.62,0,15.23,0A7.53,7.53,0,0,0,162.57,56.15Z"/><path class="cls-1" d="M175.88,72.38c-.43-2.29-.92-4.57-1.28-6.87-.44-2.84-.78-5.69-1.16-8.54a4.48,4.48,0,0,1,.12-1.78c.61-2.35,1.19-4.72,1.75-7.09a1,1,0,0,1,1.12-.89c2.75,0,2.68,0,2.6,2.72a107.79,107.79,0,0,1-2.51,21c-.11.48-.24,1-.36,1.43Z"/><path class="cls-1" d="M159.26,143.25c-9,0-17.91-.05-26.86,0-5.57,0-8.47-4.76-7.8-9.5.64-4.55,4.12-6.49,7.87-6.49,18.07,0,36.14-.06,54.21,0,5.85,0,8.18,4.4,7.46,9.51-.62,4.48-4,6.47-8.14,6.46Q172.64,143.23,159.26,143.25Z"/><path class="cls-1" d="M72.06,70.53a32.65,32.65,0,0,1-4.92,7.65,59,59,0,0,1-7.75,7.49,1.36,1.36,0,0,1-1.51.26C51.54,83.78,45.21,81.58,38.69,80c-.94-.22-.88-.65-.38-1.24,2.23-2.61,4.48-5.21,6.7-7.83a1.11,1.11,0,0,1,.94-.39Z"/><path class="cls-1" d="M105.75,152.94c0-2.2,0-4.4,0-6.6,0-.73.22-1,1-.94,1.4,0,2.8,0,4.2,0a1.29,1.29,0,0,1,1.49,1.35c.05,4.4,0,8.79.05,13.19,0,.4-.16.57-.57.57-1.88,0-3.76,0-5.64,0-.67,0-.63-.38-.63-.86,0-2.24,0-4.47,0-6.71Z"/><path class="cls-11" d="M165.12,91.27c-.12.47-.17.93-.62,1.12-.05,0-.24-.11-.25-.19C164.13,91.52,164.86,91.6,165.12,91.27Z"/><path class="cls-2" d="M159.29,139.41c-9,0-18-.07-27,.05a4.12,4.12,0,0,1-4-4.24c.05-2.61,1.38-4.12,3.92-4.13h54.71c2.38,0,3.65,1.55,3.62,4.25,0,2.51-1.43,4.07-3.74,4.07Z"/><path class="cls-4" d="M44.38,77.62c.82-1,1.6-1.88,2.35-2.8a1.18,1.18,0,0,1,1-.45H65.13a11.54,11.54,0,0,1-2.39,3c-1.35,1.41-2.83,2.7-4.22,4.06a1.2,1.2,0,0,1-1.41.24C52.93,80.25,48.74,78.85,44.38,77.62Z"/></svg>