<?xml version="1.0" encoding="utf-8"?>
<!-- Generator: Adobe Illustrator 22.1.0, SVG Export Plug-In . SVG Version: 6.00 Build 0)  -->
<svg version="1.1" id="圖層_1" xmlns="http://www.w3.org/2000/svg" xmlns:xlink="http://www.w3.org/1999/xlink" x="0px" y="0px"
	 viewBox="0 0 245.8 245.8" style="enable-background:new 0 0 245.8 245.8;" xml:space="preserve">
<style type="text/css">
	.st0{fill:#EDCFA8;}
	.st1{fill:#38322F;}
	.st2{fill:#EDE7A1;}
	.st3{fill:#EDBD69;}
	.st4{fill:#E7AF89;}
	.st5{fill:#E0AA86;}
	.st6{fill:#F9F8F8;}
	.st7{fill:#83807E;}
	.st8{fill:#959291;}
	.st9{fill:#EDBD68;}
	.st10{fill:#04D391;}
	.st11{fill:#E3B665;}
	.st12{fill:#FEFCFA;}
</style>
<g>
	<path class="st0" d="M39.9,146.7c-0.6-8.2,3.1-14.2,9.4-19c1,1,2,2,3.4,2.4c2.5,0.8,5,1.2,7.7,0.4c2.1-0.7,3.7-1.8,5.1-3.4
		c1.6-1.8,1.7-4.1,2.3-6.3c0.5-1.4,0.1-2.9,0.2-4.4c0.6-0.4,1.4-0.4,1.9-0.9c0.1,0.2,0.2,0.4,0.2,0.7c0.8,3.8,2.9,6.8,6,9.2
		c3,2.3,6.4,3.2,10,3.8c6.4,1,12.8,0.5,19.1-1.1c4.2-1.1,7.5-3.4,10.1-6.8c2.2-2.9,3.1-6.3,3.8-9.7c0.9-4.6,0.6-9.2,0.4-13.9
		c-0.1-1.7-0.5-3.5-1.5-5c-1.7-2.7-4-4.2-7.1-4.7c-2.7-0.4-5.2,0.2-7.4,1.5c-3.5,2.1-4.7,5.5-4.8,9.3c-0.1,3,0.1,5.9-0.1,8.9
		c0,0.6-0.2,0.9-0.9,0.9c-2,0-4,0.2-6,0.2c-1,0-1.4-0.3-1.4-1.4c0.1-3.7,0-7.4,0-11.2c0-6.2,0-12.4,0-18.6c0.9-0.8,1.6-1.8,2.6-2.6
		c3.6-3,7.7-3.5,12.2-2.3c3.4,0.9,6.6,2.4,9.8,3.8c4.4,2,8.8,3.8,13.5,5c0.9,0.2,1.1,0,1.1-0.9c0-3.6,0-7.3,0-10.9
		c0-0.4-0.1-0.9,0.2-1.3c0,4.1,0.1,8.2,0,12.4c-0.1,2.7,0.2,5.3,1,7.9c1,3.5,3.3,5.7,6.5,6.9c1.1,0.4,0.9,0.6,0.3,1.2
		c-3.9,4.9-8.5,9.1-13.3,13.1c-4.5,3.8-5.9,10.5-1.8,15.4c2.1,2.5,4.9,3.7,8,3.6c2.9-0.1,5.6-1.3,7.8-3.4c1-0.9,2-1.8,3-2.7
		c1.3-1.2,2.5-2.3,3.9-3.6c0.3,4,2.5,6.7,5.8,8.1c6.4,2.7,12.9,5.4,20.1,3.6c0.1,0.1,0.2,0.2,0.4,0.3c3.7,1.6,7.6,2.3,11.6,2.6
		c4.8,0.3,9.5-0.3,14-1.8c2.5-0.8,4.8-2,7.2-3c2.6,0.9,5.2,1.6,7.9,0.6c-0.3,3-1.2,5.8-2.9,8.4c-0.1,0-0.2,0-0.2-0.1
		c-4.8-1.9-8.6-0.3-11.3,3.3c-0.4,0.5-0.7,1-1.1,1.4c-1,1.1-1.9,2.3-3.1,3.3c-0.3-2.2-1.1-3.9-2.7-5.1c-2.3-1.7-5-2.3-7.8-1.6
		c-1,0.2-2,0.5-3,0.7c-7.3,1.3-14.7,1.8-22.1,1.9c-2,0-4,0.4-5.8,1.4c-2.4,1.3-3.4,3.6-3.8,6.2c-0.3,2.1,0,4.2,1.2,5.8
		c2,2.7,2.3,6,3.3,9c0.1,0.3,0.2,0.6-0.2,0.6c-0.8,0.1-1.4,0.7-2.1,1.1c-0.7-2.1-2-3.7-3.7-5c-2.7-2-5.1-4.3-7.2-6.9
		c-2.8-3.5-4.9-7.5-6.6-11.6c-1.2-2.9-3.1-5.1-6.5-5.7c-3.1-0.6-6.9,0.8-8.8,3.3c-0.7,0.9-1.1,1.9-1.4,3.2c-0.4-0.9-0.5-1.7-0.9-2.4
		c-1.5-2.4-3.8-3.5-6.5-4c-2.1-0.4-4,0.1-5.8,1.2c-1.8,1.1-3,2.8-3.8,4.7c-3,7-7.4,12.9-13.4,17.6c-0.6-0.4-1.1,0.1-1.6,0.3
		c-3,1.3-5.6,3.1-8.4,4.8c-1.1,0.6-2.4,0.9-3.3,1.9c-0.8-1-1.6-2-2.6-2.8c-3.8-3.4-8.4-4.7-13.3-5.3c-0.8-0.1-2,0.4-2.4-0.3
		c-0.3-0.6,0.2-1.7,0.3-2.6c0.1-0.8,0.4-1,1.2-1c3.9,0,7.8,0,11.6,0c1.6,0,3.1-0.3,4.5-1.1c1.9-1.2,2.9-3,3.2-5.2
		c0.8-4.9-1.6-9.4-7.2-9.5c-6.5-0.2-13-0.1-19.4,0c-2.9,0.1-5.4,1.1-7,3.7C40.5,144.3,40.3,145.5,39.9,146.7z"/>
	<path class="st1" d="M85.5,160.3c6-4.7,10.4-10.6,13.4-17.6c0.8-1.9,1.9-3.6,3.8-4.7c1.8-1,3.7-1.6,5.8-1.2c2.7,0.5,5,1.6,6.5,4
		c0.4,0.7,0.5,1.4,0.9,2.4c0.3-1.3,0.7-2.3,1.4-3.2c1.9-2.5,5.7-3.9,8.8-3.3c3.4,0.6,5.3,2.8,6.5,5.7c1.7,4.1,3.8,8.1,6.6,11.6
		c2.1,2.6,4.5,4.9,7.2,6.9c1.8,1.3,3,2.9,3.7,5c0.7-0.4,1.3-1,2.1-1.1c0.4,0,0.3-0.4,0.2-0.6c-1-3-1.3-6.3-3.3-9
		c-1.2-1.6-1.5-3.7-1.2-5.8c0.4-2.6,1.4-4.8,3.8-6.2c1.8-1,3.8-1.3,5.8-1.4c7.4-0.1,14.8-0.6,22.1-1.9c1-0.2,2-0.4,3-0.7
		c2.8-0.6,5.5-0.1,7.8,1.6c1.6,1.2,2.5,2.9,2.7,5.1c1.3-1,2.2-2.2,3.1-3.3c0.4-0.4,0.7-1,1.1-1.4c2.7-3.6,6.5-5.2,11.3-3.3
		c0.1,0,0.2,0,0.2,0.1c0.8,0.8,1.8,1.2,2.5,2c2.8,3.2,2.7,7.3,0.6,10.7c0,0-0.1,0.1-0.1,0.1c-0.7,0.9-1.8,1.8-1.8,2.7
		c-0.1,0.9,1.5,1.3,2.2,2c2.9,3.2,3.1,7,1,10.8c-0.6,1.2-1.5,2.2-2.4,3.4c1.7,1,3.4,2.1,4.5,3.9c0.9,1.7,1.3,3.4,1.1,5.4
		c-0.4,3.2-2.4,5.5-4.3,7.9c-6.4,8.3-14.4,14.6-24.2,18.3c-2.7,1-5.6,2-8.5,0.8c-1.4-0.6-2.4-0.4-3.8,0.3c-3.1,1.4-6.3,1.2-9.3-0.8
		c-2.7-1.9-3.1-4.9-3.5-7.9c-1.1,0.8-2,1.5-3,2.2c-1.5,1-3.3,1.4-5,1.3c-2-0.1-3.9-0.8-5.5-2.2c-2.1-1.9-3.1-4.3-2.9-7
		c0.2-3,1.7-5.4,4.1-7.3c1.2-1,2.4-1.9,3.5-3.2c-3.7-0.5-6-2.5-7.1-6c-0.5,0.1-0.7,0.4-1.1,0.6c-1.6,0.8-3.3,1.4-5,1.1
		c-0.9-0.1-1,0.1-1,0.8c-0.1,2.5-0.2,5-0.3,7.5c-0.2,3.5-0.3,7.1-1.2,10.6c-1.2,4.7-3.9,7.7-8.7,8.8c-2.3,0.5-4.5,0.8-6.9,0.7
		c-4-0.4-7.9-1.3-11.7-2.5c-2.1-0.6-3.9-1.7-5.2-3.4c-0.5-0.7-0.8-0.2-1.1,0.1c-2.6,2.1-5.3,4-8.2,5.5c-2.8,1.4-5.8,1.9-8.8,0.6
		c-2-0.8-3.5-2.4-4.3-4.5c-1.3-3.3-1-6.6,1.4-9.4c1-1.2,2.4-2,3.7-2.8c1.7-1,3.3-1.9,4.8-3.2c3-2.5,4.5-5.9,5.6-9.6
		c0.2-0.5,0.1-0.7-0.5-0.7c-0.3,0-0.6-0.1-0.9-0.2c-1.5-0.4-2.7-0.3-4.2,0.4c-4.4,2.2-9.3,1.3-11.8-3.3c-1.9-3.6-1.4-7.7,2.2-11.1
		C84.3,161.3,84.9,160.8,85.5,160.3z M135.6,168.7c1.5,1.1,2.8,2.4,4.4,3.2c2.5,1.2,5.2-0.4,5.4-3.1c0.1-1.6-0.7-2.8-2-3.7
		c-4.4-3.2-8-7.1-10.9-11.6c-2-3.1-3.5-6.4-5-9.8c-0.7-1.7-2-2.3-3.7-2c-2,0.4-3.1,1.4-3.3,3.2c-0.1,1,0.2,2,0.6,2.9
		c2.1,5.3,5,10.1,8.6,14.6c0.2,0.3,0.6,0.5,0.5,1c-9.8,0-19.7,0-29.6,0c1.1-1.5,2.2-2.8,3.2-4.2c1-1.4,2-2.8,2.8-4.3
		c1.6-2.8,3.3-5.6,4.2-8.7c0.5-1.9,0-3-1.5-3.8c-1.9-1-3.5-0.8-4.8,0.7c-0.5,0.5-0.8,1.2-1.1,1.9c-3.2,7.4-7.9,13.7-14,18.8
		c-1.1,0.9-2.3,1.7-3.1,2.8c-1.7,2.3-0.5,5.5,2.3,5.9c1.3,0.2,2.4-0.4,3.4-1.1c1.1-0.8,2.1-1.6,3.1-2.4c0.7,1.6,2,2.1,3.6,2.2
		c1.7,0.1,3.4,0.1,5.2,0c0.9,0,1.1,0.3,0.9,1.1c-0.3,1.4-0.5,2.8-0.7,4.3c-1.1,5.8-3.5,10.8-8.3,14.5c-1.9,1.4-3.9,2.5-5.9,3.7
		c-2.2,1.3-2.7,3.4-1.6,5.4c1,1.9,3,2.5,5.3,1.4c6.5-3.2,11.9-7.6,15-14.4c2.2-4.8,3.2-9.8,3.9-15c0.1-0.6,0.1-1,0.9-1
		c4.5,0,9,0,13.4,0c0.6,0,0.8,0.2,0.8,0.8c-0.3,6.5-0.7,13-1,19.5c-0.1,1.1-0.6,1.6-1.7,1.8c-2.7,0.3-5.3-0.3-7.9-1.1
		c-1.3-0.4-2.5-1-3.9-1.2c-1.7-0.2-2.9,0.4-3.6,2c-1.1,2.4-0.5,4.2,2.1,5.3c4.9,2,9.9,3.1,15.2,2.6c3.9-0.4,5.9-2.3,6.8-6.1
		c0.5-2.2,0.5-4.4,0.6-6.6c0.3-6.2,0.5-12.5,0.8-18.7C135.4,169,135.4,168.8,135.6,168.7z M175.7,169.2c0-0.6,0-1.1,0-1.7
		c0.2,0.1,0.4,0.2,0.5,0.3c2.1,1.4,3.6,1.2,5.2-0.7c0.6-0.7,1.2-1.5,1.6-2.3c0.7-1.2,1.3-2.4,2-3.7c1.4,3.1,3.2,3.7,6.1,2
		c0.3-0.2,0.6-0.4,0.9-0.5c4.7-3,9-6.4,12.8-10.6c1.2-1.4,2.4-2.8,3.3-4.4c1.1-2,0.4-4-1.7-5c-1.7-0.8-3.4-0.3-4.8,1.5
		c-3.8,5.2-8.7,9.3-14.3,12.5c-0.2,0.1-0.5,0.5-0.8,0.3c0.5-1.3,1.2-2.6,1.1-4c-0.1-1.4,0-2.5,0.6-3.8c1.1-2.7-0.5-5.6-4.4-4.9
		c-2.3,0.4-4.6,1-6.9,1.3c-6.5,1-13.1,1.4-19.7,1.5c-0.5,0-1,0.1-1.5,0.2c-2.6,0.6-3.6,3.9-1.9,6c0.5,0.6,1.8,0.7,1.9,1.2
		c0.1,0.7-0.3,1.6,0,2.5c1,3.1,1.7,6.3,2.5,9.5c0.3,1.2,1,2.1,2.2,2.5c3.1,0.9,5.5-1.3,4.8-4.6c-0.7-3.4-1.5-6.7-2.7-9.9
		c1-0.1,1.9-0.1,2.8-0.2c0.9-0.1,1.7-0.2,1.5,1.2c-0.1,0.4,0.1,0.9,0.3,1.3c0.9,2.8,1.2,5.7,1.8,8.5c0.1,0.3,0,0.6-0.1,0.9
		c-0.3,0.7-0.5,1.5-0.4,2.2c0.1,0.9-0.2,1.2-1.2,1.2c-3.7-0.1-7.4,0-11,0c-0.5,0-1,0-1.4,0.1c-1.9,0.4-2.9,1.8-2.8,3.9
		c0.1,2,1.3,3.3,3.2,3.4c1.3,0.1,2.6,0,4,0c1.8,0,3.6,0,5.6,0c-2.6,4-5.4,7.5-8.9,10.4c-1.3,1.1-2.7,2-3.6,3.5
		c-1,1.7-0.6,3.7,1.1,4.9c1.7,1.2,3.4,1,5.5-0.8c2.5-2,4.8-4.3,6.8-6.7c0.9-1,1.7-2.1,2.6-3.3c0,4.7,0,9.2,0,13.7
		c0,1.3,0.2,2.6,1.5,3.4c2.5,1.6,5.5,0.2,5.9-2.8c0.1-0.5,0.1-1,0.1-1.4c0-3.8,0-7.6,0-11.4c0-0.4-0.1-0.8,0.1-1.1
		c0.1,0,0.2,0,0.2,0.1c1.2,1.7,2.4,3.3,3.5,5c1.4,2,3.3,2.5,5.2,1.3c2.1-1.3,2.6-3.4,1.3-5.5c-0.7-1.1-1.5-2.2-2.4-3.3
		c-1.5-1.9-3.1-3.8-4.7-5.8c2,0,3.8,0,5.6,0c0,0.2,0,0.5,0,0.7c0.1,3,2.4,4.5,5.2,3.4c0.6-0.2,1.2-0.6,1.8-0.9
		c5.2-3.1,9.9-6.8,13.9-11.3c1.4-1.5,2.8-3.1,3.8-4.9c1.1-2,0.8-3.8-0.8-5c-1.9-1.4-3.9-1.1-5.7,1.3c-2,2.7-4.3,5.1-6.8,7.4
		c-2,1.9-4.3,3.6-6.7,5c-0.6-2.4-1.6-3.2-4.1-3.2C182,169.2,178.9,169.2,175.7,169.2z M182.6,201.7c0.9,0,1.9-0.4,2.9-0.7
		c5.8-2.1,11.1-5.3,15.7-9.4c3.6-3.3,6.9-6.9,9.6-11c1.5-2.2,1.2-4.1-0.7-5.5c-1.9-1.4-3.7-1.1-5.4,1c-0.1,0.2-0.2,0.3-0.4,0.5
		c-5.4,8-12.7,13.7-21.6,17.3c-1,0.4-2,0.8-2.7,1.7c-1.1,1.3-1.1,2.7-0.5,4.1C180.1,201.1,181.1,201.7,182.6,201.7z M122.2,182
		C122.2,182,122.2,182,122.2,182c0.1-1.7,0.1-3.4,0.2-5.1c0-0.5,0-0.9-0.6-0.9c-1.4,0-2.9,0-4.3,0c-0.4,0-0.5,0.2-0.6,0.5
		c-0.6,3-1.3,6-2.2,8.9c-0.1,0.3-0.2,0.5,0.3,0.6c2.1,0.4,4,1.3,6,1.9c0.7,0.2,1,0.1,1-0.8C122,185.4,122.1,183.7,122.2,182z
		 M110.6,158.3c3.4,0,6.8,0,10.2,0c-2-3.6-4-7.1-5-11.4C114.8,151.2,112.6,154.7,110.6,158.3z"/>
	<path class="st1" d="M170.9,131c-7.2,1.8-13.7-1-20.1-3.6c-3.3-1.4-5.5-4-5.8-8.1c-1.4,1.3-2.6,2.4-3.9,3.6c-1,0.9-2,1.8-3,2.7
		c-2.2,2-4.9,3.3-7.8,3.4c-3.1,0.1-5.9-1.1-8-3.6c-4.1-5-2.8-11.7,1.8-15.4c4.8-4,9.4-8.2,13.3-13.1c0.5-0.7,0.7-0.9-0.3-1.2
		c-3.3-1.2-5.6-3.5-6.5-6.9c-0.7-2.6-1-5.2-1-7.9c0.1-4.1,0-8.2,0-12.4c0.1-2.5,0.8-4.9,1.4-7.3c-2.5-0.5-4.9-0.8-7.1-2.3
		c-2.7-1.9-4.4-7.1-3.7-9.9c0.7-3,1.9-5.5,4.6-7.1c2-1.2,4.2-1.6,6.4-1.6c8.2-0.1,16.5,0,24.7,0c1,0,1.4-0.2,1.6-1.3
		c0.8-5.2,5.2-8,9.9-8.1c3.8-0.1,6.9,1.7,9.2,4.8c0.9,1.2,1.8,2.5,2.5,3.8c0.3,0.7,0.8,0.9,1.5,0.9c9.4,0,18.7-0.1,28.1,0
		c2.8,0,5.5,0.6,7.7,2.5c1.4,1.2,2.3,2.6,2.9,4.3c0.9,2.6,0.8,5.2-0.2,7.7c-1,2.7-3.1,4.5-5.8,5.5c-1.3,0.4-2.6,0.6-4,0.9
		c0.4,1.6,0.8,3.2,1.2,4.7c0.1,0.6,0.2,1.2,0.2,1.8c0,5.5,0.2,11-0.1,16.5c-0.1,2.8-0.7,5.7-2.6,8.1c-1.4,1.7-3.2,2.9-5.3,3.7
		c2.2,2.5,4.3,4.9,6.4,7.4c3.1,3.8,6.4,7.4,9,11.6c0.3,1.4,0.8,2.8,1,4.2c0.3,1.7-0.2,3.5-1,5c-1.3,2.7-3.3,4.8-6.3,5.6
		c-2.7,1.1-5.3,0.3-7.9-0.6c-1.4-1.1-3.1-2-4.1-3.6c-4.2-6.2-9.1-11.7-14.2-17.1c-1.2-1.3-2.5-2.3-3.8-3.5c0,1.9,0,3.8,0,5.8
		c0,3.5,0.1,7-0.9,10.5c-0.8,3.1-2.4,5.6-5,7.5C174.4,129.8,172.7,130.5,170.9,131z M170.3,60.2c-8.4,0-16.7,0-25.1,0
		c-1.6,0-3.2,0.1-4.8,0.5c-2.9,0.7-4.3,2.2-4.8,5.1c-0.3,1.6-0.3,3.3-0.3,4.9c0,4.4-0.1,8.9,0.1,13.3c0.1,4.6,2.1,6.6,6.7,7
		c1.4,0.1,2.9,0.2,4.3,0.2c6.4,0,12.7,0,19.1,0c1,0,1.2,0.3,1.2,1.2c0,7.2,0,14.3,0,21.5c0,0.6,0,1.3,0,1.9c0,0.7-0.4,1-1.1,0.9
		c-1.1-0.1-2.1-0.5-3.1-0.9c-2-0.7-4-1.7-6.1-2.2c-2.5-0.6-4.5,0.4-5.3,2.5c-1.1,2.9-0.5,4.8,2.1,6c4.1,1.9,8.4,3.5,13,3.8
		c4.1,0.3,7.9-2,9.2-5.5c0.6-1.8,0.8-3.6,0.8-5.4c0-7.6,0-15.1,0-22.7c0-0.9,0.2-1.1,1.1-1.1c3.8,0.1,7.6,0,11.4,0
		c3.3,0,6.6,0.1,9.8-0.2c4-0.4,6.2-2.1,6.4-5.9c0.4-6.3,0.5-12.6-0.1-18.9c-0.4-3.5-2.2-5.1-5.7-5.6c-1.3-0.2-2.6-0.3-3.9-0.3
		C186.8,60.2,178.5,60.2,170.3,60.2z M165.2,45.9c-9.2,0-18.3,0-27.4,0c-2.4,0-4.9-0.1-7.3,0c-3,0.1-4.8,1.9-4.8,4.7
		c0,2.7,1.9,4.5,4.9,4.6c0.4,0,0.8,0,1.2,0c25.4,0,50.9,0,76.3,0c0.5,0,1,0,1.6,0c2.7-0.2,4.5-1.9,4.6-4.5c0.1-2.5-1.4-4.3-4.1-4.8
		c-0.5-0.1-1.1-0.1-1.7-0.1c-9.7,0-19.4-0.1-29,0.1c-2.5,0-4-0.5-5-3c-0.9-2.3-2.2-4.4-4.4-5.8c-1.7-1.1-3.8-1-5.5,0.4
		c-1.5,1.1-1.9,2.7-1.4,4.7C163.5,43.6,164.5,44.5,165.2,45.9z M189.5,92.4c-1.5,0-3.1,1-4.1,2.8c-0.8,1.5-0.8,3,0.1,4.4
		c0.8,1.2,1.8,2.1,2.8,3.1c5.6,5.8,11,11.8,15.6,18.5c0.7,1.1,1.6,2,2.8,2.6c1.7,0.9,3.4,0.9,4.9-0.3c1.5-1.2,2.3-2.7,1.9-4.7
		c-0.3-1.5-1.1-2.7-2.1-3.9c-2.4-2.9-4.7-5.9-7.1-8.7c-3.4-4-7-8-10.7-11.8C192.4,93.3,191.2,92.5,189.5,92.4z M155.1,96.7
		c0-1.8-0.9-2.9-2.4-3.7c-1.6-0.8-3.2-0.9-4.7,0.2c-1.1,0.8-1.9,1.9-2.7,3c-4.6,6.2-9.8,11.8-15.7,16.7c-1.2,1-2.5,1.9-3.3,3.3
		c-1.7,2.9-0.2,6.5,3.1,7.1c1.8,0.3,3.4-0.6,4.7-1.7c7.1-6.2,13.8-12.9,19.4-20.5C154.3,99.8,155.1,98.3,155.1,96.7z M160.7,108.9
		c0-3.6,0-7.2,0-10.7c-0.4,3.9-3.1,6.5-5.2,9.4C157.3,108.1,159,108.5,160.7,108.9z"/>
	<path class="st1" d="M90.2,77.5c0,6.2,0,12.4,0,18.6c0,3.7,0.1,7.4,0,11.2c0,1.2,0.4,1.4,1.4,1.4c2,0,4-0.1,6-0.2
		c0.7,0,0.9-0.3,0.9-0.9c0.2-3,0-5.9,0.1-8.9c0.1-3.9,1.3-7.3,4.8-9.3c2.3-1.3,4.7-1.9,7.4-1.5c3.1,0.5,5.4,2,7.1,4.7
		c1,1.5,1.4,3.3,1.5,5c0.2,4.6,0.5,9.3-0.4,13.9c-0.7,3.5-1.5,6.8-3.8,9.7c-2.6,3.4-5.9,5.7-10.1,6.8c-6.3,1.7-12.7,2.2-19.1,1.1
		c-3.5-0.6-7-1.5-10-3.8c-3.1-2.4-5.2-5.4-6-9.2c0-0.2-0.1-0.5-0.2-0.7c-0.3-1.8-0.8-3.5-0.8-5.3c0-0.4,0-0.7,0-1.1
		c0-7.3,0-14.5,0-21.8c0-9.6,0-19.2,0-28.8c0-5.6,0-11.3,0-16.9c0.5-2.1,0.7-4.3,2.2-6c1.3-1.4,2.7-2.5,4.6-3.1
		c2.4-0.7,4.8-0.9,7.3-0.1c3.3,1,5.5,3.1,6.4,6.4c0.6,2.3,0.7,4.6,0.7,6.9c0,1.6,0,3.3,0,4.9c0.4,0.1,0.7-0.1,1-0.3
		c2.8-1.5,5.6-2.8,8.4-4.4c2.1-1.2,4.3-2.1,6.6-2.4c3-0.4,5.7,0.5,7.9,2.6c2.2,2.1,3.3,4.8,3.3,7.7c0,3.2-1.3,6.1-4,8.1
		c-3.7,2.8-7.8,4.6-11.9,6.7c-3.3,1.7-6.8,3.2-10.3,4.6c-0.8,0.3-1.1,0.7-1,1.6C90.3,75.7,90.2,76.6,90.2,77.5z M74.8,76.5
		c0,6,0,11.9,0,17.9c0,5.5-0.1,11,0.1,16.6c0.2,6.7,3.5,10.8,10.1,12.2c6,1.3,12.1,1,18.1-0.4c4.9-1.2,8.2-4.2,9.7-9
		c1.7-5.4,1.1-10.9,1-16.4c-0.1-1.7-1.2-3.1-2.9-3.6c-3.4-1-6.3,1.2-6.4,4.7c-0.1,3.4,0.1,6.7-0.2,10.1c-0.3,3.4-2.1,5.3-5.4,5.7
		c-3.6,0.4-7.3,0.4-10.9,0.1c-1.9-0.2-2.8-1.1-3.2-3c-0.2-1-0.2-2-0.2-3c0-12.5,0-25,0-37.4c0-0.8,0.2-1.2,1-1.5
		c6.2-2.3,12.2-5.1,18-8.2c2.2-1.2,4.6-2.2,6.6-3.9c1.8-1.7,2.1-3.7,0.9-5.7c-1.2-2.1-2.9-2.8-5.4-2.1c-0.7,0.2-1.3,0.5-1.9,0.8
		c-5.8,3.2-11.7,6.3-17.8,8.9c-1.4,0.6-1.4,0.6-1.4-0.8c0-5.2,0-10.5,0-15.7c0-1.8-0.3-3.4-2.1-4.4c-3.5-2-7.5,0.2-7.5,4.3
		C74.8,53.8,74.8,65.1,74.8,76.5z"/>
	<path class="st1" d="M67.7,120.7c-0.6,2.2-0.7,4.5-2.3,6.3c-1.4,1.6-3,2.7-5.1,3.4c-2.7,0.9-5.2,0.4-7.7-0.4
		c-1.3-0.4-2.4-1.4-3.4-2.4c-3-3.9-2.5-8.5-2.5-13.1c-2.5,0.8-5,1.6-7.4,2.4c-1.9,0.7-3.9,1.3-5.9,1.4c-4.4,0.2-8.1-1.2-9.9-5.3
		c-2.6-6.1-0.7-11.8,5.7-14.4c3.6-1.5,7.4-2.4,11.1-3.6c0.6-0.2,1.3-0.5,1.9-0.7c1.3-0.4,2.6-0.8,3.9-1.2c0.6-0.2,0.6-0.6,0.6-1
		c0-6.5,0-13,0-19.5c0-0.7-0.3-0.9-0.9-0.9c-2.7,0-5.4,0-8.1,0.1c-2.6,0-5.2-0.1-7.7-0.9c-2.8-0.9-4.6-2.8-5.7-5.4
		c-1.2-2.7-1.2-5.7,0-8.4c1.1-2.6,3-4.5,5.8-5.5c3-1,6.1-0.7,9.1-0.7c2.2,0,4.3,0,6.5,0c0.8,0,1-0.2,1-1c-0.1-1.8,0.1-3.7,0-5.5
		c-0.1-2.2,0.2-4.4,0.9-6.5c0.9-2.7,2.8-4.5,5.5-5.4c2.5-0.8,5.1-0.9,7.6-0.1c3.1,1,5.3,3.1,6.2,6.2c0.3,1.2,0.7,2.4,0.8,3.6
		c0,0.4-0.1,0.8,0,1.2c0,14.1,0,28.1,0,42.2C67.7,97.4,67.7,109,67.7,120.7z M52.5,106.6c0,2.2,0,4.3,0,6.3c0,2.6-0.1,5.2,0.1,7.8
		c0.1,2.9,1.6,4.4,4.4,4.5c2.6,0.1,4.5-1.4,4.9-4.1c0.1-0.8,0.1-1.6,0.1-2.4c0-25,0-50,0-75c0-0.7,0-1.4-0.1-2
		c-0.2-1.7-0.9-3.2-2.6-3.9c-3.7-1.5-6.7,0.4-6.8,4.4c0,0.4,0,0.7,0,1.1c0,4.1,0,8.2,0,12.2c0,0.9-0.2,1.1-1.1,1
		c-3.8,0-7.7,0-11.5,0c-2.2,0-4.3,0-6.5,0c-2.1,0.1-3.7,1.5-4.1,3.4c-0.5,2.2,0.3,4.3,2.1,5.3c1,0.6,2.1,0.7,3.2,0.7
		c5.6,0,11.2,0,16.8,0c0.8,0,1.1,0.2,1.1,1.1c0,9.7,0,19.4,0,29c0,0.7-0.2,1-0.9,1.3c-4.5,1.6-9.2,3-13.7,4.5
		c-2.5,0.8-5,1.3-7.3,2.6c-2.3,1.3-3,3.2-2,5.8c0.7,2,2.6,2.9,5,2.5c3-0.5,5.8-1.7,8.7-2.6C45.6,108.9,49,107.8,52.5,106.6z"/>
	<path class="st1" d="M39.9,146.7c0.5-1.1,0.6-2.4,1.2-3.5c1.6-2.7,4.1-3.7,7-3.7c6.5-0.1,13-0.2,19.4,0c5.6,0.1,8,4.7,7.2,9.5
		c-0.3,2.2-1.3,4-3.2,5.2c-1.4,0.8-2.9,1.1-4.5,1.1c-3.9,0-7.8,0-11.6,0c-0.8,0-1.2,0.2-1.2,1c-0.1,0.9-0.6,1.9-0.3,2.6
		c0.4,0.7,1.6,0.2,2.4,0.3c4.9,0.6,9.5,1.9,13.3,5.3c1,0.9,1.7,1.9,2.6,2.8c5.5,8.4,5.9,17.2,1.2,26c-3.4,6.5-9.1,10.1-16.3,11.3
		c-8.1,1.3-17-1.8-21.9-9.1c-1.7-2.6-1.5-5.5-0.2-8.2c1.3-2.8,3.8-4.1,6.8-4.2c2.2,0,4.1,0.9,5.6,2.6c1.6,1.8,3.5,3.1,6,3.3
		c1.7,0.1,3.1-0.6,4.3-1.7c2.7-2.5,3.3-6.8,1.6-10c-0.7-1.3-1.8-2.1-3.2-2.2c-2-0.2-4.1-0.2-6,0.5c-1.2,0.5-2.5,0.8-3.8,1.1
		c-5.1,0.9-9.6-1.8-9.9-7.6c-0.1-2.3,0.6-4.7,1-7C38.2,156.9,39,151.8,39.9,146.7z M57.7,144.5C57.7,144.5,57.7,144.5,57.7,144.5
		c-3.2,0-6.3,0-9.5,0c-1.9,0-2.7,0.6-3.2,2.4c-0.1,0.5-0.3,0.9-0.3,1.4c-0.7,4.2-1.4,8.5-2.1,12.8c-0.4,2.3-0.7,4.6-1.1,6.9
		c-0.4,2.5,0.9,4,3.5,3.9c0.9,0,1.7-0.3,2.6-0.6c2.6-1,5.2-1.4,8-1.3c4.4,0.2,7.7,2.5,9.1,6.6c1.5,4.3,1,8.6-1.6,12.4
		c-2.5,3.6-5.9,5.5-10.3,5c-3.5-0.4-6.4-2-8.8-4.7c-0.7-0.8-1.4-1.4-2.6-1.1c-1.1,0.3-1.7,1.1-2,2.1c-0.4,1.3,0,2.4,0.9,3.4
		c3.1,3.5,6.9,5.7,11.7,6.1c6.6,0.5,12-1.7,16.1-7c3.4-4.4,4.4-9.6,3.5-15c-1.1-6.6-4.8-11.2-11.5-13c-3.6-1-7.2-0.7-10.8-0.1
		c-1.2,0.2-1.3,0.2-1.1-1.1c0.7-4,1.4-8.1,2.1-12.2c0.1-0.9,0.5-1.2,1.4-1.2c5.3,0.1,10.6,0,15.8,0c1.9,0,2.7-0.8,2.7-2.9
		c0-2.1-0.7-2.9-2.7-3C64,144.5,60.8,144.5,57.7,144.5z"/>
	<path class="st2" d="M122.9,205.7c2.3,0.2,4.6-0.1,6.9-0.7c4.8-1.1,7.5-4.2,8.7-8.8c0.9-3.5,1-7,1.2-10.6c0.1-2.5,0.2-5,0.3-7.5
		c0-0.7,0.1-1,1-0.8c1.8,0.3,3.5-0.3,5-1.1c0.4-0.2,0.6-0.6,1.1-0.6c1,3.5,3.3,5.5,7.1,6c-1.1,1.3-2.3,2.3-3.5,3.2
		c-2.3,1.9-3.9,4.3-4.1,7.3c-0.2,2.7,0.8,5.1,2.9,7c1.6,1.4,3.5,2.1,5.5,2.2c1.7,0.1,3.5-0.4,5-1.3c1-0.6,1.9-1.4,3-2.2
		c0.3,3,0.8,6,3.5,7.9c-0.7,0.3-0.7,1.1-1,1.7c-3.6,7.6-9.5,12.1-17.9,13.2c-7.5,1-13.9-1.4-19.2-6.8c-1.8-1.9-3.3-4-4.3-6.4
		C123.9,206.7,123.7,206,122.9,205.7z"/>
	<path class="st3" d="M218.2,115c-2.6-4.2-5.8-7.9-9-11.6c-2.1-2.5-4.3-4.9-6.4-7.4c2.1-0.8,3.9-2,5.3-3.7c1.9-2.4,2.5-5.2,2.6-8.1
		c0.2-5.5,0.1-11,0.1-16.5c0-0.6-0.1-1.2-0.2-1.8c6.7,6,10.9,13.4,12.5,22.2C224.7,97.6,223.2,106.6,218.2,115z"/>
	<path class="st4" d="M37.7,71.8c2.7,0,5.4,0,8.1-0.1c0.7,0,0.9,0.2,0.9,0.9c0,6.5,0,13,0,19.5c0,0.5,0,0.9-0.6,1
		c-1.3,0.4-2.6,0.8-3.9,1.2c-2.3-2.8-4.2-5.9-5.1-9.5C36,80.4,36.3,76.1,37.7,71.8z"/>
	<path class="st5" d="M67.7,120.7c0-11.7,0-23.3,0-35c0-14.1,0-28.1,0-42.2c0-0.4,0-0.8,0-1.2c0.3,0.4,0.2,0.9,0.2,1.3
		c0,4.7,0,9.3,0,14c0,0.3,0,0.6,0,0.8c0,0.5,0.3,0.8,0.7,0.8c0.5,0,0.3-0.5,0.3-0.8c0-5.2,0-10.4,0-15.6c0-0.4-0.1-0.9,0.2-1.3
		c0,5.6,0,11.3,0,16.9c0,9.6,0,19.2,0,28.8c0,7.3,0,14.5,0,21.8c0,0.4,0,0.7,0,1.1c-0.3-0.4-0.2-0.9-0.2-1.4c0-2.9,0-5.7,0-8.6
		c0-0.3,0.2-0.8-0.3-0.9c-0.5,0-0.7,0.3-0.7,0.9c0,5.4,0.1,10.8,0.1,16.3C67.8,117.8,68.2,119.3,67.7,120.7z"/>
	<path class="st3" d="M170.9,131c1.8-0.5,3.6-1.2,5.2-2.4c2.6-1.9,4.1-4.4,5-7.5c0.9-3.5,0.8-7,0.9-10.5c0-2,0-3.9,0-5.8
		c1.3,1.2,2.6,2.3,3.8,3.5c5.1,5.4,10,11,14.2,17.1c1.1,1.6,2.7,2.5,4.1,3.6c-2.4,1-4.7,2.2-7.2,3c-4.6,1.4-9.3,2.1-14,1.8
		c-4-0.3-7.9-1-11.6-2.6C171.1,131.2,171,131.1,170.9,131z"/>
	<path class="st6" d="M68,116.4c0-5.4,0-10.8-0.1-16.3c0-0.5,0.2-0.9,0.7-0.9c0.5,0,0.3,0.6,0.3,0.9c0,2.9,0,5.7,0,8.6
		c0,0.5-0.1,1,0.2,1.4c0,1.8,0.5,3.5,0.8,5.3C69.3,116,68.6,116,68,116.4z"/>
	<path class="st0" d="M122.2,182c-0.1,1.7-0.2,3.4-0.2,5.1c0,0.8-0.4,1-1,0.8c-2-0.5-4-1.5-6-1.9c-0.4-0.1-0.4-0.3-0.3-0.6
		c0.9-2.9,1.6-5.9,2.2-8.9c0.1-0.4,0.2-0.5,0.6-0.5c1.4,0,2.9,0,4.3,0c0.7,0,0.7,0.4,0.6,0.9C122.3,178.5,122.2,180.2,122.2,182
		C122.2,182,122.2,182,122.2,182z"/>
	<path class="st0" d="M110.6,158.3c2-3.6,4.2-7,5.2-11.4c1,4.3,3,7.8,5,11.4C117.3,158.3,114,158.3,110.6,158.3z"/>
	<path class="st7" d="M175.7,169.2c-0.4-0.6-0.2-1.2-0.2-1.8c0,0,0.1,0,0.1,0c0,0,0,0.1,0.1,0.1
		C175.7,168.1,175.7,168.6,175.7,169.2z"/>
	<path class="st8" d="M135.3,169.2c-0.2-0.3-0.3-0.6-0.1-0.8c0.1-0.1,0.3,0.1,0.4,0.3C135.4,168.8,135.4,169,135.3,169.2z"/>
	<path class="st9" d="M160.7,108.9c-1.7-0.4-3.4-0.8-5.2-1.3c2.2-2.9,4.8-5.6,5.2-9.4C160.7,101.8,160.7,105.3,160.7,108.9z"/>
	<path class="st10" d="M57.7,144.5c3.2,0,6.3,0,9.5,0c2,0,2.7,0.8,2.7,3c0,2-0.7,2.9-2.7,2.9c-5.3,0-10.6,0-15.8,0
		c-1,0-1.3,0.3-1.4,1.2c-0.7,4.1-1.4,8.1-2.1,12.2c-0.2,1.2-0.2,1.3,1.1,1.1c3.6-0.6,7.2-0.9,10.8,0.1c6.7,1.8,10.3,6.4,11.5,13
		c0.9,5.4,0,10.6-3.5,15c-4,5.2-9.4,7.5-16.1,7c-4.8-0.4-8.6-2.6-11.7-6.1c-0.9-1-1.3-2.1-0.9-3.4c0.3-1.1,0.9-1.8,2-2.1
		c1.2-0.3,1.9,0.3,2.6,1.1c2.3,2.7,5.3,4.3,8.8,4.7c4.4,0.5,7.9-1.5,10.3-5c2.6-3.8,3.1-8,1.6-12.4c-1.4-4.1-4.7-6.4-9.1-6.6
		c-2.8-0.1-5.4,0.3-8,1.3c-0.8,0.3-1.7,0.6-2.6,0.6c-2.5,0.1-3.9-1.5-3.5-3.9c0.4-2.3,0.8-4.6,1.1-6.9c0.7-4.3,1.4-8.5,2.1-12.8
		c0.1-0.5,0.2-0.9,0.3-1.4c0.6-1.8,1.3-2.4,3.2-2.4C51.4,144.4,54.5,144.5,57.7,144.5C57.7,144.5,57.7,144.5,57.7,144.5z"/>
	<path class="st1" d="M173.6,153.2c2.2-0.3,4.3-0.6,6.7-0.9c-1.1,3.5-2.2,6.9-4.5,9.9C175.2,159.1,174.6,156.2,173.6,153.2z"/>
	<path class="st1" d="M169.9,81.9c-8,0-16,0-24,0c-1.2,0-1.4-0.3-1.4-1.5c0.1-3.3,0.1-6.6,0-10c0-0.9,0.3-1.1,1.1-1.1
		c16.3,0,32.6,0,48.8,0c0.9,0,1.1,0.3,1.1,1.2c-0.1,3.4-0.1,6.8,0,10.2c0,0.9-0.3,1.1-1.2,1.1C186.2,81.9,178.1,81.9,169.9,81.9z
		 M151.6,76.1c0.1,0,0.2,0,0.4,0.1c12.3,0,24.6,0,36.9,0c0.4,0,0.9,0.2,0.9-0.5c0-0.7-0.6-0.4-0.9-0.4c-5.6,0-11.2,0-16.8,0
		c-6.9,0-13.9,0-20.8,0c-0.6,0-1.3-0.1-0.9,0.9C150.8,76.1,151.2,76.1,151.6,76.1z"/>
	<path class="st11" d="M150.4,76.1c-0.5-1,0.3-0.9,0.9-0.9c6.9,0,13.9,0,20.8,0c5.6,0,11.2,0,16.8,0c0.3,0,0.9-0.2,0.9,0.4
		c0,0.7-0.5,0.5-0.9,0.5c-12.3,0-24.6,0-36.9,0c-0.1,0-0.2,0-0.4-0.1c0-0.2,0.4-0.6-0.1-0.7C151,75.3,150.4,75.2,150.4,76.1z"/>
	<path class="st12" d="M150.4,76.1c0-0.8,0.6-0.8,1.1-0.7c0.6,0.1,0.1,0.5,0.1,0.7C151.2,76.1,150.8,76.1,150.4,76.1z"/>
</g>
</svg>
