<svg id="圖層_1" data-name="圖層 1" xmlns="http://www.w3.org/2000/svg" viewBox="0 0 210.97 187.19"><defs><style>.cls-1{fill:#9360c3;}.cls-2{fill:#f6ea9a;}.cls-3{fill:#f3c352;}.cls-4{fill:#bb4dbc;}.cls-5{fill:#fee13f;}.cls-6{fill:#cd6ca2;}.cls-7{fill:#e3b5cf;}.cls-8{fill:#fefefe;}.cls-9{fill:#faf4fa;}.cls-10{fill:#c976c9;}.cls-11{fill:#e4b8d1;}</style></defs><title>36</title><path class="cls-1" d="M57.57,62.88c0-7.24,0-14.47.06-21.71,0-2.54.76-4.81,3.16-6.19,3.33-1.91,8-1.17,9.9,2a8.24,8.24,0,0,1,1,4.14c0,3.24,0,6.48,0,9.71v1.35c1.15-.55,2.17-1,3.15-1.5,3.3-1.71,6.6-3.4,9.87-5.17A12,12,0,0,1,89,44.22a2.1,2.1,0,0,0,1.5-.73C92,41.72,94,41.29,96.2,41.28c8.15,0,16.31,0,24.46,0H122A6.49,6.49,0,0,1,124.82,34a7.1,7.1,0,0,1,7.59-.06c2.38,1.56,3.73,3.92,5,6.34a1.57,1.57,0,0,0,1.65,1q13.18,0,26.38,0a7.16,7.16,0,0,1,5.9,2.42c2.87,3.52,1.87,10.4-4.56,11.25a23.34,23.34,0,0,1-2.51.18c-1.18,0-2.36,0-3.91,0a12.27,12.27,0,0,1,2.8,2.5,2.19,2.19,0,0,1,1,1.45A17.14,17.14,0,0,1,165,64c0,4.44,0,8.87,0,13.31a13.28,13.28,0,0,1-.18,2.27,8,8,0,0,1-7,7.21c-.27.05-.54.13-.82.17-.69.1-.67.41-.28.86,1.1,1.26,2.27,2.47,3.38,3.73,3.73,4.22,7.42,8.49,10.74,13,2.2,3,2.29,6.25.41,9.06a7.07,7.07,0,0,1-9.53,2.17,10.89,10.89,0,0,1-3.51-3.38A114,114,0,0,0,148,100.07a78,78,0,0,1-5.44-5.91,6.68,6.68,0,0,1-1.41-6c.12-.43.23-.94-.45-1s-1.27-.2-1.41.69a7.79,7.79,0,0,0,0,1.08c0,5.88,0,11.76,0,17.64a13,13,0,0,1-1.7,6.42,10.08,10.08,0,0,1-5.89,4.43c-3.71,1.27-7.26.44-10.83-.59-.65-.19-1.29-.42-1.93-.65a27.88,27.88,0,0,1-4.33-1.72c-3.74-1.88-5-5.06-3.53-9.12,1.2-3.39,4.4-5,8.21-4.23a21.28,21.28,0,0,1,4.33,1.41c.78.34,1.1.11,1.1-.74q0-6.72,0-13.43c0-.87-.36-1.26-1.22-1.19-.2,0-.4,0-.6,0-.68,0-1.45-.23-2,.13-.73.47,0,1.24-.1,1.88a13,13,0,0,1-1.45,4.54,106.77,106.77,0,0,1-15.41,17,44.71,44.71,0,0,1-4,3.42c-3,2.12-5.85,2.18-8.89.09a1.51,1.51,0,0,0-1.65-.14,30,30,0,0,1-9.3,2.11A37,37,0,0,1,70,115.94a16.72,16.72,0,0,1-5.22-1.69A17.36,17.36,0,0,1,61.47,112c-2.56-2.32-3.42-5.42-4-8.66a27.56,27.56,0,0,1-.29-4.54q0-16.92,0-33.84A3.14,3.14,0,0,1,57.57,62.88Z" transform="translate(-16.23 -32.88)"/><path class="cls-2" d="M184.58,182.7c0,2.92,0,5.84,0,8.76,0,.78-.22,1.13-1,1-.2,0-.4,0-.6,0H56.61c-1.86,0-1.64.2-1.65-1.69s0-4.08,0-6.12c.23-.55.78-.5,1.21-.59a18.58,18.58,0,0,0,11-6.51c.33-.39.62-.87,1.25-.82,2.47.09,5-.18,7.42.15.65.44.13.85-.06,1.23a6.08,6.08,0,0,0,.37,6.68A5.46,5.46,0,0,0,81.63,187c2.79-.55,5.08-2.13,7.34-3.7a29.38,29.38,0,0,0,6.09-5.21c.64-.78,1.11-.68,1.26.26.52,3.27,2.87,4.64,5.66,5.5A40.06,40.06,0,0,0,113.5,186c2.9,0,5.77-.25,8.18-2.14a8.37,8.37,0,0,0,3-4.51,31.94,31.94,0,0,0,1-7.09c.25-4.91.46-9.81.69-14.72.06-1.2.35-1.33,1.53-.76,2.91,1.39,5.6.89,7.46-1.38a5.79,5.79,0,0,0-.28-7.68,27.27,27.27,0,0,0-3.29-2.79,42.83,42.83,0,0,1-11.94-16.29c-.2-.48-.61-1,.17-1.44a5.33,5.33,0,0,1,1.54-.14h23.12a5.77,5.77,0,0,1,1.55.12c.48.19.54.44.09.74a10.32,10.32,0,0,1-1.28.66c-5.06,2.53-7.62,6.73-8.21,12.26a8.35,8.35,0,0,0,1.49,6.36,6.05,6.05,0,0,0,10.2-1.91,21.29,21.29,0,0,0,.6-3.54,3.48,3.48,0,0,1,2.54-3.17,4.62,4.62,0,0,1,4.87,1.2,4,4,0,0,1,.63,4.4,6.34,6.34,0,0,1-6,4.25c-3.06.16-5,1.61-5.63,4.15-.79,3,.11,5.66,2.58,7.22a8.51,8.51,0,0,0,4.6,1.16,9.52,9.52,0,0,1,4.17,1c2.44,1.2,3.49,3.6,2.85,6.47a5.33,5.33,0,0,1-5.09,4,8.16,8.16,0,0,1-4-.51,4.9,4.9,0,0,1-2.75-3.55c-.33-1.4-.48-2.85-1.46-4a6.16,6.16,0,0,0-6.19-2.29,5.72,5.72,0,0,0-4.75,4.65c-.79,3.26.15,6.27,1.66,9,3.31,5.94,8.73,8.53,15.37,8.84a22.07,22.07,0,0,0,8.15-1.15,16.29,16.29,0,0,0,11-11.29,17.27,17.27,0,0,0,.18-9.92,14.2,14.2,0,0,0-4.85-7.25c-.34-.28-.7-.53-1.06-.79a.89.89,0,0,1-.18-1.51,18.32,18.32,0,0,0,1.8-2.4c3.2-5.09,3.1-13.22-1.18-18.1a14.84,14.84,0,0,0-5.07-3.74,2.45,2.45,0,0,1-1-.62c-.22-.31.06-.4.27-.52a5.44,5.44,0,0,1,1.66-.14h20.35a4.11,4.11,0,0,1,1.77.2c.45.29.43.74.41,1.19a11.71,11.71,0,0,0-1.77,4.59,7.15,7.15,0,0,0-.09,1.79c0,7.28,0,14.55,0,21.82a2.07,2.07,0,0,1-.08.42,4,4,0,0,1-1.06,1.28c-1.87,1.74-3.46,3.76-5.28,5.56-1,1-1.15,1.76-.51,2.36s1.28.4,2.29-.71,2.38-2.37,3.5-3.61c.21-.23.44-.54.8-.37s.29.46.31.74a9.74,9.74,0,0,1,0,1.08v13.42a5.52,5.52,0,0,0,.12,1.67A15.45,15.45,0,0,0,184.58,182.7Z" transform="translate(-16.23 -32.88)"/><path class="cls-3" d="M146.61,127.45H119.78c-.89-.47-1-1.32-1.07-2.19-.09-2.59,0-5.19,0-7.78a1.8,1.8,0,0,1,.38-1.46c2.75.83,5.5,1.86,8.4,1.78,7.27-.18,11.26-4,11.48-11,.2-6.11,0-12.23.06-18.35,0-.47-.32-1.21.3-1.38a6.59,6.59,0,0,1,2.26,0c.33,0,.14.4.08.59-1.1,3.38.49,5.82,2.71,8.12a128.25,128.25,0,0,1,14.48,17.07,8.59,8.59,0,0,0,6.24,3.82c2.62.35,6-2.12,6.8-4.75a7.88,7.88,0,0,0-1.54-7.41c-3.82-5-7.93-9.83-12.16-14.51L155.51,87c1.17-.27,2.24-.49,3.29-.78a7.07,7.07,0,0,0,5.39-5.5,15.16,15.16,0,0,0,.49-3.67c0-4.32,0-8.64,0-13a14.23,14.23,0,0,0-1.54-6.46q12.48,0,25,0c.65,0,.86.23.8.84,0,.31,0,.64,0,1v67.78a3.59,3.59,0,0,1-2.19.67c-.69-.18-1.47.12-2.11-.38H160.31c-.5.37-1,.15-1.49,0a18.72,18.72,0,0,0-10.72,0A1.5,1.5,0,0,1,146.61,127.45Z" transform="translate(-16.23 -32.88)"/><path class="cls-1" d="M37.86,101.83c-3.54,1.18-6.93,2.35-10.35,3.43-2.23.7-4.47,1.45-6.9.63a5.67,5.67,0,0,1-3.88-3.73c-1.55-4.63.67-7.89,4.67-9.26,4.94-1.7,9.94-3.26,14.93-4.8a1.84,1.84,0,0,0,1.56-2.16c-.08-6.64-.06-13.27,0-19.91,0-1.08-.31-1.33-1.35-1.32-3.83.06-7.67.08-11.51,0-2.44,0-4.79-.46-6.4-2.62a7,7,0,0,1-.75-7.57c1.2-2.58,3.56-3.6,6.28-3.65,4.16-.07,8.32-.05,12.48,0,1,0,1.27-.28,1.25-1.27-.06-3-.09-5.92,0-8.87.07-2.31.73-4.44,2.86-5.75,3.65-2.24,9.81-1,10.71,4.07a17.36,17.36,0,0,1,.37,3q0,33.58,0,67.18c0,2.49-.45,4.9-2.54,6.58a7.23,7.23,0,0,1-7.79.84c-2.6-1.09-3.44-3.47-3.58-6.05s0-5.12,0-7.68C37.85,102.59,37.86,102.28,37.86,101.83Z" transform="translate(-16.23 -32.88)"/><path class="cls-4" d="M68.13,176.93A20,20,0,0,1,55,184.67c-7.05.76-13.07-1.27-17.83-6.65a6.89,6.89,0,0,1,1.24-10.52,5.86,5.86,0,0,1,6.73.26c.64,0,1,.53,1.33.94a9,9,0,0,0,3.86,2.54c2.5.92,5,.08,6.8-2.42a7.79,7.79,0,0,0,.67-8.16,3.79,3.79,0,0,0-3.14-2.32,12,12,0,0,0-5.45.35,9.13,9.13,0,0,1-4,.88c-2.66.05-5.13-.36-6.69-2.84a6.93,6.93,0,0,1-1-5c1-5.74,1.89-11.48,2.88-17.21a12.31,12.31,0,0,1,1.35-4.31c1.39-2.33,3.72-2.68,6.08-3,1.45-.69,3-.24,4.49-.36.89,0,1.77,0,2.66,0,3,0,6.06-.06,9.09,0a7,7,0,0,1,5.73,2.49,7.9,7.9,0,0,1,.6,7.67c-1.09,2.48-3.26,3.42-5.84,3.46-3.44.05-6.88,0-10.31,0-1.55,0-1.6.05-1.87,1.54-.42,2.37-.43,2.4,1.95,2.69a32.14,32.14,0,0,1,5.06.91c6.57,1.9,10.55,6.26,12.36,12.81a22,22,0,0,1-1.28,15.2C69.86,174.85,69.43,176.22,68.13,176.93Z" transform="translate(-16.23 -32.88)"/><path class="cls-4" d="M186.71,127.64l2.17-.47c5,0,9.92-.09,14.87.07,6,.18,11.37,2.06,15.69,6.38A25.07,25.07,0,0,1,226,145.93a38.55,38.55,0,0,1-1.66,24.42c-3.72,8.85-10.68,13.4-20.26,13.72-4.87.16-9.75.05-14.63,0a8.09,8.09,0,0,1-4.85-1.4,6.7,6.7,0,0,1-1.75-4.16c-.15-2.91,0-5.82-.06-8.73,0-2.31-.05-4.62,0-6.94,0-1.36-.79-2.57-.55-4a4.86,4.86,0,0,1,.4-1.72.69.69,0,0,0,0-.2,3,3,0,0,0,.1-1.3c0-7.21,0-14.42,0-21.64a4.07,4.07,0,0,1,.07-1.3,7,7,0,0,1,1.73-4.14A1.91,1.91,0,0,1,186.71,127.64Z" transform="translate(-16.23 -32.88)"/><path class="cls-2" d="M57.57,62.88q0,6.28,0,12.58c0,8.34-.07,16.69,0,25,.05,3.65.7,7.23,3.12,10.22.38.46.78.9,1.17,1.35A11.87,11.87,0,0,1,60,114.49c-1.21,1.33-2.57,2.51-3.7,3.92-.32.41-.64,1-1.33.87q0-20.06,0-40.12V64.43c0-1.55,0-1.55,1.53-1.55Z" transform="translate(-16.23 -32.88)"/><path class="cls-5" d="M45.11,159.57c2.8-.7,5.47-1.95,8.49-1.7,2.48.21,4,1.08,4.81,3.43a8.17,8.17,0,0,1-1.28,8c-2.58,3.22-6.8,3.41-9.92.53-.73-.67-1.41-1.4-2.12-2.11C45.1,165,45.1,162.3,45.11,159.57Z" transform="translate(-16.23 -32.88)"/><path class="cls-6" d="M116.64,206.85a5.52,5.52,0,1,1-5.49-5.49A5.53,5.53,0,0,1,116.64,206.85Z" transform="translate(-16.23 -32.88)"/><path class="cls-6" d="M204.27,103.2a5.52,5.52,0,1,1,5.49-5.49A5.53,5.53,0,0,1,204.27,103.2Z" transform="translate(-16.23 -32.88)"/><path class="cls-6" d="M32.4,127.46A5.52,5.52,0,1,1,27,121.92,5.54,5.54,0,0,1,32.4,127.46Z" transform="translate(-16.23 -32.88)"/><path class="cls-7" d="M218.65,59.27a2.4,2.4,0,0,1-.84,1.65c-3,3.18-6,6.33-9,9.5l-9,9.62c-.85.92-1.63,1.09-2.37.45s-.93-1.43,0-2.47c1.1-1.26,2.26-2.47,3.42-3.69,3.4-3.59,6.83-7.17,10.23-10.77,1.53-1.62,3-3.3,4.56-4.92.49-.52,1.08-1.06,1.88-.7A1.77,1.77,0,0,1,218.65,59.27Z" transform="translate(-16.23 -32.88)"/><path class="cls-7" d="M85,198.71a2.69,2.69,0,0,1-.87,1.45c-3.12,3.32-6.27,6.61-9.39,9.93-2.87,3-5.72,6.13-8.57,9.19-1,1.08-2.07,1.06-2.79-.07-.61-1,.06-1.61.62-2.21,1.76-1.9,3.57-3.76,5.35-5.65q6.31-6.73,12.61-13.46c.53-.56,1.14-1.14,2-.73A1.66,1.66,0,0,1,85,198.71Z" transform="translate(-16.23 -32.88)"/><path class="cls-7" d="M55,119.28c1.82-1.89,3.67-3.77,5.45-5.7a9.8,9.8,0,0,1,1.51-1.51L64.79,114c-1.4,2-3.31,3.57-4.92,5.4s-3.16,3.38-4.74,5.07c-1,.87-1.8,1.92-2.82,2.76H47.76Z" transform="translate(-16.23 -32.88)"/><path class="cls-6" d="M31.2,155.87a3.72,3.72,0,1,1-3.76-3.71A3.76,3.76,0,0,1,31.2,155.87Z" transform="translate(-16.23 -32.88)"/><path class="cls-6" d="M180.24,197.92a3.72,3.72,0,1,1-3.71-3.76A3.77,3.77,0,0,1,180.24,197.92Z" transform="translate(-16.23 -32.88)"/><path class="cls-8" d="M131.1,57.81h21.71a19.56,19.56,0,0,1,3.82.22c2.71.52,4,1.71,4.12,4.48.25,5.44.26,10.88,0,16.31-.13,2.67-2,4.1-5.19,4.19-4.16.11-8.32.08-12.47.1-2.2,0-4.4,0-6.6,0-1,0-1.37.25-1.36,1.33,0,7,0,14.08,0,21.11a17.69,17.69,0,0,1-.13,2.63c-.72,4.85-4.89,6.27-8.85,5.75a36,36,0,0,1-9.57-3c-1.73-.75-2.24-1.74-1.91-3.26.49-2.27,1.89-3.12,4.17-2.4,1.75.54,3.45,1.24,5.18,1.87a12.06,12.06,0,0,0,2.65.71c1.35.16,1.95-.28,2.15-1.61a8,8,0,0,0,.06-1.2c0-6.92,0-13.84,0-20.75,0-1-.26-1.21-1.2-1.2-6.16,0-12.32,0-18.47,0a20.46,20.46,0,0,1-4.42-.29,4.1,4.1,0,0,1-3.55-3.94,52.36,52.36,0,0,1-.19-7.3c0-2.88-.1-5.75.11-8.63.26-3.73,2.11-4.93,5.68-5.07,3.87-.15,7.75-.06,11.63-.07Z" transform="translate(-16.23 -32.88)"/><path class="cls-2" d="M54.94,124.31c2.61-3,5.35-5.9,8.17-8.72.54-.54.76-1.46,1.68-1.61,4.47,2.07,9.22,2.35,14,2.08a27.37,27.37,0,0,0,8.9-1.62c1.74-.71,3-.87,4.73.31,2.39,1.6,5.09.85,7.35-.86a103.65,103.65,0,0,0,10.11-9.33A117,117,0,0,0,119,93.77a1.18,1.18,0,0,1,.4,1c0,1.91,0,3.82,0,5.72a1.25,1.25,0,0,1-.37,1c-3.07-.59-5.79.45-7.18,3s-1.58,5.7.4,8a8.43,8.43,0,0,0,3.36,2.21c1.13.48,2.29.9,3.44,1.34,0,3.2,0,6.39,0,9.59-.61-.06-.83-.59-1.15-1a5.12,5.12,0,0,0-5.27-1.77,5.4,5.4,0,0,0-4.53,3.78c-.73,2.21,0,4.18.84,6.14a54.91,54.91,0,0,0,5.46,10c.29.43.86.91.52,1.47s-1,.33-1.46.33H95.91c-.43-.05-.94.05-1.16-.44s.14-.75.37-1.07a67,67,0,0,0,5.74-10,14.07,14.07,0,0,0,1.34-4.21,4.61,4.61,0,0,0-2-4.8c-3.25-2.15-7.06-1.56-9,2.1-.4.79-.69,1.62-1.09,2.41-.26.53-.51,1.09-1.17,1.28a6.16,6.16,0,0,1-1.54.12H71.54a3.44,3.44,0,0,1-2-.38A6.89,6.89,0,0,0,64,127.23c-3,0-6,0-9,0A2.9,2.9,0,0,1,54.94,124.31Z" transform="translate(-16.23 -32.88)"/><path class="cls-8" d="M67.9,48.93V56.6c0,1.41,0,1.39,1.35.83a176.84,176.84,0,0,0,17-8.37,11,11,0,0,1,1.5-.74,2.83,2.83,0,0,1,3.89,1.3,2.74,2.74,0,0,1-.79,3.92,40.56,40.56,0,0,1-6.75,3.85A133.94,133.94,0,0,1,69,64.15a1.47,1.47,0,0,0-1.11,1.65q0,16.73,0,33.46a15.06,15.06,0,0,0,.22,3,3.9,3.9,0,0,0,3.64,3.55,38.82,38.82,0,0,0,10.16-.08c3.69-.5,5.55-2.77,5.67-6.71.09-2.71,0-5.43.06-8.15A3.14,3.14,0,0,1,89,88c2.23-1.42,4.87-.37,5,2.24.18,4.1.4,8.24-.48,12.31-1.11,5.14-4.33,8.14-9.45,9.1a37.14,37.14,0,0,1-13.46.27c-6.08-1.1-8.92-4.49-9.09-10.66-.07-2.47,0-4.95,0-7.43V41.24c0-2.72,1.82-4.09,4.44-3.35,1.37.38,2,1.22,2,2.88C67.92,43.49,67.9,46.21,67.9,48.93Z" transform="translate(-16.23 -32.88)"/><path class="cls-2" d="M97.33,62.88a151.6,151.6,0,0,0,.11,15.81c.24,2.86,1.21,5.37,3.91,6.88a15.65,15.65,0,0,0,4.58,1.29l.71.12a85.79,85.79,0,0,1-8.54,9.94c-.36-.43-.19-.88-.21-1.28-.11-2.42.21-4.86-.43-7.27a6.65,6.65,0,0,0-7.58-4.7c-4.53.86-6,3.85-6.07,7.64,0,2.56,0,5.12,0,7.67,0,2.13-.9,2.89-3,3a70.62,70.62,0,0,1-7.42.14c-1.24,0-1.61-.55-1.6-1.75,0-5.56,0-11.12,0-16.68,0-5,0-9.92,0-14.88a2,2,0,0,1,1.47-2.28c2.94-1.12,5.8-2.46,8.69-3.71a6.83,6.83,0,0,1,2.24-.37H95.63A2.2,2.2,0,0,1,97.33,62.88Z" transform="translate(-16.23 -32.88)"/><path class="cls-8" d="M128.57,45.1a37,37,0,0,0-2.31-3.52c-1.21-2-.8-3.71,1.1-4.62a3,3,0,0,1,3.07.25,7.5,7.5,0,0,1,2.1,2.28,22.82,22.82,0,0,1,2.33,4.32c.42,1.1,1.07,1.32,2.16,1.32,9.31-.05,18.63,0,27.95,0a10.13,10.13,0,0,1,1.56.06A2.73,2.73,0,0,1,169,47.93a2.81,2.81,0,0,1-2.18,3.15,8,8,0,0,1-1.89.22q-34.14,0-68.27,0a9,9,0,0,1-1.79-.18,2.81,2.81,0,0,1-2.29-3.28,2.73,2.73,0,0,1,2.66-2.71c.52,0,1,0,1.56,0Z" transform="translate(-16.23 -32.88)"/><path class="cls-8" d="M168.46,109.33a3.15,3.15,0,0,1-4.47,3.06,5.1,5.1,0,0,1-2-1.71C157.45,104,152,98.07,146.36,92.25c-1.59-1.66-1.71-2.93-.55-4.45a2.83,2.83,0,0,1,4.38-.64,34.59,34.59,0,0,1,4.26,4.38c4.18,4.56,8.22,9.26,12,14.14A7.57,7.57,0,0,1,168.46,109.33Z" transform="translate(-16.23 -32.88)"/><path class="cls-8" d="M92.37,108.33a3.83,3.83,0,0,1,1.6-2.67,88.89,88.89,0,0,0,16.52-17.42c1.44-2,3-2.37,4.62-1.43A2.59,2.59,0,0,1,116.44,90c-.51,1.84-1.85,3.15-3,4.6-4.38,5.75-9.63,10.66-15,15.48a6.81,6.81,0,0,1-2,1.31A3,3,0,0,1,92.37,108.33Z" transform="translate(-16.23 -32.88)"/><path class="cls-3" d="M119,101.43l0-7.66A16.23,16.23,0,0,0,120.07,91a5.33,5.33,0,0,0,.09-3.28c-.23-.62,0-.78.59-.77,1.2,0,2.4,0,3.6,0,.41,0,.7.09.7.59v15.91A62.48,62.48,0,0,0,119,101.43Z" transform="translate(-16.23 -32.88)"/><path class="cls-8" d="M97.33,62.88l-15.46,0C84.59,61.43,87.3,60,90,58.57a12.5,12.5,0,0,0,4.4-3.25.69.69,0,0,1,.71-.32c2.06.31,4.15,0,6.61.2C98.54,57,97.71,59.82,97.33,62.88Z" transform="translate(-16.23 -32.88)"/><path class="cls-4" d="M89.2,129.62c.61-1.25,1.19-2.52,1.83-3.76,2.41-4.68,8.36-4.06,10.71-.66a4.84,4.84,0,0,1,.8,3.75c-.84,4.29-3.18,7.88-5.35,11.55-.71,1.2-1.54,2.33-2.39,3.61h19.93c.06-.43-.35-.72-.57-1.05a55.58,55.58,0,0,1-5.58-10.17c-.79-1.95-1.56-3.89-.93-6.12.76-2.69,2.66-3.89,5.18-4.31a5.23,5.23,0,0,1,5.45,2.19c.24.33.48.64.72,1a6.93,6.93,0,0,0,.78,1.84,41.75,41.75,0,0,0,13.82,18.46,7.61,7.61,0,0,1,3.27,4.4A6.17,6.17,0,0,1,128,157.2c-.38-.18-.7-.53-1.21-.54-.1,1.64-.22,3.26-.29,4.88-.19,4.11-.35,8.22-.54,12.33a21,21,0,0,1-1.26,6.43c-1.52,3.93-4.75,5.56-8.7,5.92-5.53.49-10.78-.84-15.89-2.75-2.67-1-3.63-2.5-4.27-5.84a28.4,28.4,0,0,1-5.69,5.18c-2.58,1.8-5.09,3.72-8.27,4.43-4.8,1.07-7.93-3.45-7.18-7.2a8.1,8.1,0,0,1,1.32-2.91,4.38,4.38,0,0,1,2.15-2A33.84,33.84,0,0,0,85,170.31a18,18,0,0,0,3.71-5.25,27.48,27.48,0,0,0,2.21-7.19c.13-.8-.08-1.13-.9-1.09a11,11,0,0,1-5.5-.86c-.56-.26-1,.08-1.42.41A8.68,8.68,0,0,1,79.57,158a6.14,6.14,0,0,1-7.41-7.13,7.61,7.61,0,0,1,3-4.64A50.72,50.72,0,0,0,84,137.48a48.78,48.78,0,0,0,4.39-6.72A2.72,2.72,0,0,1,89.2,129.62Z" transform="translate(-16.23 -32.88)"/><path class="cls-4" d="M146.61,127.45c1.57-.25,3.07-.78,4.65-1a21.26,21.26,0,0,1,8.35.88c.23.06.46.09.7.13a15.66,15.66,0,0,1,7.7,6.2c3.16,5.1,3.2,13.45-1.66,18.76-.67.73-.73,1.05.16,1.66,5.24,3.63,7.34,10,6,16.52-1.52,7.3-7.18,12.83-15.45,14-6.22.85-12-.21-16.78-4.51A15.43,15.43,0,0,1,135,168.61c-.07-3.42,1.51-6.35,5.68-7a6.53,6.53,0,0,1,7.12,4.41c.19.69.35,1.4.48,2.1a4.61,4.61,0,0,0,4.66,4,8.34,8.34,0,0,0,4.31-.71c3-1.58,3.29-6.75.56-8.58a9.21,9.21,0,0,0-5.08-1.53,8.36,8.36,0,0,1-4.89-1.32c-2.67-1.92-3.44-4.66-2.35-8.19.62-2,3.05-3.59,5.81-3.69a6,6,0,0,0,5.68-4,3.88,3.88,0,0,0-1.36-4.68,4.27,4.27,0,0,0-5.39.56c-.83,1-.77,2.15-.89,3.29-.23,2.14-.82,4.1-2.77,5.32-3.59,2.24-8.56,1-9.68-3.52A15.09,15.09,0,0,1,146,127.76,6.11,6.11,0,0,0,146.61,127.45Z" transform="translate(-16.23 -32.88)"/><path class="cls-5" d="M89.2,129.62a45.64,45.64,0,0,1-12,15.25c-1,.86-2.07,1.64-3,2.58A6.07,6.07,0,0,0,75.1,157c2.11,1.35,4.63,1.26,7.09-.41,1.18-.8,2.07-1.36,3.54-.57s3.12.56,4.71.51c.77,0,1.06.11.89,1a42.31,42.31,0,0,1-1.41,5.56,20,20,0,0,1-9.61,11.19,19.54,19.54,0,0,0-4.26,2.87c-2.22,0-4.44,0-6.66,0-.42,0-.88.13-1.26-.18a21,21,0,0,0,4-12.8,20.05,20.05,0,0,0-3.72-11.92,17.27,17.27,0,0,0-11.32-6.76,20.14,20.14,0,0,0-4.64-.41c-.77,0-1-.24-.86-1,0-.07,0-.16,0-.23.32-1.15,0-2.7.81-3.41s2.29-.21,3.48-.23c2.87,0,5.75,0,8.63,0a5.8,5.8,0,0,0,5.61-3.53,8.32,8.32,0,0,0-.59-7Z" transform="translate(-16.23 -32.88)"/><path class="cls-7" d="M182.63,157.18c.33,7.12.24,14.24.2,21.36-.33-.42-.18-.92-.18-1.39q0-7.12,0-14.25v-1.39c-1.57,1.68-3,3.16-4.38,4.67-.91,1-1.72,1.12-2.54.33a1.24,1.24,0,0,1-.17-1.9c1.26-1.43,2.53-2.86,3.84-4.25C180.43,159.26,181.55,158.24,182.63,157.18Z" transform="translate(-16.23 -32.88)"/><path class="cls-7" d="M182.84,132.74q0,11.73,0,23.45a1,1,0,0,1-.2.79q0-11.67,0-23.34C182.64,133.33,182.58,133,182.84,132.74Z" transform="translate(-16.23 -32.88)"/><path class="cls-9" d="M186.71,127.64a5.67,5.67,0,0,0-2.14,1c0-.38,0-.76,0-1.14C185.29,127.51,186,127.22,186.71,127.64Z" transform="translate(-16.23 -32.88)"/><path class="cls-8" d="M48,75.63q0,16.74,0,33.48a7.39,7.39,0,0,1-.19,2.14,2.84,2.84,0,0,1-3,2.26c-2,0-3-.85-3.08-2.84-.09-2.4-.05-4.8-.06-7.2v-5.4c0-1.53,0-1.53-1.4-1.06l-14.66,4.9a8.7,8.7,0,0,1-2.81.54,2.39,2.39,0,0,1-2.54-1.6c-.54-1.52-.33-2.58.76-3.46a10.1,10.1,0,0,1,3.59-1.6c5.34-1.65,10.67-3.33,16-5.16A1.42,1.42,0,0,0,41.7,89q0-13.38,0-26.76c0-1.16-.37-1.38-1.42-1.37-5,0-10.08,0-15.12,0a8.91,8.91,0,0,1-1.55-.11,3,3,0,0,1-2.7-3.22A2.88,2.88,0,0,1,24,54.71c1.36,0,2.72,0,4.08,0,4.16,0,8.32,0,12.48,0,.91,0,1.17-.26,1.16-1.15,0-3.8,0-7.6,0-11.4,0-.48,0-1,0-1.44.11-2.09,1-3,2.93-3A3,3,0,0,1,48,40.59a15.65,15.65,0,0,1,0,1.68Q48,59,48,75.63Z" transform="translate(-16.23 -32.88)"/><path class="cls-8" d="M55.92,131.07H64.2c1,0,1.89.08,2.36,1.07a3.5,3.5,0,0,1-.06,3.34,2.06,2.06,0,0,1-2.08.89c-4.68,0-9.36,0-14,0-1,0-1.34.27-1.49,1.3-.55,3.66-1.21,7.32-1.9,11-.18,1,.11,1,.89.79a20.93,20.93,0,0,1,10.43.2c5.38,1.69,8.55,5.44,9.63,10.91,1.25,6.38-.23,12-5.09,16.49a16.09,16.09,0,0,1-23.18-1.87,3.25,3.25,0,0,1,.16-4,2.13,2.13,0,0,1,3.34.12,13.24,13.24,0,0,0,5.9,3.95,9.55,9.55,0,0,0,9.72-2.06,12.32,12.32,0,0,0,2.58-14.61A8.49,8.49,0,0,0,54,154.08a16.77,16.77,0,0,0-7.29,1.09,7.65,7.65,0,0,1-2.92.59,2.65,2.65,0,0,1-2.68-3.21c1-6,2-12.05,3-18.07.49-2.83,1.22-3.41,4.08-3.41Z" transform="translate(-16.23 -32.88)"/><path class="cls-8" d="M54.94,124.31c0,1,0,1.92,0,2.88l-2.65,0A10.12,10.12,0,0,1,54.94,124.31Z" transform="translate(-16.23 -32.88)"/><path class="cls-8" d="M186.54,155.6v-21c0-3.28.28-3.56,3.55-3.56,4.08,0,8.16.08,12.24,0,10.53-.24,17.63,5.92,19.95,15.65a36.13,36.13,0,0,1-.8,20.55c-2.29,6.59-6.65,11.1-13.67,12.65a18.84,18.84,0,0,1-4.17.4c-4.84,0-9.68,0-14.52,0-2,0-2.33-.33-2.54-2.35a11.73,11.73,0,0,1,0-1.19Z" transform="translate(-16.23 -32.88)"/><path class="cls-1" d="M130.87,77H109.16c-1.81,0-1.92-.11-1.92-1.89,0-3.16,0-6.31,0-9.47,0-1.56.24-1.81,1.81-1.81h43.31c2,0,2.2.23,2.2,2.19q0,4.56,0,9.12c0,1.66-.19,1.86-1.85,1.86Z" transform="translate(-16.23 -32.88)"/><path class="cls-8" d="M86.64,148.32a4.55,4.55,0,0,1,2-.28H117.8c4.25,0,5.42,1.08,5.27,5.34-.25,7.43-.45,14.86-1.13,22.26-.59,6.41-3.94,6.9-8.4,6.89a32.1,32.1,0,0,1-10.54-2,14.08,14.08,0,0,1-1.55-.65c-1.6-.81-2-1.63-1.42-3.05s1.35-1.86,3.08-1.32a51.5,51.5,0,0,0,6.42,1.93,15,15,0,0,0,4.64.24c2.11-.28,3.06-1.18,3.2-3.31.15-2.39.3-4.79.41-7.18q.3-6.28.55-12.58c.06-1.6-.24-1.89-1.85-1.89-4.92,0-9.84,0-14.76,0-.88,0-1.12.27-1.22,1.13a60.05,60.05,0,0,1-2.81,13c-2.44,6.84-7.08,11.75-13.31,15.3a13.14,13.14,0,0,1-2.78,1.39,2.19,2.19,0,0,1-2.86-1.05,2.36,2.36,0,0,1,.62-3.11,7.64,7.64,0,0,1,1.4-.91c8.41-4.2,13-11.09,14.28-20.28.21-1.46.41-2.93.67-4.38.13-.76,0-1.09-.89-1.06-2,0-4.08,0-6.12,0-2.64,0-3.24-.71-3-3.35C85.71,148.7,86.07,148.42,86.64,148.32Z" transform="translate(-16.23 -32.88)"/><path class="cls-2" d="M99.57,172c2.43-4.79,3.35-9.65,4.25-14.51.14-.76.38-1,1.13-1q4.24.06,8.51,0c.77,0,1,.19,1,1-.26,4.62-.47,9.24-.69,13.86,0,.28,0,.56,0,.84-.08,1.78-.28,1.92-2.07,1.72a20.36,20.36,0,0,1-4.87-1.17C104.54,171.94,102.32,171,99.57,172Z" transform="translate(-16.23 -32.88)"/><path class="cls-8" d="M113.71,126.11a2,2,0,0,1,1.88,1.42c.67,1.45,1.27,2.94,2,4.37a45,45,0,0,0,14,17.22,6.44,6.44,0,0,1,1.07.95,2.37,2.37,0,0,1-3,3.65,22.15,22.15,0,0,1-3.72-2.81,56.35,56.35,0,0,1-14.27-20.61,4.4,4.4,0,0,1-.45-2.2A2.52,2.52,0,0,1,113.71,126.11Z" transform="translate(-16.23 -32.88)"/><path class="cls-8" d="M85.43,149c-1.52,1.29-3,2.59-4.57,3.86A5.58,5.58,0,0,1,79,154a2.17,2.17,0,0,1-2.47-3.31,7.4,7.4,0,0,1,1.61-1.6,51.48,51.48,0,0,0,14.32-17.29c.66-1.28,1.2-2.62,1.84-3.9.51-1,1.22-1.81,2.53-1.54,1.85.37,2.44,1.38,1.7,3.26a56.19,56.19,0,0,1-7.87,13.64c-1.31,1.72-2.81,3.27-4.25,4.87A2.68,2.68,0,0,1,85.43,149Z" transform="translate(-16.23 -32.88)"/><path class="cls-10" d="M85.43,149a2.6,2.6,0,0,1,1-.94l.23.23-.91,1Z" transform="translate(-16.23 -32.88)"/><path class="cls-8" d="M157.79,154.34c1,.31,2,.57,2.93.92,10.05,3.65,10,14,5.59,20.07a13.84,13.84,0,0,1-9.88,5.49c-4.66.59-9.12.06-12.94-3a12.66,12.66,0,0,1-4.72-8.73,3.21,3.21,0,0,1,1.57-3.49,2.67,2.67,0,0,1,3,.41,3.06,3.06,0,0,1,1.07,2.2,8.45,8.45,0,0,0,8.24,7.71,10.86,10.86,0,0,0,6.59-1.32c3.43-2.11,4.61-5.34,4.15-9.16s-2.89-6-6.35-7.24a13.41,13.41,0,0,0-4.71-.76,4.22,4.22,0,0,1-2.09-.44,2.85,2.85,0,0,1-1.44-3.25,2.23,2.23,0,0,1,2.45-1.85,9.71,9.71,0,0,0,7.7-3.76,8.65,8.65,0,0,0,1.74-7.88c-.9-3.51-4.47-5.76-8.47-5.34a7.11,7.11,0,0,0-6.6,6.74c0,.64-.09,1.27-.18,1.91a2.5,2.5,0,0,1-2.51,2.28,2.42,2.42,0,0,1-2.53-2.11,11.07,11.07,0,0,1,2.23-8.8c3-3.78,7.11-4.94,11.73-4.75a15.66,15.66,0,0,1,4.57.91,11.13,11.13,0,0,1,7.48,11.46c-.3,5.25-3.27,8.57-7.56,11l-1,.6S157.82,154.25,157.79,154.34Z" transform="translate(-16.23 -32.88)"/><path class="cls-4" d="M192.23,155.54c0-6.16,0-12.32,0-18.48,0-.9.17-1.26,1.16-1.22,3.44.14,6.88-.19,10.31.19,7,.77,11,4,12.84,10.82A32.74,32.74,0,0,1,216,166c-2.12,6.36-6.61,9.46-13.29,9.46-3.12,0-6.24,0-9.36,0-1,0-1.17-.31-1.16-1.22C192.25,168,192.23,161.78,192.23,155.54Z" transform="translate(-16.23 -32.88)"/><path class="cls-3" d="M119,67.76l10.55-.06c6.64,0,13.28,0,19.92,0,1,0,1.31.3,1.23,1.28a25,25,0,0,0,0,3.24c0,.76-.19,1-1,1-2.36,0-4.72,0-7.08,0l-23.63,0A8.29,8.29,0,0,1,119,67.76Z" transform="translate(-16.23 -32.88)"/><path class="cls-2" d="M119,67.76v5.41c-2.39,0-4.78,0-7.17,0-.64,0-.82-.25-.8-.84,0-1.28,0-2.55,0-3.83,0-.59.16-.86.81-.85C114.27,67.73,116.65,67.74,119,67.76Z" transform="translate(-16.23 -32.88)"/><path class="cls-8" d="M196.12,144.22c0-1.24,0-2.48-.06-3.72,0-.63.21-.83.83-.81a52,52,0,0,1,7.9.27,9.14,9.14,0,0,1,7,5c2.07,4,2.17,8.29,2,12.63a20.31,20.31,0,0,1-2,8.92c-1.76,3.33-4.42,5.16-8.26,5.14-2.12,0-4.24,0-6.36,0-.74,0-1-.15-1-1,0-7.83,0-15.67,0-23.51A2.27,2.27,0,0,0,196.12,144.22Z" transform="translate(-16.23 -32.88)"/><path class="cls-11" d="M196.12,144.22c1.26,1.08,1.26,1.72,0,2.91C196.11,146.16,196.11,145.19,196.12,144.22Z" transform="translate(-16.23 -32.88)"/></svg>