<svg id="圖層_1" data-name="圖層 1" xmlns="http://www.w3.org/2000/svg" viewBox="0 0 213.09 195.79"><defs><style>.cls-1{fill:#38322f;}.cls-2{fill:#e6f7c2;}.cls-3{fill:#e5f6c2;}.cls-4{fill:#e5f6c1;}.cls-5{fill:#fefefe;}.cls-6{fill:#fdfdfd;}.cls-7{fill:#fbfbfa;}.cls-8{fill:#a4ac8a;}.cls-9{fill:#bfeb61;}.cls-10{fill:#e2e1e1;}.cls-11{fill:#674a4c;}.cls-12{fill:#fefefd;}</style></defs><title>46</title><path class="cls-1" d="M216.22,81.6c0,1.64-.06,3.28-.08,4.91l-.09,9.72c0,2.82-.71,5.18-4.45,6.07a3.79,3.79,0,0,0,.84,1.37,1.8,1.8,0,0,1,.83.83c2.29,3.56,4.59,7.11,6.84,10.7a5.67,5.67,0,0,1,.91,5,3.44,3.44,0,0,0,0,2,4.89,4.89,0,0,1-1.86,5.43,92.42,92.42,0,0,1-9.68,6.2c-2.55,1.45-5.57.52-7.32-2.08-2-2.91-3.78-5.91-5.68-8.87s-3.67-5.81-5.54-8.69c-.81-1.23-1.61-2.48-2.38-3.74a6.72,6.72,0,0,1-1-5.25c.46-2-.17-2.47-1.94-2.42-3.34.12-2.92-.41-3,2.93,0,.84,0,1.68,0,2.52.07,3.1,0,6.2,0,9.3.05,1.13,0,2.25,0,3.38.11,3.09-.29,6.16-.33,9.24a4,4,0,0,1-.35,1.5c-.9,2.27-2.75,3.11-5,3.31-6.68.09-13.35.06-20,0a6.08,6.08,0,0,1-3.3-1c-1.92-1.4-2.3-3.5-2.34-5.64-.09-3.92,0-7.84,0-12-1.91,2.94-3.71,5.77-5.51,8.59-1.44,2.26-2.9,4.5-4.33,6.77a5.66,5.66,0,0,1-2.76,2.39,6.16,6.16,0,0,1-5.92-.95c-2.58-1.67-5.15-3.34-7.74-5a5.86,5.86,0,0,1-1.33-1.2c-.46-.56-.81-.52-1.19.08-.63,1-1.31,1.91-1.9,2.9-.37.62-.8,1.2-1.17,1.81a6.65,6.65,0,0,1-6.16,3.21c-4.86,0-9.73,0-14.6,0-.69,0-1.38,0-2.07,0H86.42a9.63,9.63,0,0,1-1.2-.05c-3.51-.36-5.16-2-5.63-5.51,0-4.84,0-9.68,0-14.51,0-11.4-.2-22.8,0-34.19.31-14.87.06-29.74.18-44.61a2.57,2.57,0,0,1,.07-.83,13.15,13.15,0,0,1,.77-2.62c1.06-1.85,2.83-2.39,4.77-2.43,3.2-.07,6.4,0,9.59,0,3.55,0,5.75,2.2,5.78,5.75,0,4.24,0,8.47,0,12.71V50c3.39-1.13,6.66-2.24,9.94-3.3,3-1,5.91-2.15,9-2.87.27-.06.6-.22.81-.13,1.25.53,1.52-.14,1.6-1.19a5.3,5.3,0,0,1,2.48-4c.61-.77,1.52-.75,2.36-.9,2.4,0,4.81-.16,7.19,0a107.44,107.44,0,0,0,12.56.12c3.18-.11,6.37-.13,9.56-.23,1.29,0,2.52.33,3.8.29a2.5,2.5,0,0,0,1.18-.11c.23-1,.05-2,.24-3,.65-3.46,2.65-4.42,5.4-4.55,3.27-.15,6.55-.1,9.83,0,3.45.1,5.33,2,5.52,5.49a3.84,3.84,0,0,1,0,.83c-.16,1,.18,1.39,1.31,1.39q16.13-.08,32.25,0c2.06,0,4,.45,5.16,2.4a6.5,6.5,0,0,1,.8,3.32c0,4.6,0,9.19,0,13.79,0,3.38-1.1,5.44-4.8,6-.84.11-1,.46-.91,1.14.08,1.24.11,2.47.16,3.71a2.22,2.22,0,0,1,.42,1.46c0,3.5,0,7,0,10.51A2,2,0,0,1,216.22,81.6Z" transform="translate(-24.96 -30.09)"/><path class="cls-1" d="M53.27,177.85a.5.5,0,0,0,0-.12c.26-2.32.15-4.39-2.15-5.88a23.75,23.75,0,0,1-3.21-3.21,5.55,5.55,0,0,1-.56-7.28c.19-.25.43-.49.38-.85a5.81,5.81,0,0,1,1.69-4.76,4.26,4.26,0,0,1,1.25-1.59A5.48,5.48,0,0,0,53,148.65a8.17,8.17,0,0,1,.3-3.8c.7-1.87,1.18-3.79,1.7-5.71a4.15,4.15,0,0,1,2.91-2.95,17.74,17.74,0,0,1,10-.12c2.33.63,3.52,2.43,3.69,5.17.15,2.42.15,2.42,2.61,2.42h1.55c1.29,0,2.06-.57,2.08-1.82.08-4.4,3.1-6.28,7.21-6.1,1.32,0,2.64,0,4,0a5.72,5.72,0,0,1,5.81,4.43,9.85,9.85,0,0,1,.36,2.65c.1.77.68.79,1.26.8,1.39,0,2.79,0,4.19,0a10.78,10.78,0,0,1,3.91.47c.72.27,1.11.1,1.22-.73.54-4.11,2.18-5.84,7.35-5.95,5.84-.12,11.67,0,17.51,0a6.69,6.69,0,0,1,1.67.13,47.87,47.87,0,0,0,7.76,0,43.3,43.3,0,0,1,8.13,0,6.8,6.8,0,0,0,2.25,0c1.31-.34,2.51-1,3.82-1.36,3-.81,5.17,0,6.78,2.72a62,62,0,0,1,2.49,6.62,5.54,5.54,0,0,1-.68,4.49,3.9,3.9,0,0,0-.54,1.8,5.24,5.24,0,0,1-3.13,4.87,30.65,30.65,0,0,1-4.94,2,41.61,41.61,0,0,1,8.15.12,4.93,4.93,0,0,1,4.54,4.55c.36,2.86.63,5.78-.27,8.56-.55,1.71-1,3.43-1.48,5.15a4.44,4.44,0,0,1-2.47,2.8c-.83.42-.89.89-.45,1.61.64,1.06,1.19,2.18,1.83,3.24a3.78,3.78,0,0,1,.57,1.55c.68,1.61,1.81,3,2.12,4.78a5,5,0,0,1-.63,3.44,4.56,4.56,0,0,0-.76,2.37,4.43,4.43,0,0,1-2.18,4c-2.42,1.38-4.67,3.06-7.44,3.74a4.84,4.84,0,0,1-5-1.85c-1.6-2.34-2.79-4.92-4.19-7.38-.83-1.47-1.64-2.95-2.61-4.69-.19,2.1.28,4-.5,5.63s-1,3.66-1.59,5.42c-.8,2.2-2.72,3-4.86,3q-6.78.12-13.55,0c-2.53,0-4.8-1.42-5.2-4.33a7.25,7.25,0,0,0-.28-.89c-.48.84-.9,1.6-1.34,2.35a5.31,5.31,0,0,1-7.41,2.11c-1.27-.66-2.54-1.33-3.77-2.07a1.36,1.36,0,0,0-1.7.13c-1.37.93-2.52,2.19-4.29,2.5a5.21,5.21,0,0,1-5.27-2l-7-9.69c-.58-.18-.86-.7-1.16-1.16-.41-.64-.72-.61-1.11,0-2,3.27-4.17,6.44-6.15,9.73a6.73,6.73,0,0,1-3.07,2.92,5.77,5.77,0,0,1-5.49-.61,1.69,1.69,0,0,0-2.35.1,4.86,4.86,0,0,1-2.78,1,25.38,25.38,0,0,1-6.8,0c-3.42-.52-5.11-1.94-5.32-6.49-.16-3.55,0-7.11,0-10.67,0-1.59,0-3.19,0-4.79-.07-1.26,0-2.52,0-3.78A1.87,1.87,0,0,1,53.27,177.85Z" transform="translate(-24.96 -30.09)"/><path class="cls-1" d="M34.34,75.66c-1.55-.31-3-.76-3.93-2.22a6.11,6.11,0,0,1-.9-3.3q-.06-7.26,0-14.51c0-3.54,2.2-5.6,5.9-5.61,6,0,12.07,0,18.11,0,1.06,0,1.32-.25,1.31-1.31,0-4.24,0-8.48.07-12.71,0-3.74,2.09-5.78,5.8-5.79,3.16,0,6.32,0,9.47,0A5.12,5.12,0,0,1,75,32.81a7.21,7.21,0,0,1,.81,3.57q0,19.18,0,38.39c0,.43,0,.87,0,1.31a3,3,0,0,1,.36,1.5c0,4.52,0,9,0,13.56.06,1.62,0,3.24,0,4.86,0,2.15,0,4.31,0,6.47,0,2.6.06,5.2,0,7.8,0,6,0,12.06,0,18.09a7.5,7.5,0,0,1-1.07,4.12,5.71,5.71,0,0,1-5,2.46c-3.23.14-6.47.18-9.7,0-3.94-.2-5.86-2.32-5.84-6.26,0-1.88-.18-3.75-.25-5.62,0-.83-.33-1-1.13-.8-1.1.32-2.12,1-3.33.85C47,124,44.08,125,41.15,125.9c-1.51.47-3,1-4.66.42a4.47,4.47,0,0,1-3.07-2.77c-1.25-3.62-2.58-7.21-3.56-10.92a.93.93,0,0,1-.08-.35c.57-2.44-.41-5,.29-7.38A4.43,4.43,0,0,1,33,102c1.79-.66,3.6-1.27,5.39-1.9a3.45,3.45,0,0,1,1.6-.79c4.24-1.43,8.5-2.83,12.74-4.25,1.55-.52,1.62-.61,1.62-2.21V77.71c0-1.41-.1-1.5-1.5-1.5-2.87,0-5.75,0-8.63,0C40.92,76.19,37.61,76.36,34.34,75.66Z" transform="translate(-24.96 -30.09)"/><path class="cls-1" d="M213.58,149.53a77.3,77.3,0,0,1,.88,14.42,9,9,0,0,1-.92,4.15.86.86,0,0,0-.08.68c1.23,5.55,1,11.18,1,16.8a7.36,7.36,0,0,1-2.14,5.4c-2.32,2.38-4.56,4.83-6.78,7.3a6.19,6.19,0,0,1-4.76,2.12q-8.34.06-16.67,0a6.11,6.11,0,0,1-4.76-2.12q-3.43-3.84-7-7.6a6.7,6.7,0,0,1-1.85-4.66,13.49,13.49,0,0,0-.63-3.64,2.53,2.53,0,0,1-.55-1.78c0-3.16,0-6.32,0-9.48a5.39,5.39,0,0,1,.29-2c1.06-2.76.52-5.49-.1-8.22a2.17,2.17,0,0,1-.07-.35,64.55,64.55,0,0,1,.13-10.77,6.66,6.66,0,0,1,1.89-3.81c2.69-2.79,5.16-5.78,8-8.47a7.2,7.2,0,0,1,4.53-1.28c2.52-.06,5,0,7.56,0s4.87.1,7.31,0a8.54,8.54,0,0,1,7.22,3.31c1.7,2,3.51,3.93,5.36,5.81a13.55,13.55,0,0,1,1.46,1.75A3.07,3.07,0,0,1,213.58,149.53Z" transform="translate(-24.96 -30.09)"/><path class="cls-2" d="M213.58,149.53c-.43-2.52-2.5-3.9-4-5.65S206.5,140.63,205,139a6.94,6.94,0,0,0-5.61-2.39c-2.55,0-5.11,0-7.66,0a2,2,0,0,0-1.47-1.23,53,53,0,0,1-7.55-2.91,2.36,2.36,0,0,1-1-.64c.85-3,.4-6.15.61-9.23,0-.52,0-1,.05-1.55a6.31,6.31,0,0,1,2.47-1.42,54.54,54.54,0,0,1,5.38-2c.85-.25,1.18-.68.94-1.58-.15-.55-.4-1.16.09-1.71,2.34,3.28,4.36,6.77,6.55,10.14,1.52,2.34,3,4.72,4.51,7.06,1.94,3,4.95,3.6,7.94,1.68,2.79-1.79,5.6-3.55,8.35-5.38a4.77,4.77,0,0,0,2.12-5.48,4.05,4.05,0,0,1,0-2.34,5,5,0,0,0-.77-4.31c-2.5-4-5-8-7.55-11.92a31.45,31.45,0,0,1,6.33-3.8c3-1.14,4.88-.27,5.73,2.83a16.28,16.28,0,0,1,.31,5.82,63.87,63.87,0,0,1-1.22,7.76c-.17.75.28.79.73.93a55.41,55.41,0,0,1,7.8,3,15.13,15.13,0,0,1,4.56,3c1.95,2.06,1.83,4.09-.34,5.93a30.73,30.73,0,0,1-8.26,4.51c-1,.4-1.94.72-2.92,1.06-1.53.53-1.57.53-1.18,2.12A48.38,48.38,0,0,1,225.3,146a9.45,9.45,0,0,1-.92,5,3.25,3.25,0,0,1-3.8,1.74,17.6,17.6,0,0,1-6-2.87C214.28,149.71,214.06,149.24,213.58,149.53Z" transform="translate(-24.96 -30.09)"/><path class="cls-2" d="M53.27,177.85v5.27c-.44.32-.86.07-1.26-.05a31.63,31.63,0,0,0-5.62-1.22,2.41,2.41,0,0,0-1.58.08A34,34,0,0,0,49,189,9.5,9.5,0,0,1,51,192.43a5.49,5.49,0,0,1-1.41,5.31,88.62,88.62,0,0,0-6.22,6.49,2.92,2.92,0,0,0-.77,1.18c.3.32.68.19,1,.19,3.08,0,6.14-.09,9.21-.34a5.26,5.26,0,0,1,5.87,4.2,51.85,51.85,0,0,0,2.6,8.73,2,2,0,0,0,.68,1.09,19.66,19.66,0,0,0,2.19-3.37c1-1.82,1.77-3.76,2.7-5.62a5.35,5.35,0,0,1,6.35-3,40.29,40.29,0,0,1,4,1.16,26.77,26.77,0,0,0,4.93,1c1.3.15,1.49-.13.89-1.27a42.12,42.12,0,0,0-2.68-4.41,12.33,12.33,0,0,1-1.64-2.63l6.73-10.71,1.76,2.5c-1.47,1.35-2.92,2.71-4.41,4-.71.63,0,1,.24,1.39a47,47,0,0,1,5.38,8.74,12.46,12.46,0,0,1,1.08,3.65c.31,2.31-1.43,4-4,4.12A32.59,32.59,0,0,1,74.18,213c-2.51-.75-2.48-.8-3.5,1.59a31.65,31.65,0,0,1-5.49,9.2c-2.36,2.57-5,3.26-7.4-.71-2-3.24-2.92-6.87-3.79-10.52-.09-.39-.17-.77-.24-1.17-.14-.72-.46-.88-1.26-.8-4.2.45-8.41.79-12.6-.1a5.88,5.88,0,0,1-2.18-.94,3.17,3.17,0,0,1-1.35-3.64,14.8,14.8,0,0,1,3.35-5.73,44,44,0,0,1,5.73-5.77c.57-.45.31-.82,0-1.3A50.64,50.64,0,0,1,40,184.38a13.38,13.38,0,0,1-1.06-3.3c-.49-2.78,1.09-4.55,4-4.69a30.85,30.85,0,0,1,9.31,1.29C52.56,177.76,52.92,177.79,53.27,177.85Z" transform="translate(-24.96 -30.09)"/><path class="cls-2" d="M49.91,123.11c1.39-.48,2.78-.94,4.15-1.45.59-.22.74-.09.74.54,0,2.23,0,4.46.1,6.7.05,2,.61,3.76,2.48,4.87a6.65,6.65,0,0,0,3.3.85c3.08,0,6.15,0,9.23,0,3.71,0,5.85-2.2,5.87-5.91,0-6.11.06-12.21.09-18.32a5.3,5.3,0,0,1,3.23-1.35c.31,0,.66,0,.7.43V128.4a4,4,0,0,0,.06,1.19,12,12,0,0,0,1,2.78,5.63,5.63,0,0,0,4.88,2.25c3.66.07,7.33,0,11,.06,1,.85.54,1.81.13,2.71a11.1,11.1,0,0,1-2.35,2.81c-.84-3.25-3.09-4-5.67-4.09a32.81,32.81,0,0,0-6.34.17c-2.76.47-4.16,2.59-4.3,5.25-.09,1.85-.69,2.41-2.54,2.44a13.51,13.51,0,0,0-3.7.17c-.65.2-.62-.2-.63-.63a19.35,19.35,0,0,0-.08-2.75c-.47-2.9-1.58-4.13-4.5-4.63a26,26,0,0,0-7.16,0,4.71,4.71,0,0,0-4.62,4.5,16.49,16.49,0,0,1-1.19,3.68c-.78,2.2-.41,4.51-.44,6.77a2.15,2.15,0,0,1-.76,1.77c-1.07.95-2.1,2-3.14,2.95a51.05,51.05,0,0,1,1.09-8.63c.35-1.71.38-1.7-1.31-2.27-3.48-1.16-7-2.29-10-4.43a7.61,7.61,0,0,1-2-1.73c-1.37-1.89-1.33-3.29.3-5,2.13-2.22,4.86-3.44,7.65-4.56,1.51-.61,3-1.16,4.6-1.68.69-.24,1-.52.73-1.31A30.82,30.82,0,0,1,49.91,123.11Z" transform="translate(-24.96 -30.09)"/><path class="cls-2" d="M34.34,75.66c6.36,0,12.71.07,19.07,0,1,0,1.43.18,1.41,1.35-.07,5.55,0,11.11,0,16.67,0,.59,0,1-.73,1.26-5.15,1.67-10.29,3.38-15.43,5.08a1,1,0,0,1-.24,0c.32-2,.57-4,1-6,.2-.91-.12-1.17-.88-1.4a47,47,0,0,1-8.66-3.39,11.28,11.28,0,0,1-3.95-3c-1.31-1.75-1.28-3.18.22-4.79,2.15-2.31,5-3.55,7.81-4.71L35.86,76C35.33,75.69,34.74,76.09,34.34,75.66Z" transform="translate(-24.96 -30.09)"/><path class="cls-2" d="M179.56,137.77l-8.28,9a6.18,6.18,0,0,0-1.49,4.2c-.08,3-.17,6,0,9,.13,2.05.72,4.07.87,6.13,0,.31.21.58,0,.92a8.65,8.65,0,0,0-.94,4.5c0,3,0,6,0,9,0,.63.08,1.27.12,1.9-.42-.32-.7-.09-1,.2-1.4,1.23-2.82,2.43-4.23,3.64l-3.47-6.06c.59-.26,1.13-.45,1.63-.73,1.84-1,2.33-2.82,2.53-4.74,0-.43-.05-.87.26-1.26a6.44,6.44,0,0,0,1.17-4.29,44,44,0,0,0-.13-5.62c-.5-3.49-2.84-4.52-5.81-4.63-2.4-.09-4.8,0-7.2,0l-.48,0,5.14-2.07a5.15,5.15,0,0,0,3.66-5.62,1,1,0,0,1,.23-.76c1.58-1.88,1.48-3.93.66-6.07-.67-1.78-1.35-3.57-2-5.35.56-.16.89.26,1.28.5a47.19,47.19,0,0,1,6,4.68c.86.78,1.39.66,2.09,0a48.84,48.84,0,0,1,5.62-4.63c.79-.55,1.6-1.05,2.43-1.52C178.64,137.76,179.06,137.39,179.56,137.77Z" transform="translate(-24.96 -30.09)"/><path class="cls-2" d="M216.22,81.6c-.13-4.48-.11-8.95,0-13.43,2.32,1.12,4.71,2.07,6.59,4,2.17,2.2,1.58,4-.14,5.68A17.72,17.72,0,0,1,216.22,81.6Z" transform="translate(-24.96 -30.09)"/><path class="cls-3" d="M79.86,129.59c-.33-.43-.17-.93-.17-1.39q0-9.51,0-19a4.07,4.07,0,0,1-.27-2.55,2.21,2.21,0,0,0-1.31-2.39,5.38,5.38,0,0,1-2.21-1.75V96a4.17,4.17,0,0,1,2.18-1.92,2.21,2.21,0,0,0,1.32-2.39c-.08-.82,0-1.66-.05-2.49,0-3.3,0-6.61,0-9.91a2.18,2.18,0,0,1,.34-1.59l0-32.73c0-2.84,0-5.68,0-8.51,0-.39-.13-.81.18-1.15,0,1.92,0,3.84,0,5.76v64.66Q79.88,117.66,79.86,129.59Z" transform="translate(-24.96 -30.09)"/><path class="cls-2" d="M79.64,77.69c0,4,0,7.91,0,11.86a7.49,7.49,0,0,1-3.78,1.64V76.08Z" transform="translate(-24.96 -30.09)"/><path class="cls-4" d="M161.26,37.69c-.54.4-1.15.17-1.72.17q-15.75,0-31.5,0l-1.31,0c0-.42.4-.51.69-.51,2.67,0,5.35-.41,8,.27,3.84,0,7.68,0,11.52,0a2.73,2.73,0,0,0,1.64-.58,14.72,14.72,0,0,1,5.86-2.86c1.72-.31,3.14.13,3.64,1.7C158.64,37.71,159.81,37.8,161.26,37.69Z" transform="translate(-24.96 -30.09)"/><path class="cls-4" d="M135.41,37.64c-2.47,0-4.95,0-7.42,0-.42,0-.89-.15-1.26.19l-2.12.61c.27-1.92.93-3.54,3.07-4.05a4.72,4.72,0,0,1,2.78.39A17,17,0,0,1,135.41,37.64Z" transform="translate(-24.96 -30.09)"/><path class="cls-2" d="M171.88,60.34q18.9,0,37.79,0c1.08,0,1.4.25,1.4,1.37q-.07,14.82,0,29.64c0,1-.24,1.32-1.31,1.32-10.4,0-20.79,0-31.19,0-1,0-1.33.22-1.32,1.3,0,9.92,0,19.83,0,29.75,0,1-.22,1.29-1.24,1.28q-9-.08-18,0c-1.1,0-1.32-.33-1.3-1.36q.1-4.06,0-8.15c0-1,.18-1.46,1.35-1.41,2.35.1,4.71,0,7.07,0,.89,0,1.23-.15,1.22-1.15q-.07-9.6,0-19.2c0-.89-.22-1.12-1.12-1.12-10.4,0-20.8,0-31.19,0-1.07,0-1.39-.23-1.39-1.35q.08-14.82,0-29.63c0-1.15.36-1.35,1.4-1.35Q153,60.37,171.88,60.34Z" transform="translate(-24.96 -30.09)"/><path class="cls-2" d="M95.75,56.94l12.61-4.21c3.7-1.24,7.42-2.45,11.11-3.77,1-.34,1.21,0,1.47.8.88,2.7,1.78,5.38,2.75,8,.32.87.18,1.19-.71,1.49-8.71,2.91-17.39,5.89-26.09,8.8-.86.29-1.17.62-1.16,1.55q0,21.54,0,43.08c0,1,.16,1.3,1.21,1.28,3.56-.07,7.12-.06,10.68,0a1.76,1.76,0,0,0,1.71-1c1.78-2.84,3.64-5.63,5.43-8.47.42-.66.74-.73,1.39-.29q3.73,2.51,7.54,4.9c.62.38.71.65.29,1.28q-4.55,6.84-9,13.73a1.23,1.23,0,0,1-1.16.64q-14,0-28.08,0c-.61,0-.9-.16-.82-.8a4,4,0,0,0,0-.6q0-43.38,0-86.76c0-1.19.31-1.45,1.45-1.41,2.75.09,5.52.08,8.27,0,1,0,1.16.32,1.16,1.21,0,6.36,0,12.72,0,19.08Z" transform="translate(-24.96 -30.09)"/><path class="cls-2" d="M171.86,53.58H128.55c-1.82,0-1.55.22-1.56-1.62,0-2.6.05-5.2,0-7.79,0-1.05.24-1.34,1.31-1.34,12.2.05,24.4,0,36.6.06,1.15,0,1.62-.19,1.53-1.48-.13-1.79,0-3.6-.05-5.39,0-.69.23-.9.9-.89,3,0,6.08,0,9.12,0,.79,0,.92.33.9,1,0,1.83.06,3.68,0,5.51-.05,1,.32,1.24,1.29,1.24,12.28,0,24.55,0,36.83,0,1,0,1.45.18,1.4,1.34-.09,2.67-.07,5.36,0,8,0,1.05-.2,1.4-1.34,1.39-9.64,0-19.28,0-28.92,0Z" transform="translate(-24.96 -30.09)"/><path class="cls-5" d="M121.92,102c-1-.66-2.1-1.28-3.12-2-2.94-2-6.31-1.37-8.13,1.67-1.32,2.19-2.78,4.28-4.13,6.44a1.41,1.41,0,0,1-1.41.81c-1.2-.07-2.4,0-3.6,0-.57,0-.74-.16-.74-.74q0-12,0-23.95a1,1,0,0,1,.79.17,5.36,5.36,0,0,0,6.42-.82,51.87,51.87,0,0,1,6.73-5.38c.57-.35,1.15-1,1.81-.66s.36,1.16.35,1.78a48.93,48.93,0,0,1-1,8.43c-.67,3.4.5,5.44,3.79,6.54a68.73,68.73,0,0,1,6.51,2.42,5.11,5.11,0,0,1,1.53.93,3.89,3.89,0,0,1,.41,1.68A11.28,11.28,0,0,1,121.92,102Z" transform="translate(-24.96 -30.09)"/><path class="cls-2" d="M136.69,124.46c-.25-.15-.46-.26-.66-.39-2.55-1.64-5.09-3.31-7.66-4.92-.6-.38-.59-.64-.24-1.19q6.72-10.5,13.37-21c.38-.59.62-.75,1.27-.32,2.53,1.68,5.1,3.3,7.68,4.9.59.37.61.66.25,1.21q-6.78,10.55-13.51,21.09C137,124,136.86,124.23,136.69,124.46Z" transform="translate(-24.96 -30.09)"/><path class="cls-2" d="M207.06,124.41c-.43-.07-.5-.47-.68-.75q-5.19-8.13-10.36-16.28c-1-1.52-1.9-3-2.9-4.54-.4-.6-.51-.93.24-1.39,2.55-1.57,5-3.22,7.56-4.86.47-.31.74-.43,1.12.17q6.79,10.67,13.62,21.3c.23.36.43.63-.09,1-2.74,1.71-5.46,3.46-8.19,5.2Z" transform="translate(-24.96 -30.09)"/><path class="cls-2" d="M132.19,137.81l-19.43.06a11.33,11.33,0,0,0-1.43,0c-3.41.46-5,2.16-5.21,5.61-.1,1.46-.09,1.41-1.44,1a9.33,9.33,0,0,0-2.93-.55c-2,0-4,0-6,0-1,0-1.23-.31-1-1.18.72-1,1.89-1.12,2.91-1.49,2-.72,2-.68,1.62-2.8-.22-1.26-.82-2.5-.44-3.84,4.8,0,9.6,0,14.39,0,2.57,0,4.66-.81,6-3.15,1-1.79,2.24-3.49,3.39-5.22.16-.25.36-.83.75-.24,1.45,2.16,3.9,3,5.88,4.44,1.18.87,2.52,1.52,3.65,2.48a6.88,6.88,0,0,1-.58,4.78Z" transform="translate(-24.96 -30.09)"/><path class="cls-2" d="M127.73,97.67c-3.13-1.28-6.32-2.39-9.48-3.56-2.07-.77-3.15-2.74-2.8-5.38.44-3.34,1.22-6.63,1.19-10V77.58a20.11,20.11,0,0,0-4.56,3c-1.33,1.06-2.61,2.21-3.86,3.37a5.65,5.65,0,0,1-7.38.35V77.75c1.14-.08,1.62.92,2.36,1.46,1.24.9,1.25,1,2.38-.09a43.08,43.08,0,0,1,7.49-5.75,12,12,0,0,1,4.12-1.58,3.4,3.4,0,0,1,3.71,1.81c1.31,2.4,1.22,5,1,7.6a48.55,48.55,0,0,1-1.06,7c-.2.9.13,1.32,1,1.57a44.77,44.77,0,0,1,4.63,1.66,2.51,2.51,0,0,1,1.2.74Z" transform="translate(-24.96 -30.09)"/><path class="cls-2" d="M150.71,137.77a13.26,13.26,0,0,1-3.56.09q-6.83,0-13.66,0c-.43,0-.86-.07-1.3-.1l.14-.12c1.35-.54,2.76-.23,4.15-.26,2.61-.05,2.61,0,2.22-2.61a3.36,3.36,0,0,1,0-.95,7.56,7.56,0,0,0,3.13-3.18q4.74-7.47,9.52-14.91c0-.09.15-.15.36-.35,0,.47.05.8.06,1.13,0,4,0,8.07,0,12.1a6.18,6.18,0,0,0,2.07,5c-.78,1.35-2.22,2-3.32,3-.34.31-.79.48-1.15.81C149.84,137.54,150.34,137.35,150.71,137.77Z" transform="translate(-24.96 -30.09)"/><path class="cls-5" d="M150.71,137.77h-2.19l5.31-4.09a8.54,8.54,0,0,0,2.91,1,.3.3,0,0,0,.11,0,9.22,9.22,0,0,1,7.37,2.34,11.13,11.13,0,0,0,4.18,2c2.39.63,3.77-.12,4.51-2.45.59-1.88.59-1.87,2.53-1.88a7.13,7.13,0,0,0,1.9-.08,5.31,5.31,0,0,0,4.4-2.92,14.56,14.56,0,0,1,3.3,1.34c2,.83,4,1.51,6.07,2.15.79.24.94.59.65,1.28l-7.78,0a7.92,7.92,0,0,0-4.42,1.2,18.1,18.1,0,0,0-5.42,3.36c-1.57,1.21-3.06,2.52-4.54,3.84-.46.41-.68.29-1.07-.06A56.46,56.46,0,0,0,160.8,139a5.82,5.82,0,0,0-4-2.78,7.23,7.23,0,0,0-3.34.56C152.55,137,151.64,137.43,150.71,137.77Z" transform="translate(-24.96 -30.09)"/><path class="cls-5" d="M127.64,92.16c-2.25-.8-4.49-1.61-6.75-2.37-.57-.2-.56-.47-.46-1a51.06,51.06,0,0,0,1.25-10.74,10.86,10.86,0,0,0-.49-3c-.9-2.79-2.72-3.6-5.48-2.55A27.81,27.81,0,0,0,108,77.39q-1.53,1.24-3,2.58c-.58.54-.94.55-1.53,0a12.25,12.25,0,0,0-2.68-2.18c-.07-.48-.16-.9.5-1.12Q112.23,73,123.1,69.34a3.7,3.7,0,0,1,2.64.47c.76.32.72,1,.59,1.63a69.8,69.8,0,0,0-1.08,7.34,19,19,0,0,0,.22,5.48,6.36,6.36,0,0,0,2.17,3.35Z" transform="translate(-24.96 -30.09)"/><path class="cls-5" d="M191.28,114.22a6.62,6.62,0,0,0,.36,2.34c.15.58,0,.83-.52,1A82.58,82.58,0,0,0,182.4,121V117.6c.49-.81,1.37-1.18,2.05-1.78,2.2-1.94,2.26-3.63.22-5.75-.71-.75-1.69-1.19-2.28-2.07,0-1.63,0-3.26-.06-4.89,0-.53.17-.69.69-.68,1,0,2.07,0,3.1,0,1.69,0,2.41.84,1.9,2.51a5.83,5.83,0,0,0,.2,4.18A27.06,27.06,0,0,0,190,112,12,12,0,0,1,191.28,114.22Z" transform="translate(-24.96 -30.09)"/><path class="cls-2" d="M127.64,87.61a3,3,0,0,1-2.12-2.09,15,15,0,0,1-.61-6.81,69.52,69.52,0,0,1,1.2-7.87c.11-.49-.11-.65-.5-.77l-2.51-.73c1.44-.72,3.16-.84,4.54-2.26Z" transform="translate(-24.96 -30.09)"/><path class="cls-3" d="M177.34,134.68a6.21,6.21,0,0,1-2.81.19c-.66,0-.92.16-1.07.89-.53,2.69-1.6,3.86-3.48,3.9a8.67,8.67,0,0,1-4.29-1.31,26.21,26.21,0,0,1-4-2.59,4.16,4.16,0,0,0-2.87-.88,3.49,3.49,0,0,1-2.09-.19Z" transform="translate(-24.96 -30.09)"/><path class="cls-2" d="M155.7,108.67a6.47,6.47,0,0,0,0-3.75c-.44-1.68.25-2.48,2-2.48,1,0,2,0,3,0,.53,0,.68.18.68.7,0,1.67,0,3.35,0,5,0,.69-.2.88-.87.88a16.32,16.32,0,0,0-4.41.22C155.57,109.26,155.64,109,155.7,108.67Z" transform="translate(-24.96 -30.09)"/><path class="cls-2" d="M121.92,102a38.8,38.8,0,0,0,6.22-2.66,4.92,4.92,0,0,0,3.93,2.87,1.34,1.34,0,0,1-.54,1,8.81,8.81,0,0,1-4.42,2.19Z" transform="translate(-24.96 -30.09)"/><path class="cls-5" d="M98.88,134.67q.57,2.75,1.15,5.47c.15.67-.3.82-.78,1a35.25,35.25,0,0,0-4.46,1.69c-.09-.87-.19-1.73-.28-2.6a1.6,1.6,0,0,1,.76-1.25,3.71,3.71,0,0,0,1.46-4.27Z" transform="translate(-24.96 -30.09)"/><path class="cls-2" d="M182.4,108a10,10,0,0,1,3.36,2.79c1.22,1.46.92,3.48-.75,5a9.93,9.93,0,0,1-2.6,1.85Z" transform="translate(-24.96 -30.09)"/><path class="cls-6" d="M138.68,133.87c.74,1,.41,2.37.86,3.52.18.46-.42.34-.68.34-2.18,0-4.36,0-6.53,0A37.75,37.75,0,0,0,133,133c.73.17,1.27.74,2,1A7,7,0,0,0,138.68,133.87Z" transform="translate(-24.96 -30.09)"/><path class="cls-7" d="M127.11,105.39l4.42-2.19c-.74,1.22-1.49,2.43-2.22,3.65-.31.53-.58.46-.82,0A6.61,6.61,0,0,0,127.11,105.39Z" transform="translate(-24.96 -30.09)"/><path class="cls-8" d="M155.7,108.67c.07.22.09.46.33.58-.14.16-.37.28-.5.13S155.52,108.88,155.7,108.67Z" transform="translate(-24.96 -30.09)"/><path class="cls-9" d="M131.56,142.87c6.16,0,12.32-.05,18.47,0,1.91,0,3.46-.86,5.12-1.49.8-.31,1.18-.27,1.46.63.45,1.4,1,2.77,1.6,4.13.27.63.23.92-.48,1.25a21.13,21.13,0,0,1-9.36,2c-9.83-.17-19.67,0-29.51-.08-1,0-1.29.22-1.27,1.24.06,4.12,0,8.23,0,12.35,0,.77.18,1,1,1,4.23,0,8.47-.05,12.71,0,.9,0,1-.34,1-1.12,0-3.39,0-6.79,0-10.19,0-.92.29-1.18,1.17-1.14,1.47.07,3,0,4.43,0,.79,0,1,.25,1,1,0,3.27,0,6.55,0,9.83,0,1.81-.22,1.55,1.61,1.56,6.68,0,13.36,0,20,0,.91,0,1.27.19,1.2,1.17a32.7,32.7,0,0,0,0,4.2c.07,1-.32,1.16-1.21,1.16-6.76,0-13.52,0-20.28,0-1.07,0-1.4.23-1.39,1.36.05,7.32,0,14.64.05,21.95,0,1-.27,1.28-1.27,1.27-4-.06-8-.05-12,0-.91,0-1.17-.25-1.12-1.14a41.5,41.5,0,0,0,0-4.32c-.06-.94.29-1.13,1.15-1.1,1.88.06,3.76,0,5.64,0,.81,0,1-.26,1-1,0-5.31,0-10.63,0-15.95,0-.85-.26-1.07-1.08-1.07-6.28,0-12.56,0-18.84,0-1,0-1.3-.16-1.29-1.21q.07-12.54,0-25.07c0-1.12.37-1.31,1.37-1.3C118.84,142.89,125.2,142.87,131.56,142.87Z" transform="translate(-24.96 -30.09)"/><path class="cls-9" d="M80.56,173.74h-8.1c-1.87,0-1.87,0-1.87-1.91,0-1.08.06-2.16,0-3.23s.16-1.38,1.28-1.35c3.4.09,6.8,0,10.2.05.93,0,1.22-.22,1.2-1.18q-.09-4.68,0-9.36c0-1-.2-1.31-1.24-1.28-2.75.07-5.52,0-8.27,0-.83,0-1.13-.21-1.09-1.06q.1-2.22,0-4.44c0-.88.3-1.06,1.1-1.05,2.8,0,5.6,0,8.4,0,.83,0,1.12-.22,1.1-1.07-.06-2,0-3.92,0-5.88,0-.74.21-1,1-1,1.56.06,3.12.05,4.68,0,.69,0,.89.21.88.89,0,2,0,4,0,6,0,.81.26,1,1,1,3.48,0,7,.05,10.43,0,1.21,0,1.44.36,1.42,1.47-.06,5.24,0,10.48,0,15.72,0,.87.18,1.17,1.11,1.15,2.66,0,2.66,0,2.66,2.66a25.62,25.62,0,0,0,0,2.63c.11,1-.32,1.18-1.22,1.17-4.15,0-8.3,0-12.49,0a2.49,2.49,0,0,0,.73,1.28c3.7,5.12,7.4,10.24,11.15,15.32.53.73.5,1.06-.26,1.54a35,35,0,0,0-3.5,2.53c-.73.6-1,.45-1.56-.27-3.9-5.46-7.86-10.89-11.76-16.36-.61-.86-.87-.95-1.47,0-3.4,5.41-6.88,10.78-10.3,16.19-.42.67-.72.85-1.43.35q-1.81-1.28-3.75-2.37c-.76-.43-.73-.78-.29-1.46,3.35-5.21,6.65-10.45,10-15.69C80.31,174.53,80.62,174.28,80.56,173.74Z" transform="translate(-24.96 -30.09)"/><path class="cls-9" d="M59.79,162c-.86.79-1.5,1.32-2.07,1.92s-.77.54-1.25,0c-1.1-1.22-2.25-2.39-3.42-3.54-.44-.44-.45-.71,0-1.14q1.84-1.71,3.62-3.51c.44-.44.68-.32,1,.09.59.68,1.23,1.32,2.07,2.21v-2.28c0-4.52,0-9,0-13.55,0-1.1.33-1.37,1.36-1.31a34.54,34.54,0,0,0,4.07,0c.93-.05,1.14.28,1.14,1.16,0,5,0,10,0,15V158c.85-.83,1.53-1.46,2.18-2.13.35-.37.6-.54,1-.06,1.21,1.33,2.46,2.62,3.71,3.92.3.32.36.53,0,.87-1.24,1.12-2.48,2.26-3.68,3.44-.51.5-.82.38-1.25-.09s-1.19-1.17-1.84-1.8c-.28.37-.15.81-.15,1.2,0,10.08,0,20.16,0,30.24,0,1.05-.24,1.4-1.32,1.33a29.1,29.1,0,0,0-4.07,0c-1,.07-1.17-.32-1.17-1.22,0-9.84,0-19.67,0-29.51Z" transform="translate(-24.96 -30.09)"/><path class="cls-5" d="M78.71,201.1a28.77,28.77,0,0,1,3.74,5.36A15.68,15.68,0,0,1,83.77,209c.24.63.07.77-.53.77a22.49,22.49,0,0,1-6.09-1.05c-1.3-.37-2.59-.78-3.9-1.12a5.23,5.23,0,0,0-6.38,3.21A37.06,37.06,0,0,1,61.82,220a30.46,30.46,0,0,1-2.51-6.59c-.42-1.41-.63-2.88-1-4.29a5,5,0,0,0-5.74-3.57,95.57,95.57,0,0,1-10.78.33,17.09,17.09,0,0,1,2.63-3.46c1.57-1.64,3.21-3.22,4.82-4.83a5.23,5.23,0,0,0,.67-6.86,52.64,52.64,0,0,1-5.16-8.18c-.15-.32-.28-.64-.5-1.13,3.23-.11,6.13.81,9,1.66,0,5.15,0,10.3.07,15.45,0,2.08.47,4.05,2.46,5.26a5.74,5.74,0,0,0,2.73.78,30.59,30.59,0,0,0,7.28-.17,4.47,4.47,0,0,0,2.49-1.31c.53-.57.88-.43,1.38-.07a5.84,5.84,0,0,0,5.46,1.2,5,5,0,0,0,2.44-1.62C78,202.15,78.33,201.62,78.71,201.1Z" transform="translate(-24.96 -30.09)"/><path class="cls-9" d="M124.47,175.16c-.09.16-.18.34-.27.51Q119.09,185,114,194.26c-.3.55-.56.76-1.18.39q-2.12-1.25-4.31-2.37c-.55-.28-.64-.52-.32-1.08q5.2-9.31,10.37-18.64c.23-.43.4-.72,1-.39,1.48.86,3,1.66,4.51,2.48C124.22,174.76,124.49,174.82,124.47,175.16Z" transform="translate(-24.96 -30.09)"/><path class="cls-9" d="M150.71,172c.41.06.46.48.62.76q4,7.11,7.93,14.25c.77,1.39,1.53,2.8,2.33,4.18.31.52.29.8-.29,1.09q-2.24,1.15-4.42,2.42c-.51.29-.75.18-1-.31q-5.16-9.4-10.35-18.79c-.16-.3-.42-.6.1-.88,1.62-.86,3.23-1.75,4.84-2.62A1.79,1.79,0,0,1,150.71,172Z" transform="translate(-24.96 -30.09)"/><path class="cls-10" d="M106.79,183.17a1.92,1.92,0,0,1-.53,1.06c-.31-.23-.69-.51-.54-.82A.86.86,0,0,1,106.79,183.17Z" transform="translate(-24.96 -30.09)"/><path class="cls-11" d="M111.48,199.54c.33-.12.57-.06.61.1.11.36-.15.2-.29.14S111.63,199.65,111.48,199.54Z" transform="translate(-24.96 -30.09)"/><path class="cls-2" d="M70.76,80.16c0,14.4,0,28.8,0,43.2,0,1.27-.37,1.5-1.53,1.46-2.8-.08-5.6-.06-8.4,0-.8,0-1-.25-1-1,0-4.28,0-8.56,0-12.84,0-1-.19-1.21-1.2-.87-6.54,2.2-13.11,4.32-19.65,6.5-.81.27-1.15.21-1.42-.68-.86-2.78-1.8-5.54-2.77-8.28-.28-.81-.08-1.06.7-1.32,7.73-2.53,15.45-5.12,23.18-7.65a1.38,1.38,0,0,0,1.16-1.58q0-14.94,0-29.87c0-1.08-.3-1.32-1.34-1.31-7.6,0-15.2,0-22.79,0-1.09,0-1.34-.3-1.31-1.34.08-2.75.09-5.52,0-8.27-.05-1.18.39-1.34,1.42-1.34,7.56,0,15.11,0,22.67,0,1,0,1.36-.19,1.35-1.29-.06-5.76,0-11.52-.06-17.28,0-1,.3-1.25,1.27-1.23q4.2.1,8.4,0c1,0,1.25.26,1.25,1.25Q70.73,58.33,70.76,80.16Z" transform="translate(-24.96 -30.09)"/><path class="cls-12" d="M75.86,102.48c1.18.71,2.35,1.43,3.52,2.15.39.24.28.63.28,1,0,1.19,0,2.38,0,3.57a24.9,24.9,0,0,0-3.78,1.23Q75.87,106.44,75.86,102.48Z" transform="translate(-24.96 -30.09)"/><path class="cls-6" d="M75.87,91.19l3.78-1.64c.46,2.55-.08,4.61-2.73,5.68a5,5,0,0,0-1,.76Z" transform="translate(-24.96 -30.09)"/><path class="cls-2" d="M191.75,141.56c2.72,0,5.44,0,8.16,0a1.62,1.62,0,0,1,1.36.56q3.42,3.78,6.9,7.5a2.1,2.1,0,0,1,.63,1.59q0,4.26,0,8.52a2.09,2.09,0,0,1-.63,1.6c-1.1,1.1-2.12,2.28-3.23,3.38-.49.49-.48.84.05,1.24a3.07,3.07,0,0,1,.26.25c1.17,1.21,2.77,2.22,3.38,3.66s.15,3.23.15,4.87c0,2.08,0,4.16,0,6.23a2.29,2.29,0,0,1-.66,1.71q-3.45,3.68-6.84,7.4a1.9,1.9,0,0,1-1.58.64q-8,0-15.95,0a2,2,0,0,1-1.66-.73q-3.3-3.64-6.66-7.23a2.57,2.57,0,0,1-.74-1.92q.06-5,0-10.08a2.16,2.16,0,0,1,.76-1.77c1.08-1,2.08-2.1,3.15-3.12.41-.39.44-.66,0-1.07-1.12-1.14-2.18-2.34-3.3-3.48a2,2,0,0,1-.63-1.59c0-2.84,0-5.68,0-8.52a2,2,0,0,1,.54-1.51q3.47-3.74,6.88-7.52a1.77,1.77,0,0,1,1.45-.63C186.31,141.58,189,141.56,191.75,141.56Z" transform="translate(-24.96 -30.09)"/><path class="cls-1" d="M172,71.23c9,0,18,0,27,0,1,0,1.31.18,1.27,1.22-.08,2.67-.07,5.36,0,8,0,1-.22,1.33-1.3,1.33q-20.86-.06-41.72,0c-4.2,0-8.4,0-12.59,0-.82,0-1.1-.18-1.09-1q.09-4.2,0-8.39c0-.9.22-1.13,1.12-1.13C153.74,71.25,162.85,71.23,172,71.23Z" transform="translate(-24.96 -30.09)"/><path class="cls-1" d="M89.71,161.41c0-1.68,0-3.36,0-5,0-.68.2-.91.88-.89q2.28.06,4.56,0c.64,0,.92.13.91.85,0,3.36,0,6.71,0,10.07,0,.68-.19.9-.88.88-1.51,0-3,0-4.55,0-.78,0-.94-.28-.92-1C89.73,164.69,89.71,163.05,89.71,161.41Z" transform="translate(-24.96 -30.09)"/><path class="cls-1" d="M191.82,169.18a6.48,6.48,0,0,0,1.08,0c3.25-.62,5.69.61,7.53,3.25.09.13.23.23.33.36.53.7.39,5.92-.21,6.58-1,1.07-2,2.1-2.92,3.17a1.52,1.52,0,0,1-1.29.46c-3,0-6.07,0-9.1,0a1.68,1.68,0,0,1-1.44-.66,20.94,20.94,0,0,0-2.39-2.5,3.36,3.36,0,0,1-1-2.5,7.34,7.34,0,0,1,3-7.35,2.84,2.84,0,0,1,2-.83C188.86,169.22,190.34,169.18,191.82,169.18Z" transform="translate(-24.96 -30.09)"/><path class="cls-1" d="M191.64,161.39a4.71,4.71,0,0,0-.84,0c-3.37.67-5.9-.65-7.9-3.3a2.34,2.34,0,0,1-.48-1.16,6.57,6.57,0,0,1,2.25-6,4.92,4.92,0,0,1,4.11-1.71c2.47.15,5,.06,7.43,0a1.83,1.83,0,0,1,1.56.67c.92,1,1.89,2.06,2.87,3a1.55,1.55,0,0,1,.41,1.07c.28,2.43-.18,4.45-2.34,6.06-1.07.8-2,1.46-3.36,1.33C194.13,161.3,192.88,161.39,191.64,161.39Z" transform="translate(-24.96 -30.09)"/></svg>