<svg id="圖層_1" data-name="圖層 1" xmlns="http://www.w3.org/2000/svg" viewBox="0 0 211.23 202.13"><defs><style>.cls-1{fill:#d52828;}.cls-2{fill:#f3cda5;}.cls-3{fill:#fec65b;}.cls-4{fill:#e7ae74;}.cls-5{fill:#e7a45e;}.cls-6{fill:#d9a36b;}.cls-7{fill:#e7a35e;}.cls-8{fill:#fefefe;}.cls-9{fill:#e7ae73;}.cls-10{fill:#caa876;}.cls-11{fill:#fefdfc;}.cls-12{fill:#d9a36a;}.cls-13{fill:#efc09a;}.cls-14{fill:#f1c59f;}.cls-15{fill:#fcf6f6;}.cls-16{fill:#cca273;}.cls-17{fill:#fefefd;}.cls-18{fill:#f2caa3;}.cls-19{fill:#fefdfd;}.cls-20{fill:#fdfbfb;}</style></defs><title>1</title><path class="cls-1" d="M31,181.25a3.66,3.66,0,0,1-3.44-3.75c0-.55-.14-.84-.72-1a6,6,0,0,1-4.46-6.07q-.06-26.79,0-53.58c0-3.77,2.87-6.42,6.73-6.42H57.72c.44,0,.88,0,1.32,0,1-.56,2-.32,3-.35s1.81,0,2.72,0c3.64-.06,7.35-.48,10.9.09,5,.8,10,0,15,.06,11.55.2,23.11.06,34.67.06a13.44,13.44,0,0,1,3.1.26,3.46,3.46,0,0,0,1.78,0,15.41,15.41,0,0,1,4.63-.49q18.66,0,37.32,0a11.85,11.85,0,0,1,5.8,1.19,1.41,1.41,0,0,0,1.48-.08,6.79,6.79,0,0,1,2.74-.81c4.31,0,8.62-.21,12.92,0,10.28.45,20.57.09,30.85.23a1.68,1.68,0,0,1,.59.08,6.52,6.52,0,0,1,4.37,2.43,6.39,6.39,0,0,1,1.37,4.11c.06,6.91.08,13.82.1,20.73a4.48,4.48,0,0,0,.35,1.72,7.65,7.65,0,0,1,.62,2.79c.15,8.27.23,16.54.12,24.8a14.29,14.29,0,0,1-14.13,14l-1.92,0a4.85,4.85,0,0,1-2.44.34c-1.63,0-3.25-.07-4.88,0a3.54,3.54,0,0,1-.92,0c-2,0-4,.06-5.95,0-3.41.07-6.83,0-10.24,0-2.94,0-5.88.05-8.82,0a4.09,4.09,0,0,1-3.64-2.56c0-.16-.22.07-.07,0-.24,1.94-1.73,2.27-3.26,2.56l-23.6,0c-6.3,0-12.59,0-18.89,0a7,7,0,0,0-5,0,3.81,3.81,0,0,1-1.31,0c-1.78.05-3.56.05-5.33,0-3.59.07-7.17,0-10.75,0-4.63,0-9.26-.08-13.89,0-4.37,0-8.75,0-13.13,0a3.93,3.93,0,0,1-4-3.66,1.29,1.29,0,0,0-.81-1.19c-3.14-1.22-4.45-3.65-4.51-6.89,0-3.6,0-7.2,0-10.8,0-1.34,0-1.35-1.21-.76a14.81,14.81,0,0,1-2.58,1c-3.15.9-6.37.42-9.55.51-1.59,0-3.18,0-4.77,0s-3.45,0-5.18,0c-.43,0-.87,0-1.3,0-1,0-2.05-.22-3,.26a1.66,1.66,0,0,0-.26,1.26c0,5.35-.05,10.7,0,16.06A4,4,0,0,1,46,181.15a2.26,2.26,0,0,1-1.26.34c-4.14-.39-8.29-.07-12.44-.18A5.22,5.22,0,0,1,31,181.25Z" transform="translate(-22.32 -24.73)"/><path class="cls-1" d="M196.83,67.92c0,1.19,0,2.4-.09,3.58-.45,4.25-3.69,7.06-8.14,7.13-2.39,0-4.78.06-7.16.08a1.88,1.88,0,0,1-1.46.39c-.92,0-1.84,0-2.76,0-1.37,0-1.44.08-1.44,1.4,0,6.19,0,12.38,0,18.56a8,8,0,0,1-7.72,7.34c-5.47.15-10.95.07-16.43,0-1.55,0-2.17-.68-2.24-2.22q-.08-1.86,0-3.72c.07-1.53.7-2.14,2.25-2.21.92,0,1.84,0,2.76,0,1.44,0,1.67-.25,1.68-1.7,0-4.08,0-8.15,0-12.23,0-1.24,0-2.48,0-3.72,0-1.39-.12-1.5-1.52-1.51H139c-.56,0-1.12,0-1.68,0-1.65-.12-2.3-.76-2.31-2.43,0-4.52,0-9,0-13.56q0-5,0-10.08a2.26,2.26,0,0,1,1.13-2.33,6.84,6.84,0,0,1,2-.14c12.74,0,25.49,0,38.23,0,6.2-.08,12.4-.05,18.6,0,1.52,0,2.18.69,2.2,2.24.05,4.64,0,9.28,0,13.92A1.79,1.79,0,0,1,196.83,67.92Z" transform="translate(-22.32 -24.73)"/><path class="cls-1" d="M94.75,53.51l0-15.43c0-1.48.5-2,2-2H110.4c2.36,0,2.56.19,2.69,2.53a2.28,2.28,0,0,1,.33,1.59c0,1.46,0,2.93,0,4.39,0,2,0,3.92,0,5.88,0,1.24.16,1.34,1.34,1,3-.88,6-1.81,9.08-2.71a7.24,7.24,0,0,1,1-.28,1.94,1.94,0,0,1,2.41,1.85c.11,1.6,0,3.2,0,4.8,0,1-.7,1.41-1.57,1.67q-5.23,1.56-10.46,3.15c-1.8.55-1.87.62-1.87,2.49q0,16.86,0,33.71c0,1.85,0,1.87,1.88,1.87,3,0,6.07,0,9.11,0,2.16,0,2.89.75,2.92,2.88,0,1,0,2,0,3a2.23,2.23,0,0,1-2.29,2.28c-.4,0-.8,0-1.2,0H97.91c-.36,0-.73,0-1.08,0a2.28,2.28,0,0,1-2.39-2.45c0-.52,0-1,0-1.56,0-13.59,0-27.19,0-40.78,0-2,0-4,0-6A7.82,7.82,0,0,1,94.75,53.51Z" transform="translate(-22.32 -24.73)"/><path class="cls-1" d="M66.7,93.08l-7.8,2.31a1.45,1.45,0,0,1-2-1.48c0-1.59,0-3.19,0-4.79a1,1,0,0,1,.91-1.24c3.79-1.11,7.55-2.29,11.34-3.39.75-.22,1.09-.48,1.09-1.36q-.06-11.88,0-23.74c0-1-.34-1.09-1.17-1.08-3.4,0-6.79,0-10.19,0-1.5,0-2-.47-2-2,0-1.2,0-2.4,0-3.6a1.59,1.59,0,0,1,1.82-1.81c3.47,0,7,0,10.43,0,.84,0,1.07-.22,1.06-1.06,0-3.92,0-7.83,0-11.75,0-1.55.5-2,2.09-2,4.63,0,9.27,0,13.9,0a2.43,2.43,0,0,1,2.2.91,2.83,2.83,0,0,1,.1,1.29c0,4.88.09,9.75,0,14.62-.09,4.47.36,8.92.31,13.38-.14,12.42,0,24.84-.06,37.25a8.16,8.16,0,0,1-.07,1.56,1.93,1.93,0,0,1-2,1.37c-4.84,0-9.68,0-14.52,0a2,2,0,0,1-1.84-.93,2.21,2.21,0,0,1-.22-1.16c.17-3.43-.33-6.83-.28-10.25,0-1.47-.09-1.54-1.48-1.14A4.2,4.2,0,0,1,66.7,93.08Z" transform="translate(-22.32 -24.73)"/><path class="cls-2" d="M128.65,181.27c1.18-.05,2.38,0,3.34-.89.28-.26.5-.06.71.13a3.21,3.21,0,0,0,1.71.73c2.42.2,4.85,0,7.28.09a5.23,5.23,0,0,1,1.53.07c-.21.8-7.75,6.74-10.53,8.31a1.17,1.17,0,0,1-1.13-.52c-.89-1-2-1.7-2.91-2.66-.54-.57-.94-.53-1.45.08-3.59,4.37-7.23,8.7-10.85,13-.3.37-.56.78-1.1.84a2.2,2.2,0,0,1-1.28-.82c-1.43-1.56-3.14-2.82-4.59-4.35-.58-.62-.89-.57-1.28.2-1.66,3.21-2,2.18.77,5,1.17,1.18,2.63,2.07,3.54,3.51,0,.66-.56,1.05-.93,1.49-1.87,2.24-3.7,4.5-5.6,6.71-.87,1-1,1-2.17.21-1.9-1.39-3.72-2.88-5.59-4.31-1-.77-1-.75-1.57.43-1.51,3.25-1.34,2.4,1.11,4.35a89.39,89.39,0,0,1,7.17,6.15c.35.34.86.62.78,1.25a114.14,114.14,0,0,1-15.18-3.55c-.38-.12-.77-.19-1.16-.28-.1-.65.38-1,.71-1.46,3.27-4.39,6.5-8.81,9.81-13.17.75-1,.74-1-.44-1.51C96.21,199,96.87,199,95,201.48c-3.23,4.22-6.32,8.55-9.55,12.77-.24.33-.36.84-.94.79-.24-.75-1-.71-1.54-.93a84.47,84.47,0,0,1-23.52-13.5c-1.53-1.27-2.92-2.71-4.37-4.07-.32-.3-.55-.7-1.06-.72,0-.42.3-.54.56-.68,4.18-2.37,8.31-4.83,12.5-7.2a1.85,1.85,0,0,1,.33-.12c1.46.56,2.4,1.81,3.5,2.81,2.18,2,4.3,4,6.48,6,.67.61,1,.53,1.43-.24,1.52-3,2-2.19-.69-4.62-1.91-1.75-3.86-3.46-5.66-5.33-.33-.34-.74-.66-.5-1.24A38.62,38.62,0,0,1,76,182.76c.68-.39.78-.76.37-1.43-.76-1.22-1.5-2.45-2.17-3.72-.42-.78-.89-.78-1.55-.38-1.67,1-3.37,2-5.08,2.94a2.48,2.48,0,0,1-1.08.46c-1.32-.56-2.11-1.78-3.23-2.59a7.49,7.49,0,0,1-1-1c-.47-.52-.84-.56-1.15.15-.06.14,0,0,0,.1-1.46,2.6-1.46,2.6.58,4.82.28.3.71.57.51,1.11-2.92,2-6.1,3.54-9.11,5.38a25.63,25.63,0,0,1-2.28,1.29c-.34.17-.65.52-1.08.21A11.34,11.34,0,0,1,48,187.43c3.58-3.93,6.86-8.12,10.3-12.16,1.63-1.92,3.23-3.87,4.84-5.8a1.54,1.54,0,0,1,1.3-.73c3.57.31,7.14.74,10.73.83a1.56,1.56,0,0,1,1.11.35c.09,2.52.85,4.86,3.23,5.94a3.64,3.64,0,0,1,2.33,3c.31,1.46,1.61,2.19,3.11,2.39,3.66.19,7.33,0,11,.08.48,0,1,0,1.44,0,.26,0,.61-.14.75.19s-.12.53-.29.74c-1.12,1.4-2.27,2.79-3.43,4.15-3.23,3.76-6.35,7.6-9.53,11.39a4.14,4.14,0,0,1-1.5,1.35,62.46,62.46,0,0,1-7.23-1c-4.83-.69-9.65-1.43-14.47-2.17-.82-.12-1.25,0-1.14,1a2.17,2.17,0,0,1,0,.36c.07,2.46.17,2.56,2.58,2.91,7,1,14.07,2.13,21.1,3.17,1.5.23,1.5.2,1.62-1.28.11-.48.35-.72.84-.42a7.38,7.38,0,0,1,.77.58c1.22.92,1.23.94,2.17-.2,4.63-5.6,9.35-11.12,14-16.73.33-.4.64-.84,1.21-.91a4.27,4.27,0,0,1,1.71,1c2,1.5,4,3,6,4.53.7.54,1.15.51,1.66-.22.74-1.08,1.58-2.1,2.35-3.17s.7-1.13-.33-1.91-2.11-1.57-3.15-2.37c-.36-.28-.84-.52-.74-1.12H123.1c.33.84-.4,1.3-.71,1.89-.65,1.21-.67,1.24.57,1.65,2.65.89,2.63.87,4.12-1.5C127.53,182.58,127.75,181.65,128.65,181.27Z" transform="translate(-22.32 -24.73)"/><path class="cls-3" d="M196.83,67.92l0-14.84c0-1.9-.34-2.25-2.2-2.25l-18.19,0a1.24,1.24,0,0,1-.27-.29,1.34,1.34,0,0,1,0-1.34,1.07,1.07,0,0,1,.37-.22,7.2,7.2,0,0,1,1.91-.12h19.67a13.58,13.58,0,0,0,1.43,0,1.21,1.21,0,0,0,1.22-1.23,28.83,28.83,0,0,0,0-3.6,1.52,1.52,0,0,0-1.53-1.53,13.85,13.85,0,0,0-1.44,0c-6.47,0-12.95,0-19.42,0-.66,0-1.38.16-1.93-.41,2-9.18,9.38-15.78,19.05-17a22.08,22.08,0,0,1,24.23,16.2,21.6,21.6,0,0,1-16.87,26.32A27.73,27.73,0,0,1,196.83,67.92Z" transform="translate(-22.32 -24.73)"/><path class="cls-2" d="M141.43,222c-1-.56-2-.24-3-.16a109.26,109.26,0,0,1-16.08.2c-1.75-.12-3.5-.19-5.24-.28-.24,0-.49,0-.65.2-.37.22-.6-.06-.83-.25-1.68-1.41-3.43-2.73-5.17-4.06-.71-.54-.84-1-.22-1.78q2.86-3.37,5.67-6.79a1.48,1.48,0,0,1,1.17-.72c.61.09.94.58,1.34.95,2,1.87,4,3.79,6,5.62.65.58,1,.47,1.35-.23.13-.25.29-.48.42-.73,1.13-2.15,1.07-2.08-.74-3.69a52.6,52.6,0,0,1-5.61-5.36,1.66,1.66,0,0,1,.59-1.36c1.21-1.46,2.43-2.91,3.63-4.37a1.22,1.22,0,0,1,1-.58.86.86,0,0,1,.44.18c.67.68,1.23.5,2,0q8.68-6.49,17.37-13c1.93-1.45,1.94-1.45.1-3.08l-.27-.24c-.27-.27-.79-.5-.63-.92s.71-.2,1.08-.2c2.84,0,5.67-.09,8.5.06a.56.56,0,0,1,.2.54c-.37,1.24.34,1.75,1.33,2.27,2.91,1.5,5.79,3.06,8.7,4.56.59.3,1.28.5,1.57,1.2-.32.7-1,.7-1.62.84-7,1.7-13.9,3.57-20.86,5.29-1.61.4-1.57.4-1.23,2,.27,1.23.87,2.4.7,3.72-.44.41-.9.18-1.35.05-1.39-.39-2.79-.73-4.14-1.22-.79-.29-1.15-.06-1.37.73-.38,1.35-.72,2.7-1.17,4-.28.8,0,1.17.75,1.4,2.73.79,5.44,1.59,8.16,2.4,1.42.41,2.85.79,4.23,1.29,1,.46.5,1.09.17,1.65l-5.22,8.7C142.21,221.29,142.14,222,141.43,222Z" transform="translate(-22.32 -24.73)"/><path class="cls-1" d="M176.38,42l22.39,0c1.94,0,2.35.41,2.35,2.39v2.88c0,1.55-.44,2-2,2H181c-1.6,0-3.19,0-4.79.06a2.93,2.93,0,0,1-1.52.22H133.26a4.32,4.32,0,0,1-1.43-.13,2,2,0,0,1-1.15-1.94c0-1.24-.05-2.48,0-3.72a1.91,1.91,0,0,1,2.09-2.1c1.92-.1,3.84,0,5.75,0,2.85,0,5.7,0,8.55,0a6,6,0,0,1,2,.36c2.2,0,4.4,0,6.59,0,.71,0,.89-.22.86-.89-.05-1.11,0-2.23,0-3.35A1.59,1.59,0,0,1,158.22,36h15.59a1.55,1.55,0,0,1,1.7,1.67c0,1.2,0,2.4,0,3.6C175.48,42,175.82,42.08,176.38,42Z" transform="translate(-22.32 -24.73)"/><path class="cls-2" d="M201.37,196.81a52,52,0,0,1-9.44,7.88,83.47,83.47,0,0,1-17.46,9.14.74.74,0,0,1-.19-.55c.05-1.55.06-1.56-1.36-2q-7-2.1-14-4.13a11.09,11.09,0,0,1-2.36-.85c-.41-.43-.12-.83.11-1.18.54-.84.21-1.23-.64-1.42a6,6,0,0,1-.68-.22c-1.81-.6-1.81-.6-3,.87a1.13,1.13,0,0,1-.77.52,31.65,31.65,0,0,1-6.69-2.09.5.5,0,0,1,.22-.62,2.47,2.47,0,0,1,.78-.3c9.51-2.34,19-4.82,28.5-7.16a1.86,1.86,0,0,1,1.66.71,28.07,28.07,0,0,1,1.62,3.63c.35.85.78.84,1.44.54,3.56-.71,7.17-1.08,10.75-1.62,3.27-.5,6.55-.95,9.82-1.4C200.25,196.48,200.86,196.32,201.37,196.81Z" transform="translate(-22.32 -24.73)"/><path class="cls-1" d="M182.16,79.92c4.31,0,8.63.11,12.94,0,1.14,0,1.47.38,1.66,1.39,1.34,7,2.74,14,4.11,21,.32,1.61-.25,2.27-1.91,2.27-1.12,0-2.24,0-3.35,0a2.94,2.94,0,0,1-2,.34c-1.22,0-2.45,0-3.67,0s-2.72,0-4.08,0c-1.71,0-2-.2-2.29-1.94-.8-4.28-1.67-8.55-2.52-12.82-.2-1-.42-2-.65-3-.22-1.74-.67-3.43-.91-5.15A1.84,1.84,0,0,1,182.16,79.92Z" transform="translate(-22.32 -24.73)"/><path class="cls-4" d="M117.12,208.54a1.17,1.17,0,0,0-.88.55c-2,2.38-4,4.78-6,7.14-.41.49-.26.76.15,1.07l6,4.67c1,.46,1.27,1.11.63,2.13s-.62,2.56-1.56,2.75c-.71.14-1.71-1.09-2.56-1.74a45.91,45.91,0,0,1-4.31-3.39c-.9-.87-2.06-.88-3-1.43a56.71,56.71,0,0,0-8.16-7.16c-2.45-1.82-2.47-1.8-1.19-4.63.74-1.63.73-1.62,2.21-.48,1.79,1.39,3.59,2.77,5.37,4.18.71.56,1.15.73,1.86-.18,2.12-2.74,4.4-5.35,6.61-8a10.79,10.79,0,0,1,2.89-3.61,57.32,57.32,0,0,0,4.45-5.14c2.59-3,5.09-6.12,7.61-9.2.48-.59.82-.51,1.34,0,1.26,1.22,2.58,2.37,3.88,3.55a.58.58,0,0,1-.17.65c-2.32,2.77-4.6,5.58-7,8.31a.52.52,0,0,1-.31.16,35,35,0,0,0-5,6.23C119.17,206.25,118,207.29,117.12,208.54Z" transform="translate(-22.32 -24.73)"/><path class="cls-5" d="M64,169c-1.82,2.15-3.65,4.3-5.47,6.46l-8,9.62c-.56.67-1.16,1.32-1.7,2a.79.79,0,0,1-.8.38,47.92,47.92,0,0,0-4.27-3.66c-.58-.48-.75-.88-.13-1.43.19-.18.52-.38.39-.68s-.56-.24-.86-.24c-3.63,0-7.26,0-10.89,0a2.28,2.28,0,0,1-1.29-.13c4.15,0,8.3-.2,12.44,0a4.07,4.07,0,0,0,4.43-4.35c-.2-5.54-.07-11.09-.06-16.64,0-.29-.13-.65.23-.86.41.41.28,1,.35,1.45,0,1.41,0,2.82,0,4.23-.08,3.61,0,7.22,0,11.14,3.61-4.28,7-8.34,10.39-12.37a53.69,53.69,0,0,1,3.93-4.47c3.22-.12,6.46.26,9.65-.49.12.5-.2.83-.48,1.16-2.27,2.68-4.48,5.4-6.77,8.05A3.09,3.09,0,0,1,64,169Z" transform="translate(-22.32 -24.73)"/><path class="cls-6" d="M183.85,181.24H193a7.15,7.15,0,0,1,1.43.86c3.67,2.71,7.25,5.53,11,8.17.38.27.84.49,1,1,3.28,2.47,6.54,5,9.85,7.4.79.58.82,1,.24,1.67-1.05,1.31-2,2.66-3,4-.37.52-.62.56-1.13.18q-5.2-3.93-10.44-7.82c0-.39.31-.41.55-.5,1.2-.43,1.23-.45.7-1.65-1.12-2.52-.57-2.45-3.51-2.07a8.58,8.58,0,0,1-3.53.25q-5.58-4-11.08-8.21a1.6,1.6,0,0,1-.66-.83,3.1,3.1,0,0,1,.66-2.21C184.56,181.74,184.11,181.89,183.85,181.24Z" transform="translate(-22.32 -24.73)"/><path class="cls-6" d="M67.45,187.94l-9.34,5.49L54,195.82c-3.76,2.17-7.54,4.32-11.29,6.53-.74.44-1.1.44-1.53-.41-.71-1.42-1.54-2.79-2.39-4.14-.45-.72-.44-1.1.39-1.56,3.07-1.69,6.09-3.48,9.13-5.24.48-.28.93-.61,1.39-.91,2.93-1.43,5.63-3.26,8.5-4.79a36.93,36.93,0,0,1,3.94-2.19c.45-.31.76,0,1,.27,1.3,1.21,2.47,2.56,3.88,3.65C67.32,187.24,67.61,187.51,67.45,187.94Z" transform="translate(-22.32 -24.73)"/><path class="cls-2" d="M149,42H138.46c-1.08-.28-2.13-.67-3.19-1A23.37,23.37,0,0,0,127,40c-4.62.13-8.66,2-12.6,4.17-.41.23-.79.58-1.32.47l0-6a30.25,30.25,0,0,1,10.64-3.81,30.83,30.83,0,0,1,12.57.69A42.37,42.37,0,0,1,149,42Z" transform="translate(-22.32 -24.73)"/><path class="cls-5" d="M156.49,206.15l12,3.5c1.72.51,3.41,1.13,5.16,1.5,1.17.25,1.41.73,1,1.75a7.36,7.36,0,0,0-.21.93,19.39,19.39,0,0,0-1.12,3.51c-.22.75-.51.93-1.27.69-1.74-.55-3.51-1-5.27-1.52a13.78,13.78,0,0,1-4.38-1L154.08,213a2.79,2.79,0,0,1-1.2-.51.9.9,0,0,1,0-1.11c.92-1.62,1.89-3.21,2.88-4.8C155.91,206.37,156.09,206.05,156.49,206.15Z" transform="translate(-22.32 -24.73)"/><path class="cls-4" d="M196.09,192.48c1.47.35,2.88-.18,4.3-.39,1.73-.25,1.86-.26,2.53,1.33.17.41.4.79.56,1.19.65,1.65.64,1.65-1.2,2a2.26,2.26,0,0,0-.42.19l-.49.05c-2.82.1-5.57.71-8.36,1.07-3.65.47-7.29,1-10.93,1.56l-3.29.49c-.44.21-.78.13-.94-.36-.34-1-.88-1.94-1.17-3s-.17-1.37.91-1.55c2-.34,4-.59,6-.88l11-1.58C195.14,192.52,195.62,192.55,196.09,192.48Z" transform="translate(-22.32 -24.73)"/><path class="cls-4" d="M156.49,206.15a31.65,31.65,0,0,0-3.6,6.23c-1.44,2.7-3.11,5.26-4.67,7.88-.15.25-.42.36-.6.58-1,1.56-1.94,3.1-2.84,4.69-.33.58-.62.8-1.29.56-1-.36-2-.67-3.07-1-.57-.16-.59-.42-.32-.86.45-.75.89-1.51,1.33-2.27,2.09-3.5,4.18-7,6.3-10.51.25-.41.08-.55-.14-.77,1.36-1.39,2.08-3.2,3.14-4.79a3.76,3.76,0,0,1,1-1.22.9.9,0,0,0,.18-.16c1.47-2.05,1.46-2.05,3.9-1.25.3.1.59.23.9.3.88.18.84.62.47,1.28C156.91,205.3,156.5,205.63,156.49,206.15Z" transform="translate(-22.32 -24.73)"/><path class="cls-6" d="M84.48,215C88.24,210,92,205,95.75,199.91c.59-.81,1.09-1.12,2.06-.57a33.09,33.09,0,0,0,3,1.38A15.14,15.14,0,0,1,99,203.31l-9.74,13.15c-1.1,1.46-2.23,2.9-3.3,4.39a1,1,0,0,1-1.48.41c-.89-.45-1.82-.83-2.74-1.19-.6-.23-.7-.48-.28-1C82.51,217.74,83.48,216.38,84.48,215Z" transform="translate(-22.32 -24.73)"/><path class="cls-2" d="M66.7,93.08c.79-.25,1.6-.45,2.36-.77s1.08,0,1.08.83c0,3.63.06,7.26.1,10.9,0,.44,0,.87.07,1.31-.6,0-.52-.55-.53-.9a46.13,46.13,0,0,1,0-5,40.35,40.35,0,0,1-1.86,4c-.85,2-1.77,4-2.59,6a2.51,2.51,0,0,1-.57.9H59c.91-2.21,1.76-4.45,2.75-6.63,1.54-3.37,3.18-6.7,4.77-10C66.66,93.51,67,93.35,66.7,93.08Z" transform="translate(-22.32 -24.73)"/><path class="cls-2" d="M206.34,191.3l-13.14-9.76c-.09-.06-.14-.19-.21-.29h10.27c0,1,.6,1.33,1.38,1.57a5.25,5.25,0,0,1,.55.22c1.76.77,1.76.77,2.89-.72.33-.44.62-.92,1.21-1.07l.72,0c.61.29,1.5-.2,1.92.67-.17.16-.4.3-.48.5A46.69,46.69,0,0,1,206.34,191.3Z" transform="translate(-22.32 -24.73)"/><path class="cls-2" d="M147.62,220.84q2.37-4,4.73-8a2.43,2.43,0,0,1,.54-.46l13.92,4.13A69,69,0,0,1,158,219,89.63,89.63,0,0,1,147.62,220.84Z" transform="translate(-22.32 -24.73)"/><path class="cls-2" d="M88.39,105.12c0-.48,0-1,0-1.44q0-20.58,0-41.16,0-12.77,0-25.55c.42.39.23.9.23,1.36,0,7.28,0,14.56,0,22.11l6.18-6.93v8a5.91,5.91,0,0,1-1.33,2c-1.41,1.48-2.53,3.2-3.87,4.74a3.49,3.49,0,0,0-.63,2.49v32a13.84,13.84,0,0,1,0,1.44C88.85,104.53,88.9,105,88.39,105.12Z" transform="translate(-22.32 -24.73)"/><path class="cls-2" d="M189.82,104.68h5.79a52.27,52.27,0,0,0,1.81,5c.25.78.88.68,1.48.68q13.14,0,26.27,0c.47,0,1-.16,1.39.2h-29l-15.35,0c.23-.76.9-.53,1.4-.53,2.23,0,4.47,0,6.71,0,1.18,0,1.28-.16.85-1.25-.36-.89-.76-1.76-1.13-2.64C189.81,105.69,189.51,105.22,189.82,104.68Z" transform="translate(-22.32 -24.73)"/><path class="cls-2" d="M182.16,79.92l-.82.06a1.56,1.56,0,0,0-1.5,2,44,44,0,0,1,.89,5.11c-.73.06-.89-.57-1.17-1-1.23-1.9-2.37-3.86-3.54-5.82,0,5.9,0,11.77,0,17.65,0,.43.1,1-.52,1.18q0-9.75,0-19.5c0-.7.22-1,1-1,1.67,0,3.34,0,5,.06Z" transform="translate(-22.32 -24.73)"/><path class="cls-7" d="M211.93,181.91l-1.92-.67h7.43a3,3,0,0,0-.19.3c-.95,2-.95,2-3,1.24C213.49,182.48,212.71,182.2,211.93,181.91Z" transform="translate(-22.32 -24.73)"/><path class="cls-8" d="M175.49,99.12c.34-.47.19-1,.19-1.51,0-6,0-11.93,0-18.07a10,10,0,0,1,1.73,2.39,41.85,41.85,0,0,0,3.31,5.19c.94,3.34,1.4,6.78,2.12,10.17.46,2.14.86,4.29,1.24,6.44.13.73.46,1,1.19.93,1.51,0,3,0,4.54,0,.63,1.54,1.2,3.1,1.9,4.61.47,1,.11,1.13-.8,1.12-2.5,0-5,0-7.5,0-.43,0-.89-.14-1.25.21a6.36,6.36,0,0,0-3.18,1.28c-.37.37-.66.11-.93-.11a6.55,6.55,0,0,0-4.38-1.3q-20.34,0-40.68,0a2.16,2.16,0,0,0-.36,0c-5.66.85-11.34,0-17,.13-10.64.17-21.28.06-31.92,0-1.38,0-2.68.59-4,.62s-2.52-.84-3.88-.84l-11,0a25.7,25.7,0,0,1,2-5A59.78,59.78,0,0,1,70,98.58c0,2.06,0,3.81,0,5.55,0,.41-.18.89.26,1.22a2.26,2.26,0,0,0,2,.79c4.66,0,9.33,0,14,0a2.14,2.14,0,0,0,2.1-1c.33-.43.17-.92.17-1.39q0-16.82,0-33.64a3.09,3.09,0,0,1,.73-2.18,81.75,81.75,0,0,1,5.47-6.45l0,29.63V103.8c0,1.48.51,2,2,2H125c1.45,0,2-.55,2-2v-3.48c0-1.3-.58-1.89-1.87-1.89-3.64,0-7.28,0-10.91,0-.85,0-1.16-.14-1.16-1.09q.06-18,0-36.1c0-.8.27-1.07,1-1.28,3.94-1.14,7.86-2.38,11.81-3.51.88-.26,1.2-.62,1.14-1.56-.1-1.43,0-2.88,0-4.32s-.8-2.07-2.2-1.66c-3.56,1.06-7.12,2.11-10.66,3.21-.78.24-1.11.26-1.08-.73.08-2.24,0-4.48,0-6.72,4.08-2.45,8.25-4.56,13.17-4.88a24.21,24.21,0,0,1,11,1.52,3.71,3.71,0,0,1,1.25.68l-5.72,0A1.53,1.53,0,0,0,131,43.75c0,1.15,0,2.31,0,3.45a2.14,2.14,0,0,0,.79,2,2.09,2.09,0,0,0,1.28.14h16.42a1.91,1.91,0,0,1,1.74.57.68.68,0,0,1,.19.66c-.11.3-.39.2-.61.2H137.26a2,2,0,0,0-1.17.12,2.25,2.25,0,0,0-.84,2c0,7.91,0,15.83,0,23.75,0,1.61.43,2,2.07,2,6,0,12,0,18,0,.9,0,1.23.17,1.22,1.16-.05,5.72,0,11.43,0,17.15,0,1.55-.16,1.71-1.73,1.71h-3.48a1.48,1.48,0,0,0-1.64,1.61q0,2.1,0,4.2a1.48,1.48,0,0,0,1.63,1.63c5.47,0,10.95,0,16.43,0A7.79,7.79,0,0,0,175.49,99.12Z" transform="translate(-22.32 -24.73)"/><path class="cls-3" d="M223.18,141.09h3.72a1.32,1.32,0,0,1,1.51,1.45c-.06,6.08.24,12.16-.14,18.23a11.58,11.58,0,0,1-11.48,11c-11.6.09-23.2,0-34.8,0-1.11,0-1.58-.56-1.57-1.64,0-6,0-12.08,0-18.12a10.54,10.54,0,0,1,2.89-7.17c.19-.2.37-.41.55-.63,0,0,0-.07,0-.13-.27-.21-.59-.09-.89-.09a1.33,1.33,0,0,1-1.5-1.47q0-12.72,0-25.44c0-1,.57-1.5,1.58-1.5h42c2.09,0,2.22.13,2.22,2.27,0,4.4-.05,8.8,0,13.2a13,13,0,0,1-3.59,9.37C223.57,140.59,223.46,140.75,223.18,141.09Z" transform="translate(-22.32 -24.73)"/><path class="cls-3" d="M27.36,143.54V117.39c0-1.61.34-2,2-2H75.52c1.6,0,2,.37,2,2,0,6.88,0,13.75,0,20.63A11.85,11.85,0,0,1,65.5,150c-7.2,0-14.4,0-21.6,0-.92,0-1.21.22-1.21,1.19.05,6.24,0,12.47,0,18.71,0,1.64-.34,2-1.94,2H29.14c-1.37,0-1.77-.4-1.77-1.78Q27.35,156.81,27.36,143.54Z" transform="translate(-22.32 -24.73)"/><path class="cls-3" d="M153.36,171.83H133c-1.56,0-1.91-.35-1.91-1.89v-27.6c0-1.6.34-1.93,2-1.93,6.88,0,13.77-.12,20.64.05,3.63.09,6.51-1.75,6.58-6.31.05-3.88,0-7.76,0-11.64,0-1-.56-.87-1.17-.87H133.19c-1.88,0-2.14-.27-2.14-2.15v-2.16c0-1.46.39-1.86,1.82-1.86h40.68c1.78,0,2.1.33,2.1,2.08,0,5.8,0,11.6,0,17.4a11.13,11.13,0,0,1-8.29,11,12.13,12.13,0,0,1-3.55.43c-5.4,0-10.8,0-16.2,0-1,0-1.2.28-1.19,1.21q.06,8.52,0,17c0,1,.29,1.19,1.21,1.19,8.68,0,17.36,0,26,0,1.65,0,2,.34,2,1.94q0,1.14,0,2.28c0,1.36-.42,1.79-1.77,1.79Z" transform="translate(-22.32 -24.73)"/><path class="cls-3" d="M81.36,143.71v-26c0-1.7.31-2,2-2h42.94c1.62,0,1.86.25,1.87,1.89,0,.88,0,1.76,0,2.63,0,1.06-.46,1.52-1.52,1.52-3,0-6.08,0-9.12,0-6.56,0-13.11,0-19.67,0-.93,0-1.22.22-1.22,1.19q.06,20.87,0,41.74c0,1,.33,1.18,1.23,1.18,9.44,0,18.88,0,28.31,0,1.8,0,2,.19,2,2v2.16c0,1.52-.37,1.87-1.94,1.87H83.46c-1.78,0-2.1-.31-2.1-2.07Z" transform="translate(-22.32 -24.73)"/><path class="cls-8" d="M101.85,145.93c0-4.52,0-9,0-13.55,0-1,.29-1.18,1.21-1.17,8.63,0,17.27,0,25.9,0a3.9,3.9,0,0,0,3.11-.93c.28-.29.45-.17.68,0a4,4,0,0,0,2.71.74c6.19,0,12.39,0,18.59,0,.92,0,1.22.2,1.2,1.17,0,3.17,0,3.17-3.11,3.17-6.44,0-12.88,0-19.31,0a6.41,6.41,0,0,0-5.85,3.08,7.16,7.16,0,0,0-.94,3.78c0,5.79,0,11.59,0,17.38,0,.91-.24,1.13-1.13,1.13q-11-.06-22,0c-.91,0-1.14-.26-1.13-1.15C101.87,155,101.85,150.49,101.85,145.93Z" transform="translate(-22.32 -24.73)"/><path class="cls-4" d="M83.52,199,98,181.64c-.2-.39-.57-.2-.84-.2H86.23c-.42,0-.88.14-1.26-.19H98.42c2.59.17,5.19,0,7.78.08.37,0,.9-.23,1.07.23s-.25.73-.51,1a7.91,7.91,0,0,1-1.88,2,50,50,0,0,0-4.7,5.38c-2.78,3.21-5.46,6.52-8.19,9.78-.92,1.1-1.89,2.16-2.76,3.29-.45.59-.73.49-1.23.09s-1-1.17-1.85-1.27a12,12,0,0,1-2.63-2.23A.44.44,0,0,1,83.52,199Z" transform="translate(-22.32 -24.73)"/><path class="cls-8" d="M175.37,153.11c0,2.49,0,4.75,0,7,0,.5-.13.68-.68.67q-11.14,0-22.29,0c-.67,0-.8-.27-.78-.85a29.52,29.52,0,0,0,0-3.12c-.05-.78.27-.92,1-.91,4.19,0,8.39,0,12.58,0A16.83,16.83,0,0,0,175.37,153.11Z" transform="translate(-22.32 -24.73)"/><path class="cls-5" d="M175.93,195.58a2.73,2.73,0,0,0-1.44-.69,35.46,35.46,0,0,1-4.51-2.2c-1.21-.61-2.38-1.3-3.6-1.9a1.7,1.7,0,0,1-1-.95c-3.8-2-7.6-4-11.42-5.94a.94.94,0,0,1-.54-1.17,3.56,3.56,0,0,0,.21-1.29c-.08,0-.11-.08-.08-.12s0-.06.08-.06l24,0c-.25.75-.9.55-1.41.57-1.84,0-3.68,0-5.52,0-3.53-.06-7.07.08-10.3-.07,3.78,1.85,7.75,4.07,11.79,6.16,1.45.84,2.93,1.59,4.44,2.31a1.52,1.52,0,0,1,.93,2c-.22.77-.4,1.54-.58,2.32C176.68,194.94,176.89,195.83,175.93,195.58Z" transform="translate(-22.32 -24.73)"/><path class="cls-6" d="M153.6,181.26v.18H144c1,.83,1.76,1.51,2.57,2.16s.61.92-.1,1.44c-6.37,4.7-12.76,9.39-19.06,14.2-1.26,1-1.62-.06-2.32-.52a31.41,31.41,0,0,1,3.09-3.91c1.4-1.77,2.9-3.47,4.35-5.21l10.62-7.95c-.21-.39-.57-.2-.84-.2-2.2,0-4.4,0-6.59,0-.43,0-.89.15-1.26-.19Z" transform="translate(-22.32 -24.73)"/><path class="cls-8" d="M64,169l7.39-8.91c.3-.37.56-.77.85-1.15a19.27,19.27,0,0,0,4-2v13A86.82,86.82,0,0,1,64,169Z" transform="translate(-22.32 -24.73)"/><path class="cls-2" d="M59,163.9q-5.39,6.45-10.76,12.89l-.26-.1V165.38c.44-.36.83,0,1.23.09,1.28.43,2.55.88,3.86,1.2.72.18.85,0,.67-.71-.45-1.69-.86-3.39-1.27-5.09-.12-.48-.37-1,.07-1.46h5.28A14.27,14.27,0,0,1,59,163.9Z" transform="translate(-22.32 -24.73)"/><path class="cls-6" d="M104.88,184.57c.48-1.19,1.58-1.92,2.33-3.13-2.61,0-5.07,0-7.53,0-.42,0-.88.15-1.26-.18h13.93a31.05,31.05,0,0,0,4.56,3.61c.72.55.69.9.21,1.51-1,1.29-2,2.56-2.91,3.92-.48.72-.83.74-1.47.25C110.13,188.53,107.5,186.55,104.88,184.57Z" transform="translate(-22.32 -24.73)"/><path class="cls-9" d="M170.37,181.48l6,0c.42,0,.88.14,1.25-.21a4,4,0,0,0,3-2.54,4.61,4.61,0,0,0,3.25,2.55c.34.39.87,0,1.26.33-.15.76-.65,1.45-.55,2.28-.78,3.06-.83,3.09-3.78,2s-6.18-2.3-9.26-3.48C171.07,182.18,170.48,182.13,170.37,181.48Z" transform="translate(-22.32 -24.73)"/><path class="cls-10" d="M52.57,159.41a66.52,66.52,0,0,0,1.58,6.7c.31,1.24.36,1.22-.93.92-1.78-.41-3.48-1.08-5.21-1.65,0-1.54,0-3.08,0-4.61.84-1.09,2.19-1,3.32-1.37Z" transform="translate(-22.32 -24.73)"/><path class="cls-5" d="M128.65,181.27c-.82,1.36-1.66,2.72-2.44,4.1-.26.47-.51.61-1,.42a30.35,30.35,0,0,0-3.08-.94c-.71-.16-.74-.45-.43-1,.48-.86,1-1.73,1.43-2.6Z" transform="translate(-22.32 -24.73)"/><path class="cls-11" d="M59,163.9a13.44,13.44,0,0,1-1.18-4.49l4.78,0A39.11,39.11,0,0,1,59,163.9Z" transform="translate(-22.32 -24.73)"/><path class="cls-12" d="M209.29,181.26c-.53.69-1.09,1.37-1.58,2.09a1.13,1.13,0,0,1-1.62.44,20,20,0,0,0-2.19-.94c-.88-.3-1.24-.74-.64-1.59Z" transform="translate(-22.32 -24.73)"/><path class="cls-13" d="M51.34,159.4c-1,.71-2.27.77-3.32,1.37,0-.45,0-.91,0-1.36Z" transform="translate(-22.32 -24.73)"/><path class="cls-8" d="M153.63,71q0-6.36,0-12.71a38.43,38.43,0,0,1,5.47-.1c.55,0,.93.42,1.3.79,1.9,1.95,3.62,4,5.33,6.15,1.2,1.49,2.42,3,3.56,4.52.26.34.62.72.44,1.18s-.77.27-1.17.27q-7,0-13.9,0A1.8,1.8,0,0,1,153.63,71Z" transform="translate(-22.32 -24.73)"/><path class="cls-2" d="M153.63,71l15.08,0c.29,0,.69.17.85-.21s-.19-.52-.35-.72c-1.74-2.22-3.44-4.48-5.28-6.62A57.78,57.78,0,0,0,160,59a2.19,2.19,0,0,0-1.68-.71c-1.55,0-3.11,0-4.66,0,.23-.43.64-.22,1-.22,7.59,0,15.18,0,22.77,0,.93,0,1.23.22,1.21,1.19-.06,3.4,0,6.79,0,10.19,0,.38.15.81-.2,1.13-.5-.43-.36-1-.37-1.57,0-3,0-5.9,0-8.85,0-1.42-.09-1.51-1.47-1.51h-9.37c1.06,1.33,2,2.52,2.93,3.66,2,2.42,3.89,5,5.72,7.52.57.8,1.47.71,2.08,1.25-.24.3-.58.21-.89.21H154.57C154.26,71.28,153.84,71.51,153.63,71Z" transform="translate(-22.32 -24.73)"/><path class="cls-8" d="M177.87,71.08c-1.32.26-1.94-.53-2.65-1.5-2.78-3.78-5.62-7.52-8.91-11.25h2c2.95,0,5.91,0,8.86,0,.89,0,1.17.23,1.16,1.14,0,3.71,0,7.43,0,11.14A.71.71,0,0,1,177.87,71.08Z" transform="translate(-22.32 -24.73)"/><path class="cls-14" d="M136.09,50.88c.39-.43.9-.23,1.36-.23,4.59,0,9.18,0,13.88,0a1.92,1.92,0,0,0-2-1.2q-8.09,0-16.18,0c-.46,0-1,.21-1.35-.26.52,0,1,0,1.56,0h41.28c.51,0,1,.06,1.54.1l0,.16a2.69,2.69,0,0,1-1.84.33H159a3.3,3.3,0,0,0,2.09.44h13.42a2.76,2.76,0,0,1,1.84.32l.06.2c-.52,0-1,.08-1.55.08Z" transform="translate(-22.32 -24.73)"/><path class="cls-4" d="M67.45,187.94c-1.82-1.56-3.26-3.53-5.32-4.83a14.47,14.47,0,0,0-2.23-2.33c-.5-.49-.66-.89-.26-1.53.55-.88,1-1.8,1.5-2.73.31-.65.57-.44,1-.08,1.45,1.36,2.93,2.7,4.4,4.05a19.57,19.57,0,0,1,3.34,2.82,11.44,11.44,0,0,0,2.19,2c.55,1.36,1.79,2.1,2.78,3.05,1.75,1.69,3.55,3.32,5.35,5a.7.7,0,0,1,.16,1c-.56.92-1.11,1.84-1.61,2.8-.3.55-.51.7-1,.2q-3.47-3.3-7-6.53C69.61,189.83,68.52,188.89,67.45,187.94Z" transform="translate(-22.32 -24.73)"/><path class="cls-5" d="M83.52,199c.08.67.65.9,1.09,1.28s1,1.06,1.54,1.59c-.09.7.41,1.57-.05,2s-1.28,0-1.94-.14c-3.38-.46-6.75-1-10.12-1.5-4.12-.61-8.24-1.25-12.37-1.83-.79-.11-1.17-.33-1.25-1.22a16.93,16.93,0,0,0-.22-2.48c-.31-1.28.28-1.25,1.2-1.11,5.6.88,11.21,1.73,16.82,2.59Z" transform="translate(-22.32 -24.73)"/><path class="cls-6" d="M72,185.29c-.22.06-.42.18-.65,0l-4.88-4.76c2.13-1.23,4.28-2.44,6.4-3.7.7-.42,1.07-.34,1.46.42.77,1.48,1.64,2.91,2.51,4.33.37.62.32.94-.36,1.28C75,183.57,73.61,184.64,72,185.29Z" transform="translate(-22.32 -24.73)"/><path class="cls-5" d="M115.2,200.4a27.06,27.06,0,0,1-2.89,3.61c-1.83-1.72-3.66-3.44-5.51-5.14a.86.86,0,0,1-.19-1.24c.52-.89,1-1.79,1.49-2.73.33-.69.58-.66,1.1-.16C111.17,196.65,113.19,198.52,115.2,200.4Z" transform="translate(-22.32 -24.73)"/><path class="cls-15" d="M176.35,50.59c-5.5,0-11,0-16.51.06-.76,0-1.13-.47-1.69-1.17h18Z" transform="translate(-22.32 -24.73)"/><path class="cls-6" d="M165.35,189.84c2.49,1.32,5,2.65,7.46,4a6.38,6.38,0,0,1,1.68,1.09c-3.6,1-7.2,1.94-10.81,2.86-5.85,1.49-11.72,2.92-17.57,4.41-.39.1-1.05-.07-1.14.63a2.76,2.76,0,0,1-2.65-.95c-.39-1.54-.77-3.09-1.18-4.63-.18-.67-.12-1,.73-1.21,7.49-1.85,15-3.77,22.44-5.66A1.6,1.6,0,0,0,165.35,189.84Z" transform="translate(-22.32 -24.73)"/><path class="cls-5" d="M142.32,201.84l2.65.95c2.27.52,4.49,1.24,6.71,1.93-.9,1.94-2.15,3.69-3.22,5.53a.85.85,0,0,1-.87.48c-3.75-1.08-7.51-2.13-11.24-3.26-.86-.26-2.08-.14-2.48-.95s.4-1.63.58-2.48c.23-1,.66-2,.9-3.1.2-.85.61-.95,1.35-.7A52.15,52.15,0,0,0,142.32,201.84Z" transform="translate(-22.32 -24.73)"/><path class="cls-5" d="M117.12,208.54c-.33-.81.51-1,.83-1.38A6.53,6.53,0,0,1,120,205q3.51,3.24,7,6.46c.46.42.57.75.19,1.31a21.5,21.5,0,0,0-1.48,2.6c-.37.79-.67.63-1.19.13-2.32-2.2-4.66-4.36-7-6.53C117.44,208.79,117.28,208.67,117.12,208.54Z" transform="translate(-22.32 -24.73)"/><path class="cls-2" d="M170.37,181.48c2.54,1.25,5.26,2,7.88,3.08,1.4.57,2.84,1,4.23,1.63.66.29.88.1,1.16-.47s.21-1.45.92-1.87l11.53,8.63c-1.51.82-3.23.68-4.85.93-4.62.72-9.27,1.32-13.9,2-.46.07-.81.29-.62.79.44,1.2.94,2.37,1.43,3.55.11.25.41.2.64.22a.66.66,0,0,1-1.11-.1c-.64-1.39-1.18-2.83-1.75-4.25.69-.11.51-.75.72-1.16,1.09-.85,2.46-.85,3.71-1.21,1.71-.49,1.73-.45,1.28-2.17-.28-1.08-.64-2.14-.85-3.23-.17-.9-.6-1.2-1.51-.94-1.57.45-3.18.75-4.74,1.24a3.88,3.88,0,0,1-2.45.08c-4.16-2.18-8.32-4.37-12.81-6.71Z" transform="translate(-22.32 -24.73)"/><path class="cls-1" d="M139.85,104.64H133c-1.5,0-2.07-.69-1.79-2.14q2.09-10.68,4.16-21.37c.16-.82.44-1.17,1.37-1.15,4.56,0,9.11,0,13.67,0,1.5,0,2.06.68,1.78,2.16-1.39,7.12-2.8,14.24-4.17,21.37-.16.83-.43,1.17-1.35,1.14C144.4,104.58,142.12,104.64,139.85,104.64Z" transform="translate(-22.32 -24.73)"/><path class="cls-1" d="M213.6,154.33c0,2.39,0,4.79,0,7.18,0,2.56-1.16,3.93-3.68,4.12-4.66.36-9.34.08-14,.15-.55,0-.79-.22-.79-.79,0-5.11,0-10.22.05-15.34,0-2.32,1.78-3.86,4.45-3.91,4.39-.1,8.78,0,13.18-.05.77,0,.8.39.8,1Q213.59,150.49,213.6,154.33Z" transform="translate(-22.32 -24.73)"/><path class="cls-1" d="M196.29,130.61c0-2.56,0-5.11,0-7.67,0-1,.19-1.31,1.23-1.29,4.59,0,9.19,0,13.78,0,.85,0,1.19.17,1.18,1.11-.06,4.27,0,8.55,0,12.83,0,2.55-1.35,4-3.87,4-3.79.07-7.59,0-11.38,0-.81,0-.9-.38-.89-1C196.3,136,196.29,133.29,196.29,130.61Z" transform="translate(-22.32 -24.73)"/><path class="cls-1" d="M42.72,132.74c0-3.32,0-6.63,0-10,0-1,.31-1.19,1.22-1.19,5.68,0,11.36.05,17,0,1,0,1.26.31,1.25,1.28,0,5.36,0,10.72,0,16.07a4.74,4.74,0,0,1-5,5c-4.4,0-8.79,0-13.19,0-1.05,0-1.24-.36-1.23-1.3C42.75,139.38,42.72,136.06,42.72,132.74Z" transform="translate(-22.32 -24.73)"/><path class="cls-6" d="M172.09,188.19c2.41-.15,4.63-1.11,7-1.6,1.68-.37,1.67-.42,2.1,1.27.36,1.42.69,2.86,1.1,4.27.19.65.06.94-.62,1.09-1.67.36-3.32.79-5,1.2a19.64,19.64,0,0,1,.57-2.32c.33-.89,0-1.29-.79-1.66C175,189.74,173.54,188.94,172.09,188.19Z" transform="translate(-22.32 -24.73)"/><path class="cls-2" d="M208.53,157.18c0,1.12,0,2.23,0,3.34-1,.2-1.76-.42-2.64-.61-.61-.14-1.16-.31-1.54.41a.73.73,0,0,1-.72.35,19,19,0,0,1-3.2-.1c0-1.19,0-2.37-.06-3.56a1.5,1.5,0,0,1,1.63-1.74c1-.06,2,0,3,0a2.6,2.6,0,0,0,1.56,1A3.53,3.53,0,0,1,208.53,157.18Z" transform="translate(-22.32 -24.73)"/><path class="cls-16" d="M200.41,160.57h2.16c.78,0,1.64.22,1.76-1,0-.46.51-.25.79-.16l3.39,1.14c-.09.22-.29.24-.49.24l-7.1,0A.52.52,0,0,1,200.41,160.57Z" transform="translate(-22.32 -24.73)"/><path class="cls-17" d="M208.53,157.18c-.95-.27-1.89-.58-2.85-.81a.86.86,0,0,1-.74-1.11c.79,0,1.59,0,2.37-.06,1.05-.14,1.45.24,1.26,1.28A5.48,5.48,0,0,0,208.53,157.18Z" transform="translate(-22.32 -24.73)"/><path class="cls-18" d="M207.36,131.29a9.27,9.27,0,0,1,.16,2.83c0,.42-.23.54-.61.54-1.64,0-3.28,0-4.92,0-.47,0-.63-.22-.62-.66,0-.76,0-1.52,0-2.28,0-.3.06-.59.43-.57,1.85.09,3.71-.36,5.55.16-.58.51-1.29.28-2,.35-.43,0-1.1-.17-1.08.57s-.05,1.42.69,1.78a1.29,1.29,0,0,0,2-1.21C207.05,132.25,207,131.71,207.36,131.29Z" transform="translate(-22.32 -24.73)"/><path class="cls-2" d="M53,131.07c1.12,0,2.24,0,3.36,0,.58,0,.76.19.75.76,0,2.16,0,4.32,0,6.48,0,.54-.22.67-.71.67-2.64,0-5.28,0-7.92,0-.4,0-.73,0-.73-.56,0-2.4,0-4.8.05-7.19,0,0,.11-.1.17-.15a2,2,0,0,1,.34,1.47c0,1.48,0,2.95,0,4.43,0,.7,0,1.34,1,1.39,1.69.1,2.08,0,2.24-1.2.2-1.59.5-3.15.82-4.71A2.32,2.32,0,0,1,53,131.07Z" transform="translate(-22.32 -24.73)"/><path class="cls-19" d="M53,131.07c-.39,2.34-1,4.66-1.17,7,0,0,0,.09,0,.12-.89,1.11-2.11.29-3.16.51-.62.13-.68-.34-.68-.83,0-2.27,0-4.55,0-6.82Z" transform="translate(-22.32 -24.73)"/><path class="cls-20" d="M207.36,131.29c0,.39,0,.79,0,1.18,0,2-.56,2.39-2.54,2-.38-.09-.47-.3-.56-.64-.67-2.51-.68-2.51,1.94-2.51h1.19Z" transform="translate(-22.32 -24.73)"/></svg>