<svg id="圖層_1" data-name="圖層 1" xmlns="http://www.w3.org/2000/svg" viewBox="0 0 210.9 199.02"><defs><style>.cls-1{fill:#197982;}.cls-2{fill:#f7e0a3;}.cls-3{fill:#197a82;}.cls-4{fill:#46c6be;}.cls-5{fill:#f7bfa3;}.cls-6{fill:#197a83;}.cls-7{fill:#f6e0a3;}.cls-8{fill:#f6bfa4;}.cls-9{fill:#f3dea3;}.cls-10{fill:#299396;}.cls-11{fill:#499ea2;}.cls-12{fill:#fefefe;}.cls-13{fill:#fcfdfd;}.cls-14{fill:#fafcfc;}.cls-15{fill:#edf6f5;}.cls-16{fill:#e9f3f3;}.cls-17{fill:#d5e7e7;}.cls-18{fill:#eff4f2;}.cls-19{fill:#e0eeee;}.cls-20{fill:#d6e9e9;}.cls-21{fill:#cde7e6;}.cls-22{fill:#77c9c5;}.cls-23{fill:#fbfdfd;}.cls-24{fill:#c1dfdf;}.cls-25{fill:#29898f;}.cls-26{fill:#dbe8e9;}.cls-27{fill:#cfe6e6;}.cls-28{fill:#d7e9e9;}.cls-29{fill:#d1e1e2;}.cls-30{fill:#dbf1f0;}.cls-31{fill:#c0dfdf;}.cls-32{fill:#bdd8d9;}.cls-33{fill:#98d2d0;}.cls-34{fill:#83c4c2;}.cls-35{fill:#eff5f5;}.cls-36{fill:#d6e9e8;}.cls-37{fill:#c8e5e4;}.cls-38{fill:#c2dfdf;}.cls-39{fill:#d9e8e8;}.cls-40{fill:#e2efef;}.cls-41{fill:#eef3f4;}.cls-42{fill:#d1e4e4;}.cls-43{fill:#f2f9f8;}.cls-44{fill:#c9e9e7;}.cls-45{fill:#b4d7d7;}.cls-46{fill:#c4e5e3;}.cls-47{fill:#d6eceb;}.cls-48{fill:#eaf3f3;}.cls-49{fill:#99c9c9;}.cls-50{fill:#e3f1f1;}.cls-51{fill:#cae0e2;}.cls-52{fill:#6fc9c4;}.cls-53{fill:#82c4c3;}.cls-54{fill:#8ec7c6;}.cls-55{fill:#c0e3e1;}.cls-56{fill:#5ad2bd;}.cls-57{fill:#fdfefe;}.cls-58{fill:#f2f8f8;}.cls-59{fill:#f3f8f8;}.cls-60{fill:#dfefee;}.cls-61{fill:#98cbcb;}.cls-62{fill:#c2e2e1;}.cls-63{fill:#e6f1f1;}.cls-64{fill:#f9fcfc;}.cls-65{fill:#dfeaeb;}.cls-66{fill:#f6fbfa;}.cls-67{fill:#deebec;}.cls-68{fill:#cce7e7;}.cls-69{fill:#f1f6f6;}.cls-70{fill:#edf5f5;}.cls-71{fill:#e6f3f2;}.cls-72{fill:#8bc3c3;}</style></defs><title>24</title><path class="cls-1" d="M72.57,114.49c-.93-4.78-1.85-9.56-2.8-14.33Q64.69,74.5,59.56,48.84c-.27-1.37-.56-2.74-.79-4.12-.72-4.32.95-8,5-9.67,2.61-1.09,5.3-1.77,8.17-1A7.54,7.54,0,0,1,77.75,40C79,45.53,80,51.14,81.17,56.74c.08.39.17.77.29,1.32,1.94-1.77,3.72-3.53,5.41-5.39,2.69-3,5.36-5.93,8-8.9a7.07,7.07,0,0,1,6.41-2.16c.48,0,.68,0,.85-.45a8.28,8.28,0,0,1,6.33-5.43L136.55,29l1.26-.33c-.5-1.84-1.19-3.56-.73-5.53a10.82,10.82,0,0,1,9-8.57,10,10,0,0,1,8.48,2.63,32.27,32.27,0,0,1,4.57,5.21,1.73,1.73,0,0,0,2.17.78c9.65-2.35,19.33-4.59,29-7a8.64,8.64,0,0,1,9.94,5.29,12,12,0,0,1,.3,8.31c-1.1,3.11-3.47,4.65-6.57,5.27.15-1.47.73-2.85.8-4.33.36-.59,1-.89,1.41-1.45,1.74-2.39.74-7.19-1.82-8.67a4.3,4.3,0,0,0-3.35-.41c-5.87,1.43-11.74,2.82-17.61,4.24-4.4,1.05-8.8,2.07-13.18,3.19a2.6,2.6,0,0,1-3.09-1.11,54.2,54.2,0,0,0-5-5.86,6.09,6.09,0,0,0-6.55-1.75c-2.47.75-3.68,2.66-4.49,4.93-.37,1.06.2,2.05.29,3.07a1.4,1.4,0,0,1-.23.78,6,6,0,0,0-1.19,4,.87.87,0,0,1-.21.54,2.72,2.72,0,0,1-1.31.54c-9.08,2.15-18.14,4.37-27.23,6.52a17.68,17.68,0,0,0-2.74.84,4.23,4.23,0,0,0-2.78,4.2,11.61,11.61,0,0,0,.06,1.67,2.27,2.27,0,0,1-.75,1.84c-.71-.12-1.14-.68-1.7-1.06a5.21,5.21,0,0,0-3.1-1.11,3.2,3.2,0,0,0-2.43,1.08C94,50.88,90.36,55.25,86.28,59.2a69.53,69.53,0,0,1-5.88,5.1c-.38.29-.77.79-1.36.35a7.67,7.67,0,0,1-.82-2.85c-.91-4.37-2-8.7-2.75-13.1-.08-.4-.1-.8-.18-1.19a1.77,1.77,0,0,1-.08-.31A6.37,6.37,0,0,0,75,46.14a2.81,2.81,0,0,1-.08-.31,6.7,6.7,0,0,0-.23-1.08c-.09-.34-.16-.67-.26-1A26.81,26.81,0,0,0,73.81,41a4.07,4.07,0,0,0-4-3.08,8.93,8.93,0,0,0-5.14,1.31c-1.86,1.14-2.17,2.94-1.91,4.91.16,1.19.37,2.36.63,3.53a5.36,5.36,0,0,0,.21,1.25,8.38,8.38,0,0,0,.29,1.39c.14.56.23,1.14.36,1.7a4.31,4.31,0,0,0,.3,1.12,1,1,0,0,1,.13.51,18.36,18.36,0,0,0,.6,3.36c1.73,8.9,3.59,17.78,5.33,26.68,2.9,14.84,5.9,29.66,8.86,44.48a14.82,14.82,0,0,0,.58,2.2,6.68,6.68,0,0,0,5.41,4.39A11.46,11.46,0,0,0,90,134.6c4.7-1,9.42-1.85,14-3.19a27.33,27.33,0,0,0,6.31-2.57,10.85,10.85,0,0,0,5.12-7.64,18.63,18.63,0,0,0,.4-6.66c-.09-.59,0-1.2-.05-1.8s0-1.06,0-1.59a17.75,17.75,0,0,1-.22-3,6.55,6.55,0,0,1-.2-1.16c0-.64,0-1.28,0-1.92,0-.18-.08-.36-.12-.54a19.68,19.68,0,0,0-.22-2,5.43,5.43,0,0,1-.09-.56,10.36,10.36,0,0,0-.08-1.11c-.22-1.1-.3-2.22-.53-3.31C113.16,92,109.6,90.94,105,93a3.74,3.74,0,0,0-2.34,3.59c0,.8,0,1.6,0,2.4a11.19,11.19,0,0,0,.15,2.77c.11,1.88.57,3.71.8,5.57a3.51,3.51,0,0,0,.13,1.12c.08.38.16.75.26,1.12,0,1.8-.26,3.53-1.84,4.69-.69.51-1.47,1-2.38.37-.46-1.43-.22-2.92-.35-4.38-.27-3-.94-5.9-1.19-8.88a13.42,13.42,0,0,1-.09-1.79c.21-5.26,2.64-8.2,7.73-9.56a10.13,10.13,0,0,1,9.27,1.64,9.24,9.24,0,0,1,2.82,4.08,20.09,20.09,0,0,1,1,3.32c1,4.46.9,9,1.5,13.76a120.22,120.22,0,0,0,6.54-11.43c1.27-2.53,2.42-5.11,3.55-7.7-.44-.4-.82-.11-1.17-.05-4.82.94-8.7-1.16-10.6-5.72a29,29,0,0,1-1.41-5.32c-1.34-6.46-2.59-12.93-3.84-19.41A10.83,10.83,0,0,1,115,55a.72.72,0,0,0,.14-.59c-1.42.35-2.85.58-4.24,1a1.42,1.42,0,0,0-.78.86,37.91,37.91,0,0,1-6.52,9.15A90,90,0,0,1,87.76,79c-1.4,1-1.43,1-1.09,2.65,1.36,6.82,2.7,13.65,4.1,20.46.7,4.08,1.62,8.12,2.39,12.18a3.2,3.2,0,0,1,.13,1.76,2,2,0,0,1-3.17-1.09,14.49,14.49,0,0,1-.6-2.44Q86,96.21,82.4,79.93c-.48-2.24-.45-2.24,1.51-3.44a85.07,85.07,0,0,0,16.53-12.65,51.14,51.14,0,0,0,4.3-5,6.14,6.14,0,0,0,1.56-4.29,4.23,4.23,0,0,1,.25-1.41.7.7,0,0,1,.37-.45c.15,0,0-.09.11,0,2.11,1.65,4.36,1,6.63.46q33.74-7.43,67.47-14.78c3.36-.74,6.74-1.38,10.05-2.29.39-.1.78-.24,1.14.07a8.11,8.11,0,0,1,4.92,6.06c1.67,8.25,3.43,16.48,4.89,24.76.91,5.13-2,8.84-6.59,10.2-1.82.54-3.69.93-5.88,1.47l7.63,4.1a49.28,49.28,0,0,1,10.3,6.86A20.42,20.42,0,0,1,212,94.15a17.59,17.59,0,0,1,1.88,3.22c1.21,2.39.88,4.8,0,7.18a11.13,11.13,0,0,1-3.86,5.22c-3.41,2.57-6.31,2.6-10.14.47a19,19,0,0,1-3.24-2.26,77,77,0,0,0-12.33-8.47c-1.86-1.09-3.66-2.29-5.49-3.42-3.93-2.42-5.26-6-5-10.41a15,15,0,0,1,1-3,.14.14,0,0,0-.2-.09c-2.47.65-2.27.31-1.79,2.8.08.39.16.78.27,1.16,1.4,7.17,2.92,14.32,4.25,21.5a15.81,15.81,0,0,1-.07,7.11c-1.18,4.42-3.91,7.22-8.42,8.19a8.72,8.72,0,0,1-3.86.41,41.93,41.93,0,0,1-12.35-.48,7.16,7.16,0,0,1-6.16-2.81,10,10,0,0,1-2.27-7.59,12.56,12.56,0,0,1,.31-1.35c0-.06.05-.13.06-.2s0-.14,0,0a10.33,10.33,0,0,1-.41,1,88.48,88.48,0,0,1-6.71,11.89,19.73,19.73,0,0,1-3.42,4,8.05,8.05,0,0,1-9.28,1.09,11.9,11.9,0,0,1-5.27-4.85c-.42.14-.43.45-.53.7a15,15,0,0,1-8.75,8.85,67.33,67.33,0,0,1-11,3.23c-3.71.8-7.38,1.91-11.18,2.08-5.88.28-11-2.62-12.44-8.79-1.12-4.83-2-9.72-3-14.57C72.44,115.41,72.72,115,72.57,114.49Z" transform="translate(-11.06 -14.47)"/><path class="cls-2" d="M144.49,112.74c-.21,3.82.92,7,4.25,9.24,1.2.8,2.63.79,3.91,1.28-.2.55.23.9.44,1.3a48,48,0,0,1,5.3,17.23,39.83,39.83,0,0,1,.07,9.88.38.38,0,0,1-.22.39,15.48,15.48,0,0,0-4.71,3.84c-3.69,3.84-7.69,7.35-11.4,11.15a9.5,9.5,0,0,0-2.35,3.58c-1.34,4,.75,8,4.87,9.87.31.15.74.12.83.58a4.2,4.2,0,0,0-.77.53,47,47,0,0,1-13.57,9.87,2,2,0,0,0-.37.29c-.55,0-.84-.41-1.18-.74q-4.43-4.4-8.82-8.82c-1.16-1.17-1.16-1.43,0-2.64l14-14a17.78,17.78,0,0,0,1.8-2.08,7.39,7.39,0,0,0,.76-8.05,7.68,7.68,0,0,0-7-4.61,7.15,7.15,0,0,0-5.4,2.23q-7.89,8-15.86,15.87c-.49.48-.95,1.42-1.68,1.11s-.37-1.3-.37-2c0-3.32,0-6.64,0-10a7.07,7.07,0,0,0-5.14-7.12c-3.7-1.06-7.22.11-9.09,3.05a10.12,10.12,0,0,0-1.21,4.47c0,.2,0,.4,0,.6,0,.5.16,1.22-.41,1.38s-.81-.53-1.09-.94a19.24,19.24,0,0,0-13-8.63,21.3,21.3,0,0,0-3.57-.38c-3.84,0-7.69-.15-11.52,0-3,.15-5.91.17-8.87.19-.48,0-1,.16-1.39-.41,2.46-.3,4.92-.05,7.38-.14.41,0,.88.16,1.24-.22.33-.58.94-.53,1.48-.63,4.09-.81,7-3,8.24-7.12a6.07,6.07,0,0,0,.12-3.08c-1.08-5.29-2.09-10.59-3.13-15.88-.09-.44-.38-.92.07-1.34,1.24-1.09,1.89-2.63,2.86-3.92a19.68,19.68,0,0,0,2.63-3.52c.94,4.65,1.87,9.3,2.84,14a15,15,0,0,0,1.75,5.31c2.89,4.49,7.28,5.85,12.18,5.07a113.9,113.9,0,0,0,19-4.47c4.37-1.49,7.9-4,9.9-8.28.37-.79.65-1.63,1-2.45.45.06.47.5.65.78a10.84,10.84,0,0,0,8.65,5.52c2.73.19,5-1.27,6.72-3.35,3.24-3.8,5.48-8.22,7.77-12.62.33-.63.68-1.26,1-1.88C144.34,112.16,144.31,112.52,144.49,112.74Z" transform="translate(-11.06 -14.47)"/><path class="cls-3" d="M51.68,150.34c7.12,0,14.23,0,21.35-.05,7.52-.06,13.29,3.12,17.46,9.32l.76,1.11a44.91,44.91,0,0,1,.42-4.94c.79-3.65,5.21-6.1,8.7-5.51a8.2,8.2,0,0,1,5.57,3.18,7.64,7.64,0,0,1,1.42,4.72c0,3.88,0,7.76,0,11.64,0,0,0,.06.13.21.32-.29.63-.56.93-.85l15.87-16c2.55-2.58,5.58-3.42,9-2a8.3,8.3,0,0,1,5.28,7.65,8,8,0,0,1-2.74,6.17c-5,5-10,10.05-15,15-.68.68-.78,1,0,1.76,3.37,3.3,6.66,6.68,10,10,2.41,2.45,4.72,5,7.24,7.33a8,8,0,0,1-1.23,12.82,7.61,7.61,0,0,1-8.26.07,16.09,16.09,0,0,1-3.44-2.77l-12.2-12c-.25-.25-.54-.46-.81-.69a14,14,0,0,1-2.85-2.53,8.67,8.67,0,0,0-1.54-1.31c0,1.8-.14,3.4-.21,5-.13,2.79,0,5.59-.06,8.38-.28,2.46-1,4.73-3.25,6.08-2.87,1.71-7.12,2-10-.2a5.66,5.66,0,0,1-2.17-3.2c-.2-.81-.37-1.63-.55-2.45-.06-4,0-8.05,0-12.08a2.58,2.58,0,0,0-.11-1.29v0a1.38,1.38,0,0,1-.34-1.11c0-3.74,0-7.48,0-11,0-.38-.23-.28-.07-.28s.08,0,.08.08c.07.35-.16.6-.32.86a19.14,19.14,0,0,1-6.78,6.6,3.8,3.8,0,0,1-1.46.47,25.28,25.28,0,0,1-9.87,1.52c-4.11-.1-8.23,0-12.35,0-.91,0-1.22.18-1.21,1.16.06,4.32,0,8.64,0,13a15,15,0,0,1-.43,3.67,6.42,6.42,0,0,1-2.89,4.1c-3.72,2.3-9,1.75-11.37-2.07A8.86,8.86,0,0,1,43,205.16c0-15-.07-30.07,0-45.1a9.33,9.33,0,0,1,4.45-8.4A13.37,13.37,0,0,1,51.68,150.34Z" transform="translate(-11.06 -14.47)"/><path class="cls-4" d="M29.56,124a4.91,4.91,0,0,1,1.4-1.12,3.8,3.8,0,0,0,.8-.58,70.68,70.68,0,0,0,11.16-9.71,65.11,65.11,0,0,0,4.62-5.33c1.26-1,1.4-2.25,1-3.84-1.71-7.55-3.32-15.13-5-22.68-.17-.76-.27-1.6-1.42-1.19a42.91,42.91,0,0,1-5.26,1.16,3.53,3.53,0,0,0-1.75.35,2.38,2.38,0,0,1-.53.11,4.05,4.05,0,0,0-1.5.26,2.63,2.63,0,0,1-1.11.35,4.91,4.91,0,0,0-1.9.29,3.45,3.45,0,0,0-1.21.36.87.87,0,0,1-.32.06,8.4,8.4,0,0,0-1.93.34c-.61.16-1.24.26-1.85.42a2.14,2.14,0,0,1-.34.09c-.66.15-1.33.26-2,.43a4.56,4.56,0,0,1-4.57-2.66,9.18,9.18,0,0,1-1.16-4.12,5.22,5.22,0,0,1,4.37-5.6c4.65-1,9.3-2,14-3.06l4-.86c1.27-.27,1.36-.43,1.06-1.73-.78-3.39-1.47-6.8-2.24-10.19s.9-6.07,4.38-6.86a8.53,8.53,0,0,1,5.84.56,1.13,1.13,0,0,0,.8.15,5.44,5.44,0,0,1,1.52,2.92l9,41.13c2.75,12.53,5.42,25.08,8.27,37.59a6.24,6.24,0,0,1-1.23,5.69,11.09,11.09,0,0,1-6.68,1.85,4.14,4.14,0,0,1-4.16-3.43q-1.53-7-3-13.94c-.1-.45-.08-1-.54-1.34-1.82,1.8-3.39,3.82-5.25,5.57a68.37,68.37,0,0,1-10.17,8.18c-3.3,2.07-6.39,1.16-8.22-2.3a9.13,9.13,0,0,1-.63-1.43c-.33-1.77-.52-3.51.88-5C28.9,124.52,29.29,124.29,29.56,124Z" transform="translate(-11.06 -14.47)"/><path class="cls-5" d="M165,123.74c1.21-.23,2.42-.45,3.62-.7,4.86-1,7.58-4.07,8.54-8.87.58-2.91,0-5.71-.6-8.53-1.22-6.14-2.46-12.28-3.68-18.42a7.71,7.71,0,0,1-.08-.84c.24-.55.59-.92,1.27-.75-.27,4.41,1.14,8,5.09,10.33,3.6,2.15,7.11,4.45,10.71,6.59a78.93,78.93,0,0,1,7.28,5.46,15.66,15.66,0,0,0,6.19,3.27,6.92,6.92,0,0,0,5.16-.86,11.85,11.85,0,0,0,5.84-9.15c.18-1.35-.43-2.59-.5-3.9a21,21,0,0,1,2.4,7.7,26,26,0,0,1-1.39,13.41c-3.74,9.67-10.7,15.78-20.89,17.74-9.75,1.88-18.19-1-25.21-8a23.62,23.62,0,0,1-2.86-3.53C165.65,124.3,165.49,123.85,165,123.74Z" transform="translate(-11.06 -14.47)"/><path class="cls-4" d="M139.74,32.06c-.44-2,.57-3.61,1.49-5.24,1.89-2.49,6.34-3,9-1a27.14,27.14,0,0,1,5.36,5.45,3.14,3.14,0,0,0,3.7,1.26Q174.13,29.15,189,26a5,5,0,0,1,5.9,4.73A7.06,7.06,0,0,1,194,35l-1.64,1.14c-7.67,2-15.44,3.47-23.16,5.19C157.55,44,145.92,46.42,134.3,49c-7.78,1.69-15.55,3.38-23.31,5.13a4.49,4.49,0,0,1-4.13-1.32,6.11,6.11,0,0,1-1.88-5l.65-1.69c.41-1.56,1.65-2.17,3-2.53,3.17-.83,6.38-1.48,9.58-2.18l23.18-5.08c1-.23,1.09-.38.4-1.19A8.77,8.77,0,0,1,139.74,32.06Z" transform="translate(-11.06 -14.47)"/><path class="cls-3" d="M66.23,136.74a1.63,1.63,0,0,1,.39-1,4.31,4.31,0,0,0,.86-4.12c-2.38-10.65-4.7-21.3-7-32Q55.79,78.35,51.14,57c-.35-1.59-.78-3.17-1.06-4.78-.19-1.06-.93-1.83-1.27-2.8a.91.91,0,0,1-.47-.66c-.75-2.62-2.91-3.22-5.16-3.27s-4.31.45-5.65,2.52a5.31,5.31,0,0,0-.78,4.12c.84,4.11,1.65,8.22,2.47,12.34.36,1.78.23,2-1.5,2.43-5.6,1.35-11.18,2.72-16.78,4-.67.15-1.33.3-2,.5a5,5,0,0,0-3.71,4.75,10,10,0,0,0,1.18,5.43,4,4,0,0,0,4.67,2.24,7,7,0,0,0,1.64-.28,5.74,5.74,0,0,0,1.9-.58v0a7.63,7.63,0,0,0,2.06-.37c.64-.11,1.27-.29,1.92-.36l.25,0a2.58,2.58,0,0,1,1.19-.32A5.1,5.1,0,0,1,32,81.54c.43.1.65-.27.94-.46.63.19,1.17-.18,1.76-.24l.44,0a11,11,0,0,1,1.68-.45A37.93,37.93,0,0,0,42,79.16a2.38,2.38,0,0,1,.61,1.4q2.48,12.33,4.92,24.66a3.31,3.31,0,0,1,0,2.22A23.32,23.32,0,0,1,44,111.82,61.72,61.72,0,0,1,32.45,122c-.23.14-.49.24-.73.37-.08-.06-.1-.11-.07-.17s.05-.08.08-.08a119.74,119.74,0,0,0,11.16-12.34,3.45,3.45,0,0,0,.83-3.12c-1.51-7.26-2.94-14.55-4.35-21.83-.19-1-.53-1.13-1.47-.9C32.6,85.27,27.26,86.45,22,87.83a8.07,8.07,0,0,1-9.26-4.41c-1.54-3.27-2.25-6.67-1-10.21a8,8,0,0,1,5.87-5.61c5.36-1.29,10.71-2.59,16.07-3.84,1-.22,1.28-.46,1-1.55-.75-3.31-1.3-6.66-2-10C31.76,48.16,34.74,43.17,39,42a13.19,13.19,0,0,1,7.77,0c2.77.9,4.8,2.56,5.4,5.53,1.86,9.11,3.67,18.23,5.5,27.34q4.7,23.55,9.4,47.08c1.12,5.68,2.21,11.36,3.37,17a7.61,7.61,0,0,1-1.22,5.92,10.65,10.65,0,0,1-7.64,4.85c-.44.07-.86.17-1.29.26-2.31,0-4.55-.27-6.45-1.77a6.33,6.33,0,0,1-2.47-3.7c-.73-3.48-1.43-7-2.14-10.44-.08-.35-.17-.69-.27-1.13-2.08,2.11-4.08,4.18-6.23,6.09-1.85,1.65-3.81,3.16-5.76,4.68A8.73,8.73,0,0,1,24.74,142c-2.34-3.28-3.24-6.79-2.06-10.73a9.7,9.7,0,0,1,2.87-4.35,30.86,30.86,0,0,1,3-2.19.23.23,0,0,1,.33,0,5.72,5.72,0,0,0-.75,5.07,9.71,9.71,0,0,1-.55.92c-2.35,2.75-1.38,7.36,1.5,9.77a4.56,4.56,0,0,0,5.17.08,61.47,61.47,0,0,0,7.11-5.88,87.6,87.6,0,0,0,8.48-9.27,5.62,5.62,0,0,1,.55-.64c.51-.47.9-.43,1.15.27a6.33,6.33,0,0,1,.26,1q1.61,8,3.2,16c.55,2.71,1.8,3.71,4.58,3.7a7.28,7.28,0,0,0,6-2.8,4.46,4.46,0,0,0,.87-3.83C66.24,138.38,65.76,137.59,66.23,136.74Z" transform="translate(-11.06 -14.47)"/><path class="cls-3" d="M174.87,181.25c.06-4.75.51-10.14,2.81-15.13,3.66-7.93,9.74-13.06,18.57-13.85a21.22,21.22,0,0,1,19.69,8.7c3,4,4.42,8.56,5.25,13.35,1.39,8.12,1.07,16.19-2.32,23.75-3.88,8.65-10.59,14-20.2,15.12a18.86,18.86,0,0,1-11.56-2.85c-6.31-3.6-9.34-9.37-10.91-16.17A60.27,60.27,0,0,1,174.87,181.25Z" transform="translate(-11.06 -14.47)"/><path class="cls-6" d="M145.48,181.08c-3.67-1.27-6-3.73-6.4-7.67a7.22,7.22,0,0,1,2.23-5.86c4.78-4.76,9.61-9.48,14.42-14.2a8.1,8.1,0,0,1,2.73-1.68,12.86,12.86,0,0,1,4.38-.1c5,.92,7.49,4.84,7.49,9.41v24.46c0,6.51-.1,13,0,19.54.14,6.7-5.57,9.17-10.23,8.16-4.32-.93-6.32-3.9-6.33-8.3q0-12.71,0-25.42v-1.51C151.46,180.69,148.84,182,145.48,181.08Z" transform="translate(-11.06 -14.47)"/><path class="cls-7" d="M82.38,188.54a22.13,22.13,0,0,0,8.88-8.34v12.72a41.16,41.16,0,0,1-7.72-3.77C83.16,188.94,82.77,188.75,82.38,188.54Z" transform="translate(-11.06 -14.47)"/><path class="cls-8" d="M212,94.15a60,60,0,0,0-11.76-9.53c-1-.61-1.94-1.24-2.91-1.86a21.46,21.46,0,0,1,7,3.27,27.32,27.32,0,0,1,7.14,7C211.65,93.34,212,93.65,212,94.15Z" transform="translate(-11.06 -14.47)"/><path class="cls-9" d="M107.41,206V191.79l4.66,4.72c-1.2,0-2.39,0-3.59,0-.74,0-1,.25-1,1,0,2.47,0,4.94,0,7.41C107.53,205.27,107.65,205.68,107.41,206Z" transform="translate(-11.06 -14.47)"/><path class="cls-7" d="M91.25,192.9a3.38,3.38,0,0,1,.14.69c0,4.23,0,8.46,0,12.69a4.32,4.32,0,0,1-.14-1.89C91.24,200.56,91.25,196.73,91.25,192.9Z" transform="translate(-11.06 -14.47)"/><path class="cls-10" d="M28.86,124.76l-.33,0,1-.77A1.31,1.31,0,0,1,28.86,124.76Z" transform="translate(-11.06 -14.47)"/><path class="cls-11" d="M31.73,122.13v.25a.73.73,0,0,1-.76.45A1.93,1.93,0,0,1,31.73,122.13Z" transform="translate(-11.06 -14.47)"/><path class="cls-4" d="M181.22,76.75l-.09,0H181a8.37,8.37,0,0,0-2.15.43C175,78,171.21,79,167.36,79.8c-1,.23-1,.81-.81,1.59,1.2,5.3,2.35,10.61,3.49,15.92.62,2.85,1.33,5.67,1.8,8.55a11.19,11.19,0,0,1,.08,3.11,6.43,6.43,0,0,1-5.09,5.81,32.43,32.43,0,0,1-10.58.8,45.06,45.06,0,0,1-5.68-.76,3.18,3.18,0,0,1-1.87-1c-.12.35,0,.84-.41,1.09a13.63,13.63,0,0,0-1.12-3.8c-.61-1.82.05-3.51,1.07-5.06.15-.23.6-.34.36-.76.45-1.34,1.66-1.15,2.69-1.32a4.76,4.76,0,0,1,1.87.37c1.39-.09,2.76.32,4.15.07.9-.17,1.27-.63,1.08-1.5q-2.13-9.72-4.28-19.44c-.51-.62-1.15-.4-1.77-.27-7.63,1.66-15.26,3.35-22.9,5-.54.12-1.09.25-1.64.33-1.76.25-3.43.18-4.77-1.22-1.65-2.25-2.1-4.94-2.68-7.57-1.11-5.09-2.25-10.17-3.3-15.26a6,6,0,0,1,.38-4.29c.16-.34.17-.75.47-1a6.45,6.45,0,0,1,3.59-2q11.31-2.49,22.62-5L181.5,44a20.2,20.2,0,0,1,4.5-.71c3.39,0,5,1.27,5.76,4.56,1.19,5.39,2.38,10.78,3.53,16.18a26.14,26.14,0,0,1,.93,5.43,4.06,4.06,0,0,1-3,4.26,5.24,5.24,0,0,1-.88.26c-.43.13-.87.22-1.29.38h0a8.09,8.09,0,0,0-1.67.45l-.29,0c-.43.26-1-.06-1.39.29a4.48,4.48,0,0,0-1.2.29,2.86,2.86,0,0,0-1,.23c-.41,0-.78.33-1.21.14l-.2.24a10.81,10.81,0,0,0-1.87.35C181.91,76.57,181.49,76.44,181.22,76.75Z" transform="translate(-11.06 -14.47)"/><path class="cls-4" d="M99.9,114.67c2.36-.38,3.34-1.42,3.58-3.78,0-.5.34-1,.23-1.5a14,14,0,0,1-.23-1.58,3.07,3.07,0,0,0-.16-1.38c-.2-1.84-.52-3.67-.8-5.5a15.64,15.64,0,0,0-.2-2.05c0-.44,0-.87,0-1.31-.1-2.07.26-3.91,2.42-4.86,2.46-1.07,5-1.72,7.37,0,1.8,1.25,2.25,3.29,2.67,5.29.2.92.31,1.87.45,2.81a1.63,1.63,0,0,0,0,1.17v.46c.33.71-.12,1.5.26,2.2l.15.26a6,6,0,0,0,0,2.11l.2,1c0,1-.31,2.1.26,3.08l0,1.71c-.23,2.17-.35,4.36-1.46,6.35a10.14,10.14,0,0,1-4.32,4.35,35.21,35.21,0,0,1-7.91,2.77c-4.39,1-8.84,1.85-13.3,2.59a9.79,9.79,0,0,1-5.74-.82,6.77,6.77,0,0,1-3.8-4.82c-1-4-1.78-8-2.66-11.94q-4.39-20-8.77-40.08-1.62-7.47-3.14-15a19.65,19.65,0,0,1-.49-2.86.22.22,0,0,1-.19-.1,11.82,11.82,0,0,0-.27-1.65,11.38,11.38,0,0,0-.35-1.51c-.12-.4-.17-.81-.26-1.21s-.19-.84-.24-1.27c-.38-2.67.25-3.87,2.73-5a9.27,9.27,0,0,1,5.23-.9,3.64,3.64,0,0,1,3.29,2.2,1.89,1.89,0,0,1,.27.87c.33.37.12.9.37,1.3v0c.28.36-.06.86.25,1.22v0c.29.36-.08.86.27,1.21.71,3.28,1.41,6.56,2.13,9.83q.72,3.25,1.45,6.51c.42.87.94.85,1.66.28,2.2-1.72,4.38-3.44,6.45-5.33,2.45-2.23,4.76-4.59,7.13-6.9C95.38,52,96.12,51,97,50.08a5,5,0,0,1,6.12-.79,8.51,8.51,0,0,1,3.68,4,1.85,1.85,0,0,0,0,.23c.2,4.59-3.07,7.28-5.76,10.17-4.84,5.21-10.65,9.24-16.68,12.95-2,1.23-2.06,1.2-1.54,3.58Q86,94.82,89.2,109.44c.32,1.44.59,2.89.9,4.33.49,2.22.81,2.45,3.1,2.29.07-.09.13-.24.23-.26C95.57,115.33,97.67,114.6,99.9,114.67Z" transform="translate(-11.06 -14.47)"/><path class="cls-12" d="M118.63,99.05a18.56,18.56,0,0,0-2.07-5.33c-2.14-3.09-5.17-4.13-8.74-3.78a13,13,0,0,0-5.51,1.86c-2.52,1.53-3.43,3.87-3.79,6.59,0,.31-.07.63-.1,1a1.19,1.19,0,0,1-1,.61,39.56,39.56,0,0,0-6.11,2,1.13,1.13,0,0,1-.92.08C89,94.84,87.58,87.68,86.1,80.54c-.17-.8.3-1,.73-1.29A108.87,108.87,0,0,0,99,69.67a61.89,61.89,0,0,0,10.1-12,.53.53,0,0,0,.06-.1c.45-2.35,2.24-2.88,4.24-3.13A9.39,9.39,0,0,1,116,54a16.48,16.48,0,0,0-2,3.74c-.81,2.66-.28,5.2.26,7.8,1.39,6.72,2.59,13.48,4.1,20.18a10.65,10.65,0,0,0,3,5.5,7.83,7.83,0,0,0,7.51,2.11l2.33-.51c-1.27,3-2.53,5.86-4,8.6A79.09,79.09,0,0,1,118.63,99.05Z" transform="translate(-11.06 -14.47)"/><path class="cls-4" d="M200.17,89.24l.28.45a5.35,5.35,0,0,1,1,.59c.36.2.61.55,1,.73s.81.67,1.23,1a14.35,14.35,0,0,1,1.75,1.56c1.51,1.29,2.62,2.76,2.49,4.91-.17,2.51-2.81,5.64-5.25,6.08a4.4,4.4,0,0,1-2.56-.48,15.65,15.65,0,0,1-3.41-2c-4.2-3.38-8.93-5.88-13.62-8.45-.63-.35-1.24-.73-1.84-1.13s-1.15-.77-1.76-1.1c-1.47-1-2.93-2-3.5-3.91a4.52,4.52,0,0,1,.72-4.17c2-2.75,4-3.38,7.4-2.47a3.45,3.45,0,0,0,1,.27c2.72,1.14,5.31,2.52,7.91,3.91a9.78,9.78,0,0,1,2.19,1.33l0,0a7.11,7.11,0,0,1,1.52.8c.3.22.65.34.94.55a8.29,8.29,0,0,1,1.13.81l.28,0A4.34,4.34,0,0,0,200.17,89.24Z" transform="translate(-11.06 -14.47)"/><path class="cls-4" d="M122.68,117.77c-1.68-2.38-1-4.64.46-6.76a127.35,127.35,0,0,0,10.65-18.56,4.69,4.69,0,0,1,5.55-2.65A6.14,6.14,0,0,1,144,93.45a4.91,4.91,0,0,1,0,4.17,54.56,54.56,0,0,1-3.8,8.25,91.18,91.18,0,0,1-6.59,10.83,23.76,23.76,0,0,1-2.29,2.61A5.46,5.46,0,0,1,122.68,117.77Z" transform="translate(-11.06 -14.47)"/><path class="cls-12" d="M194.91,30.73c-.31-.72-.58-1.48-1-2.17a4.42,4.42,0,0,0-4.85-2.25q-14.16,3.06-28.29,6.16a9.49,9.49,0,0,0-1.86.42c-1.55.69-2.48,0-3.41-1.17a30.3,30.3,0,0,0-5-5.29,6.77,6.77,0,0,0-8.76.2.66.66,0,0,1-.53.19,6.39,6.39,0,0,1,2.46-7.48,6.86,6.86,0,0,1,7.74.2,33.88,33.88,0,0,1,5.91,6.74,2.39,2.39,0,0,0,2.9,1c10.3-2.54,20.62-5,30.94-7.47a4.54,4.54,0,0,1,5.1,2.21,7.87,7.87,0,0,1,.85,5.89A3.8,3.8,0,0,1,194.91,30.73Z" transform="translate(-11.06 -14.47)"/><path class="cls-12" d="M193,73.66c2.68-1.45,3.38-2.93,2.73-5.9q-2.1-9.77-4.23-19.52c-.83-3.84-3.15-5.33-7.15-4.48-7.68,1.64-15.35,3.33-23,5Q141.76,53,122.2,57.32a7.8,7.8,0,0,0-4.31,2.17c-.45,0-.39-.23-.26-.51.56-2.35,2.28-3.48,4.44-4,3.59-.93,7.2-1.77,10.81-2.64l52.58-12.63a12,12,0,0,1,3.32-.41,4.75,4.75,0,0,1,4.87,4c1.63,8,3.24,16,4.76,24.07.66,3.46-1.26,5.78-5.16,6.58C193,74,193,73.87,193,73.66Z" transform="translate(-11.06 -14.47)"/><path class="cls-12" d="M65.27,56.15q6,27.59,12.07,55.17c.8,3.71,1.59,7.41,2.43,11.11,1,4.43,4,6.73,8.85,6.08a99.23,99.23,0,0,0,19.25-4.23c4.85-1.67,7.4-5,7.93-10.07,0-.47-.1-1,.38-1.43a27,27,0,0,1-.48,9,11.42,11.42,0,0,1-6.76,8.16c-4.73,2-9.73,3.06-14.73,4.1a58.46,58.46,0,0,1-5.88,1.08c-4.84.5-8.15-1.92-9.09-6.65q-7-35.34-14.08-70.67c-.06-.31-.08-.63-.12-1S64.71,56.26,65.27,56.15Z" transform="translate(-11.06 -14.47)"/><path class="cls-12" d="M148.29,114.9l.07-1.47c2.77,1.79,5.89,1.67,8.92,1.88a30.31,30.31,0,0,0,9.15-.76c4-1,5.95-4.1,5.09-8.41-1.35-6.76-2.87-13.49-4.31-20.23-.39-1.79-.77-3.59-1.17-5.38-.09-.41-.25-.75.38-.88,4.21-.87,8.42-1.77,12.63-2.67.26-.12.3,0,.27.24-3.48.87-6.95,1.79-10.46,2.56-1.11.24-1.16.69-1,1.63q2.72,13.38,5.34,26.76a21.76,21.76,0,0,1,.34,3.7,7.27,7.27,0,0,1-6.29,7.65,39.81,39.81,0,0,1-14.52-.09A5.26,5.26,0,0,1,148.29,114.9Z" transform="translate(-11.06 -14.47)"/><path class="cls-12" d="M139.74,32.06l3.45,4.15-7.5,1.66-26.26,5.75a5.54,5.54,0,0,0-3.8,2.43c-.88-2.95.4-5.69,3.33-6.49,4.61-1.26,9.28-2.31,13.93-3.44Z" transform="translate(-11.06 -14.47)"/><path class="cls-12" d="M122.68,117.77a10.88,10.88,0,0,0,2.7,2.16c2.36,1.16,4,.93,5.85-.92a27.15,27.15,0,0,0,4-5.11A120.19,120.19,0,0,0,142.74,100c.93-2.08,1.8-4.19,1.29-6.57a6.35,6.35,0,0,1,1.08,6,52.86,52.86,0,0,1-3.74,9.19,113.57,113.57,0,0,1-6.42,11.9,23.39,23.39,0,0,1-3.13,4.08,4.09,4.09,0,0,1-5.52.84,7.5,7.5,0,0,1-3.77-4.31A4.18,4.18,0,0,1,122.68,117.77Z" transform="translate(-11.06 -14.47)"/><path class="cls-2" d="M90.43,102a45.13,45.13,0,0,1,8-2.66c.11,3.75,1.09,7.4,1.34,11.15.09,1.39.14,2.78.14,4.18-2.2.63-4.46,1-6.7,1.39Q91.82,109,90.43,102Z" transform="translate(-11.06 -14.47)"/><path class="cls-12" d="M151.25,104.19a4.42,4.42,0,0,0-2.65,1.09c-1,.46-1.52,1.45-2.43,2.08.35-.83.68-1.67,1.05-2.48A23,23,0,0,0,149,98.94a9.9,9.9,0,0,0-3.64-9.53c2.3-.56,4.47-1.11,6.66-1.59.61-.14.5.52.57.84.68,3.32,1.32,6.64,2,10,.29,1.44.56,2.9.88,4.33.17.71.08,1.05-.76,1a11.89,11.89,0,0,0-1.79,0A2.94,2.94,0,0,1,151.25,104.19Z" transform="translate(-11.06 -14.47)"/><path class="cls-12" d="M106.78,53.25c-.56.27-.44-.3-.56-.5-1.4-2.19-3.17-3.8-5.94-3.89A3.47,3.47,0,0,0,97.51,50,147,147,0,0,1,83.87,63.13a40.3,40.3,0,0,1-4.22,3.1,2.74,2.74,0,0,1-.4-1.45,83.54,83.54,0,0,0,12.68-12c1.83-2,3.62-4.05,5.42-6.07A3.79,3.79,0,0,1,102,45.61a8.65,8.65,0,0,1,3,2.13,14,14,0,0,0,1.88,5Z" transform="translate(-11.06 -14.47)"/><path class="cls-12" d="M181.27,92.33c5.09,2.81,10.35,5.33,14.93,9a11.71,11.71,0,0,0,5.56,2.88,2,2,0,0,0,.83.06,7,7,0,0,0,4.78-4.48A4.85,4.85,0,0,0,206,94.33c-.26-.25-.49-.52-.73-.78,0-.22,0-.34.26-.25a24.48,24.48,0,0,1,3.43,3.32c3.73,4.26.21,9.77-3.42,11a3.58,3.58,0,0,1-2.55-.4,13.63,13.63,0,0,1-3.8-2.46,77.31,77.31,0,0,0-12.4-8.53c-2-1.16-3.92-2.3-5.76-3.64C181,92.36,181,92.23,181.27,92.33Z" transform="translate(-11.06 -14.47)"/><path class="cls-2" d="M118.63,99.05a36.36,36.36,0,0,1,8.55,2.39,100.23,100.23,0,0,1-7,12.29C119.54,108.59,119.51,103.77,118.63,99.05Z" transform="translate(-11.06 -14.47)"/><path class="cls-12" d="M74.47,44.09c-1.32-2.22-3.42-2.33-5.64-2.05a8.21,8.21,0,0,0-1.38.35c-3.89,1.2-4.18,2.59-4.06,5.33-.06.12-.13.11-.19,0a19.07,19.07,0,0,1-.77-5.41,3.62,3.62,0,0,1,1.43-2.9,9.14,9.14,0,0,1,6.39-1.83,4.26,4.26,0,0,1,3.9,3.33c.27,1,.39,2,.58,2.92C74.82,44.09,74.7,44.14,74.47,44.09Z" transform="translate(-11.06 -14.47)"/><path class="cls-13" d="M123,87.31c3.13,2.07,6.25.53,9.32-.11,6.89-1.41,13.76-3,20.63-4.51.79-.17,1.15-.07,1.13.77l-25.57,6.15A4.64,4.64,0,0,1,123,87.31Z" transform="translate(-11.06 -14.47)"/><path class="cls-14" d="M174.07,85.63l-1.27.75c-.22-.95-.43-1.91-.66-2.87-.11-.48,0-.7.56-.79.85-.16,1.68-.4,2.73-.66A16.78,16.78,0,0,0,174.07,85.63Z" transform="translate(-11.06 -14.47)"/><path class="cls-15" d="M193,85.18l-8.08-3.91c0-.44.25-.29.47-.23A47,47,0,0,1,193.23,85C193.25,85.17,193.22,85.31,193,85.18Z" transform="translate(-11.06 -14.47)"/><path class="cls-16" d="M102.72,100.78a38,38,0,0,1,.8,5.7c0,.35.35.79-.25,1a53.68,53.68,0,0,1-.79-5.65C102.49,101.45,102.12,101,102.72,100.78Z" transform="translate(-11.06 -14.47)"/><path class="cls-17" d="M65.27,56.15c-.26.2-.14.51-.23.75-.24-1.17-.86-2.29-.45-3.55A9.64,9.64,0,0,1,65.27,56.15Z" transform="translate(-11.06 -14.47)"/><path class="cls-18" d="M144.49,112.74a.85.85,0,0,1-.49-.68l.57-1.19c.45,0,.28.27.22.49Z" transform="translate(-11.06 -14.47)"/><path class="cls-19" d="M205.51,93.3l-.26.25-1.68-1.45c0-.2,0-.33.25-.23A7,7,0,0,1,205.51,93.3Z" transform="translate(-11.06 -14.47)"/><path class="cls-20" d="M193,85.18l.26-.22c.68.43,1.63.47,2,1.4A8.7,8.7,0,0,1,193,85.18Z" transform="translate(-11.06 -14.47)"/><path class="cls-21" d="M102.72,100.78c-.32.29-.13.7-.24,1a7.82,7.82,0,0,1-.16-2.93A5,5,0,0,1,102.72,100.78Z" transform="translate(-11.06 -14.47)"/><path class="cls-22" d="M116.16,111.07c-.78-1-.45-2-.26-3.08A19.9,19.9,0,0,0,116.16,111.07Z" transform="translate(-11.06 -14.47)"/><path class="cls-23" d="M179.32,77.22l-.27-.24c.66-.15,1.27-.67,2-.22A3.6,3.6,0,0,1,179.32,77.22Z" transform="translate(-11.06 -14.47)"/><path class="cls-20" d="M181.27,92.33l-.26.25a3.07,3.07,0,0,1-1.5-1.18A3.51,3.51,0,0,1,181.27,92.33Z" transform="translate(-11.06 -14.47)"/><path class="cls-24" d="M63.92,50.08a4.4,4.4,0,0,1,.4,1.5c-.14.16,0,.45-.26.56l-.38-1.8C63.75,50.24,63.76,50.1,63.92,50.08Z" transform="translate(-11.06 -14.47)"/><path class="cls-25" d="M151.25,104.19a5.05,5.05,0,0,1,1.68-.27c.08.14.15.28.23.41C152.52,104.31,151.87,104.53,151.25,104.19Z" transform="translate(-11.06 -14.47)"/><path class="cls-26" d="M182.15,76.26c.64-.21,1.25-.54,1.94-.22a3,3,0,0,1-1.42.44C182.52,76.35,182.27,76.47,182.15,76.26Z" transform="translate(-11.06 -14.47)"/><path class="cls-27" d="M196.61,87.28a5.14,5.14,0,0,1-1.46-.94c.76-.2,1.19.38,1.71.73A.35.35,0,0,1,196.61,87.28Z" transform="translate(-11.06 -14.47)"/><path class="cls-28" d="M203.82,91.87l-.25.23-1.21-1c0-.21,0-.33.25-.22Z" transform="translate(-11.06 -14.47)"/><path class="cls-29" d="M64.06,52.14c.09-.19.18-.37.26-.56.06.56.44,1.1.08,1.67C64,53,64.17,52.51,64.06,52.14Z" transform="translate(-11.06 -14.47)"/><path class="cls-30" d="M182.15,76.26l.52.22a3.59,3.59,0,0,1-1.45.27C181.29,76.12,181.79,76.33,182.15,76.26Z" transform="translate(-11.06 -14.47)"/><path class="cls-15" d="M63.92,50.08l-.24.26a2.66,2.66,0,0,1-.24-1.42c.06-.12.13-.12.19,0A2.35,2.35,0,0,1,63.92,50.08Z" transform="translate(-11.06 -14.47)"/><path class="cls-31" d="M198.74,88.5a2.27,2.27,0,0,1-1.2-.68.35.35,0,0,1,.25-.21C198.16,87.85,198.72,87.89,198.74,88.5Z" transform="translate(-11.06 -14.47)"/><path class="cls-32" d="M103.27,107.46c.35-.26.14-.66.25-1a1.83,1.83,0,0,1,.16,1.28c-.18.21,0,.55-.23.72A1.35,1.35,0,0,1,103.27,107.46Z" transform="translate(-11.06 -14.47)"/><path class="cls-33" d="M115.5,104.61c-.52-.68-.15-1.47-.26-2.2C115.74,103.1,115.36,103.88,115.5,104.61Z" transform="translate(-11.06 -14.47)"/><path class="cls-34" d="M115.7,107a2.51,2.51,0,0,1,0-2.11C115.67,105.57,115.68,106.28,115.7,107Z" transform="translate(-11.06 -14.47)"/><path class="cls-35" d="M63.63,48.92h-.19c-.34-.35-.25-.78-.24-1.2h.19A1.87,1.87,0,0,1,63.63,48.92Z" transform="translate(-11.06 -14.47)"/><path class="cls-36" d="M202.61,90.92l-.25.22-1-.71c-.05-.21,0-.33.25-.23Z" transform="translate(-11.06 -14.47)"/><path class="cls-37" d="M189.42,74.81a2,2,0,0,1,1.67-.45A3.06,3.06,0,0,1,189.42,74.81Z" transform="translate(-11.06 -14.47)"/><path class="cls-38" d="M201.65,90.2l-.25.23-1-.74C201,89.42,201.29,89.93,201.65,90.2Z" transform="translate(-11.06 -14.47)"/><path class="cls-39" d="M187.72,75.1c.41-.43.93-.23,1.41-.25-.38.45-1,.09-1.41.41Z" transform="translate(-11.06 -14.47)"/><path class="cls-40" d="M197.79,87.61l-.25.21-.93-.54.25-.21Z" transform="translate(-11.06 -14.47)"/><path class="cls-41" d="M184.29,75.8a2.53,2.53,0,0,1,1.27-.24c.05,0,.07.09.05.13s0,.07-.05.07C185.14,75.73,184.73,76.35,184.29,75.8Z" transform="translate(-11.06 -14.47)"/><path class="cls-42" d="M200.17,89.24c-.59.13-.91-.22-1.15-.69A1.58,1.58,0,0,1,200.17,89.24Z" transform="translate(-11.06 -14.47)"/><path class="cls-43" d="M103.45,108.48c.1-.23,0-.53.23-.73l0,1.64C103.29,109.19,103.53,108.79,103.45,108.48Z" transform="translate(-11.06 -14.47)"/><path class="cls-44" d="M193,73.66l.24.23a1.3,1.3,0,0,1-1,.24c-.08,0-.11-.11-.08-.16s.05-.08.08-.08Z" transform="translate(-11.06 -14.47)"/><path class="cls-45" d="M185.36,81l-.47.23c-.28-.09-.6-.12-.76-.42A1.61,1.61,0,0,1,185.36,81Z" transform="translate(-11.06 -14.47)"/><path class="cls-46" d="M192.28,73.89v.24a1.77,1.77,0,0,1-1.21.24C191.39,74,191.87,74,192.28,73.89Z" transform="translate(-11.06 -14.47)"/><path class="cls-47" d="M117.63,59c0,.19.05.4.26.51l-.46.7A1.48,1.48,0,0,1,117.63,59Z" transform="translate(-11.06 -14.47)"/><path class="cls-48" d="M185.56,75.76v-.2a1.14,1.14,0,0,1,1-.23c.08,0,.11.09.08.13s0,.07-.08.07Z" transform="translate(-11.06 -14.47)"/><path class="cls-49" d="M75.17,46.05c-.42-.3-.19-.86-.47-1.21.08-.12.16-.11.23,0C75.3,45.18,75.14,45.63,75.17,46.05Z" transform="translate(-11.06 -14.47)"/><path class="cls-50" d="M186.52,75.53v-.2a1.68,1.68,0,0,1,1.2-.23.86.86,0,0,0,0,.16Z" transform="translate(-11.06 -14.47)"/><path class="cls-51" d="M144.79,111.36l-.22-.49c.08-.17.2-.52.31-.42C145.18,110.73,145,111.07,144.79,111.36Z" transform="translate(-11.06 -14.47)"/><path class="cls-52" d="M115.23,102a.85.85,0,0,1,0-1.17C115.2,101.17,115.21,101.56,115.23,102Z" transform="translate(-11.06 -14.47)"/><path class="cls-53" d="M75.67,48.44c-.45-.33-.21-.8-.27-1.21C75.8,47.57,75.59,48,75.67,48.44Z" transform="translate(-11.06 -14.47)"/><path class="cls-54" d="M75.41,47.25c-.43-.34-.19-.81-.25-1.22C75.55,46.37,75.37,46.83,75.41,47.25Z" transform="translate(-11.06 -14.47)"/><path class="cls-55" d="M74.93,44.84H74.7c-.07-.25-.15-.5-.23-.75l.26-.26C75,44.13,74.92,44.49,74.93,44.84Z" transform="translate(-11.06 -14.47)"/><path class="cls-56" d="M103.51,182.89v1.41c0,7.08,0,14.16,0,21.24,0,1.49-.21,2.86-1.7,3.53-1.79.81-3.68,1.09-5.36-.16-1.43-1-1.29-2.78-1.32-4.3-.07-4.56,0-9.12,0-13.68q0-16.26,0-32.52a4,4,0,0,1,2.74-4.19,4.57,4.57,0,0,1,4.82,1.27,3.38,3.38,0,0,1,.83,2.54q0,9.9,0,19.8a2.34,2.34,0,0,0,.12,1.28c.42.09.57-.25.78-.46,4.32-4.33,8.7-8.61,13-13,3.24-3.37,6.58-6.65,9.86-10a3.92,3.92,0,0,1,5-.82,4.33,4.33,0,0,1,.92,7.33q-5.34,5.36-10.67,10.71c-2.36,2.39-4.67,4.83-7.07,7.19-.68.67-.63,1,0,1.7,6.71,6.74,13.39,13.53,20.08,20.3a3.91,3.91,0,0,1,.44,5.49,4,4,0,0,1-5.39,1.2,9.91,9.91,0,0,1-2.28-1.74q-11.82-11.67-23.66-23.34A2,2,0,0,0,103.51,182.89Z" transform="translate(-11.06 -14.47)"/><path class="cls-56" d="M46.84,182.51q0-11.22,0-22.43c0-2.87,1.5-5.07,3.88-5.68a10.41,10.41,0,0,1,2.61-.31q10.31,0,20.62,0A16.38,16.38,0,0,1,82.57,184a12.26,12.26,0,0,1-7.32,2.24c-6.2,0-12.4,0-18.59,0-1.12,0-1.5.23-1.49,1.43.07,5.48,0,11,0,16.43,0,.64-.1,1.28-.12,1.91-.09,2.58-2.44,3.69-4.66,3.54a3.87,3.87,0,0,1-3.57-4.19C46.83,197.7,46.84,190.1,46.84,182.51Z" transform="translate(-11.06 -14.47)"/><path class="cls-12" d="M66.23,136.74c.11.63.2,1.27.32,1.89a5.92,5.92,0,0,1-4.48,7.16,10.14,10.14,0,0,1-3.68.3,3.9,3.9,0,0,1-3.62-3.42q-1.7-8.62-3.42-17.25c-.06-.27-.15-.54-.24-.86-.48.2-.69.63-1,1a84.4,84.4,0,0,1-15,14.87c-2.62,2-6,1.78-8-1.66-1.88-3.25-1.52-6.72,1-8.92.77,2,1.81,3.85,4.17,4.37a4.83,4.83,0,0,0,3.79-.63A72.67,72.67,0,0,0,51.37,120a2.69,2.69,0,0,1,1.06-1c.48,2.25,1,4.46,1.44,6.67.68,3.12,1.39,6.23,2.07,9.35a3.6,3.6,0,0,0,3.55,3.13,8.4,8.4,0,0,0,5.92-1.42C65.69,136.58,65.94,136.42,66.23,136.74Z" transform="translate(-11.06 -14.47)"/><path class="cls-12" d="M22.84,83.7a9.49,9.49,0,0,1-2.55.61A3.9,3.9,0,0,1,17,83a9.59,9.59,0,0,1-1.55-8.92,5.07,5.07,0,0,1,3.75-3c6.32-1.51,12.64-3.06,19-4.53.95-.22,1.08-.52.89-1.44-.94-4.41-1.79-8.84-2.67-13.26a5.48,5.48,0,0,1,3.13-5.9,8.59,8.59,0,0,1,5.74-.45,4.38,4.38,0,0,1,3.59,4c-.07.47-.31.32-.58.18a8.76,8.76,0,0,0-6.63-.47,5.05,5.05,0,0,0-3.51,5.95c1,3.65,1.65,7.4,2.5,11.09.2.91.06,1.28-1,1.49-6.17,1.3-12.32,2.66-18.48,4a4.8,4.8,0,0,0-4.1,5.22,8.37,8.37,0,0,0,1.53,4.72,4.37,4.37,0,0,0,4,1.82C22.81,83.33,22.86,83.47,22.84,83.7Z" transform="translate(-11.06 -14.47)"/><path class="cls-57" d="M47.62,107.44q-2-10.14-4-20.3c-.52-2.66-1-5.32-1.57-8,1.08-.47,1.54-.22,1.81,1,1.71,8.12,3.51,16.22,5.32,24.31C49.51,106,48.5,106.66,47.62,107.44Z" transform="translate(-11.06 -14.47)"/><path class="cls-14" d="M22.84,83.7l-.29-.25A7.81,7.81,0,0,1,24.64,83C24.24,83.74,23.47,83.53,22.84,83.7Z" transform="translate(-11.06 -14.47)"/><path class="cls-58" d="M28.62,82.28a3.37,3.37,0,0,1-1.94.44v-.15A2.49,2.49,0,0,1,28.62,82.28Z" transform="translate(-11.06 -14.47)"/><path class="cls-59" d="M26.68,82.57v.15c-.66.24-1.28.77-2,.29A5.49,5.49,0,0,1,26.68,82.57Z" transform="translate(-11.06 -14.47)"/><path class="cls-60" d="M32,81.54,30,82c-.08-.05-.1-.09-.08-.13s.05-.07.08-.07C30.66,81.6,31.25,81.23,32,81.54Z" transform="translate(-11.06 -14.47)"/><path class="cls-61" d="M36.77,80.36a3.41,3.41,0,0,1-1.68.45A1.91,1.91,0,0,1,36.77,80.36Z" transform="translate(-11.06 -14.47)"/><path class="cls-62" d="M34.65,80.84c-.57.21-1.1.65-1.76.24A5.27,5.27,0,0,1,34.65,80.84Z" transform="translate(-11.06 -14.47)"/><path class="cls-63" d="M30,81.81V82c-.41,0-.74.35-1.17.23C29.13,81.74,29.59,81.81,30,81.81Z" transform="translate(-11.06 -14.47)"/><path class="cls-56" d="M218,182.29c.06,5.53-.64,10.92-3.37,15.85A21.32,21.32,0,0,1,201.1,209c-5.46,1.44-10.19-.32-14.53-3.63-3-2.3-4.54-5.49-5.79-8.9a37.2,37.2,0,0,1-1.93-10.66c-.33-5.12-.26-10.23,1.22-15.17,2.22-7.47,7.77-13.65,16.2-14.56a17.48,17.48,0,0,1,16.92,7.65c2.77,3.87,3.93,8.32,4.55,13A50.22,50.22,0,0,1,218,182.29Z" transform="translate(-11.06 -14.47)"/><path class="cls-56" d="M157.68,168.93a2.72,2.72,0,0,0-1.22.91c-2.27,2.26-4.51,4.54-6.78,6.8a3.05,3.05,0,0,1-3.74.55,6.68,6.68,0,0,1-2-1.51,3.66,3.66,0,0,1,0-5.29c4.8-4.82,9.62-9.61,14.54-14.3,2.38-2.27,7.12-.38,7.86,3a10.77,10.77,0,0,1,.23,2.26q0,21.7,0,43.42c0,1.71-.22,3.35-1.93,4.2a5.57,5.57,0,0,1-5.5-.25,3,3,0,0,1-1.42-2.51c-.06-.64,0-1.28,0-1.92V168.93Z" transform="translate(-11.06 -14.47)"/><path class="cls-6" d="M130.78,66.91c.14-.62.71-.59,1.14-.68q16.67-3.65,33.34-7.26c4.82-1,9.63-2.09,14.44-3.2,1-.22,1.55.1,1.75.93.61,2.5,1.12,5,1.66,7.56,0,.08-.13.19-.2.28a34,34,0,0,1-4.83,1.26c-8.31,2-16.64,4-25,5.89a11.12,11.12,0,0,0-1.62.35,8,8,0,0,1-1.38.28c-.33.11-.67.14-1,.24a9.07,9.07,0,0,1-1,.24,7.74,7.74,0,0,1-1.16.25c-.46.27-1,.13-1.48.35l-.46.24a8.93,8.93,0,0,0-1.7.24c-1.24.51-2.66.35-3.87,1-.36.22-.8-.07-1.14.21l-4.86,1a1.14,1.14,0,0,1-1.17-.84,37.57,37.57,0,0,1-1.68-7.9A.59.59,0,0,1,130.78,66.91Z" transform="translate(-11.06 -14.47)"/><path class="cls-64" d="M152.94,71.53l28.79-7a5.78,5.78,0,0,1,1.18,0c.06.76-.51.94-1.06,1.06l-28.17,6.13a1.79,1.79,0,0,1-.24,0C153.22,71.82,153,72,152.94,71.53Z" transform="translate(-11.06 -14.47)"/><path class="cls-14" d="M130.78,66.91q.72,3.69,1.45,7.36a2.38,2.38,0,0,0,1.21,1.81c-1.13.58-1.74-.17-2-1-.62-2.35-1.13-4.72-1.58-7.1C129.71,67,130.14,66.65,130.78,66.91Z" transform="translate(-11.06 -14.47)"/><path class="cls-65" d="M152.94,71.53l.5.22a5.08,5.08,0,0,1-2,.43c-.09-.06-.12-.11-.09-.16s.06-.08.08-.08A3.31,3.31,0,0,1,152.94,71.53Z" transform="translate(-11.06 -14.47)"/><path class="cls-66" d="M151.47,71.94a1.93,1.93,0,0,0,0,.24,3,3,0,0,1-1.43.29q-.09-.07-.06-.15s0-.07,0-.07A3.54,3.54,0,0,1,151.47,71.94Z" transform="translate(-11.06 -14.47)"/><path class="cls-67" d="M145.47,73.4a3.13,3.13,0,0,1,1.45-.43c.08,0,.11.08.08.12s-.05.06-.08.06C146.49,73.55,146,73.39,145.47,73.4Z" transform="translate(-11.06 -14.47)"/><path class="cls-68" d="M143.31,73.88c.55-.24,1.08-.55,1.7-.24A3.3,3.3,0,0,1,143.31,73.88Z" transform="translate(-11.06 -14.47)"/><path class="cls-69" d="M150,72.25a1.7,1.7,0,0,0,0,.22c-.28.27-.63.21-1,.22-.05,0-.07-.1-.05-.14s0-.07.05-.07A1.42,1.42,0,0,1,150,72.25Z" transform="translate(-11.06 -14.47)"/><path class="cls-70" d="M149.08,72.48v.21a1.17,1.17,0,0,1-1,.22c-.08,0-.11-.09-.08-.13s.05-.07.08-.07A1.41,1.41,0,0,1,149.08,72.48Z" transform="translate(-11.06 -14.47)"/><path class="cls-71" d="M148.12,72.71v.2a1.74,1.74,0,0,1-1.2.24V73A2.37,2.37,0,0,1,148.12,72.71Z" transform="translate(-11.06 -14.47)"/><path class="cls-72" d="M138.3,75.08c.32-.39.74-.23,1.14-.21C139.11,75.24,138.68,75,138.3,75.08Z" transform="translate(-11.06 -14.47)"/><path class="cls-6" d="M64.68,177.79c-2.8,0-5.6,0-8.39,0-.82,0-1.11-.22-1.1-1.08,0-3.95,0-7.91,0-11.87,0-1.77.69-2.43,2.49-2.43,5.36,0,10.71,0,16.06,0a7.3,7.3,0,0,1,7.35,6.66,7.58,7.58,0,0,1-5.47,8.24,21.56,21.56,0,0,1-5.94.46C68,177.8,66.36,177.79,64.68,177.79Z" transform="translate(-11.06 -14.47)"/><path class="cls-3" d="M187.23,182.64c.15-3.86.13-7.75,1.68-11.4a12.75,12.75,0,0,1,6.56-6.85c3.09-1.4,5.94-.25,8.55,1.52,3,2,4.13,5.16,4.94,8.48,1.62,6.67,1.45,13.22-1.59,19.49a11.56,11.56,0,0,1-6.9,6.27,8,8,0,0,1-10.06-4A26.34,26.34,0,0,1,187.23,182.64Z" transform="translate(-11.06 -14.47)"/><path class="cls-12" d="M136,71.74c-.34.07-.54,0-.59-.4a2,2,0,0,0,0-.24c-.71-2.92-.71-2.92,2.23-3.63q20.91-5,41.79-10.07c.8-.19,1.06-.08,1.23.76.53,2.72.57,2.72-2.14,3.38l-42,10.1Z" transform="translate(-11.06 -14.47)"/><path class="cls-2" d="M64.11,166.29c3.31,0,6.63,0,9.94,0a3.19,3.19,0,0,1,3.06,2.43,3.59,3.59,0,0,1-.84,4,4.44,4.44,0,0,1-3,1.25c-1.76,0-3.51,0-5.27,0a3.25,3.25,0,0,1-1.1-1.39c-1-1.67-1.79-3.48-2.68-5.22C64,167,63.83,166.64,64.11,166.29Z" transform="translate(-11.06 -14.47)"/><path class="cls-12" d="M64.11,166.29A67.91,67.91,0,0,0,68,173.9c-2.74,0-5.49,0-8.24,0-.55,0-.77-.15-.76-.74q0-3.11,0-6.21c0-.54.13-.8.73-.78C61.17,166.27,62.64,166.27,64.11,166.29Z" transform="translate(-11.06 -14.47)"/><path class="cls-12" d="M206.13,181.88A22,22,0,0,1,204,192.05a9,9,0,0,1-4.09,4.22c-2.46,1.18-4.69.59-6-1.79a19.85,19.85,0,0,1-2.78-9.31,47.41,47.41,0,0,1,.46-9.67,10.17,10.17,0,0,1,5-7.39,3.33,3.33,0,0,1,2.88-.28,7.54,7.54,0,0,1,4.88,4.42A26.43,26.43,0,0,1,206.13,181.88Z" transform="translate(-11.06 -14.47)"/></svg>