<svg id="圖層_1" data-name="圖層 1" xmlns="http://www.w3.org/2000/svg" viewBox="0 0 226.26 226.39"><defs><style>.cls-1{fill:#199698;}.cls-2{fill:#c1f0ec;}.cls-3{fill:#e5c29c;}.cls-4{fill:#fefefe;}.cls-5{fill:#f3e0cb;}.cls-6{fill:#baece8;}</style></defs><title>30</title><path class="cls-1" d="M206.3,55.52,216.45,66l23.41,24.09a4.49,4.49,0,0,1,1.24,4.69Q236,112.88,231,131q-10.05,36.12-20.1,72.23a4.28,4.28,0,0,1-3.39,3.28q-45.59,11.69-91.16,23.43c-5.72,1.48-11.45,2.92-17.16,4.44a4.5,4.5,0,0,1-4.76-1.33L73,210.94q-13.14-13.5-26.26-27a1.16,1.16,0,0,0-1.52-.36c-6.09,2.3-11.73,1.42-16.46-3a14.38,14.38,0,0,1-4.37-13.78A12.1,12.1,0,0,1,25.51,163c.33-.58,0-.87-.33-1.22-2.82-2.89-5.61-5.82-8.46-8.68a4.86,4.86,0,0,1-1.44-5.18c3.14-11.1,6.16-22.24,9.33-33.33a7.42,7.42,0,0,0-.17-4.16c-1.16-4.43,0-8,3.83-10.67A1.88,1.88,0,0,0,29,98.57q4.53-16.2,9.05-32.41c.2-.72,0-.88-.68-.9-2.31-.06-4.62.26-6.92-.38a7.37,7.37,0,0,1-5.16-4.6,12.2,12.2,0,0,1-.59-7.63,8.58,8.58,0,0,1,8.55-6.84c3.16,0,6.32,0,9.48,0,.7,0,1-.17,1.24-.92.46-1.9,1.06-3.76,1.57-5.65a3.53,3.53,0,0,1,2.85-2.74,1.78,1.78,0,0,0,1.66-1.61c1-5,5.84-7.42,10.71-6.73a11.51,11.51,0,0,1,6.81,3c.36.36.69.25,1.09.15,3.52-.92,7-1.81,10.55-2.72L134.3,14.4q10.78-2.78,21.57-5.54c1-.26,2-.92,3.23-.56a6.43,6.43,0,0,1,3,1.79q12.74,13.14,25.48,26.26a2.59,2.59,0,0,0,2.07.9c5.92,0,11.85-.08,17.76,0a8.22,8.22,0,0,1,7.34,3.81c2.7,4.33,1.62,10.6-2.24,13C210.71,55.18,208.6,55.25,206.3,55.52Z" transform="translate(-15.05 -8.19)"/><path class="cls-2" d="M76.72,33.09c-.64,2.64-.39,5.16-.39,7.66,0,23.39,0,46.79,0,70.18,0,7.52,3.66,11.56,10.67,12.64a72.14,72.14,0,0,0,11.85.49c1,0,1.39.29,1.59,1.33A70,70,0,0,0,105,140.5c.37.82.3,1-.64,1.11a6.43,6.43,0,0,0-4.53,2.16,1.39,1.39,0,0,1-1.63.48c-2.14-.53-2.15-.5-2.15-2.68,0-5.33-4.14-8.08-9.06-7.45S80.3,138.35,80.4,142v.48c0,.59.17,1.31-.1,1.76s-1.07,0-1.65.11c-2.26.33-4.43.78-5.74,2.94a7.51,7.51,0,0,0-1,4.25,94.11,94.11,0,0,1-1.21,18.14c-.49,3.25,0,6.19,3,8.16a6.7,6.7,0,0,0,5.69,1.08c.92-.26,1.08,0,1.07.86q0,10,0,19.91c0,5.55,4.35,8.35,9.35,7.6a7.29,7.29,0,0,0,4.92-2.67c.29-.38.5-.42.85-.09a8.11,8.11,0,0,0,7,2.25L96.43,229.3c-.54-.06-.75-.5-1-.8Q72.68,205.16,50,181.81c-.57-.59-.59-.84,0-1.45a15.18,15.18,0,0,0-4.52-24.65c-6-2.61-11.58-1.61-16.5,2.68-.85.73-1.2.56-1.86-.13-2.56-2.71-5.16-5.37-7.77-8a1.3,1.3,0,0,1-.38-1.47q4.47-15.9,8.88-31.83c.15-.56.21-.8.92-.46a9.39,9.39,0,0,0,7.76.51,76.64,76.64,0,0,0,12.83-6.45l.68-.4a3.59,3.59,0,0,1,.14,1.54c0,2.2.08,4.41,0,6.6-.21,5,2.5,7.92,7,8.81s9.18-.56,11.54-4a6.62,6.62,0,0,0,1.19-3.83q0-41.34,0-82.66c0-1.77,0-1.77,1.68-2.22Z" transform="translate(-15.05 -8.19)"/><path class="cls-3" d="M108.81,139.68a54.49,54.49,0,0,1-2.74-7.09,69.66,69.66,0,0,1-1.94-7.65c-.17-.82,0-1.06.84-1.08a31.73,31.73,0,0,0,5.55-.87,12.8,12.8,0,0,0,7.81-5.16l.88-1.16a11.19,11.19,0,0,0,4.69,6.24,8,8,0,0,0,9,.14c3.52-2.08,6.29-5,9-8,1.09-1.22,2.18-2.42,3.37-3.74a2,2,0,0,1-.18,1.39c-1.42,4.2,1.23,9,5.12,10.48a48,48,0,0,0,15.59,3.49c5.19.2,10.25-2.36,11.3-9.55a27.13,27.13,0,0,0,.25-3.82q0-9.6,0-19.2c0-1.9-.28-1.63,1.64-1.66H180a11.55,11.55,0,0,0-1.55,3.13,9.22,9.22,0,0,0,2.81,9.37c2.85,2.63,5.77,5.18,8.7,7.71a54.41,54.41,0,0,1,5.84,6,28.66,28.66,0,0,0,3.29,3.32c4.54,3.83,9.55,2.36,13-1.3,3.15-3.33,3.35-7.71.83-11.56-3.72-5.66-8.63-10.16-13.85-14.36l-2.69-2.15a2,2,0,0,1,1.28-.17,26.72,26.72,0,0,0,4.88-.41c4.46-.86,6.67-4,6.77-8.47.12-5.56,0-11.12,0-16.68V65.47c.55,0,.75.44,1,.72a64.27,64.27,0,0,1,17.92,35.21,65.47,65.47,0,0,1-7,42.59,63.89,63.89,0,0,1-16.39,19.69c-.58.47-1,.62-1.64.09a6.17,6.17,0,0,0-4.05-1.24q-25,0-49.91,0a7.44,7.44,0,0,0-6.66,3.37c-.36.57-.58.38-1.1.19-2-.72-2.11-2.19-2.06-4,.11-4.2.05-8.4,0-12.6a8.9,8.9,0,0,0-1.19-4.7c-1.61-2.64-4.26-3.2-7-3.39-1.79-.11-3.6,0-5.4,0-.8,0-1.21-.13-1.33-1-.57-4.43-4.08-6.22-7.56-6.57S110.26,135.77,108.81,139.68Z" transform="translate(-15.05 -8.19)"/><path class="cls-4" d="M167.17,57.12h31.67a9,9,0,0,1,3.86.68,4.23,4.23,0,0,1,2.77,4c0,7.36.05,14.72,0,22.08,0,3-1.92,4.59-5.25,4.66-3.16.07-6.32,0-9.48,0-5.31,0-10.63,0-16,0-.93,0-1.21.21-1.2,1.18,0,7.83,0,15.67,0,23.51a16.66,16.66,0,0,1-.52,4.87,6.18,6.18,0,0,1-6,4.7,36,36,0,0,1-16.22-3.64,4.31,4.31,0,0,1-2.32-4.3,5.23,5.23,0,0,1,6.57-5.16c1.44.33,2.85.79,4.29,1.11s1.87-.17,1.87-1.53c0-6.48,0-13,0-19.43,0-1-.34-1.16-1.23-1.16-8.23,0-16.47,0-24.71,0-4.16,0-6.18-1.81-6.24-6-.11-6.71-.1-13.43,0-20.15,0-3.49,2.18-5.43,5.8-5.44Q151,57.1,167.17,57.12Z" transform="translate(-15.05 -8.19)"/><path class="cls-4" d="M92,56.84a43.31,43.31,0,0,0,6-2.71,164.42,164.42,0,0,0,15.07-9.35,3.84,3.84,0,0,1,3.75-.39c4.7,1.78,5.79,7.19,2.07,10.51a56.64,56.64,0,0,1-13.46,8.68,106.66,106.66,0,0,1-12.22,4.9,1.25,1.25,0,0,0-1,1.42q0,18.24,0,36.48c0,1.48.5,2,2,2.12,2.52.22,5,.23,7.56.22,2.36,0,3.61-.87,4.37-3.12a25.09,25.09,0,0,0,1-5.89c.2-2.27.26-4.55.49-6.82.36-3.59,1.92-5,5.58-5s5.87,1.58,6.43,4.89a24,24,0,0,1-.28,7.27c-.49,3.6-.69,7.25-1.7,10.76a12.24,12.24,0,0,1-5.12,7.42,14.31,14.31,0,0,1-6.53,1.77,127.92,127.92,0,0,1-17.62,0,10.45,10.45,0,0,1-4.25-1.15,6.49,6.49,0,0,1-3.88-6.12c0-3.68,0-7.36,0-11V36.73c0-4.57,1.47-6,6-6a9,9,0,0,1,2.26.29A4.23,4.23,0,0,1,92,35.43c.05,3.64,0,7.28,0,10.92Z" transform="translate(-15.05 -8.19)"/><path class="cls-4" d="M54,102.69l-4.3,3a70.49,70.49,0,0,1-14.23,7.6c-4.05,1.61-7.13-.8-7.59-4.81-.37-3.21.8-5.21,4-6.37,7.84-2.81,14.5-7.52,21-12.48a2.12,2.12,0,0,0,.9-1.91q0-12.54,0-25.07c0-1-.21-1.27-1.24-1.27-6.19.06-12.39,0-18.59,0-4.28,0-6.39-2.44-5.87-6.75.35-2.83,2-5.18,5.76-5.1,6.16.13,12.32,0,18.47.06,1.09,0,1.33-.31,1.32-1.35-.06-3.83.09-7.68-.07-11.51A4.93,4.93,0,0,1,57.55,32,9.1,9.1,0,0,1,64,33.16a3.87,3.87,0,0,1,2,3.56q0,41.21,0,82.41a3.64,3.64,0,0,1-1.92,3.23,8.08,8.08,0,0,1-8.12.38,3.28,3.28,0,0,1-2-3.27C54,114,54,108.44,54,102.69Z" transform="translate(-15.05 -8.19)"/><path class="cls-4" d="M124,177.22a67.21,67.21,0,0,0,14.78,18.43,4,4,0,0,1,.94,5.59,4.16,4.16,0,0,1-5.61,1.69,10.18,10.18,0,0,1-3.09-2.44,81.43,81.43,0,0,1-12.18-16.73c-.28-.51-.56-1-.94-1.69a41.17,41.17,0,0,1-4.86,9.51A62.5,62.5,0,0,1,104,201.93a3.71,3.71,0,0,1-4.2.89,4.85,4.85,0,0,1-3.25-4,3.27,3.27,0,0,1,1.27-2.6A75.48,75.48,0,0,0,106.26,186a34.53,34.53,0,0,0,3.93-7.79c.24-.71.1-.87-.63-.85-2.52,0-5-.09-7.56,0a3.56,3.56,0,0,1-3.8-3.23c-.32-3.14.53-5.24,4-5.31q4.44-.09,8.88,0c.84,0,1.2-.19,1.27-1.1.33-4.35.21-8.71.44-13.06,0-.72-.23-.88-.89-.87-2.12,0-4.24,0-6.36,0-3.19,0-4.8-2-4.17-5.11a3.85,3.85,0,0,1,4-3.38q3,0,6,.11c.89,0,1.32-.13,1.21-1.15a19.54,19.54,0,0,1,0-2.76,4,4,0,0,1,4.76-3.86,4,4,0,0,1,3.62,4.08,14,14,0,0,1-.07,2.51c-.12.84.15,1,.94,1,3,0,6.08,0,9.12,0a8.67,8.67,0,0,1,1.9.17,3.14,3.14,0,0,1,2.8,3.24c.09,2.15.05,4.31.06,6.47,0,4.12,0,8.24,0,12.36,0,.86.26,1.15,1.08,1.05a3.16,3.16,0,0,1,3.61,2.13c.74,1.88.87,3.77-.46,5.46a3.59,3.59,0,0,1-3.05,1.11H124Z" transform="translate(-15.05 -8.19)"/><path class="cls-2" d="M195.12,205.81l-94.75,24.38c.43-1.64.81-3.15,1.22-4.65,1.88-6.93,3.79-13.86,5.67-20.8a2.89,2.89,0,0,1,.79-1.44,59.79,59.79,0,0,0,9.79-12.22c.61-1,.83-.23,1.09.18a84.13,84.13,0,0,0,9.32,11.87,11.67,11.67,0,0,0,5.86,3.76,7.71,7.71,0,0,0,7.16-1.64,1.14,1.14,0,0,1,1.36-.24,9.51,9.51,0,0,0,3.4.6q23.76,0,47.51,0A2.9,2.9,0,0,1,195.12,205.81Z" transform="translate(-15.05 -8.19)"/><path class="cls-2" d="M155.32,12.86c-1,3.6-1.88,7-2.8,10.36-1.15,4.23-2.34,8.46-3.45,12.71-.24.91-.56,1.27-1.59,1.27q-10.8-.09-21.6,0c-2.22,0-4.5.38-6,2.12a3.27,3.27,0,0,1-3.78,1.06,6,6,0,0,0-4.78,1c-4.47,2.95-8.91,6-13.6,8.54-.56.31-1.12.59-1.82,1,0-.52,0-.9,0-1.28,0-4.32,0-8.64,0-13,0-2.9-.51-5.56-3-7.73Z" transform="translate(-15.05 -8.19)"/><path class="cls-4" d="M160.68,41c-.58-1.07-1.05-1.94-1.51-2.81a5.14,5.14,0,0,1,3.92-7.64c3-.39,5.51.26,7.34,2.93A68.69,68.69,0,0,1,174.21,40a1.85,1.85,0,0,0,1.87,1.1c10.39-.05,20.79,0,31.18,0,2.28,0,4,1,4.71,2.83a6.12,6.12,0,0,1-.95,6.52,3.22,3.22,0,0,1-1.9.94,15.33,15.33,0,0,1-3.1.25H125.53a4.07,4.07,0,0,1-4.28-3.23,15.2,15.2,0,0,1-.44-2.11,4.44,4.44,0,0,1,4.33-5.2c3.36-.11,6.72-.07,10.08-.08Z" transform="translate(-15.05 -8.19)"/><path class="cls-2" d="M130.82,181c2.11,0,4,0,5.79,0,2.72,0,5.16-.72,6.72-3.18.49-.76,1-.37,1.56-.2a67.32,67.32,0,0,0,22.6,3.56,64.8,64.8,0,0,0,15.36-2.27,11.81,11.81,0,0,1,3-.37c4.64,0,9.28,0,13.92,0a6.33,6.33,0,0,0,6.63-5.23,9.76,9.76,0,0,0,0-5.09,1,1,0,0,1,.43-1.21,66.09,66.09,0,0,0,14-14.88.62.62,0,0,1,.59-.37c-3.87,13.89-7.73,27.73-11.64,41.78-2-3.48-5.14-4-8.54-4q-27.82,0-55.65,0a7.76,7.76,0,0,0-4.83,1.54c-.35.27-.64.54-1.11.1A62.3,62.3,0,0,1,130.82,181Z" transform="translate(-15.05 -8.19)"/><path class="cls-4" d="M174.13,193.44h28.19c1.43,0,2.89.1,3.67,1.5a5.14,5.14,0,0,1,.09,5.27c-.74,1.29-2.08,1.54-3.44,1.55-3.08,0-6.16,0-9.24,0H145.54a3.56,3.56,0,0,1-3.64-3.4c-.39-2.6.36-4.21,2.26-4.79a4.68,4.68,0,0,1,1.3-.16h28.67Z" transform="translate(-15.05 -8.19)"/><path class="cls-4" d="M92.16,171.12c0,9.8,0,19.6,0,29.4a2.7,2.7,0,0,1-1.54,2.6c-2,1.16-5,.46-6-1.4a3.82,3.82,0,0,1-.38-1.85q0-29.16,0-58.31c0-2.48,1.4-3.78,4.06-3.78s3.86,1.32,3.86,3.83Z" transform="translate(-15.05 -8.19)"/><path class="cls-4" d="M174.44,174.72H149.37c-2.72,0-4.17-1.59-4.17-4.55,0-2.4,1.51-3.82,4.09-3.82h49.77a3.56,3.56,0,0,1,3.73,3.41,11.42,11.42,0,0,1,.05,1.55c-.11,2.52-1.05,3.41-3.58,3.41Z" transform="translate(-15.05 -8.19)"/><path class="cls-5" d="M50.64,169.56a11.4,11.4,0,1,1-11.34-11.4A11.41,11.41,0,0,1,50.64,169.56Z" transform="translate(-15.05 -8.19)"/><path class="cls-2" d="M128.49,55.44a104.59,104.59,0,0,0-8.12,6.76,68.72,68.72,0,0,0-20.32,39.2c-.15.91-.33,1.81-.42,2.72,0,.54-.21.74-.78.78-2.84.17-2.84.19-2.84-2.68,0-9.84,0-19.68,0-29.52a1.43,1.43,0,0,1,1.14-1.61c8.31-2.91,16.18-6.66,23-12.29a6.28,6.28,0,0,0,1.59-1.43c1.14-1.93,2.84-2.23,4.84-1.94A16.17,16.17,0,0,0,128.49,55.44Z" transform="translate(-15.05 -8.19)"/><path class="cls-4" d="M188,92.43a6,6,0,0,1,3.23,1.1c6.34,4.69,12.52,9.56,17.32,15.93.35.48.68,1,1,1.47,1.27,1.78,1.77,3.69.71,5.73a7,7,0,0,1-5.5,3.78,3.57,3.57,0,0,1-2.35-.77,12.36,12.36,0,0,1-3.18-2.89c-3.36-4.22-7.47-7.65-11.52-11.16-1.36-1.18-2.69-2.4-4-3.63a5.48,5.48,0,0,1-1.58-5.78A6.83,6.83,0,0,1,188,92.43Z" transform="translate(-15.05 -8.19)"/><path class="cls-4" d="M143.21,92.17c3.61.13,7.91,3.77,5.16,8.62a44,44,0,0,1-5.11,6.94,81.27,81.27,0,0,1-10,10.47c-.4.33-.82.64-1.24.94-3.63,2.58-7.94.91-9.12-3.44-.64-2.33.39-4,1.92-5.45a128,128,0,0,0,15-16.52A4.07,4.07,0,0,1,143.21,92.17Z" transform="translate(-15.05 -8.19)"/><path class="cls-3" d="M108.94,84.81A65.23,65.23,0,0,1,125,63.13a1.88,1.88,0,0,1,.2,1.34c0,5.63,0,11.27,0,16.9a18.31,18.31,0,0,0,.56,4.5,8.41,8.41,0,0,0,8,6.57c.6,0,1.2,0,1.81,0-.65,2-10.76,13.07-13.39,14.73.42-3.54.87-7.05,1.26-10.57a14,14,0,0,0-1.39-8c-1.93-3.77-7.34-5.21-11.08-4.25C110.4,84.49,109.78,84.62,108.94,84.81Z" transform="translate(-15.05 -8.19)"/><path class="cls-2" d="M33.3,97.33c.61-2.2,1.19-4.38,1.8-6.56,2.27-8.15,4.57-16.29,6.81-24.46.22-.82.54-1.08,1.37-1,2,.06,3.92,0,5.88,0,.61,0,.85.17.85.81,0,6.8,0,13.6,0,20.4a1.07,1.07,0,0,1-.4.94,80.57,80.57,0,0,1-15.94,9.94S33.52,97.35,33.3,97.33Z" transform="translate(-15.05 -8.19)"/><path class="cls-2" d="M159.45,13c1.37,1.2,22.88,23.37,23.52,24.25-1.87,0-3.65,0-5.42,0-.59,0-.71-.44-.91-.82a35.39,35.39,0,0,0-3.92-6.15c-2.6-3.2-6.1-3.91-9.92-3.49-3,.34-5.26,2.16-7,4.59a7.32,7.32,0,0,0-1.22,5c0,.25.34.62,0,.72a2.7,2.7,0,0,1-1.41,0c-.44-.14-.09-.56,0-.82q2.35-8.73,4.74-17.44Z" transform="translate(-15.05 -8.19)"/><path class="cls-4" d="M82.51,156.36a102.34,102.34,0,0,1-1.41,16,3.29,3.29,0,0,1-3.43,3A3.38,3.38,0,0,1,74.33,172c-.1-1.89.48-3.71.67-5.58a90.4,90.4,0,0,0,.69-14.71c-.15-2.32.69-3.32,2.91-3.51a3.17,3.17,0,0,1,3.67,3.08C82.43,153.28,82.47,155.32,82.51,156.36Z" transform="translate(-15.05 -8.19)"/><path class="cls-4" d="M97.52,166.56a2.65,2.65,0,0,1-3-2.35c-.47-3.07-.79-6.17-1.18-9.25-.16-1.27-.39-2.53-.51-3.8-.18-1.93.81-3.1,2.85-3.42a2.8,2.8,0,0,1,3.46,2.43,122.94,122.94,0,0,1,2,13.36C101.33,165.14,99.57,166.54,97.52,166.56Z" transform="translate(-15.05 -8.19)"/><path class="cls-2" d="M226.13,81.94c1.72,1.61,3.58,3.29,5.36,5s3.68,3.78,5.5,5.67c.29.31.67.53.5,1.11-1.44,5.09-2.86,10.19-4.39,15.3A77.35,77.35,0,0,0,226.13,81.94Z" transform="translate(-15.05 -8.19)"/><path class="cls-3" d="M148.93,106.84c1.51-2.33,3.2-4.29,3.82-6.9a10,10,0,0,0-1.38-7.46H157c.45,0,.49.31.49.65,0,4.2,0,8.39,0,12.58,0,.87-.51.6-.95.47a8.69,8.69,0,0,0-5.63-.09C150.28,106.3,149.7,106.54,148.93,106.84Z" transform="translate(-15.05 -8.19)"/><path class="cls-2" d="M96.1,178.58c2.29,2.73,5.33,2.75,8.58,2.59-2.25,4.31-5.34,7.74-8.58,11.3Z" transform="translate(-15.05 -8.19)"/><path class="cls-2" d="M108.71,161.28c0,.95,0,1.91,0,2.87,0,.63-.24.85-.85.82-.88,0-1.9.25-2.59-.11s-.24-1.56-.38-2.37c-.24-1.34-.33-2.69-.51-4-.09-.64.14-.88.77-.84,1.19.08,2.82-.5,3.44.22s.13,2.26.13,3.44Z" transform="translate(-15.05 -8.19)"/><path class="cls-6" d="M49.88,42.92v1.66c0,1.14-.73,1.61-1.81,1.22-.39-.14-.33-.4-.26-.66.4-1.49.82-3,1.25-4.47.07-.25.14-.58.51-.55s.3.4.31.65C49.89,41.49,49.88,42.2,49.88,42.92Z" transform="translate(-15.05 -8.19)"/><path class="cls-1" d="M174.31,151.44c-9,0-18,0-27,0-5.48,0-8.36-4.73-7.71-9.46s4.1-6.52,7.84-6.53c18.11,0,36.22-.09,54.33,0,5.81,0,8.08,4.38,7.38,9.47-.63,4.58-4,6.49-8.11,6.49Z" transform="translate(-15.05 -8.19)"/><path class="cls-1" d="M167.4,67.92H192c1.57,0,1.89.28,1.92,1.88,0,2.16,0,4.32,0,6.47,0,1.33-.45,1.75-1.83,1.76H142.94c-1.52,0-2-.49-2.05-2.11,0-2.07,0-4.15,0-6.23,0-1.33.48-1.77,1.82-1.77Z" transform="translate(-15.05 -8.19)"/><path class="cls-1" d="M120.76,161.13c0-2.2,0-4.4,0-6.6,0-.72.21-1,1-.95,1.4.06,2.8,0,4.2,0a1.28,1.28,0,0,1,1.5,1.34c0,4.4,0,8.8,0,13.19,0,.4-.15.58-.56.57-1.88,0-3.76,0-5.64,0-.67,0-.64-.37-.64-.86,0-2.24,0-4.47,0-6.71Z" transform="translate(-15.05 -8.19)"/><path class="cls-4" d="M174.36,147.6H147.48c-2.64,0-4.19-1.58-4.19-4.26s1.42-4.06,4.21-4.06h54.11c2.63,0,3.92,1.4,3.91,4.2,0,2.61-1.43,4.13-3.92,4.13Z" transform="translate(-15.05 -8.19)"/><path class="cls-3" d="M167.4,71.76c7.15,0,14.31,0,21.46,0,1,0,1.25.28,1.26,1.26s-.36,1.21-1.31,1.21q-21.34,0-42.69,0a1.41,1.41,0,0,1-1.37-2.14c.24-.51.7-.28,1.06-.28H167.4Z" transform="translate(-15.05 -8.19)"/></svg>