<?xml version="1.0" encoding="utf-8"?>
<!-- Generator: Adobe Illustrator 22.1.0, SVG Export Plug-In . SVG Version: 6.00 Build 0)  -->
<svg version="1.1" id="圖層_1" xmlns="http://www.w3.org/2000/svg" xmlns:xlink="http://www.w3.org/1999/xlink" x="0px" y="0px"
	 viewBox="0 0 246 246" style="enable-background:new 0 0 246 246;" xml:space="preserve">
<style type="text/css">
	.st0{fill:#38322F;}
	.st1{fill:#B2D58C;}
	.st2{fill:#B2D48C;}
	.st3{fill:#B2D58D;}
	.st4{fill:#B3D68E;}
	.st5{fill:#D1EBB4;}
	.st6{fill:#FEFEFE;}
	.st7{fill:#B1D48C;}
	.st8{fill:#FEFEFD;}
	.st9{fill:#FDFDFD;}
	.st10{fill:#FCFCFC;}
	.st11{fill:#3FBD6F;}
	.st12{fill:#FDFEFD;}
	.st13{fill:#FAFAFA;}
	.st14{fill:#B3D58F;}
	.st15{fill:#FCFDFB;}
	.st16{fill:#F6F7F4;}
	.st17{fill:#38332F;}
	.st18{fill:#F9F9F9;}
</style>
<g>
	<path class="st0" d="M209.5,65.5c1.7,0.2,3.4,0,5.1,0.1c2.1,0.1,3.9,0.6,5.1,2.5c0.4,0.7,0.4,1.5,0.8,2.2c0.1,0.1,0.2,0.3,0.2,0.4
		c0.2,2.9,0.5,5.8-0.2,8.7c0,2.1,0,4.2-0.1,6.3c-0.1,1.9-0.6,3.7-2.4,4.7c-0.7,0.4-1.6,0.5-2.4,0.7c-3-0.1-5.9,0.7-8.8,0.5
		c-0.5,0-1.3-0.3-1.5,0.2c-0.2,0.4,0.4,0.9,0.6,1.3c1.1,1.9,2.4,3.7,3.6,5.5c0.3,0.5,0.6,0.9,0.7,1.5c0.7,1.1,1.5,2.2,2.2,3.3
		c1.3,1.2,2,2.8,3.1,4.2c1.2,1.9,2.5,3.7,3.7,5.6c0.6,1.1,1.5,2.1,2,3.3c0.7,1.5,0.5,3,0.1,4.5c0,1,0.5,1.8,0.4,2.8
		c-0.2,1.9-1.1,3.3-2.6,4.4c-2.8,1.9-5.7,3.7-8.6,5.5c-2.7,1.6-5.8,1-7.5-1.6c-2.5-3.8-5.1-7.5-7.5-11.4c-1.5-2.1-2.7-4.3-4.2-6.3
		c-2.4-3.8-4.9-7.4-7.3-11.2c-0.6-1-0.7-1-1.3,0c-0.7,1.2-1.5,2.3-2.3,3.5c-5,7.6-10.1,15.3-15.1,22.9c-0.5,0.8-1.1,1.6-1.6,2.4
		c-0.9,1.2-2,2-3.5,2.3c-2,0.4-3.7-0.3-5.3-1.4c-2.4-1.6-4.8-3.1-7.1-4.7c-0.8-0.5-1.6-1.1-2-2c-0.4-0.7-0.7-0.6-1.1,0
		c-1.1,1.7-2.3,3.2-3.4,4.9c-0.6,0.9-1.3,1.8-2.2,2.5c-2.1,1.3-4.1,1.2-6.2,0.1c-0.9-0.6-1.7-1.1-2.6-1.8c-0.5-0.4-0.9-0.4-1.3,0.2
		c-1.4,2.2-3.5,2.7-5.9,2.7c-8,0-16.1,0-24.1,0c-0.7,0-1.3,0-2,0c-0.4,0.1-0.8,0-1.2,0c-18.9,0-37.9,0-56.8,0
		c-0.8,0-1.6,0.2-2.3-0.4c-1.5,0-3-0.1-4.3-0.8c-2-1-2.6-3-2.6-5c-0.1-4.7-0.1-9.4,0-14.1c0.1-2.5,1-4.9,4-5.5
		c0.6-0.1,0.5-0.5,0.5-0.9c0-2,0-3.9,0-5.9c0-1.9,0.3-3.7,1.9-4.9c0.3-0.3,0.3-0.6,0.3-0.9c0-1.6,0-3.3,0-4.9
		c-0.3-0.4-0.3-1-0.3-1.5c0-4.3,0-8.7,0-13c0-0.6,0.1-1.1,0.4-1.6c0-0.9,0.3-2,0-2.7c-0.4-0.9-1.6-0.4-2.4-0.6
		c-3-0.7-4.1-2.7-4.1-5.4c-0.1-4.8-0.1-9.7,0-14.5c0.1-3.5,2.3-5.6,5.8-5.6c1.2,0,1.4-0.4,1.4-1.5c0-2.5-0.3-5,0.2-7.4
		c0.6-2.9,2.2-4.3,5.2-4.4c0.4,0,0.7,0,1.1,0c20.9,0,41.7,0,62.6,0c1.2,0,2.1-0.3,3.1-0.9c1.6-1,3-2.2,5-2.6c1.9-0.4,4,0.2,5.1,1.9
		c1.8,2.7,3.4,5.6,5.1,8.4c1.5,1.3,1.9,2.9,1.5,4.7c-0.2,1.1-0.1,1.7,1.1,2c1.2,0.4,1.9,1.4,2.3,2.3c0.1-2.6-0.4-5.5,0.4-8.4
		c0.7-2.6,3.5-4.2,5.9-3.6c4.1,0,8.3,0,12.4,0c0.8-0.3,1.5-0.4,2.3-0.4c2.3,0,4.6,0,7,0c0.6,0,1.2,0,1.7,0.4c2.5,0,5,0,7.5,0.1
		c0.8,0,0.9-0.3,0.9-1c-0.1-1.4,0.1-2.7,0.8-3.9c1.1-1.9,2.9-2.5,4.9-2.6c3.2-0.1,6.3,0,9.5,0c3.7,0,5.7,2,5.7,5.7
		c0,1.8,0,1.8,1.7,1.8c8.6,0,17.3,0,25.9,0c2.1,0,4,0.5,5.1,2.5c0.6,1,0.8,2.1,0.8,3.3c0,4.5,0,9,0,13.5c0,3.6-1,5.8-5.1,6.4
		c-0.1,0.1-0.3,0.1-0.5,0.1c-6.7,0.1-13.3,0.4-20,0.3c-0.4,0-0.9,0-1.3,0c-0.4,0-0.8,0.2-0.8,0.7c0,0.5,0.4,0.6,0.7,0.6
		c0.4,0,0.8,0,1.2,0c3.9,0,7.7,0,11.6,0C208.3,65.1,209,65,209.5,65.5z"/>
	<path class="st0" d="M38.4,201.6c-2.2,0.7-4.1,0.1-5.8-1.2c-0.4-0.3-0.7-0.5-1.2,0.1c-0.9,1-2.1,1.4-3.4,1.5
		c-2.3,0.2-4.6,0.3-6.9-0.1c-3.6-0.5-4.7-2.8-4.7-5.9c-0.1-7.8-0.1-15.7,0-23.5c0-1-0.3-1.5-1-2.2c-1.8-1.5-3.4-3.2-4.9-5
		c-1-1.2-1.3-2.5-1.1-4c0.1-1-0.3-1.9,0-2.9c0.3-1.1,0.8-2.1,1.7-2.9c1.6-1.5,3.1-3.1,4.8-4.5c0.4-0.3,0.4-0.7,0.4-1.2
		c0-2.8-0.1-5.6,0-8.4c0.1-2.1,0.7-3.9,2.6-5c0.8-0.5,1.8-0.7,2.7-0.7c2.7-0.1,5.4-0.4,8,0.4c1.5,0.5,2.5,1.5,3,3.1
		c0.4,1.5,0.4,3.1,0.5,4.7c1.9-0.4,3.7-0.2,5.5-0.3c0.4,0,0.8,0.2,1-0.3c0.1-0.8,0.1-1.6,0.1-2.4c-0.1-2.1,1-4.1,3.1-4.9
		c0.9-0.3,1.8-0.5,2.7-0.5c1.6,0,3.3,0,4.9,0c3.9,0.1,6.1,2.1,6.3,6c0.1,1.7,0.1,1.6,1.7,1.7c2.8,0,5.6-0.3,8.3,0.9
		c0.6,0.2,0.6-0.2,0.6-0.6c0-0.8,0.2-1.7,0.5-2.5c0.6-1.7,1.7-2.9,3.6-3.4c1.2-0.3,2.3-0.4,3.6-0.4c7.2,0,14.4,0,21.6,0
		c0.9,0,1.9,0,2.8,0c3.5,0,7,0,10.4,0c1.7,0,3.3-0.2,4.8-0.9c0.6-0.3,1.4-0.5,2.1-0.6c2.7-0.5,5,0.6,6.2,3c0.9,1.9,1.7,4,2.3,6
		c0.6,1.8,0.4,3.6,0.1,5.5c-0.2,1.7-1.2,3-2.7,3.7c-3.5,1.6-6.9,3.3-11,2.9c-1.5-0.1-3,0-4.4,0c-0.5,0-1,0-1,0.7
		c0,0.7,0.5,0.7,1,0.7c4.1,0,8.2,0,12.2,0c0.5,0,0.9-0.2,1.3-0.6c1.4-2,3.6-2.5,5.8-2.5c4.7,0,9.4,0,14,0c0.4,0,0.8,0,1.2,0
		c1.7,0,1.7,0,1.6-1.7c0-2.6,0-5.3,0-7.9c0.1-1.8-0.2-3.7,0.3-5.5c0.8-2.9,2.7-4.4,5.8-4.5c0.7,0,1.4,0,2,0c1.2,0,2.4,0,3.6,0
		c2.2,0.1,4,0.9,5.1,2.9c0.5,1.3,0.8,2.6,0.8,4c0,3.8,0,7.5,0,11.3c0,1.5,0.1,1.5,1.6,1.6c5.5,0,11-0.1,16.5,0.1
		c0.8,0,1.2-0.4,1.6-0.9c1.9-2.2,3.7-4.5,5.7-6.7c1.6-1.8,3.1-3.6,4.6-5.5c1.4-1.6,2.7-3.4,4.3-5c0.6-0.6,1.3-1.1,2.2-1.4
		c2.3-0.7,4.2-0.1,6,1.4c1,0.8,2,1.6,2.9,2.5c1.5,1.6,1.7,1.6,3.2,0c1-0.8,1.9-1.5,2.8-2.4c1.8-1.6,3.9-2.3,6.3-1.4
		c1.6,0.6,2.6,2,3.7,3.3c1.1,1.3,2.3,2.5,3,3.9c1.4,2,3,3.7,4.5,5.5c2.9,3.6,5.9,7.1,8.8,10.7c0.9,1.1,1.2,2.4,0.9,3.9
		c-0.2,1,0.2,1.9-0.1,2.9c-0.3,1.1-0.9,2-1.7,2.7c-1.7,1.4-3.4,2.8-5.2,4.1c-0.5,0.4-0.5,0.9-0.5,1.4c0,6.2,0,12.3,0,18.5
		c0,1.6,0.1,3.2-0.3,4.8c-0.6,2.9-2.2,4.3-5.2,4.3c-3.9,0.1-7.8,0.1-11.8,0c-3.3-0.1-5.3-2.3-5.3-5.7c0-2.4,0-4.8,0-7.2
		c0.1-3.5,1.2-5.5,5-6c0.7-0.1,0.8-0.3,0.8-1c0-1.2,0-2.3,0-3.5c0-0.6-0.2-0.8-0.8-0.8c-2.6,0-5.1,0-7.7,0c-0.6,0-0.8,0.2-0.8,0.8
		c0,2.3,0.1,4.6,0,6.8c0,1.7,0,3.5-0.4,5.2c-0.3,1.2-0.9,2.2-1.9,2.9c-3.6,2.5-7.1,5-10.7,7.5c-2.5,1.7-5.6,1.2-7.4-1.3
		c-1.1-1.5-2.2-3.1-3.3-4.6c-0.9-1.2-1.4-2.6-1-4.1c0.1-0.4-0.2-0.8-0.2-1.1c-0.5-1.4,0.3-3.4,1.8-4.6c1.3-1,2.6-1.9,3.9-2.9
		c0.3-0.2,0.6-0.5,1-0.7c1.1-0.8,1.5-1.7,1.2-3c-0.1-0.5-0.4-0.6-0.8-0.7c-0.6-0.2-1.3-0.3-1.9-0.5c-1.3-0.6-2.2-1.6-2.7-2.9
		c-0.3-0.9-0.8-1-1.6-0.6c-1.4,0.8-3,1.1-4.6,1.1c-4.9,0-9.8,0-14.7,0c-1.5,0-1.6,0.1-1.6,1.6c0,3.5,0,7,0,10.5c0,0.6,0,1.3-0.3,1.9
		c0,2.4,0,4.7-0.1,7.1c-0.1,2-0.5,3.9-2.4,5.1c-0.7,0.5-1.5,0.6-2.2,0.7c-2.4,0.2-4.9,0.3-7.3,0c-3.5-0.4-4.5-2.7-4.6-5.8
		c-0.3-6.8-0.1-13.6-0.1-20.4c0-1-0.2-1.3-1.2-1.2c-3.3,0.1-6.5-0.1-9.8,0.1c-0.7,0.5-1.5,0.3-2.3,0.3c-1.2,0-2.3,0.1-3.2,0.9
		c-1.4,1.5-3.3,1.7-5.4,1.7c1.7,3.1,3.4,6.1,5,9c0.8,1.4,1.5,2.7,1.8,4.4c0.7,3.8-0.5,6.4-3.9,8.2c-1.9,0.9-3.6,2.3-5.7,2.7
		c-2,0.4-4.1-0.2-5.1-2c-1.4-2.3-2.7-4.8-4.1-7.2c-1.3-2.3-2.6-4.7-4.1-7c0,2.4,0,4.8,0,7.2c0,1.6,0,3.1-0.3,4.7
		c-0.6,3.3-2.6,4.4-5.4,4.4c-4.8,0.1-9.5,0-14.3,0c-1.9,0.1-3.6-1.1-4.3-3.1c-0.2-0.5-0.4-1.1-0.4-1.7c-0.6,1.4-1.3,2.7-2.4,3.8
		c-2.1,1.6-4.3,1.7-6.6,0.5c-0.9-0.5-1.9-0.9-2.7-1.5c-1.1-0.8-2-0.7-3,0.2c-0.7,0.6-1.5,1.2-2.4,1.6c-2.6,1.1-5.4,0.4-7-1.9
		c-2.6-3.5-5.1-7.1-7.7-10.6c-0.2-0.3-0.3-0.8-0.8-0.7c-1.1,1.4-1.9,3-3,4.5c-0.7,1.1-1.4,2.3-2.2,3.4c-0.7,1-1.2,2.2-2,3.1
		C40.5,200.5,39.8,201.6,38.4,201.6z"/>
	<path class="st1" d="M78.5,200.9c1-1.1,1.7-2.5,2.6-4.1c0.4,3,1.8,4.8,4.6,5.3c1.5,2.5,3.1,5,3.6,7.9c0.5,2.8-0.9,4.6-3.8,4.8
		c-3.7,0.3-7.3-0.6-10.8-1.7c-3-0.9-3-0.9-4.3,2c-1.4,3-2.9,6-5.2,8.6c-0.6,0.7-1.4,1.3-2.2,1.8c-1.5,0.8-3.2,0.3-4.4-1.2
		c-1.9-2.4-2.8-5.2-3.7-8c-0.5-1.6-0.9-3.2-1.2-4.9c-0.2-0.7-0.4-0.9-1.2-0.8c-4.2,0.5-8.4,0.8-12.6-0.1c-0.7-0.2-1.4-0.5-2.1-0.9
		c-1.4-0.9-1.8-2.1-1.5-3.7c0.4-1.6,1.4-2.9,2.1-4.3c1.9-0.7,2.8-2.4,3.8-4c0.3-0.4,0.5-0.9,0.8-1.3c0.8-0.5,1.3-1.5,2.1-2
		c0.5-0.4,0.2-0.9,0.1-1.3c1-1.5,2-3.1,3-4.6c3.3,2.7,4,6.6,1.3,9.4c-2.1,2.1-4.4,4.1-6.2,6.5c-0.3,0.4-0.6,0.7-0.8,1.3
		c2.6-0.1,5.1,0.1,7.6-0.1c1.6-0.1,3.1-0.5,4.7,0c2.1,0.6,3.4,1.9,3.8,4c0.7,3,1.5,6,2.7,8.8c0.1,0.3,0.2,0.8,0.5,0.9
		c0.4,0.1,0.6-0.5,0.8-0.8c1.4-2,2.5-4.2,3.4-6.5c0.3-0.7,0.6-1.4,1-2c1.1-2.1,3.3-3.1,5.6-2.7c1.6,0.3,3.1,0.8,4.6,1.3
		c1.7,0.5,3.3,0.8,5,1c1.1,0.1,1.3-0.2,0.8-1.2c-1.1-2.3-2.6-4.3-4-6.4C78.9,201.6,78.5,201.3,78.5,200.9z"/>
	<path class="st1" d="M225.1,143.1c-1.4-1.4-2.6-3-3.8-4.5c-0.8-1-1.7-1.9-2.8-2.5c-0.2-2.8,1.2-5.1,3.9-6c2.2-0.7,4.4-1.6,6.6-2.5
		c0.6-0.3,1.2-0.6,1.8-0.9c0.9-0.6,0.9-0.7,0-1.2c-1.7-0.9-3.4-1.6-5.2-2.2c-1.1-0.4-2.3-0.8-3.4-1.1c-0.5-0.2-1-0.3-1.2-0.8
		c0.9-2.4,0.3-4.5-1.2-6.5c-0.3-0.4-0.5-0.8-0.7-1.2c0-1.7,0.4-3.3,0.5-5c0.1-0.8,0.1-1.6,0.1-2.4c0-0.6-0.3-0.7-0.7-0.4
		c-0.8,0.5-1.6,1-2.4,1.6c-0.4,0.3-0.7,0.6-1.2,0.6c-1-1.4-2-2.8-2.8-4.3c2-1.4,4-3,6.4-3.8c0.6-0.2,1.3-0.4,2-0.5
		c1.4-0.1,2.5,0.5,3.1,1.7c1.2,2.4,1.1,4.9,0.9,7.4c-0.2,2.5-0.6,5.1-1.2,7.6c-0.2,0.8,0.1,1,0.7,1.1c3.3,1,6.6,2.2,9.6,3.9
		c0.9,0.5,1.8,1.2,2.6,1.9c2.1,2.1,2,4.1-0.2,6c-2.5,2.1-5.4,3.4-8.4,4.6c-1.2,0.5-2.4,0.9-3.6,1.3c-0.6,0.2-0.7,0.4-0.6,1
		C224.3,138.4,224.8,140.7,225.1,143.1z"/>
	<path class="st1" d="M160.3,189.1c0-4.5,0-9-0.1-13.5c0-0.9,0.4-0.9,1.1-0.9c5.3,0,10.6,0,15.9,0c1.7,0,3.4-0.2,4.8-1.4
		c0.6-0.5,1.1-0.2,1.2,0.4c0.3,1.7,1.4,2.8,2.9,3.6c0.8,1.7,1.1,3.5,0.5,5.3c-0.9,1-2.1,1.6-3.2,2.4c-1.7,1.2-2.5,2.8-2.6,4.8
		c-3.3-1.2-6-3.4-8.7-5.5c-0.7-0.5-1.3-1.1-1.9-1.6c-0.6-0.6-1-0.6-1.6,0C166.1,185.1,163.5,187.4,160.3,189.1z"/>
	<path class="st1" d="M96.5,137.5c-7.6,0-15.1,0-22.7,0.1c-2.1,0-4.1,0.5-5.3,2.6c-0.6,1-0.7,2.1-0.8,3.2c0,0.5,0,1,0,1.7
		c-3.2-2-6.6-1.3-9.9-1.4c-1.2,0-1.5-0.3-1.4-1.5c0.1-2.1-0.4-4.1-2.3-5.4c-0.8-0.5-1.6-0.8-2.5-0.8c-2.5-0.1-5.1-0.4-7.6,0.1
		c-2.5,0.5-3.8,2.1-4.1,4.6c-0.1,0.9,0.1,1.8-0.2,2.6c0.2-1.7-0.4-3-1.9-4c-1.4-1-1.9-2.6-1.3-4.4c4.3,0,8.6,0,12.8,0
		c15.6,0,31.2,0,46.8,0c0.3,0,0.6,0,0.8,0C97.5,136.1,97.4,136.7,96.5,137.5z"/>
	<path class="st1" d="M36.2,75.8c0,5.4,0,10.7,0,16.1c-3.2-1.1-6.4-2.3-9.2-4.5c-2.6-2.1-2.8-4.2-0.3-6.5c2.4-2.2,5.4-3.4,8.3-4.6
		C35.4,76.2,35.8,76,36.2,75.8z"/>
	<path class="st1" d="M135.4,37.6c-2,0.2-4,0.5-5.1,2.5c-0.6,1.1-0.9,2.3-0.9,3.5c0,2.4,0,4.8-0.1,7.2c-0.4-1.2-1-2.3-2.1-3
		c-0.2-0.1-0.5-0.4-0.7-0.4c-1.6-0.1-1.6-1-1.2-2.2c0.6-1.8-0.3-3.3-1.2-4.8c0.4-0.2,0.4-0.5,0.4-0.8c0-0.4,0-0.7,0-1.1
		c0.3-3.6,2.5-5.1,5.9-3.9C132.2,35.5,133.9,36.4,135.4,37.6z"/>
	<path class="st2" d="M209.5,65.5c-5.1,0-10.2,0-15.2,0.1c-0.9,0-0.6-0.7-0.7-1.2c-0.1-0.6,0-1,0.8-1c1.4,0,2.8,0,4.2,0
		c6,0,12.1,0,18.1,0c-1.7,0.4-3.4,0.2-5.1,0.1c-1.2,0-1.9,0.2-1.9,1.5C209.7,65.2,209.6,65.4,209.5,65.5z"/>
	<path class="st3" d="M210.2,100.3c-1.8-2.8-3.7-5.5-5.5-8.3c-0.6-0.9,0.2-0.7,0.6-0.7c3.5,0,6.9-0.1,10.4-0.1
		c-1.1,0.4-2.3,0.2-3.4,0.2c-1,0-1.2,0.3-1.1,1.2c0.2,1.8,0.3,3.6-0.1,5.5C210.9,98.9,210.7,99.7,210.2,100.3z"/>
	<path class="st3" d="M158.9,37.7c-3.7,0-7.4,0-11,0c1.9-1.5,3.9-2.8,6.3-3.3c2.4-0.5,3.7,0.3,4.5,2.6
		C158.7,37.1,158.8,37.4,158.9,37.7z"/>
	<path class="st1" d="M220.6,79.4c0-3,0-6.1-0.1-9.1c0.8,0.5,1.5,1,2.1,1.7c2,2,2,4.1-0.2,5.9C221.9,78.5,221.2,79,220.6,79.4z"/>
	<path class="st4" d="M127,175.9c0.4-1,1.2-1.4,2.3-1.3c1.1,0.1,2.1,0.1,3.2,0.1c-0.7,1.3-2,1.9-3.4,1.6
		C128.4,176.2,127.7,176,127,175.9z"/>
	<path class="st5" d="M79.4,125c-14.5,0-29,0-43.4,0c-1.1,0-1.4-0.2-1.4-1.4c0.1-2.8,0.1-5.5,0-8.3c0-1,0.2-1.3,1.3-1.3
		c12.4,0,24.7,0,37.1,0c0.5,0,1.2,0.3,1.2-0.6c0.1-0.9-0.1-1.2-1.1-1.2c-10.8,0-21.7,0-32.5,0c-1.1,0-1.4-0.2-1.4-1.3
		c0.1-2.8,0.1-5.5,0-8.3c0-1,0.2-1.3,1.2-1.3c10.9,0,21.8,0,32.6,0c0.8,0,1.2-0.1,1.2-1.1c0-1-0.5-1-1.2-1c-10.1,0-20.2,0-30.2,0
		c-1.2,0-1.4-0.3-1.4-1.5c0-10.5,0.1-21,0-31.6c0-1.3,0.4-1.5,1.5-1.5c10,0,20.1,0,30.1,0c0.9,0,1.3-0.1,1.3-1.2c0-0.9-0.3-1-1.1-1
		c-6.2,0-12.4,0-18.6,0c-6.3,0-12.6,0-18.8,0c-1,0-1.1-0.3-1.1-1.2c0-2.8,0.1-5.7,0-8.5c0-1,0.3-1.2,1.2-1.2c12.3,0,24.6,0,37,0
		c1.2,0,1.9-1,1.4-2.1c-0.2-0.4-0.6-0.3-0.9-0.3c-2,0-3.9,0-5.9,0c-8.1,0-16.2,0-24.2,0c-1,0-1.3-0.2-1.3-1.2c0.1-2.8,0.1-5.6,0-8.4
		c0-1.1,0.3-1.3,1.4-1.3c21.4,0,42.9,0,64.3,0c1,0,1.9-0.2,2.8-0.8c1.3-0.9,2.7-1.7,4.1-2.5c0.5-0.3,0.8-0.4,1.1,0.2
		c1.6,2.7,3.1,5.4,4.8,8c0.4,0.6,0.2,0.8-0.3,1.1c-2.5,1.5-4.9,2.9-7.4,4.5c-0.5,0.3-1,0.3-1.6,0.3c-8.2,0-16.4,0-24.6,0
		c-1.3,0-1.9,1-1.4,2.1c0.1,0.3,0.3,0.3,0.6,0.3c0.4,0,0.7,0,1.1,0c12.2,0,24.3,0,36.5,0c1,0,1.4,0.2,1.3,1.3
		c-0.1,2.8-0.1,5.6,0,8.4c0,1-0.3,1.2-1.2,1.2c-12.4,0-24.7,0-37.1,0c-0.8,0-1.3,0.1-1.3,1.1c0,1.1,0.6,1,1.3,1c10,0,20,0,30,0
		c1.3,0,1.5,0.4,1.5,1.6c0,10.5,0,21,0,31.4c0,1.1-0.2,1.5-1.4,1.5c-10-0.1-20.1,0-30.1-0.1c-1.1,0-1.4,0.4-1.3,1.4
		c0,0.7,0.3,0.8,0.9,0.8c1.5,0,3,0,4.4,0c9.4,0,18.9,0,28.3,0c1,0,1.3,0.2,1.3,1.2c-0.1,2.8-0.1,5.6,0,8.4c0,1-0.2,1.3-1.2,1.3
		c-10.8,0-21.7,0-32.5,0c-0.6,0-1.2-0.2-1.2,0.8c0,0.9,0.3,1.1,1.1,1c5.6,0,11.2,0,16.8,0c6.8,0,13.6,0,20.4,0
		c0.9,0,1.2,0.2,1.2,1.2c-0.1,2.8-0.1,5.6,0,8.4c0,1-0.2,1.3-1.3,1.3C108.5,125,93.9,125,79.4,125z"/>
	<path class="st5" d="M174.3,81.7c-0.5-0.3-1-0.2-1.4-0.2c-7,0-14,0-21,0c-0.9,0-1.2-0.2-1.2-1.2c0.1-2.8,0.1-5.7,0-8.5
		c0-1,0.2-1.3,1.2-1.3c8.1,0,16.2,0,24.4,0.1c1.2,0,1.5-0.4,1.4-1.5c-0.1-2.6,0-5.1,0-7.7c0-0.7,0.1-1.1,1-1.1c3,0.1,6,0.1,9,0
		c0.8,0,1,0.3,1,1c0,2.7,0,5.4,0,8c0,0.9,0.3,1.1,1.2,1.1c8.2,0,16.3,0,24.5,0c1.1,0,1.4,0.3,1.4,1.4c-0.1,2.8-0.1,5.6,0,8.4
		c0,1-0.3,1.2-1.2,1.2c-7,0-14.1,0-21.1,0c-0.4,0-0.8,0-1.2,0c0,0.7,0.4,1,0.6,1.4c7.7,11.7,15.4,23.4,23.2,35.1
		c0.5,0.8,0.5,1.1-0.3,1.6c-2.4,1.5-4.8,3-7.2,4.6c-0.8,0.6-1.1,0.4-1.6-0.4c-7.5-11.5-15.1-22.9-22.6-34.3
		c-0.2-0.2-0.3-0.5-0.5-0.7c-0.3-0.6-0.6-0.7-1,0c-0.4,0.7-0.9,1.4-1.4,2.1c-7.2,11-14.4,21.9-21.6,32.9c-0.6,0.9-0.9,1-1.8,0.4
		c-2.3-1.6-4.6-3.1-6.9-4.5c-0.8-0.5-0.9-0.8-0.3-1.6c7.7-11.7,15.4-23.5,23-35.2C173.9,82.5,174.1,82.1,174.3,81.7z"/>
	<path class="st5" d="M181,53.6c-11.5,0-23,0-34.4,0c-1,0-1.3,0.2-1.3,1.3c0,18.5,0,37,0,55.4c0,1-0.2,1.7-0.8,2.5
		c-2.7,3.7-5.3,7.4-7.9,11.1c-0.5,0.7-0.8,0.9-1.6,0.3c-2.3-1.7-4.7-3.4-7.1-5c-0.8-0.5-0.7-0.9-0.2-1.5c2.1-2.8,4.1-5.7,6.1-8.6
		c0.5-0.6,0.7-1.3,0.7-2.1c0-21,0-41.9,0-62.9c0-1.2,0.2-1.5,1.5-1.5c11.7,0.1,23.4,0,35.2,0.1c1.1,0,1.4-0.3,1.3-1.4
		c-0.1-1.7,0-3.4,0-5.2c0-0.8,0.3-1,1-1c3,0,5.9,0,8.9,0c0.7,0,1,0.2,1,0.9c-0.1,1.8,0,3.6,0,5.4c0,0.9,0.2,1.2,1.2,1.2
		c10.4,0,20.7,0,31.1,0c1,0,1.4,0.2,1.4,1.3c-0.1,2.8-0.1,5.5,0,8.3c0,1-0.2,1.3-1.2,1.3C204,53.6,192.5,53.6,181,53.6z"/>
	<path class="st1" d="M140.4,155.5c-4.8,0-9.6,0-14.4,0.1c-2.2,0-4.2,0.5-5.4,2.6c-0.3,0.4-0.6,0.5-1,0.5c-4.4,0-8.8,0-13.2,0
		c-0.8,0-0.9-0.4-0.9-1c0-0.6-0.1-1.2,0.9-1.1c2,0.1,4.1,0,6.1,0c1.8,0.1,3.6-0.3,5.2-1c1.7-0.8,3.6-1.2,5.1-2.3
		c1.6-1.2,1.9-2.8,2.1-4.7c0.3-3.3-1.3-6.1-2.3-9c-1.1-3.1-3.6-4.6-6.6-3.4c-4.2,1.7-8.4,1.2-12.6,1.3c-1.4,0-2.8,0-4.2,0
		c-0.6-0.8-0.7-1.7-0.5-2.6c8,0,16,0,24,0c2.6,0,4.9-0.5,6.1-3.3c0.2-0.5,0.5-0.3,0.7-0.1c1.1,0.8,2.2,1.6,3.3,2.4
		c0.3,1.3-0.1,2.5-0.3,3.7c-0.5,3-0.9,2.5,2.1,3.5c2.7,0.9,5.3,2,7.8,3.4c0.4,0.2,0.8,0.5,1,1c0,2.7,0,5.5,0,8.2
		C142.8,154.8,141.6,155.1,140.4,155.5z"/>
	<path class="st6" d="M190.8,142.3c-1.5,1.8-2.9,3.5-4.4,5.3c-0.7-0.3-0.5-0.8-0.4-1.3c0.2-1.8,0.2-3.6-0.1-5.4
		c-0.1-0.8-0.4-1.5-0.8-2.2c-0.7-1.2-1.7-1.7-3-1.5c-2,0.3-3.8,1.3-5.4,2.4c-2.1,1.4-4,2.9-5.8,4.7c-0.3,0.3-0.7,0.6-1,0.8
		c-0.6,0.4-1,0.4-1.6-0.1c-2.5-2.2-5.1-4.3-7.9-6c-0.3-0.2-0.5-0.4-0.7-0.6c-1.4-2-3.4-2.7-5.8-2.6c-0.9,0-1.8,0-2.6,0
		c-0.1-0.3,0.1-0.5,0.2-0.6c0.8-0.7,1.7-1.3,2.5-2.1c0.2-0.2,0.5-0.4,0.9-0.2c1.6,1.1,3.3,1.8,5.3,1.5c1.7,0.8,3,2.1,4.6,3
		c1.4,0.8,2.7,1.5,4.3,1.8c1.7,0.4,3-0.2,3.7-1.8c0.7-1.5,0.8-3.1,0.7-4.7c-0.2-3.1-0.7-6.2-1.3-9.2c-0.3-1.6-0.3-1.6,1.2-2.2
		c2.8-0.9,5.5-2.1,8.1-3.5c1.5-0.8,3-1.7,4-3.2c1-1.4,0.9-2.7-0.2-4c-1.2-1.4-2.7-2.3-4.3-3.2c-0.3-0.2-0.8-0.3-0.9-0.7
		c0.9-1.4,1.8-2.9,2.7-4.3c0.2-0.4,0.4-0.5,0.8-0.1c2.6,4,5.2,8,7.8,12c1.1,3,1.1,3-1.9,4c-2.7,1-5.5,2-8,3.6
		c-1.1,0.7-2.1,1.5-2.9,2.5c-1.1,1.4-1.1,2.5-0.1,3.9c1.5,1.9,3.5,2.9,5.7,3.9c2.2,1,4.5,1.7,6.7,2.5c1.3,0.5,1.5,0.7,1.2,2
		C191.6,138.7,191.6,140.6,190.8,142.3z"/>
	<path class="st6" d="M220.9,121.2c2.7,1.1,5.5,1.8,8.2,3.1c0.8,0.4,1.5,0.7,2.3,1.1c0.7,0.4,1,0.7,0,1.2c-2.7,1.5-5.5,2.6-8.4,3.5
		c-2.7,0.9-4.2,2.6-4.3,5.4c0,0.2-0.1,0.4-0.3,0.5c-3.2-1.1-5.4,0.6-7.5,2.5c-0.5,0.5-1.1,0.8-1.6,1.3c-1.1-0.1-2.3,0.3-3.4,0
		c-0.9-0.7-1.8-1.3-2.6-2.1c-1.8-1.8-3.8-2.5-6.3-1.8c-0.4-0.4-0.5-0.9-0.6-1.4c-0.4-1.9-1.6-3.1-3.5-3.7c-2.9-0.9-5.8-2-8.5-3.4
		c-0.5-0.2-1.1-0.4-1.1-1c0-0.7,0.6-0.9,1.1-1.1c2.6-1.5,5.4-2.6,8.3-3.5c1-0.3,1.8-1.2,2.9-1.2c2.4,3.6,4.8,7.1,7.1,10.8
		c1.9,3,5.3,3.9,8.3,1.8c2.5-1.7,5-3.4,7.6-4.9c2-1.2,3.4-3.8,2.5-6.2C220.9,121.9,220.9,121.5,220.9,121.2z"/>
	<path class="st1" d="M180,106.8c1.8,0.8,3.6,1.7,5,3.2c2,2,1.9,4.1-0.3,6c-2.5,2.1-5.4,3.4-8.4,4.6c-1.2,0.5-2.4,0.9-3.6,1.3
		c-0.5,0.2-0.7,0.4-0.6,1c0.7,3.2,1.3,6.4,1.5,9.7c0.1,1.8,0,3.5-0.8,5.2c-0.8,1.7-2.1,2.3-3.9,1.9c-2.9-0.6-5.2-2.3-7.6-4
		c-0.5-0.3-1.1-0.6-1.3-1.2c1.8-0.5,2.9-1.8,3.9-3.3c5-7.7,10.1-15.4,15.1-23.1C179.4,107.6,179.7,107.2,180,106.8z"/>
	<path class="st1" d="M195.5,120.7c-1.9,1.5-4.3,1.9-6.4,2.8c-1.6,0.7-3.2,1.4-4.8,2.2c-0.3,0.2-0.9,0.3-0.9,0.7
		c0,0.5,0.5,0.5,0.9,0.7c2.6,1.4,5.4,2.5,8.3,3.3c2.4,0.7,3.9,2.1,4.2,4.6c0,0.3,0.1,0.6,0.2,0.9c-2,0.8-3,2.6-4.4,4.1
		c-0.6,0.7-1.2,1.4-1.8,2.2c0.2-1.9,0.5-3.7,0.9-5.5c0.2-1,0-1.4-1-1.7c-3-0.9-5.9-1.9-8.7-3.4c-1.4-0.7-2.7-1.5-3.7-2.8
		c-1.5-1.9-1.4-3.4,0.2-5.1c1.8-1.9,4-3,6.3-4c1.9-0.8,3.8-1.5,5.7-2.2c0.8-0.3,1.2-0.6,0.9-1.5c-0.2-0.5-0.4-1.1-0.3-1.8
		C192.9,116.4,194.1,118.6,195.5,120.7z"/>
	<path class="st1" d="M154.8,132.9c-1.3,0.8-2.4,1.9-3.6,2.9c-1,0-1.9,0-2.9,0.1c-2.4,0.4-4,1.6-4.6,4c-0.9,0.6-1.8,0.3-2.7-0.2
		c-1.7-1-2.8-4.2-2.1-6.1c1.9-2.1,3.3-4.5,5-6.7c0.4-0.5,0.8-1.1,1.3-1.8c0.6,1.8,1.9,2.8,3.3,3.7
		C150.6,130.1,152.7,131.5,154.8,132.9z"/>
	<path class="st1" d="M150.3,109.3c0-6.3,0-12.1,0-18c3.9-0.1,7.7-0.2,11.7,0.1C158.1,97.4,154.3,103.2,150.3,109.3z"/>
	<path class="st6" d="M139,133.6c0.1,0.9,0.1,1.9,0.4,2.8c0.6,2.6,1.7,3.5,4.4,3.4c-0.4,1.8-0.1,3.7-0.3,5.5
		c-3.3-2.1-6.9-3.4-10.6-4.6c-0.8-0.3-1.1-0.6-0.9-1.5c0.4-1.8,0.7-3.7,1-5.5C135,134.9,137,134.8,139,133.6z"/>
	<path class="st3" d="M125.5,72.4c2-0.5,3.2-1.9,3.8-3.8c0,6.4,0,12.8,0,19.2c-1.3,0.5-2.5,0.1-3.5-1.1c-1-1.3-1.2-2.8-1.3-4.3
		C124.3,79,124.7,75.7,125.5,72.4z"/>
	<path class="st1" d="M122.9,97.6c-0.4-0.2-0.2-0.6-0.2-0.9c0-7.7,0-15.5,0-23.2c0-0.3-0.2-0.7,0.2-0.8c0.5,0.5,0.4,1.2,0.4,1.8
		c0,4.5,0,9,0,13.6c0,2,0,2,1.8,2.7c1.5,0.6,3,1,4.3,2.1c0,3.8,0,7.7,0,11.5c-1.3,1-2.8,1.8-4.5,1.9c-0.2-1.8,0.2-3.7-0.2-5.5
		c0.9-0.7,2-0.8,2.9-1.5c1-0.7,1-0.8-0.1-1.4c-1-0.5-2.1-0.9-3.1-1.4c-0.8-0.4-1.2-0.3-1.2,0.7C123.1,97.4,123,97.6,122.9,97.6z"/>
	<path class="st6" d="M129.3,92.9c-2-0.8-4-1.5-6-2.3c-0.6-0.2-0.5-0.7-0.5-1.1c0-5.6,0-11.2,0-16.8c0.9,0,1.8-0.1,2.7-0.3
		c0.3,1.3-0.2,2.5-0.4,3.8c-0.3,2.6-0.5,5.1-0.1,7.7c0.4,2.6,1.7,3.8,4.3,3.9C129.3,89.5,129.3,91.2,129.3,92.9z"/>
	<path class="st7" d="M172.5,65.5c-1.3,0.4-2.6,0.2-3.9,0.2c-5.9-0.2-11.7,0-17.6-0.1c-0.4,0-0.9,0.1-0.7-0.5
		c0.2-0.6-0.6-1.6,0.6-1.7c1.2-0.1,2.4,0,3.6,0c5.6,0,11.1,0,16.7,0c1.7,0,1.9,0.1,1.4,1.9c-0.9-1.7-1-1.8-2.7-0.4
		c-0.1,0.1-0.3,0.2-0.5,0.3C170.5,65.4,171.6,64.9,172.5,65.5z"/>
	<path class="st8" d="M215.3,108c1.3-1.2,2.8-2.2,4.5-3.1c0.3,2.1,0,4-0.3,5.9c-0.1,0.9,0,1.9-0.6,2.7
		C217.7,111.7,216.5,109.8,215.3,108z"/>
	<path class="st8" d="M124.8,106.3c1.5-0.6,3-1.3,4.5-1.9c0.6,2.2-0.8,3.7-2,5.2c-0.6,0.7-1.2-0.2-1.9-0.2c-0.4,0-0.6-0.2-0.6-0.7
		C124.8,107.9,124.8,107.1,124.8,106.3z"/>
	<path class="st9" d="M122.9,97.6c0-0.6-0.1-1.2,0.1-1.8c1.9,0.7,3.7,1.4,5.4,2.4c0.3,0.2,0.7,0.4,0.2,0.8c-1.3,0.7-2.5,1.6-4,1.8
		C124.4,99.6,123.8,98.5,122.9,97.6z"/>
	<path class="st8" d="M98.9,134.9c0.2,0.9,0.3,1.7,0.5,2.6c-1,0-1.9,0-2.9,0c0.5-0.8,0.5-1.7,0.4-2.6
		C97.6,134.9,98.2,134.9,98.9,134.9z"/>
	<path class="st10" d="M172.5,65.5c-1.3,0-2.5,0-4,0c0.8-0.7,1.4-1.2,2-1.7c0.5-0.4,1.2-0.4,1.7-0.2c0.6,0.3,0.1,1.1,0.3,1.6
		C172.6,65.4,172.5,65.4,172.5,65.5z"/>
	<path class="st11" d="M93.2,142.6c6.2,0,12.3-0.1,18.5,0c1.8,0,3.2-0.7,4.8-1.4c1.1-0.5,1.6-0.3,2,0.9c0.4,1.4,1,2.7,1.6,4
		c0.2,0.5,0.2,0.8-0.5,1.1c-1.6,0.6-3.1,1.2-4.7,1.8c-0.5,0.2-1.1,0.2-1.6,0.2c-10.9,0-21.8,0-32.6,0c-1,0-1.4,0.2-1.3,1.3
		c0.1,4,0.1,8,0,12c0,0.9,0.2,1.2,1.1,1.1c4.1,0,8.2-0.1,12.4,0c1,0,1.2-0.3,1.2-1.2c0-3.4,0-6.8,0-10.2c0-0.9,0.3-1.1,1.1-1.1
		c1.5,0.1,3,0.1,4.6,0c0.8,0,1.1,0.2,1.1,1.1c0,3.4,0,6.7,0,10.1c0,1,0.2,1.4,1.3,1.3c6.8-0.1,13.5,0,20.3,0c1,0,1.4,0.2,1.3,1.2
		c-0.1,1.3-0.1,2.6,0,4c0.1,1.2-0.4,1.4-1.4,1.4c-6.7,0-13.4,0-20,0c-1.1,0-1.4,0.2-1.4,1.4c0.1,7.4,0,14.7,0.1,22.1
		c0,1-0.3,1.3-1.3,1.3c-4-0.1-7.9-0.1-11.9,0c-1,0-1.4-0.2-1.3-1.2c0.1-1.5,0.1-3,0-4.4c0-0.9,0.3-1.1,1.1-1.1c1.8,0.1,3.6,0,5.4,0
		c0.9,0,1.3-0.1,1.2-1.2c-0.1-5.2,0-10.5,0-15.7c0-0.9-0.3-1.1-1.2-1.1c-6.2,0-12.5,0-18.7,0c-0.9,0-1.3-0.2-1.3-1.2
		c0-8.4,0-16.8,0-25.2c0-1,0.3-1.2,1.3-1.2C80.4,142.6,86.8,142.6,93.2,142.6z"/>
	<path class="st11" d="M54.2,173.5c2,2.8,3.8,5.3,5.6,7.8c2.2,3,4.3,5.9,6.5,8.9c0.4,0.6,0.4,1-0.2,1.4c-1.3,0.9-2.7,1.8-4,2.9
		c-0.6,0.5-0.9,0.2-1.2-0.2c-3.9-5.5-7.9-10.9-11.8-16.4c-0.8-1.1-0.8-1.1-1.5,0c-3.4,5.3-6.8,10.6-10.2,15.9
		c-0.5,0.8-0.9,0.9-1.7,0.4c-1.2-0.8-2.5-1.6-3.7-2.4c-0.7-0.4-0.7-0.7-0.3-1.4c3.1-4.9,6.3-9.8,9.4-14.8c0.4-0.6,0.7-1.2,1.3-2
		c-1.1,0-2,0-3,0c-2.1,0-4.2,0-6.2,0c-0.7,0-0.9-0.2-0.9-0.9c0-1.6,0.1-3.1,0-4.7c0-0.8,0.3-1,1-1c3.4,0,6.9,0,10.3,0
		c1,0,1.2-0.3,1.2-1.2c-0.1-3.1-0.1-6.2,0-9.2c0-1-0.2-1.3-1.2-1.3c-2.8,0.1-5.5,0-8.3,0c-0.9,0-1.1-0.3-1.1-1.1
		c0.1-1.5,0.1-3,0-4.6c0-0.9,0.3-1.1,1.1-1.1c2.8,0,5.6,0,8.4,0c0.9,0,1.1-0.3,1.1-1.1c-0.1-1.9,0-3.8,0-5.6c0-0.8,0.2-1.1,1-1
		c1.6,0.1,3.1,0.1,4.7,0c0.8,0,1.1,0.2,1,1c-0.1,1.9,0,3.8,0,5.6c0,0.9,0.3,1.1,1.2,1.1c3.4,0,6.9,0,10.3,0c1.3,0,1.5,0.4,1.5,1.6
		c-0.1,5.2,0,10.5,0,15.7c0,1,0.3,1.2,1.2,1.2c2.5,0,2.5,0,2.5,2.4c0,0.9-0.1,1.8,0,2.6c0.1,1.1-0.2,1.5-1.4,1.5
		c-3.8-0.1-7.5,0-11.3,0C55,173.5,54.7,173.5,54.2,173.5z"/>
	<path class="st5" d="M148.6,181c0-4.2,0-8.4,0-12.6c0-0.9-0.3-1.1-1.1-1.1c-7.1,0-14.2,0-21.2,0c-1,0-1.3-0.2-1.3-1.2
		c0.1-1.4,0.1-2.9,0-4.3c0-0.9,0.2-1.2,1.2-1.2c6.8,0,13.7,0,20.5,0c1.9,0,1.9,0,1.9-2c0-5.6,0-11.1,0-16.7c0-0.8,0.2-1.1,1.1-1.1
		c1.4,0.1,2.9,0.1,4.3,0c1-0.1,1.4,0.2,1.4,1.3c-0.1,5.7,0,11.4-0.1,17.2c0,1,0.2,1.3,1.2,1.2c7.1,0,14.2,0,21.2,0
		c0.9,0,1.3,0.2,1.2,1.2c-0.1,1.5-0.1,3,0,4.4c0,0.9-0.3,1.1-1.2,1.1c-7.1,0-14.2,0-21.4,0c-0.9,0-1.2,0.2-1.2,1.2
		c0,8.4,0,16.7,0,25.1c0,1-0.3,1.2-1.2,1.2c-1.5-0.1-3-0.1-4.6,0c-0.8,0-1-0.2-1-1C148.6,189.4,148.6,185.2,148.6,181z"/>
	<path class="st11" d="M188.2,163.7c12.4,0,24.7,0,37.1,0c1.6,0,1.6,0,1.6,1.5c0,9.4,0,18.7,0,28.1c0,1-0.2,1.4-1.3,1.4
		c-3.4-0.1-6.7-0.1-10.1,0c-0.9,0-1.2-0.3-1.1-1.2c0.1-1.5,0.1-3,0-4.6c0-0.8,0.2-1.1,1-1c1.3,0.1,2.6,0,3.8,0c0.7,0,1-0.2,1-0.9
		c0-5.2,0-10.5,0-15.7c0-0.7-0.2-0.9-0.9-0.9c-5.8,0-11.7,0-17.5,0c-0.9,0-0.8,0.4-0.8,1.1c0,4.9,0,9.8,0,14.6
		c0,0.7-0.2,1.1-0.7,1.5c-3.2,2.2-6.4,4.4-9.5,6.7c-0.7,0.5-1.1,0.4-1.6-0.3c-0.8-1.2-1.6-2.4-2.5-3.5c-0.6-0.8-0.4-1.2,0.3-1.7
		c2.2-1.4,4.2-3,6.4-4.5c0.7-0.4,1-0.9,0.9-1.8c0-3.6-0.1-7.3,0-10.9c0-1-0.3-1.3-1.3-1.2c-1.2,0.1-2.5,0-3.7,0c-0.8,0-1.1-0.2-1-1
		C188.2,167.5,188.2,165.6,188.2,163.7C188.2,163.7,188.2,163.7,188.2,163.7z"/>
	<path class="st11" d="M28,161.9c0,5.1,0,9.9,0,14.7c0,5.6,0,11.3,0,16.9c0,0.9-0.2,1.2-1.1,1.2c-1.4-0.1-2.8-0.1-4.2,0
		c-1.1,0.1-1.4-0.2-1.4-1.4c0-9.8,0-19.7,0-29.5c0-0.5,0-1,0-1.7c-0.9,0.5-1.5,1.1-2.1,1.7c-0.4,0.4-0.7,0.5-1.1,0
		c-1.1-1.3-2.3-2.5-3.5-3.7c-0.3-0.4-0.4-0.6,0-1c1.3-1.2,2.6-2.4,3.8-3.7c0.5-0.5,0.7-0.3,1,0.1c0.6,0.7,1.2,1.3,1.8,2
		c0.4-0.3,0.2-0.7,0.2-1c0-4.9,0-9.8,0-14.8c0-0.9,0.2-1.2,1.1-1.1c1.4,0.1,2.9,0.1,4.3,0c1-0.1,1.3,0.4,1.3,1.3c0,4.7,0,9.4,0,14.2
		c0,0.4,0,0.8,0,1.2c0.1,0.1,0.2,0.1,0.3,0.2c0.6-0.7,1.2-1.3,1.8-2c0.3-0.3,0.5-0.4,0.9,0c1.2,1.3,2.5,2.6,3.7,3.9
		c0.4,0.4,0.5,0.7,0,1.2c-1.3,1.1-2.5,2.3-3.7,3.4c-0.4,0.4-0.6,0.4-1,0C29.5,163.3,28.9,162.7,28,161.9z"/>
	<path class="st1" d="M159.6,138.4c2.7,1.2,4.8,3.1,7.1,4.9c0.4,0.3,0.8,0.7,1.2,1c1.3,1.1,1.3,1.1,2.6-0.1c3-2.7,6-5.4,9.9-6.9
		c0.6-0.2,1.3-0.4,2-0.5c1.3-0.2,2.5,0.5,3.1,1.7c1.2,2.4,1.1,4.9,0.9,7.5c0,0.5-0.3,1,0.1,1.5c-2.2,2.6-4.3,5.2-6.5,7.8
		c-0.2,0.2-0.4,0.4-0.7,0.3c-5.9-0.5-11.7-0.1-17.6-0.2c-1.1,0-1.4-0.4-1.3-1.4c0.1-3.8,0-7.6,0-11.4
		C160.3,141.3,160.1,139.9,159.6,138.4z"/>
	<path class="st6" d="M78.5,200.9c1.6,1.5,2.6,3.5,3.8,5.3c0.5,0.8,0.9,1.8,1.4,2.6c0.4,0.7,0.3,1-0.6,0.9c-2-0.1-4-0.5-5.9-1
		c-1.3-0.4-2.6-0.8-3.9-1.1c-3-0.8-5.5,0.8-6.5,3.3c-1.3,3.1-2.7,6.1-4.7,8.7c-0.1,0.1-0.2,0.2-0.4,0.4c-1.6-3.1-2.5-6.4-3.2-9.7
		c-0.3-1.6-0.9-3.1-2.4-4c-1.1-0.6-2.2-1-3.4-0.8c-3.6,0.5-7.2,0.5-10.9,0.4c0.5-1.3,1.4-2.2,2.2-3.1c1.5-1.6,3.1-3.2,4.7-4.8
		c2.3-2.2,2.7-4.9,0.9-7.5c-0.5-0.7-1-1.4-1.5-2.1c0.4-0.9,0.6-0.1,0.8,0.1c1.5,2.1,3,4.1,4.5,6.2c1.3,1.7,2.5,3.5,3.8,5.3
		c1.6,2.2,4.9,2.8,7.1,1.2c0.9-0.6,1.8-1.2,2.6-1.9c0.4-0.3,0.8-0.4,1.3-0.1c1.2,0.7,2.4,1.3,3.6,2
		C74.2,202.4,76.4,202.4,78.5,200.9z"/>
	<path class="st11" d="M234.5,162.4c-0.1,0.1-0.3,0.3-0.5,0.5c-1.4,1.1-2.7,2.2-4.1,3.4c-0.6,0.6-0.9-0.1-1.1-0.4
		c-1.8-2.1-3.6-4.2-5.3-6.3c-3.2-3.8-6.4-7.6-9.5-11.4c-0.7-0.9-1.4-1.7-2.1-2.6c-0.4-0.5-0.5-0.8,0-1.2c1.3-1.1,2.6-2.2,3.9-3.3
		c0.4-0.4,0.7-0.3,1.1,0.1c3,3.6,6.1,7.2,9.1,10.8c2.7,3.2,5.3,6.4,8,9.6C234.1,161.8,234.4,162,234.5,162.4z"/>
	<path class="st11" d="M188.2,163.7c-0.6,0.7-1.3,1.4-1.8,2.2c-0.4,0.5-0.8,0.7-1.3,0.2c-1.2-1.1-2.5-2.1-3.8-3.2
		c-0.5-0.4-0.6-0.7-0.1-1.3c5.1-6,10.2-12.1,15.3-18.2c0.6-0.7,1.2-1.4,1.7-2.1c0.4-0.5,0.8-0.7,1.3-0.2c1.2,1.1,2.5,2.1,3.7,3.2
		c0.6,0.5,0.5,0.8,0,1.4c-3.2,3.8-6.5,7.7-9.7,11.5C191.8,159.3,190,161.5,188.2,163.7C188.2,163.7,188.2,163.7,188.2,163.7z"/>
	<path class="st11" d="M86.1,175.1c-0.1,0.2-0.2,0.4-0.3,0.7c-3.3,6-6.7,12.1-9.9,18.1c-0.5,1-1,1-1.8,0.5c-1.3-0.8-2.6-1.5-3.9-2.1
		c-0.7-0.3-0.8-0.6-0.4-1.4c3.5-6.2,6.9-12.3,10.3-18.5c0.3-0.5,0.5-0.9,1.2-0.5c1.5,0.9,3,1.7,4.5,2.5
		C85.9,174.5,86.2,174.6,86.1,175.1z"/>
	<path class="st11" d="M118,194.8c-0.5,0-0.5-0.4-0.7-0.7c-2.7-4.8-5.3-9.7-8-14.6c-0.7-1.3-1.4-2.6-2.2-3.9
		c-0.4-0.7-0.4-1.1,0.4-1.5c1.4-0.7,2.7-1.5,4.1-2.2c0.6-0.3,0.9-0.3,1.3,0.3c3.4,6.2,6.9,12.4,10.3,18.6c0.3,0.6,0.3,0.9-0.3,1.2
		c-1.5,0.8-2.9,1.6-4.4,2.4C118.4,194.6,118.2,194.7,118,194.8z"/>
	<path class="st6" d="M214.4,158.7c-4.6,0-9,0-13.6,0c1.6-1.9,3-3.6,4.5-5.3c0.8-0.9,1.4-2,2.4-2.7c0.8,0.9,1.5,1.8,2.3,2.7
		C211.4,155.1,212.8,156.8,214.4,158.7z"/>
	<path class="st12" d="M186.7,182.6c0.1-1.8-0.3-3.5-0.5-5.3c0.8,0.1,1.6,0.3,2.5,0.4c0.1,0,0.3,0,0.3,0.1c0.3,0.3,0,3.3-0.3,3.5
		C188.1,181.8,187.5,182.4,186.7,182.6z"/>
	<path class="st13" d="M86.6,158.6c-0.4,0-0.8-0.1-1.2,0c-1,0.2-1.2-0.3-1.1-1.2c0-0.7,0.2-1,1-0.9c0.8,0.1,1.6,0,2.4,0
		c1.1,0,1.6,0.7,1.2,1.8c-0.1,0.3-0.3,0.3-0.6,0.3C87.7,158.6,87.1,158.6,86.6,158.6z"/>
	<path class="st9" d="M67.8,184c-0.8-1.1-1.4-2-2.2-3.1c1.5,0.1,2.7-0.2,4.1-0.5C69.1,181.7,68.5,182.7,67.8,184z"/>
	<path class="st14" d="M205.9,140c1.1-0.1,2.3-0.7,3.4,0C207.3,141.8,207.9,141.7,205.9,140z"/>
	<path class="st15" d="M140.4,155.5c1-0.6,2-1.2,3-1.9c0.1,1.9,0.1,1.9-1.7,1.9C141.3,155.5,140.9,155.5,140.4,155.5z"/>
	<path class="st16" d="M45.2,193c0.8,0.5,0.9,1.1,0,1.6c-0.8,0.5-1.2,1.5-2.2,1.7C43.7,195.2,44.5,194.1,45.2,193z"/>
	<path class="st17" d="M62.6,89.5c-3.4,0-6.9,0-10.3,0c-0.9,0-1.3-0.1-1.2-1.1c0.1-2.2,0-2.2,2.2-2.2c6.5,0,13.1,0,19.6,0
		c1,0,1.2,0.3,1.2,1.2c-0.1,2.1,0,2.1-2.2,2.1C68.9,89.5,65.7,89.5,62.6,89.5z"/>
	<path class="st17" d="M96.2,89.5c-3.4,0-6.9,0-10.3,0c-0.8,0-1.1-0.2-1.1-1.1c0-2.2,0-2.2,2.2-2.2c6.6,0,13.1,0,19.7,0
		c0.9,0,1.1,0.3,1.1,1.1c0,2.2,0,2.2-2.2,2.2C102.5,89.5,99.4,89.5,96.2,89.5z"/>
	<path class="st0" d="M62.7,78c-3.5,0-6.9,0-10.4,0c-0.9,0-1.2-0.2-1.1-1.1c0.1-2.1,0-2.1,2.1-2.1c6.5,0,13.1,0,19.6,0
		c1,0,1.5,0.2,1.3,1.3c0,0.3,0,0.6,0,0.8c0.1,0.8-0.2,1.1-1.1,1.1C69.6,78,66.1,78,62.7,78z"/>
	<path class="st0" d="M96.2,78c-3.4,0-6.8,0-10.2,0c-0.9,0-1.2-0.2-1.2-1.2c0.1-2,0-2,2-2c6.6,0,13.2,0,19.8,0
		c0.9,0,1.1,0.2,1.1,1.1c-0.1,2.1,0,2.1-2.1,2.1C102.6,78,99.4,78,96.2,78z"/>
	<path class="st18" d="M152.1,91.5c2.6,0,4.9,0,7.5,0c-1.2,1.1-2.3,2.1-3.5,3.1c-0.3,0.3-0.5,0-0.7-0.2
		C154.4,93.5,153.4,92.6,152.1,91.5z"/>
	<path class="st0" d="M57.6,161.2c0,1.6,0,3.3,0,4.9c0,0.7-0.2,0.9-0.9,0.9c-1.5,0-3,0-4.5,0c-0.6,0-0.8-0.2-0.8-0.8
		c0-3.4,0-6.7,0-10.1c0-0.6,0.2-0.8,0.8-0.8c1.5,0,3,0,4.5,0c0.7,0,0.9,0.2,0.9,0.9C57.6,157.9,57.6,159.5,57.6,161.2z"/>
</g>
</svg>
