<svg id="圖層_1" data-name="圖層 1" xmlns="http://www.w3.org/2000/svg" viewBox="0 0 232.88 189.65"><defs><style>.cls-1{fill:#2d95d1;}.cls-2{fill:#bfe692;}.cls-3{fill:#3ea7ba;}.cls-4{fill:#fcaa61;}.cls-5{fill:#bfe693;}.cls-6{fill:#b5dde4;}.cls-7{fill:#7ec4d1;}.cls-8{fill:#fefefe;}.cls-9{fill:#fdfefe;}.cls-10{fill:#bee593;}.cls-11{fill:#fdfdfe;}.cls-12{fill:#cde3f2;}.cls-13{fill:#3da7bb;}.cls-14{fill:#3ea7bb;}.cls-15{fill:#8bcaa9;}.cls-16{fill:#9ad1a3;}.cls-17{fill:#98bf6b;}.cls-18{fill:#f4f8fa;}.cls-19{fill:#d4b652;}.cls-20{fill:#4ca6c4;}.cls-21{fill:#f2f7fb;}.cls-22{fill:#b2df98;}.cls-23{fill:#bbe495;}.cls-24{fill:#48acb8;}.cls-25{fill:#3aa2c1;}.cls-26{fill:#69b7b8;}.cls-27{fill:#48a5c5;}.cls-28{fill:#59aebe;}.cls-29{fill:#5bb6b1;}.cls-30{fill:#79c4aa;}.cls-31{fill:#4aa5c5;}.cls-32{fill:#7cc4d0;}.cls-33{fill:#bee693;}.cls-34{fill:#2f96d2;}.cls-35{fill:#2e96d2;}.cls-36{fill:#b1de99;}.cls-37{fill:#3ca5bd;}.cls-38{fill:#aedd9a;}</style></defs><title>4</title><path class="cls-1" d="M48,114.25c-5.44,0-10.87-.08-16.31,0-1.13,0-1.51-.24-1.46-1.43.11-2.66-.32-5.32-.24-8,0-.92.29-1.12,1.16-1.11,6.75,0,13.51,0,20.26,0,.48,0,1,0,1.44,0a3.07,3.07,0,0,1,1.74-.35h5.51c.32,0,.64,0,1,0,.53,0,.95-.16,1-.81s-.42-.8-.95-.81c-1.79,0-3.59,0-5.39,0a2.05,2.05,0,0,1-1.59-.37c-7,0-14-.06-21,0-1.16,0-1.42-.3-1.46-1.45-.45-12.82-.07-25.65-.23-38.48,0-1.06.23-1.4,1.36-1.39,9.44.05,18.88,0,28.32.05,1,0,1.48-.18,1.42-1.35-.11-2,0-2-2-2q-15.77,0-31.55,0c-1,0-1.32-.21-1.27-1.23.13-2.59-.31-5.16-.25-7.76,0-1.13.26-1.47,1.44-1.46,10.72,0,21.44,0,32.15,0,1.19,0,1.74-.25,1.5-1.49a1.29,1.29,0,0,1,0-.48c.23-1.22-.35-1.41-1.45-1.41-9.08,0-18.16,0-27.24,0-1.09,0-1.43-.25-1.38-1.37.12-2.59-.32-5.16-.25-7.76,0-1,.29-1.24,1.28-1.24q31.73,0,63.47,0c6.08,0,12.16,0,18.23,0,1,0,1.29.3,1.25,1.28-.1,2.63.34,5.25.25,7.89,0,1-.28,1.2-1.22,1.2-9.24,0-18.48,0-27.72,0-1.12,0-1.66.23-1.45,1.43a1.29,1.29,0,0,1,0,.48c-.18,1.13.25,1.48,1.42,1.47,10.68,0,21.36,0,32,0,1.1,0,1.42.29,1.39,1.39-.09,2.63.32,5.25.24,7.89,0,1-.3,1.17-1.22,1.17-10.8,0-21.59,0-32.39,0-1.22,0-1.69.3-1.48,1.51a2.89,2.89,0,0,1,0,.83c-.09.78.22,1,1,1,1.88,0,3.76,0,5.64,0,7.6,0,15.2,0,22.8,0,1.22,0,1.66.31,1.47,1.51a8.54,8.54,0,0,0,0,1.43,4.92,4.92,0,0,1,.57,2.78c0,8.68.06,17.36,0,26a9.9,9.9,0,0,1-10.17,10c-6.31.07-12.63,0-19,0a6.83,6.83,0,0,0-1.43.07.66.66,0,0,0-.56.79.63.63,0,0,0,.54.68,6.21,6.21,0,0,0,1.43.08H116.9c1.76,0,2,.28,2,2,0,2.36.36,4.7.25,7.07-.08,1.89-.36,2.23-2.28,2.23H87.64c-.66,0-1,.25-1.06,1s.37,1.09,1.09,1.1h31.07c2.48,0,2.54.1,2.62,2.54.07,2.15.3,4.3.23,6.46-.06,1.81-.28,2.08-2.12,2.08H46.29a3.47,3.47,0,0,1-2.1-.3c-5.11,0-10.22-.06-15.33,0-1,0-1.3-.24-1.26-1.25.1-2.7-.35-5.4-.24-8.11,0-.83.24-1.07,1.08-1.06,5.71,0,11.42,0,17.13,0,.47,0,1,0,1.43,0a3.24,3.24,0,0,1,1.86-.3c3.88,0,7.75,0,11.63,0,.55,0,1.25.19,1.47-.65s-.13-1.44-1.27-1.45c-3.64,0-7.27,0-10.91,0A2.44,2.44,0,0,1,48,114.25Z" transform="translate(-6.85 -30.94)"/><path class="cls-2" d="M187.72,185.51A49.09,49.09,0,0,1,183,192a79,79,0,0,1-47.51,27.44,77.18,77.18,0,0,1-16.69,1.11,79.26,79.26,0,0,1-63.27-36.28c-.17-.27-.36-.52-.55-.78.42-.62,1.07-.45,1.64-.45,3.83,0,7.65,0,11.48,0a6.68,6.68,0,0,0,2.8-.52A4.82,4.82,0,0,0,74,177.83q0-3.36,0-6.7a3.85,3.85,0,0,1,.2-1.65c.92-.77,1.21-.75,2,.15a18.46,18.46,0,0,1,.42,2.47,1.1,1.1,0,0,0,1.2,1.06c2.15,0,4.3.05,6.45,0,1.07,0,1.19-.27,1.25-1.85a6,6,0,0,1,.07-1c.17-.71.52-.94,1.12-.37.46,1.16.19,2.37.23,3.56s.05,2.16,0,3.24c-.06,1.23-.45,1.62-1.69,1.72-.91.08-1.83,0-2.75,0s-1.32.38-1.31,1.29a24.85,24.85,0,0,0,.21,4c.13.75.48,1.2,1.23,1.2,4,0,8,.33,12-.21A4.84,4.84,0,0,0,99,179.72c.06-2.64,0-5.28,0-7.92a2.51,2.51,0,0,1,.34-1.73,3.61,3.61,0,0,1,2.9,0,2.35,2.35,0,0,1,.36,1.71c0,2.64-.11,5.28,0,7.91.22,4.11.14,3.27,3.28,3.31,4,.05,7.91,0,11.86,0a7,7,0,0,0,2.69-.48,4.91,4.91,0,0,0,3.25-4.71c0-1.83,0-3.67,0-5.51a3.73,3.73,0,0,1,.21-1.65,1.38,1.38,0,0,1,1.82-.37,2.92,2.92,0,0,1,.59,1.77,1.13,1.13,0,0,0,1.28,1.11c2.1,0,4.2,0,6.3,0,1.14,0,1.26-.24,1.34-1.87.09-.63.19-1.24,1.08-.95a1.69,1.69,0,0,1,.33,1.24c0,1.64,0,3.28,0,4.91s-.44,1.88-1.95,2c-.84,0-1.68,0-2.52,0s-1.28.31-1.27,1.19a25.11,25.11,0,0,0,.2,4.06c.13.75.5,1.18,1.25,1.18,3.94,0,7.9.32,11.83-.19a4.89,4.89,0,0,0,4.46-5.2c0-2.55,0-5.11,0-7.66a2.67,2.67,0,0,1,.31-1.73,5.83,5.83,0,0,1,2.54-.41c.57-.06.86.31.93.86,0,.39,0,.78,0,1.18,0,3.3-.57,6.59-.49,9.89.1,4.06.14,3.54,3.34,3.53,1.66,0,3.35.29,5-.32a1.3,1.3,0,0,1,.82-.11,5.29,5.29,0,0,0,2.32.46c2,0,4.07,0,6.1,0a2.94,2.94,0,0,0,2.47-.9.43.43,0,0,1,.41.07,2.72,2.72,0,0,0,2.27.81c3.76,0,7.53-.11,11.3,0C186.6,185.18,187.23,185.05,187.72,185.51Z" transform="translate(-6.85 -30.94)"/><path class="cls-2" d="M44.19,127.52c.52,0,1,0,1.56,0q37,0,74,0c1.2,0,1.52-.27,1.54-1.51,0-2.71-.38-5.41-.28-8.12,0-.56-.19-.82-.76-.78-.32,0-.64,0-1,0H87.63c-.45,0-1.11.26-1.31-.28a4.6,4.6,0,0,1,0-2.36c0-.21.29-.24.5-.24h1c9.91,0,19.83,0,29.75,0,1,0,1.26-.28,1.29-1.27.09-2.84-.36-5.65-.26-8.49,0-.56-.19-.81-.76-.77a7.85,7.85,0,0,1-.84,0c-9.84,0-19.67,0-29.51,0-1,0-1.24-.35-1.25-1.3s.3-1.2,1.23-1.2c6.6,0,13.2,0,19.79,0,6.14,0,10.17-4,10.17-10.1,0-8.47,0-17,0-25.43,0-1-.44-1.87-.22-2.84a71,71,0,0,1,10,0c.62.62.42,1.42.42,2.16q0,20,0,39.94c0,4.84,0,9.68,0,14.51,0,2.53.26,5,.26,7.55,0,.86.37,1.21,1.23,1.21h20.27c.85,0,1.26-.34,1.23-1.21,0-.48,0-1,0-1.44q0-27.59,0-55.17c0-.77-.24-1.62.45-2.26l4.71,2.11c-.91.43-1.08,1.17-1.1,2.14-.06,2.72.25,5.42.26,8.14,0,.89.42,1.18,1.25,1.18q3.78,0,7.56,0c1.89,0,2.17.34,1.68,2.13-1.38,5-2.79,10-4.18,15-2.19,7.89-4.43,15.77-6.61,23.67a1.4,1.4,0,0,0,.37,1.71c.59.48.28,1.2.1,1.8-.75,2.48-.57,2.23,1.76,2.23h18.23c1.67,0,1.66,0,2.15-1.6a41.79,41.79,0,0,1,1.36-4.47,7.12,7.12,0,0,0,1.51-5.41c.61-3,1.56-5.85,2.35-8.77,1-3.62,2-7.22,3-10.83a2.7,2.7,0,0,1,.62-1.4c.54-.32.75.14,1,.43s.61,1,1.17,1.26a36.28,36.28,0,0,1,1.61,5.39c2.12,7.75,4.29,15.49,6.37,23.26.09.34.23.68.3,1,.17.87.7,1.15,1.55,1.15.69,0,1.45-.23,2.06.33l.76,6.16a5.49,5.49,0,0,1,.44,2.07,43.24,43.24,0,0,1,.28,5.91c-.21,2.61-.31,5.23-.62,7.84a7.27,7.27,0,0,1-.65,3.11c-.89.27-1.09-.33-1-1,.13-1-.42-1.24-1.25-1.26-1.08,0-2.16,0-3.24,0-1.3-.05-1.45-.28-.85-1.42,1.81-3.47,3.35-7.07,5.18-10.53.64-1.19,0-2.25.09-3.36,0-.37-.5-.48-.86-.49-3-.05-5.91-.07-8.87,0-.89,0-1.3.67-1.65,1.38-1.24,2.6-2.41,5.22-3.76,7.76a2.11,2.11,0,0,1-2.53,1.34c-.48-.08-.86-.29-.89-.8a10.15,10.15,0,0,1,0-2.86,15.44,15.44,0,0,0-.07-5.71,1,1,0,0,0-.55-.74,2.84,2.84,0,0,0-1.41-.17c-3.08,0-6.15,0-9.22,0a1.87,1.87,0,0,1-2-1.28c-.88-2-2.31-3.44-4.69-3.51a4.1,4.1,0,0,0-4.27,3c-.63,1.8-.63,1.76-2.54,1.82-1.14,0-2.32-.28-3.42.26a1.89,1.89,0,0,0-.66,1.82c0,2.55.43,5.08.57,7.62.11,2,.16,4.06.32,6.09.14,1.74.29,3.49.4,5.24,0,.46-.37.67-.72.88a1.26,1.26,0,0,0-.55.73,13.09,13.09,0,0,0-.06,1.77c0,1.54-.52,2-2.06,1.73a1.27,1.27,0,0,1-.76-.3,2.53,2.53,0,0,1-.28-1.5c0-3.2,0-6.4,0-9.6,0-.94.13-1.75,1.1-2.19.52-.23.54-.75.57-1.24a18,18,0,0,0-.24-3.94c-.07-.36-.11-.75-.46-.94-.94-.51-1-1.37-1-2.27a22.63,22.63,0,0,0-.22-3.59,1.24,1.24,0,0,0-1.35-1.22c-3-.06-6,0-9,0a1.25,1.25,0,0,0-1.4,1.41c0,1.28,0,2.56,0,3.84s-.33,1.65-1.64,1.67c-3.36.05-6.72,0-10.08,0-.89,0-1.19-.41-1.25-1.23-.29-3.94-.09-3.31-3.67-3.33-5.16,0-10.32,0-15.48,0-1.86,0-1.94.08-1.94,2,0,6.8,0,13.6,0,20.4a3.38,3.38,0,0,1-.29,2,2.67,2.67,0,0,1-3.08-.22,2.93,2.93,0,0,1-.25-1.52c0-3.2,0-6.4,0-9.6a2.05,2.05,0,0,1,1.1-2.19c.51-.23.54-.74.57-1.23a17.92,17.92,0,0,0-.24-3.94c-.06-.36-.11-.76-.46-.94-1-.5-1-1.38-1-2.27a22.63,22.63,0,0,0-.23-3.59c-.11-.75-.45-1.2-1.21-1.22q-4.68-.12-9.36,0c-.77,0-1.13.48-1.15,1.24,0,1.28,0,2.56,0,3.84,0,1.49-.31,1.79-1.75,1.81-3.32.05-6.64,0-10,0-.87,0-1.24-.36-1.26-1.2a19,19,0,0,0-.21-2.26,1.12,1.12,0,0,0-1.27-1.12H55.05c-2.09,0-2.11,0-2.11,2.16,0,6,0,11.92,0,17.88a3.44,3.44,0,0,1-.26,1.87,1.36,1.36,0,0,1-1.22.32c-1.74-.16-3.48-.37-5.23-.44a2.36,2.36,0,0,1-1.35-.44,2.16,2.16,0,0,1-.53-1.17,66.17,66.17,0,0,1-1.48-12,3.84,3.84,0,0,0-.67-2.36c1.37-.76,1.15-2.07,1.13-3.3,0-1.71.06-3.42-.09-5.12Z" transform="translate(-6.85 -30.94)"/><path class="cls-1" d="M186.26,95.73q-1.8,6.31-3.59,12.63c-.8,2.84-1.57,5.68-2.35,8.52a11.4,11.4,0,0,1-1.49,5.28c-.5,1.85-1,3.69-1.5,5.55a1.07,1.07,0,0,1-1.24.93q-10.49,0-21,0c-.85,0-1.18-.16-.83-1.07.26-.66.37-1.38.58-2.07s.49-1.23-.65-1.24c-.61,0-.28-.52-.19-.83q1.37-5,2.74-9.92,4.2-15.11,8.44-30.2c.29-1,.06-1.23-.93-1.22-2.92,0-5.84,0-8.76,0-.61,0-1-.09-.95-.84,0-3.19-.3-6.36-.27-9.56,0-1.2.39-1.55,1.46-1.44,4.08,0,8.16,0,12.24.06,1,0,1-.6,1.16-1.18,1.46-5.18,3-10.36,4.35-15.56a1.38,1.38,0,0,1,1.64-1.22q10.26.06,20.51,0c1.09,0,1.17.34.87,1.21s-.47,1.69-.74,2.52c-.13.42,0,.66.4.6,1-.12.79.42.62,1-1.09,3.84-2.16,7.69-3.29,11.51-.26.9-.14,1.12.84,1.12,7.91,0,15.83,0,23.75,0,1,0,1.33.24,1.32,1.3,0,3.11.3,6.21.24,9.32,0,1-.31,1.25-1.28,1.23-3.08-.06-6.16,0-9.24,0-1.08,0-1.33.17-1,1.29q5.5,19.77,10.9,39.58c.11.42.91,1.21-.35,1.42-.27,0-.06.42,0,.63.24.93.45,1.87.76,2.77.26.74,0,.85-.68.85-4.6,0-9.2,0-13.8,0-1.6,0-3.2,0-4.8,0l-.23,0c-1.1-.12-2.49.48-3.22-.26s-.74-2.05-1-3.12Q191.8,111.36,188,97.48c-.89-1-.7-2.38-1.26-3.41A1.78,1.78,0,0,1,186.26,95.73Z" transform="translate(-6.85 -30.94)"/><path class="cls-1" d="M151,68.17c0,.52,0,1,0,1.55q0,28.74,0,57.48c0,1.16-.29,1.46-1.45,1.45q-10.38-.09-20.76,0c-1.08,0-1.36-.27-1.39-1.38-.49-21.14-.07-42.29-.21-63.44,0-.32,0-.63,0-.95,0-7.2,0-14.4,0-21.59,0-1.16.21-1.53,1.47-1.53,12.76.06,25.52,0,38.27,0,1.52,0,1.52,0,1.52-1.57,0-2.08,0-4.16,0-6.24,0-.73.13-1,1-1q10.73,0,21.47,0c.62,0,.92.1.92.83,0,2.3.2,4.61.2,6.91,0,.92.27,1.13,1.15,1.12,8.28,0,16.55,0,24.83,0,1.14,0,1.47.25,1.45,1.43,0,3,.29,6,.24,8.95,0,1.09-.27,1.39-1.38,1.39q-32.86,0-65.74,0c-1.54,0-1.55,0-1.54,1.54Q151,60.61,151,68.17Z" transform="translate(-6.85 -30.94)"/><path class="cls-1" d="M153,157.2a9.25,9.25,0,0,1-.5-3.16c-.26-3.57-.36-7.15-.56-10.73a55.56,55.56,0,0,1-.43-6.05c0-.72.12-1.37,1-1.53,9.23-.6,18.47.11,27.71,0,.46.12.79.34.8.89,0,2.11.63,4.2-.09,6.36a8,8,0,0,0,.13,2.58c0,.47.47.33.76.34.74,0,1.49.14,1.91-.8.89-2,1.86-3.88,2.8-5.82.45-.94.94-1.86,1.33-2.82a1.62,1.62,0,0,1,1.67-1.07h9c1,0,1.56.36,1.17,1.47,0,.11-.16.28-.12.33,1.19,1.47-.17,2.53-.68,3.64-1.57,3.44-3.27,6.82-5,10.38h4.4c1.44,0,1.63.19,1.33,1.57-.13.62.44.69.56,1.07.31.34.08.67,0,1Q199,157,198,159.18c-.95,2.22-2.08,4.35-3.15,6.51a6.51,6.51,0,0,1-1.11,1.66c.54.25,1.09,0,1.63.09h1.55c.55,0,1.15-.12,1.62.32,1,.06,1.61.45,1.13,1.59-.05.11-.12.29-.08.33,1.13,1.1.07,2-.34,2.86-1.4,3-3,6-4.31,9a5.94,5.94,0,0,1-6.1,3.88c-.35,0-.71,0-1.07.06l-13.71,0c-.81,0-1.67,0-1.73-1.13a3.76,3.76,0,0,1-.08-1.1,3.79,3.79,0,0,1-.08,1.1c-.15.88-.7,1.15-1.54,1.14-2.71,0-5.42,0-8.13,0-.56,0-1.13,0-1.43-.65a2.72,2.72,0,0,1-.06-1.33c-.08.53,0,1.13-.4,1.56a1.91,1.91,0,0,1-1.45.42h-5.74c-1.11,0-1.47-.39-1.59-1.63-.39-4,.33-8,.42-12a5.78,5.78,0,0,0-.06-2.23,9.43,9.43,0,0,1,0-3.09,2.75,2.75,0,0,0-.39-2.16,1.77,1.77,0,0,1-.36-1.36c.28-1.61.11-3.24.32-4.85a.45.45,0,0,1,.47-.47c2.67-.25,5.36,0,8-.11h-6.42C153.44,157.55,153.1,157.6,153,157.2Z" transform="translate(-6.85 -30.94)"/><path class="cls-3" d="M44.87,158.84c2.54.4,5.1.55,7.66.71a1.2,1.2,0,0,1,.39,1c0,2.16.06,4.32,0,6.48a1.49,1.49,0,0,1-.2.68,1.16,1.16,0,0,1-1.06.41,11.06,11.06,0,0,1-4.37-.71c-4.92-.51-9.84-1-14.74-1.75a91.82,91.82,0,0,1-18.29-4.17A10.16,10.16,0,0,1,8,156.12c-2.6-5.74-.67-13.22,6.16-15.49a102.76,102.76,0,0,1,19.72-4.33c3.13-.39,6.26-.81,9.39-1.21.61.18.43.68.43,1.09,0,1.83-.07,3.66.05,5.48.08,1.16-.19,1.8-1.43,1.78-.72.65-1.64.51-2.48.62-7,.9-14,1.69-20.87,3.66a15,15,0,0,0-4.75,2c-1.32.93-1.33,1.78,0,2.71a17.2,17.2,0,0,0,5.08,2.07A10,10,0,0,1,21,155a7,7,0,0,0,3.19.66c3.34.53,6.66,1.18,10,1.59,2.92.36,5.83.82,8.77,1.05A3.56,3.56,0,0,1,44.87,158.84Z" transform="translate(-6.85 -30.94)"/><path class="cls-3" d="M193.21,167.53c1.8-2.29,2.79-5,4.07-7.59.14-.28.3-.55.44-.82a4.25,4.25,0,0,1,1.65-.32c4.14-.43,8.26-.87,12.38-1.44a120.83,120.83,0,0,0,15.19-2.82,25.09,25.09,0,0,0,4-1.38c1-.46,2.33-.86,2.31-2.15s-1.36-1.65-2.36-2.12a20.82,20.82,0,0,0-3.27-1.16,120.48,120.48,0,0,0-17-3.17c-2.69-.38-5.4-.59-8.09-.95-.54-.07-1.17,0-1.25-.82a59.56,59.56,0,0,0-.49-7.31c0-.24-.1-.46.09-.66,5.74.7,11.5,1.3,17.21,2.27a69.49,69.49,0,0,1,15.14,4,9.28,9.28,0,0,1,6.06,7.42c.15.9.29,1.81.43,2.71A38.65,38.65,0,0,0,239,155c-1.52,4.29-5.07,6-9.06,7.21A112.81,112.81,0,0,1,210,166.12l-9.63,1.15c-1.19.15-2.38.27-3.57.37h-1.71A7.61,7.61,0,0,1,193.21,167.53Z" transform="translate(-6.85 -30.94)"/><path class="cls-1" d="M52.52,167.82c0-2.75,0-5.51,0-8.27q0-10.37,0-20.75c0-1.51,0-1.55,1.55-1.55,6.19,0,12.39,0,18.59,0,1.13,0,1.63.32,1.54,1.49a7.45,7.45,0,0,0,.2,1.3c.17,1.83.16,1.83,1.95,1.83,3.08,0,6.16,0,9.24,0,.77,0,1-.2,1-1,0-1.52,0-3,0-4.56,0-.93.38-1.35,1.25-1.36q5,0,10.08,0c.79,0,1.18.37,1.23,1.26.07,1.35.26,2.69.22,4,0,.74-.27,1.63,1,1.76.31,0,.45.41.48.76a41.92,41.92,0,0,1,.25,5c0,.6-.2,1.08-.82,1.11-.87,0-.88.54-.88,1.2,0,3.88,0,7.76,0,11.63a3,3,0,0,1,.37,1.38c0,1.95,0,3.91,0,5.86a2,2,0,0,1-.35,1.25c0,2.95,0,5.91,0,8.86,0,3.85-2.08,6-5.94,6.13-3.63.07-7.27,0-10.9,0-1,0-1.42-.4-1.52-1.49-.14-1.43-.16-2.86-.21-4.29,0-1,.3-1.48,1.37-1.41s2,0,3,0,1.5-.3,1.47-1.43c-.07-2.23,0-4.47,0-6.71a2.6,2.6,0,0,1-.37-1.47c0-2.3,0-4.6,0-6.9,0-2.75,0-5.51,0-8.26,0-1.22.55-2.74-.32-3.58s-2.38-.25-3.6-.29c-1.87-.05-3.75,0-5.63,0a2.53,2.53,0,0,1-1.93-.53c0,4,0,8,0,12,0,2.31,0,4.62,0,6.93a3.66,3.66,0,0,1-.36,1.73c0,2.59-.11,5.19,0,7.77.24,4-3.12,6.16-6.12,6.14-4.11,0-8.21,0-12.32,0-.35,0-.71,0-1.07.06s-.78-.05-1.17-.05c-.66,0-1-.27-1-1,0-1.13-.17-2.26-.27-3.39a15.82,15.82,0,0,1-.33-4.85q0-2.44,0-4.89A2.08,2.08,0,0,1,52.52,167.82Z" transform="translate(-6.85 -30.94)"/><path class="cls-3" d="M30.22,192.69a8.51,8.51,0,0,1,8.6,8.36,8.6,8.6,0,0,1-17.2,0A8.46,8.46,0,0,1,30.22,192.69Z" transform="translate(-6.85 -30.94)"/><path class="cls-4" d="M221.58,182.46a8.46,8.46,0,0,1-8.62-8.31,8.6,8.6,0,0,1,17.19,0A8.4,8.4,0,0,1,221.58,182.46Z" transform="translate(-6.85 -30.94)"/><path class="cls-5" d="M48,114.25c4.55,0,9.11,0,13.67-.06.65,0,.86.26.8.86,0,.12,0,.24,0,.36,0,1.94.18,1.68-1.64,1.68-4.6,0-9.19,0-13.79,0Z" transform="translate(-6.85 -30.94)"/><path class="cls-5" d="M52.52,167.82q0,5.61,0,11.21a68,68,0,0,1-4.78-10.54c-.14-.38-.3-.74-.45-1.11Z" transform="translate(-6.85 -30.94)"/><path class="cls-2" d="M54.05,101.27c2.47,0,4.93,0,7.4,0,.94,0,1,.43,1,1.16s.25,1.37-.91,1.34c-2.9-.08-5.81,0-8.71-.06Z" transform="translate(-6.85 -30.94)"/><path class="cls-6" d="M196.8,167.52a15,15,0,0,1,3.6-.25c-.54.55-1.36,0-1.91.48h-1.7c-.07,0-.1-.11-.07-.16S196.77,167.52,196.8,167.52Z" transform="translate(-6.85 -30.94)"/><path class="cls-7" d="M239,155a8.74,8.74,0,0,1,.7-3.84A15.57,15.57,0,0,1,239,155Z" transform="translate(-6.85 -30.94)"/><path class="cls-8" d="M74.52,123.16q21.9,0,43.8,0c.49,0,1.2-.29,1.42.25a4.86,4.86,0,0,1,.05,2.37c0,.22-.29.24-.49.25h-1q-43.91,0-87.83,0c-.47,0-1.23.32-1.38-.29a6.1,6.1,0,0,1,0-2.37c.06-.37.63-.21,1-.21h44.4Z" transform="translate(-6.85 -30.94)"/><path class="cls-8" d="M102.85,55.2c-5.28,0-10.56,0-15.83,0-.86,0-1.17-.23-1-1.06s-.51-1.89,1.23-1.88q15.7.12,31.42,0c1.32,0,1.23.61,1.26,1.51s-.11,1.46-1.33,1.44C113.32,55.16,108.08,55.2,102.85,55.2Z" transform="translate(-6.85 -30.94)"/><path class="cls-8" d="M45.59,55.2c-5.11,0-10.23,0-15.35,0-.9,0-1.26-.17-1.21-1.16.08-1.74,0-1.74,1.7-1.74H61.19c.4,0,1.05-.26,1.17.25a4.42,4.42,0,0,1,0,2.47c-.12.32-.66.14-1,.14Z" transform="translate(-6.85 -30.94)"/><path class="cls-9" d="M101.53,112.76c-4.84,0-9.68,0-14.51,0-.85,0-1.18-.22-1-1.06s-.5-1.9,1.23-1.89q14.46.12,28.9,0c1.36,0,1.25.65,1.24,1.54s.11,1.46-1.18,1.43C111.28,112.71,106.41,112.76,101.53,112.76Z" transform="translate(-6.85 -30.94)"/><path class="cls-9" d="M47.06,112.76c-4.76,0-9.51-.05-14.26,0-1.29,0-1.16-.65-1.15-1.47s-.2-1.5,1.13-1.49q14.25.09,28.51,0c1.28,0,1.17.64,1.16,1.46s.18,1.52-1.14,1.5C56.56,112.71,51.81,112.76,47.06,112.76Z" transform="translate(-6.85 -30.94)"/><path class="cls-9" d="M47.77,99.8c-4.52,0-9,0-13.55,0-.83,0-1.23-.12-1.18-1.09.1-2.18-.22-1.81,1.87-1.82q13.13,0,26.25,0c.42,0,1.1-.3,1.22.35a4.5,4.5,0,0,1-.06,2.36c-.13.34-.66.17-1,.17C56.8,99.81,52.28,99.8,47.77,99.8Z" transform="translate(-6.85 -30.94)"/><path class="cls-9" d="M100.52,41.48c-4.47,0-9,0-13.42,0-.87,0-1.28-.17-1.13-1.1a3,3,0,0,0,0-.84c-.11-.81.26-1,1-1,4.35,0,8.71,0,13.06,0,4.64,0,9.27,0,13.91,0,.93,0,1.24.23,1.21,1.19-.07,1.72,0,1.72-1.71,1.72Z" transform="translate(-6.85 -30.94)"/><path class="cls-8" d="M115.72,93.42A7.93,7.93,0,0,1,108,99.8c-7,0-14,0-21,0-.8,0-1.12-.2-1-1a1,1,0,0,0,0-.24c0-1.92-.21-1.68,1.63-1.68,6.4,0,12.8,0,19.19,0a10.07,10.07,0,0,0,8.63-4.06C115.91,92.85,115.78,93.15,115.72,93.42Z" transform="translate(-6.85 -30.94)"/><path class="cls-9" d="M48.12,41.48c-4.4,0-8.79,0-13.19,0-.93,0-1.15-.27-1.12-1.15.06-1.77,0-1.77,1.79-1.77q12.78,0,25.55,0c.42,0,1.1-.29,1.23.34a4.54,4.54,0,0,1-.06,2.37c-.12.34-.66.17-1,.17C56.92,41.49,52.52,41.48,48.12,41.48Z" transform="translate(-6.85 -30.94)"/><path class="cls-10" d="M91.65,71.76c1.44,0,2.87,0,4.31,0,.81,0,1,.27,1,1-.09,3,.42,2.48-2.52,2.52-2.39,0-4.79,0-7.18,0-.75,0-1-.22-1.06-1,0-2.54-.08-2.54,2.47-2.54Z" transform="translate(-6.85 -30.94)"/><path class="cls-11" d="M57.31,89.44c-1.39,0-2.78,0-4.18,0-.6,0-.81-.18-.84-.81-.13-3-.15-3,2.74-3,2.15,0,4.3,0,6.45,0,.71,0,1,.15,1,.91,0,2.85.07,2.85-2.76,2.85Z" transform="translate(-6.85 -30.94)"/><path class="cls-5" d="M91.68,85.69c1.48,0,3,0,4.43,0,.77,0,.89.25.66.93a3.57,3.57,0,0,1-3,2.69,62.24,62.24,0,0,1-6.83.15c-.24,0-.56,0-.61-.28a10.86,10.86,0,0,1,0-3.22c0-.38.54-.25.84-.25C88.64,85.68,90.16,85.69,91.68,85.69Z" transform="translate(-6.85 -30.94)"/><path class="cls-11" d="M57.24,75.29c-1.35,0-2.71,0-4.07,0-.69,0-.86-.22-.88-.89-.06-2.65-.08-2.65,2.57-2.65,2.24,0,4.47,0,6.7,0,.68,0,.88.19.9.88.06,2.66.09,2.66-2.58,2.66Z" transform="translate(-6.85 -30.94)"/><path class="cls-9" d="M91.35,84.26c-1.48,0-3-.05-4.44,0-.73,0-1-.17-1-.92.07-2.45-.23-1.94,1.94-2,2.64,0,5.27,0,7.91,0,.88,0,1.28.2,1.13,1.12a3,3,0,0,0,0,.84c.09.71-.15,1-.92,1C94.47,84.22,92.91,84.26,91.35,84.26Z" transform="translate(-6.85 -30.94)"/><path class="cls-8" d="M91.56,67.45c1.48,0,3,0,4.44,0,.72,0,1,.18,1,.94,0,2,0,2-2,2-2.68,0-5.35,0-8,0-.81,0-1.1-.21-1-1A2.17,2.17,0,0,0,86,69c0-1.78-.19-1.54,1.51-1.55C88.84,67.44,90.2,67.45,91.56,67.45Z" transform="translate(-6.85 -30.94)"/><path class="cls-8" d="M57.24,84.26c-1.43,0-2.87,0-4.3,0-.67,0-.88-.17-.89-.86,0-2-.06-2,2-2,2.47,0,4.95,0,7.41,0,.76,0,1.14.18,1,1a.48.48,0,0,0,0,.12c0,2.16.25,1.76-1.73,1.79C59.55,84.27,58.39,84.26,57.24,84.26Z" transform="translate(-6.85 -30.94)"/><path class="cls-8" d="M57.24,67.45c1.39,0,2.79,0,4.18,0,.73,0,1.07.13,1,1-.09,2.39.23,1.89-1.86,1.92-2.51,0-5,0-7.53,0-.74,0-1-.13-1-1,0-1.93,0-1.93,2-1.93Z" transform="translate(-6.85 -30.94)"/><path class="cls-12" d="M115.72,93.42c-.06-.2-.06-.43-.29-.55.08-.21.14-.43.41-.52A1.08,1.08,0,0,1,115.72,93.42Z" transform="translate(-6.85 -30.94)"/><path class="cls-1" d="M102.21,161.94q0-11.5,0-23c0-1.66,0-1.67,1.67-1.67,6.12,0,12.23,0,18.35,0,1.11,0,1.79.19,1.66,1.49a7.6,7.6,0,0,0,.2,1.3c.17,1.83.16,1.83,2,1.83,3.08,0,6.16,0,9.24,0,.77,0,1-.19,1-1,0-1.51,0-3,0-4.55,0-.93.37-1.36,1.25-1.37q5,0,10.07,0c.79,0,1.16.37,1.24,1.25a38.82,38.82,0,0,1,.21,4.17c0,.72-.22,1.56,1,1.65.3,0,.45.4.48.75a41.92,41.92,0,0,1,.25,5c0,.6-.19,1.09-.81,1.12-.86,0-.89.53-.89,1.19,0,3.88,0,7.76,0,11.63a20.2,20.2,0,0,1,0,8.48v8.86c0,3.86-2.06,6.06-5.92,6.14-3.63.09-7.26,0-10.89,0-1,0-1.45-.35-1.55-1.46-.15-1.52-.17-3-.2-4.53,0-.87.34-1.22,1.22-1.19,1.15,0,2.31,0,3.47,0,.81,0,1.14-.33,1.13-1.15,0-2.16,0-4.31,0-6.47a2.25,2.25,0,0,1-.36-1.47c0-2.31,0-4.62,0-6.92-.05-3.64,0-7.28,0-10.92,0-1.63-.07-1.7-1.67-1.71-2.6,0-5.2,0-7.8,0a2.52,2.52,0,0,1-2-.54c0,4.37,0,8.76,0,13.16,0,2.31,0,4.62,0,6.92a3.66,3.66,0,0,1-.36,1.73c0,2.32,0,4.64,0,6.95a5.47,5.47,0,0,1-5.4,5.71c-5.07.13-10.15,0-15.22.06-.77,0-1-.38-1-1.11-.46-4-.08-8-.24-12.07a1.58,1.58,0,0,1-.31-.76q-.14-3.37,0-6.76A1.58,1.58,0,0,1,102.21,161.94Z" transform="translate(-6.85 -30.94)"/><path class="cls-1" d="M85.88,171.35c.14,2.11.09,2.16-2,2.16s-4.13,0-6.19,0c-1,0-1.4-.36-1.39-1.33a18.44,18.44,0,0,1-.23-2.47c-.93-1.86-.55-3.89-.79-5.84-.14-1.14-.08-2.3-.2-3.45-.3-2.66-.38-5.33-.42-8,0-1.3.4-1.77,1.68-1.81,2.24-.06,4.48,0,6.72,0a1.79,1.79,0,0,1,1.85,1.55,12.24,12.24,0,0,1,.36,2.61c0,2.16.41,4.3.31,6.46.34,1.83.11,3.71.45,5.55C86.3,168.31,85.6,169.81,85.88,171.35Z" transform="translate(-6.85 -30.94)"/><path class="cls-1" d="M135.56,171.35c.14,2.11.09,2.16-2,2.16s-4,0-6,0c-1,0-1.61-.27-1.58-1.41a9.38,9.38,0,0,0-.24-1.65,3.75,3.75,0,0,1-.54-2.18c0-2.2-.44-4.38-.24-6.58a3.16,3.16,0,0,0-.17-1.18,78.74,78.74,0,0,1-.44-8.12c0-1.3.4-1.76,1.69-1.8,2.23-.06,4.47,0,6.71,0a1.79,1.79,0,0,1,1.85,1.54A13.19,13.19,0,0,1,135,155c0,2.24.41,4.46.31,6.7.2,2.4.42,4.8.48,7.22C135.77,169.73,135.27,170.51,135.56,171.35Z" transform="translate(-6.85 -30.94)"/><path class="cls-3" d="M149.06,170.2v-8.48c2.39.22,2.38.22,2.4-2.19,0-.47-.15-1,.21-1.39,0,1.28,0,2.55,0,3.82,0,1-.24,2.11.82,2.83.12.08.16.38.12.56-.43,2-.11,4.12-.25,6.18,0,.1-.11.2-.17.3a3.39,3.39,0,0,1,0-.71c.15-1-.23-1.3-1.21-1.05A11,11,0,0,1,149.06,170.2Z" transform="translate(-6.85 -30.94)"/><path class="cls-3" d="M102.21,161.94v8.28H99.39c0-2.83,0-5.66,0-8.49A6,6,0,0,0,102.21,161.94Z" transform="translate(-6.85 -30.94)"/><path class="cls-13" d="M125.08,160.55c.06.11.17.21.17.31,0,3.21.28,6.41.47,9.61-.55-.05-1.12-.2-1.61.21V162C124.94,161.84,124.58,160.9,125.08,160.55Z" transform="translate(-6.85 -30.94)"/><path class="cls-13" d="M75.4,160.55c.39,1.9.1,3.83.4,5.74.17,1.12,0,2.29.26,3.43a1.05,1.05,0,0,0-1.63-.23v-8.73C74.75,160.65,75.09,160.65,75.4,160.55Z" transform="translate(-6.85 -30.94)"/><path class="cls-14" d="M85.88,171.35a1.67,1.67,0,0,1-.19-.54,92.44,92.44,0,0,0-.47-9.56,1.6,1.6,0,0,1,1.39.22c0,2.82,0,5.64,0,8.46-.34-.19-.68-.34-.72.26C85.88,170.58,85.89,171,85.88,171.35Z" transform="translate(-6.85 -30.94)"/><path class="cls-14" d="M135.56,171.35c-.29-.29-.2-.67-.19-1a77.53,77.53,0,0,0-.46-8.62c.47.08.93.16,1.4.26q0,4.23,0,8.46C135.43,170.24,135.65,170.93,135.56,171.35Z" transform="translate(-6.85 -30.94)"/><path class="cls-15" d="M160.56,185a8.1,8.1,0,0,0,.32-1.7,3,3,0,0,1,.14,1.47Z" transform="translate(-6.85 -30.94)"/><path class="cls-16" d="M172.12,184.33a1.5,1.5,0,0,1,.08-1,1.5,1.5,0,0,1,.08,1h-.16Z" transform="translate(-6.85 -30.94)"/><path class="cls-8" d="M201.29,142.79c.22.42.63.43,1,.47,6.88.68,13.73,1.57,20.51,2.92a39,39,0,0,1,8.26,2.42c1.11.5,2.56,1,2.61,2.37s-1.47,2-2.61,2.49a46.61,46.61,0,0,1-10.25,2.81c-6.72,1.27-13.51,2-20.29,2.77a11.63,11.63,0,0,1-1.32,0c-.45-.87,0-1.69.18-2.51a9.93,9.93,0,0,1,.52-1.8l.21-.88a43.13,43.13,0,0,0,.74-6C201,146.17,201.16,144.48,201.29,142.79Z" transform="translate(-6.85 -30.94)"/><path class="cls-8" d="M20.88,155.27a31.82,31.82,0,0,1-6-2c-1-.49-2.13-1-2.13-2.2s1.19-1.73,2.14-2.19a34.88,34.88,0,0,1,8.56-2.62c6.22-1.27,12.51-2.09,18.81-2.78,1,.1.87.92.88,1.54a70.42,70.42,0,0,0,1.47,12.45c.1.47.17.94.25,1.41-3.66-.25-7.29-.78-10.93-1.25-3.32-.43-6.62-1-9.92-1.61A31,31,0,0,1,20.88,155.27Z" transform="translate(-6.85 -30.94)"/><path class="cls-17" d="M180.18,135.74c-3.71,0-7.41.06-11.11,0-5.54,0-11.07,0-16.6-.06a21.42,21.42,0,0,1,4.16-.1,1.12,1.12,0,0,0,1.31-1c.5-2.16,1.95-3.62,3.64-3.81,2.4-.28,4.53.46,5.51,2.67.86,1.92,2,2.28,3.91,2.17,2.66-.16,5.34,0,8,0A2,2,0,0,1,180.18,135.74Z" transform="translate(-6.85 -30.94)"/><path class="cls-18" d="M186.26,95.73a7.6,7.6,0,0,1,.65-2.33c.4,1.53.74,2.8,1.08,4.08C187,97.31,187,96.15,186.26,95.73Z" transform="translate(-6.85 -30.94)"/><path class="cls-19" d="M178.83,122.16c.5-1.76,1-3.52,1.49-5.28A5.79,5.79,0,0,1,178.83,122.16Z" transform="translate(-6.85 -30.94)"/><path class="cls-20" d="M153,157.2a3.93,3.93,0,0,0,2.22.23,47.89,47.89,0,0,1,5.35.24h-8.39Z" transform="translate(-6.85 -30.94)"/><path class="cls-8" d="M207.61,127.18c-2.8,0-5.6-.08-8.38,0-1.3.06-1.81-.36-2-1.59s-.35-1.33,1-1.33q8.81,0,17.61,0c.44,0,1-.27,1.27.33a8.11,8.11,0,0,1,.55,2.31c0,.42-.59.22-.91.22C213.68,127.19,210.64,127.18,207.61,127.18Z" transform="translate(-6.85 -30.94)"/><path class="cls-8" d="M166,127.18c-3.08,0-6.16,0-9.24,0-.73,0-.85-.18-.67-.87.54-2,.52-2,2.67-2,5.64,0,11.28,0,16.91,0,1,0,1.15.23.87,1.15-.54,1.74-.49,1.75-2.26,1.75Z" transform="translate(-6.85 -30.94)"/><path class="cls-11" d="M212.45,77.8c1.6,0,3.2,0,4.79,0,.72,0,1,.19,1,.94-.07,2.44.25,1.93-1.94,2-2.39,0-4.79-.08-7.18,0a1.76,1.76,0,0,1-2.17-1.63c-.23-1-.19-1.4,1-1.32C209.41,77.87,210.94,77.8,212.45,77.8Z" transform="translate(-6.85 -30.94)"/><path class="cls-11" d="M161.36,77.8c1.48,0,3,0,4.43,0,.75,0,.92.27.71.92a7.5,7.5,0,0,0-.37,1.26c-.09.63-.45.74-1,.74-2.76,0-5.51,0-8.26,0-.69,0-.94-.22-.87-.89a3.85,3.85,0,0,0,0-1c-.11-.83.2-1.11,1.05-1.07C158.49,77.84,159.93,77.8,161.36,77.8Z" transform="translate(-6.85 -30.94)"/><path class="cls-21" d="M185.63,92.39l.93-3.12a9.94,9.94,0,0,1,.81,2.37c.13.33,0,.51-.38.52A8.78,8.78,0,0,0,185.63,92.39Z" transform="translate(-6.85 -30.94)"/><path class="cls-9" d="M184.42,50.1c-10.84,0-21.67,0-32.5,0-1.09,0-1.28-.36-1.19-1.29s-.29-1.68,1.21-1.68q32.57.08,65.12,0c1.45,0,1.06.84,1.13,1.61s0,1.35-1.16,1.35C206.16,50.08,195.29,50.1,184.42,50.1Z" transform="translate(-6.85 -30.94)"/><path class="cls-8" d="M139.08,127.18c-3,0-6,0-9,0-1,0-1.36-.31-1.21-1.27a2.17,2.17,0,0,0,0-.72c-.11-.75.21-.94.94-.94q9.36,0,18.71,0c.86,0,1.16.26,1,1.08a3,3,0,0,0,0,.84c.12.8-.23,1-1,1C145.4,127.16,142.24,127.18,139.08,127.18Z" transform="translate(-6.85 -30.94)"/><path class="cls-8" d="M170.4,172c0,3,0,6,0,9,0,.94-.28,1.14-1.15,1.11-1.92-.06-3.84-.07-5.76,0-1,0-1.36-.21-1.35-1.3.06-5.84,0-11.68,0-17.52,0-1.8-.17-2-2-2-2.11,0-4.24-.06-6.35,0-1,0-.94-.56-.93-1.22s-.15-1.24.91-1.2c2.32.08,4.64,0,7,0,1,0,1.45-.38,1.39-1.32-.05-.74.2-1,.94-.94,2.16,0,4.32,0,6.48,0,.62,0,.87.18.81.81-.12,1.1.42,1.48,1.49,1.46,2.24-.06,4.48,0,6.72,0,1,0,.95.53.93,1.2s.15,1.26-.91,1.22c-2.2-.08-4.4,0-6.6,0-1.43,0-1.63.2-1.64,1.68Z" transform="translate(-6.85 -30.94)"/><path class="cls-8" d="M198.09,136.85c-1.85,3.79-3.57,7.37-5.36,10.92a3.51,3.51,0,0,1-3.24,1.92c-2.27.05-4.55,0-6.82,0-.8,0-.88-.45-.76-1s-.52-1.41.68-1.39a2.53,2.53,0,0,0,2.45-1.74c1.25-2.67,2.54-5.32,3.81-8,.21-.44.36-.81,1-.8C192.52,136.87,195.19,136.85,198.09,136.85Z" transform="translate(-6.85 -30.94)"/><path class="cls-8" d="M198.08,169.22c-1.83,3.79-3.53,7.4-5.33,10.95a3.62,3.62,0,0,1-3.4,1.9c-2.24,0-4.48,0-6.72,0-.71,0-.85-.39-.72-.9s-.54-1.43.62-1.45a2.65,2.65,0,0,0,2.53-1.83c1.2-2.61,2.51-5.17,3.71-7.78a1.31,1.31,0,0,1,1.42-.93C192.74,169.26,195.3,169.22,198.08,169.22Z" transform="translate(-6.85 -30.94)"/><path class="cls-8" d="M198.05,152.67c-.55,1.16-1,2.19-1.54,3.21-1.17,2.41-2.34,4.81-3.5,7.22a3.76,3.76,0,0,1-3.6,2.32c-2.2,0-4.4,0-6.59,0-.62,0-1.08-.1-.91-.83.12-.54-.52-1.46.75-1.46a2.51,2.51,0,0,0,2.36-1.72c1.24-2.67,2.55-5.32,3.84-8,.18-.38.28-.79.88-.79C192.45,152.68,195.16,152.67,198.05,152.67Z" transform="translate(-6.85 -30.94)"/><path class="cls-8" d="M175.58,164.61c3.14,0,3.1,0,3.23,3.11.19,4.39.43,8.78.69,13.16.06.91-.12,1.3-1.13,1.23a34.69,34.69,0,0,0-4,0c-.74,0-.95-.23-1-.95-.18-4-.41-7.89-.63-11.84-.07-1.32-.13-2.64-.23-3.95,0-.58.16-.78.74-.75C174.06,164.64,174.82,164.62,175.58,164.61Z" transform="translate(-6.85 -30.94)"/><path class="cls-8" d="M156.12,182.08c-3.13,0-3.14,0-3-3.11.27-4.47.59-8.93.83-13.39.05-.79.3-1,1.06-1q2,.08,4.08,0c.69,0,1,.12.94.92-.34,5.3-.64,10.6-.94,15.9,0,.53-.25.69-.74.67C157.64,182.07,156.88,182.08,156.12,182.08Z" transform="translate(-6.85 -30.94)"/><path class="cls-8" d="M157,154.07c-1,0-2.26.37-2.92-.1s-.25-1.87-.32-2.85c-.18-2.55-.28-5.1-.45-7.66-.05-.68.16-.91.86-.89,1.55.05,3.11,0,4.67,0,.56,0,.77.17.79.74q.27,5.09.6,10.17c0,.56-.24.68-.71.67-.84,0-1.68,0-2.52,0Z" transform="translate(-6.85 -30.94)"/><path class="cls-8" d="M166.41,154.08c-1,0-2.25.37-2.92-.1s-.27-1.86-.34-2.84c-.19-2.55-.29-5.11-.45-7.66,0-.66.12-.93.84-.91,1.55.05,3.12,0,4.67,0,.57,0,.75.19.78.75.2,3.31.41,6.62.65,9.93.05.66-.12,1-.83.91s-1.6,0-2.4,0Z" transform="translate(-6.85 -30.94)"/><path class="cls-8" d="M175.28,154.16c-.8-.09-2,.41-2.7-.19s0-1.81,0-2.74c.1-2.63.31-5.25.45-7.88,0-.53.14-.79.74-.78,1.6,0,3.19,0,4.79,0,.66,0,.8.26.77.86-.19,3.34-.37,6.68-.51,10,0,.62-.32.72-.83.71C177.15,154.14,176.31,154.16,175.28,154.16Z" transform="translate(-6.85 -30.94)"/><path class="cls-8" d="M166.19,139.48c-4.07,0-8.15,0-12.22,0-.85,0-1.1-.25-1.07-1.08s0-1.24,1-1.23q12.28.06,24.56,0c1,0,1,.45,1.06,1.22s-.16,1.11-1,1.1C174.42,139.45,170.3,139.48,166.19,139.48Z" transform="translate(-6.85 -30.94)"/><path class="cls-5" d="M181,168.71c1.86.33,3.73-.06,5.59,0,1.31.07,1.31,0,.72,1.25q-1.76,3.66-3.52,7.31a2.09,2.09,0,0,1-2.5,1c-.36-.14-.3-.43-.32-.69l-.42-8.82C180.63,168.55,180.79,168.59,181,168.71Z" transform="translate(-6.85 -30.94)"/><path class="cls-5" d="M181.21,160.3a5.57,5.57,0,0,1-.24-1.73c0-.48-.12-.85-.66-.93-.24-.09-.18-.27-.14-.44.52-1.15.23-2.38.34-3.57.21-.29,0-.69.21-1a3.57,3.57,0,0,0,2.31.42h4.38c-1.21,2.52-2.2,5-3.56,7.26C183,160.64,182.08,161.3,181.21,160.3Z" transform="translate(-6.85 -30.94)"/><path class="cls-22" d="M170.91,149.72c-.14-2.06-.26-4.12-.43-6.18,0-.43-.07-.69.46-.72s.69.23.66.72c-.1,1.59-.18,3.17-.27,4.76C171,148.72,171.62,149.42,170.91,149.72Z" transform="translate(-6.85 -30.94)"/><path class="cls-23" d="M199.93,154.74a24.21,24.21,0,0,1-.7,4.31c-.5,0-1,.4-1.51.07A33.89,33.89,0,0,1,199.93,154.74Z" transform="translate(-6.85 -30.94)"/><path class="cls-24" d="M181.21,160.3c.87.55,1.76-.19,2.64,0a1.52,1.52,0,0,1-.45,1,1.65,1.65,0,0,1-1.66.41C181,161.5,181.26,160.83,181.21,160.3Z" transform="translate(-6.85 -30.94)"/><path class="cls-20" d="M180.17,157.2l.14.44H172.1v-.2h6.69A2.14,2.14,0,0,0,180.17,157.2Z" transform="translate(-6.85 -30.94)"/><path class="cls-25" d="M181,168.71l-.45.07-.45-4C180.69,166.05,180.53,167.44,181,168.71Z" transform="translate(-6.85 -30.94)"/><path class="cls-26" d="M170.91,149.72c.42-.39,0-1,.42-1.42a10.25,10.25,0,0,1-.31,3A3.4,3.4,0,0,1,170.91,149.72Z" transform="translate(-6.85 -30.94)"/><path class="cls-27" d="M161.58,151.87v-2.58h.12v2.57Z" transform="translate(-6.85 -30.94)"/><path class="cls-27" d="M161.49,144.8v2.48h-.12v-2.54Z" transform="translate(-6.85 -30.94)"/><path class="cls-28" d="M180.72,152.66c0,.33,0,.69-.21,1v-2C180.85,152,180.67,152.33,180.72,152.66Z" transform="translate(-6.85 -30.94)"/><path class="cls-29" d="M193.21,167.53h1.91c.08.06.11.11.08.16s0,.08-.08.08l-1.89,0s-.06-.05-.06-.08S193.19,167.56,193.21,167.53Z" transform="translate(-6.85 -30.94)"/><path class="cls-30" d="M195.12,167.76v-.24h1.68a1.93,1.93,0,0,1,0,.24Z" transform="translate(-6.85 -30.94)"/><path class="cls-31" d="M161.87,153.76a1.85,1.85,0,0,1,0,1.37A1.85,1.85,0,0,1,161.87,153.76Z" transform="translate(-6.85 -30.94)"/><path class="cls-32" d="M20.88,155.27A10.86,10.86,0,0,1,24,156,5.74,5.74,0,0,1,20.88,155.27Z" transform="translate(-6.85 -30.94)"/><path class="cls-8" d="M54,159.34c0-6.52,0-13,0-19.56,0-.91.26-1.12,1.14-1.12q8.28.06,16.56,0c.9,0,1.13.25,1.13,1.14q0,17.94,0,35.88a4.08,4.08,0,0,1-4,4.31c-4.68.1-9.36,0-14,.07-1,0-.7-.67-.7-1.16Q54,169.12,54,159.34Z" transform="translate(-6.85 -30.94)"/><path class="cls-8" d="M97.71,162.6q0,7.38,0,14.76c0,2.77-1.45,4.39-4.2,4.46-3.48.08-7,0-10.44,0-1,0-.81-.63-.81-1.2s-.19-1.25.82-1.18c.83.06,1.68,0,2.52,0A2.23,2.23,0,0,0,88.06,177q0-15,0-30c0-1.08-.43-1.47-1.51-1.46-3.32,0-6.64,0-10,0-1.09,0-1-.56-1-1.26s.12-1.12,1-1.1c3.32,0,6.64,0,10,0,1.08,0,1.53-.37,1.5-1.46,0-1.52,0-3,0-4.56,0-.67.19-.91.88-.9q4,.06,7.92,0c.7,0,.88.25.87.91,0,1.56,0,3.12,0,4.68,0,.59.09,1.28.78,1.26,1,0,.91.6.91,1.24s.1,1.15-.85,1.19-.83.92-.83,1.58c0,4.88,0,9.76,0,14.64Z" transform="translate(-6.85 -30.94)"/><path class="cls-33" d="M86.61,161.47a1.63,1.63,0,0,1-1.39-.22c-.12-3-.24-6.05-.65-9.05A1.22,1.22,0,0,0,83.15,151c-2.31,0-4.62,0-6.94,0-1,0-1.41.47-1.34,1.48.2,2.7.36,5.4.53,8.1-.18.73-.57.51-1,.21V148.53a3.47,3.47,0,0,0,2,.46c3,0,6,0,9,0,.85,0,1.18.17,1.17,1.11C86.59,153.88,86.61,157.67,86.61,161.47Z" transform="translate(-6.85 -30.94)"/><path class="cls-8" d="M103.67,159.36c0-6.52,0-13,0-19.56,0-.88.21-1.15,1.12-1.14,5.52.05,11,0,16.56,0,.87,0,1.15.19,1.15,1.11,0,12,0,24,0,36a4.08,4.08,0,0,1-4,4.21c-4.68.1-9.36,0-14,.07-1,0-.72-.64-.72-1.14Q103.67,169.14,103.67,159.36Z" transform="translate(-6.85 -30.94)"/><path class="cls-8" d="M147.39,162.6q0,7.38,0,14.76c0,2.77-1.45,4.39-4.2,4.46-3.48.08-7,0-10.44,0-1,0-.81-.63-.81-1.2s-.19-1.25.82-1.18c.83.06,1.68,0,2.52,0a2.23,2.23,0,0,0,2.47-2.45q0-15,0-30c0-1.08-.43-1.47-1.51-1.46-3.32,0-6.64,0-10,0-1.1,0-1-.56-1-1.26s.12-1.12,1-1.1c3.32,0,6.64,0,10,0,1.08,0,1.53-.37,1.5-1.46,0-1.52,0-3,0-4.56,0-.67.19-.91.88-.9q4,.06,7.92,0c.7,0,.88.25.87.91,0,1.56,0,3.12,0,4.68,0,.59.09,1.28.78,1.26,1,0,.91.6.91,1.24s.11,1.15-.85,1.19-.83.92-.83,1.58c0,4.88,0,9.76,0,14.64Z" transform="translate(-6.85 -30.94)"/><path class="cls-33" d="M136.31,162c-.54.32-1,.34-1.4-.26a95.14,95.14,0,0,0-.66-9.53,1.2,1.2,0,0,0-1.42-1.21c-2.31,0-4.62,0-6.94,0-1,0-1.41.47-1.34,1.48.2,2.7.36,5.4.53,8.1,0,.32,0,.64,0,1,0,.86-.39.83-1,.45V148.53a3.5,3.5,0,0,0,2.07.46c3,0,6,0,9,0,.89,0,1.16.23,1.15,1.14C136.28,154.06,136.31,158,136.31,162Z" transform="translate(-6.85 -30.94)"/><path class="cls-8" d="M80.6,170.15c-.89-.17-2.29.52-3-.28s-.29-2.07-.36-3.14c-.28-4.26-.56-8.52-.87-12.78-.11-1.53-.14-1.52,1.35-1.52s3,0,4.55,0c.61,0,.93.1,1,.83q.45,7.95,1,15.89c.06.88-.23,1.11-1,1S81.59,170.15,80.6,170.15Z" transform="translate(-6.85 -30.94)"/><path class="cls-8" d="M129.47,152.42c.6,0,1.2,0,1.8,0,1.73,0,1.56-.34,1.68,1.56q.44,7.23.91,14.45c.12,1.71.15,1.71-1.63,1.71a35.32,35.32,0,0,0-3.71,0c-1.2.13-1.47-.39-1.52-1.45-.12-2.67-.32-5.33-.49-8-.16-2.43-.3-4.86-.49-7.29-.06-.75.1-1.1.94-1S128.63,152.42,129.47,152.42Z" transform="translate(-6.85 -30.94)"/><path class="cls-34" d="M61.29,149.62v-6.83c0-1.63.21-1.83,1.88-1.84h.36c1.73,0,1.93.2,1.93,1.92v13.65c0,1.47-.19,1.64-1.65,1.65-2.52,0-2.52,0-2.52-2.57Z" transform="translate(-6.85 -30.94)"/><path class="cls-35" d="M65.46,168.52c0,2.12,0,4.24,0,6.35s-1,2.91-3,2.82c-.83,0-1.17-.44-1.17-1.19,0-4.95,0-9.9,0-14.85,0-.75.37-1.11,1.19-1.14,3-.11,3-.14,3,2.87Z" transform="translate(-6.85 -30.94)"/><path class="cls-34" d="M115.14,149.67c0,2.27,0,4.55,0,6.82,0,1.5-.18,1.67-1.63,1.68-2.54,0-2.54,0-2.54-2.54,0-4.27,0-8.54,0-12.81,0-.64-.22-1.49.67-1.72a4.16,4.16,0,0,1,3.14.17c.41.23.35.85.35,1.33Z" transform="translate(-6.85 -30.94)"/><path class="cls-35" d="M111,169.08c0-2.32,0-4.63,0-7,0-1.45.16-1.59,1.55-1.61,2.61,0,2.61,0,2.61,2.61,0,3.92,0,7.83,0,11.74,0,2-.87,2.78-2.75,2.82-1.06,0-1.43-.44-1.42-1.42C111,173.87,111,171.48,111,169.08Z" transform="translate(-6.85 -30.94)"/><path class="cls-36" d="M62.93,150.49c0-1.75,0-3.5,0-5.26,0-.34-.22-.87.42-.92s.69.38.69.86c0,3.58,0,7.17,0,10.75,0,.41,0,.83-.59.81s-.52-.48-.52-.86C62.93,154.07,62.93,152.28,62.93,150.49Z" transform="translate(-6.85 -30.94)"/><path class="cls-37" d="M63.6,176.18c-.53.4-.72.11-.72-.4,0-3.74,0-7.48,0-11.22,0-.37.12-.61.54-.63s.65.19.65.64c0,1.47,0,2.94,0,4.41a.84.84,0,0,0-.6.92A54.86,54.86,0,0,0,63.6,176.18Z" transform="translate(-6.85 -30.94)"/><path class="cls-38" d="M63.6,176.18c-.6,0-.53-.46-.53-.85,0-2,0-4,0-5.93,0-1,.34-1,1-.42,0,1.89,0,3.78,0,5.67A1.82,1.82,0,0,1,63.6,176.18Z" transform="translate(-6.85 -30.94)"/><path class="cls-36" d="M113.73,150.48c0,1.76,0,3.51,0,5.26,0,.39.2.95-.51,1s-.59-.5-.59-.91q0-5.33,0-10.63c0-.36-.18-.88.48-.88s.63.48.63.93Z" transform="translate(-6.85 -30.94)"/><path class="cls-37" d="M113.28,176.18c-.53.4-.72.11-.72-.4,0-3.74,0-7.48,0-11.23,0-.45.21-.64.66-.62s.53.39.53.76c0,2,0,4,0,6a.89.89,0,0,0-.59.93A27.06,27.06,0,0,0,113.28,176.18Z" transform="translate(-6.85 -30.94)"/><path class="cls-38" d="M113.28,176.18c-.5,0-.53-.35-.53-.73v-4.26c0-.82.31-1,1-.53,0,1.38,0,2.75,0,4.12A1.65,1.65,0,0,1,113.28,176.18Z" transform="translate(-6.85 -30.94)"/></svg>