<svg id="圖層_1" data-name="圖層 1" xmlns="http://www.w3.org/2000/svg" viewBox="0 0 212.95 176.7"><defs><style>.cls-1{fill:#38322f;}.cls-2{fill:#edcfa8;}.cls-3{fill:#ede7a1;}.cls-4{fill:#edbd69;}.cls-5{fill:#e7caa5;}.cls-6{fill:#ecbf6f;}.cls-7{fill:#fefefe;}.cls-8{fill:#fdfdfd;}.cls-9{fill:#403b38;}.cls-10{fill:#daa683;}.cls-11{fill:#6e6967;}.cls-12{fill:#ece6a1;}.cls-13{fill:#eccfa8;}.cls-14{fill:#ebcda7;}.cls-15{fill:#e292f1;}.cls-16{fill:#393330;}.cls-17{fill:#93908e;}</style></defs><title>40</title><path class="cls-1" d="M222,106.26c1.9,1.68,4.12,3,5.44,5.31a9.59,9.59,0,0,1,1.37,6.81,9.45,9.45,0,0,1-4.61,6.78,9,9,0,0,1-6.27,1.23,14.41,14.41,0,0,1-6.35-2.87,2.87,2.87,0,0,1-1.64-.92,89.23,89.23,0,0,1-11.8-12.39,110.74,110.74,0,0,1-7.22-10.33,98.13,98.13,0,0,1-7.15,9.86,73.13,73.13,0,0,1-18.1,15.52,11.87,11.87,0,0,1-3.89,1.48,9.71,9.71,0,0,1-11.27-4.39,13.56,13.56,0,0,1-1.48-5.15c-.08-.57-.19-.73-.76-.72-3.48,0-7,0-10.44,0a1.55,1.55,0,0,0-1.55,1,16,16,0,0,1-10.41,8.71c-5.4,1.53-10.76,1.18-16.16.19-2.52-.46-5-1.07-7.49-1.69a10.19,10.19,0,0,1-5.9-4,8.28,8.28,0,0,1-1.22-3.1c-.15-.58-.36-1.07-1.09-1.07s-.9.52-1,1.09a9.93,9.93,0,0,1-8.15,7.66,25.08,25.08,0,0,1-5.46.59c-3.6,0-7.21,0-10.8,0-3.75-.07-7.34-.73-10.16-3.5-.53-.52-.92-.24-1.35.1A22.33,22.33,0,0,1,53.42,125c-.42.21-.83.51-1.35.34-3.67,1-7.36,1.91-11.21,1.17a30.72,30.72,0,0,1-7.58-2.11,1,1,0,0,0-1.35.14,8.77,8.77,0,0,1-5.36,2.13,8.15,8.15,0,0,1-4.51-1c-4-1.88-6.75-6-5.43-10.88A23.29,23.29,0,0,1,18.45,110a70.26,70.26,0,0,0,7.23-22.69c.6-4.2,1-8.41,1.4-12.63.1-1,0-1.39-1.21-1.51a12.32,12.32,0,0,1-6.1-1.85,9,9,0,0,1-3.73-8c.06-3.25,1.27-6.2,4.37-7.89A14.11,14.11,0,0,1,26.76,54c.88,0,1.2-.33,1.3-1.1a8.61,8.61,0,0,1,4-6.48A10,10,0,0,1,38,44.83a9.19,9.19,0,0,1,7.9,4.43A10.92,10.92,0,0,1,47,52.77c.19.86.48,1.22,1.4,1.17a24.71,24.71,0,0,1,8.49,1.21.94.94,0,0,0,1.18-.43,9.31,9.31,0,0,1,5.2-3.39,28.5,28.5,0,0,1,7.47-.83c2.76,0,5.52.07,8.28,0a20.58,20.58,0,0,1,7.65,1.18,8.93,8.93,0,0,1,5.72,6c.31,1,.63,1.15,1.59.85A89,89,0,0,0,115.9,48.28a12,12,0,0,1,9.71-1.8,17.82,17.82,0,0,1,4.93,1.76A108.2,108.2,0,0,0,156.9,59.7a12.78,12.78,0,0,0,4.72.63c2.17-.22,4.39-.09,6.58-.11a10.37,10.37,0,0,1,3.67-.36h6.7c1.41,0,1.49-.11,1.53-1.49,0-.67-.11-1.37.37-1.95a38.13,38.13,0,0,1,.58-5.32c.84-5.13,6.75-7.73,11.2-6.79,2.72.57,4.94,1.69,6.4,4.1A12.76,12.76,0,0,1,200.13,54c.15,1.75.06,3.51.08,5.26.36.88,1.26.67,1.91,1,5.39,0,10.78,0,16.17.09,2.55,0,5.09.45,7.17,2.18a9,9,0,0,1,2.86,4.28,11.18,11.18,0,0,1-.2,7.49,8,8,0,0,1-5.29,5.13c-.68.22-1.38.36-2.08.54a2.66,2.66,0,0,1-2.14.54H204.94c-1.52,0-1.61.09-1,1.44a62.19,62.19,0,0,0,12.68,18.92,50.91,50.91,0,0,0,4.51,4.3A2.88,2.88,0,0,1,222,106.26Z" transform="translate(-16.03 -44.12)"/><path class="cls-2" d="M52.07,125.31a23.54,23.54,0,0,0,5.85-4.06c2.47,3.25,6.08,4.08,9.81,4.24,4.47.19,9,.18,13.43,0,2.73-.11,5.48-.53,7.79-2.3a8.66,8.66,0,0,0,3.68-5.66c.17-1.18.7-1.51,1.81-1.39.55.06.76.26.84.77.76,4.55,3.73,6.76,8,7.76,5.45,1.29,10.91,2.64,16.55,2.26,4.11-.28,8.15-1,11.56-3.71a14.79,14.79,0,0,0,4.8-6.3,1,1,0,0,1,1.11-.77q5.63,0,11.27,0c.68,0,.73.17.78.84.33,3.82,1.76,7.13,5.35,8.89a8,8,0,0,0,5.91.85,13.48,13.48,0,0,1,1.41-.27c.86-.26,1.45.29,2.06.71a35.23,35.23,0,0,0,11.77,5.25c12.36,2.92,23.52.38,33.47-7.51.4-.32.72-.94,1.42-.58,1.75,2.4,1.37,5.06.82,7.68-1.32,6.35-5.53,10.2-11.23,12.7a4.47,4.47,0,0,0-1.37.71c-1,.06-1.86-.61-2.83-.83a9.09,9.09,0,0,0-4.15-.05,85.75,85.75,0,0,1-14.38,1.76c-2,.1-4.07.13-6.1.26a10.74,10.74,0,0,0-6.15,2.42c-1,.31-2,.39-3.05.61a12.09,12.09,0,0,0-6.22,3.12c-1.1-.42-1.28-1.53-1.74-2.41-.84-1.58-1.47-3.26-2.39-4.82-1.31-2.21-5.53-3.76-7.91-3a9.17,9.17,0,0,0-4.5,2.53c-.59.67-1.05.52-1.59,0a8.54,8.54,0,0,0-4-2.24c-4.45-1.17-8,1.17-9.61,4.93a36.37,36.37,0,0,1-11.17,14.42,8,8,0,0,0-3.24,4.6.67.67,0,0,1-.5.61,20.4,20.4,0,0,0-2.46-4.75,11.82,11.82,0,0,0-9.3-4.4c.1-.56.62-.58,1-.73,3.08-1.21,4.2-5.2,3.76-7.6a8.78,8.78,0,0,0-1.16-3.5,7.07,7.07,0,0,0-6-2.87c-5.47-.14-11-.23-16.41,0-4.14.18-7,1.4-8,6.65-.2,1-.44,1.95-.6,2.93-.73,4.5-1.52,9-2.21,13.48a3.67,3.67,0,0,1-.65,2.14,1.33,1.33,0,0,1-.74.36,20.15,20.15,0,0,1-12.36-1.51,1.55,1.55,0,0,1-.39-.28c-.29-.4-.07-.77.08-1.12a17.27,17.27,0,0,0,.54-12.87,14.73,14.73,0,0,0-10-9.58c-1-.33-2.08-.54-3.14-.77-.46-.1-1-.14-1.26-.59a17.55,17.55,0,0,1,4.13-9.72C46.44,129.72,49.32,127.59,52.07,125.31Z" transform="translate(-16.03 -44.12)"/><path class="cls-1" d="M165.12,148.81a10.22,10.22,0,0,1,7.23-2.64,105.8,105.8,0,0,0,20.23-2.11,8.47,8.47,0,0,1,6.37,1.35c1.09.66,1.66,1.81,2.49,2.76,1.48-1.51,2.46-3.4,4.32-4.49a8.2,8.2,0,0,1,8.59,0,7.71,7.71,0,0,1,4,6.58,8.16,8.16,0,0,1-1.74,5.49c-.48.6-.65.95.11,1.68a7.46,7.46,0,0,1,2.32,7.36,8.8,8.8,0,0,1-1.78,4.13c-.39.43-.33.71.16,1a8.06,8.06,0,0,1,2.2,10.75c-5.57,8.58-12.9,15.08-22.53,18.79-2.68,1-5.42,1.68-8.26.51a.88.88,0,0,0-.78,0,9,9,0,0,1-6.8.8,7.39,7.39,0,0,1-5.62-6.18,13,13,0,0,1-2.68,1.3,9.72,9.72,0,0,1-5.4,0,5.07,5.07,0,0,1-3.73-2.32,8.63,8.63,0,0,1-1.35-8.68c.09-.22.17-.45.28-.66a13.44,13.44,0,0,1,3.8-4.25c.13,0,.05-.24.07-.08.07.48-2-.94-2.67-1.82-.19-.26-.37-.52-.57-.77-1.17-.67-2.22,0-3.3.33-.29.07-.34.42-.34.71a30.19,30.19,0,0,0-.25,3.68,43,43,0,0,1-1,9.39,10.61,10.61,0,0,1-8,8.24,21.43,21.43,0,0,1-11.13-.24c-2.9-.71-5.89-1.21-8.36-3.11-.54-.42-1-.16-1.53.18a46,46,0,0,1-4.1,2.7c-1,.54-1.9,1.39-3.19,1.1a9.29,9.29,0,0,1-5.5.08,7.34,7.34,0,0,1-4.86-4.43,8.36,8.36,0,0,1,2.16-9.91,3.65,3.65,0,0,1,1.59-1.4c1.28-.8,2.61-1.53,3.82-2.45a11.29,11.29,0,0,0,3.68-5.2c.11-.28.39-.63.14-.88a.89.89,0,0,0-1,0,11.84,11.84,0,0,1-3.26,1.15,8.32,8.32,0,0,1-7.42-2,3,3,0,0,1-.61-1.13,8.49,8.49,0,0,1-1.47-6.71c.51-2.58,2.13-4.35,4.12-5.94A34.58,34.58,0,0,0,124,147.58c1.36-3.22,3.77-5.3,7.34-5.49a8.47,8.47,0,0,1,6.89,2.72c.33.37.44.65.93.1,3.89-4.37,11.24-4,13.95,2a41.28,41.28,0,0,0,2.84,5.78,1.1,1.1,0,0,1,.6.56,30.7,30.7,0,0,0,8.42,8.91c.19.14.36.3.55.47a5.48,5.48,0,0,0-1.18-3.22A9.28,9.28,0,0,1,164,150,2.5,2.5,0,0,1,165.12,148.81Z" transform="translate(-16.03 -44.12)"/><path class="cls-1" d="M40.06,142.28c1,.23,2,.45,3,.69,6.88,1.66,11,5.93,12.36,12.9A17.75,17.75,0,0,1,53.83,167c.07.94-.57,1.55-1,2.22a1,1,0,0,0,.16,1.52c4.05,3.5,5.75,8.05,5.82,13.29,0,.6.25.73.72.58a9.13,9.13,0,0,1,6,.41c.66.23,1-.09,1.45-.51a7.51,7.51,0,0,1,7.92-2,7.08,7.08,0,0,1,3.24,2.18,8.16,8.16,0,0,0,2.31,1.87c2.61,1.4,4.78,1,6.58-1.31a6.63,6.63,0,0,0,.79-6.81,3.13,3.13,0,0,0-3.13-2,14.46,14.46,0,0,0-5.64.83,10,10,0,0,1-7.15.23,7,7,0,0,1-4.53-4.74c-.42-1.4-1-2.83-.13-4.29.56-3.25,1.12-6.51,1.7-9.77.53-3,1-6.06,1.61-9.06,1.05-4.84,3.87-6.39,8.15-6.54,5.55-.2,11.1-.13,16.65,0,2.59,0,5,.81,6.42,3.27,2,3.55,1.47,8.87-2.39,11.12-.53.31-1.15.32-1.66.63l-1.92.32c-2.9.17-5.8,0-8.71.26-1.47.11-2.63.23-3.08,1.83a1.13,1.13,0,0,0,.9.35c4.48.39,8.73,1.39,12.33,4.33a17.56,17.56,0,0,1,5.31,7.12,22.79,22.79,0,0,1-.44,18.93,21,21,0,0,1-23.74,11.25,19.65,19.65,0,0,1-8.23-3.93c-.42-.35-.72-.63-1.2.06-3.63,5.32-12.1,4.8-15.13-1.36,0-.1-.12-.2-.22-.36-.84.69-1.61,1.41-2.47,2-5.58,4-11.74,4.91-18.36,3.52A18.12,18.12,0,0,1,21,194.76a15.8,15.8,0,0,1-2.91-9c0-4.53,2.17-7.91,7.26-8.37a7.46,7.46,0,0,1,7.88,5.48c.18.74.36,1.48.49,2.23a3,3,0,0,0,1.93,2.41,6.19,6.19,0,0,0,5.09-.1,3.54,3.54,0,0,0,2-3.27A3.66,3.66,0,0,0,41,180.52a8.58,8.58,0,0,0-4.13-1,9.89,9.89,0,0,1-5.64-1.67A7.72,7.72,0,0,1,28.31,170c.18-.77.37-1.54.56-2.32-3.44.54-6.3-.39-8.08-3.47a10.25,10.25,0,0,1-1.14-6.38c.73-6.47,3.82-11.31,9.86-13.93A20.56,20.56,0,0,1,40.06,142.28Z" transform="translate(-16.03 -44.12)"/><path class="cls-3" d="M122.17,200.2c2.86-.85,5.12-2.74,7.52-4.38.29-.21.54-.67,1-.26,2.83,2.46,6.43,2.86,9.87,3.69a19.36,19.36,0,0,0,9.94,0,10.14,10.14,0,0,0,7.46-7.47c.94-3.23,1-6.54,1.2-9.84.22-.46-.21-1.2.26-1.39.62-.24.93.52,1.37.87a3.4,3.4,0,0,1,.34.32,9.77,9.77,0,0,1,1.84,2.4c-.51,1.91-1.14,3.72-.6,5.82a8.48,8.48,0,0,0,5.13,5.87,24.33,24.33,0,0,1-2,11.65c-3.22,6.84-8.49,11.25-15.85,12.81-8.18,1.73-15.33-.54-21.17-6.54a21.33,21.33,0,0,1-6.06-12.84A4.42,4.42,0,0,0,122.17,200.2Z" transform="translate(-16.03 -44.12)"/><path class="cls-4" d="M210.73,124.32c-.89.17-1.36,1-2,1.45a38.29,38.29,0,0,1-41.68,3.58c-1.27-.67-2.44-1.52-3.66-2.27-.43-.26-.81-.66-1.38-.63,3.92-1.06,7-3.63,10.13-6a74.86,74.86,0,0,0,17.79-19.59c.3-.47.61-.93,1-1.51,5.76,9.07,12.26,17.43,20.68,24.14A1.36,1.36,0,0,0,210.73,124.32Z" transform="translate(-16.03 -44.12)"/><path class="cls-4" d="M222,106.26a62.9,62.9,0,0,1-14.59-16.84,73.86,73.86,0,0,1-4.19-8.34c-.33-.78-.17-.94.64-.94,4.47,0,9,0,13.42,0a14.73,14.73,0,0,0,3.45-.22,55.63,55.63,0,0,1,2.32,8.14A38.77,38.77,0,0,1,222,106.26Z" transform="translate(-16.03 -44.12)"/><path class="cls-2" d="M110.89,174c2.7,3.46,7.3,3.85,11,1.85.28-.15.49-.4.87-.31.63.15,1.14.17.77,1.17a12.87,12.87,0,0,1-5.69,6.84c-1.3.77-2.57,1.6-3.85,2.4C112,182.19,111.38,178.11,110.89,174Z" transform="translate(-16.03 -44.12)"/><path class="cls-4" d="M180.47,56.42c.05,1.23.51,2.77-.15,3.59s-2.24.24-3.41.25c-2.9,0-5.8,0-8.7,0a33.81,33.81,0,0,1,10.84-3.57C179.52,56.56,180,56.49,180.47,56.42Z" transform="translate(-16.03 -44.12)"/><path class="cls-5" d="M84,160.54a2.17,2.17,0,0,1,0-.36c.17-1.75.17-1.75,1.87-1.75l9.91,0a5.11,5.11,0,0,1-2.57.15A19.41,19.41,0,0,0,84,160.54Z" transform="translate(-16.03 -44.12)"/><path class="cls-6" d="M202.12,60.22c-.35,0-.7,0-1.05.06-.83.11-1-.29-.86-1A7,7,0,0,1,202.12,60.22Z" transform="translate(-16.03 -44.12)"/><path class="cls-7" d="M143.76,85.2h1.08c1.82,0,2.68.58,3,2.08.37,1.85-.24,3.13-2,3.71a40.67,40.67,0,0,1-8.49,1.39c-3.58.4-7.16.68-10.9,1,.39.68.78,1.3,1.1,1.95s.76.34,1.15.35h19.2c.44,0,.88,0,1.32,0,2.3.08,3,.81,3,3.09,0,2.06-.83,2.93-2.91,2.94-6,0-12.08,0-18.12,0h-1c.12,1.9.12,1.9,1.92,1.9h21.71c.4,0,.8,0,1.2,0,3.09.12,3.61,1.86,3,4.51a1.79,1.79,0,0,1-1.32,1.27,8.85,8.85,0,0,1-2.85.3c-7.12,0-14.24,0-21.35,0-.91,0-1.27.13-1.39,1.17-.63,5.77-4,9-9.83,9.55s-11.78-.53-17.49-2.16c-2.08-.59-2.79-2-2.24-3.81a3.13,3.13,0,0,1,4.09-2.3,65.49,65.49,0,0,0,8.52,1.9,27,27,0,0,0,6.22.12,4.38,4.38,0,0,0,4-3.37c.25-.84.05-1.1-.86-1.09-6,0-12,0-18,0h-13c-.52,0-1,0-1.55,0-2.55-.17-3.76-2.2-2.75-4.57a2.09,2.09,0,0,1,1.39-1.22,8.21,8.21,0,0,1,2.37-.26h31.55c-.13-1.88-.16-1.9-1.86-1.9h-26c-3,0-3.53-1.77-3-4.27a2.12,2.12,0,0,1,2-1.68,15.41,15.41,0,0,1,2.15-.11h23c-.83-1.86-.83-1.81-2.65-1.71q-9.47.53-18.94.54a7.89,7.89,0,0,1-.84,0c-2.51-.32-3.55-2.32-2.39-4.62.57-1.14,1.67-1.28,2.76-1.31,4.24-.1,8.48-.1,12.71-.24a269.86,269.86,0,0,0,30.32-2.67,3.35,3.35,0,0,1,1.79-.51A4.05,4.05,0,0,1,143.76,85.2Z" transform="translate(-16.03 -44.12)"/><path class="cls-7" d="M157.66,68.87a2.85,2.85,0,0,1,2.71-2.13,12,12,0,0,1,1.8-.06c7.76,0,15.51,0,23.27,0,1.14,0,1.55-.18,1.52-1.45-.1-3.8-.07-7.6,0-11.4,0-2.49,1.34-3.62,3.84-3.45a2.78,2.78,0,0,1,2.92,2.73,17.43,17.43,0,0,1,.11,2c0,3.4.05,6.8,0,10.19,0,1,.18,1.35,1.28,1.34,7.56-.06,15.12,0,22.68,0h1.08c3.05.07,4.48,2.08,3.54,5a2.68,2.68,0,0,1-2.33,2,15.35,15.35,0,0,1-2,.11c-8,0-15.92,0-24,0a65.65,65.65,0,0,0,2.63,8A71.15,71.15,0,0,0,217,110.37a57.43,57.43,0,0,1,4.5,3.76c1.45,1.52,1.69,3.1.67,4.52-1.22,1.68-2.78,2-4.75,1.07a19.76,19.76,0,0,1-4.57-3.45,88,88,0,0,1-21.31-29.8L191,85.26c-.43.21-.41.66-.56,1A69.64,69.64,0,0,1,163.22,119a9.82,9.82,0,0,1-3.48,1.54,3.23,3.23,0,0,1-3.6-1.74,3.12,3.12,0,0,1,.51-3.85,13.39,13.39,0,0,1,2.88-2.14A60.25,60.25,0,0,0,182.07,88.4a45.83,45.83,0,0,0,4.34-13.14c.08-.47.12-1,.18-1.49H174.65c-4.12,0-8.24-.08-12.35,0-2.55.07-4.49-.5-5.09-3.29C157.18,69.92,158,69.56,157.66,68.87Z" transform="translate(-16.03 -44.12)"/><path class="cls-7" d="M51.23,85.1c0-4.27.17-10.19-.33-16.1-.13-1.59-.55-2-2.09-2-2.52-.06-5,0-7.56-.06-.78,0-.7.41-.74.89-.46,6.94-1,13.87-2.11,20.75-1.48,9.58-3.54,19-8.15,27.66a17.59,17.59,0,0,1-2,3,2.68,2.68,0,0,1-3.64.69c-1.64-.85-2.34-2.06-2-3.55a9.5,9.5,0,0,1,1-2.45,79.41,79.41,0,0,0,8.3-25.74,191.23,191.23,0,0,0,1.9-19.56C33.9,67,33.87,67,32.26,67c-2.08,0-4.16,0-6.24,0-2.69-.12-3.82-1.28-3.7-3.64a2.69,2.69,0,0,1,2.33-2.78c2.21-.49,4.46-.2,6.69-.24,2.77,0,2.74,0,2.78-2.79a16.25,16.25,0,0,1,.17-4.06c.41-1.57,1.65-2.36,3.59-2.29a2.82,2.82,0,0,1,2.94,2.45,26,26,0,0,1,.1,5.51c0,.93.14,1.2,1.12,1.19,3.35,0,6.71-.13,10.07.18s4.86,1.61,5.31,4.91A118.82,118.82,0,0,1,58,80.09c.07,8.44-.05,16.88-.67,25.3a20.82,20.82,0,0,1-2.82,9.8,10.45,10.45,0,0,1-7.69,5,18.84,18.84,0,0,1-10.77-1.5c-2-1-2.75-2.09-2.37-3.77.53-2.38,2-3.34,4.42-2.72,1.93.5,3.76,1.32,5.8,1.4a5,5,0,0,0,5-2.81,18.94,18.94,0,0,0,2-8.33C51.13,97.22,51.17,92,51.23,85.1Z" transform="translate(-16.03 -44.12)"/><path class="cls-7" d="M61.75,88V64.83a20.7,20.7,0,0,1,.36-4.3,4.11,4.11,0,0,1,3.45-3.37,13.74,13.74,0,0,1,2.86-.29c4,0,7.92,0,11.88,0,5.11,0,6.78,1.63,6.79,6.76q.06,24.42,0,48.83c0,5.15-1.55,6.7-6.66,6.74-4.63,0-9.28.26-13.9-.16-3-.27-4.35-1.69-4.61-4.68-.1-1.2-.16-2.4-.16-3.59C61.74,103.18,61.75,95.58,61.75,88Z" transform="translate(-16.03 -44.12)"/><path class="cls-7" d="M157.66,68.87c1.29.95-.27,1.11-.45,1.64-1.21,1.6-2.8,1.79-4.6,1.28-3.3-.94-6.54-2.08-9.75-3.28-.55-.21-.89-.31-1.16.4a2,2,0,0,1-1.6,1.14,12,12,0,0,1-2.14.22q-15.29,0-30.58,0c-1,0-2.34.16-3-.62-1-1.23-1.86-.62-2.84-.26a61.2,61.2,0,0,1-8.49,2.5c-2.64.56-4.41-.8-4.29-3.18a3.14,3.14,0,0,1,2.33-2.89c1.39-.49,2.84-.82,4.26-1.22A80,80,0,0,0,118.57,54a7.65,7.65,0,0,1,8.87-.23c8.42,4.95,17.19,9.14,26.71,11.56A4.2,4.2,0,0,1,157.66,68.87Z" transform="translate(-16.03 -44.12)"/><path class="cls-7" d="M103.92,85.24c-4.31-.45-5.17-1.4-5.16-5.79a28.78,28.78,0,0,1,.13-3.35,4.13,4.13,0,0,1,4-4.08,20.94,20.94,0,0,1,2.75-.18q17.45,0,34.9,0a21,21,0,0,1,2.62.17c2.38.3,3.41,1.23,3.83,3.58a22.59,22.59,0,0,1,.07,6A3.5,3.5,0,0,1,143.78,85a2.65,2.65,0,0,1-1.29.32,17.44,17.44,0,0,1-3,0H105.23A3.86,3.86,0,0,1,103.92,85.24Z" transform="translate(-16.03 -44.12)"/><path class="cls-4" d="M163.53,102c-1.19-1.79-2.55-3.31-4.71-3.87-.42-.11-.35-.58-.44-.92-.41-1.61-.62-3.27-1.78-4.64a12.66,12.66,0,0,0-2.17-1.85c-.29-.22-.62-.36-.43-.84.75-2-.13-3.78-.58-5.61a4.92,4.92,0,0,1-.1-2.44,10.09,10.09,0,0,0,.2-2.14c0-1.27.86-1.71,2-1.07a12.54,12.54,0,0,0,6.08,1.54c5.36.08,10.72,0,16.07,0,.74,0,1,.07.69.91a52.23,52.23,0,0,1-14.14,20.39C164,101.62,163.79,101.78,163.53,102Z" transform="translate(-16.03 -44.12)"/><path class="cls-8" d="M44.65,96.47c.09,2.76-.16,5.5-.3,8.25a5.69,5.69,0,0,1-.12.7c-.41,2-1.3,2.29-3,1.14-.46-.31-.12-.63,0-.93q1.14-4.95,2.3-9.89C44.24,95.42,44.32,96.14,44.65,96.47Z" transform="translate(-16.03 -44.12)"/><path class="cls-9" d="M103.92,85.24l31.08,0h7.8c.08,0,.11.09.08.13s-.06.07-.09.07l-1.92.23c-.42-.35-.92-.19-1.38-.19H105.31C104.84,85.44,104.34,85.59,103.92,85.24Z" transform="translate(-16.03 -44.12)"/><path class="cls-10" d="M44.65,96.47c-.41-.19-.63-.71-1.15-.73L44.73,89A50.2,50.2,0,0,1,44.65,96.47Z" transform="translate(-16.03 -44.12)"/><path class="cls-11" d="M142.79,85.41a1.27,1.27,0,0,1,0-.2,1.59,1.59,0,0,1,1-.21.44.44,0,0,1,0,.2A1.09,1.09,0,0,1,142.79,85.41Z" transform="translate(-16.03 -44.12)"/><path class="cls-7" d="M67.18,168.5a8.66,8.66,0,0,0,1.5,6.34c1.84,2.49,4.46,3.06,7.31,2.87a11.94,11.94,0,0,0,3.47-.86,13.21,13.21,0,0,1,5.17-.72,3.5,3.5,0,0,1,3.62,2.57c.9,3,.39,6-2.26,8.09-1.93,1.52-4.85,1.18-7-.76-.74-.66-1.42-1.41-2.17-2.05a7.19,7.19,0,0,0-10.1,1.3c-.15.22-.22.57-.71.35a9.11,9.11,0,0,0-7.63-.27,21,21,0,0,0-.44-5.6,15.31,15.31,0,0,0-5.73-9.11c-.47-.39-.45-.58-.12-1,.63-.82,1.17-1.71,1.74-2.58A21.27,21.27,0,0,0,64.37,169,14.09,14.09,0,0,0,67.18,168.5Z" transform="translate(-16.03 -44.12)"/><path class="cls-7" d="M165.12,148.81a14.31,14.31,0,0,0-1.56,3.16,8.78,8.78,0,0,0,1.48,7.88c.77,1,.69,2.32,1.05,3.5-3.94-3.06-7.82-6.13-10.12-10.69A7.34,7.34,0,0,1,160,149.9,22.3,22.3,0,0,1,165.12,148.81Z" transform="translate(-16.03 -44.12)"/><path class="cls-7" d="M189.68,175.65a74,74,0,0,1,5.19,6.6c1.6,2.4.57,4.91-2.21,5.5-1.51.32-2.5-.5-3.31-1.63s-1.57-2.28-2.54-3.69c0,3.64,0,6.94,0,10.23,0,2.5-1.49,3.76-3.82,3.41-1.74-.26-2.65-1.49-2.67-3.67,0-3.12,0-6.24,0-9.66-.9,1.07-1.64,1.95-2.4,2.81a29.16,29.16,0,0,1-5.46,5,3.28,3.28,0,0,1-5.31-2,3.15,3.15,0,0,1,.69-2.58,12,12,0,0,1,2.24-2.15,36.49,36.49,0,0,0,7.11-8.16c-2.31,0-4.44,0-6.57,0a3.19,3.19,0,0,1-3.28-4.07,2.71,2.71,0,0,1,2.61-2.38c1.15-.1,2.32,0,3.75,0-1.45-1.19-1.62-2.69-1.94-4.15s-.72-2.78-1.1-4.17a5.93,5.93,0,0,1-.35-1.26,4.12,4.12,0,0,0-1.44-3.1c-1.69-1.65-.58-4.63,1.76-5.11s4.62-.2,6.93-.36a89.68,89.68,0,0,0,15-1.93c.31-.07.63-.1.94-.14a3,3,0,0,1,3.26,1.28,3.46,3.46,0,0,1,0,3.85,1.26,1.26,0,0,0-.23,1.28c.37,1.09-.16,2.11-.38,3.16.53.32.83-.15,1.16-.35a34.5,34.5,0,0,0,9.86-9c1.35-1.86,3.05-2.28,4.65-1.28a3,3,0,0,1,1.23,4,13.58,13.58,0,0,1-2.49,3.5,47.24,47.24,0,0,1-11.29,9.21c-2.24,1.31-3.48,1.05-5.14-1-1.08,1.9-2,3.9-4,5.44,1.6,0,2.94,0,4.27,0,1.61,0,2.88.57,3.27,2.39a37.62,37.62,0,0,0,8.93-7.86c.74-.84,1.38-1.77,2.16-2.57a2.92,2.92,0,0,1,4.11-.37,3,3,0,0,1,1.17,3.77,9.85,9.85,0,0,1-1.66,2.62,46.33,46.33,0,0,1-12.83,11,10.57,10.57,0,0,1-1.82.89c-2.19.76-3.83-.18-4.23-2.47-.12-.71-.32-.95-1-.9S190.77,175.65,189.68,175.65Z" transform="translate(-16.03 -44.12)"/><path class="cls-7" d="M127.25,164.38h22.57c-.56-.79-1-1.49-1.55-2.18a44.63,44.63,0,0,1-5.37-9.58,9.87,9.87,0,0,1-.49-1.48,3.1,3.1,0,0,1,2-4,2.92,2.92,0,0,1,4.11,1.74,53.24,53.24,0,0,0,4.11,8,36.09,36.09,0,0,0,8.63,9.06,3.3,3.3,0,0,1,.51,5.19,3.08,3.08,0,0,1-3.84.58,24.67,24.67,0,0,1-3.24-2.31c-.12,2.58-.21,5.06-.35,7.55-.22,3.86-.14,7.76-.7,11.6-.65,4.35-2.81,6.22-7.18,6.29a27.33,27.33,0,0,1-11-2.18c-2.07-.85-2.7-2.21-2.13-4.06a3,3,0,0,1,4-2.21c1.78.45,3.44,1.27,5.27,1.57a17.87,17.87,0,0,0,3.1.19,1.3,1.3,0,0,0,1.51-1.42c.2-4.64.45-9.27.66-13.9.08-1.8.07-1.8-1.76-1.8-2.8,0-5.6,0-8.4,0-.94,0-1.27.22-1.41,1.21-.66,4.59-1.62,9.11-4,13.19A25.3,25.3,0,0,1,121,195.32a3.22,3.22,0,0,1-4.55-1.26,3.35,3.35,0,0,1,1.42-4.71c1.56-1,3.17-1.85,4.64-3,3.78-2.87,5.66-6.82,6.57-11.34.21-1.05.33-2.13.54-3.18.12-.63,0-.87-.7-.83-1,.05-2.08,0-3.12,0a4.16,4.16,0,0,1-3.45-1.31c-.34-.44-.54-.13-.75.06a14.36,14.36,0,0,1-2.41,1.77,3.21,3.21,0,0,1-3.9-5.09c1.38-1.38,3-2.5,4.4-3.88a40,40,0,0,0,8.85-12.83c1-2.32,2.31-3.1,4.21-2.59a2.85,2.85,0,0,1,2.24,3.91,28.34,28.34,0,0,1-2.83,6.06,43.13,43.13,0,0,1-4.45,6.52A6.42,6.42,0,0,0,127.25,164.38Z" transform="translate(-16.03 -44.12)"/><path class="cls-7" d="M192.18,195.63a2.66,2.66,0,0,1-2.64-1.59,3.18,3.18,0,0,1,.21-3.6,4.47,4.47,0,0,1,1.94-1.38,37.71,37.71,0,0,0,18.05-14.42,3,3,0,0,1,4.58-.82c1.61,1.14,1.91,2.78.74,4.63a40.18,40.18,0,0,1-4.24,5.49A40.62,40.62,0,0,1,194.56,195c-.56.2-1.14.36-1.72.51A4.22,4.22,0,0,1,192.18,195.63Z" transform="translate(-16.03 -44.12)"/><path class="cls-8" d="M163,184.11a10.4,10.4,0,0,1-1.91-2.17c.6-1.53,1.6-2.88,2-4.51a.48.48,0,0,1,.57-.32,8.64,8.64,0,0,0,3.22,2.83A17.42,17.42,0,0,0,163,184.11Z" transform="translate(-16.03 -44.12)"/><path class="cls-12" d="M142.59,178.82c-.07,1.11-.16,2.22-.2,3.33,0,.5-.19.63-.66.46a21,21,0,0,0-2-.68c-.44-.1-.33-.33-.27-.6.38-1.54.78-3.08,1.12-4.63.23-1,1-.52,1.54-.58.73-.09.52.51.53.91,0,.59,0,1.19,0,1.79Z" transform="translate(-16.03 -44.12)"/><path class="cls-13" d="M163.64,177.11c-.61.41-.44,1.15-.71,1.7a10.68,10.68,0,0,1-1.86,3.13l-1.55-1.33c-.34.39,0,1-.35,1.3.06-1.35.13-2.69.16-4,0-.5.23-.67.7-.75a14.39,14.39,0,0,0,2.42-.56C163.11,176.32,163.4,176.58,163.64,177.11Z" transform="translate(-16.03 -44.12)"/><path class="cls-14" d="M140.47,159.34h-3.66c.61-1.23,1.19-2.37,1.84-3.66Z" transform="translate(-16.03 -44.12)"/><path class="cls-15" d="M41.86,171.34c1,.29,1.73.47,2.44.7,4.55,1.5,8,4.23,8.88,9.14a13.52,13.52,0,0,1-4.63,13.39c-5.42,4.6-14.95,4.74-20.58.41a12.67,12.67,0,0,1-4.88-8.77,3.72,3.72,0,0,1,.91-3.12,2.42,2.42,0,0,1,2.65-.61A2.72,2.72,0,0,1,28.71,185c.61,8.55,11.1,9.68,15.79,6A9.17,9.17,0,0,0,44,176.47a13.83,13.83,0,0,0-7.53-2c-2,0-3.23-1.06-3.35-2.72a2.33,2.33,0,0,1,2.38-2.81,10.89,10.89,0,0,0,5.14-1.38,9.61,9.61,0,0,0,4.68-9c-.53-5.13-5.29-7.18-9.05-6.58a7,7,0,0,0-6.28,7,13.34,13.34,0,0,1-.16,1.55,2.48,2.48,0,0,1-2.62,2.29,2.45,2.45,0,0,1-2.44-2.2,10.65,10.65,0,0,1,.67-5.88c1.71-4.44,5.21-6.6,9.7-7.41a16.54,16.54,0,0,1,7.13.42c9.52,2.47,10.43,13.22,6.05,18.62A19.16,19.16,0,0,1,41.86,171.34Z" transform="translate(-16.03 -44.12)"/><path class="cls-15" d="M86.92,148.11H95.2c1,0,1.89.09,2.34,1.09a3.49,3.49,0,0,1-.15,3.44c-.49.79-1.34.78-2.15.78-4.56,0-9.12,0-13.68,0-1.13,0-1.57.23-1.74,1.44-.52,3.64-1.2,7.25-1.87,10.86-.16.84,0,.92.81.76a22.31,22.31,0,0,1,8.69-.26c6.27,1.2,10.28,5.12,11.47,11.51,1.31,7-.59,13-6.45,17.39a16,16,0,0,1-21.78-2.86,3.23,3.23,0,0,1,0-3.9,2.17,2.17,0,0,1,3.5,0,13.23,13.23,0,0,0,5.56,3.83A9.78,9.78,0,0,0,91,188.86a12,12,0,0,0,1.76-12.33c-1.33-3.51-4.15-5.13-7.8-5.41a16.71,16.71,0,0,0-7.17,1.06,7.5,7.5,0,0,1-3,.62,2.62,2.62,0,0,1-2.66-3.12c1-6.11,2-12.22,3-18.32.47-2.69,1.24-3.25,4-3.25S84.32,148.11,86.92,148.11Z" transform="translate(-16.03 -44.12)"/><path class="cls-15" d="M61.83,189.61a3.86,3.86,0,1,1-.11,7.72,3.94,3.94,0,0,1-3.84-3.92A3.89,3.89,0,0,1,61.83,189.61Z" transform="translate(-16.03 -44.12)"/><path class="cls-8" d="M33.89,164.12a16.18,16.18,0,0,0,1-4.72,2.17,2.17,0,0,1,1.4-2.28,3.19,3.19,0,0,1,3.36.58,2.7,2.7,0,0,1,.49,2.91,4.75,4.75,0,0,1-4.28,3.26C35.25,163.92,34.62,164,33.89,164.12Z" transform="translate(-16.03 -44.12)"/><path class="cls-1" d="M80.27,88c0,7.72,0,15.43,0,23.15,0,1.17-.26,1.57-1.52,1.52-3-.11-6-.06-9,0-.85,0-1.2-.15-1.2-1.1q0-23.5,0-47c0-.78.22-1,1-1,3.11,0,6.23.07,9.35,0,1.08,0,1.34.29,1.34,1.33C80.26,72.52,80.27,80.24,80.27,88Z" transform="translate(-16.03 -44.12)"/><path class="cls-1" d="M133.3,64.3H113.5l6.19-3.62.52-.31c3.44-2.16,2.13-2.11,5.73-.08C128.27,61.6,130.58,62.93,133.3,64.3Z" transform="translate(-16.03 -44.12)"/><path class="cls-16" d="M123,79.69c-5.56,0-11.12,0-16.67,0-.92,0-1.15-.24-1.13-1.13s.11-1.24,1.14-1.24q16.68.07,33.34,0c1,0,1.18.27,1.2,1.2s-.31,1.16-1.21,1.16C134.09,79.67,128.53,79.69,123,79.69Z" transform="translate(-16.03 -44.12)"/><path class="cls-16" d="M176.8,169.11a3.43,3.43,0,0,0,1.57-4,61.45,61.45,0,0,0-1.75-6.69c-.24-.7-.2-1,.64-.95a2,2,0,0,0,.6,0c.83-.16,1.17.08,1.35,1,.43,2.23,1,4.42,1.4,6.66.23,1.3-.45,2.41-.32,3.64,0,.31-.26.34-.51.35Z" transform="translate(-16.03 -44.12)"/><path class="cls-16" d="M186.9,163c-.53-2.21-1-4.2-1.49-6.22l4.47-.59A24,24,0,0,1,186.9,163Z" transform="translate(-16.03 -44.12)"/><path class="cls-17" d="M188.05,169.24c-.52-.14-1,.21-1.28-.27-.14-.25,0-.64.34-.31S187.79,168.73,188.05,169.24Z" transform="translate(-16.03 -44.12)"/></svg>