<svg id="圖層_1" data-name="圖層 1" xmlns="http://www.w3.org/2000/svg" viewBox="0 0 212.18 201.99"><defs><style>.cls-1{fill:#3d5fac;}.cls-2{fill:#cc6495;}.cls-3{fill:#fe7e5b;}.cls-4{fill:#ea72a2;}.cls-5{fill:#f297db;}.cls-6{fill:#9d255f;}.cls-7{fill:#c27389;}.cls-8{fill:#c2738a;}.cls-9{fill:#ef97da;}.cls-10{fill:#fa7e5e;}.cls-11{fill:#fefefe;}.cls-12{fill:#f8d168;}.cls-13{fill:#ea71a2;}.cls-14{fill:#b61543;}.cls-15{fill:#fdfdfd;}.cls-16{fill:#9d2660;}.cls-17{fill:#c26194;}.cls-18{fill:#fd7d5c;}.cls-19{fill:#fdfefe;}.cls-20{fill:#fefcfd;}.cls-21{fill:#b01c4c;}.cls-22{fill:#fcfcfd;}.cls-23{fill:#c0728a;}.cls-24{fill:#fdfdfe;}</style></defs><title>3</title><path class="cls-1" d="M197.91,110.56c9.19,0,18.38,0,27.57,0a6.5,6.5,0,0,1,5.87,3.05,6.63,6.63,0,0,1,1,3.65q.07,10.31.1,20.61a4.2,4.2,0,0,0,.36,1.73,7.17,7.17,0,0,1,.6,2.67c.16,8.35.27,16.7.12,25.05a14.27,14.27,0,0,1-14,13.89l-2,0a7.17,7.17,0,0,1-3.15.31c-1.23.05-2.46,0-3.68,0a9,9,0,0,1-1.37,0c-2,0-4,.06-6,0-3.41.06-6.82,0-10.23,0q-3.71,0-7.41,0c-2.08.08-3.94-.37-5.05-2.32a3.67,3.67,0,0,1-3.32,2.29c-11.08,0-22.16,0-33.23,0h-.45c-2.47,0-4.95,0-7.43,0a6.69,6.69,0,0,1-3.39-.54,1.26,1.26,0,0,0-1.15,0,6.37,6.37,0,0,1-3.05.48c-1.82,0-3.63,0-5.45,0-3.65.06-7.3,0-10.94,0-1.51,0-3,0-4.53,0-5.6-.12-11.2,0-16.8,0-1.76,0-3.52,0-5.28,0a4,4,0,0,1-4.28-3.65,1.42,1.42,0,0,0-1-1.23c-3-1.2-4.26-3.56-4.32-6.69,0-3.66,0-7.32,0-11,0-1.34,0-1.35-1.21-.76a15,15,0,0,1-2.57,1c-3.15.9-6.37.42-9.56.51-1.59,0-3.18,0-4.77,0s-3.44,0-5.16,0c-.36,0-.71,0-1.06,0-.72-.05-1.43,0-2.15,0-1.32,0-1.36.08-1.36,1.46s0,2.66,0,4c0,4.13.06,8.25,0,12.37-.14,2.55-2,4.25-4.24,3.95a6.66,6.66,0,0,0-1.89-.22q-5.16,0-10.32,0c-2.55,0-3.94-1.28-4.12-3.81,0-.5-.11-.79-.66-.94-3.11-.87-4.53-3.46-4.54-6.4q0-16.68,0-33.36,0-9.78,0-19.56a6.45,6.45,0,0,1,3.09-5.85,7,7,0,0,1,3.78-.93H57.64c.48,0,1,0,1.44,0a4.41,4.41,0,0,1,2.53-.35c1.06,0,2.13,0,3.19,0,3.63-.06,7.35-.5,10.89.11,3.86.66,7.6,0,11.39.06,12.75.1,25.5,0,38.25,0a14,14,0,0,1,3.1.25,3.57,3.57,0,0,0,1.89,0,14.36,14.36,0,0,1,4.28-.47h37.88a11,11,0,0,1,5.45,1.16,1.41,1.41,0,0,0,1.48,0,7.9,7.9,0,0,1,4.05-.88c2.84,0,5.67,0,8.51,0C194,110.37,196,110,197.91,110.56Z" transform="translate(-21.52 -24.7)"/><path class="cls-1" d="M218.64,54.64l13.41,0c1.85,0,1.6-.26,1.62,1.68,0,.88,0,1.76,0,2.64s-.29,1.05-1.09,1.05c-5.79,0-11.58,0-17.37,0a6.18,6.18,0,0,1-2.49.22c-2,0-2.15-.21-1.12,1.74.18.34.46.67.35,1.11q5.53,10,11.09,20c2.42,4.36,4.9,8.7,7.27,13.09a1.91,1.91,0,0,0,2.22,1.25c.9-.15,1.2.22,1.14,1.12a33.66,33.66,0,0,0,0,3.48c0,.66-.18.9-.88.9-5.35,0-10.71,0-16.06,0-.77,0-1-.4-1.32-.94q-7.52-13.5-15.05-27c-.23-.41-.47-.81-.79-1.35-2.19,4-4.33,7.76-6.43,11.6-1.28,2.34-2.71,4.6-3.81,7-.48,1.79-1.71,3.2-2.46,4.85-.13.29-.32.54-.46.83-.73,1.43-1.52,2.82-2.31,4.21a2,2,0,0,1-1.87,1.06c-5.16,0-10.32,0-15.48,0-1.22,0-1.46-.27-1.5-1.5,0-1.08,0-2.16,0-3.24,0-.92.39-1.48,1.35-1.41,1.2.08,1.78-.59,2.3-1.55q3.89-7.11,7.86-14.16c1.06-1.7,1.94-3.51,3-5.24q3.33-5.93,6.6-11.88c.5-1,1-1.88,1.55-2.83s.41-1.13-.63-1.13c-2.19,0-4.38-.05-6.58,0-4.22,0-8.45.05-12.67,0a5.85,5.85,0,0,1-.59,0c-2.16,0-2.78-1-1.84-3,.11-2.68.11-2.67,2.79-2.68l9.24,0a2.74,2.74,0,0,1,1.73-.3h9.35c1.94,0,2,0,2-1.91,0-5,0-9.91,0-14.86,0-2.27.17-2.42,2.48-2.43,4.39,0,8.79,0,13.18,0,1.9,0,2.15.24,2.15,2.14,0,5,0,10.07,0,15.1,0,1.88.07,1.94,2,1.95H217A2.63,2.63,0,0,1,218.64,54.64Z" transform="translate(-21.52 -24.7)"/><path class="cls-1" d="M28.59,103.24c-2,0-4,0-6,0-.68,0-.87-.17-.83-.87Q22.51,88.19,23.2,74c.37-7.58.71-15.17,1.12-22.76,0-.87-.3-1-1-1-1.69,0-1.69,0-1.69-1.72,0-.28,0-.56,0-.84.05-.79-.32-1.76.16-2.33s1.44-.18,2.18-.17.74-.37.76-.91c.13-2.71.31-5.43.41-8.14,0-.73.24-1,1-.94q6.06,0,12.11,0c.78,0,.93.26.88,1-.19,2.67-.29,5.35-.49,8-.07.82.21,1,1,1,4.72,0,9.44,0,14.16,0,.95,0,1.29.19,1.28,1.23C55,63,55,79.55,55,96.15a6.93,6.93,0,0,1-7.17,7.12c-3-.15-6.08,0-9.12,0-.77,0-1.07-.19-1-1,.06-1.12,0-2.24,0-3.36,0-.58.2-.73.76-.76,2.28-.12,2.76-.65,2.76-2.92V51.55c0-.67.17-1.46-1-1.29-.86.12-2-.54-2.09,1.22-.27,6.87-.65,13.74-1,20.6-.5,9.86-1,19.72-1.49,29.59-.05,1.27-.42,1.7-1.73,1.6C32.19,103.14,30.38,103.24,28.59,103.24Z" transform="translate(-21.52 -24.7)"/><path class="cls-1" d="M61.93,103.23c-1,0-2,0-3,0-.61,0-.9-.16-.82-.81a4,4,0,0,0,0-.6q0-31.48,0-63c0-1.16.27-1.45,1.43-1.45,9.6,0,19.2,0,28.79,0a2.49,2.49,0,0,1,1.3.12c.06,5.83.11,11.65,0,17.48-.06,2.36.58,4.63.56,7,0,1.72,0,3.43,0,5.15q0,14.22,0,28.43a10.69,10.69,0,0,1-.64,3.53,6.55,6.55,0,0,1-6.09,4.46q-7.86.09-15.72,0c-1.42.06-2.85,0-4.27,0A2.13,2.13,0,0,1,61.93,103.23Z" transform="translate(-21.52 -24.7)"/><path class="cls-2" d="M112.13,181.26l11,0c.15,1-.63,1.57-1,2.31s-.32.9.42,1.08a19.94,19.94,0,0,1,2.26.75,1,1,0,0,0,1.38-.53c.49-.86,1-1.74,1.49-2.58.25-.4.45-.86.94-1,1.19-.07,2.4,0,3.38-.88.29-.25.51,0,.73.14a3.74,3.74,0,0,0,2.57.71c2.74,0,5.48,0,8.22.07,0,.48-.34.69-.65.92-3.29,2.38-6.52,4.84-9.76,7.3-.26.19-.49.42-.85.37-1.09-1.21-2.4-2.21-3.56-3.35-.55-.54-.93-.6-1.46,0-3.58,4.34-7.19,8.65-10.8,13-.33.4-.59.87-1.18.94a2.15,2.15,0,0,1-1.27-.82c-1.43-1.56-3.14-2.82-4.59-4.35-.59-.63-.9-.55-1.29.2-1.64,3.19-2,2.2.7,4.89,1.19,1.21,2.7,2.11,3.62,3.6a7.84,7.84,0,0,1-1.87,2.58q-2.25,2.81-4.59,5.52c-1,1.13-1.11,1.14-2.34.23-1.8-1.33-3.54-2.74-5.31-4.1-1.2-.91-1.2-.91-1.8.41-1.13,2.5-1.15,2.52,1.06,4.18a72.84,72.84,0,0,1,7.11,6,2.12,2.12,0,0,1,.66.83c.17.51-.12.54-.5.42a93,93,0,0,1-12.45-2.82l-3.11-.85c-.09-.6.34-1,.64-1.36,3.28-4.39,6.5-8.81,9.81-13.17.82-1.09.81-1.08-.38-1.6C96.2,199,96.89,199,95,201.47c-3.23,4.22-6.31,8.55-9.54,12.77-.25.33-.37.83-.93.8-.22-.71-.93-.68-1.44-.88a87,87,0,0,1-20.35-11A63.84,63.84,0,0,1,55,196.54c-.29-.31-.52-.73-1-.74,0-.41.31-.53.58-.68,4.18-2.36,8.3-4.81,12.48-7.17a1.33,1.33,0,0,1,.33-.13c1.46.56,2.39,1.8,3.49,2.8,2.18,2,4.3,4,6.48,6,.64.59,1,.59,1.43-.2.16-.32.35-.62.52-.94,1-1.9,1-1.87-.71-3.31-2.08-1.8-4.07-3.69-6-5.61a1.59,1.59,0,0,1-.68-1.09,8,8,0,0,1,2.91-2c2.09-1.23,2.12-1.19,1-3.28-.46-.84-1-1.61-1.45-2.48s-1-.9-1.71-.44c-1.62,1-3.3,1.94-5,2.89a2.57,2.57,0,0,1-1.09.46c-1.32-.56-2.11-1.78-3.23-2.59a8.1,8.1,0,0,1-1-1c-.47-.51-.85-.55-1.15.15-.06.15,0,0,0,.11-1.62,3.14-2.06,2.14.76,5,.25.25.75.4.55.93-3.8,2.19-7.58,4.41-11.4,6.56-.38.22-.75.67-1.29.33A15.24,15.24,0,0,1,48,187.43c3.2-3.44,6.1-7.15,9.14-10.73,1.91-2.25,3.79-4.52,5.67-6.8a2.48,2.48,0,0,1,2.15-1c2.48,0,4.94.42,7.41.56.83.05,1.67.12,2.51.14.51,0,1.06-.05,1.44.42.1,3.05,1.44,5.66,4.6,6.47.53.14.63.47.67,1,.19,2.53,1.56,3.79,4.1,3.8h20.38c.48,0,1,0,1.43,0,.06.43-.22.51-.55.54-2.56-.12-5.11,0-7.67-.05a2.14,2.14,0,0,0-1.73.91c-4.19,5-8.41,10-12.59,15.08a4,4,0,0,1-1.59,1.42,61.42,61.42,0,0,1-6.88-.92c-4.86-.71-9.71-1.46-14.57-2.17-1.31-.19-1.35-.16-1.32,1.19,0,.16,0,.32,0,.48.13,2.07.19,2.15,2.25,2.46,7,1.08,14,2.1,21,3.17,1.88.29,1.88.27,2.12-1.49.36-.7.73-.19,1,0,1.81,1.24,1.79,1.23,3.24-.5,4.56-5.44,9.14-10.86,13.65-16.33.27-.33.48-.76,1-.81,2.53,1.87,5,3.78,7.58,5.67,1,.78,1.09.77,1.88-.28s1.52-2.05,2.31-3.06c.55-.72.52-1.24-.26-1.78-1.16-.78-2.26-1.65-3.37-2.51C112.65,182,112.14,181.85,112.13,181.26Z" transform="translate(-21.52 -24.7)"/><path class="cls-1" d="M93.73,53.11a32.31,32.31,0,0,1-.12-4.29c0-.64.41-.62.8-.56A5.06,5.06,0,0,0,98.14,47c5.51-3.76,11.06-7.46,16.59-11.2a3.11,3.11,0,0,1,2-.6,55.66,55.66,0,0,0,9.3-.57,26.43,26.43,0,0,1,7.05.23,21.38,21.38,0,0,0,4.65.33,5.07,5.07,0,0,1,3.31,1c5.35,3.65,10.74,7.22,16.09,10.87a4.6,4.6,0,0,0,3.51,1.13c.66-.11.92.14.9.84-.06,1.32,0,2.64,0,4-.49.46-1.11.35-1.7.36-2.34,0-4.69,0-7,0-.47,0-1-.07-1.29.41-.49,2-.49,2-2.63,2H106.48c-2.13,0-2.13,0-2.62-2-.33-.48-.83-.41-1.31-.4-1.55,0-3.11,0-4.66,0A20.72,20.72,0,0,1,93.73,53.11Z" transform="translate(-21.52 -24.7)"/><path class="cls-3" d="M218.64,54.64c-3.2,0-6.39,0-9.59.07-.9,0-.92-.46-.92-1.12,0-5.6,0-11.19,0-16.78,0-1.06-.26-1.33-1.32-1.32q-7.25.09-14.5,0c-1,0-1.35.18-1.34,1.28.07,5.59,0,11.19.05,16.78,0,.86-.17,1.17-1.11,1.16-4.11-.07-8.22-.06-12.33-.08a21.31,21.31,0,0,1,5.18-24C195,19.2,215.65,25.09,219.7,41.26A21.19,21.19,0,0,1,218.64,54.64Z" transform="translate(-21.52 -24.7)"/><path class="cls-2" d="M141.34,221.77a55.49,55.49,0,0,0-6.32.3,132.77,132.77,0,0,1-18.39-.35,1.86,1.86,0,0,1-1.45-.39c-1.6-1.25-3.2-2.51-4.82-3.74-.69-.52-.71-1-.14-1.7q2.85-3.39,5.66-6.8a1.52,1.52,0,0,1,1.18-.72c.56.08.88.51,1.26.86,2,1.91,4,3.84,6.12,5.7.63.57,1,.5,1.36-.21.16-.32.35-.62.52-.94,1-1.95,1-1.95-.75-3.38s-3.27-3.16-5-4.62a1.59,1.59,0,0,1-.7-1.07,4.51,4.51,0,0,1,1.22-1.87c1-1.25,2.07-2.43,3-3.69.23-.31.42-.7.89-.73a1.29,1.29,0,0,1,.49.33c.63.72,1.2.6,1.94.05q8.71-6.53,17.44-13.05l1-.7c.91-.66.92-.86,0-1.59-.46-.38-.93-.76-1.35-1.18-.26-.27-.67-.57-.09-.95,2.94,0,5.87,0,8.81,0,.85.1.62.73.5,1.18-.17.69.1,1,.68,1.31,3.06,1.63,6.13,3.23,9.2,4.86.66.34,1.67.44,1.71,1.53a3,3,0,0,1-1.54.61c-7,1.69-13.9,3.56-20.86,5.28-1.6.4-1.56.4-1.22,2,.27,1.24.88,2.41.69,3.72-.43.4-.9.18-1.35.05-1.42-.4-2.85-.76-4.24-1.25-.68-.25-1-.06-1.22.64-.39,1.34-.71,2.7-1.17,4-.31.88-.1,1.3.81,1.56,3.56,1,7.12,2.06,10.66,3.14a4.89,4.89,0,0,1,2.2.86c.2.44-.09.77-.28,1.1-1.79,3-3.61,6-5.43,9C142.16,221.35,142,221.87,141.34,221.77Z" transform="translate(-21.52 -24.7)"/><path class="cls-2" d="M201.15,197.07a64.28,64.28,0,0,1-13.86,10.58,84.48,84.48,0,0,1-12.81,6.2.73.73,0,0,1-.19-.66c.09-1.45.09-1.46-1.32-1.89-4.68-1.42-9.38-2.77-14.07-4.14a11.09,11.09,0,0,1-2.36-.85c-.41-.43-.12-.83.11-1.18.54-.83.22-1.23-.64-1.42a6,6,0,0,1-.68-.22c-1.81-.6-1.81-.6-3,.87a1.1,1.1,0,0,1-.77.52c-2-.38-4-1.1-6-1.66-.33-.1-.69-.24-.74-.68.25-.66.89-.63,1.4-.76,4.57-1.16,9.15-2.29,13.73-3.44,4.77-1.2,9.54-2.4,14.28-3.71a.6.6,0,0,1,.67,0c.8.63,1.33.26,1.79-.45a27.46,27.46,0,0,1,3.78-1c1.56-.42,1.57-.41,1.19-1.92-.3-1.19-.7-2.36-.94-3.57-.17-.9-.64-1-1.46-.84-2.24.56-4.45,1.23-6.7,1.73a12.13,12.13,0,0,1-3.66-1.67c-2.86-1.49-5.7-3-8.57-4.5a2.07,2.07,0,0,1-1-.68c-.21-.34,0-.39.31-.4H170a65.28,65.28,0,0,1,7.42,2.61c1.51.52,3,1.09,4.48,1.67,1.19.47,1.26.43,1.74-.78a1.89,1.89,0,0,1,.59-1c.54-.2.91.15,1.28.43,3.33,2.52,6.71,5,10,7.48.34.26,1.17.44.59,1.21a47.62,47.62,0,0,1-6.5,1.07c-3.75.58-7.52,1.07-11.28,1.63-1.26.19-1.33.3-.87,1.45,1.15,2.9.78,2.53,3.57,2.15,6.17-.87,12.35-1.77,18.53-2.63C200.13,196.52,200.85,196.15,201.15,197.07Z" transform="translate(-21.52 -24.7)"/><path class="cls-4" d="M125.05,198.49c-1.65,2.12-3.53,4-5.07,6.26-.71,1.45-2,2.5-2.87,3.81a1,1,0,0,0-.8.45c-2,2.43-4,4.87-6.1,7.29a.54.54,0,0,0,.09.9c1.78,1.39,3.56,2.77,5.36,4.13a3.46,3.46,0,0,0,1,.39l-.1.19c1.38.73.77,1.67.34,2.65-1.15,2.66-1.14,2.67-3.38.95-1.39-1.07-2.85-2.06-4.14-3.24a11,11,0,0,0-4.52-2.15c.91-.36,0-.63-.1-.76a65.77,65.77,0,0,0-7.23-6.21c-.32-.24-.61-.51-.92-.76-1.59-1.28-1.59-1.28-.72-3.08.16-.32.34-.63.48-1,.64-1.5.64-1.51,1.89-.54,1.86,1.44,3.71,2.87,5.54,4.33.73.58,1.18.86,2-.14,2.1-2.74,4.38-5.34,6.6-8a10.36,10.36,0,0,1,2.89-3.61,67.7,67.7,0,0,0,4.56-5.32c2.54-3,5-6.05,7.55-9.06.24-.3.52-.67,1-.24,1.24,1.17,2.5,2.34,3.73,3.52a1.36,1.36,0,0,1,.21.54c.15.48-.23.73-.47,1-1.84,2.3-3.75,4.53-5.65,6.79C125.84,198,125.64,198.51,125.05,198.49Z" transform="translate(-21.52 -24.7)"/><path class="cls-5" d="M64.55,169.14a1.67,1.67,0,0,0-1.3.66c-4.72,5.69-9.48,11.34-14.23,17-.28.32-.49.76-1,.62a30.43,30.43,0,0,0-3.73-3.27c-.88-.69-1.48-1.23-.32-2.16.2-.16,0-.35-.07-.52,2.1-.41,3.7-1.35,4-3.7a2.45,2.45,0,0,1,.73-1.82c2.13-2.54,4.24-5.1,6.4-7.61,1.2-1.52,2.52-2.93,3.66-4.5,1.44-1.39,2.44-3.17,4-4.44,1.44,0,2.87-.08,4.3,0a25,25,0,0,0,5.32-.5c.15.61-.3,1-.62,1.34-2.17,2.59-4.31,5.2-6.52,7.75A2.55,2.55,0,0,0,64.55,169.14Z" transform="translate(-21.52 -24.7)"/><path class="cls-6" d="M196.34,192.71l-12-8.9a2.82,2.82,0,0,1,.91-2.54h7.67a5,5,0,0,1,1.35.75c3.7,2.75,7.34,5.58,11.1,8.26a2.71,2.71,0,0,1,1.05,1.22c3.33,2.47,6.65,4.95,10,7.4.56.4.61.68.19,1.22-1.08,1.38-2.15,2.78-3.14,4.22-.44.62-.71.62-1.29.18-3.43-2.6-6.9-5.16-10.35-7.73,0-.52.46-.51.77-.56.93-.14.95-.61.62-1.34-1.46-3.22-.66-2.64-3.89-2.31C198.35,192.67,197.36,193.18,196.34,192.71Z" transform="translate(-21.52 -24.7)"/><path class="cls-6" d="M67.46,187.92c-2.46,1.68-5.13,3-7.69,4.55-1.91,1.13-3.85,2.22-5.78,3.33-3.79,2.19-7.6,4.36-11.36,6.59-.75.45-1,.32-1.42-.4-.78-1.48-1.63-2.93-2.52-4.34-.44-.7-.27-1,.4-1.36,3.19-1.8,6.35-3.64,9.52-5.48.37-.22.72-.48,1.08-.72,2.93-1.44,5.63-3.29,8.51-4.79,1.4-.73,2.59-1.87,4.2-2.19a1.08,1.08,0,0,1,.84.37c1.31,1.19,2.47,2.54,3.87,3.62A.75.75,0,0,1,67.46,187.92Z" transform="translate(-21.52 -24.7)"/><path class="cls-7" d="M151,53.2a33.65,33.65,0,0,1,5.12-.11c1.79,0,3.59,0,5.38,0l4.06,4.32a1.94,1.94,0,0,1,0,.24c.05,2.32.05,2.32,2.39,2.46a28,28,0,0,1,3.77,4.43c2.73,3.47,5.32,7,7.72,10.75a2.91,2.91,0,0,1,.48,1.08l-2.83,5c-.89-.36-1.25-1.21-1.72-1.93q-3.74-5.65-7.9-11a140.4,140.4,0,0,0-12.35-14,2.85,2.85,0,0,0-2.13-.85C152.36,53.54,151.58,53.88,151,53.2Z" transform="translate(-21.52 -24.7)"/><path class="cls-5" d="M156.49,206.13l13.64,4c1.23.36,2.43.78,3.67,1.07.9.21,1.38.51.93,1.51a5.43,5.43,0,0,0-.25,1.16,17.87,17.87,0,0,0-1.13,3.5c-.22.77-.58.91-1.3.68-1.36-.45-2.74-.81-4.1-1.23a2.78,2.78,0,0,0-1.4-.11c-4.17-1.18-8.32-2.45-12.48-3.66a2.67,2.67,0,0,1-1.2-.51.93.93,0,0,1,0-1.11c.92-1.61,1.89-3.2,2.87-4.79C155.91,206.37,156.09,206.06,156.49,206.13Z" transform="translate(-21.52 -24.7)"/><path class="cls-4" d="M196.34,192.71c1.73-.24,3.47-.45,5.19-.74.67-.12.93.13,1.13.7a23.34,23.34,0,0,0,1,2.54c.39.76.29,1.12-.62,1.25-.4,0-.9-.07-1.23.32l-.7.29a.91.91,0,0,0-1-.25c-4.12.59-8.23,1.21-12.35,1.81-2.94.44-5.88.86-8.82,1.28a.79.79,0,0,1-1-.58c-.35-1-.8-2-1.21-3-.26-.61,0-.89.61-1l14.13-1.94C193.13,193.2,194.73,193,196.34,192.71Z" transform="translate(-21.52 -24.7)"/><path class="cls-4" d="M156.49,206.13a33,33,0,0,0-3.61,6.26c-1.41,2.67-3.07,5.19-4.61,7.79-.16.28-.46.43-.66.67-.93,1.52-1.92,3-2.76,4.58a1.08,1.08,0,0,1-1.59.61,25.89,25.89,0,0,0-2.71-.87c-.68-.16-.72-.42-.42-1a6.76,6.76,0,0,0,1.21-2.41c1.39-1.46,2.15-3.32,3.21-5,1.22-1.91,2.36-3.88,3.53-5.83,0-.11-.1-.24,0-.34a35,35,0,0,1,3.64-5.89c.15-.19.31-.36.44-.56,1.15-1.68,1.15-1.68,3.06-1C157.47,203.88,157.47,203.88,156.49,206.13Z" transform="translate(-21.52 -24.7)"/><path class="cls-6" d="M84.5,215q5.66-7.6,11.32-15.23c.52-.71,1-1,1.87-.53a14.37,14.37,0,0,0,2.32,1c.71.26,1,.46.39,1.26-3.47,4.56-6.87,9.18-10.29,13.78-.29.38-.56.77-.84,1.16-1.1,1.46-2.22,2.9-3.29,4.38-.41.56-.76.83-1.45.44a28.53,28.53,0,0,1-3.4-1.61c.71-1,1.42-2,2.14-3C83.67,216.11,84.09,215.58,84.5,215Z" transform="translate(-21.52 -24.7)"/><path class="cls-8" d="M186.29,97.67c1-1.76,1.87-3.64,3.06-5.32,1.94,2.9,3.08,6.19,4.69,9.26a75,75,0,0,1,3.3,7.91,9.64,9.64,0,0,0,.57,1l-5.9,0c-1.13-2.07-1.89-4.3-2.87-6.44-.76-1.67-1.58-3.31-2.39-5A3.21,3.21,0,0,1,186.29,97.67Z" transform="translate(-21.52 -24.7)"/><path class="cls-2" d="M206.44,191.49,193.75,182c-.29-.21-.54-.47-.81-.7H203.3a1.51,1.51,0,0,0,1.16,1.51c2.3.9,2.29.94,4-1a2.11,2.11,0,0,1,.78-.54h1.25c.36.25,1.05-.1,1.14.63a40.24,40.24,0,0,1-4.66,8.45C206.73,190.69,206.35,191,206.44,191.49Z" transform="translate(-21.52 -24.7)"/><path class="cls-2" d="M147.61,220.85q2.35-4,4.73-8a2.43,2.43,0,0,1,.54-.46L166,216.22c.28.08.55.1.58.47A117.88,117.88,0,0,1,147.61,220.85Z" transform="translate(-21.52 -24.7)"/><path class="cls-8" d="M93.73,53.11c3.54,0,7.08-.16,10.61.09a.42.42,0,0,1-.45.32c-1.33-.14-2.09.72-2.92,1.55A133.79,133.79,0,0,0,90.84,66.48c-.28.35-.48.87-1.1.72-.15-9.89-.3-19.77-.13-29.66a2.62,2.62,0,0,1,.1,1.3c0,6.67,0,13.35,0,20.3l5.09-5.66C94.45,53.06,94,53.38,93.73,53.11Z" transform="translate(-21.52 -24.7)"/><path class="cls-8" d="M61.93,103.23h5.74c.24.25.15.52,0,.78-.9,2-1.72,4-2.62,6a1.16,1.16,0,0,1-.3.36H59.08Z" transform="translate(-21.52 -24.7)"/><path class="cls-9" d="M211.64,181.89l-1.14-.63h6.92c-.53.68-.36,2-1.22,2.16-.69.14-1.52-.53-2.31-.78A10.62,10.62,0,0,0,211.64,181.89Z" transform="translate(-21.52 -24.7)"/><path class="cls-10" d="M212,63.16l-1.78-3.07h5A18.23,18.23,0,0,1,212,63.16Z" transform="translate(-21.52 -24.7)"/><path class="cls-11" d="M64.79,110.37a44,44,0,0,1,2.37-5.94c.16-.4.34-.8.51-1.2l15.1,0a6.51,6.51,0,0,0,6.82-6.15,15.74,15.74,0,0,0,.08-1.68q0-13.25,0-26.49c0-.56,0-1.12.06-1.68,1.8-2.12,3.57-4.27,5.4-6.37,2.18-2.49,4.44-4.89,6.81-7.2.72-.7,1.6-.26,2.39-.43.21,2.25.21,2.25,2.53,2.25h42.34c1.71,0,1.7,0,1.74-1.66a5.93,5.93,0,0,1,.07-.59c2.59-.45,4.35.74,6.06,2.6A191.43,191.43,0,0,1,170,71.18c2.46,3.34,4.71,6.82,7.16,10.17-2.87,5.2-5.76,10.4-8.61,15.62-.43.79-1.11.54-1.68.5-1-.09-1.32.27-1.25,1.26a28.8,28.8,0,0,1,0,3.35c0,.65.13.91.85.91q8.09,0,16.19,0a1.1,1.1,0,0,0,1.09-.71c.84-1.55,1.71-3.07,2.56-4.61a109.14,109.14,0,0,1,5.65,12.17,2.32,2.32,0,0,1,.07.7l-8.52,0a6.55,6.55,0,0,0-4.39,1.25.72.72,0,0,1-1,0,6.54,6.54,0,0,0-4.38-1.3q-20.34,0-40.68,0a1.45,1.45,0,0,0-.36,0c-4.7.94-9.42,0-14.14.12-11.59.17-23.19.07-34.79,0-1.39,0-2.69.61-4,.62s-2.53-.83-3.9-.84Z" transform="translate(-21.52 -24.7)"/><path class="cls-12" d="M184,144.06c-2.4-.1-2.47-.18-2.47-2.54v-24c0-1.57.34-1.93,1.87-1.93h42.1c1.46,0,1.81.37,1.81,1.86,0,4.44-.06,8.88,0,13.31a13.08,13.08,0,0,1-3.72,9.8,4.78,4.78,0,0,0-.35.52c1.29,0,2.43,0,3.57,0s1.6.47,1.59,1.5c0,6,.2,12.07-.1,18.1a11.57,11.57,0,0,1-11.52,11.09c-11.59.09-23.19,0-34.78,0-1.1,0-1.58-.55-1.58-1.63,0-6,0-12,0-18C180.43,149.25,181.1,147.83,184,144.06Z" transform="translate(-21.52 -24.7)"/><path class="cls-12" d="M27.37,143.54q0-13.08,0-26.16c0-1.61.33-1.93,2-1.93H75.53c1.59,0,1.94.35,1.94,2q0,10.18,0,20.39A11.81,11.81,0,0,1,65.34,150c-7.12,0-14.24,0-21.36,0-1.1,0-1.3.33-1.29,1.34.05,6.24,0,12.48,0,18.72,0,1.46-.37,1.85-1.82,1.85H29.13c-1.37,0-1.76-.4-1.76-1.78Q27.35,156.79,27.37,143.54Z" transform="translate(-21.52 -24.7)"/><path class="cls-12" d="M153.36,171.83H133c-1.57,0-1.92-.35-1.92-1.88V142.24c0-1.46.38-1.83,1.84-1.83h21.36c3.46,0,5.71-1.85,5.87-5.28.2-4.23.08-8.47.13-12.71,0-.79-.42-.8-1-.79-2.27,0-4.55,0-6.83,0H133.11c-1.78,0-2.06-.28-2.06-2.1,0-.84,0-1.68,0-2.52a1.35,1.35,0,0,1,1.56-1.52h40.91c1.79,0,2.12.33,2.12,2.06,0,5.72.06,11.44,0,17.16-.07,4.76-2,8.5-6.47,10.63a12.18,12.18,0,0,1-5.36,1.09c-5.4,0-10.8,0-16.2,0-1,0-1.18.29-1.18,1.21,0,5.68.05,11.36,0,17,0,1,.27,1.19,1.21,1.19,8.6,0,17.19,0,25.79,0,2,0,2.23.2,2.23,2.29v1.8c0,1.54-.36,1.92-1.88,1.92Z" transform="translate(-21.52 -24.7)"/><path class="cls-12" d="M81.37,143.71v-26c0-1.69.3-2,2-2h42.84c1.77,0,2,.22,2,2V120c0,1.45-.31,1.74-1.78,1.74H98.26c-1.77,0-1.54-.21-1.54,1.51,0,13.72,0,27.44,0,41.15,0,1.06.21,1.42,1.36,1.41,9.39,0,18.79,0,28.19,0,1.78,0,2,.22,2,2v2c0,1.69-.31,2-2.06,2H83.47c-1.8,0-2.1-.3-2.1-2.05Z" transform="translate(-21.52 -24.7)"/><path class="cls-11" d="M101.84,145.9c0-4.52,0-9,0-13.56,0-.9.24-1.13,1.14-1.13,8.72,0,17.44,0,26.16,0a3.8,3.8,0,0,0,2.89-.88c.23-.24.41-.3.69-.06a4.2,4.2,0,0,0,2.94.77c6.12,0,12.23,0,18.35,0,1,0,1.26.29,1.25,1.27-.05,3.07,0,3.08-3.1,3.08-6.44,0-12.88,0-19.32,0a6.41,6.41,0,0,0-5.86,3.08,7.12,7.12,0,0,0-.94,3.77c0,5.76,0,11.52,0,17.28,0,1-.27,1.25-1.26,1.25q-10.8-.07-21.6,0c-1.16,0-1.37-.37-1.36-1.42C101.87,154.86,101.84,150.38,101.84,145.9Z" transform="translate(-21.52 -24.7)"/><path class="cls-11" d="M175.37,153.08c0,2.55,0,4.85,0,7.15,0,.49-.22.57-.66.57q-11.15,0-22.28,0c-.64,0-.83-.21-.81-.82a27.11,27.11,0,0,0,0-3c-.07-.86.25-1.07,1.07-1.06,3.16,0,6.31,0,9.46,0C166.73,156,171.28,156.09,175.37,153.08Z" transform="translate(-21.52 -24.7)"/><path class="cls-6" d="M125.05,198.49l7.19-8.65,10.34-7.79c.32-.24.62-.5.92-.74h.28c.23,0,.35.19.47.37.78.67,1.55,1.36,2.36,2,.61.49.52.84-.08,1.28l-16,11.87-3,2.21C126.24,200,126,200,125.05,198.49Z" transform="translate(-21.52 -24.7)"/><path class="cls-11" d="M64.55,169.14c-.72-.48,0-.84.18-1.1,1.39-1.72,2.86-3.38,4.27-5.09a47.19,47.19,0,0,0,3.27-4.06,16,16,0,0,0,4-2V170C72.37,169.93,68.46,169.49,64.55,169.14Z" transform="translate(-21.52 -24.7)"/><path class="cls-6" d="M112.13,181.26c1.65,1.25,3.27,2.53,5,3.73.54.38.54.7.2,1.16-1.11,1.5-2.23,3-3.33,4.5-.23.3-.44.43-.78.16-2.75-2.08-5.6-4-8.24-6.26-.05,0,0-.15-.06-.23a4.65,4.65,0,0,1,2.18-2.63l.43-.43Z" transform="translate(-21.52 -24.7)"/><path class="cls-2" d="M55.18,168.47c-2.15,2.6-4.29,5.22-6.47,7.79a3.65,3.65,0,0,0-.85,1.52c-.07-4.21-.14-8.42,0-12.62.55-.15,1,.19,1.45.37,1.66.64,3.4,1,5.08,1.57A1.82,1.82,0,0,1,55.18,168.47Z" transform="translate(-21.52 -24.7)"/><path class="cls-13" d="M185.27,181.27c-.31.84-.61,1.69-.91,2.54-.49.81-.37,2.2-1.22,2.47-.69.21-1.68-.51-2.53-.83L171,181.84a3.17,3.17,0,0,1-.59-.39,44.8,44.8,0,0,1,5.18-.13,7.88,7.88,0,0,0,2-.09,4.31,4.31,0,0,0,3.07-2.5A4.4,4.4,0,0,0,185.27,181.27Z" transform="translate(-21.52 -24.7)"/><path class="cls-8" d="M55.18,168.47c-.54-.22-.43-.82-.7-1.19-.13-.14-.32-.25-.39-.44A52.57,52.57,0,0,1,52.33,160a.61.61,0,0,1,.2-.54l5.28,0a7.83,7.83,0,0,1,1,4.49A32.31,32.31,0,0,1,55.18,168.47Z" transform="translate(-21.52 -24.7)"/><path class="cls-14" d="M52.53,159.42l1.95,7.86a24.29,24.29,0,0,1-6.59-2.12,27.91,27.91,0,0,1,0-4.19c.46-1,1.49-1,2.33-1.35.44-.16.93-.09,1.38-.21Z" transform="translate(-21.52 -24.7)"/><path class="cls-5" d="M128.6,181.27c-.8,1.38-1.64,2.74-2.4,4.13-.3.55-.61.61-1.16.4a13.65,13.65,0,0,0-2.61-.83c-1.25-.21-1.11-.72-.55-1.53s.85-1.44,1.27-2.16Z" transform="translate(-21.52 -24.7)"/><path class="cls-15" d="M58.85,163.89a38,38,0,0,1-1-4.49h4.84A25,25,0,0,1,58.85,163.89Z" transform="translate(-21.52 -24.7)"/><path class="cls-16" d="M209.25,181.26c-.48.64-1,1.25-1.42,1.92a1.25,1.25,0,0,1-1.87.56,14.19,14.19,0,0,0-2.08-.9c-.9-.3-1.23-.74-.58-1.58Z" transform="translate(-21.52 -24.7)"/><path class="cls-2" d="M177.59,181.23c-.9.45-1.86.17-2.79.2-1.46,0-2.92,0-4.39,0h-11a1.7,1.7,0,0,1-1.44.36c-1.43-.12-2.9.36-4.27-.34l-8.63,0c-.28,0-.57,0-.77.23l-.47-.37c3.91,0,7.83-.07,11.74-.07Z" transform="translate(-21.52 -24.7)"/><path class="cls-17" d="M51.58,159.41A14.75,14.75,0,0,0,47.87,161c-.17-1.6-.16-1.61,1.35-1.6C50,159.37,50.79,159.39,51.58,159.41Z" transform="translate(-21.52 -24.7)"/><path class="cls-11" d="M180,76.33c-1.77-2.51-3.48-5.06-5.31-7.52-2.05-2.75-4.22-5.41-6.32-8.12a3.38,3.38,0,0,1-.34-.62l13,0a2.09,2.09,0,0,1,.88.58,20.06,20.06,0,0,0,4,3.34,1.05,1.05,0,0,1,.53.62Z" transform="translate(-21.52 -24.7)"/><path class="cls-18" d="M186.44,64.63A19.91,19.91,0,0,1,181,60.09c2.39,0,4.78,0,7.17-.06.69,0,.75.22.44.76C187.89,62.06,187.17,63.35,186.44,64.63Z" transform="translate(-21.52 -24.7)"/><path class="cls-11" d="M70.94,43a32,32,0,0,1,5.36-.15c.35,0,.49.19.48.52,0,.12,0,.24,0,.36l0,32.86a16,16,0,0,1-2.12,3.87l-2.44,4c-.26.43-.48,1-1.28,1C70.94,71.3,70.9,57.17,70.94,43Z" transform="translate(-21.52 -24.7)"/><path class="cls-8" d="M70.94,43c0,.48,0,1,0,1.43Q71,64.24,71,84v1.27c2.12-2.81,3.73-5.86,5.76-8.63V86.4c-.66,1.88-1.92,3.45-2.77,5.24-.59,1.25-1.31,2.44-2,3.63-.22.37-.38.81-.92.82,0-.16,0-.32,0-.47-.24-17.3-.16-34.59-.16-51.88A5.36,5.36,0,0,1,70.94,43Z" transform="translate(-21.52 -24.7)"/><path class="cls-11" d="M71.05,96.09a44.69,44.69,0,0,0,2.89-5,40.22,40.22,0,0,1,2.82-4.67c0,3,0,6.08,0,9.11a2,2,0,0,1-2.24,2.2c-.68,0-1.36,0-2,0C70.87,97.72,70.87,97.72,71.05,96.09Z" transform="translate(-21.52 -24.7)"/><path class="cls-4" d="M107.05,181.69l-2.18,2.63-10.7,12.76c-1.65,2-3.33,3.93-4.94,5.94-.46.58-.75.52-1.23.08s-1.22-1-1.84-1.5c-1.22-.32-2.62-1.71-2.65-2.61l7.94-9.52q2.82-3.39,5.62-6.79a2.81,2.81,0,0,1,2.51-1.27c2.07.11,4.16,0,6.23,0C106.23,181.45,106.7,181.29,107.05,181.69Z" transform="translate(-21.52 -24.7)"/><path class="cls-4" d="M67.46,187.92q-2.52-2.41-5.06-4.81a25.66,25.66,0,0,0-2.1-1.94,1.56,1.56,0,0,1-.37-2.49,12.83,12.83,0,0,0,1.16-2.08c.3-.66.55-.59,1-.15,1.44,1.37,2.92,2.69,4.38,4a17.27,17.27,0,0,1,3.26,2.76A26.9,26.9,0,0,1,72,185.52a59.2,59.2,0,0,0,6.36,6.11c2.21,2,2.34,1.83,1,4.41-.91,1.72-1,1.78-2.39.58-1.64-1.37-3.19-2.87-4.77-4.32Z" transform="translate(-21.52 -24.7)"/><path class="cls-5" d="M83.51,199c.53,1.23,1.82,1.69,2.65,2.61-.18.78.52,1.89-.17,2.28s-1.61,0-2.43-.17L61.5,200.39c-.62-.09-1-.28-1.07-1-.17-1.07-.08-2.16-.29-3.21-.12-.59,0-.7.61-.61,1.93.29,3.86.53,5.79.82,4.6.69,9.19,1.4,13.79,2.1C81.39,198.64,82.45,198.82,83.51,199Z" transform="translate(-21.52 -24.7)"/><path class="cls-6" d="M72,185.52a51.53,51.53,0,0,1-5.51-5c2.14-1.23,4.29-2.44,6.41-3.7.73-.44,1.07-.29,1.46.44.74,1.41,1.57,2.77,2.39,4.13.41.67.53,1.09-.36,1.55C74.87,183.67,73.46,184.64,72,185.52Z" transform="translate(-21.52 -24.7)"/><path class="cls-5" d="M115.21,200.4a31.3,31.3,0,0,1-2.89,3.61c-1.84-1.72-3.67-3.44-5.52-5.14a.84.84,0,0,1-.19-1.24c.52-.89,1-1.79,1.49-2.73.33-.68.57-.66,1.1-.16C111.18,196.65,113.2,198.52,115.21,200.4Z" transform="translate(-21.52 -24.7)"/><path class="cls-11" d="M116.58,49.9c3.67-2.53,7.12-4.89,10.55-7.27a.67.67,0,0,1,.87,0l10.56,7.23Z" transform="translate(-21.52 -24.7)"/><path class="cls-6" d="M174.45,194.68c-.07.67-.68.49-1,.58q-13.51,3.44-27,6.83c-.49.13-1,.1-1.44.49a2.23,2.23,0,0,1-2.65-.73c-.39-1.55-.76-3.09-1.17-4.63-.18-.69-.11-1,.73-1.22,7.5-1.85,15-3.77,22.48-5.67.35-.09.69-.2,1-.3s.7,0,1,.12c2.46,1.2,4.84,2.58,7.3,3.8A1.31,1.31,0,0,1,174.45,194.68Z" transform="translate(-21.52 -24.7)"/><path class="cls-5" d="M174.45,194.68,165.38,190c-3.62-1.95-7.21-3.94-10.88-5.81-1.06-.54-1.45-1.07-.93-2.16a2.21,2.21,0,0,0,.08-.59l5.71,0c1.5.82,3,1.64,4.51,2.44l8.68,4.51a19.45,19.45,0,0,1,4.62,2.15.87.87,0,0,1,.44.92,5.3,5.3,0,0,1-.94,2.91C176.25,195.72,176.25,195.72,174.45,194.68Z" transform="translate(-21.52 -24.7)"/><path class="cls-5" d="M142.31,201.85a8.24,8.24,0,0,0,2.65.73c2.17,1,4.51,1.33,6.72,2.14-1,2.18-2.46,4.12-3.6,6.23-4.35-1.28-8.68-2.58-13-3.82-1-.29-1.47-.58-1-1.75a35.73,35.73,0,0,0,1.32-4.46c.22-.85.63-.9,1.35-.68C138.56,200.8,140.44,201.31,142.31,201.85Z" transform="translate(-21.52 -24.7)"/><path class="cls-5" d="M117.11,208.56c-.1-.67.45-1,.78-1.4a15.52,15.52,0,0,1,2.09-2.41c2.27,2.13,4.52,4.29,6.81,6.39.66.6.92,1.06.28,1.87a11,11,0,0,0-1.29,2.29c-.35.76-.64.69-1.2.17C122.12,213.14,119.61,210.86,117.11,208.56Z" transform="translate(-21.52 -24.7)"/><path class="cls-6" d="M176.67,194.38c.11-1.13,1.08-2.39.54-3.28s-1.9-1.17-2.89-1.72l-1.77-1c2.45-.93,5-1.35,7.54-2.07.57-.17.72.21.82.6.47,1.77.89,3.54,1.37,5.3.15.55,0,.83-.52,1Z" transform="translate(-21.52 -24.7)"/><path class="cls-1" d="M127.73,73c10,0,20,0,30,0,1.27,0,1.59.37,1.47,1.54a16.18,16.18,0,0,0,0,2.87c.08.93-.25,1.13-1.13,1.12q-9.72,0-19.44,0c-.43,0-1.14-.29-1.25.29a4.66,4.66,0,0,0,.07,2.59c.14.37.73.16,1.12.16,6.4,0,12.8,0,19.2,0,1,0,1.47.17,1.33,1.29a14.14,14.14,0,0,0,0,2.76c.1,1.06-.21,1.43-1.35,1.41-6.32-.06-12.64,0-19,0-.48,0-1.22-.29-1.39.29a4.64,4.64,0,0,0,0,2.13c.09.48.68.28,1.05.28h14.64c2.56,0,5.12,0,7.68,0,.78,0,1.05.21,1,1a24.87,24.87,0,0,0,0,3.23c.07.94-.22,1.21-1.18,1.21-7.28,0-14.56,0-21.84,0-1.13,0-1.48.24-1.48,1.43a6.71,6.71,0,0,1-6.77,6.9c-5.68,0-11.36,0-17,0-.63,0-.95-.09-.92-.83.06-1.28,0-2.56,0-3.84,0-.72.25-.87.9-.85,1.56,0,3.12,0,4.68,0a2,2,0,0,0,1.77-.82,1.82,1.82,0,0,0,.3-1.71c-.21-.57-.84-.28-1.27-.28q-12.06,0-24.12,0c-.91,0-1.3-.18-1.21-1.17a13.77,13.77,0,0,0,0-2.87c-.15-1.23.36-1.41,1.46-1.41,8,0,16,0,24,0,.39,0,1,.27,1.13-.3a5.63,5.63,0,0,0-.06-2.24c-.07-.33-.72-.16-1.11-.16-7.12,0-14.24,0-21.36,0-1.08,0-1.51-.24-1.39-1.38a15.29,15.29,0,0,0,0-2.87c-.08-.94.22-1.22,1.18-1.21,7.12,0,14.24,0,21.36,0,.47,0,1.24.32,1.37-.29a6.7,6.7,0,0,0,0-2.6c-.06-.35-.72-.16-1.1-.16-7.2,0-14.4,0-21.6,0-1,0-1.37-.17-1.27-1.22a19.12,19.12,0,0,0,0-3.12c-.09-1,.3-1.18,1.21-1.18Q112.55,73,127.73,73Z" transform="translate(-21.52 -24.7)"/><path class="cls-1" d="M127.7,57.12c8.88,0,17.75,0,26.62,0,1,0,1.22.25,1.19,1.19-.08,2,0,4.08,0,6.11a6.74,6.74,0,0,1-6.89,6.93c-15.9,0-31.81,0-47.71,0-.79,0-1-.22-1-1q.06-6.12,0-12.23c0-.9.33-1,1.11-1Q114.34,57.14,127.7,57.12Z" transform="translate(-21.52 -24.7)"/><path class="cls-1" d="M213.61,154.21c0,2.43,0,4.87,0,7.31s-1.2,4-3.8,4.12c-4.62.16-9.26.09-13.89.13-.56,0-.78-.21-.78-.78,0-5.11,0-10.23.05-15.34,0-2.28,1.62-3.8,4.22-3.88,4.51-.14,9-.05,13.54-.08.78,0,.66.5.66,1Q213.62,150.43,213.61,154.21Z" transform="translate(-21.52 -24.7)"/><path class="cls-1" d="M196.27,130.64c0-2.68,0-5.35,0-8,0-.72.18-1,.93-1q7.19,0,14.38,0c.67,0,.89.19.89.87,0,4.4,0,8.79,0,13.18,0,2.43-1.34,3.85-3.76,3.91-3.87.08-7.75,0-11.62,0-.8,0-.78-.44-.78-1C196.28,136,196.27,133.31,196.27,130.64Z" transform="translate(-21.52 -24.7)"/><path class="cls-1" d="M42.71,132.71c0-3.35,0-6.71,0-10.07,0-.84.24-1.07,1.07-1.06q8.7,0,17.39,0c.76,0,1,.18,1,1,0,5.56,0,11.11,0,16.67A4.65,4.65,0,0,1,57.43,144c-4.6,0-9.2,0-13.79,0-.75,0-1-.23-.94-.95C42.73,139.59,42.71,136.15,42.71,132.71Z" transform="translate(-21.52 -24.7)"/><path class="cls-19" d="M127.67,62.6c3.91,0,7.83,0,11.74,0,.75,0,1.06.15,1,1-.07,1.51-.74,2.36-2.26,2.36-7.46,0-14.93,0-22.4,0-.6,0-.81-.17-.84-.81-.1-2.54-.12-2.54,2.44-2.54Z" transform="translate(-21.52 -24.7)"/><path class="cls-8" d="M204,160.69c-3.65.36-3.65.36-3.64-3.21,0-1.85.36-2.21,2.25-2.23.76,0,1.52,0,2.28,0a.94.94,0,0,1,.33.9c-.18,1-.24,1.92-.47,2.86C204.56,159.6,204.61,160.29,204,160.69Z" transform="translate(-21.52 -24.7)"/><path class="cls-2" d="M204.48,159.13a15.23,15.23,0,0,1,.49-2.92,4.27,4.27,0,0,1,3.56,1l0,3.37C207.1,160.26,205.63,160.16,204.48,159.13Z" transform="translate(-21.52 -24.7)"/><path class="cls-20" d="M208.53,157.18l-3.56-1c0-.31-.05-.63-.07-.94.59,0,1.19-.05,1.78-.05C208.63,155.21,208.63,155.21,208.53,157.18Z" transform="translate(-21.52 -24.7)"/><path class="cls-21" d="M204.48,159.13a30.1,30.1,0,0,1,4,1.42,14.16,14.16,0,0,1-4.5.14C204.17,160.17,204.32,159.65,204.48,159.13Z" transform="translate(-21.52 -24.7)"/><path class="cls-22" d="M203.78,131.15c.95,0,1.9,0,2.85-.05.64,0,.78.24.81.84.12,2.71.14,2.71-2.52,2.67-.16,0-.31,0-.47,0A4.08,4.08,0,0,1,203.78,131.15Z" transform="translate(-21.52 -24.7)"/><path class="cls-23" d="M203.78,131.15c.22,1.14.44,2.29.67,3.44l-.72,0c-2.39,0-2.35,0-2.38-2.4,0-.86.17-1.29,1.11-1.15C202.9,131.13,203.34,131.12,203.78,131.15Z" transform="translate(-21.52 -24.7)"/><path class="cls-8" d="M53.05,131.07c1.08,0,2.16,0,3.23,0,.59,0,.87.14.86.8q0,3.16,0,6.34c0,.67-.31.79-.88.78-1.47,0-2.94,0-4.42,0a1.24,1.24,0,0,1-.3-1.1,50.33,50.33,0,0,1,1-5.83A1.68,1.68,0,0,1,53.05,131.07Z" transform="translate(-21.52 -24.7)"/><path class="cls-24" d="M53.05,131.07a66.7,66.7,0,0,0-1.21,7.83c-1.27,0-2.91.45-3.71-.17s-.21-2.39-.28-3.65c-.05-1.07,0-2.15,0-3.22,0-.61.16-.86.8-.84C50.11,131.07,51.58,131.06,53.05,131.07Z" transform="translate(-21.52 -24.7)"/></svg>