<svg id="圖層_1" data-name="圖層 1" xmlns="http://www.w3.org/2000/svg" viewBox="0 0 211.98 180.05"><defs><style>.cls-1{fill:#552e8f;}.cls-2{fill:#d1d3d1;}.cls-3{fill:#c39de1;}.cls-4{fill:#f8e0ef;}.cls-5{fill:#fefefe;}.cls-6{fill:#d0d2d1;}.cls-7{fill:#fbfbfc;}.cls-8{fill:#cfd0d0;}.cls-9{fill:#fcfbfd;}.cls-10{fill:#fdfdfd;}.cls-11{fill:#caf079;}.cls-12{fill:#f0cd79;}.cls-13{fill:#eeebf2;}.cls-14{fill:#fdfdfe;}</style></defs><title>16</title><path class="cls-1" d="M158.16,201.36a5.21,5.21,0,0,1-1.88.24H115.2c-.47,0-1,0-1.43,0-2,.82-2.83.37-5-2.55-.25.23-.12.53-.15.78a2,2,0,0,1-2.17,2.08c-1.2.07-2.4,0-3.6,0-3.59,0-7.19,0-10.79,0-2.29,0-2.85-.58-2.86-2.83,0-.52,0-1,0-1.56,0-.74-.29-1.06-1.05-1.14-1.82-.18-1.81-.21-1.82,1.68,0,.87,0,1.75,0,2.63s-.54,1.65-1.54,1.65a104.13,104.13,0,0,1-10.89-.14,20.61,20.61,0,0,0-4.9.06,4.28,4.28,0,0,1-1.07.06c-1-.26-1.32-1.06-1.45-2a17.49,17.49,0,0,1-.06-2.4.93.93,0,0,0-1-1.07c-2.84-.34-3.57-1.13-3.58-4,0-4.95,0-9.9,0-14.85,0-1.4,0-2.8,0-4.21v-11c0-1.66,0-1.69-1.65-1.71-3,0-3.52-.88-2.18-3.56,1.05-2.11,1.15-2-1.17-2a13.53,13.53,0,0,1-1.8,0,2.39,2.39,0,0,1-2-3.42c1.2-2.74,2.59-5.4,4-8a2.65,2.65,0,0,1,2.3-1.33c3-.21,5.9-.1,8.86-.06a1.09,1.09,0,0,1,.75.32,42.54,42.54,0,0,0,5,0,16.66,16.66,0,0,1,8.24.16,2.36,2.36,0,0,1,1.44,2.43c.05,1.12,0,2.24,0,3.36,0,.71.25,1.14,1,1.25a4.87,4.87,0,0,1,1.12.42,1.19,1.19,0,0,0,1.26,0c.45-.34.23-.8.11-1.21-.62-2.2-1.13-4.41-1.68-6.63-.61-2.47.44-3.89,3-3.93q5.2-.09,10.43,0c2.1,0,2.94.74,3.52,2.75.17.61.4,1.22.51,1.84a2.09,2.09,0,0,0,1.44,1.74,2.41,2.41,0,0,1,1.62,2.54c0,.38-.37,1,.29,1.11s.85-.46,1-1c.7-1.92,1.19-3.9,1.86-5.83a2.8,2.8,0,0,1,2.63-2.24c1.63.07,3.25.29,4.89.22a73,73,0,0,1,7.4-.25,1.4,1.4,0,0,0,1.09-.41,4.15,4.15,0,0,1,3-1c3.55,0,7.11-.05,10.67,0,2.58,0,3.63,1.13,3.66,3.69,0,2.4-.09,2.29,2.31,2.29,3,0,6,0,9,0,2.22,0,3.18.94,3.33,3.18a12.31,12.31,0,0,1,0,1.92c-.13,1.29,0,2.37,1.54,2.73.37.38.78.79.71,1.33-.46,3.84,1.06,7.55.72,11.37,0,.45-.16.92.64,1s1.12-.16,1.12-1.07c0-6.16,0-12.31,0-18.47,0-2.51.78-3.28,3.29-3.28h43.19c2.45,0,3.21.76,3.21,3.22,0,1.12,0,2.24,0,3.36,0,.57.07.85.76.88,1.58.06,1.88.41,1.89,1.94q0,3.18,0,6.36c0,1.55-.43,2-2,2H193.5c-2.75,0-5.51,0-8.27,0-.83,0-1.1.2-1.08,1.05,0,2.07,0,2.07,2.11,2.07h22.07c2.51,0,3.14.63,3.15,3.1,0,1.16,0,2.32,0,3.48,0,.56.08.85.77.88,1.74.08,1.88.25,1.88,2,0,7.43,0,14.87,0,22.31a2.7,2.7,0,0,1-1.12,2.45c-1.4,1.06-2.69,2.27-4,3.43a2,2,0,0,1-1.15.58c-3.75.18-7.51-.1-11.25.1-9.13.49-18.27.07-27.4.22-.36,0-.72,0-1.07,0a2,2,0,0,1-2.14-2.08,15.41,15.41,0,0,1,0-2.15c0-.92-.38-1.32-1.28-1.28a2.62,2.62,0,0,1-1.31-.14c-1.06-.55-1.67-.12-2.2.82s-1,1.62-1.54,2.43A2.67,2.67,0,0,1,158.16,201.36Z" transform="translate(-9.06 -36.24)"/><path class="cls-1" d="M29,121.23c-3,0-6.07-.06-9.11,0a1.46,1.46,0,0,1-1.68-1.15c-.07-.27-.2-.52-.28-.79-.47-1.67-1.07-3.05-3.26-3-1.08,0-1.8-.94-2.2-2-1-2.63-2.1-5.25-3.07-7.9-1.08-3,.27-5,3.45-5,1,0,1.15-.47,1.29-1.25,1.1-5.87,2.14-11.74,3.4-17.57.27-1.23.54-2.09-.63-2.88-.4-.27-.46-.82-.62-1.27L11.1,63.68c-.13-.37-.22-.76-.33-1.14C10.09,60,11.4,58.2,14,58.09c.92,0,1.84,0,2.82,0C14.93,52.65,13,47.29,11.12,41.91a5.62,5.62,0,0,1-.53-3,3.3,3.3,0,0,1,3.53-2.62c6.11,0,12.23-.05,18.34,0A3.57,3.57,0,0,1,36.09,39c.69,2.19,1.55,4.34,2.29,6.52.25.74.55,1.2,1.45,1.23A3.14,3.14,0,0,1,43,49.2a2.82,2.82,0,0,1,0,2.31c-.39,1.18-.87,2.32-1.35,3.46-.32.76-.21,1.15.69,1.11a3,3,0,0,1,1.08.1c.7.23,1.11.69.83,1.45-.7,1.91-1.38,3.83-2.23,5.69-.41.89-1.25,1-2.12,1.08-2.08.11-2,.09-1.42,2.11a2.48,2.48,0,0,0,2,1.87A3.37,3.37,0,0,1,43.09,73c-.38,1.35-.84,2.67-1.33,4-.25.68-.06.92.65,1,2,.2,2.34.68,1.54,2.43s-.53,3.79-1.07,5.63c-.14.46-.2.94-.3,1.4s-.19.86-.25,1.3a.6.6,0,0,0,.42.74c1.72.69,1.72.7,1.37,2.47-.36,2.33-.86,4.64-1.34,6.94-.18.9,0,1.19,1,1a11.07,11.07,0,0,1,2.51-.11H62.43c1.41,0,1.5-.11,1.52-1.49,0-2,0-3.91,0-5.87q-.06-2.49,0-5c-.06-8.71,0-17.42,0-26.12,0-2.31,0-2.31-2.27-2.31-3.4,0-6.79,0-10.19,0-1.82,0-2.15-.34-2.17-2.18,0-2.46.09-2.3-2.23-2.42a3.77,3.77,0,0,1-3.64-5.13q0-3.3.05-6.59c0-3.19,1.24-4.44,4.41-4.44h59.5c3.08,0,4.23,1.17,4.24,4.28v4.44c0,.28-.07.76,0,.81,1.84.85.7,2.53,1.1,3.77,0,0,0,.08,0,.12a17,17,0,0,1,.3,5.95c0,1-.71,1.36-1.64,1.39-1.4,0-2.8,0-4.19,0H94.2c-1.86,0-1.89,0-1.89,1.86q0,12.36,0,24.71a2.77,2.77,0,0,1-.4,2.06h0a23.77,23.77,0,0,0,0,5.06h0a2,2,0,0,1,.38,1.47c0,1.36,0,2.71,0,4.07s.1,1.5,1.5,1.51H110a8.24,8.24,0,0,1,2.37.25,2,2,0,0,1,1.35.91,4.52,4.52,0,0,1,1.27,3.46c0,1.35,0,2.7,0,4.06,0,.7-.24,1.46.75,1.84.42.16.28.78.28,1.21v7.65c0,1.52-.08,1.59-1.63,1.62-.2,0-.4,0-.6,0a2.24,2.24,0,0,1-1.59.38q-18.33,0-36.66,0a2.32,2.32,0,0,1-1.6-.37h-5a2.34,2.34,0,0,1-1.61.34q-9.41,0-18.81,0c-2,0-2.25-.31-2.28-2.33a7.85,7.85,0,0,1,0-.84c.09-1-.36-1.47-1.4-1.4a5.41,5.41,0,0,1-1.54-.18,3.69,3.69,0,0,1-3.18-4.11,7.93,7.93,0,0,1,.07-1,38,38,0,0,1-.95,5.81c-.19,1-.37,2-.65,3-.2.76-.62,1.36-1.44,1.4a67.91,67.91,0,0,1-7.55,0A1,1,0,0,1,29,121.23Z" transform="translate(-9.06 -36.24)"/><path class="cls-1" d="M120,94.32V85.93a6,6,0,0,1-.35-2.23q0-13.08,0-26.15a11.39,11.39,0,0,1,.05-1.31,3.64,3.64,0,0,1,3.42-3.66c-1.84.24-2.8-.11-3.37-1.23a4.73,4.73,0,0,1-.75-2.71c0-2.56,0-5.12,0-7.68s1.12-3.76,3.76-3.9c.32,0,.64,0,1,0h91.53c.4,0,.8,0,1.2,0,2.43.24,3.52,1.4,3.59,3.9,0,1.35,0,2.72,0,4.07,0,.78-.3,1.68.79,2.11.28.11.21.57.21.89,0,2.6,0,5.2,0,7.79,0,1-.39,1.36-1.29,1.24s-.91.3-.88,1c0,1,0,2.08,0,3.12,0,.62-.27,1.35.74,1.61.39.1.28.69.29,1.08v54.7c0,1.84,0,1.84-1.88,1.84q-8.4,0-16.8,0c-1.47,0-1.53-.06-1.53-1.57a15.66,15.66,0,0,0,0-1.68c-.06-.48.37-1.28-.39-1.39s-1.64-.38-2.24.59-1.55,2-2.22,3.12a2.07,2.07,0,0,1-2,1q-16.38,0-32.75,0c-.48,0-1,0-1.43,0a2.05,2.05,0,0,1-1.58.41q-14.4,0-28.79,0c-1.93,0-2.38-.47-2.4-2.44,0-2.46.09-2.31-2.25-2.36a3.65,3.65,0,0,1-3.9-3.44,10.86,10.86,0,0,1-.09-1.8q0-7.12,0-14.27A5,5,0,0,1,120,94.32Z" transform="translate(-9.06 -36.24)"/><path class="cls-2" d="M62.18,178.09q0,7.47,0,14.95c0,2.9.61,3.56,3.46,3.54.94,0,1.18.32,1.11,1.18a23.07,23.07,0,0,0,0,2.63c0,.78.21,1.52,1.14,1.75.38.19.85-.1,1.22.2,0,2.91,0,5.83,0,8.74A4.79,4.79,0,0,1,64,216.24H34.39c-3.15,0-5.11-2-5.11-5.17q0-7.73,0-15.45a15.81,15.81,0,0,0,3.49.65c.69,0,.9.57,1,1.18.06.8,0,1.6,0,2.4.09,1.48.43,1.84,1.9,1.84,4.92,0,9.83,0,14.75,0,1.56,0,1.76-.22,1.77-1.85,0-2.88,0-5.75,0-8.63,0-3.8,0-7.59,0-11.39a2.7,2.7,0,0,1,.35-1.84,1.77,1.77,0,0,1,1-.28c2.5,0,5,0,7.51,0A1.62,1.62,0,0,1,62.18,178.09Z" transform="translate(-9.06 -36.24)"/><path class="cls-2" d="M42.28,87.37c.66-2.61.51-5.38,1.64-7.9.42-.94-.14-1.2-1-1.23-2-.08-2-.09-1.32-2,.43-1.24.9-2.47,1.24-3.73a2.87,2.87,0,0,0-2.28-3.8c-1.61-.18-2.13-1-2.55-2.38C37.3,64,37.22,64,39.68,64a2,2,0,0,0,2.38-1.6c.49-1.6,1.19-3.13,1.83-4.68.36-.88.08-1.3-.85-1.31H40.81c.56-2.54,2.27-4.62,2.16-7.23h.47c0,.2,0,.4,0,.59.07,3,1.29,4.21,4.25,4.21,2,0,2,0,2,1.93,0,2.83-.42,2.71,2.7,2.7H63.3c.57,0,1.09-.08,1.09.81q-.06,14-.06,27.92a2.2,2.2,0,0,1-1.59.39c-6.29,0-12.59,0-18.88,0A2.07,2.07,0,0,1,42.28,87.37Z" transform="translate(-9.06 -36.24)"/><path class="cls-3" d="M91.9,87.58c0-9.34,0-18.68-.06-28,0-1,.53-1,1.21-1H110.9c1.85,0,1.85,0,1.86-1.88s0-3.43,0-5.15a4.19,4.19,0,0,1,.93,2.89q0,14,0,28a4.89,4.89,0,0,1-5.06,5.07Q100.3,87.6,91.9,87.58Z" transform="translate(-9.06 -36.24)"/><path class="cls-2" d="M69.16,202.34c-.41-.08-.86.12-1.22-.2l15.93,0c1.88,0,2.06-.19,2.07-2.06,0-1.2,0-2.4,0-3.6,0-.66.21-.74.75-.55a3.53,3.53,0,0,0,.7.16c2.12.2,2.12.2,2.12,2.39,0,3.13,0,3.13,3.11,3.13h13.19c2.16,0,2.44-.28,2.44-2.5v-1.34a5.68,5.68,0,0,1,1.44,2,3,3,0,0,0,3.38,1.85,3.47,3.47,0,0,1,.72,0c0,3.12-.06,6.23,0,9.35a5.05,5.05,0,0,1-5.28,5.31c-9.78-.11-19.57,0-29.35,0-3.33,0-5.22-1.88-5.22-5.17,0-2.56,0-5.11,0-7.67,0-.81-.21-1.15-1.07-1.1C71.63,202.38,70.39,202.33,69.16,202.34Z" transform="translate(-9.06 -36.24)"/><path class="cls-1" d="M52.62,178.06q0,10.92,0,21.83c0,2.1-.14,2.23-2.26,2.24H35.56c-1.75,0-2.1-.35-2.13-2.09v-.36c0-.91.25-2-.12-2.71s-1.6-.19-2.43-.39a3.05,3.05,0,0,1-1.61-.95,6.66,6.66,0,0,1-.39-2.47c0-10.35,0-20.7,0-31.06,0-1.08-.3-1.42-1.33-1.29a10.46,10.46,0,0,1-1.68,0c-1.6,0-2-.78-1.34-2.25.51-1,1-2.06,1.64-3.27-1.4,0-2.65,0-3.9,0-2.29,0-3.22-1.45-2.24-3.5,1.18-2.45,2.45-4.85,3.65-7.28a2.7,2.7,0,0,1,2.58-1.4c.92-.05,1.84,0,2.75-.07a2.2,2.2,0,0,1,1.59-.38H46.35a6.6,6.6,0,0,1,1.54.16,2.76,2.76,0,0,1,2.38,2.76c.08,1.07,0,2.16,0,3.23a1.27,1.27,0,0,0,1,1.42c1.46.49,1.52.86,1.57,2.39q.12,4,.1,7.91c0,4.48,0,9,0,13.43C52.84,175.33,53.23,176.73,52.62,178.06Z" transform="translate(-9.06 -36.24)"/><path class="cls-3" d="M52.6,174l0-21.31c0-1.78-.13-2-1.93-2.16-.61-.06-.72-.31-.71-.83,0-1.19,0-2.39,0-3.59,0-2.2-.81-3-3-3-4,0-7.9,0-11.85,0-2,0-4,0-6,0,0-.79,0-1.59,0-2.39a4.85,4.85,0,0,1,4.88-5q15-.07,30.08,0a4.86,4.86,0,0,1,4.87,5c0,.8,0,1.6,0,2.4-2.91,0-5.82,0-8.74,0a3.27,3.27,0,0,0-3.4,2c-1,2.23-2.17,4.35-3.24,6.54s-.17,3.6,2.27,3.62c1.19,0,2.38,0,3.67,0a24.47,24.47,0,0,1-1.53,3.3c-.68,1.46-.23,2.2,1.38,2.22h.12c2.81,0,2.82,0,2.81,2.91,0,3.35,0,6.7-.06,10.05a1,1,0,0,1-.63.3A82.93,82.93,0,0,1,52.6,174Z" transform="translate(-9.06 -36.24)"/><path class="cls-2" d="M120,94.32q0,8.57,0,17.14c0,3.09,1.16,4.23,4.27,4.24,1.93,0,1.93,0,1.94,2,0,3-.32,2.74,2.78,2.74h28.42c.4,0,.8,0,1.2,0-.1,2.23.27,4.48-.23,6.69a4.75,4.75,0,0,1-4.6,3.66q-15.18,0-30.36,0a4.63,4.63,0,0,1-4.64-4.65q0-14.4,0-28.8A4.07,4.07,0,0,1,120,94.32Z" transform="translate(-9.06 -36.24)"/><path class="cls-2" d="M29,121.23c2.56,0,5.12-.06,7.67,0,.91,0,1.36-.26,1.54-1.23.57-3.13,1.24-6.24,1.9-9.53a3,3,0,0,1,.18,1.58c0,2.66,1.27,3.94,3.94,4.06,2.27.11,2.27.11,2.27,2.39a5.77,5.77,0,0,1,0,.72c-.13,1.14.34,1.53,1.5,1.53,7,0,13.91,0,20.87,0,0,1.63,0,3.27,0,4.91A4.73,4.73,0,0,1,64,130.56H33.91a4.66,4.66,0,0,1-4.87-4.9C29,124.18,29,122.7,29,121.23Z" transform="translate(-9.06 -36.24)"/><path class="cls-3" d="M73.91,120.74c4.27,0,8.53,0,12.8,0q13.53,0,27.05,0c-.14,2.11.25,4.24-.22,6.33a4.55,4.55,0,0,1-4.62,3.74H78.7A4.7,4.7,0,0,1,73.92,126C73.9,124.26,73.91,122.5,73.91,120.74Z" transform="translate(-9.06 -36.24)"/><path class="cls-3" d="M158.16,201.36c1.35-1.59,2.29-3.46,3.47-5.16.37-.53.53-.65,1-.15.75.77,1.79.56,2.74.53.73,0,1,.22.95,1s0,1.68,0,2.52c0,1.65.41,2.06,2,2.06l36.22-.05c1.08,0,2.16,0,3.24.05-.39.32-.85.18-1.27.18-3.16,0-6.32,0-9.47,0a1.85,1.85,0,0,0-1.9,1.08c-1.9,3.37-3.86,6.71-5.77,10.07-1.48,2.59-4.19,3.55-6.71,2.11C174.52,210.86,166.35,206.1,158.16,201.36Z" transform="translate(-9.06 -36.24)"/><path class="cls-2" d="M111.62,140.09a2.73,2.73,0,0,0-2.24,2.2c-.57,2-1.33,3.93-1.81,5.94-.3,1.22-1.18,1-1.93,1.08-.48.06-.25-.38-.22-.61.37-2.37.21-2.71-2-3.44a1,1,0,0,1-.68-.85c-.28-1-.53-1.92-.79-2.88-.45-1.66-1.07-2.26-2.75-2.29-3.75-.05-7.51-.06-11.26,0-1.92,0-2.79,1.28-2.33,3.13.61,2.44,1.26,4.86,1.84,7.31.09.4.59,1,.05,1.25s-1.28.76-2,.09a1.16,1.16,0,0,0-.73-.36c-1.76.17-1.61-1-1.55-2.12,0-.83,0-1.67,0-2.51,0-2.07-.8-2.89-2.9-2.93s-4.31,0-6.47-.06c.09-1.65-.31-3.34.68-4.9a4.69,4.69,0,0,1,4.1-2.28q15.12,0,30.23,0a4.78,4.78,0,0,1,4.65,4C113,140.24,112.26,139.89,111.62,140.09Z" transform="translate(-9.06 -36.24)"/><path class="cls-2" d="M111.62,140.09c.62-.36,1.31-.06,2-.2,1.44,0,2.88,0,4.32,0a1,1,0,0,0,1.14-.78,4.74,4.74,0,0,1,4.88-3.3H153.3a5,5,0,0,1,5.33,5.31c0,3.68,0,7.35,0,11-1.91-.18-1.91-.18-1.91-2.07,0-.84,0-1.67,0-2.51,0-2.07-.86-2.93-2.89-2.93H143.76c-1.94,0-1.65.25-1.68-1.62,0-.56,0-1.12,0-1.68-.11-1.64-.9-2.54-2.55-2.57-4.07-.06-8.14,0-12.21,0-.54,0-1.24,0-1.55.51-.68,1.07-1.65.84-2.65.83C119.28,140.09,115.45,140.1,111.62,140.09Z" transform="translate(-9.06 -36.24)"/><path class="cls-3" d="M113.7,100.86a7,7,0,0,0-3.34-.74c-5.75,0-11.5,0-17.25,0-1,0-1.31-.27-1.27-1.27.09-2.07,0-4.15.07-6.23,5.61,0,11.23,0,16.85,0a4.87,4.87,0,0,1,5,4.75C113.78,98.55,113.71,99.7,113.7,100.86Z" transform="translate(-9.06 -36.24)"/><path class="cls-3" d="M119.73,51.35a3.62,3.62,0,0,0,2.49,1c.9,0,1.8,0,3,0a1,1,0,0,1-1,.44c-3,.08-4.14,1.28-4.15,4.29V84.61c0,.44,0,.88,0,1.32a4.77,4.77,0,0,1-1.2-3.4q0-14,0-28A5,5,0,0,1,119.73,51.35Z" transform="translate(-9.06 -36.24)"/><path class="cls-3" d="M91.91,92.65a13.88,13.88,0,0,1,0-5.06C91.9,89.28,91.9,91,91.91,92.65Z" transform="translate(-9.06 -36.24)"/><path class="cls-4" d="M186.69,145.21c7.16,0,14.32,0,21.48,0,.94,0,1.22.25,1.18,1.19-.07,1.88-.07,3.77,0,5.64,0,.94-.31,1.11-1.16,1.11-9.12,0-18.24,0-27.36-.05-1.16,0-1.47.29-1.44,1.44.08,3.4.07,6.8,0,10.2,0,1,.24,1.35,1.32,1.34,9.08,0,18.16,0,27.24-.05,1,0,1.41.22,1.4,1.36-.06,7.24,0,14.48,0,21.72a2,2,0,0,1-.8,1.72c-1.47,1.16-2.71,2.87-4.37,3.48s-3.71.19-5.59.19c-11.11,0-22.23,0-33.35,0-1.05,0-1.38-.24-1.33-1.31a51.67,51.67,0,0,0,0-5.28c0-1,.21-1.37,1.3-1.35,4.4.06,8.8,0,13.2,0,4.2,0,8.4,0,12.6,0,1,0,1.45-.2,1.42-1.36-.08-3.28-.07-6.56,0-9.84,0-1.07-.22-1.41-1.36-1.4-8.6.05-17.2,0-25.8.05-1.12,0-1.37-.31-1.37-1.38q.08-13.08,0-26.16c0-1,.19-1.34,1.29-1.33C172.37,145.23,179.53,145.21,186.69,145.21Z" transform="translate(-9.06 -36.24)"/><path class="cls-4" d="M157,178.1c-.82,2.11-1.57,4-2.3,6-.18.47-.49.55-.93.55-5.76,0-11.52,0-17.28,0-.89,0-.81-.51-.81-1.09,0-5,0-10.08,0-15.12,0-1-.24-1.4-1.32-1.34a47.5,47.5,0,0,1-4.92,0c-.91-.05-1.21.29-1.42,1.15-1.21,5.09-2.51,10.15-3.73,15.23-.2.83-.47,1.18-1.4,1.17-4-.06-7.92,0-11.88,0-.7,0-1.06-.17-1.26-.91-.43-1.61-1-3.2-1.49-4.8-.18-.56-.17-.95.59-.82a.48.48,0,0,0,.12,0c1.06-.1,2.4.46,3.11-.25s.63-1.93.88-2.93c.59-2.28,1.12-4.58,1.76-6.84.24-.87,0-1-.8-1-1.64,0-3.28,0-4.92,0-.68,0-.9-.22-.88-.89,0-1.52.07-3,0-4.56-.05-.91.23-1.14,1.13-1.13,5.48,0,11,0,16.44,0,1,0,1.31-.21,1.25-1.23-.09-1.68,0-3.36,0-5,0-.68-.19-.91-.88-.89-1.52,0-3,0-4.56,0-.69,0-1,.25-1.14.9-.71,2.36-.74,2.35-3.26,2.35-2.68,0-5.36,0-8,0a1.19,1.19,0,0,1-1.41-1.05,36.22,36.22,0,0,0-1.16-3.52c-.25-.68-.06-.93.59-.81,1.4.27,1.93-.38,2.26-1.69.54-2.16,1.33-4.26,1.94-6.41.2-.69.48-1,1.23-.95,3.48,0,7,0,10.44,0,.75,0,1,.13.72.94-.36,1-.58,2-.91,3-.17.51,0,.67.47.64h.12c3.58.23,3.58.23,3.58-3.32,0-2.56,0-2.56,2.54-2.56,3.12,0,6.24,0,9.36,0,.81,0,1.15.17,1.09,1.05-.08,1.15,0,2.32,0,3.47s.18,1.44,1.34,1.41c4-.08,8.08,0,12.12-.05.9,0,1.28.17,1.22,1.17a40.92,40.92,0,0,0,0,4.43c0,.87-.27,1.06-1.08,1.06-4.12,0-8.24,0-12.36,0-1,0-1.28.31-1.23,1.28.08,1.64.07,3.28,0,4.92,0,.81.26,1,1,1,5.2,0,10.4,0,15.6-.05,1.21,0,1.49.34,1.41,1.46a32.67,32.67,0,0,0,0,4.08c.05.87-.29,1.07-1.1,1.06-2.35,0-4.72,0-7.07,0-.81,0-1,.26-1,1q.06,4.5,0,9c0,.8.24,1,1,1C152.1,178.07,154.46,178.1,157,178.1Z" transform="translate(-9.06 -36.24)"/><path class="cls-4" d="M55.13,153.14c1.31-2.59,2.55-5,3.77-7.49.21-.41.55-.4.91-.4,6.84,0,13.68,0,20.51,0,.62,0,.85.18.84.81,0,1.36,0,2.72,0,4.08q0,21.54,0,43.06c0,1.09-.3,1.32-1.33,1.3q-7.08-.08-14.15,0c-1,0-1.34-.25-1.33-1.32,0-12.87,0-25.75,0-38.62,0-1.17-.3-1.48-1.45-1.43C60.41,153.21,57.86,153.14,55.13,153.14Z" transform="translate(-9.06 -36.24)"/><path class="cls-4" d="M103.43,173.65c0,6.35,0,12.71,0,19.07,0,.87-.13,1.23-1.14,1.22-4.72-.06-9.44-.05-14.15,0-.94,0-1.15-.28-1.11-1.15.07-1.56.06-3.12,0-4.68,0-.76.23-1,1-.93.9,0,2.09.41,2.66-.15s.21-1.82.21-2.76c0-7.64,0-15.27,0-22.91,0-1-.16-1.4-1.28-1.36-2.56.09-2.56,0-2.56-2.52,0-1.16,0-2.32,0-3.48,0-.61.17-.84.81-.84,4.92,0,9.84,0,14.75,0,.9,0,.82.49.82,1.07Q103.43,163.93,103.43,173.65Z" transform="translate(-9.06 -36.24)"/><path class="cls-4" d="M103.63,187.23h54.58l-4.13,6.41c-.25.39-.64.27-1,.27H108.73a1.1,1.1,0,0,1-1.12-.48C106.35,191.41,105,189.42,103.63,187.23Z" transform="translate(-9.06 -36.24)"/><path class="cls-4" d="M96.29,151.89c-1.76,0-3.52,0-5.28,0a.84.84,0,0,1-1-.75c-.73-3-1.47-6-2.28-8.93-.21-.81.08-.85.72-.85,3.48,0,7,0,10.44,0,.72,0,1,.28,1.13.9.33,1.31.73,2.61,1,3.93.19.85.53,1.37,1.5,1.18s1,.26.79,1a13.32,13.32,0,0,0-.57,2.32c-.1,1.06-.63,1.26-1.59,1.21C99.57,151.84,97.92,151.89,96.29,151.89Z" transform="translate(-9.06 -36.24)"/><path class="cls-3" d="M164.85,176.21c1.22-.27,1.68.2,1.51,1.43a13.66,13.66,0,0,0,0,1.92c0,1.73.39,2.13,2.09,2.13q10.2,0,20.39,0c.48,0,1.21-.32,1.38.3a5.18,5.18,0,0,1,0,2.25c-.09.45-.7.23-1.07.23-7.88,0-15.76,0-23.63,0h-1c-1.85,0-2.69.84-2.74,2.72,0,1.48,0,3,0,4.44,0,.63-.21.85-.83.82-.94,0-1.88,0-2.84-.08a2.5,2.5,0,0,0,1.34-1.56c.63-1.72,1.35-3.42,2-5.13.52-1.37.37-1.72-.94-2.32,1.16-2.25,2.49-4.4,3.75-6.6A2.28,2.28,0,0,1,164.85,176.21Z" transform="translate(-9.06 -36.24)"/><path class="cls-5" d="M164.85,176.21c-1.26,2.25-2.51,4.49-3.79,6.73a2.17,2.17,0,0,1-.53.46h-3.26c.54-1.39,1-2.63,1.49-3.9.78-2.16-.15-3.49-2.47-3.55-.71,0-1.43,0-2.15,0-.37,0-.61-.07-.61-.52s.12-.66.61-.66c2.47,0,5,0,7.42-.05a.62.62,0,0,1,.59.31A2.79,2.79,0,0,0,164.85,176.21Z" transform="translate(-9.06 -36.24)"/><path class="cls-5" d="M52.6,174a2.24,2.24,0,0,1,1.39-.22l8.16,0a24.93,24.93,0,0,1,0,4.32l-9.56,0Z" transform="translate(-9.06 -36.24)"/><path class="cls-6" d="M86,174.24v-12.3l2.6.33a22.71,22.71,0,0,1,.11,4c0,2.51,0,5,0,7.54C87.86,174.67,86.9,174.35,86,174.24Z" transform="translate(-9.06 -36.24)"/><path class="cls-6" d="M88.53,174.05l0-11.78c.34.28.19.66.19,1,0,6.87,0,13.74,0,20.61,0,1-.27,1.27-1.2,1.18-.5-.05-1.25.34-1.48.11-.41-.39-.16-1.13-.16-1.72,0-1.79,0-3.59,0-5.39a1.19,1.19,0,0,1,.75-.3c1.47-.22,1.45-.22,1.48-1.76C88.23,175.34,88.06,174.64,88.53,174.05Z" transform="translate(-9.06 -36.24)"/><path class="cls-7" d="M130.32,185c.82-3.31,1.61-6.52,2.4-9.73.07-.3.15-.56.52-.51s.35.38.35.66c0,3,0,6.07,0,9.11,0,.4-.16.47-.49.47Z" transform="translate(-9.06 -36.24)"/><path class="cls-8" d="M108.28,174c0-1.31,0-2.63-.06-3.94,0-.88.46-.88,1-.82s1.37-.29,1.33.81,0,2.48,0,3.71A1.73,1.73,0,0,1,108.28,174Z" transform="translate(-9.06 -36.24)"/><path class="cls-9" d="M88.53,174.05c0,.95,0,1.9,0,2.84s-.21,1.34-1.17,1.21a11.23,11.23,0,0,0-1.42,0l0-3.82A5.1,5.1,0,0,1,88.53,174.05Z" transform="translate(-9.06 -36.24)"/><path class="cls-10" d="M108.28,174a6.73,6.73,0,0,0,2.32-.24,1.62,1.62,0,0,1-.07,2c-.44.46-1.28.14-1.94.16-.33,0-.36-.24-.35-.49C108.25,175,108.26,174.49,108.28,174Z" transform="translate(-9.06 -36.24)"/><path class="cls-5" d="M77.55,112.87H45c-1.81,0-1.55.2-1.56-1.62,0-2.24,0-4.48,0-6.72,0-.93.22-1.21,1.18-1.21,7.2,0,14.4,0,21.6.05,1.12,0,1.38-.31,1.38-1.39q0-24.9,0-49.8c0-1-.19-1.35-1.29-1.34-6.16.07-12.32,0-18.48.06-.94,0-1.23-.24-1.2-1.19.06-2.36.07-4.72,0-7.08,0-1,.23-1.34,1.32-1.34,10.27.05,20.55,0,30.83,0,9.52,0,19,0,28.56,0,1,0,1.22.25,1.19,1.19-.07,2.32-.09,4.64,0,7,0,1.11-.19,1.47-1.4,1.46-6.12-.07-12.24,0-18.36-.06-.93,0-1.18.23-1.18,1.18q0,25.08,0,50.16c0,1,.3,1.18,1.21,1.17,7.28,0,14.56,0,21.84,0,.91,0,1.24.18,1.21,1.17-.07,2.36-.08,4.72,0,7.08,0,1-.23,1.33-1.3,1.32C99.55,112.86,88.55,112.87,77.55,112.87Z" transform="translate(-9.06 -36.24)"/><path class="cls-11" d="M24.62,113.49c-2.76,0-5.52,0-8.28,0a1.1,1.1,0,0,1-1.23-.84c-.9-2.42-1.83-4.84-2.78-7.24-.29-.71-.32-1.11.64-1,.6.06,1.2,0,1.8,0,1.72,0,1.71,0,2-1.64q1.71-9.33,3.41-18.65c.14-.72.36-1.13,1.29-1.12,5.8.06,11.6,0,17.4,0,.89,0,1.11.29.94,1.09Q37,98.37,34.13,112.64c-.15.76-.47.87-1.11.86C30.22,113.48,27.42,113.49,24.62,113.49Z" transform="translate(-9.06 -36.24)"/><path class="cls-12" d="M23.4,61.16c2.84,0,5.68,0,8.52,0a1.26,1.26,0,0,1,1.45,1c.91,2.72,2,5.4,2.84,8.13a1.57,1.57,0,0,0,1.87,1.29c2-.1,2,0,1.33,1.87-.43,1.25-.88,2.48-1.29,3.74a1,1,0,0,1-1.16.89c-5.55,0-11.11,0-16.66,0a1.07,1.07,0,0,1-1.2-.86q-2.61-7.5-5.31-15c-.31-.86-.19-1.09.74-1.07C17.49,61.19,20.45,61.16,23.4,61.16Z" transform="translate(-9.06 -36.24)"/><path class="cls-5" d="M23.28,39.41c2.88,0,5.75,0,8.63,0a1.2,1.2,0,0,1,1.36,1c.93,2.75,2,5.47,2.89,8.24.31.93.7,1.32,1.75,1.27,2-.09,2,0,1.24,1.92-.48,1.22-1,2.43-1.44,3.67a.92.92,0,0,1-1,.71q-8.22,0-16.42,0a.92.92,0,0,1-1-.71c-1.76-5-3.52-10.09-5.34-15.11-.34-1,.06-1,.78-1C17.53,39.42,20.4,39.41,23.28,39.41Z" transform="translate(-9.06 -36.24)"/><path class="cls-2" d="M64.33,92.41c0,2.28,0,4.56.07,6.83,0,.93-.49.91-1.13.9q-7.68,0-15.36,0a20.24,20.24,0,0,0-5.83.39l1.82-8.88a5.83,5.83,0,0,0,2.34.36H62.39A2.7,2.7,0,0,1,64.33,92.41Z" transform="translate(-9.06 -36.24)"/><path class="cls-5" d="M64.33,92.41H45.06c-.55,0-1.18.14-1.16-.74.21-1.76.21-1.76-2.12-2l.5-2.3h22A44.78,44.78,0,0,1,64.33,92.41Z" transform="translate(-9.06 -36.24)"/><path class="cls-5" d="M172.35,40.24c14.39,0,28.78,0,43.17,0,1.14,0,1.41.33,1.37,1.4q-.12,3.24,0,6.48c0,1-.3,1.18-1.22,1.18-8.19,0-16.39,0-24.58-.05-1,0-1.41.21-1.34,1.3.12,1.8.07,3.6.09,5.39a49,49,0,0,0,5.28.13,4.69,4.69,0,0,1,1.75.12,1.64,1.64,0,0,1,.3,1.12c0,2.09,0,4.19,0,6.28a1.54,1.54,0,0,1-.51,1.39c-1.53.44-3.09.16-4.64.21-1.77.06-1.8,0-1.8,1.83V84.5c0,1.7.06,1.72,1.75,1.77a20.69,20.69,0,0,1,4.65.19c.56.35.55.94.55,1.48,0,2.42,0,4.83,0,7.25a1.65,1.65,0,0,1-.47,1.41,3.07,3.07,0,0,1-1.64.25q-10.44,0-20.87,0c-2.06,0-2.25-.19-2.25-2.28q0-13.74,0-27.47c0-1.9,0-1.92-1.95-1.93-.72,0-1.44,0-2.16,0s-1.15.36-1.15,1.16c0,1.88.07,3.76,0,5.64a43,43,0,0,1-1.29,10c-1.83,6.34-5.94,10.45-12.07,12.66a35.65,35.65,0,0,1-8.54,1.83c-2.09.22-2.09.24-2.09,2.29,0,1.16,0,2.32,0,3.48,0,.75.34,1.1,1.09,1.1H194.3a9.87,9.87,0,0,1,2,.09c.22.13.63.16.32.58-2,2.38-3.75,5-5.57,7.5a2.35,2.35,0,0,1-2.14,1.12q-32.22-.06-64.44,0c-1.12,0-1.36-.32-1.35-1.39q0-26.94,0-53.87c0-1.17.29-1.44,1.44-1.44,7.64.06,15.28,0,22.92,0a2.62,2.62,0,0,0,1.41-.14c0-1.72,0-3.44,0-5.16,0-1.43.1-1.55,1.57-1.57,2.32,0,4.64,0,7,0h7.2a3.15,3.15,0,0,1,1.63.25,2,2,0,0,1,.4,1.57c0,1.15,0,2.3,0,3.46,0,.84.31,1.24,1.19,1.21s1.91,0,2.86,0,1.22-.32,1.21-1.19c0-1.67,0-3.34,0-5-.08-2.59,0-5.19,0-7.79A1.54,1.54,0,0,1,172.35,40.24Z" transform="translate(-9.06 -36.24)"/><path class="cls-12" d="M196.65,104v-.36a1.12,1.12,0,0,1-.45-1c0-1.67,0-3.34,0-5a1.09,1.09,0,0,1,.46-1,40.75,40.75,0,0,0,.12-6.05,16,16,0,0,0-.12-3.91c-.52-.34-.48-.89-.48-1.4q0-9.42,0-18.84a1.62,1.62,0,0,1,.44-1.43,11.1,11.1,0,0,0,.17-3.4c.05-1.78,0-3.56,0-5.34.25-.19.53-.12.81-.12h17.42a1.51,1.51,0,0,1,.7.09c.24,0,.49.06.48.4s0,.64,0,1q0,27,0,53.94c0,1-.19,1.41-1.34,1.4-5.67-.07-11.35,0-17,0-1,0-1.31-.3-1.28-1.29C196.68,109,196.65,106.5,196.65,104Z" transform="translate(-9.06 -36.24)"/><path class="cls-11" d="M172.35,40.24q0,4.59,0,9.18a1.28,1.28,0,0,1-1,.37c-1.69-.09-3.42.39-5.07-.32-5.46,0-10.92,0-16.37,0-.79,0-.92.33-.91,1,0,1.79-.05,3.57-.08,5.36l-.06-1.55a42.4,42.4,0,0,0-.1-4.65,24.35,24.35,0,0,0-4.75-.14q-10.25,0-20.5,0c-1,0-1.46-.18-1.41-1.34.1-2.32,0-4.64,0-6.95,0-.8.15-1.11,1-1.11q24.21,0,48.42,0C171.83,40.08,172.13,40,172.35,40.24Z" transform="translate(-9.06 -36.24)"/><path class="cls-13" d="M215.75,56.13l-18.93,0c-1.95,0-3.91,0-5.86,0-.38,0-.81.14-1.12-.23h24.8C215,55.93,215.44,55.74,215.75,56.13Z" transform="translate(-9.06 -36.24)"/><path class="cls-4" d="M21.77,153.14c1.31-2.59,2.55-5,3.78-7.49.2-.41.54-.4.9-.4,6.84,0,13.68,0,20.52,0,.62,0,.84.18.83.82,0,1.43,0,2.87,0,4.31q0,21.42,0,42.82c0,1.09-.3,1.32-1.33,1.3q-7.08-.08-14.15,0c-1.06,0-1.34-.26-1.33-1.32,0-12.87,0-25.75.05-38.62,0-1.17-.3-1.48-1.45-1.43C27.05,153.21,24.5,153.14,21.77,153.14Z" transform="translate(-9.06 -36.24)"/><path class="cls-1" d="M196.66,96.54q0,3.54,0,7.08c-3.27,0-6.55,0-9.83,0-14.39,0-28.78,0-43.17,0-1,0-1.42-.15-1.35-1.28.12-1.71.07-3.44,0-5.16,0-.76.18-1,1-1a38.88,38.88,0,0,0,9.61-1.83c7.21-2.42,11.28-7.49,12.68-14.86.83-4.39.7-8.83.66-13.27,0-1,.19-1.51,1.35-1.4a22.77,22.77,0,0,0,3.6,0c1-.07,1.2.25,1.19,1.19,0,6.72,0,13.43,0,20.15,0,3,0,6.08,0,9.11,0,.93.2,1.21,1.17,1.21,7.28,0,14.55,0,21.83,0C195.79,96.48,196.23,96.52,196.66,96.54Z" transform="translate(-9.06 -36.24)"/><path class="cls-1" d="M196.62,64.91q0,10.83,0,21.67c-2.07,0-4.14,0-6.21.08-.9,0-.67-.6-.67-1.06,0-5.42,0-10.85,0-16.27,0-1.24,0-2.47,0-3.71,0-.55.16-.78.75-.77C192.55,64.89,194.59,64.89,196.62,64.91Z" transform="translate(-9.06 -36.24)"/><path class="cls-1" d="M142.33,83.92V71.34c0-1.84,0-3.68,0-5.51,0-.68.09-1,.9-1,1.59.06,3.19,0,4.79,0,.46,0,.89,0,.87.65-.12,4.23.35,8.48-.57,12.66C147.57,81.51,145.52,83.47,142.33,83.92Z" transform="translate(-9.06 -36.24)"/><path class="cls-1" d="M166.27,49.47l6,0c0,1.95,0,3.9.07,5.85,0,.53-.2.68-.7.67-1.56,0-3.11,0-4.66,0-.69,0-.76-.31-.76-.87C166.29,53.21,166.27,51.34,166.27,49.47Z" transform="translate(-9.06 -36.24)"/><path class="cls-14" d="M169.22,89.77v5.6c0,3,1.25,4.22,4.19,4.23h1.44c.28,0,.56,0,.57.41s-.26.52-.61.51H160.43A19.43,19.43,0,0,0,169.22,89.77Z" transform="translate(-9.06 -36.24)"/></svg>