<svg id="圖層_1" data-name="圖層 1" xmlns="http://www.w3.org/2000/svg" viewBox="0 0 214.08 180.29"><defs><style>.cls-1{fill:#923806;}.cls-2{fill:#d1d3d1;}.cls-3{fill:#cfb6aa;}.cls-4{fill:#eddfd8;}.cls-5{fill:#feeae7;}.cls-6{fill:#ceb4a8;}.cls-7{fill:#fefefd;}.cls-8{fill:#fdfdfc;}.cls-9{fill:#cecbc6;}.cls-10{fill:#ceccc8;}.cls-11{fill:#d0cfcc;}.cls-12{fill:#f7f2ef;}.cls-13{fill:#fcfaf8;}.cls-14{fill:#c7bbb1;}.cls-15{fill:#d1d2d0;}.cls-16{fill:#c9aa9a;}.cls-17{fill:#bda291;}.cls-18{fill:#fefefe;}.cls-19{fill:#8ce2f4;}.cls-20{fill:#c4e041;}.cls-21{fill:#bf9688;}</style></defs><title>20</title><path class="cls-1" d="M158.62,152.19c1.22,1.1.57,2.55.73,3.85.06.51-.22,1.17.62,1.35.26-.31.13-.68.13-1,0-3.4,0-6.8,0-10.2,0-3.21,1.59-4.82,4.78-4.82h43.67c3,0,4.58,1.64,4.6,4.61,0,1,0,2,0,3,0,.78-.15,1.58.69,2.14.39.25.27.8.27,1.24v6.12c0,2-.32,2.3-2.27,2.3H192.41c-2.32,0-4.64,0-7,0-.47,0-1.28-.45-1.29.67s.75.73,1.26.73h23.39c2.82.08,4.27,1.51,4.35,4.31,0,1,0,2.08,0,3.12,0,.8-.2,1.64.7,2.22.37.24.26.81.26,1.25,0,7.64,0,15.28,0,22.91a2.26,2.26,0,0,1-.94,1.94c-1.37,1.1-2.68,2.28-4,3.43a2.22,2.22,0,0,1-1.33.74c-3.75.17-7.51-.1-11.25.1-9.14.49-18.28.07-27.42.23h-.84c-1.62-.06-2.23-.63-2.37-2.23s-.14-1.53-1.69-1.61a4.34,4.34,0,0,1-2.08-.46c-.85-.51-1.32-.16-1.75.56-.3.52-.6,1-.94,1.53a2.5,2.5,0,0,1-1.35,1.13,5.18,5.18,0,0,1-1.88.24h-41.2c-.44,0-.87,0-1.31,0-2.08.75-3.18.37-5-2.57-.22.29-.11.61-.15.91a2,2,0,0,1-2,2c-1.23.09-2.47,0-3.71,0-3.6,0-7.2,0-10.79,0-2,0-3-.77-2.91-2.71.06-1-.4-1.21-2-1.2-1,0-.84.63-.86,1.22-.1,3.08-.19,3.16-3.22,3.16H76c-1.63,0-3.24-.34-4.89-.28-1.07,0-2.13.18-3.21.21-1.2-.31-1.41-1.28-1.51-2.31-.14-1.38-.14-1.38-1.56-1.48-2.75-.18-3.93-1.2-4.52-3.89a7.28,7.28,0,0,1-.18-1.54c0-5,0-10,0-15.08q0-2,0-4v-.43c0-3.62,0-7.25,0-10.88,0-1-.16-1.63-1.38-1.72S57,160,57.51,158.58c.4-1.24.4-1.24-.88-1.26a10.51,10.51,0,0,1-2.5-.2c-1.18-.28-1.2-.27-1.2.95q0,7.17,0,14.36c0,.47,0,.95,0,1.43.06,8.36.05,16.72,0,25.07,0,.48,0,1,0,1.44-.06,1.52-.54,2-2,2.08-1.28.05-2.56,0-3.84,0H35.9c-2.19,0-2.7-.43-2.89-2.59-.08-.93-.46-1.25-1.35-1.27a2.78,2.78,0,0,1-2.33-.69c-1.69-1.1-2.13-2.77-2.12-4.65q0-15.64,0-31.28c0-.93-.23-1.22-1.18-1.19-1.79.06-2.22-.7-1.44-2.3s.73-1.51-1-1.51c-.48,0-1,0-1.44,0-3.34-.1-5.08-2.72-3.71-5.77,1.17-2.58,2.5-5.09,3.81-7.61.86-1.64,2.43-2.06,4.12-2.17.88-.05,1.76,0,2.63-.06a2,2,0,0,1,1.48-.36H46.46a7.14,7.14,0,0,1,1.9.26,4.23,4.23,0,0,1,3.58,4.45c.06,1.3,0,2.61.15,3.94a47.34,47.34,0,0,0,2.65-5.09A5.67,5.67,0,0,1,60.45,141h7a1.93,1.93,0,0,1,1.47.36,42.54,42.54,0,0,0,5,0c.1-.07.19-.18.3-.19,3-.14,6.13-.7,9,.7a2.69,2.69,0,0,1,.33.26c.11-.22-.1-.39-.08-.6a4.24,4.24,0,0,1,4.4-4.28q5.68-.25,11.37,0c2.67.13,3.89,1.22,4.59,3.77.36,1.34.76,2.59,2.16,3.24a.78.78,0,0,1,.46.67c.29-1.22.73-2.4,1.1-3.59a4.36,4.36,0,0,1,2.88-3,6.62,6.62,0,0,1,2.47-.1c2.31.14,4.62,0,6.93,0a20.4,20.4,0,0,0,7.05-1.45,4,4,0,0,1,1.43-.13c3.4,0,6.79,0,10.19,0a7.34,7.34,0,0,1,1.55.15,4.45,4.45,0,0,1,4,4.29c.21,1.54.21,1.55,1.74,1.55,2.76,0,5.52,0,8.28,0a4.21,4.21,0,0,1,4,2.16,6.07,6.07,0,0,1,.43,2.69C158.59,149.08,158.39,150.64,158.62,152.19Z" transform="translate(-9.09 -36)"/><path class="cls-1" d="M118.81,99.34c-.54-2.19-1.08-4.37-1.61-6.57A2.88,2.88,0,0,1,119.32,89a2.11,2.11,0,0,0,1.89-2.13,2.49,2.49,0,0,1,.28-1.39c1.53-4.07,3.12-8.12,4.72-12.17.3-.75.17-.93-.59-1.07-2.63-.45-3.54-1.56-3.55-4.23q0-3.58,0-7.19a4.34,4.34,0,0,1,.94-3c.73-.86.51-1.89.45-2.88,0-.59-.56-.6-1-.6A8.66,8.66,0,0,1,120,54a1.69,1.69,0,0,1-1.17-.94,4.16,4.16,0,0,1-1-3c0-2.24,0-4.48,0-6.72,0-2.58,1.16-3.75,3.73-3.78,2.88,0,5.76,0,8.64,0,.51,0,.94,0,1-.65.34-2.38,2-2.84,3.65-2.86,5.68-.07,11.36,0,17,0,2,0,3,.83,3.54,2.86.15.58.37.66.88.66h27.12c.54,0,.8-.08,1-.71A3.17,3.17,0,0,1,187.87,36Q196.44,36,205,36c2.12,0,3,.77,3.58,2.79.17.66.53.74,1.11.74,2.76,0,5.52,0,8.28,0,2.95,0,4,1.1,4,4.07,0,1.59,0,3.19,0,4.79,0,.26-.17.68.17.75,1.26.24.92,1.22.93,2,0,1.88,0,3.76,0,5.64s0,1.77-1.72,1.77c-3.48,0-7,0-10.44,0-.9,0-1.24.18-1.2,1.16.09,2.59,0,2.22-2.27,2.25h-.36c-2.69,0-2.65,0-2.65,2.71,0,.86.34,1,1.05,1,3.6,0,7.2,0,10.8,0a7.5,7.5,0,0,1,2,.27c1.47.42,2.21,1.51,2.25,3.41,0,1.72,0,3.44,0,5.16,0,.42-.11.84.54,1s.57.87.57,1.41c0,5.72,0,11.44,0,17.15v16.08c0,1.67,0,1.72-1.64,1.72H208.22c-1.55,0-1.59-.05-1.6-1.65,0-.76,0-1.52,0-2.28,0-.33.14-.76-.45-.79s-.51.48-.51.83q0,5.58,0,11.16c0,1.91,0,1.91-1.93,1.91-9,0-17.92,0-26.88,0a2,2,0,0,1-2.09-1.2c-.31-.64-.76-1.22-1.09-1.86a2.93,2.93,0,0,0-2.45-2,2.1,2.1,0,0,1-1.58-1.17c-1.71-2.79-3.42-5.59-5.09-8.4a3.55,3.55,0,0,1-.36-2.44,2.57,2.57,0,0,1,.45-1.28c.84-1.34,2.22-1.46,3.59-1.49,2.76-.06,5.52,0,8.27,0,1.68,0,1.72,0,1.72-1.65V78.65c0-1.66-.09-1.73-1.79-1.74-3.18,0-2.61-.13-3.53,2.45-2.39,6.66-4.72,13.35-7,20-.37,1.06-.73,2.11-1.19,3.13a4.32,4.32,0,0,1-.68,1.18L158.62,119c-.42,2-.44,2-2.6,2H137.81c-2,0-2.32-.27-2.89-2.15-.09-.31-.19-.61-.25-.93a1.75,1.75,0,0,0-1.78-1.58A4,4,0,0,1,129.1,113c-.46-1.78-1.07-3.52-1.59-5.28a1.23,1.23,0,0,0-1.26-1,2,2,0,0,1-2-1.62,14.86,14.86,0,0,1-.5-1.85c-.15-.93-.59-1.45-1.6-1.35a2.83,2.83,0,0,1-.71,0A2.8,2.8,0,0,1,118.81,99.34Z" transform="translate(-9.09 -36)"/><path class="cls-1" d="M73.91,120.74h-5a2.14,2.14,0,0,1-1.48.34q-9.51,0-19,0c-1.82,0-2.15-.35-2.16-2.19,0-2.85.13-2.56-2.46-2.63a3.58,3.58,0,0,1-3.67-4,6.2,6.2,0,0,0,.1-1.3,63.57,63.57,0,0,1-1.66,9.22,1.49,1.49,0,0,1-1.41,1.28,72.94,72.94,0,0,1-7.54,0,1.1,1.1,0,0,1-.53-.26c-3,0-6.07-.06-9.11,0a1.46,1.46,0,0,1-1.68-1.15c-.08-.31-.23-.6-.33-.9-.5-1.57-1-3-3.16-2.93-1.14.06-1.81-.93-2.21-1.93-1.07-2.67-2.15-5.34-3.12-8-1-2.86.36-4.78,3.38-4.77,1,0,1.23-.38,1.4-1.27,1.06-5.85,2.19-11.69,3.31-17.53a4.17,4.17,0,0,0-.57-3.06,18.28,18.28,0,0,1-1.47-3.78c-1.53-4.25-3-8.53-4.53-12.76-1.14-3.08.72-5,3.57-5,.79,0,1.59,0,2.39,0C14.91,52.48,13,46.9,11,41.36c-1.2-3.29.69-5.08,3.69-5.06,5.76,0,11.52,0,17.27,0,2.41,0,3.41.72,4.2,2.95s1.56,4.36,2.31,6.55c.21.62.46,1,1.23,1a3.14,3.14,0,0,1,3.26,2.44c.57.61.28,1.29.1,1.92-.36,1.31-1,2.53-1.44,3.81-.36,1-.3,1.06.77,1.12a4.37,4.37,0,0,1,1,.09c.77.21,1.21.68.9,1.5-.68,1.88-1.36,3.76-2.18,5.58-.47,1.06-1.44,1.16-2.43,1.16-2,0-1.92-.15-1.3,1.88a2.7,2.7,0,0,0,2.4,2.24c1.87.27,2.84,2,2.46,4-.28,1.42-.95,2.71-1.35,4.09-.35,1.17-.33,1.21.84,1.32,1.56.15,2,.71,1.43,2.1-1,2.37-.85,5-1.53,7.37-.07.43-.2.85-.26,1.28a.59.59,0,0,0,.41.74c1.77.73,1.77.74,1.41,2.54-.33,2.25-.85,4.47-1.26,6.71-.22,1.17-.13,1.29,1,1.28q9.4,0,18.81,0c1.39,0,1.51-.13,1.52-1.51.07-12.66,0-25.32,0-38a1.52,1.52,0,0,0-.31-1.23,2.4,2.4,0,0,0-1.61-.28H51.53c-1.91,0-2.19-.32-2.22-2.25v-.24c0-2,0-2-1.91-2.1-3.16-.17-4.49-2-3.89-5.17a16.46,16.46,0,0,0,.05-2.63c0-1.75-.07-3.5.06-5.25.56-2.26,1.59-3.07,4-3.07,5.52,0,11,0,16.55,0h43.07c3.26,0,4.37,1.13,4.37,4.41v4.56c0,.4-.05.76.54.85s.57.59.57,1c0,.84,0,1.68.08,2.52a17,17,0,0,1,.3,5.94c0,1-.72,1.36-1.64,1.39-1.52,0-3,0-4.56,0-4.28,0-8.55,0-12.83,0-1.71,0-1.77.06-1.77,1.74q0,12.42,0,24.83a2.8,2.8,0,0,1-.4,2.07,37.15,37.15,0,0,0,0,5.06,2.14,2.14,0,0,1,.4,1.58c0,1.36,0,2.72,0,4.08,0,1.55.07,1.62,1.61,1.63h16.41a15.22,15.22,0,0,1,1.79.06,2,2,0,0,1,1.66,1,4.53,4.53,0,0,1,1.18,3.4c0,1.32,0,2.64,0,4,0,.7-.27,1.47.75,1.84.43.16.29.78.29,1.21V119c0,1.7,0,1.72-1.75,1.74l-.47,0a2.28,2.28,0,0,1-1.6.38q-18.33,0-36.66,0A2.32,2.32,0,0,1,73.91,120.74Z" transform="translate(-9.09 -36)"/><path class="cls-2" d="M60.51,173.75V174a2.18,2.18,0,0,1-1.58.39c-1.48,0-3,0-4.42,0-.95,0-1.44.31-1.34,1.31a4.33,4.33,0,0,1,0,.72c-.09,1,.36,1.35,1.32,1.33,1.48,0,2.95,0,4.42,0a2.24,2.24,0,0,1,1.59.38q0,7.59,0,15.19a6.63,6.63,0,0,0,.62,3c.84,1.62,2.39,2,4,2s1.56-.2,1.58,1.62c0,.92,0,1.89,1.14,2.23.38.19.85-.1,1.22.2,0,2.92,0,5.84,0,8.76A4.79,4.79,0,0,1,64,216.24H34.44a4.77,4.77,0,0,1-5.16-5.13q0-6.6,0-13.19a11.57,11.57,0,0,0,3.31.37c.66-.07.79.26.81.85.13,3,.15,3,3.12,3h14c1.77,0,2-.24,2-2l0-24.9c0-.48,0-1,.06-1.44.14-.07-.06,0,.09-.07A18,18,0,0,1,60.51,173.75Z" transform="translate(-9.09 -36)"/><path class="cls-2" d="M42.26,87.37c.57-2.56.56-5.22,1.59-7.69.46-1.12.2-1.4-1.05-1.43-1.9,0-1.9,0-1.27-1.86.4-1.17.86-2.33,1.18-3.52.67-2.42-.4-4.05-2.9-4.25a1.39,1.39,0,0,1-1.43-1.21C38,66.3,37.62,65.23,37.17,64h3.24a1.26,1.26,0,0,0,1.37-.9c.68-1.79,1.4-3.57,2.11-5.34.36-.88.08-1.25-.86-1.33-.74-.07-1.81.45-2.14-.31-.22-.5.46-1.37.71-2.09.54-1.57,1.51-3,1.33-4.79.68-.1.48-.64.48-1,0-1.92,0-3.84,0-5.76,0-.38-.13-.8.2-1.14,0,2.8,0,5.59,0,8.38,0,3.11,1.16,4.33,4.32,4.33,1.78,0,1.77,0,1.78,1.85,0,3-.46,2.81,2.84,2.8H63.17c.38,0,.8-.15,1.14.17a1.21,1.21,0,0,1,.12.81q0,13.51,0,27a1.71,1.71,0,0,1-.08.71,2.2,2.2,0,0,1-1.59.37q-9.47,0-18.92,0A2.14,2.14,0,0,1,42.26,87.37Z" transform="translate(-9.09 -36)"/><path class="cls-3" d="M91.9,87.59q0-6.28-.05-12.58c0-5,0-10.06,0-15.09,0-1.09.32-1.32,1.35-1.31,6,0,11.9,0,17.85,0,1.68,0,1.71-.05,1.73-1.77s0-3.51.06-5.26a4.1,4.1,0,0,1,.93,2.88q0,14,0,28a4.89,4.89,0,0,1-5.06,5.07Z" transform="translate(-9.09 -36)"/><path class="cls-2" d="M118.81,99.34a3.53,3.53,0,0,0,3.85,2.2c.84-.06,1.23.22,1.37,1s.44,1.62.59,2.44c.17,1,.67,1.42,1.65,1.26s1.31.25,1.54,1.14c.51,1.93,1.15,3.82,1.74,5.72.68,2.17,1.63,2.93,3.9,3,.78,0,1.14.25,1.31,1s.57,1.74.79,2.63a1.19,1.19,0,0,0,1.35,1c6.66,0,13.33-.05,20,0,1.38,0,1.27-1.07,1.73-1.76-.09,2.67.31,5.36-.21,8a4.68,4.68,0,0,1-4.73,3.78h-30.2a4.65,4.65,0,0,1-4.68-4.61C118.79,117.24,118.81,108.29,118.81,99.34Z" transform="translate(-9.09 -36)"/><path class="cls-2" d="M69.16,202.34c-.4-.09-.86.12-1.22-.2H83.77c2,0,2.16-.18,2.17-2.09,0-.8-.23-1.8.15-2.33s1.38.21,2.13,0c1.09-.24,1.32.28,1.29,1.3-.08,2.32.19,2.53,2.5,2.53H105.8c2.13,0,2.43-.29,2.43-2.4v-1.45a6.14,6.14,0,0,1,1.51,2.11,2.86,2.86,0,0,0,3.19,1.75,4.76,4.76,0,0,1,.84,0c0,3.12-.07,6.23,0,9.35a5.05,5.05,0,0,1-5.28,5.31c-9.78-.11-19.56,0-29.35,0-3.37,0-5.22-1.87-5.22-5.28,0-2.52,0-5,0-7.55,0-.81-.19-1.16-1.07-1.11C71.64,202.38,70.4,202.34,69.16,202.34Z" transform="translate(-9.09 -36)"/><path class="cls-2" d="M29,121.23c2.56,0,5.12-.06,7.68,0,.9,0,1.38-.24,1.53-1.23.23-1.61.61-3.21.93-4.81s.65-3.19,1-5c.32,1.14,0,2.08.28,3a3.24,3.24,0,0,0,3.3,2.86c.89.07,2.08-.45,2.6.27s.13,1.69.14,2.57c0,1.87,0,1.87,1.86,1.87l20.5,0c0,1.64,0,3.27,0,4.91A4.73,4.73,0,0,1,64,130.56H33.91a4.66,4.66,0,0,1-4.87-4.9C29,124.18,29,122.7,29,121.23Z" transform="translate(-9.09 -36)"/><path class="cls-3" d="M73.91,120.74c2.67,0,5.34,0,8,0l31.84,0c-.16,2.11.24,4.24-.23,6.33a4.55,4.55,0,0,1-4.62,3.74H78.7A4.7,4.7,0,0,1,73.92,126C73.9,124.26,73.91,122.5,73.91,120.74Z" transform="translate(-9.09 -36)"/><path class="cls-3" d="M158.16,201.36a41.34,41.34,0,0,0,2.56-3.75c.19-.26.28-.76.77-.33a5,5,0,0,0,3.83,1c.88-.06,1.13.31,1,1.1a5.77,5.77,0,0,0,0,.72c0,1.64.41,2,2.08,2l37.88,0c.52,0,1,0,1.55,0-.38.33-.84.18-1.26.19-3.12,0-6.24.07-9.35,0a2.1,2.1,0,0,0-2.15,1.28c-1.87,3.34-3.8,6.65-5.71,10a4.73,4.73,0,0,1-6.64,2C174.52,210.86,166.35,206.1,158.16,201.36Z" transform="translate(-9.09 -36)"/><path class="cls-3" d="M68.87,141.37c-2.83,0-5.67.06-8.5,0-2.48,0-4.28.86-5.3,3.26-.77,1.84-1.76,3.58-2.67,5.36-.13.25-.16.73-.6.59s-.17-.49-.18-.75c0-1.24,0-2.48,0-3.72,0-3.12-1.56-4.71-4.71-4.73-5.47,0-10.95,0-16.42,0-.48,0-1,0-1.44,0-.37-3.29,2.1-5.83,5.72-5.79q14.19.16,28.4,0C66.72,135.54,69.23,138,68.87,141.37Z" transform="translate(-9.09 -36)"/><path class="cls-3" d="M113.77,101a4.77,4.77,0,0,0-3-.75c-5.91,0-11.83,0-17.74,0-1,0-1.29-.31-1.25-1.29.08-2.11.06-4.23.07-6.35,5.63,0,11.25,0,16.88,0a4.88,4.88,0,0,1,5,4.91C113.77,98.7,113.76,99.86,113.77,101Z" transform="translate(-9.09 -36)"/><path class="cls-3" d="M118.81,53a6.28,6.28,0,0,0,4.12.88c.71,0,1,.18,1,.93-.07,1.32.2,2.64-1,3.72-.6.54-.56,1.54-.56,2.39v6.82c0,3,1.12,4.16,4.17,4.23l.61,0q-3,7.45-5.9,14.85a4.26,4.26,0,0,1-2.41-4.09Q118.79,67.91,118.81,53Z" transform="translate(-9.09 -36)"/><path class="cls-2" d="M158.62,152.19c-.48-.6-.17-1.29-.22-1.93a28.54,28.54,0,0,0-.13-3.7c-.51-2.46-1.8-3.54-4.33-3.57-3,0-6.06,0-9.1,0-.79,0-1.1-.13-1.1-1,0-3.36-1.58-4.87-4.94-4.88H128a5.23,5.23,0,0,0-3.48,1,1.58,1.58,0,0,1-1.11.33c-3.55,0-7.1,0-10.66,0a14.31,14.31,0,0,0-2.36.25c.27-1.12.65-1.36,1.6-1,.36.15.71.32,1.06.49l5.52,0a1.29,1.29,0,0,0,1.23-.54,4.5,4.5,0,0,1,3.84-1.84q14.94,0,29.87,0a4.92,4.92,0,0,1,5.09,5.06C158.65,144.67,158.62,148.43,158.62,152.19Z" transform="translate(-9.09 -36)"/><path class="cls-2" d="M113.07,138.22c-.31,0-.75.11-.93-.05-.91-.82-1.31-.16-1.73.51a4.38,4.38,0,0,0-2.58,3c-.33,1.19-.72,2.36-1.1,3.61a5.63,5.63,0,0,0-2-1.4.78.78,0,0,1-.57-.68c-.17-.7-.37-1.39-.57-2.08-.73-2.54-2-3.52-4.68-3.54q-5.28,0-10.56,0c-2.85,0-4.37,1.46-4.56,4.26.12.3.16.55-.29.54a5.72,5.72,0,0,0-3.26-.92c-2.1,0-4.21-.05-6.31-.07-.37-3.37,2.23-5.58,5.49-5.55,9.5.09,19,.07,28.5,0A5.83,5.83,0,0,1,113.07,138.22Z" transform="translate(-9.09 -36)"/><path class="cls-4" d="M164.63,103l-.45,1-.21-.26a2.14,2.14,0,0,1,.4-1A.33.33,0,0,1,164.63,103Z" transform="translate(-9.09 -36)"/><path class="cls-5" d="M186.67,145.21c7.12,0,14.24,0,21.36,0,1.14,0,1.39.35,1.34,1.4a44.24,44.24,0,0,0,0,5.15c.08,1.23-.37,1.41-1.47,1.41-9,0-18.08,0-27.11,0-1.05,0-1.43.2-1.4,1.34.08,3.48.07,7,0,10.44,0,1,.32,1.18,1.23,1.17,9.16,0,18.31,0,27.47,0,1,0,1.28.2,1.27,1.23-.05,7.28,0,14.56,0,21.83a2,2,0,0,1-.78,1.74c-1.47,1.16-2.71,2.88-4.36,3.49s-3.79.2-5.7.2c-11.12,0-22.24,0-33.35,0-1,0-1.3-.25-1.26-1.25.09-1.84.09-3.68,0-5.52,0-1,.27-1.19,1.2-1.19,8.64,0,17.27,0,25.91,0,1.09,0,1.42-.27,1.39-1.38-.07-3.36-.06-6.72,0-10.08,0-.9-.24-1.13-1.14-1.13-8.68,0-17.36,0-26,0-1,0-1.35-.16-1.34-1.28q.08-13.19,0-26.39c0-.9.18-1.21,1.16-1.2C172.28,145.23,179.48,145.21,186.67,145.21Z" transform="translate(-9.09 -36)"/><path class="cls-5" d="M115,167.13c-2,0-3.82-.06-5.65,0-1,0-1.22-.31-1.17-1.22q.1-2.1,0-4.2c0-.92.2-1.2,1.16-1.19,5.48.05,11,0,16.44.05,1,0,1.28-.28,1.23-1.26-.09-1.6-.06-3.2,0-4.8,0-.79-.13-1.15-1-1.1-1.43.07-2.88,0-4.32,0a1,1,0,0,0-1.24.92c-.66,2.32-.7,2.31-3.16,2.31-2.72,0-5.44,0-8.16,0-.74,0-1.16-.14-1.36-1a29.75,29.75,0,0,0-1.19-3.64c-.26-.69,0-.86.6-.8a6,6,0,0,1,.6,0c.9.16,1.24-.3,1.47-1.11.67-2.34,1.45-4.65,2.13-7,.19-.67.43-1,1.21-1q5.22.08,10.43,0c.87,0,1,.22.74,1s-.55,1.92-.87,2.86c-.21.58,0,.72.51.67a.48.48,0,0,0,.12,0c1.12,0,2.55.35,3.26-.2s.21-2.09.23-3.19c0-2.47,0-2.47,2.51-2.47,3.16,0,6.32,0,9.48,0,.76,0,1.07.16,1,1-.07,1.24,0,2.48,0,3.72-.05.91.19,1.22,1.17,1.21,4.07-.06,8.15,0,12.23,0,1,0,1.35.17,1.28,1.22a31.14,31.14,0,0,0,0,4.32c.07,1-.33,1.16-1.22,1.15-4.08,0-8.16,0-12.23,0-1,0-1.28.3-1.23,1.27.08,1.64.07,3.28,0,4.92,0,.82.26,1,1,1,5.28,0,10.56,0,15.84-.05,1,0,1.21.29,1.16,1.21-.07,1.43-.06,2.88,0,4.31,0,.82-.19,1.12-1,1.09-2.32,0-4.64,0-7,0-.84,0-1.19.14-1.17,1.09.07,3,.06,5.92,0,8.88,0,.88.28,1.06,1.09,1,2.34-.06,4.69,0,7.2,0-.83,2.13-1.61,4.12-2.38,6.13-.17.45-.54.39-.89.39-5.72,0-11.44,0-17.16,0-.93,0-.91-.47-.9-1.12,0-5.08,0-10.15,0-15.23,0-1-.27-1.23-1.21-1.19-1.67.07-3.36,0-5,0-.82,0-1.18.17-1.38,1-1.22,5.12-2.53,10.22-3.76,15.35-.2.84-.48,1.16-1.4,1.15-4-.06-7.92,0-11.88,0-.7,0-1.07-.16-1.26-.9-.42-1.58-.92-3.14-1.46-4.68-.28-.82-.06-1,.76-1,1,0,2.31.45,3-.21s.62-1.84.86-2.8C113.62,172.48,114.26,169.89,115,167.13Z" transform="translate(-9.09 -36)"/><path class="cls-5" d="M21.76,153.15c1.31-2.59,2.53-5,3.73-7.43.22-.45.56-.48,1-.48,6.84,0,13.67,0,20.51,0,.76,0,.83.34.82.94,0,2.52,0,5,0,7.56q0,19.72,0,39.46c0,1-.22,1.34-1.3,1.32-4.76-.06-9.52,0-14.28,0-1,0-1.25-.29-1.24-1.28,0-12.91,0-25.82.05-38.74,0-1.11-.3-1.4-1.39-1.37C27.11,153.21,24.55,153.15,21.76,153.15Z" transform="translate(-9.09 -36)"/><path class="cls-5" d="M55.12,153.15c1.31-2.6,2.55-5.05,3.77-7.5.2-.41.53-.41.9-.41,6.84,0,13.68,0,20.51,0,1.12,0,.84.69.85,1.26V185c0,2.84,0,5.68,0,8.51,0,.81-.25,1-1,1-4.87,0-9.75-.05-14.63,0-1,0-1.16-.36-1.16-1.24,0-12.87,0-25.75,0-38.62,0-1.15-.18-1.6-1.46-1.53C60.4,153.24,57.84,153.15,55.12,153.15Z" transform="translate(-9.09 -36)"/><path class="cls-5" d="M103.43,173.56c0,6.43,0,12.87,0,19.31,0,.82-.18,1.07-1,1.07-4.79-.05-9.59,0-14.39,0-.81,0-1-.24-1-1,0-1.64,0-3.28,0-4.92,0-.62.17-.9.81-.8a1.92,1.92,0,0,0,.24,0c2.78,0,2.78,0,2.78-2.78,0-7.71,0-15.43,0-23.15,0-1-.24-1.28-1.25-1.26-2.59.06-2.6,0-2.6-2.6,0-1.16,0-2.32,0-3.48,0-.56.16-.78.75-.77,5,0,9.91,0,14.87,0,.94,0,.76.57.76,1.1Q103.45,163.91,103.43,173.56Z" transform="translate(-9.09 -36)"/><path class="cls-5" d="M103.62,187.23h54.6l-4.13,6.4c-.25.4-.63.28-1,.28h-44.4a1.08,1.08,0,0,1-1.11-.48C106.34,191.41,105,189.41,103.62,187.23Z" transform="translate(-9.09 -36)"/><path class="cls-5" d="M103.51,147.37c-.26,1.57-.24,3.34-1.17,4.29s-2.51.2-3.81.22c-2.48,0-5,0-7.44,0-.61,0-.93-.13-1.09-.79q-1.08-4.47-2.27-8.93c-.17-.64-.08-.83.62-.83,3.56,0,7.12,0,10.68,0a.85.85,0,0,1,1,.78c.33,1.27.76,2.53,1,3.81.21,1.06.61,1.68,1.8,1.42A4,4,0,0,1,103.51,147.37Z" transform="translate(-9.09 -36)"/><path class="cls-3" d="M60.51,173.75l-7.9,0v-17.7c1.58,1.08,3.27,1,4.93.89,1.08-.05,1.18.29.63,1.1a4.39,4.39,0,0,0-.27.53c-.68,1.46-.22,2.28,1.38,2.2,1.12-.06,1.31.35,1.29,1.35C60.5,166,60.52,169.88,60.51,173.75Z" transform="translate(-9.09 -36)"/><path class="cls-6" d="M163.9,177.87H164c2.19,0,2.19,0,2.33,2.18.07,1.22.53,1.65,1.84,1.65h19.07c.32,0,.64,0,1,0s.37.34.37.63-.12.45-.42.45H165a5.11,5.11,0,0,0-3.19.76c-.52.38-.88,0-1.3-.17A32.42,32.42,0,0,1,163.9,177.87Z" transform="translate(-9.09 -36)"/><path class="cls-7" d="M60.5,178.09c-2.2,0-4.4-.05-6.6,0-.92,0-1.14-.29-1.14-1.17,0-2.94,0-2.94,3-2.94h4.8A26.85,26.85,0,0,1,60.5,178.09Z" transform="translate(-9.09 -36)"/><path class="cls-8" d="M163.9,177.87c-1.05,1.88-1.87,3.91-3.37,5.53h-1.4c.37-1.6,1.19-2.93,1.5-4.44a3.93,3.93,0,0,0-1.66-4.05c1.16-.17,1.16-.17,1.61.73A4.22,4.22,0,0,0,163.9,177.87Z" transform="translate(-9.09 -36)"/><path class="cls-9" d="M86.65,163.72c.61,0,.42.48.42.78,0,6,0,12,0,18.05,0,.53,0,1-.69,1s-.44-.62-.44-.95c0-1.52,0-3,0-4.54a2,2,0,0,0,.56-1.73c0-.83,0-1.66,0-2.49-.07-3.11,0-6.21,0-9.32A1.54,1.54,0,0,1,86.65,163.72Z" transform="translate(-9.09 -36)"/><path class="cls-10" d="M86.65,163.72a2,2,0,0,1,.23,1.15c0,3,0,6.11,0,9.17a.86.86,0,0,1-.9.2c0-3.31,0-6.62,0-9.93C85.92,163.75,86,163.44,86.65,163.72Z" transform="translate(-9.09 -36)"/><path class="cls-11" d="M110.11,171c-.23.93-.48,1.84-.66,2.76-.1.51-.4.51-.78.5s-.43-.36-.44-.67,0-.71,0-1.07C108.23,170.83,108.23,170.83,110.11,171Z" transform="translate(-9.09 -36)"/><path class="cls-12" d="M86,174.24a1,1,0,0,1,.9-.2c0,1.07,0,2.14,0,3.21,0,.72-.27.93-.92.82Z" transform="translate(-9.09 -36)"/><path class="cls-13" d="M131.91,179.24c0,1.28,0,2.35,0,3.42,0,.59-.21.77-.76.7s-.3-.52-.22-.79A16,16,0,0,1,131.91,179.24Z" transform="translate(-9.09 -36)"/><path class="cls-14" d="M85.45,149.76c-.29.28-.48.27-.49-.18,0-.74,0-1.49,0-2.35.38.25.35.59.42.88C85.2,148.67,85.53,149.21,85.45,149.76Z" transform="translate(-9.09 -36)"/><path class="cls-15" d="M85.45,149.76a1.5,1.5,0,0,1-.07-1.65C85.35,148.66,86.05,149.19,85.45,149.76Z" transform="translate(-9.09 -36)"/><path class="cls-16" d="M160,191.49c.09.52.26.84-.18,1-.08,0-.28-.05-.28-.1C159.5,192.06,159.76,191.91,160,191.49Z" transform="translate(-9.09 -36)"/><path class="cls-17" d="M83.49,142.35c.24-.1.24-.33.29-.54.21.25.36.55.13.8S83.58,142.53,83.49,142.35Z" transform="translate(-9.09 -36)"/><path class="cls-18" d="M150.11,68.87h-13.3c-3.48,0-7,0-10.44,0-.77,0-1-.18-1-1,.06-2.19.07-4.4,0-6.59,0-1,.26-1.21,1.21-1.2,8.51,0,17,0,25.55,0a1.53,1.53,0,0,0,1.78-1.25c.46-1.49,1.11-2.91,1.63-4.38a.94.94,0,0,1,1-.73c6,0,12,0,18.19,0l-1.83,5.07c-.45,1.25-.45,1.25.87,1.25,8.76,0,17.52,0,26.28,0,1,0,1.41.18,1.41,1.34q-.06,25.26,0,50.51c0,1-.2,1.29-1.23,1.29q-13.44-.07-26.88,0a1.7,1.7,0,0,1-1.72-.94c-1.44-2.52-3-5-4.56-7.65h7.34c2.08,0,4.16,0,6.24,0,.69,0,1-.12,1-.91q0-17,0-33.95c0-.74-.2-1-.94-.94-3.32,0-6.64.06-10,0A1.53,1.53,0,0,0,169,70.1C164.12,84,159.21,98,154.35,111.89a1.41,1.41,0,0,1-1.6,1.14c-6.32,0-12.64,0-18.95,0-.81,0-1.19-.17-1.42-1-.62-2.26-1.36-4.49-2.1-6.88,2,0,3.84,0,5.71,0a1.06,1.06,0,0,0,1.22-.8Q143.56,86.92,150,69.51C150,69.36,150,69.2,150.11,68.87Z" transform="translate(-9.09 -36)"/><path class="cls-18" d="M134.14,42.49c0-.84.08-1.68,0-2.52s.24-.85.9-.85q8.28,0,16.55,0c.61,0,.84.14.83.79,0,.87-.4,2,.18,2.53s1.75.18,2.66.18c10.28,0,20.56,0,30.83,0,1.06,0,1.35-.27,1.31-1.32-.08-2.21,0-2.21,2.24-2.21,5,0,9.92,0,14.88,0,.87,0,1.16.18,1.14,1.11-.06,2.41,0,2.41,2.41,2.41,3.27,0,6.55,0,9.83,0,.76,0,1,.18,1,1q-.09,3.12,0,6.23c0,.84-.28,1-1,1-3.72,0-7.44,0-11.16,0-.89,0-1.14.21-1.12,1.12.05,2.3,0,2.3-2.28,2.3-4.92,0-9.84,0-14.75,0-.89,0-1.26-.13-1.23-1.14.07-2.27,0-2.27-2.32-2.27-10.43,0-20.87,0-31.3,0-1.15,0-1.39.34-1.35,1.4.08,2,0,2-2,2-5,0-10.07,0-15.11,0-1,0-1.26-.28-1.17-1.21a13.56,13.56,0,0,0,0-1.91,1.54,1.54,0,0,1-.35-1.11q0-3.2,0-6.41A1.52,1.52,0,0,1,134.14,42.49Z" transform="translate(-9.09 -36)"/><path class="cls-19" d="M203.69,68.84a1.19,1.19,0,0,1,1.14-.45q6,0,12,0c.64,0,.89.14.88.84q0,16.83,0,33.66a5.06,5.06,0,0,1-.17.93,8.08,8.08,0,0,0-2.5-.13c-3.23,0-6.47,0-9.7,0-1.5,0-1.54,0-1.54-1.56V70.51A7.79,7.79,0,0,0,203.69,68.84Z" transform="translate(-9.09 -36)"/><path class="cls-18" d="M137.81,74.21c2.48,0,5,0,7.44,0,.7,0,.91.12.64.84q-4.26,11.37-8.47,22.77a1,1,0,0,1-1.07.68c-4.59,0-9.19,0-13.79,0-.47,0-.8,0-.94-.63-.4-1.75-.88-3.48-1.35-5.21-.18-.67.09-.93.7-.79,1.48.33,2-.51,2.42-1.72,1.87-5,3.84-10,5.73-15a1.23,1.23,0,0,1,1.37-1C132.93,74.24,135.37,74.21,137.81,74.21Z" transform="translate(-9.09 -36)"/><path class="cls-18" d="M164.63,103l-.26-.28q2.82-8.13,5.65-16.27c1-3,2.11-5.93,3.13-8.92a1,1,0,0,1,1.19-.84,26.89,26.89,0,0,0,3.11,0c.82,0,1.09.19,1.09,1q0,11.39,0,22.78c0,.82-.18,1.09-1,1.08-3.16-.06-6.32,0-9.47,0A4.12,4.12,0,0,0,164.63,103Z" transform="translate(-9.09 -36)"/><path class="cls-20" d="M134.14,42.49v8.62c-4.19,0-8.39,0-12.58,0-.8,0-1.13-.16-1.1-1q.09-3.3,0-6.59c0-.88.29-1,1.09-1C125.75,42.5,129.94,42.48,134.14,42.49Z" transform="translate(-9.09 -36)"/><path class="cls-18" d="M203.69,68.84c.55.33.3.87.3,1.31,0,10.63,0,21.26,0,31.88,0,1.19.34,1.46,1.47,1.44,3.64-.08,7.27,0,10.91,0,.4,0,.91-.21,1.15.37-.28.23-.61.15-.93.15-4,0-8,0-12,0-.62,0-1,0-1-.85q0-16.92,0-33.83A2,2,0,0,1,203.69,68.84Z" transform="translate(-9.09 -36)"/><path class="cls-18" d="M67.39,103.28c.3-.35.17-.77.17-1.15q0-25,0-50c0-1-.26-1.25-1.25-1.24-6.16,0-12.32,0-18.48,0-1,0-1.26-.28-1.23-1.27.07-2.43,0-4.88,0-7.31,0-.77.19-1,1-1q29.94,0,59.88,0c.77,0,1,.18,1,1,0,2.52-.06,5,0,7.56,0,.85-.23,1-1.06,1-6.28,0-12.56,0-18.84,0-.72,0-1,.09-1,1q0,25.56,0,51.12c0,.08,0,.16,0,.24a.35.35,0,0,1-.14.41,3.18,3.18,0,0,1-1.64.24c-5.54,0-11.09,0-16.63,0C68.58,103.81,67.84,104,67.39,103.28Z" transform="translate(-9.09 -36)"/><path class="cls-20" d="M67.39,103.28a4.61,4.61,0,0,0,.81.15l19.4,0a1.75,1.75,0,0,1,.82-.08q11.3,0,22.59,0a1.8,1.8,0,0,1,.83.08.51.51,0,0,1,.24.51c0,2.8,0,5.6,0,8.4,0,.6-.25.77-.79.72-.24,0-.48,0-.72,0H44.7c-1.71,0-1.49.21-1.5-1.56,0-2.4,0-4.8,0-7.2,0-.79.29-1.06,1.05-1.06Z" transform="translate(-9.09 -36)"/><path class="cls-18" d="M30.18,83.1c2.91,0,5.83,0,8.75,0,.86,0,1,.27.84,1q-2.85,14.15-5.64,28.29c-.16.82-.46,1-1.23,1q-8.22,0-16.43,0a1.21,1.21,0,0,1-1.37-1c-.86-2.36-1.77-4.7-2.71-7-.29-.72-.14-1,.61-.9.2,0,.4,0,.6,0,2.9,0,2.9,0,3.42-2.82,1.06-5.76,2.15-11.53,3.18-17.3.17-1,.49-1.38,1.58-1.34C24.58,83.16,27.38,83.1,30.18,83.1Z" transform="translate(-9.09 -36)"/><path class="cls-19" d="M23.39,61.18c2.8,0,5.6,0,8.39,0a1.38,1.38,0,0,1,1.61,1.11c.89,2.67,1.94,5.3,2.8,8A1.54,1.54,0,0,0,38,71.56c2-.09,2,0,1.36,1.86-.45,1.32-1,2.62-1.36,4a.8.8,0,0,1-.93.66q-8.45,0-16.91,0a.92.92,0,0,1-1-.73Q16.48,69.65,13.73,62c-.25-.71-.05-.86.66-.85C17.39,61.2,20.39,61.18,23.39,61.18Z" transform="translate(-9.09 -36)"/><path class="cls-18" d="M39.88,50c-.77,1.95-1.52,3.87-2.27,5.79-.17.44-.52.41-.88.41-5.51,0-11,0-16.53,0-.61,0-.82-.24-1-.76q-2.64-7.56-5.34-15.09c-.28-.8-.11-.94.67-.94q8.74,0,17.49,0a1.05,1.05,0,0,1,1.2.84c1,2.83,2.05,5.61,3,8.46a1.39,1.39,0,0,0,1.7,1.16A4.71,4.71,0,0,1,39.88,50Z" transform="translate(-9.09 -36)"/><path class="cls-2" d="M64.28,87.42l0-28.6c.33.29.18.67.18,1,0,13.1,0,26.2,0,39.3,0,1-.34,1.15-1.22,1.14-6.15,0-12.3,0-18.45,0-.36,0-.72,0-1.07,0-1.63.1-1.65.1-1.31-1.6.46-2.34,1-4.67,1.43-7A5,5,0,0,0,46,92H62.26C63.87,92,63.9,92,64,90.33,64,89.36,63.69,88.33,64.28,87.42Z" transform="translate(-9.09 -36)"/><path class="cls-18" d="M64.28,87.42c0,1.35,0,2.71,0,4.06,0,.63-.14.94-.85.94-6.25,0-12.51,0-18.76,0-.57,0-.79-.22-.8-.75a5.68,5.68,0,0,0,.16-1.16c0-.79-.66-.8-1.21-.74-1,.12-1.26-.21-.9-1.14a9.13,9.13,0,0,0,.31-1.25h21C63.57,87.36,63.92,87.4,64.28,87.42Z" transform="translate(-9.09 -36)"/><path class="cls-21" d="M111.84,103.41H87.59l0-.24c7.62,0,15.23,0,22.84,0C110.93,103.21,111.44,103,111.84,103.41Z" transform="translate(-9.09 -36)"/></svg>