<?xml version="1.0" encoding="utf-8"?>
<!-- Generator: Adobe Illustrator 22.1.0, SVG Export Plug-In . SVG Version: 6.00 Build 0)  -->
<svg version="1.1" id="圖層_1" xmlns="http://www.w3.org/2000/svg" xmlns:xlink="http://www.w3.org/1999/xlink" x="0px" y="0px"
	 viewBox="0 0 219.1 196.5" style="enable-background:new 0 0 219.1 196.5;" xml:space="preserve">
<style type="text/css">
	.st0{fill:#59514D;}
	.st1{fill:#F17D44;}
	.st2{fill:#FEC43B;}
	.st3{fill:#FEE246;}
	.st4{fill:#FDC43B;}
	.st5{fill:#FCC33B;}
	.st6{fill:#FDC33B;}
	.st7{fill:#FCC43B;}
	.st8{fill:#FAC23B;}
	.st9{fill:#F8C23B;}
	.st10{fill:#F8C13B;}
	.st11{fill:#D6A83F;}
	.st12{fill:#75644A;}
	.st13{fill:#C89F41;}
	.st14{fill:#DDAF3E;}
	.st15{fill:#FEFEFE;}
	.st16{fill:#F7AB85;}
	.st17{fill:#FEFEFD;}
	.st18{fill:#F17E44;}
</style>
<g>
	<path class="st0" d="M182.9,169.3c1.2,0.4,2.3,0.8,3.4,1.3c1.2,0.4,2.3,1,3.3,1.7c3.6,2.5,3.6,6.1,0,8.6c-1.9,1.3-3.9,2.2-6,2.9
		c-0.7,0.2-1,0.6-1.2,1.3c-0.7,2.2-1.4,4.4-2.8,6.3c-2.5,3.6-6.1,3.6-8.6,0c-1.3-1.9-2.2-3.9-2.9-6c-0.3-0.8-0.5-1-1.3-0.4
		c-8.8,6.2-18.6,9.5-29.2,11c-8.3,1.2-16.5,0.3-24.6-1.7c-10.9-2.7-20.3-8.1-28.4-15.7c-0.7-0.7-1.1-0.7-1.8,0
		c-2.3,2.1-4.9,3.8-7.7,5.3c-5.5,3-11.3,5-17.4,6.3c-5.3,1.1-10.6,1.3-16,1c-9.1-0.5-17.5-2.9-25.3-7.5c-5.4-3.3-10-7.6-13.2-13.1
		c-0.5-0.8-0.8-1.7-0.8-2.7c0-0.8-0.1-1.5-0.4-2.2c-1.5-4.5-1.4-9.1-2.1-13.7c-0.1-0.8,0.3-1.5,0.5-2.3c0.9-3.1,2.1-5.9,3.8-8.6
		c2-3.4,3.8-6.9,6.5-9.7c2.1-2.2,4.5-4.2,7.1-5.9c-0.3-0.5-0.8-0.5-1.2-0.6c-1.6-0.6-3.3-1.3-4.7-2.3c-3.4-2.4-3.4-6,0-8.4
		c1.8-1.3,3.8-2.2,5.9-2.9c0.9-0.3,1.3-0.8,1.6-1.7c0.6-2.1,1.4-4.2,2.6-6c2.5-3.6,5.9-3.7,8.5-0.1c1.4,1.9,2.3,3.9,3,6.1
		c0.3,0.7,0.6,1.1,1.4,1.3c2.1,0.6,4.2,1.4,6,2.6c1.1,0.7,2.1,1.5,2.6,2.8c0.3,0.6,0.7,0.5,1.2,0.5c3-0.3,5.9-0.2,8.9,0
		c3.6,0.2,7,0.7,10.5,1.7c0.8,0.2,1.1,0.1,1.3-0.8c0.7-3,1.3-5.9,2.4-8.9c-5,0.1-9.8-0.6-14.4-2.1c-11.3-3.7-21.1-9.8-29.3-18.5
		C17.8,81.2,13,73.6,10,64.9C7.2,56.4,6.3,47.7,9,39.1c3.7-11.7,11.7-18.9,23.6-21.6c2.6-0.6,5-1.5,7.7-1.9c6.1-0.8,12-0.6,17.9,1.1
		c1.4,0.4,2,0.1,2.7-1.1c3.5-5.8,8.6-9.8,14.8-12.4c3.6-1.5,7.5-2.3,11.4-2.5c2.9-0.2,5.7-0.8,8.6-0.7c9.7,0.3,18.4,3.6,26.4,9
		c11.7,7.9,20.2,18.5,25.7,31.5c3.3,7.8,4.9,16,4.3,24.5c-0.1,1-0.2,1.9-0.3,2.9c-0.2,0.8,0,1.1,0.8,1.4c9.5,3.5,17.8,9,24.8,16.4
		c9.2,9.7,14.9,21.3,17,34.5c2.8,17.7-1,33.9-11.1,48.6C183.2,168.9,183.1,169.1,182.9,169.3z"/>
	<path class="st0" d="M178.2,64c-1.6,0-2.7-0.8-3.7-1.9c-1.7-1.9-2.6-4.3-3.5-6.6c-0.3-0.7-0.6-1.1-1.4-1.4
		c-2.4-0.7-4.8-1.6-6.8-3.2c-2.8-2.2-2.8-5.5,0-7.7c1.9-1.5,4-2.5,6.3-3.2c1-0.3,1.4-0.9,1.7-1.9c0.6-2.2,1.5-4.3,2.8-6.2
		c2.2-3.1,5.4-3.2,7.8-0.3c1.6,1.9,2.6,4.2,3.4,6.6c0.3,0.8,0.7,1.1,1.4,1.3c2.4,0.7,4.7,1.6,6.7,3.1c2.7,2.1,2.9,5.1,0.4,7.4
		c-1.9,1.8-4.3,2.7-6.7,3.6c-0.9,0.3-1.2,0.8-1.5,1.6c-0.7,2.5-1.6,4.9-3.3,6.9C180.9,63.3,179.7,64,178.2,64z"/>
	<path class="st0" d="M205.7,146.8c1.6,0.1,2.8,0.9,3.6,2.2c0.9,1.3,1.6,2.7,2.1,4.2c0.2,0.6,0.6,0.9,1.2,1.1
		c1.7,0.5,3.4,1.2,4.8,2.3c2.3,1.8,2.3,4.7,0,6.5c-1.3,1.1-2.8,1.8-4.4,2.3c-0.8,0.3-1.2,0.6-1.4,1.4c-0.5,1.7-1.2,3.3-2.3,4.7
		c-1.9,2.3-4.7,2.3-6.5-0.1c-1-1.3-1.8-2.8-2.3-4.4c-0.3-0.8-0.7-1.1-1.5-1.4c-1.6-0.5-3.2-1.1-4.6-2.2c-2.4-1.9-2.4-4.8,0.1-6.7
		c1.4-1,2.8-1.8,4.4-2.3c0.6-0.2,1-0.5,1.2-1.2c0.5-1.8,1.2-3.5,2.4-4.9C203.3,147.5,204.3,146.9,205.7,146.8z"/>
	<path class="st1" d="M179.9,163.4c-0.4-0.5-0.8-1-1.1-1.5c-2.3-3.1-5.7-3.1-8,0.1c-1.4,1.9-2.3,4.1-2.9,6.4
		c-0.3,0.9-0.7,1.4-1.6,1.7c-1.9,0.6-3.8,1.5-5.5,2.6c-3.8,2.5-3.9,6.1-0.2,8.8c0.2,0.1,0.3,0.2,0.5,0.4
		c-19.9,13.2-53.2,13.6-75.5-10.4c-22.1-23.8-21-60.8,2.5-83.8c22.6-22.2,60-22.4,82.8-0.5C194.7,109.8,193.7,143.4,179.9,163.4z"/>
	<path class="st2" d="M146.3,62.4c-0.1,1.3-0.2,2.6-0.2,3.8c0,0.8-0.3,1-1.1,0.8c-6-1.5-12.1-2.3-18.3-1.9
		c-12.6,0.9-24.3,4.4-34.7,11.8c-0.8,0.6-1.2,0.5-1.9-0.1c-9.6-8.9-16.3-19.5-19.3-32.2c-2-8.5-2-16.9,1.9-25
		C76.5,12,82.7,7.7,91,6.4c7.1-1.1,13.8,0.5,20.3,3.4c8.8,3.9,15.9,10,21.9,17.5c6,7.6,10.3,16.1,12.2,25.6
		C146,56,146.3,59.2,146.3,62.4z"/>
	<path class="st2" d="M43.7,177.3c-6.9-0.3-13.1-1.7-19-4.5c-6.3-3-11.6-7.1-14.8-13.5c-2.5-4.9-2.7-10.1-1-15.4
		c1.5-4.7,4.5-8.3,8.1-11.5c1.1-1,2.2-1.8,3.3-2.8c0.5-0.4,0.8-0.4,1.1,0.2c0.6,1.3,1.3,2.5,2.3,3.5c2.2,2.1,4.8,2.1,6.8-0.1
		c1.8-1.9,2.7-4.4,3.4-6.8c0.3-1.1,0.8-1.7,1.9-2c1.6-0.5,3.2-1.2,4.7-2.2c0.6-0.4,1.3-0.5,2-0.6c4.8-0.6,9.6-0.6,14.4,0.1
		c2.2,0.3,4.5,0.7,6.6,1.4c0.5,0.1,0.9,0.2,0.8,1c-1,8.5,0.1,16.8,2.4,25c1.8,6.5,4.6,12.5,8.4,18c0.7,1.1,0.5,1.5-0.5,2.1
		c-4.2,2.4-8.4,4.6-13.1,5.9c-4.9,1.4-9.9,2.1-15,2.1C45.5,177.3,44.4,177.4,43.7,177.3z"/>
	<path class="st2" d="M72.1,95.7c-8.4-0.4-16.3-2.9-23.5-7.3C40.2,83.2,33.2,76.4,28.1,68c-4.1-6.7-6.8-13.8-7-21.7
		C20.7,32.3,29,22.8,42.3,21c4.8-0.6,9.4-0.1,14,1c0.7,0.2,1,0.3,0.7,1.2c-3.1,9.7-3.1,19.4-0.5,29.2C60,65.3,66.8,76.2,76.3,85.6
		c0.8,0.8,1.6,1.5,2.5,2.3c0.5,0.4,0.5,0.7,0.1,1.2c-1.6,1.9-3,3.8-4.3,5.9C73.9,96,73,95.6,72.1,95.7z"/>
	<path class="st3" d="M27,130.5c-0.5-0.1-0.7-0.5-0.9-0.8c-1.1-1.7-2-3.6-2.5-5.5c-0.5-1.6-1.4-2.6-3-3c-2-0.5-4-1.3-5.7-2.4
		c-1.1-0.7-1.1-1,0-1.7c1.8-1.2,3.8-2,5.9-2.7c1.3-0.4,2.2-1.2,2.5-2.6c0.6-2.1,1.3-4.1,2.4-6c0.7-1.2,1.1-1.2,1.8,0
		c1.1,1.8,1.9,3.7,2.6,5.7c0.4,1.4,1.2,2.3,2.7,2.7c2.1,0.5,4.1,1.3,6,2.4c1.1,0.7,1.1,1,0,1.7c-1.8,1.2-3.7,2-5.8,2.6
		c-1.4,0.4-2.3,1.2-2.7,2.7c-0.5,2-1.3,4-2.4,5.9C27.7,130,27.4,130.3,27,130.5z"/>
	<path class="st3" d="M187.8,176.5c-0.1,0.5-0.5,0.7-0.8,0.9c-1.8,1.2-3.8,2-5.9,2.7c-1.4,0.4-2.1,1.2-2.5,2.6
		c-0.6,2.1-1.3,4.2-2.5,6.1c-0.7,1.1-1,1.1-1.7,0c-1.2-1.8-2-3.9-2.7-6c-0.4-1.3-1.1-2-2.4-2.4c-2.1-0.6-4.2-1.3-6.1-2.4
		c-1.2-0.7-1.2-1,0-1.8c1.8-1.2,3.8-2,5.9-2.6c1.3-0.4,2-1.1,2.4-2.4c0.6-2.1,1.3-4.2,2.4-6.1c0.7-1.2,1-1.2,1.8,0
		c1.2,1.8,2,3.8,2.6,5.9c0.4,1.3,1.1,2,2.4,2.4c2.1,0.6,4.2,1.3,6.1,2.4C187.2,175.9,187.6,176.1,187.8,176.5z"/>
	<path class="st2" d="M71.8,63.4c0,0.3-0.2,0.4-0.4,0.5c-0.8,0.5-1.6,1-2.3,1.5c-0.4,0.3-0.7,0.2-0.9-0.2c-1.5-2.7-2.8-5.5-3.9-8.3
		c0-0.1-0.1-0.2-0.1-0.3c-0.1-0.5,0.2-0.6,0.6-0.8c0.9-0.4,1.6-1.2,2.7-1.3c0.1,0,0.2,0.2,0.2,0.4c1.1,2.9,2.4,5.6,3.9,8.3
		C71.7,63.1,71.7,63.3,71.8,63.4z"/>
	<path class="st2" d="M27.9,77.8c0,0.4-0.3,0.6-0.6,0.8c-2.1,1.9-2.1,1.9-3.9-0.3c-1.3-1.7-2.4-3.5-3.5-5.3c-0.4-0.6-0.3-1,0.3-1.4
		c2.1-1.8,2.1-1.8,3.5,0.5c1.2,1.8,2.4,3.6,3.8,5.2C27.7,77.4,27.8,77.6,27.9,77.8z"/>
	<path class="st4" d="M61,43.4c-0.1-0.5,0.2-0.7,0.7-0.9c2.4-1,2.4-1,2.9,1.5c0.4,1.8,0.8,3.5,1.2,5.2c0,0.2,0.1,0.3,0.1,0.5
		c0.1,0.7-1.2,1.6-2.8,2c-0.9,0.2-0.7-0.6-0.8-1C61.7,48.3,61.3,45.9,61,43.4z"/>
	<path class="st2" d="M17.9,68.3c-0.4,0-0.4-0.3-0.6-0.6c-1-2.2-1.8-4.4-2.5-6.7c-0.2-0.6,0-0.9,0.5-1.1c2.1-1.3,2.1-1.3,3,1.1
		c0.6,1.6,1.3,3.2,2.1,4.8c0.3,0.6,0.2,0.9-0.4,1.2C19.3,67.4,18.6,67.9,17.9,68.3z"/>
	<path class="st4" d="M46.6,182.6c1.5,0.2,3-0.2,4.5-0.2c0.5,0,0.8,0.1,0.8,0.7c0.3,2.6,0.2,2.8-2.5,2.9c-1.5,0-2.9,0-4.4,0.1
		c-0.8,0-1.1-0.3-1.3-1c-0.5-2.4-0.5-2.4,2-2.5C46.1,182.5,46.4,182.6,46.6,182.6z"/>
	<path class="st4" d="M77.8,72.4c-0.1,0.1-0.1,0.2-0.2,0.3c-0.1,0.1-0.3,0.2-0.4,0.2c-2.8,1.5-2.8,1.5-4.7-1.1
		c-0.5-0.7-0.9-1.4-1.5-2c-0.4-0.6-0.5-1,0.3-1.2c0.3-0.1,0.5-0.2,0.8-0.3c2.1-1,2.1-1,3.4,0.9c0.6,0.9,1.3,1.8,2,2.7
		C77.6,72.1,77.7,72.3,77.8,72.4z"/>
	<path class="st4" d="M35.1,85.4c-0.1,0.1-0.1,0.2-0.2,0.3c-0.1,0.1-0.2,0.1-0.3,0.2c-2.5,1.9-2.5,1.9-4.7-0.3
		c-0.6-0.6-1.2-1.2-1.8-1.8c-0.4-0.4-0.4-0.7,0.1-0.9c0.1,0,0.1-0.1,0.2-0.1c0.9-0.4,1.5-1.6,2.4-1.4c0.8,0.2,1.4,1.2,2.1,1.9
		c0.6,0.6,1.2,1.2,1.8,1.8C34.8,85.1,34.9,85.2,35.1,85.4z"/>
	<path class="st4" d="M63.9,29.5c-0.3,2.5-0.3,5-0.2,7.5c0,0.7-0.6,0.6-0.9,0.7c-2.4,0.5-2.2,0.6-2-1.6c0.1-1.2,0.1-2.3,0.3-3.5
		C61.3,30.4,61.4,30.2,63.9,29.5z"/>
	<path class="st4" d="M40.1,184.1c0,1.6,0,1.6-1.7,1.4c-0.9-0.1-1.7-0.2-2.6-0.3c-1.3-0.3-2.3-2.3-1.7-3.5c0.2-0.3,0.4-0.2,0.6-0.2
		c1.2,0.4,2.5,0.4,3.7,0.6C40.1,182.4,40.1,182.4,40.1,184.1z"/>
	<path class="st4" d="M15.4,47.3c0.3,2.5,0.4,4.7,1,6.8c0.2,0.9-0.3,1.1-1,1.3c-1.6,0.6-1.8,0.9-2-1.1c-0.2-1.5-0.2-3.1-0.3-4.6
		C13.1,48.3,14.5,48.3,15.4,47.3z"/>
	<path class="st4" d="M41.9,94.9c1-0.6,1.9-1.2,2.8-1.7c0.3-0.2,0.6-0.2,0.9,0c1.2,0.7,2.4,1.4,3.7,2c0.6,0.3,0.5,0.6,0.1,0.9
		c0,0-0.1,0.1-0.1,0.1c-1.9,1.8-2,1.8-4.3,0.6C43.8,96.2,42.8,95.7,41.9,94.9z"/>
	<path class="st5" d="M55.1,182.8c-0.1-0.6,0.1-0.9,0.9-1c1.3-0.2,2.6-0.2,3.8-0.8c0.5-0.3,0.9-0.1,1,0.7c0.1,2.5,0.1,2.5-2.4,3
		c-0.3,0.1-0.6,0.1-0.9,0.2C55.4,185.2,55.1,185,55.1,182.8z"/>
	<path class="st6" d="M83.5,78.9c-0.1,0.1-0.1,0.2-0.2,0.2c-0.1,0.1-0.3,0.2-0.4,0.2c-0.9,0.5-2,1.5-2.7,1.3c-1.2-0.4-2-1.8-3-2.8
		c-0.4-0.4-0.2-0.6,0.2-0.8c1-0.4,2.1-1.6,3-1.2c1.2,0.5,2,1.9,3,2.9C83.4,78.7,83.5,78.8,83.5,78.9z"/>
	<path class="st5" d="M14.7,173c1.9,1.2,3.5,2.4,5.3,3.4c0.4,0.2,0.5,0.5,0.4,0.9c0,0.8-0.1,1.7,0.2,2.7c-2-1.1-3.8-2.1-5.3-3.5
		C14.5,175.6,14.8,174.3,14.7,173z"/>
	<path class="st4" d="M25.3,178.8c1.6,0.5,3.1,1.1,4.6,1.5c0.4,0.1,0.6,0.3,0.5,0.8c0,0,0,0.1,0,0.1c-0.1,0.8,0.2,2-0.2,2.4
		c-0.5,0.5-1.5-0.3-2.3-0.6C25.1,182.3,25,182.1,25.3,178.8z"/>
	<path class="st7" d="M72.9,176.9c-0.1-0.6,0.1-0.8,0.4-0.9c1.8-0.9,3.5-1.8,5.1-3c0.7-0.5,0.9,0.1,1.2,0.4c0.5,0.4,0.3,0.7-0.1,1
		c-1.7,1.4-3.5,2.8-5.3,4.1c-0.8,0.6-1.3,0.5-1.2-0.6C73,177.5,72.9,177.1,72.9,176.9z"/>
	<path class="st4" d="M64.4,181.1c-0.3-0.9,0.2-1.4,1.1-1.7c1.2-0.4,2.3-0.8,3.5-1.2c0.5-0.2,0.7-0.1,0.8,0.5
		c0.2,1.9,0.1,2.1-1.8,2.9c-0.6,0.3-1.2,0.6-1.8,0.9C64.4,183.1,64.4,183.1,64.4,181.1z"/>
	<path class="st4" d="M37.9,87.9c0.3,0.2,0.6,0.4,0.8,0.6c0.1,0.1,0.2,0.2,0.4,0.3c0.7,0.6,2,1,2,1.8c0,0.6-1.3,1.1-2,1.7
		c-0.5,0.4-0.9,0.4-1.4,0c-0.2-0.2-0.5-0.4-0.8-0.6c-0.7-0.6-2.1-1.3-1.9-1.7c0.5-0.9,1.7-1.4,2.6-2C37.7,88,37.8,87.9,37.9,87.9z"
		/>
	<path class="st5" d="M61.1,102.3c1.1-1.2,2.1-2.2,3.9-1.6c1.4,0.5,3,0.4,4.5,0.6c0.4,0,1-0.2,1,0.4c0,0.6-0.3,1.2-1.2,1.2
		c-2.1,0-4.2-0.1-6.3-0.3C62.4,102.5,61.8,102.4,61.1,102.3z"/>
	<path class="st5" d="M51.4,99.6c2-1.7,4-2.4,6.2-0.6c-0.5,0.6-1.1,1.1-1.6,1.7c-0.2,0.3-0.5,0.4-0.9,0.3
		C53.9,100.6,52.7,100.2,51.4,99.6z"/>
	<path class="st8" d="M6.2,163.6c0.8,1.1,1.7,2.3,2.5,3.4c0.2,0.3,0.4,0.6,0.7,0.8c1.5,1,1.7,2.6,1.6,4.2
		C9.4,170.9,7.3,167.3,6.2,163.6z"/>
	<path class="st9" d="M63.2,24.1c0.7-2,1.7-3.8,2.9-5.5c0.4,0,0.4,0.2,0.3,0.5c-0.5,1.5-1,3-1.4,4.5c-0.2,0.7-0.5,1-1.2,1
		C63.2,24.8,63,24.7,63.2,24.1z"/>
	<path class="st10" d="M16.4,36.7c-0.4,1.6-0.8,3.3-0.8,4.9c0,1.2-0.7,1.6-1.8,1.8c0.4-2.5,1.2-4.8,2.4-7
		C16.4,36.3,16.5,36.4,16.4,36.7z"/>
	<path class="st11" d="M66.3,19.2c0-0.2-0.1-0.4-0.3-0.5c0.2-0.5,0.5-1,1-1.2l0,0C67,18.1,66.7,18.7,66.3,19.2z"/>
	<path class="st12" d="M67,17.5c0-0.5,0.1-0.8,0.7-1.1C67.5,16.8,67.7,17.4,67,17.5C67,17.5,67,17.5,67,17.5z"/>
	<path class="st13" d="M16.4,36.7c-0.1-0.1-0.2-0.2-0.3-0.3c0-0.3,0.1-0.5,0.4-0.6C16.7,36.1,16.6,36.4,16.4,36.7z"/>
	<path class="st14" d="M63.2,24.1c0,0.3,0.2,0.5,0.6,0.5c-0.2,0.2-0.5,0.4-0.7,0.1C62.8,24.6,63,24.3,63.2,24.1z"/>
	<path class="st3" d="M190.7,46.5c-0.3,0.5-0.7,0.8-1.1,1c-1.8,1.1-3.8,1.9-5.8,2.6c-1.3,0.4-2,1.2-2.3,2.4
		c-0.5,1.9-1.2,3.8-2.2,5.6c-0.3,0.6-0.6,1.4-1.2,1.4c-0.6,0-0.9-0.8-1.2-1.4c-1-1.7-1.7-3.4-2.3-5.3c-0.4-1.4-1.2-2.1-2.6-2.5
		c-2.1-0.6-4.2-1.3-6.1-2.5c-1.2-0.7-1.2-0.9,0-1.7c1.9-1.3,4-2.1,6.1-2.8c1.3-0.4,1.9-1.2,2.2-2.4c0.6-2.1,1.3-4.2,2.4-6.1
		c0.7-1.2,1-1.3,1.8-0.1c1.2,1.8,2,3.8,2.7,5.9c0.4,1.3,1.1,2.1,2.5,2.4c2.2,0.6,4.3,1.3,6.2,2.5C190.2,45.9,190.5,46.1,190.7,46.5z
		"/>
	<path class="st3" d="M214.5,159.9c-1.3,1-2.6,1.5-4,1.9c-1.4,0.4-2.3,1.2-2.6,2.7c-0.3,1.4-0.9,2.8-1.8,4.2c-1-1.4-1.6-2.8-2-4.3
		c-0.4-1.3-1.1-2-2.4-2.4c-1.5-0.4-3-0.9-4.4-1.9c1.3-1,2.7-1.6,4.1-2c1.4-0.4,2.2-1.2,2.5-2.6c0.4-1.5,0.9-2.9,1.8-4.3
		c1,1.2,1.5,2.6,2,4c0.4,1.4,1.2,2.3,2.8,2.6C211.8,158.5,213.2,159,214.5,159.9z"/>
	<path class="st15" d="M180.8,125.4c0,16.3-9,29.5-22.4,34.5c-14.4,5.3-30.3-0.1-39-13.4c-9.3-14.2-7.3-33.6,4.8-45.4
		c7-6.9,15.6-10.3,25.4-9.4c13.2,1.2,22.4,8.3,28.1,20.2C179.9,116.6,180.8,121.7,180.8,125.4z"/>
	<path class="st16" d="M77.1,131.1c-0.3-4.4,0.4-8.6,2.4-12.7c0.9-1.8,1.9-2.7,3.3-2.3c1.5,0.4,2.2,2.2,1.7,4c-0.3,1-0.8,2-1,3.1
		c-0.8,3.5-0.6,7-0.4,10.6c0.1,1.1,0.3,2.2-0.2,3.2c-0.6,1.3-2,2.1-3.2,1.9c-1.5-0.3-2.5-1.6-2.6-3.3c0-0.8,0-1.5,0-2.3
		C77.1,132.5,77.1,131.8,77.1,131.1z"/>
	<path class="st16" d="M78.8,149.7c0-2,0.7-3.1,1.8-3.4c1.2-0.3,2.4,0.2,3.1,1.5c0.8,1.4,1.5,2.9,2.2,4.4c0.7,1.5,0.5,2.5-0.5,3.5
		c-1.2,1.2-3,1.2-4-0.1C80,153.7,79,151.6,78.8,149.7z"/>
	<path class="st15" d="M78,35.9c-0.1-3.2,0-6.1,0.7-9c0.5-2,1.3-3.8,2.6-5.3c1.5-1.9,3.8-2.4,5.6-1.2c1.8,1.1,2.2,3.4,1,5.5
		c-1.1,1.9-1.1,4.1-1.2,6.2c-0.2,2.3,0,4.6,0,6.8c0,1.2,0.4,2.3,0.8,3.4c0.5,1.3,0.8,2.6,0.3,4c-0.6,1.6-1.7,2.6-3.4,2.8
		c-2,0.2-3.5-0.6-4.4-2.3c-1.1-2.1-1.8-4.3-1.9-6.7C78,38.5,78,37,78,35.9z"/>
	<path class="st17" d="M93,58.5c0,1.5-0.6,2.4-1.7,2.8c-1.1,0.5-2.2,0.3-3-0.5c-1-1-1.7-2.3-1.8-3.8c-0.1-1.9,1.7-3.2,3.4-2.4
		C91.6,55.4,92.6,56.9,93,58.5z"/>
	<path class="st15" d="M16.1,156.6c0-2.1,0.8-3.3,2.1-3.9c1.4-0.6,3-0.2,4.1,1.1c1.8,2.2,4.2,3.5,6.7,4.7c1.6,0.8,3.4,0.9,5.1,1
		c1.7,0.1,3.2,0.6,4.1,2.3c1.4,2.8-0.8,5.6-4.1,5.6c-5.8,0-10.7-2.4-15-6C17.5,160,16.2,158.4,16.1,156.6z"/>
	<path class="st15" d="M50.8,167.2c-1.1-0.1-2.1,0-3.2-0.3c-0.8-0.2-1.6-0.6-2.2-1.2c-1-1-1-2.4,0-3.4c0.8-0.9,1.9-1.3,3.1-1.4
		c1.2-0.1,2.4-0.2,3.6-0.2c2.1-0.1,3.7,1.2,3.7,3.1c0.1,1.9-1.4,3.3-3.6,3.4C51.7,167.2,51.2,167.2,50.8,167.2z"/>
	<path class="st15" d="M64.1,87.8c-1.9-0.3-4-1.1-6-2c-4.5-2-8.6-4.7-12.2-8.1c-1-0.9-1.8-1.9-2.6-3c-1-1.4-0.8-3,0.2-4.1
		c1.1-1.1,2.8-1.4,4.2-0.4c1.5,1,2.8,2.2,4.2,3.4c3.8,3.2,8.2,5.3,12.9,6.9c0.6,0.2,1.2,0.4,1.8,0.7c1.4,0.9,2,2.5,1.5,4
		C67.5,86.9,66.2,87.8,64.1,87.8z"/>
	<path class="st18" d="M167.7,130.6c-0.3,4.7-1.3,10.6-5.1,15.8c-5.2,7.1-14.3,8.4-21.3,2.8c-4.5-3.7-7.1-8.5-8.6-14.1
		c-2.1-7.6-1.8-15.1,1.1-22.4c1.1-2.8,2.9-5.3,5.2-7.3c5.7-4.9,13.2-4.6,18.8-0.1c3.5,2.8,5.8,6.4,7.4,10.4
		C166.7,120.1,167.7,124.5,167.7,130.6z"/>
	<path class="st15" d="M158,129.5c0.1,3.3-0.5,6.8-2.4,9.9c-0.3,0.5-0.7,1.1-1.1,1.6c-2.3,2.7-4.9,2.9-7.5,0.5
		c-3.2-2.8-4.8-6.5-5.6-10.5c-0.9-4.5-1-9.1,0.7-13.6c0.6-1.5,1.3-2.9,2.3-4.1c2.3-2.5,4.7-2.7,7.3-0.5c2.5,2.1,3.9,4.9,5,7.9
		C157.8,123.4,158.1,126.3,158,129.5z"/>
</g>
</svg>
