<svg id="圖層_1" data-name="圖層 1" xmlns="http://www.w3.org/2000/svg" viewBox="0 0 232.74 189.72"><defs><style>.cls-1{fill:#e13e7c;}.cls-2{fill:#f3c4dd;}.cls-3{fill:#a891d2;}.cls-4{fill:#98b8e3;}.cls-5{fill:#fed443;}.cls-6{fill:#faecf0;}.cls-7{fill:#a992d2;}.cls-8{fill:#f3c4d3;}.cls-9{fill:#f8d5e2;}.cls-10{fill:#fefcfd;}.cls-11{fill:#fefefe;}.cls-12{fill:#fefdfd;}.cls-13{fill:#fefdfe;}.cls-14{fill:#fefbfc;}.cls-15{fill:#f9e3ea;}.cls-16{fill:#a991d2;}.cls-17{fill:#ec9bbc;}.cls-18{fill:#f4e7f1;}.cls-19{fill:#ed96bb;}.cls-20{fill:#f6ccdb;}.cls-21{fill:#f1a8c2;}.cls-22{fill:#f3c2db;}.cls-23{fill:#ac91d0;}.cls-24{fill:#ab8ecf;}.cls-25{fill:#f8d9e5;}.cls-26{fill:#e66397;}.cls-27{fill:#ea7faa;}.cls-28{fill:#f3c1db;}</style></defs><title>5</title><path class="cls-1" d="M43.9,128.92H27.84c.31-1.29.61-2.44.87-3.6.06-.27.27-.74-.26-.72-1.31.05-.66-.8-.55-1.24q3.21-13.45,6.5-26.88c.24-1,.1-1.26-.92-1.21-1.27.06-2.88.43-3.73-.19s-.08-2.32-.31-3.51a26.83,26.83,0,0,1-.21-5.37q0-16.42,0-32.87c0-1.74-.21-1.5,1.55-1.5H61.25c.39,0,1,.27,1.12-.32a4.4,4.4,0,0,0-.06-2c-.14-.42-.79-.19-1.21-.19H29.54a7.85,7.85,0,0,0-.84,0c-.68.08-.89-.21-.88-.88,0-3.19-.34-6.37-.26-9.56,0-1.05.22-1.41,1.36-1.4,10.68,0,21.36,0,32,0,1.19,0,1.61-.26,1.5-1.49-.12-1.39,0-2.8,0-4.2,0-.65.16-.92.87-.92q10.91,0,21.83,0c.58,0,.88.13.87.79,0,1.56.06,3.1.18,4.65.08,1,.37,1.16,1.26,1.16q15.84,0,31.67,0a7.85,7.85,0,0,0,.84,0c.73-.08,1,.21,1,1,0,3.19.34,6.36.26,9.56,0,1.05-.28,1.34-1.34,1.33-10.72,0-21.43,0-32.15,0a1.48,1.48,0,0,0-1.43,2.24.46.46,0,0,0,.46.29h31.08c1.78,0,1.51-.25,1.57,1.62a6.65,6.65,0,0,0,.18,2.7.82.82,0,0,1,.09.35c.31,10,.31,20,.22,30.07a8.71,8.71,0,0,1-4.44,7.52c-1.39.89-1.41.86-1,2.48,2.11,8.62,4.18,17.25,6.34,25.86a2.7,2.7,0,0,1,0,2.32c-.2.29,0,.62,0,.93.13.5.27,1,.38,1.51.36,1.65.07,2-1.62,2.05h-20c-1.82,0-2-.15-2.46-1.93q-3.7-14.72-7.37-29.44c-.07-.27-.13-.54-.2-.81-.35-1.28-.7-1.51-1.94-1.41s-.94,1-.94,1.7q0,14.46,0,28.91c0,3,0,3-3,3h-19c-2.18,0-2.24-.15-2.34-2.29-.48-9.91-.11-19.83-.23-29.74,0-1.4-.54-1.85-1.69-1.49-.67.2-.74.78-.89,1.31-.68,2.55-1.23,5.13-1.86,7.69q-2.76,11.18-5.48,22.37c-.5,2.07-.63,2.15-2.76,2.15h-4A2.26,2.26,0,0,1,43.9,128.92Z" transform="translate(-6.86 -30.89)"/><path class="cls-2" d="M43.9,128.92c2.08,0,4.16-.07,6.24,0a1.2,1.2,0,0,0,1.45-1.1q3.34-13.84,6.74-27.67a35.37,35.37,0,0,0,.83-3.49c.16-1.2.75-1.39,1.84-1.41s1.46.29,1.45,1.46c-.05,7.92,0,15.83-.05,23.75,0,2.56.4,5.09.26,7.64,0,.65.25.81.85.81,7.28,0,14.55,0,21.83,0,1.09,0,.86-.69.86-1.28q0-15.36,0-30.71c0-.53-.33-1.33.26-1.53a5,5,0,0,1,2.72,0c.36.09.3.62.38,1,2.62,10.41,5.25,20.81,7.81,31.23.27,1.08.69,1.34,1.75,1.34q10.32-.07,20.63,0c1.17,0,1.41-.33,1-1.37a8,8,0,0,1-.42-1.74c-.06-.46-.6-1,.26-1.38.28-.12.05-.67,0-1-2.25-9.14-4.47-18.29-6.75-27.42-.23-.94-.14-1.41.82-1.91a8.69,8.69,0,0,0,4.89-8.18q0-14.87,0-29.75c.52,1.39.17,2.82.21,4.23.07,2.27,0,2.22,2.27,2.28,3.4.1,6.8.29,10.19.69.56.55.41,1.26.41,1.92,0,5.23.07,10.45,0,15.67,0,3.28.35,6.53.26,9.8,0,.22,0,.44,0,.66a10.17,10.17,0,0,1-.33,2.12c-1.76,8.94-3.54,17.87-5.27,26.81a2.54,2.54,0,0,0,.27,2.15c.5.74,0,1.63-.09,2.45-.2,1.36-.17,1.44,1.23,1.44h16.9c1.47,0,1.53-.07,1.82-1.47,1.82-9,3.54-18,5.35-27,.15-.74.4-1.47-.32-2.11-.32-.29-.2-.75-.12-1.14a17.47,17.47,0,0,1,.61-2.69,1.72,1.72,0,0,1,.59-.9,40.76,40.76,0,0,1,7.41-.13c.6,0,.9.44,1,1a7.81,7.81,0,0,1,0,1.08v20.5a3.72,3.72,0,0,1-.7,2.6,3.19,3.19,0,0,1-2.53,1.14c-1.6,0-3.2,0-4.8,0-1,0-1.31.4-1.34,1.35-.08,3,.19,5.91.27,8.87a.91.91,0,0,0,1,1H156c6.31,0,12.63,0,18.94,0a10,10,0,0,0,6.89-2.35,9.22,9.22,0,0,0,3.11-7.26q0-11.15,0-22.3a7.64,7.64,0,0,1,.11-1.91c.43-.87.79-.18,1,.12a48.9,48.9,0,0,1,2.9,4.1,80.19,80.19,0,0,1,8.77,18.67,5.12,5.12,0,0,1,.39,1.5c0,.42.16.56.52.6a47.78,47.78,0,0,1,1.1,5c.35,1.58.41,1.66,2.07,1.66,5.68,0,11.35,0,17,0a5.29,5.29,0,0,1,1.54.12c.19.91-.54.47-.81.48-3.12,0-6.23,0-9.35,0s-6.31,0-9.46,0c-.76,0-1,.18-.83.92a43.25,43.25,0,0,1,.77,5.66,1.68,1.68,0,0,0,.67,1.34,37,37,0,0,0,.24,5.47,10,10,0,0,1,0,2.38c-.27.65,0,1.34-.18,2a1.61,1.61,0,0,1-2.23.18.91.91,0,0,1-.29-1.23,5,5,0,0,0-.15-4.68,4.44,4.44,0,0,1-.4-2.32c0-1.23-.18-1.41-1.39-1.41q-12.89,0-25.76,0c-1.33,0-1.58.28-1.63,1.64a4.19,4.19,0,0,0,.52,2.77,1.07,1.07,0,0,1,.14.92,12,12,0,0,0-.14,3.82c.21,2.7.33,5.41.43,8.12a3.49,3.49,0,0,0,.49,1.69c.78,1.3.62,2-.65,2.73a1.7,1.7,0,0,0-.79,1.51,9.24,9.24,0,0,1-.18,2.62c-.85.9-1.87.55-2.87.41-.64-.51-.77-1.35-1.23-2-.29-.39.06-.74.52-.85a9.72,9.72,0,0,1,1.43-.09c1-.09,1.17-.42,1-1.42-1-4.58-2.94-8.79-4.74-13.07a2.32,2.32,0,0,1-.32-1.5,1.59,1.59,0,0,1,.85-.39c2.95-.88,4.2-2.73,3.92-5.83a5.64,5.64,0,0,0-5.68-5.23,4,4,0,0,0-3.55,2.29,2.3,2.3,0,0,1-.57.9,4,4,0,0,1-1.78.19c-2.71,0-5.43,0-8.15,0-1.35,0-1.42.31-1.13,1.62,1.4,6.33,4.48,12,6.81,18,.55,1.41.38,1.73-1.12,1.74q-8,0-16.07,0c-1.44,0-1.67-.33-1.12-1.67,1.82-4.43,3.7-8.85,5.56-13.27.14-.33.29-.66.41-1,.24-.7.1-1.21-.71-1.31-1.05-.13-1.11-.72-.77-1.53.07-.14,0,0,.05-.11.92-2.41.89-2.45-1.66-2.45-2.84,0-5.68,0-8.52,0a2.3,2.3,0,0,0-2.54,1.64c-2.21,5.4-4.47,10.78-6.73,16.17-.09.22-.17.44-.26.67-.31.82-.21,1.35.81,1.55s1,.51.41,1.18a4.14,4.14,0,0,0-.3,4.53,1.62,1.62,0,0,1,0,2.18,2.25,2.25,0,0,1-2.16-.15c-.58-1.46-1.47-2.82-1.3-4.53.09-.87-.49-1.29-1.35-1.32l-1.32,0H95.67c-.48,0-1,0-1.44,0A1.14,1.14,0,0,1,93,155.14c-.07-3.16-.06-6.32,0-9.47a1.2,1.2,0,0,1,1.27-1.3c.48,0,1,0,1.44,0h21c2.12,0,2.19-.1,2.19-2.25a3.47,3.47,0,0,0-.6-2.27,3.62,3.62,0,0,1-.37-2.21c-.05-1.38-.24-1.6-1.62-1.62-3.48,0-7,0-10.44,0H82.6c-.48,0-1,0-1.44,0a1,1,0,0,0-1.06,1.06c0,.44,0,.87,0,1.31,0,6.68,0,13.36,0,20,0,.88.13,1.75.21,2.62-.32.72-1,.64-1.55.59-3.38-.27-6.77-.2-10.14-.52-2.3-.21-4.61-.25-6.91-.41a12.34,12.34,0,0,1-3.87-.56,3.13,3.13,0,0,1-.32-2q0-7.8,0-15.59a4.39,4.39,0,0,0-.63-2.75,3.42,3.42,0,0,1-.33-2c-.06-1.61-.29-1.86-1.93-1.86-4.8,0-9.6,0-14.39,0-.38-.07-.79-.05-1.06-.4a10,10,0,0,1,3.26-.45c.57,0,1-.2,1-.76C43.41,132.53,44,130.76,43.9,128.92Z" transform="translate(-6.86 -30.89)"/><path class="cls-2" d="M187,186.7a78.22,78.22,0,0,1-6.4,8A76.69,76.69,0,0,1,164.1,208.5a79.51,79.51,0,0,1-45.29,12,80.44,80.44,0,0,1-19.58-3.32,78.47,78.47,0,0,1-25.4-13.05,77.37,77.37,0,0,1-16.95-17.92,1.89,1.89,0,0,1,1.47-.36c1,0,2.07,0,3.11,0,1.38-.05,1.69-.36,1.76-1.7a4.25,4.25,0,0,0-.61-2.86,3.91,3.91,0,0,1-.34-2.22c-.08-1.29-.32-1.53-1.58-1.59h-.24c-3-.07-3-.07-3-3.1,0-1.56,0-3.12,0-4.68a2.53,2.53,0,0,1,.28-1.5.78.78,0,0,1,.53-.24c2,.24,4-.13,6,.58A2.06,2.06,0,0,1,65,170c.83,4.07,1.67,8.13,2.62,12.17.42,1.79.67,2,2.49,2h6.1c2.64,0,2.75-.13,2.18-2.75-.76-3.55-1.49-7.11-2.27-10.65-.11-.52-.42-1.09.15-1.56a7,7,0,0,1,3.21-.15c3.1.4,6.22.24,9.33.35,5,.19,10,.48,15,.33a2.32,2.32,0,0,1,1.91.47c1.45,3.88-.72,7.18-4.8,7.21-6.08.05-12.16,0-18.24,0-.8,0-1.9-.41-2.32.46a3.91,3.91,0,0,0,.09,3.48A5.2,5.2,0,0,1,81,184c0,1.68.26,1.92,2,1.92h23.28a26.4,26.4,0,0,0,4.78-.22,9.52,9.52,0,0,0,7.85-9.17c0-1.52,0-3,0-4.56a2.34,2.34,0,0,1,.34-1.61,9.84,9.84,0,0,1,4.67-.1c.63.49.32,1.1.19,1.65-.66,2.76-1.36,5.51-2.07,8.25-.23.88-.34,1.66.76,2a.75.75,0,0,1,.46.88,3.84,3.84,0,0,1-.11.59c-.8,2.51,0,2.53,2.13,2.52h7.54c2,0,2.24-.17,2.72-2.09,1-4.1,2.06-8.21,3.09-12.32.15-.6.18-1.3.91-1.58,2.68-.59,5.4-.3,8.1-.36,1.16,0,2.32,0,3.47,0a1.21,1.21,0,0,1,1.1.31,17.5,17.5,0,0,1,.15,6.29c-.08.83-.86,1.08-1.64,1.12-1.08,0-2.16,0-3.24,0s-1.42.43-1.43,1.37a4.76,4.76,0,0,0,.62,3.22c.53.71.29,1.63.33,2.45s.48,1.57,1.45,1.56c4,0,8,.34,12-.18,3.47-.45,5.45-2.82,5.51-6.32.05-2.84,0-5.68,0-8.52a2.42,2.42,0,0,1,.34-1.72,5.6,5.6,0,0,1,3.55,0c.77,1.18.4,2.47.32,3.71-.15,2.63-.38,5.24-.42,7.87,0,.33-.06.7.16.93a3.82,3.82,0,0,1,.79,3.25c0,.63.18,1.19.86,1.21,2.42.07,4.85.39,7.25-.25a1.34,1.34,0,0,1,.84-.1c1.68.77,3.47.32,5.21.45C185.57,186.42,186.32,186.19,187,186.7Z" transform="translate(-6.86 -30.89)"/><path class="cls-1" d="M132.49,91c-.43-9.2-.14-18.4-.28-27.6q0-6,0-12c.61-.54,1.37-.34,2.07-.34h74.2c1.48,0,3,0,4.44,0,.47,0,1-.05,1.33.38.37,9.94.19,19.88.22,29.82A9.47,9.47,0,0,1,206.67,91a5,5,0,0,1-2.64.54c-3.51,0-7,0-10.51,0-2,.07-4.07,0-6.11,0-1.65,0-1.65,0-1.77,1.63a1.63,1.63,0,0,1-.33,1.12l0,24.57a9.54,9.54,0,0,1-10,10c-7.24,0-14.47,0-21.7,0-1,0-1.29-.25-1.29-1.26,0-3.19-.29-6.37-.24-9.56,0-.92.29-1.17,1.17-1.14,1.8.06,3.6,0,5.39,0a2.64,2.64,0,0,0,2.89-2.92c0-7.28,0-14.55,0-21.83,0-.77-.22-1-1-1-2.39,0-4.79,0-7.19,0a1.81,1.81,0,0,1-1.35.35H134C133.39,91.53,132.8,91.57,132.49,91Z" transform="translate(-6.86 -30.89)"/><path class="cls-1" d="M187,186.7l-5.8,0c-.63,0-1.28,0-1.65-.66a15.63,15.63,0,0,1-.09-2.79c-.2.91.33,2.05-.37,3a1.75,1.75,0,0,1-1.33.42c-2,0-4,0-6,0-1.26,0-1.5-.36-1.4-1.63.05-.6.06-1.2.08-1.79,0-.24,0-.57-.2-.65-1.06-.34-.87-1.12-.82-1.94.21-3.74.38-7.49.56-11.23a20.76,20.76,0,0,1-.12-4.17,9.54,9.54,0,0,0-.59-4.2c0-1,0-2.08,0-3.12a1.24,1.24,0,0,1,1-1.38,1.12,1.12,0,0,0,.5-2,2,2,0,0,1-.58-1.38c-.18-3.71-.36-7.41-.52-11.12,0-.57-.24-1.21.3-1.69a.25.25,0,0,0,0-.41c-1.39-1.24-.57-2.83-.64-4.27,0-.74.63-.89,1.3-.88,1.95,0,3.91,0,5.87,0H197c1.76,0,1.73,0,1.78,1.7,0,1-.16,1.85.73,2.81.72.77.16,2.3.22,3.49,0,.62,0,1.23-.95,1.2,1.17,1.17,1.66,1.23,2.56.42a3.32,3.32,0,0,1,.36-1.51c1.08-2.09,2.11-4.21,3.07-6.36a2.77,2.77,0,0,1,.9-1.24c.35-.79,1-.9,1.78-.9h8c2.33,0,2.49.25,1.56,2.36-.19.84-.11,1.4,1,1.6.87.17.88,1,.58,1.76-.43,1.07-1,2.07-1.5,3.09-.3.61-.54,1.24-.8,1.86-.64,1.28-1.26,2.59-1.94,3.85-.46.85-.17,1,.65,1a7.7,7.7,0,0,1,1.44,0c1.19.16,1.59.8,1.22,1.92-.07.19-.16.36-.24.55-.17.44-.63.84-.5,1.31s.78.26,1.15.47c.77.43.86.93.33,2.29-1.38,2.54-2.48,5.21-3.78,7.79a4.1,4.1,0,0,1-.94,1.35,2,2,0,0,0-.44,1.18c1,0,2,0,3.06,0,1.26,0,1.55.52,1,1.67-.33.76-.71,1.49-1.08,2.26,2.71.48,2.7.47,1.48,3-.5,1-1,2.09-1.44,3.13.17.43-.08.77-.25,1.11-1,2-2,4-3,5.95a3.58,3.58,0,0,1-2.58,2.22c-3.38.92-6.82.36-10.24.46-2.61.07-5.23,0-7.85,0-.68,0-1.41.05-1.59-.87-.18-.36,0-.75-.11-1.09a2.41,2.41,0,0,1-.08,1.09,1.26,1.26,0,0,1-1.37.88C188.46,186.63,187.7,186.68,187,186.7Z" transform="translate(-6.86 -30.89)"/><path class="cls-1" d="M126.72,50.87c0-3.38-.41-6.76-.29-10.15.06-1.56,0-1.56,1.52-1.56q16.08,0,32.16,0c1,0,1.48-.19,1.41-1.35-.1-2,0-4,0-6,0-.68.19-.89.88-.88q10.92,0,21.84,0c.7,0,.9.23.85.89-.19,2.15.39,4.28.22,6.43-.07.81.32.91,1,.9,2.16,0,4.32,0,6.48,0,8.72,0,17.44,0,26.16,0,1,0,1.33.22,1.29,1.25a7.2,7.2,0,0,0,.16,3.06,54.33,54.33,0,0,1,0,7.44h0a1.43,1.43,0,0,1-.82.1q-9.41.13-18.82.14c-22.22,0-44.45,0-66.68,0A68.09,68.09,0,0,1,126.72,50.87Z" transform="translate(-6.86 -30.89)"/><path class="cls-1" d="M220.36,126.47c-.28.41-.72.25-1.1.25-6.14,0-12.29,0-18.44,0-.87,0-1.16-.29-1.31-1.08-.38-2.07-.83-4.12-1.26-6.18a23.15,23.15,0,0,1-1.08-4c-1.25-6-2.4-12.06-3.55-18.1-.33-1.73.08-3.55-.4-5.3a.58.58,0,0,1,.42-.76c4.11-.06,8.22,0,12.33,0a54.63,54.63,0,0,1,8.09.19c2,10,4.06,20,5.82,30C220.16,123.07,220,124.82,220.36,126.47Z" transform="translate(-6.86 -30.89)"/><path class="cls-3" d="M39.12,135.57l1,.05a8.31,8.31,0,0,0-.41,3.39,1.84,1.84,0,0,0,.31,1.13,3.71,3.71,0,0,1,.41,3.61,19.75,19.75,0,0,1-4.56.81,116.27,116.27,0,0,0-17.06,3.2,15,15,0,0,0-4.62,1.92c-1.33.95-1.34,1.77,0,2.71a16.67,16.67,0,0,0,5.19,2.1,113.85,113.85,0,0,0,15.3,2.86c2.73.37,5.46.76,8.21,1,.53,0,1.14-.05,1.49.55a50.35,50.35,0,0,1,.1,7.47.83.83,0,0,1-.38.71c-6-.66-11.94-1.36-17.86-2.45a55.15,55.15,0,0,1-14-4.05,9.32,9.32,0,0,1-5.12-6.94,12,12,0,0,1,1.43-8.83c1.7-2.93,4.67-3.86,7.58-4.83a100.76,100.76,0,0,1,16.56-3.58C34.84,136.05,37,135.84,39.12,135.57Z" transform="translate(-6.86 -30.89)"/><path class="cls-3" d="M216,145c.74-1.59,1.5-3.17,2.23-4.76.49-1.07.23-1.71-.8-1.66-1.41.06-1.2-.51-.69-1.34l.24-.4c2.34.48,4.69.92,7,1.44a45.06,45.06,0,0,1,9.79,3.06,9.65,9.65,0,0,1,5.69,8c.74,6.05-2.28,10.46-7.45,12.22a98.46,98.46,0,0,1-18.4,4.11l4.41-9.16c3-.64,6-1.09,8.9-1.94a26.07,26.07,0,0,0,4.29-1.53c.88-.43,2-.84,2-2s-1.16-1.54-2-2a21.49,21.49,0,0,0-3.6-1.31,66.55,66.55,0,0,0-9.37-2A3.5,3.5,0,0,1,216,145Z" transform="translate(-6.86 -30.89)"/><path class="cls-1" d="M40.3,143.75c0-.75,0-1.5,0-2.26,0-.3.07-.65-.31-.82-.62-.28-.65-.83-.65-1.41,0-.79,0-1.58,0-2.38a1.38,1.38,0,0,1,.75-1.26H55.23c1.32,0,1.58.31,1.63,1.64,0,1.06-.31,2.2.77,3,.36.28.18.91.18,1.39q0,9.16,0,18.35a18.51,18.51,0,0,1,0,8.18c0,2.63,0,5.27-.05,7.9,0,.74.25,1,1,1s1.68,0,2.51,0,1.3.44,1.32,1.29c0,.56,0,1.12,0,1.68a1.33,1.33,0,0,0,.52,1.33c.63.44.65,3.94.12,4.46a1.82,1.82,0,0,1-1.34.38l-5,0-15-.05c-2.47,0-2.48,0-2.5-2.43,0-.75.25-1.55-.69-2.08-.44-.24-.35-3.71-.06-4.21s.66-.4,1.05-.4c1.16,0,2.32,0,3.47,0,.69,0,1-.12,1-.91-.06-3,0-6.06-.06-9.1q0-4.2,0-8.4c-.65-1.22-.21-2.54-.33-3.81.09-2.76,0-5.52,0-8.27,0-1.5,0-1.51-1.56-1.52-.36,0-.72,0-1.08,0C40.46,144.87,40,144.54,40.3,143.75Z" transform="translate(-6.86 -30.89)"/><path class="cls-4" d="M30.23,192.71a8.35,8.35,0,0,1,8.57,8.42c0,4.72-3.68,8.28-8.72,8.35A8.59,8.59,0,0,1,21.61,201,8.44,8.44,0,0,1,30.23,192.71Z" transform="translate(-6.86 -30.89)"/><path class="cls-5" d="M210.45,186.16a7.25,7.25,0,0,0,3-3.6c.88-1.92,1.87-3.79,2.82-5.68,3.48-.83,6.62-.26,9.08,2.49a7.78,7.78,0,0,1,1.51,8.69,7.93,7.93,0,0,1-7.06,5.16A8.38,8.38,0,0,1,210.45,186.16Z" transform="translate(-6.86 -30.89)"/><path class="cls-6" d="M126.72,50.87h93.6c-1.5.5-3,.09-4.58.23-.49.05-1-.2-1.45.29-.48,0-.95-.11-1.43-.11h-79.3c-.44,0-.88,0-1.31.07-.76-.51-1.61-.14-2.41-.25C128.8,51,127.72,51.42,126.72,50.87Z" transform="translate(-6.86 -30.89)"/><path class="cls-7" d="M205.64,135.34c-1.25,2.59-2.31,5.26-3.8,7.73-.27.11-.51.15-.5-.27a55.86,55.86,0,0,0-.53-7.2c-.08-.57,0-.73.54-.73Z" transform="translate(-6.86 -30.89)"/><path class="cls-8" d="M214.06,91.47l-20.61,0c-.06,0-.09-.11-.07-.16s0-.09.06-.09c2.82,0,5.65,0,8.47-.06,1.59,0,3.17-.09,4.76-.14,1.89.45,3.8.07,5.7.21C212.94,91.25,213.57,91,214.06,91.47Z" transform="translate(-6.86 -30.89)"/><path class="cls-6" d="M220.33,50.88c0-2.48,0-5,0-7.44.5,1.29.2,2.64.2,4C220.55,48.56,220.84,49.75,220.33,50.88Z" transform="translate(-6.86 -30.89)"/><path class="cls-9" d="M190.58,185.77v-1.19a1.63,1.63,0,0,1,.19,1.19h-.19Z" transform="translate(-6.86 -30.89)"/><path class="cls-10" d="M102.84,47.93c-5.23,0-10.47,0-15.7,0-.94,0-1.23-.21-1.18-1.16.09-2-.23-1.82,1.77-1.82q15.22,0,30.44,0c.5,0,1.23-.28,1.43.25a4.27,4.27,0,0,1,0,2.48c-.11.42-.71.21-1.09.21Z" transform="translate(-6.86 -30.89)"/><path class="cls-10" d="M45.85,45H60.72c2,0,1.64-.25,1.74,1.71,0,1-.26,1.27-1.26,1.27q-15.35-.06-30.7,0c-1.33,0-1.25-.61-1.25-1.51s-.08-1.54,1.25-1.52C35.61,45,40.73,45,45.85,45Z" transform="translate(-6.86 -30.89)"/><path class="cls-11" d="M74.4,127.46c-3.08,0-6.16,0-9.23,0-.83,0-1.19-.2-1.07-1.06a4.79,4.79,0,0,0,0-1.07c0-.56.16-.78.74-.78q9.6,0,19.19,0c.55,0,.82.18.77.76a4.31,4.31,0,0,0,0,1c.14.94-.22,1.23-1.17,1.21C80.55,127.42,77.47,127.46,74.4,127.46Z" transform="translate(-6.86 -30.89)"/><path class="cls-11" d="M40.08,127.46c-3.12,0-6.24,0-9.36,0-.87,0-1.11-.18-.86-1.08.49-1.8.44-1.82,2.28-1.82,5.88,0,11.76,0,17.64,0,.91,0,1.19.13.9,1.1-.65,2.12,0,1.78-2.32,1.8C45.6,127.47,42.84,127.46,40.08,127.46Z" transform="translate(-6.86 -30.89)"/><path class="cls-11" d="M108.48,124.57h9.24c.38,0,.86-.13,1,.4a18.81,18.81,0,0,1,.46,2.33c0,.18-.4.14-.63.14h-19c-.58,0-.9-.16-1-.76a5,5,0,0,0-.31-1.28c-.31-.76,0-.86.7-.86C102.17,124.58,105.33,124.57,108.48,124.57Z" transform="translate(-6.86 -30.89)"/><path class="cls-12" d="M91.81,63.63c1.56,0,3.12,0,4.68,0,.59,0,.83.16.88.8.21,3,.1,3.17-2.89,3.23-2.43,0-4.87,0-7.31,0-.71,0-1-.19-1-.94-.06-3.11-.09-3.11,3-3.11Z" transform="translate(-6.86 -30.89)"/><path class="cls-12" d="M57,79.46c1.51,0,3,0,4.54,0,.65,0,.89.16.91.86.11,3.17.13,3.17-3,3.17-2.39,0-4.78,0-7.17,0-.66,0-.89-.18-.91-.87-.1-3.17-.13-3.17,3-3.17Z" transform="translate(-6.86 -30.89)"/><path class="cls-13" d="M56.88,63.63c1.55,0,3.11,0,4.66,0,.65,0,.89.17.91.87.11,3.18.14,3.18-3,3.18-2.35,0-4.71,0-7.06,0-.75,0-1-.17-1-1,0-3.06-.06-3.06,3-3.06Z" transform="translate(-6.86 -30.89)"/><path class="cls-2" d="M91.8,79.46c1.56,0,3.12,0,4.67,0,.68,0,.9.26.92.92.06,2.34-.67,3.13-3,3.13s-4.72,0-7.07,0c-.92,0-1.15-.31-1.15-1.18,0-2.88,0-2.87,2.85-2.87Z" transform="translate(-6.86 -30.89)"/><path class="cls-12" d="M91.61,78c-1.55,0-3.11-.06-4.66,0-.85,0-1.06-.28-1-1a3.29,3.29,0,0,0,0-.83c-.11-.83.21-1.09,1.06-1.08q4.66.07,9.33,0c.82,0,1.07.28,1,1a6.49,6.49,0,0,0,0,1.08c.06.64-.24.82-.84.81C94.88,78,93.25,78,91.61,78Z" transform="translate(-6.86 -30.89)"/><path class="cls-12" d="M91.61,62.2c-1.52,0-3-.07-4.55,0-1,.06-1.21-.29-1.09-1.14a2.48,2.48,0,0,0,0-.72c-.12-.84.22-1.08,1.06-1.07,3.07,0,6.14.05,9.21,0,.93,0,1.23.3,1.12,1.17a4.31,4.31,0,0,0,0,.95c.06.65-.25.82-.85.81C94.88,62.18,93.24,62.2,91.61,62.2Z" transform="translate(-6.86 -30.89)"/><path class="cls-12" d="M56.61,62.2c-1.55,0-3.11,0-4.66,0-.59,0-.82,0-.83-.72,0-2.19-.08-2.19,2.08-2.19,2.71,0,5.42,0,8.13,0,.91,0,1.25.25,1.11,1.14a3.37,3.37,0,0,0,0,.84c.09.72-.18,1-.93,1C59.88,62.16,58.25,62.2,56.61,62.2Z" transform="translate(-6.86 -30.89)"/><path class="cls-13" d="M56.7,78c-1.56,0-3.11,0-4.67,0-.65,0-.9-.12-.91-.83,0-2.07-.07-2.07,2-2.07,2.71,0,5.43,0,8.14,0,1,0,1.36.32,1.21,1.29a3.29,3.29,0,0,0,0,.83c.08.65-.23.82-.83.81C60,78,58.34,78,56.7,78Z" transform="translate(-6.86 -30.89)"/><path class="cls-10" d="M118,86.58c.23,2.37-2.28,6-4.32,6.49-.37.09-.51,0-.59-.36-.12-.54-.26-1.08-.4-1.62-.08-.32,0-.52.31-.64A9.83,9.83,0,0,0,118,86.58Z" transform="translate(-6.86 -30.89)"/><path class="cls-12" d="M35.6,91c-.09,1-.05,2.41-.75,2.71-1,.42-2.34.14-3.54.15-.29,0-.41-.19-.41-.46s0-.4,0-.6c0-2.17-.22-1.76,1.73-1.8C33.61,91,34.6,91,35.6,91Z" transform="translate(-6.86 -30.89)"/><path class="cls-14" d="M88,93.85a4.21,4.21,0,0,0-.71,0c-1,.2-1.48-.2-1.28-1.26.09-.52-.3-1.36.24-1.51a9.08,9.08,0,0,1,2.71,0,7.14,7.14,0,0,1,.78,2.75,14.27,14.27,0,0,1-1.73,0Z" transform="translate(-6.86 -30.89)"/><path class="cls-12" d="M58.77,93.3c0-.12,0-.24,0-.35.39-2,1.18-2.49,3.2-2a.5.5,0,0,1,.43.46c.44,1.87,0,2.42-1.92,2.43H59.32C58.77,94.05,58.61,93.83,58.77,93.3Z" transform="translate(-6.86 -30.89)"/><path class="cls-15" d="M58.77,93.3a.55.55,0,0,0,.55.56c-.18.17-.44.3-.63.16S58.6,93.53,58.77,93.3Z" transform="translate(-6.86 -30.89)"/><path class="cls-1" d="M166.35,169.47q0,4.92,0,9.84c0,4.36-2.56,7-7,7.1-3.64.07-7.28,0-10.92,0-1.37,0-1.68-.34-1.73-1.69a5.29,5.29,0,0,0-.69-3.09c-.71-1.07-.38-2.63-.1-4,.11-.54.59-.57,1-.57,1.32,0,2.64,0,4,0,.88,0,1.23-.37,1.22-1.22,0-1.92,0-3.84-.06-5.75a9.9,9.9,0,0,1-.26-3.55c-.06-1.46-.14-1.58-1.57-1.59-2.59,0-5.18,0-7.77,0a1.59,1.59,0,0,0-1.81,1.44c-.34,1.33-.4,2.77-1.24,4-1.12,4.31-2.21,8.63-3.35,12.93-.84,3.23-.11,3.14-4,3.13-2.67,0-5.34,0-8,0-1.68,0-1.9-.3-1.5-1.92l.24-.92c.17-.66.4-1.25-.69-1.37-.91-.09-.77-.84-.6-1.5l2.43-9.6a5.52,5.52,0,0,0,.1-.71c-.28-.86.19-1.63.33-2.44a14.65,14.65,0,0,1,.52-1.83c.26-.86-.06-1.2-.91-1.16-.32,0-.64,0-1,0-1.74-.08-2.33-1.07-1.62-2.75a2,2,0,0,0-.62-2c-.67-.57-.28-1.59-.29-2.41s-.36-2.08,1-2.46c.08,0,.11-.27.16-.42a2.21,2.21,0,0,0-.41-.14c-1.84-.33-1.9-.45-1.17-2.21,2.38-5.71,4.77-11.41,7.11-17.13a1.85,1.85,0,0,1,2-1.3c3.44,0,6.88,0,10.31,0,1.6,0,1.85.39,1.28,1.88a7.57,7.57,0,0,0-.79,2.11c2.36.26,2.42.4,1.46,2.66q-2.9,6.83-5.75,13.68a1.28,1.28,0,0,0-.18,1h14.24c1,0,2.09-.06,3.12,0s1.05-.22.7-1.05c-2-4.59-3.88-9.19-5.8-13.79a3.53,3.53,0,0,1-.39-2.27c.14-.65-.47-1.47-.76-2.21-.64-1.62-.39-2,1.35-2l10.07,0a1.35,1.35,0,0,1,2,.58,60.08,60.08,0,0,1,3.13,7.62.39.39,0,0,1-.05.23q2.06,4.95,4.09,9.91a2.84,2.84,0,0,1,.33,2.15c-.19.62.36,1.26.62,1.87.88,2.09.7,2.38-1.6,2.38-.12,0-.25,0-.36,0-.3,0-.7-.14-.87.19s.23.5.45.68c.5.42.38,1,.45,1.56.06.14,0-.06.06.09A20.4,20.4,0,0,1,166.35,169.47Z" transform="translate(-6.86 -30.89)"/><path class="cls-1" d="M119.32,170.42c0,2,0,3.91,0,5.87a9.85,9.85,0,0,1-9.9,9.91c-9,0-18.07,0-27.11,0-1.33,0-1.58-.28-1.64-1.61a5,5,0,0,0-.69-3.09c-.71-1-.41-2.63-.08-3.95.16-.64.85-.47,1.35-.47,6.44,0,12.87-.08,19.31,0,3.16,0,5.36-1.43,5.07-5.05,0-.56,0-1.12,0-1.68a6.51,6.51,0,0,1-.32-3.06c0-1.47-.11-1.57-1.57-1.58q-10,0-19.9,0c-3.22,0-3.4-.18-3.52-3.34a5.22,5.22,0,0,0-.08-1.31,1.84,1.84,0,0,1-.48-1.54c0-7.47,0-14.94,0-22.42,0-1.14.42-1.54,1.56-1.54q17.81,0,35.61,0c1.18,0,1.51.48,1.52,1.59a4.43,4.43,0,0,0,.67,3.06c.75,1,.42,2.7.08,4-.16.64-.85.47-1.35.47H95c-1.79,0-1.55-.22-1.56,1.61,0,2.76.06,5.52,0,8.28,0,1.19.36,1.44,1.48,1.43,7.12-.05,14.23,0,21.34,0,2,0,2.12.15,2.13,2.09,0,.92-.17,1.86.76,2.57.42.32.13,1,.24,1.5a1.51,1.51,0,0,1,.32.88q.08,3.22,0,6.43A1.51,1.51,0,0,1,119.32,170.42Z" transform="translate(-6.86 -30.89)"/><path class="cls-1" d="M153.15,91.92c-.17.86-.37,1.72-.5,2.59-.08.5-.59,1.16.51,1.31.41.06.19.62.13,1l-4.8,24.29c-.3,1.53-.63,3-.88,4.58-.13.79-.4,1.15-1.29,1.15-6.2-.05-12.4,0-18.6,0-.72,0-1.16-.06-.85-1a21.39,21.39,0,0,0,.39-2.12c.11-.57.47-1.15-.55-1.31-.41-.06-.13-.54-.08-.83l5.52-28c.13-.66.24-1.33.36-2,.31-.28.69-.15,1-.15q9.28,0,18.56,0C152.49,91.34,153.23,91,153.15,91.92Z" transform="translate(-6.86 -30.89)"/><path class="cls-3" d="M80.16,161.09c.67.2.48.76.47,1.2-.06,3.32.08,3,3.11,3,6.86,0,13.72,0,20.58,0,1,0,1.37.21,1.29,1.24-.1,1.27,0,2.55-.06,3.83a2.31,2.31,0,0,0-1.16-.21c-3.42-.09-6.84,0-10.27-.19-4.29-.26-8.6-.16-12.9-.34-1.7-.07-3.41-.22-5.12-.21-.75-.53-.69-1.4-.87-2.15-.38-1.64-.55-1.8-2.26-1.81H66.15c-1.87,0-2,.19-1.75,2,.06.42.25.87-.12,1.25l-6.43-.48c0-2.73,0-5.45,0-8.18,4.7.38,9.42.54,14.13.92,2.45.19,4.93.1,7.39.3A.89.89,0,0,0,80.16,161.09Z" transform="translate(-6.86 -30.89)"/><path class="cls-11" d="M193.44,91.2v.25c0,.28.06.55.08.83.69,9.23,3.22,18.14,4.72,27.22a.42.42,0,0,1,0,.12,1,1,0,0,1-.15.14c-.17-.56-.34-1.12-.52-1.67a76.91,76.91,0,0,0-12.24-23.77c-.13-3.17-.13-3.17,3-3.17Z" transform="translate(-6.86 -30.89)"/><path class="cls-3" d="M163.23,142.55c-1-2.26-2-4.49-2.87-6.79-.43-1.11-1-1.76-2.24-1.64a4.5,4.5,0,0,1,5.75-3.2,6,6,0,0,1,4.24,4.74,5.49,5.49,0,0,1-1.6,5.67A5.16,5.16,0,0,1,163.23,142.55Z" transform="translate(-6.86 -30.89)"/><path class="cls-3" d="M119.32,170.42v-8.2h2.11c0,2.64.08,2.45,2.56,2.45,1.66,0,1.67,0,1.24,1.62-.37,1.38-.77,2.75-1.16,4.12Z" transform="translate(-6.86 -30.89)"/><path class="cls-16" d="M166.35,169.47q0-4.09,0-8.18c1-.12,2,.21,2.89-.24,1.1.72,1,1.84,1,2.93a29.09,29.09,0,0,1-.24,5.44Z" transform="translate(-6.86 -30.89)"/><path class="cls-17" d="M153.15,91.92c-.06-.5-.43-.48-.8-.48l-19.84,0c0-.18,0-.35,0-.53a2.54,2.54,0,0,0,1.51.22l19.35,0C153.35,91.45,153.4,91.73,153.15,91.92Z" transform="translate(-6.86 -30.89)"/><path class="cls-18" d="M201.34,142.8l.5.27a3.42,3.42,0,0,1-.53,1.38A1.54,1.54,0,0,1,201.34,142.8Z" transform="translate(-6.86 -30.89)"/><path class="cls-1" d="M64.28,168.72c-.14-.7-.29-1.39-.42-2.09-.16-.92.15-1.49,1.16-1.49h9a1.26,1.26,0,0,1,1.4,1.16c.2,1,.48,2.09.72,3.13,1,4.44,1.92,8.88,2.85,13.32.29,1.39,0,1.73-1.43,1.74-2.8,0-5.6,0-8.4,0a1.52,1.52,0,0,1-1.71-1.42C66.41,178.29,65.33,173.51,64.28,168.72Z" transform="translate(-6.86 -30.89)"/><path class="cls-16" d="M139.42,170.37c.4-1.7.82-3.4,1.19-5.1.11-.53.39-.61.83-.61,3.27,0,6.54,0,9.8,0,.68,0,.92.29.9.94,0,1.51,0,3-.07,4.54-2.28,0-4.57,0-6.85,0C143.29,170.2,141.35,170.3,139.42,170.37Z" transform="translate(-6.86 -30.89)"/><path class="cls-19" d="M179,186.24c.41-1.09.12-2.25.46-3.36V186Z" transform="translate(-6.86 -30.89)"/><path class="cls-11" d="M155.28,63.12l30.1,0c1.84,0,3.68,0,5.52,0,.69,0,.88.22.87.89,0,4.2,0,8.39,0,12.59a2.58,2.58,0,0,1-2.52,2.69c-6.36,0-12.71.14-19.07,0a18.71,18.71,0,0,1-3.07-2.06A75.89,75.89,0,0,0,156.67,71a2.16,2.16,0,0,1-1.53-2.44C155.32,66.78,155,64.94,155.28,63.12Z" transform="translate(-6.86 -30.89)"/><path class="cls-11" d="M173.28,58.76c5.75,0,11.5,0,17.25,0,1,0,1.31.24,1.25,1.25-.11,1.95.22,1.66-1.65,1.66-11.38,0-22.76,0-34.14,0-1.29,0-1.18-.6-1.18-1.43s-.16-1.55,1.21-1.53C161.77,58.82,167.53,58.76,173.28,58.76Z" transform="translate(-6.86 -30.89)"/><path class="cls-11" d="M183.62,121.22a8,8,0,0,1-7.73,6.16c-7,0-14.07,0-21.1,0-.74,0-1.16-.15-1-1a2,2,0,0,0,0-.6c-.16-1,.2-1.36,1.29-1.35,6.59,0,13.19,0,19.78,0a10,10,0,0,0,8.52-4C184,120.54,183.68,120.92,183.62,121.22Z" transform="translate(-6.86 -30.89)"/><path class="cls-13" d="M147.67,89.73c-4.2,0-8.4,0-12.59,0-1,0-1.26-.3-1.16-1.21s-.37-1.76,1.24-1.75q12.59.13,25.17,0c1.34,0,1.24.63,1.24,1.52s.05,1.46-1.2,1.44C156.14,89.67,151.9,89.73,147.67,89.73Z" transform="translate(-6.86 -30.89)"/><path class="cls-2" d="M155.28,63.12c0,1.91,0,3.83,0,5.74a1.51,1.51,0,0,0,1,1.62,75.74,75.74,0,0,1,13.13,8,2,2,0,0,1,.75.74l-14.37.06c-.48,0-.74-.14-.74-.67q0-7.55,0-15.1A.35.35,0,0,1,155.28,63.12Z" transform="translate(-6.86 -30.89)"/><path class="cls-11" d="M212.9,83.3a8,8,0,0,1-7.75,6.41c-6.39,0-12.78,0-19.17,0-.83,0-1-.29-.94-1a2.48,2.48,0,0,0,0-.72c-.14-.93.21-1.21,1.17-1.2,6,0,12.06,0,18.09,0a9.55,9.55,0,0,0,8.38-4.24C213.26,82.65,212.93,83,212.9,83.3Z" transform="translate(-6.86 -30.89)"/><path class="cls-20" d="M183.62,121.22c-.07-.26,0-.58-.27-.75l.42-.75A1.92,1.92,0,0,1,183.62,121.22Z" transform="translate(-6.86 -30.89)"/><path class="cls-21" d="M212.9,83.3c-.09-.24.06-.55-.23-.71.05-.18.23-.46.34-.33A.83.83,0,0,1,212.9,83.3Z" transform="translate(-6.86 -30.89)"/><path class="cls-11" d="M188.16,171c0,3,0,6,0,9,0,.86-.16,1.2-1.11,1.17-2-.08-4-.07-6,0-.89,0-1.16-.22-1.15-1.14,0-5.87,0-11.75,0-17.63,0-1.87-.16-2-2.06-2-2.12,0-4.24-.05-6.35,0-1.11,0-.83-.69-.85-1.28s-.15-1.17.85-1.13c2.32.07,4.64,0,7,0,1,0,1.52-.39,1.44-1.39-.05-.7.23-.88.89-.87q3.24.06,6.48,0c.69,0,.92.22.86.89-.1,1,.44,1.39,1.44,1.37,2.24,0,4.48,0,6.72,0,1.11,0,.95.6,1,1.29s0,1.17-1,1.14c-2.11-.07-4.23,0-6.35,0-1.64,0-1.81.15-1.81,1.75Z" transform="translate(-6.86 -30.89)"/><path class="cls-11" d="M216,145c5.07.85,10.16,1.63,15,3.58a6.65,6.65,0,0,1,1.06.55c2.31,1.44,2.32,2.65-.1,3.94-3,1.59-6.3,2.24-9.58,2.94-1.05.22-2.12.39-3.17.6-.39.09-.78.23-1.13-.09.82-1.88.81-1.88-1.85-2.27.39-.81.8-1.58,1.14-2.38.45-1,.16-1.51-1-1.57-.92,0-1.83,0-3,0Z" transform="translate(-6.86 -30.89)"/><path class="cls-11" d="M215.81,135.89l-1.24,2.58c-1.24,2.58-2.5,5.16-3.73,7.75a4.07,4.07,0,0,1-4,2.53c-2.07,0-4.15,0-6.22,0-.67,0-1.14-.09-1-.89.12-.57-.5-1.54.84-1.49a2.38,2.38,0,0,0,2.26-1.65c1.2-2.56,2.49-5.08,3.63-7.67a1.76,1.76,0,0,1,2-1.2C210.78,135.94,213.2,135.89,215.81,135.89Z" transform="translate(-6.86 -30.89)"/><path class="cls-11" d="M215.83,168.26c-1.38,2.87-2.89,5.48-3.91,8.27-1.34,3.68-3.74,5.11-7.54,4.62a23.8,23.8,0,0,0-4,0c-.81,0-.85-.46-.75-1s-.47-1.38.72-1.36a2.48,2.48,0,0,0,2.37-1.68c1.24-2.68,2.57-5.32,3.81-8a1.27,1.27,0,0,1,1.35-.85C210.48,168.29,213,168.26,215.83,168.26Z" transform="translate(-6.86 -30.89)"/><path class="cls-11" d="M215.85,151.71c-1.85,3.78-3.56,7.38-5.37,10.93a3.29,3.29,0,0,1-3,1.8c-2.32,0-4.63,0-7,0-.61,0-1-.19-.81-.81s-.53-1.47.73-1.48a2.53,2.53,0,0,0,2.37-1.7c1.24-2.68,2.56-5.32,3.84-8,.2-.43.35-.82,1-.81C210.28,151.73,213,151.71,215.85,151.71Z" transform="translate(-6.86 -30.89)"/><path class="cls-11" d="M193.4,163.66c3.08,0,3,0,3.17,3q.28,6.63.7,13.28c0,.86-.11,1.23-1.07,1.17a39.66,39.66,0,0,0-4.08,0c-.67,0-.89-.22-.92-.88-.19-3.87-.42-7.74-.63-11.61-.08-1.39-.13-2.79-.24-4.18-.05-.64.16-.86.79-.83S192.64,163.66,193.4,163.66Z" transform="translate(-6.86 -30.89)"/><path class="cls-11" d="M174.85,163.66h1c2.13,0,2.11,0,2,2.09-.3,4.78-.61,9.57-.86,14.35,0,.84-.29,1.09-1.11,1-1.39-.06-2.79,0-4.19,0-.63,0-.83-.2-.79-.84q.49-7.95,1-15.9c0-.56.22-.77.78-.74C173.33,163.68,174.09,163.66,174.85,163.66Z" transform="translate(-6.86 -30.89)"/><path class="cls-11" d="M184.15,153.11c-1,0-2.26.37-2.92-.1s-.26-1.87-.33-2.85c-.17-2.51-.26-5-.44-7.54-.06-.81.19-1,1-1,1.48,0,3,0,4.44,0,.58,0,.84.12.88.78q.27,5,.65,9.93c.05.7-.18.93-.86.89s-1.6,0-2.4,0Z" transform="translate(-6.86 -30.89)"/><path class="cls-11" d="M174.83,153.19c-.8,0-1.6,0-2.39,0-.64,0-.81-.24-.84-.84-.14-3.23-.29-6.46-.5-9.69-.06-.86.21-1.1,1.05-1.06,1.4.06,2.8,0,4.2,0,.7,0,1.06.09,1.1.94.14,3.32.35,6.62.56,9.93,0,.52-.13.73-.66.72C176.51,153.18,175.67,153.19,174.83,153.19Z" transform="translate(-6.86 -30.89)"/><path class="cls-11" d="M193,153.19c-.79-.11-2,.44-2.69-.21s0-1.82,0-2.76c.1-2.6.32-5.19.45-7.78,0-.6.18-.84.82-.83q2.34.06,4.68,0c.64,0,.83.21.8.84q-.29,5-.52,10.06c0,.51-.22.7-.72.69C195,153.18,194.08,153.19,193,153.19Z" transform="translate(-6.86 -30.89)"/><path class="cls-11" d="M184,138.52c-4.08,0-8.15,0-12.22,0-.85,0-1.09-.25-1.07-1.08s0-1.24,1.06-1.23q12.27.06,24.55,0c1,0,1,.45,1.06,1.22s-.17,1.11-1.05,1.1C192.17,138.49,188.06,138.52,184,138.52Z" transform="translate(-6.86 -30.89)"/><path class="cls-12" d="M199.16,169.21c.11.77.69.77,1.26.77h4.19c-1.2,2.44-2.29,4.71-3.43,7-.32.63-1,.41-1.52.37s-.41-.6-.43-.95c-.1-2.39-.18-4.78-.26-7.17C199,169.09,199.1,169.09,199.16,169.21Z" transform="translate(-6.86 -30.89)"/><path class="cls-12" d="M200.16,154.32c1.07,0,2.15,0,3.22,0,.56,0,.73.16.46.7a34.35,34.35,0,0,1-2,3.91,1.45,1.45,0,0,1-.87.32c-1.71.16-2-.1-1.69-1.76C199.46,156.38,199.28,155.19,200.16,154.32Z" transform="translate(-6.86 -30.89)"/><path class="cls-22" d="M200.16,154.32c-.25,1.28-.47,2.58-.77,3.85-.13.55,0,.74.53.72s1.28,0,1.91,0a.27.27,0,0,1,0,.2,2.86,2.86,0,0,1-3,0l.21-4.28c.21-.29,0-.69.21-1Z" transform="translate(-6.86 -30.89)"/><path class="cls-23" d="M198.78,159.11l3,0c-.16.36-.3.73-.49,1.08-.48.86-1.29.7-2,.53C198.39,160.48,198.8,159.7,198.78,159.11Z" transform="translate(-6.86 -30.89)"/><path class="cls-24" d="M198.78,167.5a1.34,1.34,0,0,0-.77-1.36c1.18-.45,1.22-.4,1.14,1.18C199.07,167.47,199,167.57,198.78,167.5Z" transform="translate(-6.86 -30.89)"/><path class="cls-25" d="M198.78,167.5l.37-.18c0,.63,0,1.26,0,1.89H199A4.08,4.08,0,0,1,198.78,167.5Z" transform="translate(-6.86 -30.89)"/><path class="cls-26" d="M199.2,153.85c0,.33,0,.69-.21,1v-2C199.33,153.16,199.15,153.53,199.2,153.85Z" transform="translate(-6.86 -30.89)"/><path class="cls-22" d="M189.15,144.5c0,.12,0,.34-.24.19a2.55,2.55,0,0,1-.41-.5.87.87,0,0,1,.27-.14C189.06,144,189.15,144.23,189.15,144.5Z" transform="translate(-6.86 -30.89)"/><path class="cls-27" d="M189.67,154.81a1.66,1.66,0,0,1,0,1.41Z" transform="translate(-6.86 -30.89)"/><path class="cls-11" d="M173.48,49.46q-21.94,0-43.89,0c-.48,0-1.24.3-1.39-.27a8.17,8.17,0,0,1,0-2.37c0-.22.3-.22.5-.22h88.74c.49,0,1.27-.28,1.42.23a7.48,7.48,0,0,1,.07,2.37c0,.24-.26.26-.46.27h-45Z" transform="translate(-6.86 -30.89)"/><path class="cls-12" d="M209.4,122.46c2.52,0,5,.05,7.56,0,1,0,1.31.32,1.45,1.23.25,1.7.29,1.7-1.47,1.7H201.83c-.36,0-.87.18-1-.39a5.19,5.19,0,0,1-.34-2.33c.08-.31.57-.17.88-.17Z" transform="translate(-6.86 -30.89)"/><path class="cls-11" d="M44.12,154.81v3.85a32.68,32.68,0,0,1-6.17-.53c-4.11-.52-8.22-1.06-12.29-1.86a52.26,52.26,0,0,1-9.92-2.66c-.26-.11-.53-.2-.77-.33-1-.56-2.23-1-2.2-2.29s1.29-1.77,2.28-2.23a40.54,40.54,0,0,1,8.7-2.6c4.8-1,9.66-1.59,14.51-2.29.67-.1,1.36-.08,2-.12.09.46.23.87.74,1a1.43,1.43,0,0,0,.58.07c1.9,0,1.83,0,2,1.89Z" transform="translate(-6.86 -30.89)"/><path class="cls-11" d="M55.41,157.54q0,9.66,0,19.31c0,1.48.16,1.64,1.66,1.65,1.12,0,2.24,0,3.35,0s.71.65.72,1.16.2,1-.69,1q-9.89,0-19.79,0c-.94,0-.75-.57-.76-1.1s-.13-1.15.79-1.1c1.12,0,2.24,0,3.36,0s1.54-.39,1.54-1.47q0-18.18,0-36.34c0-1-.43-1.48-1.45-1.44s-1.76,0-2.64,0-.65-.69-.68-1.18-.16-1,.71-1q6.59,0,13.19,0c.89,0,.68.58.68,1.05,0,4.88,0,9.76,0,14.64C55.4,154.35,55.4,156,55.41,157.54Z" transform="translate(-6.86 -30.89)"/><path class="cls-28" d="M44.12,154.81c-.23-1.68-.51-3.36-.66-5a22.8,22.8,0,0,1-.27-4c.05-.57-.21-.77-.77-.77s-1,.16-1.38-.19c3.11-.18,3.11-.18,3.11,2.84Z" transform="translate(-6.86 -30.89)"/><path class="cls-11" d="M123,180.89c1-3.87,1.92-7.62,2.86-11.36l2.22-8.7c.32-1.3.06-1.64-1.34-1.66s-2.64,0-4,0c-1,0-.75-.68-.78-1.22s-.08-1.09.81-1.08c3,.05,6,0,9,0,10.28,0,20.56,0,30.83,0,1,0,1.34.23,1.33,1.31-.06,5.75,0,11.51,0,17.27,0,3.18-1.74,5.23-4.88,5.36-3.71.16-7.43,0-11.15.07-1,0-.63-.73-.65-1.19s-.29-1.2.69-1.17,2.08,0,3.11,0c1.65,0,2.51-.77,2.53-2.39,0-5.19,0-10.39,0-15.59a1.21,1.21,0,0,0-1.39-1.38c-4.12,0-8.24,0-12.36,0-1.09,0-1.28.74-1.48,1.54-1.55,6.19-3.15,12.37-4.62,18.58-.31,1.32-.84,1.68-2.14,1.64C128.76,180.81,126,180.89,123,180.89Z" transform="translate(-6.86 -30.89)"/><path class="cls-11" d="M166.11,153.33h-10a.84.84,0,0,1-.92-.57c-2.36-5.66-4.74-11.32-7.2-17.16,2.37,0,4.59,0,6.8,0,1.31,0,2.91-.52,3.86.21s1.09,2.23,1.59,3.41q2.67,6.34,5.32,12.69C165.75,152.33,165.89,152.74,166.11,153.33Z" transform="translate(-6.86 -30.89)"/><path class="cls-11" d="M139.48,135.61c-2.44,5.8-4.8,11.42-7.15,17-.17.39-.34.68-.85.68H121.39c1-2.48,2-4.82,3-7.17,1.34-3.24,2.7-6.47,4-9.71.21-.51.39-.87,1.08-.86C132.75,135.63,136,135.61,139.48,135.61Z" transform="translate(-6.86 -30.89)"/><path class="cls-11" d="M99,137.05h16.55c.76,0,1.44-.16,1.42,1.08s-.52,1.16-1.37,1.15c-7.52,0-15,0-22.55,0-1.82,0-2,.18-2,2,0,4.83,0,9.67,0,14.51,0,1.64.14,1.78,1.78,1.78,7.63,0,15.27,0,22.91,0,.92,0,1.22.22,1.2,1.18-.05,4.48,0,9,0,13.44a8.36,8.36,0,0,1-8.59,8.54c-8.67,0-17.35,0-26,0-.84,0-1.18-.14-1.18-1.1s.29-1.12,1.16-1.11c6.2,0,12.4,0,18.6,0,4.1,0,6.18-2.09,6.18-6.2,0-3.64,0-7.28,0-10.92,0-1.41-.19-1.6-1.58-1.6-7.68,0-15.36,0-23,0-1.07,0-1.32-.28-1.32-1.33q.07-10.12,0-20.27c0-.94.24-1.19,1.18-1.19C87.84,137.07,93.4,137.05,99,137.05Z" transform="translate(-6.86 -30.89)"/><path class="cls-12" d="M137.3,125.36c-2.64,0-5.28,0-7.92,0-.79,0-1.13-.16-.8-1a4.64,4.64,0,0,0,.2-1c.06-.63.35-.87,1-.87q8,0,16.06,0c.74,0,.93.28.77.93a3,3,0,0,0-.18.82c0,1-.57,1.2-1.47,1.18C142.41,125.32,139.85,125.36,137.3,125.36Z" transform="translate(-6.86 -30.89)"/><path class="cls-11" d="M65.32,166.59c2.71,0,5.35,0,8,0,.55,0,.75.21.86.73q1.13,5.44,2.32,10.88c.14.62-.07.77-.65.77-2.39,0-4.79,0-7.18,0-.54,0-.81-.18-.92-.7C66.94,174.4,66.14,170.54,65.32,166.59Z" transform="translate(-6.86 -30.89)"/></svg>