<svg id="圖層_1" data-name="圖層 1" xmlns="http://www.w3.org/2000/svg" viewBox="0 0 203.88 186.52"><defs><style>.cls-1{fill:#f6ea9a;}.cls-2{fill:#ad3eb4;}.cls-3{fill:#fee13f;}.cls-4{fill:#f3c352;}.cls-5{fill:#c84b80;}.cls-6{fill:#ef9c4b;}.cls-7{fill:#e47373;}.cls-8{fill:#e89191;}.cls-9{fill:#e89292;}.cls-10{fill:#e7b1c8;}.cls-11{fill:#fefefe;}.cls-12{fill:#eac294;}.cls-13{fill:#f2c054;}.cls-14{fill:#fdfbfd;}.cls-15{fill:#fbf7fb;}.cls-16{fill:#efbc57;}.cls-17{fill:#e1a06b;}.cls-18{fill:#d4887d;}.cls-19{fill:#fefdfe;}.cls-20{fill:#f1def2;}.cls-21{fill:#f4e69b;}.cls-22{fill:#f4e59b;}.cls-23{fill:#fcf9fc;}</style></defs><title>34</title><path class="cls-1" d="M188.84,189.92a11.08,11.08,0,0,1-3.2.12c-.84,0-1.22.24-1.08,1.08.19,1.12-.29,1.38-1.38,1.38q-63.39,0-126.78,0c-1.15,0-1.49-.27-1.47-1.45.06-4.64,0-9.27,0-13.91.59-.58,1.35-.41,2-.41H89.91c2.34,0,2.32,0,2.35-2.39a44,44,0,0,1,.1-5.26c.26-.78,1-.79,1.64-1.05a5.11,5.11,0,0,0,2.51-7.64,5.26,5.26,0,0,0-2.81-2.14c-.5-.2-1.12-.26-1.33-.91a8.13,8.13,0,0,1-.12-2V131.94c0-1.94,0-1.95-1.92-1.95H57.13a4.26,4.26,0,0,1-2.12-.25,1.9,1.9,0,0,1-.41-1.55c0-1.15-.06-2.3,0-3.45s1.21-2,2-2.77c1.8-1.87,3.51-3.82,5.34-5.65a2.69,2.69,0,0,1,1.25-.9,9.38,9.38,0,0,1,1.91-.09c6.75,0,13.5,0,20.25,0a14.67,14.67,0,0,0,4.93-.88,6.66,6.66,0,0,0,4.23-4.57,18.65,18.65,0,0,0,.87-5.55V81.56A17.9,17.9,0,0,0,94.49,76a6.74,6.74,0,0,0-2.57-3.66,1.53,1.53,0,0,1-.62-2.14,13.19,13.19,0,0,0,1-5.62c0-.6-.22-1.3.46-1.73l17.79,0c.48.22.51.69.6,1.11.38,1.8.72,3.6,1.2,5.38.26,1,.07,1.21-1,1.26a17.29,17.29,0,0,0-3,.43A5.5,5.5,0,0,0,104.27,75a7.09,7.09,0,0,0,.46,5.79c1.27,2.35,3.51,3,6,3.15,2.08.1,4.16,0,6.24,0A7.79,7.79,0,0,1,118,84c.89.12,1,.4.54,1.18a52.89,52.89,0,0,1-3.5,4.41,61.5,61.5,0,0,1-8,7.56,9,9,0,0,0-3.15,4.57,6.54,6.54,0,0,0,9,7.59c2-.82,3.47-2.4,5.14-3.7.34-.26.73-.94,1.23-.13a6.42,6.42,0,0,1,.14,1.9V125c0,2,0,2,2,2,1.56,0,3.11,0,4.67,0a2.83,2.83,0,0,1,1.51.27c.35.81-.45.7-.77.84a17,17,0,0,0-6.52,4.38c-3.54,4.12-5,8.84-3.8,14.23a5.79,5.79,0,0,0,5.92,4.5c2.79-.15,5.22-1.36,6.06-4.52a13.46,13.46,0,0,0,.37-2.61c.13-2,.79-3.8,2.86-4.6a5.47,5.47,0,0,1,5.84,1c1.95,1.66,2,5.11.16,7.42a7.59,7.59,0,0,1-5.93,3.13c-3.83.14-6,2.09-6.27,5.91a6.24,6.24,0,0,0,4.38,6.67,17.42,17.42,0,0,0,4.49.67,8.58,8.58,0,0,1,5.3,2c2.1,1.7,2.46,3.92,1.77,7a6.1,6.1,0,0,1-5.25,4.31c-1.82.1-3.68.3-5.41-.64a5.72,5.72,0,0,1-3.15-4.26c-.08-.56-.23-1.1-.34-1.65a6.48,6.48,0,0,0-12.67.06,9,9,0,0,0-.08,3.79,17.68,17.68,0,0,0,13.23,14.57,24.28,24.28,0,0,0,5.2.88c8.66.28,17.82-3.22,21-13a19.27,19.27,0,0,0,.72-9.94,15.4,15.4,0,0,0-6.35-9.81c-1.82-1.31-1.8-1.34-.32-3a16.88,16.88,0,0,0-.85-23,15.2,15.2,0,0,0-5.4-3.28,4.45,4.45,0,0,1-1.1-.47c-.39-.28-.29-.51.11-.68a5.07,5.07,0,0,1,1.55-.14h27.43a3.79,3.79,0,0,1,1.76.24.33.33,0,0,1,.18.38,2.49,2.49,0,0,1-1.49.69,4.57,4.57,0,0,0-3.53,3.68,16,16,0,0,0-.42,3.44q0,23.27,0,46.54a13.49,13.49,0,0,0,.52,3.79,4.52,4.52,0,0,0,3.34,3.29,11.4,11.4,0,0,0,3.08.37q7,0,13.91,0C187.68,189.48,188.36,189.32,188.84,189.92Z" transform="translate(-14.78 -33.56)"/><path class="cls-2" d="M119,105.16c-1.62,1.16-3,2.64-4.67,3.73-4.78,3.07-10.62.33-11.09-5.32a6.76,6.76,0,0,1,1.41-4.36c1.57-2.24,3.91-3.64,5.84-5.49a64.34,64.34,0,0,0,7.87-8.86c.11-.16.29-.29.18-.64-2.63,0-5.3.06-8,0-2.12-.07-4.13-.56-5.54-2.36a7.36,7.36,0,0,1-.77-7.91c1.15-2.62,3.55-3.4,6.21-3.54,1.73-.1,1.72-.08,1.32-1.8-.44-1.91-.86-3.82-1.28-5.73-.5-2.63-1.78-5.06-2.1-7.72A4.22,4.22,0,0,0,107,52.42c-2.09-2.06-2.31-4.73-1.51-7.46A5.51,5.51,0,0,1,110,41a19,19,0,0,1,3.68-.43c11.32-.17,22.59-.92,33.66-3.52a7.79,7.79,0,0,1,6.23.87c2.26,1.45,2.83,3.79,2.76,6.26a5.09,5.09,0,0,1-1.18,3.45c-.37.4-.2.84-.09,1.24a5,5,0,0,1,0,3,52,52,0,0,0,7.21-5.35,61.9,61.9,0,0,0,8.32-9.1c1.8-2.29,4.09-3.65,7.2-2.9a6.58,6.58,0,0,1,4.35,10A40.37,40.37,0,0,1,176,52.23c-1.78,1.9-3.78,3.56-5.67,5.33,0,.42-.35.61-.62.84a86.08,86.08,0,0,1-10.65,7.54c-2.12,1.24-4.35,2-6.86,1.16a6.36,6.36,0,0,1-1.7-.87c-.34-.25-.63-.32-.87.13-.65,1.18-1.43,2.28-2.17,3.51a5.21,5.21,0,0,0,1.85.15c2.56.13,5,.48,6.75,2.73.44.59.84.19,1.22-.07A41.81,41.81,0,0,0,163,68.06a73.61,73.61,0,0,0,8.6-9.48,2.63,2.63,0,0,1,1.07-.94,10.57,10.57,0,0,1,3.09-2c2.83-.9,5.09.13,7.17,1.94a5.11,5.11,0,0,1,2,5.17,11.09,11.09,0,0,1-2.37,5.29,75.19,75.19,0,0,1-17.28,16.59,70.5,70.5,0,0,1-6.87,4.37c-2.05,1.13-4.23,1.89-6.66,1.23a4.33,4.33,0,0,1-2.33-1.36.84.84,0,0,1-.26-.38c0,.2.19.29.3.43,1.87,2.2,3.79,4.34,4.44,7.29a5.37,5.37,0,0,1-.13,2.81,1.66,1.66,0,0,0,1.2-.44,53.78,53.78,0,0,0,11-8.43,54.7,54.7,0,0,0,6.87-8.15,15,15,0,0,1,3-3.58,7.17,7.17,0,0,1,10.39,9.67,70.7,70.7,0,0,1-8.06,10.26,70.35,70.35,0,0,1-15.83,12.94,54.27,54.27,0,0,1-14,6.16,6.48,6.48,0,0,1-7.91-3.54,7.07,7.07,0,0,1,2.32-9.16,2.72,2.72,0,0,0,.71-.61c-.72-.76-1.74-1.19-2.37-2.06s-1.22-1.68-1.8-2.63c0,4,0,7.88,0,11.79a8.09,8.09,0,0,1-1,4.15c-1.4,2.43-4,3.38-6.81,3.09-4.47-.46-6.33-3.37-6.46-7.4-.13-3.88,0-7.76,0-11.69-1.79,1.69-3.13,3.79-5.13,5.23A1.83,1.83,0,0,1,119,105.16Z" transform="translate(-14.78 -33.56)"/><path class="cls-3" d="M54.94,129.57l35.94,0c2,0,1.75-.24,1.76,1.81v26.25c-.32.39-.8.3-1.22.38a5.21,5.21,0,0,0,0,10.32c.42.08.9,0,1.22.38,0,2.36,0,4.71,0,7.07,0,1.05-.25,1.34-1.32,1.33q-17.43,0-34.85,0c-.52,0-1,0-1.55,0-2.92,0-5.83-.05-8.75,0-.81,0-1.09-.18-1.09-1q0-22.71,0-45.41c0-1,.31-1.17,1.16-1.09s1.44,0,2.16,0a1.71,1.71,0,0,1,1.31-.31c1.25,0,2.51-.05,3.76,0A2.07,2.07,0,0,1,54.94,129.57Z" transform="translate(-14.78 -33.56)"/><path class="cls-2" d="M92.76,62.88c-.13,2.06.19,4.22-.68,6.15-.75,1.69-.6,2.62,1,3.91,2.28,1.9,2.62,4.91,2.65,7.71.11,8.23.06,16.47,0,24.7a14,14,0,0,1-1.11,5.49c-1.62,3.75-5,4.72-8.56,4.79-7.19.14-14.39.05-21.59.05l-1.55,0c-1.48.66-3,.24-4.55.35-1.12-.13-2.31.3-3.38-.33-2.57-.12-5.11-.34-7.34-1.82s-3-4-3.47-6.57a31.71,31.71,0,0,1-.2-5.51c0-4-.05-8.08,0-12.11,0-1-.25-1.47-1.23-1.58a11,11,0,0,1-1.6-.43c0,.43,0,.84,0,1.26,0,7.32,0,14.63,0,22,0,2.17-.39,4.28-2.25,5.7a7.28,7.28,0,0,1-7.71.68c-2.41-1.05-3.23-3.25-3.31-5.68-.1-3.32,0-6.64,0-10,0-3.71,0-7.43,0-11.16-.53-.14-.7.33-1,.56a9.88,9.88,0,0,1-4.51,2.34,6.74,6.74,0,0,1-7.17-4.34,7,7,0,0,1,2-7.32c2.39-2.41,4.95-4.65,7.22-7.19a80,80,0,0,0,8-10.74,2.65,2.65,0,0,0,.13-.45c-3.21,0-6.35,0-9.49,0a8.82,8.82,0,0,1-4.27-1c-2.31-1.27-3-3.54-3-5.89,0-3.16,1.2-5.89,5-6.58a17.52,17.52,0,0,1,3-.32H26a31.68,31.68,0,0,0-2.34-4.05c-1.31-2.07-2.27-4.23-1.56-6.78a6.75,6.75,0,0,1,5.67-5,5.69,5.69,0,0,1,6.1,2.44c2.69,4,5.47,8,6.59,12.81.12.49.31.79.87.76a4,4,0,0,1,.58.12c.67,0,1.48.68,1.92.19s-.49-.95-.69-1.5c-1.27-3.43-.52-7.29,2.16-8.94a7.34,7.34,0,0,1,3.9-1q21,0,42,0a6.45,6.45,0,0,1,5.8,2.76c2.33,3.53.92,9.81-3.89,10.32-1.16.12-1.48.48-1,1.71,1,2.76.63,5.68.68,8.55C92.71,62.24,92.74,62.56,92.76,62.88Z" transform="translate(-14.78 -33.56)"/><path class="cls-4" d="M119,105.16a89,89,0,0,0,6.27-6.68c0,3.15,0,5.93,0,8.71a30.53,30.53,0,0,0,.36,6.32c.82,3.59,4.32,5,7.33,4.73a6,6,0,0,0,5-2.88,8.21,8.21,0,0,0,1-4.14c0-3.92,0-7.84,0-11.75v-.85c1.56,2.18,2.65,4.45,5.24,5.43-1.12,1-2.37,1.6-3.17,2.8a7.19,7.19,0,0,0,.08,7.79,6,6,0,0,0,6.87,2.6,52.44,52.44,0,0,0,15.14-6.76A75,75,0,0,0,185.7,88.41c1.9-2.8,2.06-5.82.31-8-3-3.85-8-4.65-11.35-.25a96,96,0,0,1-7.1,8.89,55.61,55.61,0,0,1-13.28,10.36c-.26.15-.55.26-.87.41-.1-1.07.46-2,.29-3a13.52,13.52,0,0,0-2.89-5.71,9.36,9.36,0,0,1-1.54-2.25v0c.8.26,1.37.91,2.2,1.16a8.06,8.06,0,0,0,6.56-1c9.37-5.41,17.67-12.09,24.15-20.85a13.85,13.85,0,0,0,2-3.52,6.62,6.62,0,0,0-1.31-6.9c1.72,0,3.43,0,5.15,0,.62,0,.91.18.82.81a1.92,1.92,0,0,0,0,.24q0,34.39,0,68.79c-.69.59-1.53.28-2.3.34s-1.36,0-2,0c-3.78,0-7.55,0-11.32,0a2.25,2.25,0,0,1-1.6-.31H140.38c-.47.4-1,.21-1.49.11a21.19,21.19,0,0,0-9.92.08,1.49,1.49,0,0,1-1.27-.06,16.64,16.64,0,0,0-3.8-.14,26.75,26.75,0,0,0-3.35,0c-1.16.1-1.56-.21-1.54-1.48C119.07,119,119,112.1,119,105.16Z" transform="translate(-14.78 -33.56)"/><path class="cls-5" d="M188.84,189.92c-5.11,0-10.23,0-15.35,0a12.77,12.77,0,0,1-3.89-.52,4.51,4.51,0,0,1-3.16-3.17,13.42,13.42,0,0,1-.58-3.89q0-23.58,0-47.15a10,10,0,0,1,.06-1.55c.58-3.47,1.1-5.18,5.65-6,2.67-.19,5.34,0,8-.08,1.64,0,3.28,0,4.91,0s3.41-.1,5.1.08A24.21,24.21,0,0,1,212.2,145a43.61,43.61,0,0,1-.29,28.23c-3.57,10.25-11.75,16.17-22.59,16.64A3.88,3.88,0,0,0,188.84,189.92Z" transform="translate(-14.78 -33.56)"/><path class="cls-4" d="M172.65,57.64A68.21,68.21,0,0,1,157.34,73c-.65.47-1,.61-1.58-.2-1.36-2-3.53-2.3-5.72-2.45-1-.07-2,0-3.27,0a52.07,52.07,0,0,0,3.07-5,19.43,19.43,0,0,0,2.39,1.41c2.51.84,4.72.05,6.83-1.2a104.07,104.07,0,0,0,11.31-8.06Z" transform="translate(-14.78 -33.56)"/><path class="cls-6" d="M111.14,201.36a5.52,5.52,0,1,1-5.54,5.44A5.53,5.53,0,0,1,111.14,201.36Z" transform="translate(-14.78 -33.56)"/><path class="cls-7" d="M209.76,97.65a5.52,5.52,0,1,1-5.49-5.49A5.53,5.53,0,0,1,209.76,97.65Z" transform="translate(-14.78 -33.56)"/><path class="cls-8" d="M64.7,220.09a1.71,1.71,0,0,1-1.44-1,1.26,1.26,0,0,1,.27-1.54c1.21-1.33,2.41-2.66,3.64-4q7.38-7.86,14.78-15.71c.92-1,1.7-1.08,2.47-.34s.77,1.44-.2,2.48c-3,3.25-6.07,6.47-9.11,9.7l-8.87,9.42A2.42,2.42,0,0,1,64.7,220.09Z" transform="translate(-14.78 -33.56)"/><path class="cls-8" d="M198.4,80.89a1.77,1.77,0,0,1-1.48-1,1.28,1.28,0,0,1,.31-1.54c1.29-1.41,2.58-2.83,3.9-4.22q7.22-7.7,14.44-15.36c1-1,1.76-1.17,2.56-.39s.72,1.43-.25,2.49c-1.74,1.88-3.5,3.73-5.25,5.59L199.9,80A2.41,2.41,0,0,1,198.4,80.89Z" transform="translate(-14.78 -33.56)"/><path class="cls-9" d="M58.3,115.7h4.59L55,124.29c-1.6,1.89-2.92,4.06-5.21,5.27H48.42c-1.24-1.16-1.24-1.81-.05-3.09,2.22-2.38,4.42-4.78,6.63-7.17A11.83,11.83,0,0,1,58.3,115.7Z" transform="translate(-14.78 -33.56)"/><path class="cls-7" d="M27.5,159.6a3.72,3.72,0,1,1,3.7-3.76A3.76,3.76,0,0,1,27.5,159.6Z" transform="translate(-14.78 -33.56)"/><path class="cls-7" d="M176.55,194.16a3.72,3.72,0,1,1-3.75,3.72A3.76,3.76,0,0,1,176.55,194.16Z" transform="translate(-14.78 -33.56)"/><path class="cls-1" d="M58.3,115.7a34.1,34.1,0,0,1-3.3,3.6c0-1.19,0-2.39,0-3.58Z" transform="translate(-14.78 -33.56)"/><path class="cls-10" d="M189.61,127.64h-5.05v-.16l4.29,0C189.13,127.46,189.41,127.42,189.61,127.64Z" transform="translate(-14.78 -33.56)"/><path class="cls-5" d="M127.7,127.59a21.86,21.86,0,0,1,12.08-.17,3,3,0,0,0,.6,0,21,21,0,0,1,5.55,2.74c5.47,4.28,7.14,10,6.1,16.62a16.34,16.34,0,0,1-4.47,8.73c-.51.55-.61.79.14,1.27,6.55,4.22,8.58,11.32,7.18,18.05-1.85,8.91-7.5,13.85-16.22,15.42-7,1.25-13.47,0-18.92-4.82a17,17,0,0,1-5.69-12.17,7,7,0,0,1,3.29-6.66c3.74-2.39,9.33-.1,10.14,3.92.15.78.33,1.55.48,2.34a5.11,5.11,0,0,0,4,4.2,8.68,8.68,0,0,0,6.31-.43,5.71,5.71,0,0,0,3.2-5.11,5.82,5.82,0,0,0-2.95-5.72c-2-1.2-4.19-1.18-6.37-1.4-4.2-.42-6.55-2.42-7-6.55a6,6,0,0,1,4.35-6.73,14.91,14.91,0,0,1,3.06-.49c3.27-.15,7-4,6-7.88a4.62,4.62,0,0,0-4.81-3.32,4.19,4.19,0,0,0-4.42,3.43c-.27,1.29-.16,2.61-.52,3.91-1,3.62-3.64,4.77-6.5,4.79a6,6,0,0,1-6.16-4.85A16.31,16.31,0,0,1,127.7,127.59Z" transform="translate(-14.78 -33.56)"/><path class="cls-7" d="M92.64,168.74a5.56,5.56,0,1,1,0-11.08,5.53,5.53,0,0,1,4.88,4.3,5.27,5.27,0,0,1-1.66,5.32A5.85,5.85,0,0,1,92.64,168.74Z" transform="translate(-14.78 -33.56)"/><path class="cls-11" d="M49.74,129.56c1.57-1.32,2.81-3,4.25-4.41.31-.3.64-.57,1-.86,0,1.76,0,3.52,0,5.28Z" transform="translate(-14.78 -33.56)"/><path class="cls-12" d="M184.57,127.47s0,.1,0,.16l-13,0a1.21,1.21,0,0,0,0-.19Z" transform="translate(-14.78 -33.56)"/><path class="cls-11" d="M125.73,80.38c-5,0-10,0-14.87,0-2.8,0-4.1-1.65-3.35-4.24.38-1.32,1.22-1.91,2.94-1.92,5.2,0,10.39,0,15.59,0,1,0,2.26.43,2.89-.2s.16-1.9.2-2.89c.06-1.19-.1-2.43,1-3.29a.33.33,0,0,0,.06-.43c-1.11-2.7-.94-5.66-1.74-8.42-.52-1.8-1-3.62-1.32-5.46s.33-2.85,1.95-3.3c1.84-.51,3-.06,3.65,1.74a46.34,46.34,0,0,1,2.79,13.67,2.16,2.16,0,0,1-.92,2.2c-.16.1-.4.18-.2.44,1.13,1.45.7,3.15.72,4.75,0,.93.23,1.23,1.2,1.22,4.6,0,9.2,0,13.8,0,2.3,0,3.26,1,3.24,3.18,0,2-1,3-3,3-4.39,0-8.79,0-13.43,0l4.13,4.67q4,4.56,7.52,9.49c.21.3.42.59.6.9,1.18,2,.83,3.39-1.11,4.68-1.55,1-3.06.69-4.27-1.14a134.14,134.14,0,0,0-8-10.91c-.15-.18-.31-.35-.53-.59a2.1,2.1,0,0,0-.14,1.21c0,7.56,0,15.12,0,22.67,0,2.47-1.43,3.57-3.83,3.06-1.47-.31-2.17-1.33-2.18-3.26q0-9.78,0-19.55V86.79c-.53,0-.55.45-.71.71a65.3,65.3,0,0,1-14.9,17.25,11.84,11.84,0,0,1-1.66,1.17,2.91,2.91,0,0,1-4-.63,2.8,2.8,0,0,1-.07-3.92,13.24,13.24,0,0,1,2.57-2.5,65.41,65.41,0,0,0,15.14-18C125.58,80.79,125.61,80.68,125.73,80.38Z" transform="translate(-14.78 -33.56)"/><path class="cls-11" d="M183.39,83.73a4.51,4.51,0,0,1-.95,2.72c-8.34,12.08-19,21.3-32.9,26.44a12.33,12.33,0,0,1-2.41.69c-1.56.25-2.38-.1-3-1.33a3,3,0,0,1,.57-3.81,10.21,10.21,0,0,1,3-1.65,64.29,64.29,0,0,0,22.94-15.52,71.89,71.89,0,0,0,6.13-7.68,12.15,12.15,0,0,1,1.26-1.6,3.07,3.07,0,0,1,5.31,1.74Z" transform="translate(-14.78 -33.56)"/><path class="cls-11" d="M115.15,50.39c-1.28,0-2.56.07-3.83,0-1.62-.11-2.31-.89-2.41-2.56-.13-2,.43-2.81,2.08-3.21a9.25,9.25,0,0,1,2-.19c11.56-.16,23.06-.91,34.37-3.56a12.1,12.1,0,0,1,1.89-.26c2.28-.12,3.54,1.24,3.3,3.5a2.55,2.55,0,0,1-2,2.24,50.3,50.3,0,0,1-7.85,1.58A221.15,221.15,0,0,1,115.15,50.39Z" transform="translate(-14.78 -33.56)"/><path class="cls-11" d="M153.42,86.44a2.33,2.33,0,0,1-2.18-1.59,2.93,2.93,0,0,1,.16-3.28,5.27,5.27,0,0,1,1.74-1.44,67,67,0,0,0,21.64-19,8.57,8.57,0,0,1,.8-.9c1.34-1.33,2.43-1.47,3.83-.5s1.9,2.21,1,3.91a33.8,33.8,0,0,1-5.85,7.55,77.66,77.66,0,0,1-18,14.18A6.17,6.17,0,0,1,153.42,86.44Z" transform="translate(-14.78 -33.56)"/><path class="cls-11" d="M154.57,63.38A2.52,2.52,0,0,1,152,61.75a2.91,2.91,0,0,1,.14-3.28,5.65,5.65,0,0,1,1.76-1.42,63.25,63.25,0,0,0,15.71-12.48c1.25-1.4,2.35-2.92,3.56-4.37a9.87,9.87,0,0,1,1.51-1.52,2.52,2.52,0,0,1,3.4.11c1.26,1,1.58,2,.93,3.35a26.08,26.08,0,0,1-4.72,6.32,80,80,0,0,1-16.9,13.71A6.73,6.73,0,0,1,154.57,63.38Z" transform="translate(-14.78 -33.56)"/><path class="cls-11" d="M151.44,50.61a7.31,7.31,0,0,1-.15.84,59.89,59.89,0,0,1-6.41,14.89A14.17,14.17,0,0,1,143,68.8c-1.17,1.16-2,1.24-3.53.35a2.54,2.54,0,0,1-1.36-3.32,5.56,5.56,0,0,1,.79-1.6c2.9-3.77,4.46-8.16,5.88-12.62a10.45,10.45,0,0,1,1.26-3c.79-1.1,1.87-1.39,3.41-.88A2.6,2.6,0,0,1,151.44,50.61Z" transform="translate(-14.78 -33.56)"/><path class="cls-11" d="M118.21,69.92a2.55,2.55,0,0,1-2.73-2.2c-.44-1.65-.72-3.34-1.09-5-.55-2.49-1.4-4.9-2.08-7.36a2.75,2.75,0,0,1,2.12-3.74,2.28,2.28,0,0,1,3.09,1.26,19.18,19.18,0,0,1,1.61,4.36,67.52,67.52,0,0,1,2.14,9.18C121.59,68.68,120.52,69.89,118.21,69.92Z" transform="translate(-14.78 -33.56)"/><path class="cls-13" d="M124.24,57.57a50.4,50.4,0,0,1,1.7,9c.15,1.11-.41,2.33-.66,3.49a.33.33,0,0,1-.45.26.24.24,0,0,1-.19-.35c1.41-4.35-.84-8.26-1.47-12.37A.78.78,0,0,1,124.24,57.57Z" transform="translate(-14.78 -33.56)"/><path class="cls-14" d="M138.3,57.87c-.46-1.82-.84-3.34-1.23-4.86-.1-.41.18-.47.47-.51l3.05-.43A38.31,38.31,0,0,1,138.3,57.87Z" transform="translate(-14.78 -33.56)"/><path class="cls-15" d="M124.24,57.57l-1.07,0c-.28-1-.57-2-.86-3-.09-.3-.3-.62.24-.71s.76-.2.88.41C123.66,55.43,124,56.5,124.24,57.57Z" transform="translate(-14.78 -33.56)"/><path class="cls-16" d="M147.39,86.62l-1.81-2.25c1.52-.28,1.52-.28,2.07,2C147.74,86.6,147.62,86.66,147.39,86.62Z" transform="translate(-14.78 -33.56)"/><path class="cls-17" d="M147.39,86.62l.26-.28.82,1.24A1.83,1.83,0,0,1,147.39,86.62Z" transform="translate(-14.78 -33.56)"/><path class="cls-18" d="M149.27,88.8a2,2,0,0,1-.91-1,1.11,1.11,0,0,1,.92,1Z" transform="translate(-14.78 -33.56)"/><path class="cls-11" d="M69.88,111.84H54c-4.36,0-6.21-1.83-6.24-6.23,0-6.68,0-13.36,0-20a41.29,41.29,0,0,1,.2-6.94c.49-2.86,2-4.32,4.93-4.44s5.6-.06,8.4-.06q11.94,0,23.88,0c5,0,6.65,1.62,6.67,6.6,0,8.16,0,16.32,0,24.48a15,15,0,0,1-.25,2.5c-.52,2.81-2.16,4-5.43,4.13H69.88Z" transform="translate(-14.78 -33.56)"/><path class="cls-11" d="M37.26,78.38V110c0,.64,0,1.28,0,1.91a2.29,2.29,0,0,1-2.54,2.29c-1.83.06-2.81-.64-3-2.19a15.37,15.37,0,0,1-.13-2q0-13.74,0-27.47V81.21c-.6.07-.8.51-1.08.81-2,2.08-4,4.13-6.12,6.09a6.93,6.93,0,0,1-2.06,1.41,2.5,2.5,0,0,1-2.93-.76,2.43,2.43,0,0,1-.52-3,9.26,9.26,0,0,1,2.27-2.6,80.05,80.05,0,0,0,17-21.82c.15-.28.3-.56.43-.86.25-.59,0-.93-.6-1-.31,0-.64,0-1,0-4.79,0-9.59,0-14.39,0-2.18,0-3.15-1-3.11-3.2,0-1.87.66-2.58,2.52-2.85a4.43,4.43,0,0,1,.72-.09c6,.06,12.07-.23,18.1.15,3.92.24,5.54,2.69,4.31,6.44-1,2.94-2.74,5.49-4.26,8.16A25.15,25.15,0,0,1,39.08,71c-.5.68-.32,1,.24,1.57,2.06,1.9,4.06,3.86,6.08,5.79a7.23,7.23,0,0,1,1.48,1.87A2.9,2.9,0,0,1,46,84a2.46,2.46,0,0,1-3.65-.31c-1.43-1.44-2.73-3-4.11-4.53A1.84,1.84,0,0,0,37.26,78.38Z" transform="translate(-14.78 -33.56)"/><path class="cls-11" d="M69.91,71.31H58.27c-.68,0-1.36,0-2,0-3.36-.24-4.87-1.63-5.14-5a61.34,61.34,0,0,1,0-10.41c.23-2.51,1.47-3.79,4-4.25a15.78,15.78,0,0,1,2.74-.25H82a11.93,11.93,0,0,1,3.32.39c2.26.61,3.36,1.81,3.5,4.14a86.32,86.32,0,0,1,0,10.79c-.19,2.91-2.06,4.48-5.43,4.55-4.48.09-9,0-13.43,0Z" transform="translate(-14.78 -33.56)"/><path class="cls-11" d="M70.21,48.18H49.46c-2.42,0-3.22-.83-3.16-3.15.05-1.76.65-2.42,2.44-2.63a13.3,13.3,0,0,1,1.55-.07h39.8a13.57,13.57,0,0,1,1.56.07c1.79.23,2.61,1.1,2.63,2.79a2.63,2.63,0,0,1-2.61,3,9.62,9.62,0,0,1-1.2,0Z" transform="translate(-14.78 -33.56)"/><path class="cls-11" d="M28.76,37.37a2.61,2.61,0,0,1,2.29,1.33,63.63,63.63,0,0,1,5.38,9.73c.72,1.71.09,3-1.63,3.79A2.48,2.48,0,0,1,31.16,51c-1.59-3-3.39-6-5.07-9A3.08,3.08,0,0,1,28.76,37.37Z" transform="translate(-14.78 -33.56)"/><path class="cls-19" d="M47.14,64.93a14.86,14.86,0,0,0,1.38,6c.18.35.07.53-.24.64-1,.36-1.47,1.81-2.51,1.6-.76-.16-1.34-1.18-2-1.8-.28-.27-.13-.5,0-.74Z" transform="translate(-14.78 -33.56)"/><path class="cls-20" d="M47.92,53.06l-1.3-1.38a1.86,1.86,0,0,1,1.6.28C48.49,52.16,48,52.61,47.92,53.06Z" transform="translate(-14.78 -33.56)"/><path class="cls-11" d="M169.72,158.75q0-11.94,0-23.88c0-3,.41-3.48,3.35-3.48,5.44,0,10.88-.18,16.32.09,8.86.44,15.26,4.75,18.48,13,4,10.14,3.9,20.46-.83,30.38-3.42,7.17-9.43,10.94-17.4,11.19-5.63.18-11.28.08-16.92.05-2.55,0-3-.5-3-3.06Q169.71,170.87,169.72,158.75Z" transform="translate(-14.78 -33.56)"/><path class="cls-11" d="M138.61,157.3a19.12,19.12,0,0,1,7.1,2.75c5.6,3.79,7.08,9.73,4.87,16.35-2.09,6.26-6.89,9.4-13.25,10.29-4.33.6-8.55.2-12.4-2.11a13.64,13.64,0,0,1-7.07-11.78,3.15,3.15,0,0,1,1.74-3.07,3.21,3.21,0,0,1,4.48,2.8,9.34,9.34,0,0,0,9,8.66,14.28,14.28,0,0,0,5-.37,9.54,9.54,0,0,0,7.15-8.52c.31-4.91-1.69-8.43-5.85-10.28a15.38,15.38,0,0,0-5.34-1.25c-.76-.05-1.52-.08-2.27-.19a3.12,3.12,0,0,1-2.88-3.37c.11-1.78,1.07-2.59,3.15-2.69a10.62,10.62,0,0,0,10.38-9.19c.64-5.06-2.21-9-7.69-9.63a8.06,8.06,0,0,0-9.26,7.4c-.06.6-.11,1.2-.15,1.79a2.8,2.8,0,0,1-3,2.93,2.86,2.86,0,0,1-2.8-2.87,13.17,13.17,0,0,1,2.45-9.07,13,13,0,0,1,7.26-4.81,17.85,17.85,0,0,1,11.3.54c6.06,2.3,8.63,7.7,7.87,13.82-.59,4.83-3.51,8.1-7.51,10.55C140.24,156.39,139.54,156.76,138.61,157.3Z" transform="translate(-14.78 -33.56)"/><path class="cls-2" d="M60.48,95.25c1.84,0,3.68,0,5.52,0,.74,0,1,.17,1,1,0,3,0,5.91,0,8.86,0,.75-.17,1-1,1-3.59,0-7.19,0-10.78,0-1.06,0-1.46-.48-1.46-1.43,0-2.88,0-5.75,0-8.63,0-.76.35-.83.95-.82C56.65,95.27,58.57,95.25,60.48,95.25Z" transform="translate(-14.78 -33.56)"/><path class="cls-2" d="M79.6,95.25c1.79,0,3.59,0,5.39,0,.69,0,.89.23.88.9,0,2.79,0,5.59,0,8.38,0,1.1-.39,1.65-1.63,1.62-3.32-.07-6.63,0-9.94,0-.84,0-1.2-.14-1.18-1.1.06-2.91,0-5.83,0-8.74,0-.87.28-1.08,1.1-1.05C76,95.29,77.8,95.25,79.6,95.25Z" transform="translate(-14.78 -33.56)"/><path class="cls-2" d="M60.38,89.56c-1.87,0-3.75,0-5.63,0-.7,0-1-.17-1-.93,0-2.4,0-4.79,0-7.19,0-1.35.3-1.62,1.62-1.62,3.51,0,7,0,10.54,0,.85,0,1.09.26,1.07,1.09,0,2.55,0,5.11,0,7.66,0,.8-.24,1-1,1C64.13,89.53,62.26,89.56,60.38,89.56Z" transform="translate(-14.78 -33.56)"/><path class="cls-2" d="M79.44,89.56c-1.76,0-3.52,0-5.28,0-.74,0-1.06-.16-1-1,0-2.59,0-5.19,0-7.79,0-.71.19-1,.94-1q5.16.06,10.32,0c1,0,1.44.45,1.45,1.33,0,2.6,0,5.2,0,7.79,0,.7-.47.62-.9.62Z" transform="translate(-14.78 -33.56)"/><path class="cls-2" d="M70,57.06H81.12c1.55,0,1.72.18,1.72,1.73,0,1.76,0,3.52,0,5.27,0,1.17-.53,1.61-1.56,1.64s-2.32,0-3.48,0H59.11c-1.9,0-2-.15-2-2,0-1.64,0-3.28,0-4.92s.15-1.7,1.73-1.7Z" transform="translate(-14.78 -33.56)"/><path class="cls-5" d="M176,158.76c0-6.84,0-13.68,0-20.52,0-1.27.38-1.52,1.54-1.47,3.87.16,7.77-.26,11.63.22,7.74,1,12.08,4.73,14,12.38a36.21,36.21,0,0,1-.76,21c-2.4,6.88-7.4,10.31-14.65,10.33-3.48,0-7-.06-10.44,0-1.13,0-1.29-.36-1.28-1.36C176,172.52,176,165.64,176,158.76Z" transform="translate(-14.78 -33.56)"/><path class="cls-1" d="M60.31,102.28H59.23c-1.81,0-1.6.2-1.6-1.59s-.21-1.58,1.59-1.6c1,0,2.08,0,3.12,0,.61,0,.82.18.85.82.12,2.38.15,2.38-2.28,2.38Z" transform="translate(-14.78 -33.56)"/><path class="cls-1" d="M79.59,99.09h.23c2.32,0,2.3,0,2.24,2.3,0,.66-.2.93-.89.9-1.12,0-2.24,0-3.35,0-.6,0-.83-.18-.87-.82C76.83,99.09,76.8,99.09,79.59,99.09Z" transform="translate(-14.78 -33.56)"/><path class="cls-21" d="M60.38,83.58a11.45,11.45,0,0,0,1.55,0c1.15-.18,1.35.4,1.27,1.37-.05.53-.17.81-.76.8-1.35,0-2.71,0-4.06,0-.94,0-.75-.61-.76-1.13s-.13-1.09.72-1C59,83.61,59.7,83.58,60.38,83.58Z" transform="translate(-14.78 -33.56)"/><path class="cls-22" d="M79.46,83.58a9.52,9.52,0,0,0,1.31,0c1.1-.18,1.39.3,1.3,1.32-.06.58-.18.87-.83.85-1.19,0-2.39,0-3.58,0-1,0-.74-.68-.79-1.23s0-1,.8-.94C78.26,83.62,78.86,83.58,79.46,83.58Z" transform="translate(-14.78 -33.56)"/><path class="cls-23" d="M69.88,61.9c-2.67,0-5.35,0-8,0-.39,0-1,.2-.94-.54s.55-.45.91-.46H78.11c.36,0,.87-.15.89.49s-.5.51-.86.51Z" transform="translate(-14.78 -33.56)"/><path class="cls-11" d="M197.25,145.23c3.07,4.88,3.29,10.31,3,15.83a23.14,23.14,0,0,1-2.25,9.71c-2,4-5.21,6.14-9.75,6.11l-3.71,0a1.56,1.56,0,0,1-.38-1.22c0-5.17-.08-10.35,0-15.52.22-1.37,1.32-2.17,2.18-3.06,3.09-3.23,6-6.59,9.22-9.73C196.28,146.68,196.43,145.7,197.25,145.23Z" transform="translate(-14.78 -33.56)"/><path class="cls-11" d="M184.57,140.67c2.87-.09,5.72-.1,8.41,1.14a9.89,9.89,0,0,1,3.2,2.22,6.23,6.23,0,0,0-2.77,1.94c-2.45,2.57-4.92,5.13-7.28,7.79a5.86,5.86,0,0,1-1,.89c-.42.3-.73.25-.88-.29-.21-4.24-.07-8.47-.08-12.7A1.31,1.31,0,0,1,184.57,140.67Z" transform="translate(-14.78 -33.56)"/><path class="cls-8" d="M184.58,154.74c2.57-2.38,4.81-5.08,7.26-7.58.76-.77,1.48-1.56,2.2-2.36a2.22,2.22,0,0,1,2.14-.77,3.33,3.33,0,0,1,1.07,1.2c-.4,1.44-1.53,2.34-2.49,3.37q-5.1,5.51-10.24,11a19.16,19.16,0,0,1-3.19,3.82,3.36,3.36,0,0,0-1,2.44c0,3.14,0,6.29,0,9.43a2.18,2.18,0,0,1-.33,1.59c-.43-.28-.25-.72-.26-1.09v-34c0-.37-.17-.81.26-1.1a2.42,2.42,0,0,1,.33,1.72q0,7.49,0,15a3.06,3.06,0,0,0,.11,1.28,10,10,0,0,0,1.93-1.91A6,6,0,0,1,184.58,154.74Z" transform="translate(-14.78 -33.56)"/><path class="cls-1" d="M184.58,154.74a56.7,56.7,0,0,1-4.57,4.93v-19l4.56,0Q184.57,147.71,184.58,154.74Z" transform="translate(-14.78 -33.56)"/><path class="cls-1" d="M180,176.86l0-11.75a1.49,1.49,0,0,1,.4-1.21c1.45-1.38,2.61-3,4.14-4.32q0,8.63,0,17.26Z" transform="translate(-14.78 -33.56)"/></svg>