<svg id="圖層_1" data-name="圖層 1" xmlns="http://www.w3.org/2000/svg" viewBox="0 0 214.54 180.31"><defs><style>.cls-1{fill:#b2138e;}.cls-2{fill:#d1d3d1;}.cls-3{fill:#daa8bd;}.cls-4{fill:#f6def1;}.cls-5{fill:#d9a6bc;}.cls-6{fill:#fefdfe;}.cls-7{fill:#fdfcfd;}.cls-8{fill:#d0c8cd;}.cls-9{fill:#d0cace;}.cls-10{fill:#d0ced0;}.cls-11{fill:#f9f0f7;}.cls-12{fill:#fdfafc;}.cls-13{fill:#ccb0c5;}.cls-14{fill:#d1d2d1;}.cls-15{fill:#d699b9;}.cls-16{fill:#c896bc;}.cls-17{fill:#fefefe;}.cls-18{fill:#bee162;}.cls-19{fill:#f1d06c;}.cls-20{fill:#f5ce59;}.cls-21{fill:#edd5e6;}</style></defs><title>22</title><path class="cls-1" d="M158.16,201.36a5.21,5.21,0,0,1-1.88.24H115.2c-.48,0-1,0-1.43,0-2,.73-3.15.43-5-2.57-.22.29-.11.61-.15.91a2,2,0,0,1-2,2c-1.23.09-2.47,0-3.71,0-3.6,0-7.2,0-10.79,0-2,0-3-.74-2.91-2.71.06-1-.4-1.21-2-1.2-1,0-.84.64-.86,1.22-.1,3.08-.19,3.16-3.22,3.16H76c-1.63,0-3.24-.34-4.89-.28-1.07,0-2.13.18-3.21.21-1.15-.29-1.39-1.2-1.5-2.19-.17-1.5-.17-1.5-1.58-1.6-2.74-.18-3.93-1.21-4.51-3.91a7.28,7.28,0,0,1-.18-1.54c0-5,0-10.06,0-15.09q-.06-2.12,0-4.23,0-5.5,0-11c0-1-.21-1.61-1.4-1.72s-1.68-1.05-1.26-2.41.42-1.34-1-1.34a7.71,7.71,0,0,1-2.49-.26c-.81-.28-1.08,0-1.07.81,0,2.15,0,4.31,0,6.46,0,3.24,0,6.47,0,9.71,0,1.35,0,2.71,0,4.06.07,7.39,0,14.78,0,22.17,0,1.64-.53,2.16-2.18,2.17q-7.66,0-15.33,0c-1.61,0-2.19-.6-2.4-2.23s-.2-1.48-1.72-1.62a2.57,2.57,0,0,1-2-.68c-1.68-1.11-2.13-2.78-2.13-4.66q0-15.6,0-31.19c0-1-.2-1.32-1.23-1.28-1.7.07-2.15-.72-1.41-2.25s.74-1.56-1-1.56c-.44,0-.88,0-1.31,0-3.37-.09-5.13-2.7-3.75-5.75,1.16-2.59,2.5-5.1,3.81-7.62.85-1.64,2.42-2.07,4.12-2.18.88-.05,1.76-.05,2.63-.07a2,2,0,0,1,1.48-.35H46.46a7.14,7.14,0,0,1,1.9.26,4.23,4.23,0,0,1,3.58,4.45c.06,1.3,0,2.61.15,3.94a47.34,47.34,0,0,0,2.65-5.09A5.65,5.65,0,0,1,60.45,141h7a1.93,1.93,0,0,1,1.47.36h5c.1-.07.19-.18.3-.19,3-.14,6.13-.7,9,.7.13,0,.32.28.35.22s-.09-.36-.1-.56a4.24,4.24,0,0,1,4.41-4.28c3.78-.17,7.59-.18,11.37,0,2.68.13,3.91,1.2,4.57,3.79a4.44,4.44,0,0,0,2.69,3.46c.38-.93.66-1.94,1-2.95a4.52,4.52,0,0,1,3.55-3.35c2.38.14,4.77.23,7.16.14,1.71-.06,3.41-.32,5.12-.27a1.62,1.62,0,0,0,.91-.25,9,9,0,0,1,5.06-1.17c3,0,5.92,0,8.87,0a9.42,9.42,0,0,1,1.91.16,4.47,4.47,0,0,1,4,4.29c.21,1.54.21,1.55,1.75,1.55,2.75,0,5.51,0,8.26,0a4.19,4.19,0,0,1,4,2.16,6,6,0,0,1,.43,2.69c.08,1.55-.12,3.11.1,4.66,1.22,1.09.58,2.55.74,3.85.07.5-.24,1.17.76,1.35v-2.24c0-3,0-6,0-9,0-3.19,1.6-4.79,4.81-4.79h43.53c3.12,0,4.7,1.6,4.71,4.74,0,.92,0,1.84,0,2.75s-.18,1.67.69,2.26c.39.26.26.81.27,1.24v6.24c0,1.8-.37,2.17-2.17,2.17H187c-.6,0-1.2,0-1.8,0s-1.07-.2-1.06.69.52.73,1,.73h23.74c2.69.12,4.11,1.52,4.21,4.2,0,1,0,2.08,0,3.12,0,.84-.21,1.72.71,2.34.36.25.25.82.25,1.25,0,7.64,0,15.27,0,22.91a2.3,2.3,0,0,1-.94,1.94c-1.37,1.09-2.68,2.27-4,3.42a2.28,2.28,0,0,1-1.33.74c-1.76.18-3.51,0-5.27.08-10.93.33-21.87.24-32.8.25-.48,0-1,0-1.44,0-1.62-.06-2.23-.63-2.37-2.23s-.13-1.53-1.69-1.61a4.34,4.34,0,0,1-2.08-.46c-.85-.51-1.32-.16-1.75.56-.3.52-.6,1-.94,1.53A2.5,2.5,0,0,1,158.16,201.36Z" transform="translate(-11.8 -35.98)"/><path class="cls-1" d="M19,125.34c-.86-.07-1.18-.68-1.43-1.4A61,61,0,0,1,15,116.36c-.68-3.47-2.27-6.62-3.05-10a3.92,3.92,0,0,1,3-4.8c1.29-.22,1.68-.85,1.88-2,.81-5,1.72-10.08,2.6-15.11a3.65,3.65,0,0,0-.14-1.88c-1-2.87-2.06-5.72-2.81-8.65-.87-3.36-2-6.62-3-9.94-.77-2.55.51-5.62,3.85-5.82,1.05-.07,1-.44.75-1.25-1.56-4.94-3.07-9.89-4.61-14.83a4.32,4.32,0,0,1,4.18-5.79c5.76-.06,11.52-.07,17.28,0,2.49,0,4.09,1.41,4.58,4,.71-2.09,2.22-3.13,4.61-3.28h70.32a7,7,0,0,1,3.24.69,4.38,4.38,0,0,1,2.22,3.62c.13,2.59,0,5.19.06,7.79,0,.71.05,1.43.1,2.14A2.54,2.54,0,0,1,118.55,54c-.16.11-.31.29-.49.33-1.78.44-1.64,1.8-1.58,3.16,0,.91,0,1.84,0,2.76a1.71,1.71,0,0,1-.56,1.51c-.51.39-.31.95-.31,1.45q0,24.94,0,49.91a5.57,5.57,0,0,1-1.87,4.71c-1.09,1-1.13,2.28-1,3.62a12.18,12.18,0,0,1,0,1.91c-.15,1.68-.76,2.28-2.43,2.29-4,0-7.92,0-11.87,0-3.72,0-7.44,0-11.16,0a2.68,2.68,0,0,1-2.84-1.89c-1-2.5-2-5-3-7.46A6.71,6.71,0,0,1,81,114c0-1.51-.54-2-2.05-2-1.2,0-2.4,0-3.6,0a2.17,2.17,0,0,1-1.48-.35c-3.75-.06-3.15-.59-3.19-3.43,0-.35,0-.7,0-1.33a22.3,22.3,0,0,0-1.87,3.49c-.39,1.23-.8,1.56-2.18,1.6-2.23.06-4.47,0-6.71,0-3.92,0-7.84,0-11.76,0-2.33,0-2.92-.6-2.95-2.9,0-.56,0-1.12,0-1.68.13-1.5,0-2.84-1.48-3.75a2.34,2.34,0,0,1-.89-1.59c-.74,4.11-1.49,8.16-2.25,12.22a6.27,6.27,0,0,1-1.76,3.59,2.84,2.84,0,0,0-.73,1.61c-.3,1.41-.49,2.84-.82,4.24s-.85,1.93-2.31,1.93C29.67,125.63,24.32,125.3,19,125.34Z" transform="translate(-11.8 -35.98)"/><path class="cls-1" d="M143.49,49.42c0-2.8,0-5.6,0-8.4,0-1.78.52-3.4,2.21-4.37a5.42,5.42,0,0,1,2.76-.66c5.48,0,11,0,16.43,0,3,0,4.83,1.8,5,4.82,0,.24,0,.48,0,.72q0,35.93,0,71.86c0,2.3-.42,4.41-3,5.27-.47.16-.35.57-.35.91,0,1.4,0,2.8,0,4.2,0,1.55-.44,2-2,2l-5.88,0a2.15,2.15,0,0,1-1.48.32c-2.8,0-5.59,0-8.39,0-2.07,0-2.68-.66-2.72-2.75,0-.56,0-1.12,0-1.68.08-1.51.12-3-1.5-3.83a.35.35,0,0,1-.16-.18c-.63-1.68-1.89-1.64-3.4-1.43-5.18.75-10.37,1.37-15.57,2-1.84.23-2.58-.43-2.65-2.3a17.19,17.19,0,0,1,0-2,3.84,3.84,0,0,0-1.49-3.88,3.94,3.94,0,0,1-1.31-3.13c-.18-3.51-.16-7,0-10.53a3.87,3.87,0,0,1,1.69-3.29c2.12-1.45,4.64-1.3,7-1.64q6.87-1,13.78-1.75c1.64-.19.94-1.28,1-2.09a2.4,2.4,0,0,1-.34-1.61c0-2.12,0-4.24,0-6.36,0-1.4-.1-1.51-1.49-1.51-5,0-10.08,0-15.11,0a13.54,13.54,0,0,1-1.56,0,2.25,2.25,0,0,1-2.21-2.37c-.06-1.15,0-2.32,0-3.47a2.25,2.25,0,0,0-.87-2,5.42,5.42,0,0,1-2-4.44c0-2.88,0-5.76,0-8.64.06-3.51,1.94-5.41,5.46-5.45,5.16-.06,10.31,0,15.47,0H142c.71,0,1.15-.25,1.14-1A1.87,1.87,0,0,1,143.49,49.42Z" transform="translate(-11.8 -35.98)"/><path class="cls-1" d="M198.36,125.54H180.6c-1.56,0-2-.43-2-2q0-1.14,0-2.28c0-1.48.22-2.88-1.5-3.87-1.2-.68-1.37-2.3-1.37-3.67q0-36.36,0-72.71c0-3.22,1.88-5,5.09-5,5.4,0,10.8,0,16.2,0,3.42,0,5.07,1.67,5.08,5.09s0,6.64,0,10c0,.83.2,1.07,1.05,1.06,5.64,0,11.28,0,16.92,0a4.46,4.46,0,0,1,4.2,2,5.78,5.78,0,0,1,.72,3c0,2.88,0,5.76,0,8.64,0,2.15-.6,4-2.95,4.81-.48.16-.39.55-.39.88,0,1.2,0,2.4,0,3.6,0,2.41-.21,2.62-2.57,2.62H203.68c-.28,0-.56,0-.84,0-.57-.06-.76.17-.76.75q0,10.92,0,21.84c0,1,.61.73,1.12.73h18a5.85,5.85,0,0,1,3.11.68,4.54,4.54,0,0,1,1.42,6.13c-.93,1.81-1.92,3.6-2.86,5.4-.16.3-.55.63-.28,1,.82,1,.23,1.85-.25,2.74-1.31,2.42-2.63,4.84-3.87,7.29a2.15,2.15,0,0,1-2.23,1.37C210.28,125.51,204.32,125.54,198.36,125.54Z" transform="translate(-11.8 -35.98)"/><path class="cls-2" d="M60.5,178.09c0,5.06,0,10.12,0,15.19a7.07,7.07,0,0,0,.51,2.8,3.8,3.8,0,0,0,3.56,2.19c2,.16,2,.16,2.18,2.12.06.78.22,1.52,1.15,1.75.38.19.84-.1,1.21.2l0,8.75A4.79,4.79,0,0,1,64,216.24H34.32a4.74,4.74,0,0,1-5-5q0-6.66,0-13.31a12,12,0,0,0,3.32.36c.55-.05.82.18.78.76a5.61,5.61,0,0,0,0,.71c0,2.07.3,2.37,2.32,2.37H50.36c2.1,0,2.21-.12,2.22-2.27q0-10.89,0-21.79A17.06,17.06,0,0,1,60.5,178.09Z" transform="translate(-11.8 -35.98)"/><path class="cls-2" d="M19,125.34l15.71,0c1.87,0,2-.09,2.35-1.94.15-.79.27-1.57.44-2.35.31-1.49.38-3,1.74-4.15,1.18-1,1-2.7,1.33-4.13.7-3.64,1.33-7.3,2-11a7,7,0,0,1,.31-.89,4.41,4.41,0,0,0,2.41,3.44c.45.23.33.59.33.92,0,1.48,0,3,0,4.44s.49,1.85,1.91,1.85c6.39,0,12.79,0,19.18,0a2.23,2.23,0,0,0,2.14-1.24c0,5.2.06,10.39,0,15.59a4.67,4.67,0,0,1-4.81,4.63H33.84a4.62,4.62,0,0,1-4.76-4.15c-.1-.76-.37-.91-1-.9-2.6,0-5.2,0-7.8,0C19.82,125.51,19.36,125.66,19,125.34Z" transform="translate(-11.8 -35.98)"/><path class="cls-2" d="M69.15,202.34c-.4-.08-.85.12-1.21-.2l15.92,0c1.89,0,2.06-.19,2.08-2.05,0-.79-.23-1.78.15-2.33s1.37.18,2.11,0c1.06-.22,1.35.24,1.31,1.29-.07,2.33.2,2.54,2.49,2.54h13.89c2,0,2.34-.33,2.34-2.36a3.41,3.41,0,0,1,.22-1.41,9.77,9.77,0,0,1,1,1.52c.83,2,2.37,2.53,4.35,2.29,0,3.12-.07,6.23,0,9.35a5,5,0,0,1-5.28,5.31c-9.79-.11-19.58,0-29.36,0-3.32,0-5.21-1.88-5.21-5.18,0-2.6,0-5.19,0-7.79,0-.72-.21-1-1-1C71.7,202.36,70.42,202.33,69.15,202.34Z" transform="translate(-11.8 -35.98)"/><path class="cls-2" d="M121.65,93.1a6.75,6.75,0,0,0-1.42,4.58c0,2.6,0,5.2,0,7.79,0,2.21.33,4.25,2.56,5.39.45.23.31.6.31.93,0,1.48,0,3,0,4.44s.61,1.89,2,1.7l17.33-2.24c.76-.09,1.37-.14,1.6.89a2.09,2.09,0,0,0,1.18,1.44c1.1.45,1.21,1.28,1.14,2.31s0,2.23,0,3.35c0,1.65.41,2.06,2,2.07l10.19,0c-.3,3.3-2.18,5-5.5,5H123.86a4.69,4.69,0,0,1-5.06-5.09q0-14.1,0-28.19A4.39,4.39,0,0,1,121.65,93.1Z" transform="translate(-11.8 -35.98)"/><path class="cls-3" d="M143.49,49.42c.13,2.65.13,2.65-2.54,2.65-5.2,0-10.4,0-15.6,0A4.75,4.75,0,0,0,121.08,54a5.2,5.2,0,0,0-.83,3c0,3,0,6,0,9a4.68,4.68,0,0,0,2.19,4.27,1.34,1.34,0,0,1,.68,1.37c0,1.36,0,2.72,0,4.08s.55,2,2,2h13.07c1.44,0,2.88,0,4.32,0,.7,0,1,.17,1,.93,0,3,0,6,0,9l-19.43,0c-3.34,0-5.27-1.93-5.27-5.27q0-13.5,0-27c0-.46.19-1-.23-1.36a5.51,5.51,0,0,0,1.23-3.87c0-3,0-5.89,0-8.84a5.05,5.05,0,0,1,.17,2.35c0,2.34,0,4.69,0,7.33,1.57-1.56,3.34-1.54,5.15-1.53C131.26,49.45,137.37,49.42,143.49,49.42Z" transform="translate(-11.8 -35.98)"/><path class="cls-3" d="M73.91,111.61c1.84,0,3.67,0,5.51,0a2,2,0,0,1,2,2.46,3.45,3.45,0,0,0,.25,2.08c1,2.54,2.06,5.1,3,7.66A2.09,2.09,0,0,0,87,125.34c7.75,0,15.49,0,23.24,0,1.64,0,2-.38,2.07-2a22.93,22.93,0,0,0,0-3c-.14-1.26.16-2.14,1.47-2.48,0,2.67,0,5.35,0,8a4.84,4.84,0,0,1-5.12,5H79c-3.15,0-5.11-2-5.11-5.17Q73.91,118.63,73.91,111.61Z" transform="translate(-11.8 -35.98)"/><path class="cls-3" d="M158.16,201.36a38.16,38.16,0,0,0,2.56-3.75c.21-.28.34-.71.79-.32a5,5,0,0,0,3.83,1c.79,0,1.1.23,1,1a5.83,5.83,0,0,0,0,1.32,1.47,1.47,0,0,0,1.62,1.52q14,0,27.9,0l12,0c-.39.32-.85.18-1.27.18-3.16,0-6.32,0-9.47,0a1.87,1.87,0,0,0-1.9,1.08c-1.9,3.37-3.86,6.71-5.77,10.07-1.47,2.59-4.19,3.55-6.71,2.11C174.52,210.86,166.35,206.1,158.16,201.36Z" transform="translate(-11.8 -35.98)"/><path class="cls-3" d="M68.87,141.37c-2.79,0-5.59.06-8.38,0-2.57,0-4.43.88-5.47,3.38-.76,1.84-1.76,3.58-2.67,5.36-.11.22-.17.61-.55.47s-.18-.41-.18-.63c0-1.24,0-2.48,0-3.72,0-3.25-1.56-4.84-4.84-4.85-5.43,0-10.86,0-16.29,0-.48,0-1,0-1.44,0-.38-3.28,2.11-5.82,5.72-5.78q14.19.16,28.4,0C66.74,135.54,69.24,138.06,68.87,141.37Z" transform="translate(-11.8 -35.98)"/><path class="cls-2" d="M158.61,152.19c-.4-.3-.21-.74-.22-1.11,0-1.24,0-2.48,0-3.72-.1-2.81-1.66-4.34-4.46-4.36-3,0-6,0-9,0-1,0-1.19-.28-1.19-1.21,0-3.1-1.64-4.7-4.76-4.71-3.72,0-7.43,0-11.15,0a4.84,4.84,0,0,0-3.25,1,2,2,0,0,1-1.46.35l-12.23.09c-.41-.89.11-1,.8-.94a6.76,6.76,0,0,1,1.37.63c1.84,0,3.68,0,5.52,0a1.41,1.41,0,0,0,1.3-.64,4.44,4.44,0,0,1,3.65-1.75q15.06,0,30.11,0a4.9,4.9,0,0,1,5,5.06C158.65,144.67,158.62,148.43,158.61,152.19Z" transform="translate(-11.8 -35.98)"/><path class="cls-2" d="M113.06,138.23c-.43,0-.84.07-1.25-.24-.63-.47-1-.21-.92.55a4.31,4.31,0,0,0-3.08,3.17c-.33,1.19-.72,2.35-1.1,3.57a4.92,4.92,0,0,0-2-1.42.92.92,0,0,1-.62-.79c-.16-.66-.36-1.31-.55-2-.73-2.55-2-3.54-4.67-3.56-3.56,0-7.12,0-10.68,0-2.77,0-4.26,1.51-4.45,4.26.12.3.16.55-.29.54a5.93,5.93,0,0,0-3.38-.93c-2.06,0-4.13,0-6.19-.06-.37-3.38,2.24-5.58,5.49-5.55,9.54.09,19.08.07,28.62,0A5.64,5.64,0,0,1,113.06,138.23Z" transform="translate(-11.8 -35.98)"/><path class="cls-4" d="M186.6,145.21c7.2,0,14.4,0,21.6,0,.86,0,1.2.16,1.16,1.1q-.12,2.82,0,5.64c0,1-.27,1.2-1.21,1.19-9.08,0-18.16,0-27.24-.05-1.21,0-1.53.3-1.5,1.51.09,3.4.07,6.8,0,10.2,0,1,.26,1.27,1.26,1.27,9.12,0,18.24,0,27.36-.05,1.07,0,1.33.28,1.32,1.33-.05,7.24,0,14.48,0,21.72a2,2,0,0,1-.78,1.74c-1.47,1.16-2.71,2.88-4.36,3.48s-3.79.2-5.71.2q-16.62,0-33.24,0c-1,0-1.41-.17-1.35-1.29a51.19,51.19,0,0,0,0-5.4c0-1,.3-1.26,1.28-1.26,8.52,0,17,0,25.56,0,1.85,0,1.65.21,1.66-1.68,0-3.2,0-6.4,0-9.59,0-1-.24-1.29-1.26-1.29-8.64,0-17.28,0-25.92.05-1,0-1.35-.19-1.34-1.29q.08-13.2,0-26.4c0-1,.29-1.18,1.21-1.17C172.28,145.22,179.44,145.21,186.6,145.21Z" transform="translate(-11.8 -35.98)"/><path class="cls-4" d="M145.16,184.62c-2.76,0-5.52,0-8.28,0-.92,0-1.23-.22-1.22-1.19.05-5,0-10,.05-15,0-1.14-.35-1.41-1.42-1.36-1.68.08-3.36,0-5,0-.69,0-1,.24-1.12.91-1.25,5.16-2.56,10.3-3.79,15.46-.2.84-.48,1.18-1.4,1.17-3.92-.06-7.84,0-11.76,0-.8,0-1.21-.19-1.43-1-.4-1.54-.91-3.06-1.41-4.57-.21-.65-.25-1,.65-1,1.06,0,2.4.49,3.12-.22s.63-1.92.89-2.92c.59-2.32,1.14-4.65,1.76-7,.2-.72,0-.89-.69-.87-1.63,0-3.28,0-4.91,0-.81,0-1-.27-1-1,0-1.52.06-3,0-4.55,0-.82.27-1,1-1,5.51,0,11,0,16.55,0,1,0,1.29-.27,1.24-1.26a45,45,0,0,1,0-4.79c0-.94-.29-1.16-1.16-1.12-1.39.07-2.8.06-4.2,0-.72,0-1,.2-1.24.93-.66,2.33-.7,2.32-3.17,2.32-2.76,0-5.52,0-8.27,0a1,1,0,0,1-1.2-.85c-.36-1.26-.78-2.51-1.23-3.75-.19-.55-.17-.92.5-.78,1.64.34,2.08-.63,2.43-2,.56-2.08,1.28-4.11,1.88-6.18.18-.63.42-.93,1.13-.92q5.28,0,10.56,0c.83,0,1,.25.68,1-.33.9-.52,1.84-.83,2.75-.21.6-.15.82.57.85,3.53.15,3.53.17,3.53-3.28,0-2.63,0-2.63,2.6-2.63,3.08,0,6.16,0,9.24,0,.86,0,1.22.17,1.15,1.11-.09,1.12.06,2.25,0,3.36s.2,1.5,1.41,1.47c4-.08,8.07,0,12.11-.05.87,0,1.21.18,1.16,1.11a36.54,36.54,0,0,0,0,4.44c0,.95-.3,1.12-1.16,1.11-4,0-8,0-12,0-1.15,0-1.65.18-1.53,1.48a29.52,29.52,0,0,1,0,4.31c-.06,1.05.19,1.42,1.34,1.4,5.15-.07,10.31,0,15.47-.05.92,0,1.27.19,1.21,1.17a36.78,36.78,0,0,0,0,4.2c.05.92-.2,1.26-1.18,1.22-2.31-.07-4.64,0-6.95,0-.75,0-1.06.16-1,1q.07,4.5,0,9c0,.9.33,1,1.11,1,2.08,0,4.16,0,6.24,0,.69,0,.94.09.63.84q-1,2.43-1.91,4.91c-.23.67-.62.79-1.26.79C150.76,184.6,148,184.62,145.16,184.62Z" transform="translate(-11.8 -35.98)"/><path class="cls-4" d="M55.12,153.15c1.32-2.62,2.55-5,3.75-7.46.23-.46.6-.45,1-.45,6.79,0,13.59,0,20.39,0,1,0,.88.51.88,1.13V165.9c0,9.12,0,18.23,0,27.35,0,1-.28,1.25-1.27,1.24q-7.08-.08-14.15,0c-1.08,0-1.41-.25-1.4-1.38,0-12.87,0-25.75.05-38.62,0-1.1-.28-1.42-1.39-1.38C60.46,153.2,57.9,153.15,55.12,153.15Z" transform="translate(-11.8 -35.98)"/><path class="cls-4" d="M21.76,153.15c1.32-2.6,2.55-5.05,3.78-7.5.2-.41.54-.41.91-.41,6.83,0,13.67,0,20.51,0,.61,0,.9.17.83.81,0,.2,0,.4,0,.6,0,15.47,0,31,0,46.42,0,1.16-.28,1.46-1.44,1.44q-7-.1-13.91,0c-1.13,0-1.48-.24-1.48-1.43.05-12.79,0-25.59,0-38.38,0-1.54,0-1.54-1.53-1.54Z" transform="translate(-11.8 -35.98)"/><path class="cls-4" d="M103.43,173.6c0,6.4,0,12.79,0,19.18,0,.86-.15,1.17-1.1,1.16-4.71-.05-9.43,0-14.14,0-.85,0-1.22-.14-1.17-1.1a38.37,38.37,0,0,0,0-4.55c-.05-.95.31-1.11,1.16-1.1,2.69,0,2.69,0,2.69-2.64,0-7.75,0-15.5,0-23.26,0-1-.25-1.29-1.26-1.27-2.58.06-2.59,0-2.59-2.62,0-1.12,0-2.24,0-3.36,0-.57.1-.88.78-.88,5,0,9.91,0,14.86,0,1,0,.73.64.73,1.15Q103.45,163.95,103.43,173.6Z" transform="translate(-11.8 -35.98)"/><path class="cls-4" d="M103.64,187.24h54.57c-1.43,2.22-2.78,4.32-4.14,6.41-.3.46-.81.26-1.23.26H127.31c-6.12,0-12.23,0-18.35,0a1.65,1.65,0,0,1-1.62-.9C106.17,191.14,104.94,189.28,103.64,187.24Z" transform="translate(-11.8 -35.98)"/><path class="cls-4" d="M103.56,147.42c-.31,1.34-.62,2.61-.91,3.89-.11.49-.42.59-.87.59-3.59,0-7.19,0-10.78,0a.85.85,0,0,1-1-.77c-.74-3-1.47-5.95-2.28-8.91-.21-.79.06-.87.71-.86,3.48,0,7,0,10.42,0a1,1,0,0,1,1.15.87c.31,1.28.74,2.53,1,3.81.21,1,.64,1.56,1.75,1.33A3.78,3.78,0,0,1,103.56,147.42Z" transform="translate(-11.8 -35.98)"/><path class="cls-3" d="M52.6,174V156.12c1.59,1,3.3.9,5,.84,1,0,1.06.33.6,1.06a5.75,5.75,0,0,0-.43.86c-.45,1.17,0,2,1.24,1.9s1.59.39,1.56,1.6c-.1,3.8-.07,7.59-.09,11.39a1,1,0,0,1-.63.3A56.41,56.41,0,0,1,52.6,174Z" transform="translate(-11.8 -35.98)"/><path class="cls-5" d="M163.9,177.87c2.29-.05,2.29-.05,2.44,2.18.08,1.21.55,1.64,1.86,1.64h19.07c.32,0,.64,0,.95,0s.38.34.38.63-.12.46-.42.47H164.93a5,5,0,0,0-3.09.73c-.5.36-.89,0-1.31-.16A31.56,31.56,0,0,1,163.9,177.87Z" transform="translate(-11.8 -35.98)"/><path class="cls-6" d="M52.6,174a4.47,4.47,0,0,1,2.32-.21c1.85,0,3.7,0,5.55,0a24.93,24.93,0,0,1,0,4.32l-7.88,0C52.61,176.71,52.61,175.36,52.6,174Z" transform="translate(-11.8 -35.98)"/><path class="cls-7" d="M163.9,177.87a27.18,27.18,0,0,1-3.37,5.53h-1.4c.72-2.9,3.27-5.74-.11-8.45,1.09-.25,1.1-.25,1.55.67A4.25,4.25,0,0,0,163.9,177.87Z" transform="translate(-11.8 -35.98)"/><path class="cls-8" d="M86.65,163.72c.59,0,.43.48.43.79,0,6,0,12.08,0,18.11,0,.57-.14,1-.77.94s-.37-.61-.38-.94c0-1.51,0-3,0-4.55a2,2,0,0,0,.56-1.73c0-.83,0-1.66,0-2.49-.07-3.11,0-6.21,0-9.32A1.51,1.51,0,0,1,86.65,163.72Z" transform="translate(-11.8 -35.98)"/><path class="cls-9" d="M86.65,163.72a2,2,0,0,1,.23,1.15q0,4.57,0,9.15a.64.64,0,0,1-.89,0c0-3.24,0-6.47-.06-9.71C85.92,163.75,86,163.45,86.65,163.72Z" transform="translate(-11.8 -35.98)"/><path class="cls-10" d="M108.24,172.56a5.16,5.16,0,0,1,0-1.18c.21-.82.9-.39,1.38-.44.66-.07.4.4.32.71-.15.65-.36,1.3-.47,2-.08.47-.25.69-.77.66s-.46-.42-.48-.76,0-.63,0-.95Z" transform="translate(-11.8 -35.98)"/><path class="cls-11" d="M86,174h.89c0,1.08,0,2.16,0,3.23,0,.72-.29.92-.93.82C86,176.72,86,175.37,86,174Z" transform="translate(-11.8 -35.98)"/><path class="cls-12" d="M131.92,179.23c0,1.23,0,2.22,0,3.2,0,.32.19.77-.31.91a.89.89,0,0,1-.67-.07c-.3-.25,0-.58,0-.86A14,14,0,0,1,131.92,179.23Z" transform="translate(-11.8 -35.98)"/><path class="cls-13" d="M85.45,149.77c-.34.31-.48.17-.49-.22a9.35,9.35,0,0,1,.18-2.27l.24.83C85.2,148.67,85.53,149.21,85.45,149.77Z" transform="translate(-11.8 -35.98)"/><path class="cls-14" d="M85.45,149.77a1.5,1.5,0,0,1-.07-1.66C85.35,148.66,86,149.19,85.45,149.77Z" transform="translate(-11.8 -35.98)"/><path class="cls-15" d="M160,191.67c.05.37.18.66-.2.78a.4.4,0,0,1-.3-.09A.82.82,0,0,1,160,191.67Z" transform="translate(-11.8 -35.98)"/><path class="cls-16" d="M83.49,142.35c.23-.11.25-.33.29-.53.22.23.35.54.13.79S83.59,142.52,83.49,142.35Z" transform="translate(-11.8 -35.98)"/><path class="cls-17" d="M79.67,41.29c11.56,0,23.11,0,34.67,0,1,0,1.31.2,1.28,1.24-.08,2.43-.07,4.87,0,7.31,0,.93-.28,1.15-1.16,1.13s-2.38-.48-3,.21-.18,1.91-.18,2.91q0,29.44,0,58.91c0,1.12-.31,1.38-1.4,1.37q-11.16-.06-22.31,0a1.45,1.45,0,0,1-1.66-1.1c-.94-2.51-1.94-5-3-7.46-.35-.84-.14-1,.7-1,2.4,0,4.8,0,7.2,0,.78,0,1.12-.14,1.12-1q0-25.92,0-51.83c0-1-.48-1-1.24-1-15.27,0-30.55,0-45.83,0-1.22,0-1.55-.3-1.49-1.51.1-2.27.08-4.56,0-6.84,0-1,.19-1.34,1.29-1.33C56.39,41.3,68,41.29,79.67,41.29Z" transform="translate(-11.8 -35.98)"/><path class="cls-17" d="M71.81,92.71c-1.21,2.28-2.47,4.54-3.62,6.85a1.55,1.55,0,0,1-1.65,1c-6.12,0-12.24,0-18.36,0-1,0-1.16-.3-1.16-1.21q0-20.88,0-41.75c0-1,.27-1.18,1.2-1.18q19.66,0,39.35,0c1,0,1.23.3,1.23,1.27q0,20.82,0,41.63c0,1-.3,1.25-1.28,1.24q-7.12-.07-14.27,0c-1,0-1.22-.29-1.19-1.22.06-2.19,0-4.38,0-6.57Z" transform="translate(-11.8 -35.98)"/><path class="cls-18" d="M27.46,114.45c-2.44,0-4.88,0-7.32,0a1.22,1.22,0,0,1-1.41-.93q-1.15-3.53-2.45-7c-.3-.84-.32-1.24.77-1.2.94,0,2.12.43,2.78-.19s.46-1.8.62-2.73c1-5.8,2.06-11.6,3-17.41.13-.77.41-1,1.14-1q8,0,16,0c.67,0,1,0,.83.93q-2.62,14.19-5.17,28.41a1.11,1.11,0,0,1-1.35,1.08C32.42,114.41,29.94,114.45,27.46,114.45Z" transform="translate(-11.8 -35.98)"/><path class="cls-19" d="M26.29,62.16c2.6,0,5.2,0,7.8,0a1.24,1.24,0,0,1,1.42,1c.85,2.68,1.83,5.32,2.61,8,.29,1,.68,1.31,1.69,1.26,1.81-.08,1.82,0,1.27,1.73-.39,1.24-.86,2.47-1.16,3.74-.22.88-.66,1.08-1.51,1.07q-7.24,0-14.5,0A1.32,1.32,0,0,1,22.36,78Q20,70.63,17.49,63.32c-.34-1-.1-1.2.89-1.18C21,62.2,23.66,62.16,26.29,62.16Z" transform="translate(-11.8 -35.98)"/><path class="cls-17" d="M26.2,40.48c2.63,0,5.27,0,7.91,0a1.11,1.11,0,0,1,1.27.93c.82,2.63,1.77,5.22,2.54,7.86.35,1.18.85,1.69,2.14,1.56s1.42,0,.95,1.29S39.92,55,39.43,56.49a.91.91,0,0,1-1,.74q-7.38,0-14.76,0a1,1,0,0,1-1.1-.81q-2.45-7.52-4.95-15c-.25-.74-.13-1,.69-.95C20.92,40.51,23.56,40.48,26.2,40.48Z" transform="translate(-11.8 -35.98)"/><path class="cls-14" d="M42.72,65.19c0,.84,0,1.68,0,2.52,0,.28.19.75-.22.8A.9.9,0,0,1,41.42,68c-.43-1.23-1-2.44-.23-3.78A13.78,13.78,0,0,0,42,62.05c.08-.22.12-.55.4-.51s.34.37.34.66Z" transform="translate(-11.8 -35.98)"/><path class="cls-17" d="M147.84,56.12c0-4.88,0-9.75,0-14.63,0-.88.13-1.24,1.14-1.23,5.16.06,10.32.05,15.48,0,.83,0,1.16.12,1.16,1.09q0,36.17,0,72.33c0,.87-.27,1-1.08,1q-7.86,0-15.72,0c-.8,0-1-.24-1-1,0-2.83,0-5.68,0-8.51,0-1-.37-1.16-1.23-1-7,.92-14,1.8-21,2.76-.9.12-1.08-.06-1.07-.92q.08-4.38,0-8.76c0-.75.22-1,1-1.1,5.31-.65,10.61-1.36,15.92-2,1.9-.25,3.8-.54,5.71-.71.92-.09.7-.69.7-1.2q0-11.52,0-23c0-.8,0-1.6,0-2.4a29.44,29.44,0,0,1-.12-5.14A34.85,34.85,0,0,1,147.84,56.12Z" transform="translate(-11.8 -35.98)"/><path class="cls-18" d="M147.84,56.12c.3.19.24.48.24.75V66c0,.27.06.56-.24.75-7.3,0-14.61-.05-21.92,0-1,0-1.43-.21-1.39-1.35.09-2.71.07-5.43,0-8.14,0-.93.28-1.11,1.14-1.11,6.91,0,13.82,0,20.73,0C146.89,56.16,147.37,56.14,147.84,56.12Z" transform="translate(-11.8 -35.98)"/><path class="cls-20" d="M180.2,40.29c.28-.34.67-.2,1-.2,5.22,0,10.45,0,15.68,0,.89,0,1.14.22,1.13,1.12,0,5.07,0,10.14,0,15.2a2,2,0,0,1,.34,1.25q0,3.88,0,7.77a1.67,1.67,0,0,1-.33,1.24c0,7,0,14.08,0,21.12,0,5.84,0,11.67,0,17.51a25.18,25.18,0,0,1,0,9.24c-.24.32-.58.2-.89.21H181.09c-.31,0-.65.12-.89-.2a3.4,3.4,0,0,1-.07-1.19q0-35.92,0-71.84A3.4,3.4,0,0,1,180.2,40.29Z" transform="translate(-11.8 -35.98)"/><path class="cls-17" d="M198,66.64V56.38c7.14,0,14.29,0,21.44,0,1,0,1.29.24,1.26,1.25-.08,2.59-.07,5.19,0,7.78,0,1-.24,1.29-1.25,1.28C212.33,66.63,205.19,66.65,198,66.64Z" transform="translate(-11.8 -35.98)"/><path class="cls-17" d="M198,114.51v-9.24H220.8c1.39,0,1.39,0,.75,1.22-1.26,2.36-2.54,4.71-3.75,7.09a1.48,1.48,0,0,1-1.56.94C210.18,114.49,204.11,114.51,198,114.51Z" transform="translate(-11.8 -35.98)"/><path class="cls-21" d="M180.2,40.29c0,.36,0,.72,0,1.08v72.06c0,.36,0,.72,0,1.08-.36-.32-.19-.75-.19-1.13q0-36,0-72C180,41,179.84,40.61,180.2,40.29Z" transform="translate(-11.8 -35.98)"/><path class="cls-1" d="M72.09,78.28c0,4.16,0,8.31,0,12.46,0,1-.3,1.27-1.27,1.24-2.08-.08-4.16,0-6.23,0-.7,0-1-.14-1-.92q0-12.89,0-25.76c0-.7.25-.89.91-.88,2.19,0,4.39,0,6.59,0,.84,0,1,.33,1,1.06C72.07,69.73,72.09,74,72.09,78.28Z" transform="translate(-11.8 -35.98)"/></svg>