<svg id="圖層_1" data-name="圖層 1" xmlns="http://www.w3.org/2000/svg" viewBox="0 0 229.06 186.39"><defs><style>.cls-1{fill:#3ba485;}.cls-2{fill:#199698;}.cls-3{fill:#f6ea9a;}.cls-4{fill:#f3c352;}.cls-5{fill:#fee13f;}.cls-6{fill:#6bc0c1;}.cls-7{fill:#6bc0c3;}.cls-8{fill:#4ed1aa;}.cls-9{fill:#f4e99a;}.cls-10{fill:#fefefe;}.cls-11{fill:#fde13f;}.cls-12{fill:#fdfdfd;}.cls-13{fill:#45a886;}.cls-14{fill:#fafcfb;}.cls-15{fill:#d5de97;}.cls-16{fill:#c3e3da;}.cls-17{fill:#e4f2ee;}.cls-18{fill:#dfefeb;}.cls-19{fill:#7ec3af;}.cls-20{fill:#f1c352;}.cls-21{fill:#edc254;}.cls-22{fill:#f2c352;}.cls-23{fill:#eec253;}.cls-24{fill:#d8be5a;}.cls-25{fill:#bbb864;}.cls-26{fill:#f3e99a;}.cls-27{fill:#fcfdfd;}</style></defs><title>33</title><path class="cls-1" d="M105.77,192.44c-2.86,3.5-7.7,3.87-10.71,0a3.11,3.11,0,0,1-1.36-1.77c-2.07-4.63-4.46-9.1-6.82-13.58-2.9-5.49-6-10.82-9.22-16.14a12.47,12.47,0,0,1-1.19-2.22c-.93-2.68-.79-4.13.75-6.75H64.34c2,3,1.57,6,.45,9a143.76,143.76,0,0,1-7.17,16.1c-.73,1.09-1.25,2.3-1.95,3.4-.24.37-.41.79-.87.94a100.42,100.42,0,0,1-6.5,9.47c-1.49,1.9-3.14,3.57-5.7,4.07a6.19,6.19,0,0,1-7.07-4.1,6.52,6.52,0,0,1,1.07-6.42A82.08,82.08,0,0,0,44,174.13c.41-.73.79-1.47,1.18-2.21,1.07-2.92,2.63-5.63,3.78-8.52.9-2.26,1.8-4.52,2.66-6.8a13.3,13.3,0,0,1,2.48-4.6H46.87a3.19,3.19,0,0,1-1.75-.23c-2-.23-4,.08-6.09-.29-3.46-.64-5.13-4.36-4.66-7.2.62-3.81,2.81-5.58,6.68-5.61l4.07-.06a3.21,3.21,0,0,1,1.76-.23H64.25c1.52,0,1.61-.14.94-1.45-.79-1.57-1.66-3.1-2.55-4.61a16.69,16.69,0,0,1-1.38-2.52A7.75,7.75,0,0,1,61,125a6.57,6.57,0,0,1,5.77-4.87,6.35,6.35,0,0,1,6.18,2.37c1.74,2.13,2.7,4.7,4,7.09,1.25,2.58,2.82,5,3.34,7.91.15.84.77.9,1.45.9H91.76c.23,0,.47,0,.71,0,3,0,5.91,0,8.86,0a7.29,7.29,0,0,1,4.64,1.3,1.47,1.47,0,0,0,1.77.12,106,106,0,0,0,18.07-12.51c1.72-1.19,3-2.86,4.6-4.17a11.24,11.24,0,0,1,6.83-2.85,11.48,11.48,0,0,1,7.26,2.33c1.95,1.46,3.69,3.17,5.64,4.62A93.32,93.32,0,0,0,171,140.05a1.52,1.52,0,0,0-.69-1.87c-2.32-1.88-2.78-6.76-.83-9.38a7.7,7.7,0,0,1,2.1-1.76,10.54,10.54,0,0,1,4.17-.92c3.62,0,7.23-.18,10.83-.46a4.86,4.86,0,0,1,2.36.19,118.15,118.15,0,0,0,18.24-2.58c2.81-.6,5.43-.14,7.23,2.47a7.3,7.3,0,0,1,.11,7.38c-.68,1,.23,1.9,0,3a38.83,38.83,0,0,0,5.64-4.28A47.07,47.07,0,0,0,227,124.4a7.91,7.91,0,0,1,5.2-3.54c3.62-.57,8,2.91,7.27,7.11-.44,2.58-2,4.5-3.59,6.4a71.61,71.61,0,0,1-18.48,15.49c-2.61,1.58-5.37,2-8.05-.09l-2.17,3.47c1.35.29,2.7,0,4,.3a5.74,5.74,0,0,1,3.61,2.13c.43.6.71.21,1.06,0A63,63,0,0,0,226,146.31c1.64-1.79,2.78-4,4.84-5.44a6.06,6.06,0,0,1,6.86-.1,6.14,6.14,0,0,1,3.05,6.7A12.45,12.45,0,0,1,238,152.7a71.57,71.57,0,0,1-21.26,18,7.7,7.7,0,0,1-6.92.66c2,2.53,3.71,4.79,3.12,8a16.84,16.84,0,0,0,3.49-2A52.23,52.23,0,0,0,230,164c.44-.62.88-1.24,1.34-1.84a6.46,6.46,0,0,1,10.5,0,6.28,6.28,0,0,1,.34,7.48A67.54,67.54,0,0,1,230,183.7a59.41,59.41,0,0,1-19.27,11.65c-1.93.7-3.88,1.44-6.05,1a5.59,5.59,0,0,1-4.4-4.24c-.08-.3-.16-.61-.28-1a3,3,0,0,0-.5,1.63c-.67,3.42-3.86,4.72-6.69,4.53a6,6,0,0,1-5.09-2.9,8.07,8.07,0,0,1-1-4c0-2.92,0-5.84,0-8.76V180l-2.22,2.52a2.17,2.17,0,0,1-.67,1.11,58.08,58.08,0,0,1-6.12,5.17c-3.51,2.33-6.92,1.67-9.49-1.13a6.64,6.64,0,0,1-.58-8,20.77,20.77,0,0,1,4.09-4.18,58.69,58.69,0,0,0,7.84-8.23.35.35,0,0,0,.08-.35,2.25,2.25,0,0,0-1.38-.05,14.92,14.92,0,0,1-6.58-.46,6.41,6.41,0,0,1-4.74-7.82,6.34,6.34,0,0,1,2.36-4.25,13.59,13.59,0,0,1-3.33-.95,1.2,1.2,0,0,0-1.69.53,5.39,5.39,0,0,1-4.87,2.51c-.88-.88-1.5.15-2.25.31-5.43.09-10.86,0-16.3,0-7.62,0-15.25,0-22.88,0a3.76,3.76,0,0,1-1.06.07c-.93-.35-1.93-.49-2.86-.84a4.39,4.39,0,0,1-1.93-1.37c-.57-.71-1.09-.66-1.86-.29-2.19,1-4.42,1.87-6.92,1.14A5.57,5.57,0,0,1,100,153.1,2.17,2.17,0,0,0,97.77,152c-1.68,0-3.36,0-5,0-1.08,0-2.16,0-3.23,0s-1.1,0-.55.94c1.31,2.19,2.6,4.39,3.89,6.59,3.17,5.59,6.25,11.23,9.18,16.95,1.39,2.7,2.83,5.37,4.14,8.1a7.9,7.9,0,0,1,.68,6.36A2.39,2.39,0,0,1,105.77,192.44Z" transform="translate(-14.18 -33.7)"/><path class="cls-2" d="M102,62.89A7.67,7.67,0,0,1,105.52,58a6,6,0,0,1,6.75,0,26.21,26.21,0,0,1,4.21,3.74c.45.46.7.48,1.07-.07a18,18,0,0,1,1.28-1.56c-2.59-1.47-3.81-4.16-5.52-6.42-1.9-2.53-4.08-4.82-6-7.32a6.22,6.22,0,0,1-.93-6.85,7.23,7.23,0,0,1,6.31-4.15,6.27,6.27,0,0,1,5,2.3c1.92,2.09,3.77,4.25,5.51,6.49.46.6.75.89,1.66.41a9.93,9.93,0,0,1,5-.88c1.06,0,2.42.45,3.13-.18s.14-2,.22-3c.2-2.63,1.09-4.94,3.62-6a7.37,7.37,0,0,1,7.73.73c1.75,1.3,2.2,3.26,2.36,5.29a21.19,21.19,0,0,1,0,2.52c0,.53.19.7.7.69q3.6,0,7.2,0c.64,0,.69-.32.69-.82a18.09,18.09,0,0,1,.31-4.4c.86-3.63,3.94-5,7.07-4.78a6.07,6.07,0,0,1,5.36,3.1,9,9,0,0,1,1,4.26c0,2.64,0,2.59,2.69,2.65a39.9,39.9,0,0,1,7.4.35c3.54.75,5,4.13,4.63,7.12-.49,4.53-3,5.9-7.14,6.13-2.15.12-4.32,0-6.48,0-.35,0-.8-.25-1.06.24a1.53,1.53,0,0,0,1.65.89c2,0,4.08,0,6.11,0a21.06,21.06,0,0,1,3.8.43c4.13.69,5.59,4.61,5.15,7.71-.54,3.92-2.91,6-6.88,6.18-.59,0-1.19,0-2,0a11.1,11.1,0,0,0,1.42,1.31c1.44,1.14,3,2.13,4.5,3.18a8.35,8.35,0,0,1,3.54,5.08A7.12,7.12,0,0,1,180.42,91a5.29,5.29,0,0,1-2.23-.37,10.93,10.93,0,0,0-1.36-.47,14.4,14.4,0,0,1-3.54-1.94c-.33,1.44-.28,1.52,1,1.46a6,6,0,0,1,2.33.43c.43.25,1,.22,1.39.48a4.86,4.86,0,0,1,3,2.92,10.44,10.44,0,0,1,1,4.79,37.49,37.49,0,0,1-1.23,8.28,11.35,11.35,0,0,1-8.48,8.3,51.2,51.2,0,0,1-12.69,1.6,118.43,118.43,0,0,1-16.63-.77c-3.09-.4-6.15-1-8.75-3a10,10,0,0,1-3.5-4.75,20.2,20.2,0,0,1-1.2-6.58c0-4.16,0-8.32,0-12.48a2.18,2.18,0,0,0-.17-1.27c-.81.36-1.56.76-1.77,1.74-.75,3.56-2.54,6.72-4,10a91,91,0,0,1-4.26,8c-1.24,1.87-2.27,3.86-3.51,5.72a10.46,10.46,0,0,1-1.69,2.17c-2.14,1.87-4.54,2.64-7.3,1.5-2.58-1.07-4.33-2.83-4.7-5.71a7.41,7.41,0,0,1,.75-3.82,18.16,18.16,0,0,1,2.13-3.47,60.16,60.16,0,0,0,8.32-15.72,11.19,11.19,0,0,1,2.58-4.68,3,3,0,0,0,.68-1.64.78.78,0,0,0-.47-1c-2.19-.93-3.53-2.84-5-4.53-2.09-2.38-4.36-4.56-6.63-6.75a7.92,7.92,0,0,1-2.72-5.17A1.77,1.77,0,0,1,102,62.89Z" transform="translate(-14.18 -33.7)"/><path class="cls-2" d="M55,115.74c-6.92,0-13.84,0-20.76-.06a11.26,11.26,0,0,1-6.81-1.88A6.93,6.93,0,0,1,24.77,110a18.39,18.39,0,0,1-.79-5.43c0-6.28,0-12.56.06-18.84,0-.87-.28-.93-.95-.73a7.09,7.09,0,0,1-6.51-.91C13.78,82,13,76,16.5,73.33a13.11,13.11,0,0,1,4.3-2,72,72,0,0,0,14.51-6c-.58,0-.9-.09-1.23-.09-4,0-7.92.07-11.87,0-2.57-.06-5.06-.56-6.6-3-2.34-3.65-.88-9.34,3.84-10.36,2.3-.49,4.6-.21,6.86-.35-5.43-1.6-5.48-8.17-3.21-11,1.37-1.73,3.35-2.05,5.33-2.34a53.06,53.06,0,0,1,7.67,0q18.54,0,37-1.31c3.51-.24,7-.53,10.52-.83a11.14,11.14,0,0,1,2.16,0c2.45.25,4.49,1.21,5.45,3.66,1,2.6,1,5.15-.8,7.46C89,49,86.76,49.44,84.58,49.67c-4,.42-8,.67-12.07,1-2.72.19-5.43.32-8.15.48-.17,0-.39,0-.53.26a2.08,2.08,0,0,0,1.34.17c8.71,0,17.43,0,26.15,0,2.46,0,4.85.5,6.3,2.77a7.24,7.24,0,0,1-.25,8.51,3.49,3.49,0,0,1-2.48,2.05,11.84,11.84,0,0,1-4,.72c-3.64,0-7.28,0-10.92,0a1.64,1.64,0,0,1-1.28-.31,71.87,71.87,0,0,0,13.73,6.17,10.84,10.84,0,0,1,5.13,3.17c2.59,3,1.8,8.47-1.58,10.57a6.71,6.71,0,0,1-4.25,1c-1.51-.15-1.62-.15-1.62,1.6q0,9,0,18a12.26,12.26,0,0,1-1.29,5.55,7.54,7.54,0,0,1-4.89,4,17.29,17.29,0,0,1-5,.71c-5.4,0-10.8,0-16.2,0-1.48,0-3,0-4.44,0C57.2,115.93,56,116.33,55,115.74Z" transform="translate(-14.18 -33.7)"/><path class="cls-3" d="M62.89,115.71c5.6,0,11.19,0,16.79,0a11.67,11.67,0,0,0,6.08-1.51c2.95-1.79,3.91-4.72,4-7.88.15-6.43.09-12.87.06-19.3,0-1,0-1.42,1.32-1.19a6.29,6.29,0,0,0,7.37-4.71c1.11-4.3-1.38-7.55-4.95-8.84-2.75-1-5.51-1.91-8.16-3.12a78.75,78.75,0,0,1-7-3.67c.28-.39.67-.22,1-.22,3.92,0,7.83,0,11.75,0a8.29,8.29,0,0,0,6.32-2.37l4.63,0a7.33,7.33,0,0,0,2.5,6.31,108.22,108.22,0,0,1,8.74,9,7.25,7.25,0,0,0,3.35,2.41c.38.11.55.27.42.68-.29.91-.28,1.88-1.18,2.62a5.44,5.44,0,0,0-1.59,2.5,68.41,68.41,0,0,1-10,19.09,7.57,7.57,0,0,0-1.62,6.38,6.6,6.6,0,0,0,4.52,4.7,6.37,6.37,0,0,0,7.74-2.64c1.45-2.14,2.78-4.37,4.16-6.55.57.54.42,1.26.42,1.92,0,5.31,0,10.61,0,15.92,0,1.71.06,1.76,1.73,1.77,1.16,0,2.31,0,3.47,0a1.75,1.75,0,0,1,1.45.41,88.52,88.52,0,0,1-12.58,9.31c-2,1.23-4,2.31-6,3.49a1,1,0,0,1-1.46-.1,6.67,6.67,0,0,0-4.56-1.49c-2.95-.05-5.9-.05-8.85-.07a2,2,0,0,1-.37-1.58c0-1.87,0-3.75,0-5.62,0-1.3-.12-1.42-1.45-1.42-4.1,0-8.21,0-12.31,0a2.9,2.9,0,0,1-1.84-.36c-1.2-2.11-2.18-4.34-3.52-6.4a6.7,6.7,0,0,0-11.18.27,5.84,5.84,0,0,0-.81,4.58c.14.5.2,1,.3,1.52a.66.66,0,0,1-.39.26,19.55,19.55,0,0,1-6.06-.13c-.54-.59-.38-1.33-.39-2a26.37,26.37,0,0,1,0-3c.19-1.24,1.2-2,2-2.76,1.72-1.82,3.4-3.66,5.14-5.46A3.23,3.23,0,0,1,62.89,115.71Z" transform="translate(-14.18 -33.7)"/><path class="cls-4" d="M126.08,127.47c-2,0-3.92-.08-5.87,0-1,0-1.19-.31-1.19-1.23,0-6.06,0-12.13,0-18.2,0-.2,0-.4,0-.59a141.32,141.32,0,0,0,7-14.2,9.34,9.34,0,0,0,1-2.81,3.57,3.57,0,0,1,2.77-3.34c.2.28.1.65.1,1q0,6.48,0,13a20.42,20.42,0,0,0,1.09,6.59,10.41,10.41,0,0,0,7.47,6.83,41.94,41.94,0,0,0,9.45,1.43,127,127,0,0,0,16.78,0,38.6,38.6,0,0,0,8.92-1.74,9.58,9.58,0,0,0,6.06-5.48,23.51,23.51,0,0,0,1.62-13.59,6.4,6.4,0,0,0-3.36-4.42c0-.2,0-.35.25-.22a6.31,6.31,0,0,0,5.75-1.13A7.09,7.09,0,0,0,185.19,80a13.11,13.11,0,0,0-3.84-3.39,40.64,40.64,0,0,1-4-3c-.33-.28-.63-.58-1.14-1a28.08,28.08,0,0,0,4.83-.36c3.61-.82,5.14-4.44,4.67-7.47-.68-4.47-3.22-5.62-7.34-5.8-2.63-.12-5.28-.07-7.92,0-1,0-1.39-.31-1.14-1.3h18.12c1.71,0,1.5-.21,1.5,1.56v65.13c0,.52,0,1,0,1.56a119.05,119.05,0,0,1-12.38.61,14.08,14.08,0,0,0-5.22,1,4.79,4.79,0,0,1-2,.38H152a4.48,4.48,0,0,1-2-.37c-2-1.36-3.67-3.19-5.67-4.57-3.69-2.55-7.59-3.13-11.67-.94a14.6,14.6,0,0,0-3.29,2.57A27,27,0,0,1,126.08,127.47Z" transform="translate(-14.18 -33.7)"/><path class="cls-1" d="M116.83,156.7l.77-.22a1.73,1.73,0,0,0,1.05.12h38.24c.26,0,.56.13.79-.13.46-1.14,1.08-.93,1.75-.19.14.41.53.26.8.32a7.35,7.35,0,0,1,5.84,5.39,21.48,21.48,0,0,1,.84,5.91c0,4.15.11,8.31,0,12.46-.11,2.8.13,5.66-.72,8.42-.45,1.47-1,2.88-2.42,3.69-2.34,1.8-5,2.19-7.9,2.19q-18.2,0-36.41,0a11.72,11.72,0,0,1-7.53-2.21,4.11,4.11,0,0,1-2.16-2.72,17.23,17.23,0,0,1-1.1-6.1q-.07-8,0-16.05a19.74,19.74,0,0,1,.83-5.55,7.46,7.46,0,0,1,5.87-5.38A2.13,2.13,0,0,1,116.83,156.7Z" transform="translate(-14.18 -33.7)"/><path class="cls-3" d="M87.14,177.11c2.38,4,4.3,8.33,6.42,12.51.49.95,1,1.89,1.5,2.84q-19.56,0-39.12,0c-.82,0-1-.3-1-1.05,0-2.92,0-5.84,0-8.76a2.28,2.28,0,0,0-.16-1.29l2.49-4.31a2.82,2.82,0,0,1,1.73-.36h26.4A2.49,2.49,0,0,1,87.14,177.11Z" transform="translate(-14.18 -33.7)"/><path class="cls-3" d="M116.83,156.7c-4.82.63-7.34,3.3-7.64,8.41-.38,6.5-.1,13-.13,19.53a18.69,18.69,0,0,0,.41,3,9.07,9.07,0,0,0,2.42,4.85h-6.12c1.75-2.58,1.38-5.24.09-7.81Q102,177,98.06,169.54c-1.77-3.35-3.62-6.64-5.44-10-.67-2.37-.3-4.79-.29-7.19a.85.85,0,0,1,.31-.62l6.23-.06c.32,0,.6,0,.79.38,2,3.84,5.77,4.09,9.31,2.53,1.61-.7,2.85-1.37,4.12.47.55.8,1.66.89,2.59,1.12C116.09,156.31,116.57,156.25,116.83,156.7Z" transform="translate(-14.18 -33.7)"/><path class="cls-3" d="M163.73,192.47c2.21-2.39,2.69-5.38,2.74-8.44.09-5.7,0-11.41,0-17.12a16.86,16.86,0,0,0-.84-5.17c-1.07-3.28-3.6-4.65-6.92-5.08l.7-.38a5.66,5.66,0,0,0,5-3c.33-.59.59-.58,1.09-.35a16.32,16.32,0,0,0,4.53,1.26,7,7,0,0,0-2.8,4.57c-.48,2.29.63,5.71,3,6.9a9.4,9.4,0,0,0,3.45.88c.94.08,1.92-.14,2.8.4a.77.77,0,0,0,.8-.07c1-.54,2-.27,3.21-.28a36.49,36.49,0,0,1-3.84,4.72,57.42,57.42,0,0,1-6,5.64,9.12,9.12,0,0,0-3.59,5.35,6.65,6.65,0,0,0,4.42,7.31,6.76,6.76,0,0,0,6.22-1.07,63.84,63.84,0,0,0,6.86-6c0,2.95,0,5.9.07,8.86,0,.84-.25,1.08-1.09,1.08C176.91,192.46,170.32,192.47,163.73,192.47Z" transform="translate(-14.18 -33.7)"/><path class="cls-5" d="M54.94,129.57l6.5,0c1.58,2.68,3.19,5.35,4.52,8.17.17.37.65.92-.34.92l-20.5-.07c0-2.7,0-5.39,0-8.09,0-.73.21-1,.94-.93s1.59,0,2.38,0a1.71,1.71,0,0,1,1.31-.31c1.26,0,2.51-.05,3.76,0A2.07,2.07,0,0,1,54.94,129.57Z" transform="translate(-14.18 -33.7)"/><path class="cls-5" d="M45.12,151.77h9.41c-2.64,3.39-3.39,7.58-5.1,11.33a80.48,80.48,0,0,1-4.27,8.82Q45.15,161.86,45.12,151.77Z" transform="translate(-14.18 -33.7)"/><path class="cls-6" d="M204.21,103.2a5.52,5.52,0,1,1,5.55-5.43A5.54,5.54,0,0,1,204.21,103.2Z" transform="translate(-14.18 -33.7)"/><path class="cls-6" d="M32.4,127.43a5.52,5.52,0,1,1-5.47-5.51A5.54,5.54,0,0,1,32.4,127.43Z" transform="translate(-14.18 -33.7)"/><path class="cls-6" d="M111.11,212.4a5.52,5.52,0,1,1,5.53-5.45A5.54,5.54,0,0,1,111.11,212.4Z" transform="translate(-14.18 -33.7)"/><path class="cls-7" d="M198.41,80.89a1.7,1.7,0,0,1-1.46-1,1.24,1.24,0,0,1,.24-1.54q1.8-2,3.64-4,7.39-7.86,14.78-15.71c.94-1,1.7-1.11,2.47-.4s.78,1.49-.24,2.58q-6.47,6.9-13,13.79l-4.93,5.24A2.47,2.47,0,0,1,198.41,80.89Z" transform="translate(-14.18 -33.7)"/><path class="cls-7" d="M64.78,220.09a1.72,1.72,0,0,1-1.51-1,1.25,1.25,0,0,1,.24-1.54q1.7-1.87,3.4-3.71,7.55-8,15.11-16.06c.87-.92,1.64-1,2.39-.29s.77,1.47-.18,2.48q-6.47,6.92-13,13.8c-1.67,1.78-3.35,3.54-5,5.32A2.6,2.6,0,0,1,64.78,220.09Z" transform="translate(-14.18 -33.7)"/><path class="cls-7" d="M49.74,129.56H48.42c-1.25-1.15-1.25-1.8-.05-3.08,2.21-2.38,4.42-4.78,6.62-7.16a11.54,11.54,0,0,1,3.31-3.61h4.59q-4,4.29-8,8.56C53.38,126.21,52,128.34,49.74,129.56Z" transform="translate(-14.18 -33.7)"/><path class="cls-8" d="M180.24,197.93a3.72,3.72,0,1,1-3.71-3.77A3.76,3.76,0,0,1,180.24,197.93Z" transform="translate(-14.18 -33.7)"/><path class="cls-8" d="M31.2,155.85a3.72,3.72,0,1,1-3.78-3.69A3.76,3.76,0,0,1,31.2,155.85Z" transform="translate(-14.18 -33.7)"/><path class="cls-9" d="M58.3,115.71a29.75,29.75,0,0,1-3.31,3.6c0-1.19,0-2.38,0-3.57Z" transform="translate(-14.18 -33.7)"/><path class="cls-10" d="M102.83,147.89H41.05c-2.24,0-3.3-1.3-2.88-3.48a2.07,2.07,0,0,1,2-1.88c.36,0,.72,0,1.08,0h59.88c2.65,0,3.56,1,3.17,3.66a8.35,8.35,0,0,0,2.43-1.2,107.65,107.65,0,0,0,21.44-14.2c1.5-1.27,2.93-2.61,4.35-4,3.23-3.07,6.64-3.3,10.07-.42a142.18,142.18,0,0,0,13.56,10.29,89.62,89.62,0,0,0,12.6,6.91,10.75,10.75,0,0,1,2.7,1.53c1.26,1.08,1.43,2.35.52,4-.68,1.22-1.59,1.54-3.18,1a47.37,47.37,0,0,1-7.75-3.76,133.33,133.33,0,0,1-21.42-15.12c-1.8-1.52-1.48-1.94-3.65.06a129.47,129.47,0,0,1-26.9,19.13,17.44,17.44,0,0,1-2.06.95C104.07,152.41,102.38,151,102.83,147.89Z" transform="translate(-14.18 -33.7)"/><path class="cls-10" d="M197.66,162.69c1.85,2.13,3.57,4.05,5.23,6a81.49,81.49,0,0,1,5.69,7.42c1.26,1.89.83,3.39-1.16,4.48a2.29,2.29,0,0,1-2.87-.33,8.09,8.09,0,0,1-1.26-1.59,104,104,0,0,0-7-9.49,1.83,1.83,0,0,0-.2,1.29c0,6.6,0,13.2,0,19.8,0,2.49-1.3,3.58-3.53,3.05a2.36,2.36,0,0,1-1.93-2.65c0-3.52,0-7,0-10.56l0-11.64s0,0-.13-.11c-1.12,1.68-2.2,3.38-3.36,5a55.79,55.79,0,0,1-10.75,11.38,8.59,8.59,0,0,1-1.71,1.1,2.51,2.51,0,0,1-3.13-.71,2.41,2.41,0,0,1-.38-3.17,9.37,9.37,0,0,1,2.48-2.58,59.28,59.28,0,0,0,13.7-16.22c.06-.1.08-.22.18-.46l-1.29-.06c-4.12,0-8.24,0-12.36,0a2.67,2.67,0,0,1-2.83-3.47c.29-1.44,1-2,2.65-2,5.16,0,10.32,0,15.48,0,1.18,0,1.55-.25,1.52-1.49,0-1.5-.51-3.16.86-4.42.07-.06,0-.3,0-.44-1-4-1.44-8.08-2.64-12-.56-1.83.11-2.85,1.77-3.32s2.76,0,3.33,1.81a42.59,42.59,0,0,1,2.4,11.93c0,.82,0,1.63-.8,2.13-.2.12-.3.22-.15.45.93,1.32.67,2.84.65,4.3,0,.85.26,1.07,1.09,1.06,4.11,0,8.23,0,12.35,0,2.18,0,3,.87,3,3-.06,1.7-.94,2.52-2.81,2.53-3.52,0-7,0-10.56,0Z" transform="translate(-14.18 -33.7)"/><path class="cls-5" d="M87.14,177.11l-29.85,0a147,147,0,0,0,7.17-16.19c.8-2.18,1.43-4.38.62-6.75a11.46,11.46,0,0,0-1.29-2.37h14c-.31.75-.94,1.32-1.21,2.11a6.76,6.76,0,0,0,.74,5.84c3.12,5.29,6.3,10.55,9.19,16C86.72,176.16,86.92,176.64,87.14,177.11Z" transform="translate(-14.18 -33.7)"/><path class="cls-10" d="M137.92,152.65h-19.3c-.52,0-1,0-1.56,0a2.76,2.76,0,0,1,0-5.51c.44,0,.88,0,1.32,0h39c.44,0,.88,0,1.32,0,1.84.1,2.78,1,2.78,2.76s-.89,2.74-2.86,2.75c-6.88,0-13.75,0-20.62,0Z" transform="translate(-14.18 -33.7)"/><path class="cls-10" d="M206.19,192.69a2.11,2.11,0,0,1-2.22-1.54,2.57,2.57,0,0,1,.42-3,8.5,8.5,0,0,1,2.88-1.67,62.56,62.56,0,0,0,13.47-7.5,55,55,0,0,0,12.47-13,12.28,12.28,0,0,1,1.73-2.14c1-.85,1.83-.87,3.05-.08s1.7,1.69,1.31,2.87a6.31,6.31,0,0,1-.78,1.61c-7.5,10.8-17,19.1-29.5,23.72A10.07,10.07,0,0,1,206.19,192.69Z" transform="translate(-14.18 -33.7)"/><path class="cls-10" d="M82.67,153.34a2.8,2.8,0,0,1,2.74,1.71c1.25,2,2.47,4.12,3.66,6.19,4.78,8.26,9.2,16.72,13.44,25.26,1.06,2.14.83,3.4-.69,4.43a2.32,2.32,0,0,1-3.32-.39,5.66,5.66,0,0,1-.91-1.39,344.26,344.26,0,0,0-16.84-31C79.28,155.7,80.42,153.39,82.67,153.34Z" transform="translate(-14.18 -33.7)"/><path class="cls-10" d="M61.67,156.53a5.43,5.43,0,0,1-.4,2c-3.91,10.66-8.83,20.79-15.82,29.82A10,10,0,0,1,43,190.79a2.42,2.42,0,0,1-3.1,0,2.75,2.75,0,0,1-.64-3.48,6.66,6.66,0,0,1,.74-1.08c6.55-7.52,11-16.24,14.47-25.49.55-1.46,1.08-2.92,1.67-4.36a3.88,3.88,0,0,1,2-2.3C60,153.22,61.68,154.43,61.67,156.53Z" transform="translate(-14.18 -33.7)"/><path class="cls-10" d="M179.45,135.65a28.87,28.87,0,0,1-5.21,0,2.09,2.09,0,0,1-1.93-2.33c-.08-1.68.34-2.36,1.65-2.78a6.59,6.59,0,0,1,2-.21,168.83,168.83,0,0,0,25.89-2.15c1.7-.29,3.37-.7,5-1a13.35,13.35,0,0,1,1.78-.24c1.76-.09,2.6.51,2.9,2,.33,1.67-.21,2.64-1.92,3.18a52,52,0,0,1-8.11,1.55A197.23,197.23,0,0,1,179.45,135.65Z" transform="translate(-14.18 -33.7)"/><path class="cls-10" d="M212.47,168.2a2.33,2.33,0,0,1-2-1.49,2.66,2.66,0,0,1,.13-2.94,4.76,4.76,0,0,1,1.66-1.36,60.53,60.53,0,0,0,19.33-16.93,8.42,8.42,0,0,1,.61-.73c1.3-1.39,2.37-1.57,3.68-.65s1.66,2.06.8,3.74a23.66,23.66,0,0,1-3.49,4.71,69,69,0,0,1-17.82,14.58A7.33,7.33,0,0,1,212.47,168.2Z" transform="translate(-14.18 -33.7)"/><path class="cls-10" d="M213.27,147.38a2.3,2.3,0,0,1-2.13-1.53,2.59,2.59,0,0,1,.24-3,5.53,5.53,0,0,1,1.62-1.22,54.74,54.74,0,0,0,17-14.87,8.07,8.07,0,0,1,1-1.16c1.3-1.24,2.33-1.34,3.61-.37s1.45,2,.58,3.56A23.53,23.53,0,0,1,232.1,133a71.13,71.13,0,0,1-16.21,13.37A5.54,5.54,0,0,1,213.27,147.38Z" transform="translate(-14.18 -33.7)"/><path class="cls-3" d="M150,127.46H171.3c-3.11,2.15-3.28,5.64-2.2,8.66a4.5,4.5,0,0,0,1.13,1.67c1.08,1.07,1.08,1.06,1.34,2.9-1.3-.61-2.51-1.14-3.69-1.72A92.12,92.12,0,0,1,150,127.46Z" transform="translate(-14.18 -33.7)"/><path class="cls-5" d="M76.65,129.62c5,0,10,0,15,0,.9,0,1.06.35,1,1.13,0,2.63,0,5.26,0,7.9l-11.84.07c-.41,0-.71-.09-.77-.55C79.62,135,77.83,132.44,76.65,129.62Z" transform="translate(-14.18 -33.7)"/><path class="cls-10" d="M207.81,133.13c2.15.09,3.28,1.44,2.68,3.49a49.12,49.12,0,0,1-6.26,14.15,11.82,11.82,0,0,1-.88,1.13c-1.27,1.44-2.21,1.57-3.74.54-1.28-.88-1.49-1.94-.71-3.56a2.22,2.22,0,0,1,.23-.43c2.93-3.8,4.4-8.26,5.86-12.74C205.65,133.67,206.39,133.08,207.81,133.13Z" transform="translate(-14.18 -33.7)"/><path class="cls-10" d="M64.78,127.09a2.73,2.73,0,0,1,1.72-2.74,2.53,2.53,0,0,1,3.07.58,9.27,9.27,0,0,1,1.17,1.67c1.8,3.24,3.38,6.6,5,10,.52,1.1,1,2.24,0,3.36-1.47,1.75-3.72,1.62-4.7-.45a124.91,124.91,0,0,0-5.91-11.22A2.17,2.17,0,0,1,64.78,127.09Z" transform="translate(-14.18 -33.7)"/><path class="cls-3" d="M148.7,143.21H127.56c2-1.58,3.91-3.05,5.77-4.58,1.36-1.11,2.68-2.27,4-3.43.37-.32.62-.47,1.08-.07,3.22,2.75,6.59,5.3,10,7.76A1.77,1.77,0,0,1,148.7,143.21Z" transform="translate(-14.18 -33.7)"/><path class="cls-10" d="M183.55,150.42c0,1.68-.56,2.37-2.06,2.75a2.32,2.32,0,0,1-3-1.27,16.58,16.58,0,0,1-1-3.93c-.55-2.62-1.37-5.16-2.13-7.72-.53-1.8.13-2.93,1.9-3.48a2,2,0,0,1,2.72,1,16,16,0,0,1,1.47,3.9A67.66,67.66,0,0,1,183.55,150.42Z" transform="translate(-14.18 -33.7)"/><path class="cls-11" d="M92.64,151.77c0,2.6,0,5.21,0,7.81l-4.76-7.81Z" transform="translate(-14.18 -33.7)"/><path class="cls-12" d="M199.92,188.42v-7.84a10.69,10.69,0,0,0,3.47,3.51A7.73,7.73,0,0,0,199.92,188.42Z" transform="translate(-14.18 -33.7)"/><path class="cls-13" d="M157.68,156.47a.42.42,0,0,1,.12,0,.78.78,0,0,1,.1.15c-.3,0-.61.07-.92.07H118.84c-.42,0-.89.17-1.24-.23Z" transform="translate(-14.18 -33.7)"/><path class="cls-14" d="M198.81,141c-.16-.61-.33-1.22-.45-1.84-.08-.37-.42-.83-.09-1.11a2.46,2.46,0,0,1,1.62-.26c.36,0,.31.3.22.52q-.51,1.36-1.05,2.73Z" transform="translate(-14.18 -33.7)"/><path class="cls-15" d="M173.19,153.33l1.25-1.1a.78.78,0,0,1,.33,1C174.45,153.56,173.91,153.33,173.19,153.33Z" transform="translate(-14.18 -33.7)"/><path class="cls-16" d="M186.27,145.13a1.26,1.26,0,0,1,.32,1.44Z" transform="translate(-14.18 -33.7)"/><path class="cls-17" d="M185.18,140.73a1.45,1.45,0,0,1-.18-1A.8.8,0,0,1,185.18,140.73Z" transform="translate(-14.18 -33.7)"/><path class="cls-18" d="M186.05,144.31l-.17-1.05A.69.69,0,0,1,186.05,144.31Z" transform="translate(-14.18 -33.7)"/><path class="cls-19" d="M187.34,150.71c-.14-.26-.24-.51,0-.73C187.55,150.23,187.4,150.48,187.34,150.71Z" transform="translate(-14.18 -33.7)"/><path class="cls-10" d="M167.46,68.68c.58.73,1,1.28,1.46,1.82A45.2,45.2,0,0,0,179.66,80a8.49,8.49,0,0,1,2.19,1.86,3,3,0,0,1,.07,4.06c-.89,1.16-2,1.37-3.64.56a32.39,32.39,0,0,1-7.05-5.15A79.93,79.93,0,0,1,161,69.61a2.05,2.05,0,0,0-1.87-1c-5.48,0-11,0-16.43,0a2,2,0,0,0-2,1.09c-3.64,6-8.14,11.17-14.24,14.79a7.33,7.33,0,0,1-2.74,1.14,2.74,2.74,0,0,1-3-3.71,5.5,5.5,0,0,1,2.61-2.71,33.68,33.68,0,0,0,10.29-9.56c.18-.26.34-.53.52-.8-.3-.39-.69-.21-1-.21-3.28,0-6.56,0-9.84,0-2.26,0-3.15-1-3-3.32a2.32,2.32,0,0,1,2.2-2.52,11.73,11.73,0,0,1,1.67-.12c4,0,7.92,0,11.88,0,.76,0,1.05-.16,1-1-.06-2.39-.06-4.8,0-7.19,0-.89-.31-1.05-1.1-1-2.52,0-5,0-7.56,0s-3.66-1.44-3.09-3.9c.3-1.34,1.27-2,3-2.05,2.4,0,4.8,0,7.2,0,1.77,0,1.54.21,1.55-1.5s0-3.68,0-5.52a2.74,2.74,0,0,1,3.12-3c1.9,0,2.89,1,2.93,3s.05,4,0,6c0,.81.26,1,1,1,4.76,0,9.52,0,14.27,0,.73,0,1-.19,1-.94,0-1.91,0-3.83,0-5.75,0-2.35,1-3.4,3.07-3.39s3,1,3,3.32c0,1.92,0,3.84,0,5.76,0,.78.2,1,1,1q5.4-.06,10.8,0c2,0,2.9.85,3,2.64.15,2.13-.85,3.29-3,3.31-3.6,0-7.2,0-10.8,0-.86,0-1.07.25-1,1.08,0,2.35,0,4.72,0,7.07,0,.84.23,1.09,1.07,1.08,3.84,0,7.68,0,11.52,0a11.47,11.47,0,0,1,1.31,0c2,.23,2.73,1.11,2.65,3.23-.06,1.71-1,2.65-2.86,2.68-3.4,0-6.8,0-10.2,0Z" transform="translate(-14.18 -33.7)"/><path class="cls-10" d="M151.27,77.33h11.52c.4,0,.8,0,1.2,0,3.5.15,4.91,1.58,4.94,5.08q0,4.14,0,8.28c0,3.83-2,5.85-5.88,5.87q-11,0-22,0c-1.12,0-1.48.3-1.38,1.4s0,2.08,0,3.12a4.27,4.27,0,0,0,3,4.28,13.34,13.34,0,0,0,4,.68,132.3,132.3,0,0,0,16.66,0,20.69,20.69,0,0,0,4.93-1,4.05,4.05,0,0,0,3.06-3.86,28.66,28.66,0,0,0,.06-3.71c-.15-2.66,1.1-3.92,3.6-3.69a2.51,2.51,0,0,1,2.5,2.19,19.58,19.58,0,0,1-1.71,11.55,6.77,6.77,0,0,1-4.4,3.28,36,36,0,0,1-9.1,1.37,126.7,126.7,0,0,1-19.28-.65A21.17,21.17,0,0,1,140,111c-4.09-1.09-6.17-3.67-6.28-8.39-.16-7-.1-14-.05-21,0-2.51,1.27-3.79,3.78-4.15a61.39,61.39,0,0,1,7.43-.15C147,77.3,149.15,77.33,151.27,77.33Z" transform="translate(-14.18 -33.7)"/><path class="cls-10" d="M123.56,88.5a7,7,0,0,1-.55,2,131.7,131.7,0,0,1-10.45,20.19,10.84,10.84,0,0,1-1.07,1.45c-1.32,1.48-2.61,1.58-4.2.38a2.26,2.26,0,0,1-.9-3,9,9,0,0,1,1-1.88,70.24,70.24,0,0,0,10.22-19.3c.87-2.63,2.91-3.28,5-1.81A2.19,2.19,0,0,1,123.56,88.5Z" transform="translate(-14.18 -33.7)"/><path class="cls-10" d="M121.29,56.94c-.91,0-1.63-.89-2.28-1.81-1.87-2.64-3.76-5.26-5.85-7.74-.92-1.1-1.94-2.13-2.79-3.28a3,3,0,0,1,2.06-4.93c1.19-.2,1.94.58,2.65,1.34a95.41,95.41,0,0,1,8.11,10.06,16,16,0,0,1,1.27,2C125.45,54.64,123.93,57,121.29,56.94Z" transform="translate(-14.18 -33.7)"/><path class="cls-10" d="M121.71,74.31A3,3,0,0,1,120,76.92a2.31,2.31,0,0,1-2.7-.12,5.74,5.74,0,0,1-1.08-.94,117.72,117.72,0,0,0-9.22-9.6c-1.88-1.79-1.53-3.93.75-5.21a2,2,0,0,1,2.26,0,8.86,8.86,0,0,1,1.16.85,106.59,106.59,0,0,1,9.18,9.47A4.79,4.79,0,0,1,121.71,74.31Z" transform="translate(-14.18 -33.7)"/><path class="cls-20" d="M154.29,100.38c2.56,0,5.11,0,7.67,0a16.73,16.73,0,0,0,4.62-.53c.33-.08.91-.62,1.08,0s.21,1.35-.69,1.68a10.28,10.28,0,0,1-2.92.61,117.05,117.05,0,0,1-18.91-.16,4.26,4.26,0,0,1-1.15-.31c-.48-.17-.48-.59-.42-1s.48-.33.77-.33Z" transform="translate(-14.18 -33.7)"/><path class="cls-21" d="M143,73.43a1,1,0,0,1,1.11-.94q6.82,0,13.66,0c.64,0,.91.33,1.15.94Z" transform="translate(-14.18 -33.7)"/><path class="cls-22" d="M133.12,57.6c.26,1-.09,1.34-1.13,1.29-1.72-.07-3.43,0-5.24,0a2.66,2.66,0,0,1,.85-1.31A31.8,31.8,0,0,1,133.12,57.6Z" transform="translate(-14.18 -33.7)"/><path class="cls-23" d="M176.57,90.28a7,7,0,0,0-3.28-.11c-.46.16-.53-.15-.53-.51,0-.63,0-1.26,0-2.13a44,44,0,0,0,4.09,2.52C176.89,90.28,176.81,90.38,176.57,90.28Z" transform="translate(-14.18 -33.7)"/><path class="cls-12" d="M133.12,57.6l-5.52,0A13.17,13.17,0,0,1,133.12,57.6Z" transform="translate(-14.18 -33.7)"/><path class="cls-24" d="M176.57,90.28l.29-.23,1.25.41-.25.22Z" transform="translate(-14.18 -33.7)"/><path class="cls-25" d="M125.55,73c-.25.06-.26-.08-.28-.18,0-.27.13-.34.34-.33s.17.09.25.13Z" transform="translate(-14.18 -33.7)"/><path class="cls-10" d="M53.54,64.18c-1,.77-1.72,1.39-2.5,2A88.05,88.05,0,0,1,23.81,81a10.49,10.49,0,0,1-2.92.61c-1.6.06-2.24-.33-2.68-1.63-.57-1.65-.29-2.95.86-3.8a11,11,0,0,1,3.51-1.48A75,75,0,0,0,47.21,62.14l.92-.74H22.62a10.08,10.08,0,0,1-1.9-.15,2.69,2.69,0,0,1-2.44-3A2.74,2.74,0,0,1,21,55.43a15.54,15.54,0,0,1,1.67-.06c9.88,0,19.76,0,29.64,0,1,0,1.3-.28,1.25-1.27-.08-1.75-.07-3.52,0-5.27,0-.89-.2-1.15-1.12-1.12-7.15.21-14.31.39-21.47.29a14.35,14.35,0,0,1-3.58-.23C26,47.41,25.5,46.64,25.47,45s.49-2.45,1.85-2.82a21.86,21.86,0,0,1,6.2-.32c8.77.15,17.52-.06,26.27-.5,5.87-.29,11.73-.66,17.6-1,2.31-.15,4.61-.44,6.92-.61,2.47-.19,3.63.68,3.8,2.75A2.61,2.61,0,0,1,86,45.59a27.23,27.23,0,0,1-5.83.68q-9.57.66-19.15,1.16c-.92,0-1.12.34-1.09,1.2.06,1.87.07,3.76,0,5.63,0,.94.31,1.12,1.17,1.12q14.82,0,29.64,0c.52,0,1,0,1.56,0a3,3,0,0,1,.25,5.88,9.31,9.31,0,0,1-1.67.11H67a2.64,2.64,0,0,0-1.42.17c1.33,1,2.56,1.88,3.83,2.74C76.18,69,83.29,73,91.19,75.42a10.16,10.16,0,0,1,2.17,1,3,3,0,0,1,1.39,4,2.35,2.35,0,0,1-2.36,1.68,13.34,13.34,0,0,1-5.19-1.34A113,113,0,0,1,61,65.07c-.27-.21-.48-.54-.89-.58-.25.36-.12.77-.13,1.15,0,3,0,6,0,9a7.39,7.39,0,0,1-.35,2.47A2.57,2.57,0,0,1,56.81,79a2.63,2.63,0,0,1-2.87-1.7A5.41,5.41,0,0,1,53.53,75C53.55,71.51,53.54,68,53.54,64.18Z" transform="translate(-14.18 -33.7)"/><path class="cls-10" d="M57,80.37H78.68c.8,0,1.6,0,2.4.06,3,.24,4.56,1.72,4.82,4.77.12,1.39.16,2.79.16,4.19,0,5.44,0,10.87-.06,16.31,0,.4,0,.8-.09,1.2-.29,3-1.9,4.63-4.91,4.91-.67.06-1.36.06-2,.06H34.69l-1.2,0c-3.83-.13-5.56-1.79-5.62-5.64-.08-5.2,0-10.4,0-15.6,0-1.64,0-3.28,0-4.92.16-3.5,1.84-5.18,5.34-5.27,3-.08,6,0,9,0Z" transform="translate(-14.18 -33.7)"/><path class="cls-26" d="M63.65,71.93l7,4.61H64.09c-.38,0-.45-.2-.45-.54C63.66,74.73,63.65,73.46,63.65,71.93Z" transform="translate(-14.18 -33.7)"/><path class="cls-27" d="M49.7,72v4.49H42.91Z" transform="translate(-14.18 -33.7)"/><path class="cls-10" d="M49.74,129.56c1.91-1.59,3.3-3.69,5.19-5.29,0,1.77,0,3.54,0,5.3Z" transform="translate(-14.18 -33.7)"/><path class="cls-10" d="M137.84,190.81H119.72c-.64,0-1.28,0-1.92,0-2.82-.15-4.38-1.63-4.76-4.43a43,43,0,0,1-.15-6.11c0-5-.22-10.08.13-15.11.23-3.32,1.78-4.73,5.1-4.78,3.72-.06,7.44,0,11.16,0q13.68,0,27.36,0c4.32,0,5.78,1.12,5.92,5.4.21,6.79.33,13.6-.09,20.39-.19,3.21-1.83,4.65-5.07,4.67-6.52,0-13,0-19.56,0Z" transform="translate(-14.18 -33.7)"/><path class="cls-2" d="M151.32,53.51c2.32,0,4.64,0,7,0,.73,0,1.07.1,1,1-.06,2.43,0,4.87,0,7.3,0,.74-.23,1-1,1-4.79,0-9.58,0-14.37,0-.77,0-.93-.27-.92-1,0-2.44,0-4.88,0-7.31,0-.75.22-1,1-.94C146.45,53.53,148.89,53.51,151.32,53.51Z" transform="translate(-14.18 -33.7)"/><path class="cls-2" d="M151.35,83.31c3.39,0,6.79,0,10.18,0,1.09,0,1.52.33,1.45,1.44-.07,1.4,0,2.8,0,4.19s-.5,1.78-1.74,1.79c-6.91,0-13.81,0-20.72,0-.55,0-.78-.15-.77-.74,0-1.88,0-3.75,0-5.63,0-.86.42-1.07,1.2-1.06C144.41,83.32,147.88,83.31,151.35,83.31Z" transform="translate(-14.18 -33.7)"/><path class="cls-2" d="M57,99.06c7.24,0,14.48,0,21.72,0,1,0,1.29.29,1.23,1.26-.09,1.44,0,2.88,0,4.32,0,.88-.35,1.29-1.3,1.29q-21.7,0-43.43,0c-.79,0-1.24-.27-1.25-1.06,0-1.72,0-3.44,0-5.16,0-.9.68-.62,1.13-.62H57Z" transform="translate(-14.18 -33.7)"/><path class="cls-2" d="M56.87,93.14c-7.27,0-14.54,0-21.82,0-.86,0-1.21-.16-1.16-1.11.09-1.47,0-3,0-4.43,0-.87.29-1.29,1.27-1.28q21.71,0,43.4,0c1,0,1.34.49,1.34,1.4,0,1.43-.07,2.88,0,4.31,0,.92-.26,1.11-1.14,1.11C71.5,93.12,64.19,93.14,56.87,93.14Z" transform="translate(-14.18 -33.7)"/><path class="cls-1" d="M137.75,185.3H120.24c-1.5,0-1.72-.22-1.73-1.75,0-5.4,0-10.79,0-16.19,0-1.14.42-1.54,1.55-1.54q17.82,0,35.62,0c1,0,1.35.32,1.35,1.31q0,8.4,0,16.79c0,1.13-.47,1.41-1.52,1.4C149.58,185.28,143.67,185.3,137.75,185.3Z" transform="translate(-14.18 -33.7)"/><path class="cls-22" d="M155.43,57.6c.26,1-.09,1.33-1.13,1.29q-3.11-.11-6.21,0c-1.05,0-1.38-.32-1.13-1.3A63,63,0,0,1,155.43,57.6Z" transform="translate(-14.18 -33.7)"/><path class="cls-27" d="M155.43,57.6H147A28.63,28.63,0,0,1,155.43,57.6Z" transform="translate(-14.18 -33.7)"/><path class="cls-3" d="M137.76,181.46c-4.76,0-9.51,0-14.27,0-.86,0-1.18-.18-1.16-1.12,0-3.19,0-6.39,0-9.59,0-.78.14-1.12,1-1.12q14.38.06,28.78,0c.75,0,1,.16,1,1q-.06,4.9,0,9.83c0,.81-.28,1-1,1C147.36,181.45,142.56,181.46,137.76,181.46Z" transform="translate(-14.18 -33.7)"/></svg>