<svg id="圖層_1" data-name="圖層 1" xmlns="http://www.w3.org/2000/svg" viewBox="0 0 240.06 167.1"><defs><style>.cls-1{fill:#197a82;}.cls-2{fill:#d1d3d1;}.cls-3{fill:#b5eac0;}.cls-4{fill:#cbe0e2;}.cls-5{fill:#d2e5e6;}.cls-6{fill:#e2f2f4;}.cls-7{fill:#b3e8bf;}.cls-8{fill:#fefefe;}.cls-9{fill:#fcfdfd;}.cls-10{fill:#c7cecd;}.cls-11{fill:#c8cfcd;}.cls-12{fill:#ccd1cf;}.cls-13{fill:#f0f6f6;}.cls-14{fill:#fafcfc;}.cls-15{fill:#c2cccb;}.cls-16{fill:#a5dfba;}.cls-17{fill:#97b7b8;}.cls-18{fill:#fedc3e;}.cls-19{fill:#f0a0d8;}.cls-20{fill:#aabebe;}.cls-21{fill:#197a83;}</style></defs><title>23</title><path class="cls-1" d="M155.63,103c1.22,1.1.58,2.55.74,3.85.06.51-.22,1.16.62,1.34.25-.37.12-.77.13-1.14,0-3.36,0-6.72,0-10.08,0-3.19,1.59-4.79,4.8-4.79q21.76,0,43.54,0c3.12,0,4.69,1.6,4.71,4.74,0,.92,0,1.84,0,2.76s-.18,1.66.69,2.25c.39.26.26.81.26,1.24q0,3.18,0,6.36c0,1.64-.41,2-2,2H182.94c-.24,0-.48,0-.72,0-.49,0-1.06-.18-1.05.7s.53.73,1.05.73H205c.32,0,.64,0,1,0,2.68.12,4.1,1.52,4.2,4.2,0,1,0,2.08,0,3.12,0,.85-.21,1.73.71,2.35.36.24.24.81.24,1.25,0,7.64,0,15.27,0,22.91a2.15,2.15,0,0,1-.85,1.86c-1.4,1.12-2.74,2.32-4.1,3.5a2.42,2.42,0,0,1-1.34.74c-3.75.15-7.51-.11-11.25.09-9.18.49-18.35.07-27.53.22h-.72c-1.61-.06-2.22-.64-2.36-2.24s-.14-1.53-1.69-1.6a4.39,4.39,0,0,1-2.09-.47c-.84-.51-1.32-.15-1.74.57-.3.51-.6,1-.95,1.52a2.51,2.51,0,0,1-1.34,1.14,5.2,5.2,0,0,1-1.88.23H112.22c-.48,0-1,0-1.43,0-2.08.75-3.2.35-5.05-2.58-.22.29-.11.62-.15.91a2,2,0,0,1-2,2c-1.23.1-2.47,0-3.71,0-3.6,0-7.2,0-10.79,0-2.06,0-3-.78-2.92-2.71.06-1-.39-1.21-2-1.2-1,0-.85.63-.87,1.22-.1,3.07-.18,3.16-3.22,3.16H73c-1.64,0-3.24-.33-4.89-.27-1.07,0-2.14.18-3.21.2-1.15-.28-1.39-1.19-1.5-2.19-.18-1.5-.17-1.5-1.58-1.59-2.75-.19-3.93-1.21-4.51-3.91a7.28,7.28,0,0,1-.18-1.54c0-5,0-10.06,0-15.09q-.06-2.12,0-4.23c0-3.67,0-7.35,0-11,0-1-.21-1.62-1.41-1.72s-1.67-1.06-1.25-2.41.42-1.34-1-1.35a7.53,7.53,0,0,1-2.5-.25c-.8-.28-1.07,0-1.06.8,0,2.16,0,4.31,0,6.47v9.7c0,1.36,0,2.72,0,4.07.06,7.39,0,14.78,0,22.17,0,1.64-.53,2.15-2.18,2.16q-7.67.06-15.34,0c-1.6,0-2.18-.6-2.4-2.22s-.19-1.49-1.71-1.63a2.53,2.53,0,0,1-2-.67c-1.68-1.11-2.13-2.78-2.13-4.67q0-15.59,0-31.19c0-1-.21-1.31-1.24-1.27-1.7.07-2.14-.72-1.4-2.26s.74-1.56-1-1.56c-.44,0-.88,0-1.32,0-3.37-.08-5.13-2.69-3.76-5.74,1.17-2.59,2.5-5.1,3.81-7.62.86-1.64,2.43-2.08,4.13-2.18.87,0,1.75,0,2.63-.07a2,2,0,0,1,1.48-.35H43.48a7.68,7.68,0,0,1,1.9.25A4.25,4.25,0,0,1,49,96.52c0,1.31,0,2.62.15,4a47.34,47.34,0,0,0,2.65-5.09,5.65,5.65,0,0,1,5.7-3.56h7a1.94,1.94,0,0,1,1.47.36,42.54,42.54,0,0,0,5,0c.09-.07.19-.19.3-.19,3-.14,6.12-.7,9.05.7.12.07.21.17.33.25.1-.21-.1-.39-.08-.59a4.24,4.24,0,0,1,4.4-4.28c3.78-.17,7.58-.18,11.36,0,2.67.12,3.9,1.22,4.59,3.77.37,1.34.77,2.59,2.16,3.23a.76.76,0,0,1,.46.68c.29-1.22.73-2.4,1.11-3.6a4.32,4.32,0,0,1,2.88-3,6.62,6.62,0,0,1,2.47-.1c2.3.13,4.61,0,6.92,0A20.64,20.64,0,0,0,124,87.62a4.27,4.27,0,0,1,1.43-.14h10.19a7.25,7.25,0,0,1,1.54.15,4.45,4.45,0,0,1,4,4.29c.21,1.54.21,1.55,1.74,1.55,2.76,0,5.52,0,8.27,0a4.19,4.19,0,0,1,4,2.16,6,6,0,0,1,.43,2.69C155.61,99.89,155.41,101.45,155.63,103Z"/><path class="cls-1" d="M159,61a3,3,0,0,1,2.79-2.69c.69-.08,1-.38,1.17-1.17.77-4.32,1.64-8.62,2.48-12.93a.9.9,0,0,0-.07-.68c-2.29-4.28-3.41-9-5.08-13.53-.82-2.24.82-4.18,3.11-4.28h1.09l-2.64-7.54c-.49-1.39-1-2.79-1.48-4.18a3.34,3.34,0,0,1,3.41-4.64c4.4.07,8.8,0,13.19,0,2.13,0,3.06.69,3.76,2.66.3.87.66,1.72.91,2.6.45,1.59,1,3,3.16,3,0-.88,0-1.86,0-2.83,0-2.82,1.23-4,4-4h44.52c2.87,0,4.07,1.2,4.09,4.08,0,1.72,0,3.44,0,5.16a3.49,3.49,0,0,1-.37,2c-1.19,1.65-.87,3.49-.85,5.29,0,.89-.22,1.16-1.13,1.15-4.08-.05-8.16,0-12.24,0-.87,0-1.16.19-1.16,1.12q.06,13.32,0,26.63c0,1,.31,1.12,1.16,1.11,4.24,0,8.48,0,12.72,0,3.14,0,4.36,1.21,4.31,4.38,0,2.19.59,4.54-.3,6.53a14.26,14.26,0,0,0-.89,6.12c0,.55-.23.7-.71.66-.2,0-.4,0-.6,0q-24.3,0-48.6,0c-1,0-1.45-.2-1.32-1.3A5.58,5.58,0,0,0,187.4,71c-.41-1-1.56-.27-2.36-.5-1.69-.48-2.51-1.47-2.65-3.52a3.24,3.24,0,0,0-.23-1.31c-.58,2.88-1.21,5.75-1.72,8.64-.15.84-.48,1-1.25,1q-5.88,0-11.76,0c-.69,0-1.12-.14-1.31-.87-.14-.53-.42-1-.6-1.56-.36-1.12-.74-2.08-2.2-2.28a2.6,2.6,0,0,1-1.77-1.82q-1.19-3.07-2.35-6.16C158.89,62.12,158.5,61.59,159,61Z"/><path class="cls-1" d="M158.83,62.43c-.86,2.39-1.3,5-3.23,7.09l2,.09-2,4.73a.92.92,0,0,1-1,.88,13.85,13.85,0,0,1-1.44,0H126.6c-1.78,0-2-.24-2-2,0-.32,0-.64,0-1a1.73,1.73,0,0,0-2.24-1.22c-.39.21-.32.61-.35,1-.08.94.18,1.92-.27,2.83-.42.42-1,.32-1.47.35-2.2.15-4.37-.2-6.57-.23a30.64,30.64,0,0,0-4.28.26,2.29,2.29,0,0,1-2.81-1.78,13,13,0,0,0-.52-1.21,2.56,2.56,0,0,0-1.55-1.55,4.23,4.23,0,0,1-2-1.71,2.28,2.28,0,0,0-3.91.17,4.66,4.66,0,0,0-.68,2.62c0,.72,0,1.44,0,2.15a1.17,1.17,0,0,1-1.27,1.28q-5.45.09-10.91,0a1.09,1.09,0,0,1-1.21-1.3c.29-2-.46-3-2.54-3.18a2.65,2.65,0,0,1-2.09-1.95,6.53,6.53,0,0,1-.44-2.35c0-7.67,0-15.34,0-23,0-1.64,0-3.27,0-4.9a5.72,5.72,0,0,0-.79-3.67A3.45,3.45,0,0,1,78.27,33c0-1.52,0-3,0-4.55a3.68,3.68,0,0,1,2.56-3.79c.32-.12.74-.18.74-.66s-.35-.62-.69-.73c-2.06-.67-2.65-2.24-2.62-4.22,0-1.2,0-2.4,0-3.59,0-3,1.29-4.25,4.24-4.28q3.9,0,7.79,0a2,2,0,0,0,2-1,3.28,3.28,0,0,1,2.93-1.59c4.12-.08,8.24-.09,12.35,0,2,0,2.8.86,3.18,2.74,1.6.45,3.22.1,4.83.18a4.75,4.75,0,0,1,2.58-.32,1.74,1.74,0,0,0,1.77-.94,3.62,3.62,0,0,1,3.37-1.91c3.75-.08,7.5-.09,11.25,0a3.68,3.68,0,0,1,3.45,2c.41.8,1.07.84,1.81.84h14a2.69,2.69,0,0,1,1.84.34c2.58.48,3.11,2.19,3.07,4.13s.21,4-.36,5.95c-.25.85.39,1.74.38,2.68,0,4.83.13,9.67-.08,14.49-.08,2,.27,3.88.06,5.81-.37,3.24.37,6.5-.2,9.75a11.68,11.68,0,0,0,.2,2,28.92,28.92,0,0,1-.15,4.65A1.64,1.64,0,0,1,158.83,62.43Z"/><path class="cls-1" d="M65.91,8.61h5a3.16,3.16,0,0,1,4,2.12,5.77,5.77,0,0,1,.27,1.89c0,7.33,0,14.67,0,22,0,1.35-.34,2.7.15,4a32.54,32.54,0,0,1,.08,4.63,3.7,3.7,0,0,0,.75,3.35.4.4,0,0,1,.09.22c.45,3.07.86,6.12-.41,9.14a5.62,5.62,0,0,0,.11,5,4,4,0,0,1,.5,3.11c-.54,1.9-.62,3.95-1.75,5.67-.11.18-.19.37,0,.51.77.43.48,1.08.36,1.69-.07.36-.17.7-.26,1-.63,2.52-1.28,2.89-3.91,2.19-2.59-.17-5.16.19-7.74.21-1.63,0-1.88-.21-2.35-1.79a3,3,0,0,1-.16-.57,2.34,2.34,0,0,0-2.08-2.25c-.25-.17-.43-.47-.73-.44a.69.69,0,0,1,.59.5,11.85,11.85,0,0,1-.8,3.72,1.21,1.21,0,0,1-1.32.82c-3.51,0-7,0-10.54,0a1.43,1.43,0,0,1-1.48-1.15c-.21-.73-.41-1.46-.64-2.18-.17-.53-.46-.95-1.08-1s-.72.52-.87,1c-.2.65-.4,1.3-.55,2a1.64,1.64,0,0,1-1.81,1.39c-3.31,0-6.63,0-9.94,0a1.76,1.76,0,0,1-1.92-1.56c-.29-1.1-.37-2.33-1.42-3.08a3.43,3.43,0,0,1-3-3.09c-.28-1.4-.76-2.75-1.15-4.13-.19-.41-.53-.75-.49-1.26-.23.51.32.8.31,1.25-1,3.45-2,6.89-2.87,10.36-.25,1-.66,1.22-1.62,1.2-3.36-.06-6.72,0-10.07,0-.76,0-1.22-.14-1.3-1,0-.31-.17-.61-.22-.93-.25-1.45-.57-2.71-2.51-2.73-1,0-1.58-.85-1.83-1.82-.43-1.66-.87-3.32-1.26-5a3,3,0,0,1,1.68-3.35A2.09,2.09,0,0,0,3.3,58.54c.12-.5.29-1,.46-1.53L2.7,56.73A2.76,2.76,0,0,1,.38,54.32a22.09,22.09,0,0,1,0-6.79,2.3,2.3,0,0,1,1-1.59,1.6,1.6,0,0,0,.72-1.65c-.05-2.18-.33-4.39.21-6.56a.93.93,0,0,0,.08-.35c-1.14-4.45-.35-9-.51-13.47-.13-3.71,0-7.44,0-11.15,0-2.86,1.23-4.1,4.07-4.11l20.15,0a2.36,2.36,0,0,1,1.6-.35H64.31A2.39,2.39,0,0,1,65.91,8.61Z"/><path class="cls-2" d="M57.52,128.9c0,5.06,0,10.12,0,15.19a7.58,7.58,0,0,0,.47,2.69,3.78,3.78,0,0,0,3.48,2.3c.71.08,1.58-.29,2.09.18s.12,1.36.21,2.06.27,1.43,1.15,1.62c.38.19.85-.09,1.21.21q0,4.36,0,8.75A4.78,4.78,0,0,1,61,167.05H31.34a4.74,4.74,0,0,1-5-5q0-6.66.05-13.31a12,12,0,0,0,3.32.36c.66-.07.76.3.79.87.13,3,.14,3,3.15,3s6.07.08,9.1,0c2.17-.07,4.37.43,6.5-.32.85-2.16.31-4.4.35-6.6.11-5.7.06-11.41.08-17.12A16.92,16.92,0,0,1,57.52,128.9Z"/><path class="cls-2" d="M66.17,153.15c-.4-.09-.85.12-1.21-.21H80.89c1.88,0,2-.19,2.07-2.06,0-.8-.23-1.79.15-2.33s1.37.18,2.11,0c1.07-.23,1.34.25,1.31,1.29-.08,2.33.19,2.54,2.49,2.54h13.66c2.34,0,2.57-.23,2.57-2.62v-1.22a5.68,5.68,0,0,1,1.44,2,3,3,0,0,0,3.38,1.85,3.5,3.5,0,0,1,.72,0c0,3.11-.07,6.23,0,9.34a5,5,0,0,1-5.28,5.31c-9.79-.1-19.57,0-29.36,0-3.32,0-5.21-1.87-5.21-5.16,0-2.56,0-5.12,0-7.67,0-.82-.2-1.15-1.06-1.1C68.65,153.18,67.41,153.14,66.17,153.15Z"/><path class="cls-3" d="M75,38.68c-.74-1.23-.25-2.51-.21-3.79.07-2.4,0-4.8,0-7.2V12.82c0-2.88-1-4-3.86-4.21,0-1.2,0-2.4,0-3.59A4.68,4.68,0,0,1,75.83.24h29.94a4.8,4.8,0,0,1,5,5c0,2,0,4.07,0,6.11a3.37,3.37,0,0,0-3.65-2.44c-3.79,0-7.59,0-11.38,0-1.6,0-2.94.45-3.5,2.12-.2.58-.63.51-1.06.51H82.53c-2.82,0-3.92,1.1-3.93,3.91,0,1.36,0,2.72,0,4.08,0,2,.66,2.95,2.6,3.44.87.22.9.85,1,1.42s-.57.45-.89.54a3.12,3.12,0,0,0-2.68,3.19c-.06,1.75,0,3.51,0,5.27a2.56,2.56,0,0,0,.44,1.58c1,1.05.77,2.26.73,3.47C78.22,39.1,76.59,38.72,75,38.68Z"/><path class="cls-3" d="M70.93,75.17c1-.13,2.25.41,2.89-.23s.62-1.84.89-2.79a1.55,1.55,0,0,1,.06-.23c.42-1,.28-1.62-1.14-1.35,1.92-2.06,1.89-4.68,2.57-7a2.94,2.94,0,0,0-.48-2.17c-1.1-1.93-.85-3.79-.09-5.82a12.21,12.21,0,0,0,0-9,5.89,5.89,0,0,1-.55-3.14,6.7,6.7,0,0,1,4.75,0q0,11.52,0,23a5.21,5.21,0,0,0,.64,2.76c.79,1.31,2.14,1.45,3.47,1.48.72,0,1,.22.94,1v.12c.06,1-.42,2.26.19,2.9s2,.23,3,.25c2.84,0,5.68,0,8.52,0,.79,0,1.07-.23,1-1a15.55,15.55,0,0,0,0-2.27c-.33-1.49.86-2.41,1.18-3.64.09-.32.44-.29.72-.29a11.52,11.52,0,0,0,1.44,0,1.65,1.65,0,0,1,2,1.15,2.41,2.41,0,0,0,1.87,1.54,1.55,1.55,0,0,1,1.34,1.17c.1.3.26.58.38.88C107.65,75,107.65,75,110.4,75c3.72,0,7.44,0,11.16,0,0,.16-.14.32-.3.34a12.36,12.36,0,0,1-5.51-.16c-1.2,0-2.4,0-3.59,0s-1.45.22-1.43,1.36a4.9,4.9,0,0,1-3.51,5,5.86,5.86,0,0,1-1.66.14H76.19c-3.33,0-5.24-1.93-5.26-5.27,0-.32,0-.64,0-1-.07,0-.1-.1-.07-.14S70.91,75.17,70.93,75.17Z"/><path class="cls-3" d="M155.66,11.5H138.87c-.36,0-.83.19-1-.41-.41-1.82-1.81-2.39-3.41-2.42q-5.58-.11-11.16,0A3.19,3.19,0,0,0,120,11c-.13.48-.4.51-.78.5l-3.6,0a2,2,0,0,0,.23-1.27c0-1.84,0-3.68,0-5.51A4.63,4.63,0,0,1,120.29.26q15.45,0,30.9,0c2.47,0,4.41,2.27,4.45,5C155.67,7.35,155.66,9.42,155.66,11.5Z"/><path class="cls-2" d="M65.91,8.61l-27.06,0c-4.27,0-8.54,0-12.8,0,.11-1.63-.21-3.27.18-4.89A4.51,4.51,0,0,1,30.74,0Q46,0,61.16,0a4.89,4.89,0,0,1,4.73,4.76C65.92,6.06,65.9,7.33,65.91,8.61Z"/><path class="cls-3" d="M155.18,152.17a35.47,35.47,0,0,0,2.55-3.76c.26-.36.42-.67.88-.26a4.69,4.69,0,0,0,3.61.92c.87,0,1.29.18,1.15,1.12a5.56,5.56,0,0,0,0,1.08c.07,1.19.52,1.65,1.72,1.65l28,0c3.92,0,7.83,0,11.74,0-.38.32-.84.17-1.26.18-3.2,0-6.4,0-9.59,0a1.72,1.72,0,0,0-1.72,1c-1.89,3.33-3.84,6.62-5.71,10-1.6,2.85-4.33,3.76-7.15,2.14-7.44-4.26-14.85-8.57-22.27-12.87Z"/><path class="cls-2" d="M70.93,75.17a1.48,1.48,0,0,1,0,.21c-1.4,0-2.79,0-4.19,0-.62,0-.86.22-.84.84.09,3.19-2.27,5.29-5.58,5.24-9.71-.13-19.42,0-29.13,0-3.22,0-5.12-1.9-5.12-5.14,0-1.8,0-3.6,0-5.39a.9.9,0,0,1,1.19.81c.18.85.51,1.68.68,2.54a1,1,0,0,0,1.19,1q5.2-.06,10.43,0c.74,0,1.07-.21,1.21-1a22.07,22.07,0,0,1,.75-2.76c.11-.31,0-1,.63-.78s1.45-.24,1.7.75.53,1.92.77,2.89c.14.56.35.86,1,.85,3.6,0,7.19,0,10.79,0,.48,0,.82,0,.94-.63.25-1.32.58-2.64.87-4h0a10.13,10.13,0,0,0,1.53.24.76.76,0,0,1,.81.69,1.55,1.55,0,0,0,.06.23c.36,1.1.26,2.59,1.08,3.21s2.31.17,3.5.2C67.11,75.17,69,75.16,70.93,75.17Z"/><path class="cls-2" d="M115.75,75.16c1.93-.17,3.88.18,5.81-.18,0-1.24.07-2.47,0-3.71,0-.65.09-1,.84-.72a3.55,3.55,0,0,0,.47.09c1.94.37,1.94.37,1.94,2.44a5.73,5.73,0,0,1,0,.83c-.11.86.28,1.07,1.09,1.07q14.2,0,28.4,0c.57,0,1-.08,1.27-.64.06,2,.26,3.92-1.2,5.56a4.64,4.64,0,0,1-3.54,1.7q-15.21,0-30.41,0A4.67,4.67,0,0,1,115.81,77C115.8,76.36,115.77,75.76,115.75,75.16Z"/><path class="cls-3" d="M65.89,92.18c-2.83,0-5.67,0-8.5,0-2.48,0-4.28.86-5.3,3.27-.79,1.87-1.8,3.65-2.73,5.46-.11.22-.16.62-.54.49s-.18-.42-.18-.64c0-1.24,0-2.48,0-3.71,0-3.3-1.53-4.85-4.84-4.86-5.47,0-10.94,0-16.41,0-.44,0-.88,0-1.32,0-.39-3.27,2.13-5.83,5.71-5.79q14.21.16,28.41,0C63.74,86.34,66.26,88.88,65.89,92.18Z"/><path class="cls-2" d="M155.63,103c-.41-.3-.21-.74-.22-1.11,0-1.24,0-2.48,0-3.72-.09-2.8-1.65-4.34-4.46-4.36-3,0-6,0-9,0-1,0-1.19-.3-1.19-1.22,0-3.1-1.64-4.69-4.76-4.7q-5.52,0-11,0a5,5,0,0,0-3.37,1,1.87,1.87,0,0,1-1.35.34c-3.6,0-7.19,0-10.79,0a19.63,19.63,0,0,0-2,.23c0-1.28.44-1.58,1.48-1l1.17.58c1.84,0,3.68,0,5.52,0a1.42,1.42,0,0,0,1.3-.65,4.4,4.4,0,0,1,3.65-1.74q15.06,0,30.12,0a4.9,4.9,0,0,1,5,5.06C155.66,95.48,155.64,99.24,155.63,103Z"/><path class="cls-2" d="M110.08,89c-.34,0-.83.09-1-.1-1-1-1.34-.37-1.63.56a4.39,4.39,0,0,0-2.58,3c-.33,1.19-.72,2.37-1.11,3.62a5.47,5.47,0,0,0-2-1.4c-.42-.13-.51-.44-.6-.8-.17-.66-.36-1.31-.55-2-.73-2.54-2-3.53-4.68-3.54-3.52,0-7,0-10.55,0-2.85,0-4.37,1.46-4.56,4.26.12.3.15.55-.29.54a5.88,5.88,0,0,0-3.38-.93c-2.06,0-4.13,0-6.19-.06-.37-3.37,2.23-5.58,5.49-5.55,9.54.09,19.08.07,28.62,0A5.7,5.7,0,0,1,110.08,89Z"/><path class="cls-4" d="M21.74,63.61c-1.09-.36-.59-1.08-.38-1.76a4.42,4.42,0,0,1,.56,1.77h-.09Z"/><path class="cls-5" d="M158.83,62.43,158.58,61h.4l.22,1.69Z"/><path class="cls-6" d="M183.63,96c7.2,0,14.4,0,21.6,0,.87,0,1.18.18,1.15,1.11q-.12,2.82,0,5.64c0,1-.27,1.19-1.2,1.19-9.12,0-18.24,0-27.36-.05-1.07,0-1.43.23-1.4,1.36q.12,5,0,10.08c0,1.17.21,1.55,1.49,1.55,9-.07,18,0,27-.07,1.27,0,1.49.37,1.48,1.53,0,7.16,0,14.32,0,21.48a2,2,0,0,1-.84,1.83,41.23,41.23,0,0,0-3.18,2.73,3.26,3.26,0,0,1-2.46.93q-18.84,0-37.68,0c-1,0-1.33-.2-1.28-1.23.09-1.84.08-3.69,0-5.52,0-1,.3-1.19,1.22-1.19,8.6,0,17.2,0,25.8,0,1.24,0,1.54-.32,1.51-1.53-.09-3.27-.08-6.56,0-9.84,0-1-.32-1.23-1.28-1.23-8.64,0-17.28,0-25.92,0-1.05,0-1.33-.24-1.32-1.31q.07-13.14,0-26.28c0-1.12.34-1.29,1.34-1.28C169.39,96,176.51,96,183.63,96Z"/><path class="cls-6" d="M154,128.91c-.82,2.12-1.59,4.08-2.34,6.05-.19.5-.57.46-1,.46-5.68,0-11.36,0-17,0-.85,0-1-.32-1-1.05,0-5,0-10.08,0-15.12,0-1.12-.31-1.44-1.41-1.37-1.63.09-3.28,0-4.92,0a1.08,1.08,0,0,0-1.29,1c-1.23,5.16-2.54,10.31-3.79,15.47-.19.78-.48,1.09-1.35,1.08-4-.06-7.92,0-11.87,0a1.13,1.13,0,0,1-1.33-1c-.43-1.58-.94-3.14-1.45-4.69-.23-.68-.09-1,.65-.86h.12c1-.08,2.32.43,3-.23s.62-1.84.87-2.8c.59-2.32,1.15-4.65,1.78-7,.22-.78.13-1-.75-1-1.6.07-3.2,0-4.8,0-.88,0-1.07-.31-1-1.11,0-1.48.07-3,0-4.44,0-.88.28-1,1.09-1,5.51,0,11,0,16.55,0,1,0,1.22-.27,1.17-1.2-.07-1.67,0-3.36,0-5,0-.62-.11-1-.85-.93-1.55,0-3.12,0-4.67,0-.67,0-.87.28-1,.86-.74,2.38-.76,2.38-3.24,2.38-2.72,0-5.44,0-8.16,0-.71,0-1.08-.17-1.28-.89-.33-1.24-.75-2.45-1.19-3.65-.21-.59-.2-1,.54-.83,1.5.32,2-.5,2.32-1.77.57-2.16,1.33-4.27,1.94-6.42a1,1,0,0,1,1.17-.86q5.22,0,10.44,0c.86,0,1,.22.74,1s-.52,1.85-.85,2.75c-.26.7,0,.83.63.79,1.11-.07,2.51.44,3.26-.2s.21-2,.22-3.09c0-2.6,0-2.6,2.64-2.6,3.12,0,6.24,0,9.36,0,.79,0,1,.22,1,1-.06,1.28,0,2.56,0,3.84,0,.84.23,1.07,1.07,1.06,4.12,0,8.24,0,12.36,0,1,0,1.31.26,1.24,1.26a39.23,39.23,0,0,0,0,4.2c0,.91-.19,1.23-1.17,1.21-4.08-.05-8.16,0-12.24,0-1,0-1.32.21-1.27,1.23a40.46,40.46,0,0,1,0,4.8c-.06,1,.36,1.14,1.23,1.13,5.16,0,10.32,0,15.48,0,1,0,1.4.22,1.32,1.31a34.46,34.46,0,0,0,0,4.19c0,.82-.2,1.12-1.06,1.1-2.36-.06-4.72,0-7.08,0-.74,0-1,.14-1,1,.05,3,.06,6,0,9,0,.89.31,1,1.1,1C149.17,128.88,151.49,128.91,154,128.91Z"/><path class="cls-6" d="M52.15,104c1.31-2.59,2.54-5,3.77-7.49.2-.41.53-.41.9-.41q10.26,0,20.52,0c.61,0,.87.17.83.81s0,1.52,0,2.28q0,22.44,0,44.87c0,1.06-.28,1.32-1.32,1.31q-7.08-.09-14.16,0c-1,0-1.34-.23-1.34-1.31,0-12.87,0-25.75.05-38.63,0-1.16-.28-1.48-1.44-1.44C57.43,104,54.88,104,52.15,104Z"/><path class="cls-6" d="M18.79,104c1.3-2.58,2.5-5,3.69-7.35a.91.91,0,0,1,.94-.55q10.32,0,20.64,0c.58,0,.8.2.75.76a5.77,5.77,0,0,0,0,.72q0,23.16,0,46.31c0,1.1-.19,1.49-1.41,1.47-4.71-.08-9.43-.06-14.15,0-1,0-1.26-.28-1.26-1.27,0-12.88,0-25.75.06-38.63,0-1.26-.37-1.52-1.53-1.47C24,104,21.5,104,18.79,104Z"/><path class="cls-6" d="M100.45,124.41c0,6.4,0,12.8,0,19.19,0,.87-.17,1.16-1.1,1.15-4.76-.06-9.52,0-14.28,0-.74,0-1.06-.15-1-1q.1-2.4,0-4.8c0-.83.3-1.06,1-1h.12c2.69,0,2.69,0,2.69-2.77,0-7.72,0-15.43,0-23.15,0-1-.24-1.3-1.25-1.27-2.6.05-2.6,0-2.6-2.62,0-1.16,0-2.32,0-3.47,0-.58.21-.77.78-.76,5,0,9.91,0,14.87,0,1,0,.73.64.73,1.14Q100.46,114.76,100.45,124.41Z"/><path class="cls-6" d="M155.19,138.1c-1.36,2.12-2.68,4.11-3.94,6.14-.36.59-.86.48-1.36.48H134c-9.28,0-18.55,0-27.83,0a1.81,1.81,0,0,1-1.82-1c-1.13-1.88-2.35-3.7-3.62-5.67Z"/><path class="cls-6" d="M93.34,102.7c-1.71,0-3.43,0-5.15,0-.65,0-1-.12-1.18-.83-.7-2.95-1.44-5.89-2.24-8.82-.19-.72-.06-.89.67-.89,3.52,0,7,0,10.55,0,.69,0,.9.3,1,.86.37,1.39.8,2.76,1.12,4.16.17.74.48,1.12,1.28,1s1.26.13.93,1.08-.18,2.6-1,3.25-2.23.15-3.39.18C95.11,102.72,94.22,102.7,93.34,102.7Z"/><path class="cls-3" d="M49.62,124.81V106.87c1.52,1,3.12.91,4.71.91,1.39,0,1.39,0,.8,1.2-.07.15-.15.29-.22.43-.68,1.45-.22,2.24,1.4,2.19,1,0,1.3.24,1.28,1.25-.08,3.91-.07,7.82-.09,11.72a1,1,0,0,1-.64.3A53,53,0,0,1,49.62,124.81Z"/><path class="cls-7" d="M160.93,128.68c2.29-.06,2.29-.06,2.43,2.17.08,1.21.55,1.65,1.86,1.65h19.06c.32,0,.64,0,.95,0s.38.35.38.63-.12.46-.42.46H162.41a5.81,5.81,0,0,0-3.66.81c-.46.33-.81-.09-1.19-.23A30,30,0,0,1,160.93,128.68Z"/><path class="cls-8" d="M49.62,124.81a6,6,0,0,1,2.72-.21c1.72,0,3.44,0,5.16,0a27.21,27.21,0,0,1,0,4.33l-7.88,0Z"/><path class="cls-9" d="M160.93,128.68a28.81,28.81,0,0,1-3.37,5.52h-1.41c.73-2.9,3.28-5.76-.16-8.48,1.15-.17,1.15-.17,1.61.74A4.28,4.28,0,0,0,160.93,128.68Z"/><path class="cls-10" d="M83.67,114.53c.5,0,.43.37.43.67,0,6.08,0,12.15,0,18.23,0,.58-.19,1-.79.93s-.35-.61-.36-.93c0-1.52,0-3,0-4.56a2,2,0,0,0,.57-1.73c0-.83,0-1.65,0-2.48-.07-3.11,0-6.21,0-9.32A1.51,1.51,0,0,1,83.67,114.53Z"/><path class="cls-11" d="M83.67,114.53a2,2,0,0,1,.23,1.14c0,3.06,0,6.11,0,9.17a.65.65,0,0,1-.89,0c0-3.23,0-6.46,0-9.7C82.93,114.56,83,114.25,83.67,114.53Z"/><path class="cls-12" d="M105.26,123.39a5.9,5.9,0,0,1,0-1.19c.19-.84.89-.39,1.37-.45.65-.09.41.37.34.69-.17.7-.38,1.38-.5,2.08-.09.46-.32.57-.73.56-.57,0-.49-.4-.5-.74s0-.64,0-1Z"/><path class="cls-13" d="M83,124.82l.89,0c0,1.07,0,2.15,0,3.22,0,.72-.28.93-.93.81Z"/><path class="cls-14" d="M128.93,130.07c0,1.24,0,2.34,0,3.43,0,.52-.17.7-.69.68s-.41-.44-.32-.74A17.07,17.07,0,0,1,128.93,130.07Z"/><path class="cls-15" d="M82.16,98.13c.17.59.35,1.18.52,1.77.08.32.11.63-.34.71-.66.12-.32-.39-.34-.59,0-.62,0-1.25,0-1.88Z"/><path class="cls-16" d="M157,142.49c.09.3.24.6-.15.77a.38.38,0,0,1-.3-.06A.69.69,0,0,1,157,142.49Z"/><path class="cls-17" d="M80.51,93.16c.23-.11.24-.33.29-.54.22.24.35.55.13.8S80.61,93.33,80.51,93.16Z"/><path class="cls-8" d="M211.05,67.51c-8.08,0-16.16,0-24.24,0-1.14,0-1.41-.35-1.35-1.41.08-1.56.07-3.12,0-4.68,0-.9.24-1.15,1.14-1.15,5.24,0,10.48,0,15.71.05,1.09,0,1.31-.3,1.31-1.34q-.06-18.34,0-36.71c0-1-.24-1.28-1.25-1.27-4.43,0-8.87,0-13.31,0-1,0-1.25-.26-1.2-1.21a38.3,38.3,0,0,0,0-4.67c-.09-1.19.4-1.34,1.42-1.34q19,0,37.91,0c2,0,4.08,0,6.12,0,.88,0,1.07.3,1,1.1q-.09,2.52,0,5c0,.84-.24,1.09-1.08,1.08-4.48,0-9,0-13.44,0-1,0-1.24.31-1.24,1.28q.06,18.36,0,36.71c0,1,.25,1.34,1.32,1.33,5.2-.06,10.4,0,15.6-.06,1.1,0,1.34.33,1.28,1.35a34.54,34.54,0,0,0,0,4.55c.09,1.17-.37,1.34-1.4,1.34C227.28,67.49,219.16,67.51,211.05,67.51Z"/><path class="cls-8" d="M184.78,27.75l-2.06-.13c1.45-1.46,1.7-3.36,2.56-5a3.92,3.92,0,0,0,3.6,1.53c.79,0,1,.24,1,1,0,1-.46,2.39.16,3s2.13.22,3.23.24q3.06.08,6.12,0c.79,0,1.11.16,1.11,1q-.06,13.38,0,26.76c0,.85-.26,1.07-1.08,1.06-4,0-8.08,0-12.12,0a9,9,0,0,0-2.73.3c-.82.26-.89,0-.7-.81.84-3.68,1.12-7.46,2-11.15a2.57,2.57,0,0,0-1.17-2.71.86.86,0,0,1-.35-1.2c.5-1.43,1-2.87,1.4-4.33a2.9,2.9,0,0,0-2.18-3.66,4.18,4.18,0,0,1-.81-.21c-.37-.2-.68-.67-.35-1C183.86,31.25,183.77,29.32,184.78,27.75Z"/><path class="cls-8" d="M175.54,45.18c2.11,0,4.23,0,6.35,0,.76,0,1,.18.81,1C181.3,53,179.9,60,178.56,66.88c-.17.86-.49,1.06-1.32,1.05-3.91-.05-7.83,0-11.75,0-.67,0-1.08-.12-1.33-.84-.56-1.66-1.21-3.29-1.88-4.92-.28-.68-.28-.95.6-.95,2.43,0,2.41,0,2.85-2.47.77-4.2,1.6-8.38,2.33-12.59.14-.84.48-1,1.24-1C171.38,45.21,173.46,45.18,175.54,45.18Z"/><path class="cls-18" d="M170.37,28.74c2.12,0,4.24,0,6.35,0a1.11,1.11,0,0,1,1.28.9c.62,1.85,1.35,3.67,1.92,5.53.31,1.05.79,1.56,1.93,1.36.89-.16,1.13.17.76,1-.53,1.25-.62,2.91-1.52,3.69s-2.53.2-3.84.21c-2.91,0-5.83,0-8.75,0a1.19,1.19,0,0,1-1.38-.94q-1.85-5.43-3.82-10.81c-.31-.85-.12-1,.72-1C166.14,28.76,168.25,28.74,170.37,28.74Z"/><path class="cls-19" d="M170.42,12.3c2,0,4.08,0,6.11,0A1.31,1.31,0,0,1,178,13.39c.58,1.82,1.31,3.59,1.88,5.41.32,1,.74,1.6,1.91,1.38.94-.18,1.12.25.73,1.05-.58,1.22-.63,2.95-1.67,3.6s-2.47.2-3.75.2c-2.87,0-5.75,0-8.62,0a1.27,1.27,0,0,1-1.46-1c-1.21-3.58-2.46-7.15-3.78-10.69-.35-.95-.06-1.09.79-1.07C166.19,12.32,168.31,12.3,170.42,12.3Z"/><path class="cls-8" d="M101.31,35.35c5.75,0,11.51,0,17.27,0,1,0,1.2.27,1.2,1.21q-.06,14.93,0,29.87c0,1-.32,1.25-1.29,1.24q-5.82-.09-11.63,0a1.48,1.48,0,0,1-1.66-1.13c-.42-1.16-1-2.27-1.49-3.4-.25-.53-.09-.71.47-.69.72,0,1.45,0,2.16,0s.82-.37.8-1,.1-1.09-.8-1.08q-4.92.06-9.84,0c-.73,0-.85.29-.84.92,0,1.76,0,3.52,0,5.28,0,.74-.14,1-1,1-3.6-.05-7.19-.05-10.79,0-.83,0-1-.29-1-1q0-15.1,0-30.23c0-.87.29-1,1.09-1C89.79,35.36,95.55,35.35,101.31,35.35Z"/><path class="cls-8" d="M143.38,33.78c-.73,1.6-1.49,3.17-2.15,4.79a1.37,1.37,0,0,1-1.57,1.06c-1.23-.09-2.48,0-3.71-.05-1-.07-1,.44-1,1.15s-.22,1.3.94,1.29C142,42,148.09,42,154.17,42c1.2,0,1.64.28,1.48,1.5a10.13,10.13,0,0,0,0,2.27c.09.87-.26,1.06-1.08,1.06-6.15,0-12.31,0-18.47,0-.91,0-1.17.23-1.12,1.13,0,.67.2.88.88.87,2.76,0,5.52,0,8.28,0,3.52,0,7,0,10.55,0,.71,0,1,.14,1,.92-.09,1.23.39,2.83-.22,3.6s-2.32.25-3.54.26c-5.28,0-10.55,0-15.83,0-.66,0-1.11,0-1.1.9s.31,1,1.11,1c6.12,0,12.23,0,18.35,0,1,0,1.34.29,1.22,1.27-.14,1.14.49,2.62-.25,3.34s-2.14.19-3.25.19c-5.35,0-10.71,0-16.07,0-.64,0-1.12,0-1.11.9s.36,1,1.13,1c6.16,0,12.32,0,18.47,0,1,0,1.32.15.79,1.16-.61,1.16-1.13,2.38-1.63,3.6a1.17,1.17,0,0,1-1.26.81q-14.28,0-28.55,0c-1,0-1.09-.37-1.09-1.2,0-4.79,0-9.59,0-14.39,0-5.88,0-11.75,0-17.63,0-1,.23-1.29,1.25-1.28,6.43.05,12.87,0,19.31,0A.36.36,0,0,1,143.38,33.78Z"/><path class="cls-8" d="M143.38,30c-6.48,0-12.95,0-19.42,0-.88,0-1.15-.19-1.14-1.11,0-5.36,0-10.71,0-16.07,0-.79.13-1.12,1-1.1,3.39.05,6.79,0,10.19,0,.81,0,1.07.25,1,1,0,.28,0,.57,0,.84-.14.88.27,1,1.08,1,6.11,0,12.23,0,18.34,0,1,0,1.32.26,1.24,1.25a23.55,23.55,0,0,0,0,3.36c0,.84-.24,1.08-1.07,1.07q-9.12,0-18.23,0c-.44,0-1.16-.27-1.27.26a8.1,8.1,0,0,0,0,2.6c0,.29.56.15.87.15,2.48,0,5,0,7.43,0a1.13,1.13,0,0,1,.35.86c.06,1.66.07,3.32,0,5A1,1,0,0,1,143.38,30Z"/><path class="cls-8" d="M101.3,20c-6.16,0-12.32,0-18.48,0-.88,0-1.22-.19-1.13-1.12.14-1.37-.56-3.19.28-4s2.58-.19,3.93-.2c2.68,0,5.36,0,8,0,.82,0,1.12-.19,1.09-1.05C95,12,95,12,96.6,12c3.36,0,6.72,0,10.08,0,.79,0,1.13.13,1.1,1,0,1.62,0,1.62,1.67,1.62,3.56,0,7.12,0,10.68,0,.8,0,1,.23,1,1a24.87,24.87,0,0,0,0,3.23c.06.88-.18,1.15-1.11,1.14C113.78,19.93,107.54,20,101.3,20Z"/><path class="cls-19" d="M116.13,27.81c1.24,0,2.48.09,3.72,0,1-.06,1.37.16,1.27,1.21a17.11,17.11,0,0,0,0,3.12c.09,1.06-.21,1.41-1.35,1.4-9.16-.05-18.32,0-27.47,0-3.2,0-6.4,0-9.6,0-.78,0-1-.22-1-1,.06-1.23.06-2.48,0-3.72,0-.82.27-1,1-1,1.28.05,2.56,0,3.84,0a1.56,1.56,0,0,1,1.11-.35c3.09,0,6.19,0,9.28,0a4.13,4.13,0,0,1,.7.14c.4.39.9.23,1.35.23,2,0,4,0,6,0a2,2,0,0,1,1.36-.37q4.2,0,8.38,0A1.83,1.83,0,0,1,116.13,27.81Z"/><path class="cls-18" d="M143.38,30l0-6.68c3.84,0,7.67,0,11.51,0,.57,0,.75.17.75.74q0,7.44,0,14.87c0,.61-.23.73-.78.73-3.55,0-7.11,0-10.67,0-.62,0-.83-.16-.82-.8,0-1.68,0-3.36,0-5V30Z"/><path class="cls-8" d="M97.64,27.61c-.27.31-.65.24-1,.23H86.55C86,26,85.42,24.1,84.79,22.26c-.27-.75-.05-.87.64-.87q4.72,0,9.45,0a.84.84,0,0,1,1,.66C96.43,23.9,97,25.75,97.64,27.61Z"/><path class="cls-8" d="M116.13,27.81l-11.1,0c.63-1.85,1.28-3.69,1.86-5.56.2-.63.46-.89,1.16-.88,3.07,0,6.15.05,9.23,0,.92,0,.84.34.63,1C117.3,24.17,116.72,26,116.13,27.81Z"/><path class="cls-8" d="M79.8,43.44H75.05c0-1.59-.06-3.18-.08-4.76,1-.59,2-.16,3.07-.26a17.2,17.2,0,0,1,1.76,0Z"/><path class="cls-8" d="M59.1,31.37c-.57,1.09-1.2,2.15-1.7,3.26a1.66,1.66,0,0,1-1.81,1.14c-3.12-.08-6.24,0-9.36-.05-.79,0-1,.22-1,1,0,2.12,0,2.12,2.14,2.12,7.8,0,15.6,0,23.39,0,.87,0,1.22.17,1.14,1.11a16.6,16.6,0,0,0,0,3.23c.13,1.15-.36,1.27-1.34,1.27-8,0-16.07,0-24.11,0-1,0-1.27.25-1.24,1.25.07,2.59,0,2.59,2.64,2.59,8,0,16.07,0,24.11,0,.92,0,1.27.2,1.2,1.17-.09,1.23,0,2.48,0,3.72,0,.5-.14.75-.68.69-.23,0-.47,0-.71,0q-33.54,0-67.07,0c-1.13,0-1.57-.23-1.44-1.42a19.47,19.47,0,0,0,0-3.24c0-.74.19-1,.94-.95,1.87,0,3.75,0,5.63,0,6.8,0,13.6,0,20.4,0,1,0,1.2-.28,1.18-1.2,0-2.63,0-2.63-2.59-2.63-7.52,0-15,0-22.55,0-1,0-1.25-.24-1.18-1.19a25,25,0,0,0,0-3.35C5,39,5.33,38.82,6.17,38.83q12,0,24,0c.41,0,1.12.34,1.2-.38a5.13,5.13,0,0,0-.12-2.58c-.13-.3-.67-.12-1-.12-8,0-16,0-24,0-1.06,0-1.31-.26-1.31-1.32q.07-10.8,0-21.59c0-.92.24-1.11,1.13-1.11q32.27,0,64.54,0c.8,0,1.08.15,1.08,1,0,7.32,0,14.63,0,21.95,0,.75-.14,1-1,1-3.48,0-7,0-10.44,0-.75,0-1-.24-.93-1,.05-1.11,0-2.23,0-3.34Z"/><path class="cls-18" d="M62.73,55.74c1.68,0,3.36,0,5,0,.95,0,1.33.29,1.55,1.18.42,1.62,1,3.19,1.46,4.8.24.89.58,1.45,1.62,1.24.77-.15,1,.18.74.93-.32,1.06-.58,2.15-.84,3.23a.87.87,0,0,1-1,.77q-5.46,0-10.92,0c-.64,0-.88-.23-1-.85-.91-3.38-1.84-6.76-2.84-10.12-.32-1,0-1.21,1-1.18C59.21,55.78,61,55.74,62.73,55.74Z"/><path class="cls-19" d="M46.06,55.72c1.76,0,3.52,0,5.27,0a1,1,0,0,1,1.24.93c.44,1.73,1,3.42,1.47,5.15.22.92.63,1.29,1.55,1.14.74-.12,1,.11.76.92-.33,1.06-.54,2.16-.78,3.24a.85.85,0,0,1-1,.79q-5.51,0-11,0a.83.83,0,0,1-.93-.7q-1.43-5.3-2.88-10.59c-.2-.73.13-.89.8-.88C42.39,55.74,44.23,55.72,46.06,55.72Z"/><path class="cls-8" d="M22.94,55.87h5.48c2,0,4.07,0,6.11,0a1.13,1.13,0,0,1,1.32,1c.49,1.72,1.1,3.42,1.56,5.15.23.86.62,1.22,1.5,1.08s1,.21.71.95a20.66,20.66,0,0,0-.76,2.77c-.14.83-.57,1-1.32,1q-5.09-.06-10.19,0c-.8,0-1.18-.17-1.41-1C25,63.15,24,59.59,22.94,55.87Z"/><path class="cls-8" d="M10.41,67.73c-1.72,0-3.45,0-5.16,0-.87,0-1.21-.25-1.34-1.08a17.71,17.71,0,0,0-.71-2.78c-.22-.66-.07-.93.6-.82,1,.18,1.45-.29,1.7-1.26.45-1.74,1.09-3.43,1.58-5.15a.93.93,0,0,1,1.09-.8q5.4,0,10.8,0c.76,0,.83.21.64.9q-1.42,5.07-2.75,10.17c-.18.69-.52.84-1.17.82C13.93,67.7,12.17,67.73,10.41,67.73Z"/><path class="cls-20" d="M41.31,70.48a1.79,1.79,0,0,1-1.21,0C40.56,70,40.92,69.66,41.31,70.48Z"/><path class="cls-20" d="M58.23,70.56H56.85c.57-1,1-.3,1.37,0Z"/><path class="cls-21" d="M101.54,41.51c1.59,0,3.19,0,4.78,0,.61,0,.81.16.83.8.1,2.6.12,2.6-2.49,2.6s-5.42,0-8.13,0c-.66,0-.87-.17-.88-.86,0-2.54-.07-2.54,2.42-2.54Z"/><path class="cls-21" d="M101.3,54.27c-1.56,0-3.12,0-4.68,0-.69,0-1-.12-1-.9,0-2.33-.05-2.33,2.31-2.33,2.68,0,5.35,0,8,0,.85,0,1.19.16,1.17,1.11-.06,2.13,0,2.13-2.15,2.13Z"/><path class="cls-21" d="M52.36,17.23c2,0,4,0,6,0,.82,0,1,.26,1,1,0,3.84,0,7.68,0,11.52,0,.72-.11,1.06-1,1.05q-6.1-.07-12.23,0c-.77,0-.91-.25-.91-1,0-3.87,0-7.75,0-11.63,0-.79.22-1,1-1C48.28,17.26,50.32,17.23,52.36,17.23Z"/><path class="cls-1" d="M24.4,30.78c-2,0-4,0-6,0-.73,0-1.05-.11-1-1,.05-3.87,0-7.75,0-11.63,0-.79.24-1,1-1,4,0,8,0,12,0,.72,0,1.06.11,1.05,1-.05,3.88,0,7.76,0,11.63,0,.81-.26,1-1,1C28.4,30.74,26.4,30.78,24.4,30.78Z"/><path class="cls-8" d="M58.47,18.73c-.75,3.51-1.48,6.9-2.18,10.3a.71.71,0,0,1-.82.65H47.79c-.19,0-.49,0-.55-.14A14.27,14.27,0,0,1,46,25.94c-.1-.46.49-.31.73-.28.74.11,1-.26,1.1-.9.33-1.72.7-3.44,1.09-5.15.09-.38,0-.89.72-.89C52.56,18.75,55.47,18.73,58.47,18.73Z"/><path class="cls-18" d="M24.78,29.75c-1.23,0-2.47,0-3.71,0a.83.83,0,0,1-1-.76c-.65-3.15-1.3-6.31-2-9.45-.17-.73,0-.88.7-.87,2.6,0,5.2,0,7.79,0,.62,0,.9.13,1,.81.3,1.69.78,3.34,1.08,5,.14.71.34,1.11,1.13,1s1,.22.65,1c-.43,1-.48,2.42-1.21,3.06s-2.15.15-3.26.21C25.58,29.77,25.18,29.75,24.78,29.75Z"/></svg>