<svg id="圖層_1" data-name="圖層 1" xmlns="http://www.w3.org/2000/svg" viewBox="0 0 230.21 195.84"><defs><style>.cls-1{fill:#38322f;}.cls-2{fill:#f3c7cc;}.cls-3{fill:#eec4c8;}.cls-4{fill:#f0c5ca;}.cls-5{fill:#f3c8cd;}.cls-6{fill:#f3c7e2;}.cls-7{fill:#fefefe;}.cls-8{fill:#fbeff0;}.cls-9{fill:#aa8d8f;}.cls-10{fill:#e676ba;}.cls-11{fill:#fafafa;}.cls-12{fill:#fdfdfd;}.cls-13{fill:#fefdfd;}.cls-14{fill:#f8f6f6;}.cls-15{fill:#403936;}</style></defs><title>44</title><path class="cls-1" d="M31.47,78a8,8,0,0,1,1.79-2.62c1.73-1.75,3.44-3.52,5.16-5.28a14.27,14.27,0,0,1,4.95-4.76,5.06,5.06,0,0,1,5.65.54,3.19,3.19,0,0,0,1.15.78,15.43,15.43,0,0,1-.34-4.12,5,5,0,0,1-3.08,1.69,5.29,5.29,0,0,1-4.94-1.49,24.83,24.83,0,0,1-3.42-3.68c-1.77-1.79-3.52-3.59-5.31-5.36a5.27,5.27,0,0,1-1.56-5.54,3.1,3.1,0,0,0,0-1.76,5.24,5.24,0,0,1,1.53-5.54c2.84-2.82,5.66-5.66,8.49-8.48,2.59-2.58,5.72-2.58,8.33,0s5.44,5.42,8.2,8.09a6.5,6.5,0,0,1,2.12,4.28c0,.54.16.66.66.67s.64-.28.64-.74c0-3,0-5.92.1-8.87,0-2,.59-3.88,2.53-5A7,7,0,0,1,67.46,30c2.68,0,5.36,0,8,0,3.8,0,5.92,2.16,6,6,0,2.84.09,5.68.08,8.52,0,.74.19,1,.94.93a29,29,0,0,1,3.23,0c.77,0,1-.18,1-1,0-2.48,0-5,.09-7.44,0-2,.6-3.88,2.54-5a6.68,6.68,0,0,1,3.33-.82c9.76,0,19.51,0,29.27,0a5.56,5.56,0,0,1,5.48,3.34c.53,1.83,2,1.71,3.48,1.81,5.51.35,11,.23,16.53.2,2.91,0,5.82-.22,8.73-.22a39.29,39.29,0,0,0,4.05.24c.36,0,.72.09,1.06-.11.34-1.91.43-3.92,2.32-5.15a7.08,7.08,0,0,1,3.76-1c3-.06,6,0,9,0,3.56,0,5.58,1.8,5.86,5.28.08.94.37,1.07,1.19,1.06q16.2,0,32.39,0c2.05,0,4,.4,5.19,2.35a7.08,7.08,0,0,1,.88,3.55q.18,6.9,0,13.79a6.43,6.43,0,0,1-1.35,4.24,1.36,1.36,0,0,0-.35,1c.06,2.92.11,5.83.17,8.75a1.8,1.8,0,0,1,.38,1.22c0,2.23,0,4.45,0,6.68a1.82,1.82,0,0,1-.38,1.23c0,2.46-.07,4.93-.07,7.39,0,4.18,0,8.36.05,12.53a2.11,2.11,0,0,1,.39,1.59c0,7.56.05,15.11,0,22.67,0,2-.15,4.07-.25,6.1-.16,3.33-2.16,5.4-5.49,5.47q-9.22.21-18.47,0c-3.39-.07-5.43-2.17-5.5-5.57s-.49-6.86-.24-10.3c0-.66-.1-1.1-.85-1.12-2-.07-3.92,0-5.87,0-.85,0-1.27.31-1.22,1.19,0,.52,0,1,0,1.56.14,3-.32,5.87-.28,8.82a4.71,4.71,0,0,1-.44,2c-1.16,2.36-3.26,3.07-5.67,3.21-1,.06-2,0-3,0-2,.05-3.92.06-5.88,0q-6.42-.15-6.59-6.58c-.07-2.79,0-5.59,0-8.39,0-1.8,0-1.81-1.79-1.81-4.36,0-8.72,0-13.07,0-1,0-1.23.32-1.22,1.23,0,2.88,0,5.76,0,8.63a11.87,11.87,0,0,1-.25,2.38,5.07,5.07,0,0,1-4.25,4.31,8.62,8.62,0,0,1-1.42.25c-2,.07-4,.05-6,0-2.38,0-4.8.21-7.07-.86a1.8,1.8,0,0,0-1.29.07,15.82,15.82,0,0,1-4.5.55c-4,0-8,0-12,0a12.3,12.3,0,0,1-3.31-.46,4.87,4.87,0,0,1-3.48-3.33c-.41-1.25-.4-1.25-1.4-.33a8,8,0,0,1-1.12.9c-.83.68-1.51,1.53-2.42,2.14a5.75,5.75,0,0,1-8.18-1c-1.59-1.78-3.11-3.61-4.78-5.31a1.53,1.53,0,0,0-1.33-.35c-8.07,0-16.15,0-24.22,0a3.87,3.87,0,0,1-1.32-.08c-1.44-.54-2.38.13-3.33,1.13a28.59,28.59,0,0,1-4.29,4,5.77,5.77,0,0,1-7.09-.59,1.41,1.41,0,0,1-.46-.81c-2.64-2.65-5.28-5.31-7.93-7.95A6.27,6.27,0,0,1,31.33,119s0-.08,0-.11c.81-2.33-.44-4.76.34-7.09a6.52,6.52,0,0,1,1.63-2.32c1.63-1.68,3.28-3.36,4.92-5a14,14,0,0,1,5.42-5.08,5.37,5.37,0,0,1,6.09,1.17c.5.44.93,1,1.57,1.49,0-2.07,0-4,0-6.15-2.06,2.23-4.28,3.74-7.25,2.79a8,8,0,0,1-4.63-3.89,15.63,15.63,0,0,0-3-2.84,18.52,18.52,0,0,1-4.58-4.64,4.58,4.58,0,0,1-.76-4,5,5,0,0,0,0-2.82A2.5,2.5,0,0,1,31.47,78Z" transform="translate(-9.23 -30)"/><path class="cls-1" d="M160.35,189.12c0,2.35,0,4.71-.13,7.06-.08,2-.55,3.86-2.39,5.07a4.77,4.77,0,0,1-2.25.72,32.91,32.91,0,0,1-7.29,0c-3.52-.43-4.53-2.73-4.65-5.77-.26-6.79-.08-13.58-.08-20.37,0-1-.27-1.25-1.26-1.22-3.27.09-6.54.08-9.81.11a3.41,3.41,0,0,1-2.4.32,4.31,4.31,0,0,0-3.09.88c-1.59,1.29-1.59,1.29-5.34,1.81,2,3.57,3.93,7.1,5.87,10.64a6.14,6.14,0,0,1,.88,4.17c-.11.61.06,1.27,0,1.89a4.8,4.8,0,0,1-2.49,4c-2.3,1.25-4.43,2.86-7,3.49a4.66,4.66,0,0,1-5.12-1.95c-1.45-2.33-2.75-4.76-4.09-7.16s-2.6-4.71-4.08-7c0,2.49,0,5,0,7.49a25.17,25.17,0,0,1-.26,4.42c-.62,3.31-2.65,4.34-5.37,4.4-4.76.1-9.52,0-14.27,0A4.46,4.46,0,0,1,81.36,199a4.16,4.16,0,0,1-.37-1.73A10.26,10.26,0,0,1,78.63,201a5.74,5.74,0,0,1-6.62.49A22,22,0,0,1,69.29,200a2.18,2.18,0,0,0-3,.2,9.65,9.65,0,0,1-2.36,1.63,5.7,5.7,0,0,1-7-1.91c-2.56-3.52-5.1-7.06-7.66-10.59-.2-.29-.28-.79-.83-.68-1.14,1.4-1.93,3-3,4.47-.66,1-1.28,2.11-2,3.12a38.21,38.21,0,0,1-2.18,3.43c-.74.9-1.4,2-2.81,1.94a6.2,6.2,0,0,1-5.8-1.26c-.43-.32-.73-.44-1.18.08A4.84,4.84,0,0,1,28,202a32.68,32.68,0,0,1-6.92-.07c-3.64-.5-4.66-2.83-4.69-5.86-.1-7.92-.07-15.83-.05-23.74a2.21,2.21,0,0,0-.92-1.88,42,42,0,0,1-5-5.13,5,5,0,0,1-1.05-3.91c.12-.94-.3-1.84,0-2.81a5.91,5.91,0,0,1,1.37-2.72c1.62-1.6,3.29-3.14,5-4.65a1.53,1.53,0,0,0,.63-1.3c0-2.8-.07-5.6,0-8.39.06-2.05.65-3.91,2.58-5.05a5.77,5.77,0,0,1,2.83-.77c2.58,0,5.18-.39,7.72.41a4.42,4.42,0,0,1,3.17,3.22,13.76,13.76,0,0,1,.45,3.89c0,.26-.23.77.48.62a29.69,29.69,0,0,1,5.25-.21c.36,0,.87.17.82-.52a7.06,7.06,0,0,0,.07-2.15,4.87,4.87,0,0,1,3.15-5,7.23,7.23,0,0,1,2.57-.48c1.68,0,3.36,0,5,0,3.84.07,6,2.12,6.27,6,.12,1.7.12,1.69,1.81,1.71,2.75,0,5.53-.28,8.17.85.55.24.59-.18.6-.56a8.64,8.64,0,0,1,.47-2.47,4.89,4.89,0,0,1,3.56-3.39,13.78,13.78,0,0,1,3.56-.44c7.2,0,14.39,0,21.59,0,.93,0,1.86,0,2.79,0,3.48,0,7-.05,10.44,0a10.4,10.4,0,0,0,4.77-.91,8.17,8.17,0,0,1,2.06-.62,5.39,5.39,0,0,1,6.16,3.05,47.89,47.89,0,0,1,2.34,6,11.85,11.85,0,0,1,.15,5.46,4.64,4.64,0,0,1-2.73,3.71c-3.48,1.63-6.93,3.31-11,2.94a43.64,43.64,0,0,0-4.43,0c-.48,0-1,0-1,.69s.49.75,1,.75c4.08,0,8.15,0,12.23,0a1.47,1.47,0,0,0,1.25-.59c1.45-2,3.56-2.49,5.83-2.51,4.67,0,9.35,0,14,0a11.32,11.32,0,0,0,1.17,0c1.66,0,1.67,0,1.62-1.75,0-2.63,0-5.27,0-7.9.13-1.83-.22-3.68.29-5.48a5.64,5.64,0,0,1,5.76-4.54c.68,0,1.35,0,2,0,1.2,0,2.39-.05,3.59,0a5.79,5.79,0,0,1,5.08,2.86,10.38,10.38,0,0,1,.79,4c0,3.75,0,7.5,0,11.25,0,1.49.08,1.56,1.55,1.57,5.51,0,11-.08,16.52.06a1.91,1.91,0,0,0,1.58-.89c1.87-2.18,3.7-4.39,5.54-6.6,1.66-1.81,3.21-3.72,4.79-5.6,1.43-1.66,2.71-3.44,4.29-5a5.56,5.56,0,0,1,7.32-.52c1.46,1.11,2.86,2.3,4.22,3.53,1,.86,1.27.87,2.24,0,1.15-1,2.37-2,3.56-3,2.75-2.33,5.83-2.22,8.31.37a31.31,31.31,0,0,1,4.49,5.57c1.37,2,3,3.7,4.54,5.54,2.94,3.57,5.94,7.09,8.83,10.7a4.58,4.58,0,0,1,.88,3.9c-.19,1,.16,1.93-.15,2.93a5.16,5.16,0,0,1-1.54,2.5c-1.65,1.4-3.32,2.77-5,4.06a1.72,1.72,0,0,0-.77,1.58q0,9.6,0,19.19a17.82,17.82,0,0,1-.27,4.06c-.67,2.86-2.25,4.26-5.21,4.32-3.92.09-7.84.1-11.76,0-3.27-.09-5.26-2.35-5.3-5.73,0-2.36,0-4.72,0-7.08.06-3.63,1.29-5.59,5-6.14.61-.09.81-.23.79-.84-.05-1.2,0-2.4,0-3.6,0-.58-.2-.74-.76-.74-2.56,0-5.12,0-7.68,0-.66,0-.78.23-.79.83,0,3.2,0,6.39-.1,9.59-.11,2.61-.87,4.62-3.21,6.11-3.34,2.11-6.49,4.51-9.74,6.76a5.19,5.19,0,0,1-7.38-1.31c-1.07-1.49-2.12-3-3.19-4.49a5,5,0,0,1-1.07-4.23c.1-.43-.16-.77-.25-1.15a4.48,4.48,0,0,1,1.76-4.56c1.26-1,2.64-1.89,3.93-2.86.31-.25.65-.45,1-.67a2.58,2.58,0,0,0,1.18-3c-.11-.47-.44-.61-.83-.73-.65-.18-1.32-.27-1.95-.51a5.13,5.13,0,0,1-2.69-2.93c-.34-.92-.82-1-1.64-.56a9.33,9.33,0,0,1-4.61,1.09H162.31c-1.54,0-1.62.09-1.63,1.63,0,3.52,0,7,0,10.55A3.42,3.42,0,0,1,160.35,189.12Z" transform="translate(-9.23 -30)"/><path class="cls-2" d="M96.49,137.49c-7.55,0-15.11,0-22.66.06-2.27,0-4.4.61-5.48,2.88A8.87,8.87,0,0,0,67.7,145c-3.16-2.07-6.58-1.31-9.87-1.36-1.25,0-1.5-.37-1.47-1.53,0-2.12-.42-4.1-2.38-5.39a5.1,5.1,0,0,0-2.35-.79,34.92,34.92,0,0,0-7.3,0c-3.33.47-4.45,2.69-4.6,5.59,0,.51-.06,1-.09,1.54a3,3,0,0,1-.07-.71c.27-1.3-.48-2-1.39-2.72-2.28-1.93-2.7-3.8-.53-6.1,1.09-1.15,2.53-1.8,3.69-2.82,1.72,1.61,3.62,2.54,6.06,1.77a6.32,6.32,0,0,0,2.47-1.63q2.07-2,4.07-4.07a1.21,1.21,0,0,1,1.46-.4,8.45,8.45,0,0,0,2.84.33l24.1,0a3.7,3.7,0,0,1,1.25.42c1.49,1.66,3.06,3.24,4.46,5,2,2.52,5.16,3.47,8.18,1.29C97.55,134.84,97.65,136.44,96.49,137.49Z" transform="translate(-9.23 -30)"/><path class="cls-2" d="M225.08,143.09c-1.51-1.74-3-3.5-4.54-5.22a5.44,5.44,0,0,0-8.18-.43c-1.34,1.19-2.78,2.27-4.1,3.48-.57.52-.85.4-1.36,0-1.59-1.39-3.19-2.77-4.88-4a5.27,5.27,0,0,0-7.17.78c-1.35,1.57-2.68,3.15-4,4.72-.36-.33-.19-.74-.15-1.12a38.71,38.71,0,0,1,.63-3.88c.3-1.58.31-1.6-1.26-2.1a56.48,56.48,0,0,1-7.22-2.81,2.52,2.52,0,0,1-1.1-.68c.9-2.87.38-5.85.62-8.77.06-.67,0-1.35,0-2a5.3,5.3,0,0,1,2.15-1.27,22.45,22.45,0,0,1,5.28-1.82c1.08-.24,1.39,0,1.34,1.26a69.83,69.83,0,0,0,.26,11.48c.38,3.14,2.55,4.2,5.08,4.25,6.11.11,12.23.1,18.34,0,3.39,0,5.29-2.21,5.3-5.78q.08-14.2.11-28.41c0-.44,0-.88.05-1.32,2.86-.13,3.73,1.32,4.29,3.72a20.61,20.61,0,0,1-.12,7.94c-.28,1.72-.51,3.46-.86,5.17-.14.67.1.82.63,1a60.48,60.48,0,0,1,7.81,3,15.67,15.67,0,0,1,4.65,3.07c2,2,1.8,4.08-.38,5.92a29.56,29.56,0,0,1-8.37,4.53c-1.19.48-2.39.89-3.6,1.3-.49.17-.67.33-.55.93C224.28,138.31,224.67,140.71,225.08,143.09Z" transform="translate(-9.23 -30)"/><path class="cls-2" d="M38.4,201.61c1.92-.69,2.77-2.4,3.8-4l1-1.57c.69-.53,1.12-1.32,1.86-1.81.53-.36.16-.86.1-1.3l3-4.63c3.22,2.68,4.09,6.71,1.12,9.64a67.63,67.63,0,0,0-6,6.22,10.14,10.14,0,0,0-.83,1.15c.24.39.6.24.88.24,3.16,0,6.3-.1,9.46-.35a5.24,5.24,0,0,1,5.83,4.26,49.57,49.57,0,0,0,2.57,8.61c.16.39.22.86.74,1.16a25.75,25.75,0,0,0,2.17-3.4c1-1.87,1.8-3.84,2.75-5.73A5.33,5.33,0,0,1,73,207.21a31.75,31.75,0,0,1,3.92,1.11,30.58,30.58,0,0,0,4.92,1.06c.48.07,1.13.31,1.44-.19s-.16-.91-.38-1.32a56.16,56.16,0,0,0-3.8-6c-.22-.33-.55-.6-.59-1a22.26,22.26,0,0,0,2.62-4.12c.33,3,1.79,4.77,4.57,5.33,1.48,2.5,3.08,4.95,3.64,7.88s-.93,4.68-3.86,4.85A32.68,32.68,0,0,1,74.2,213c-2.55-.76-2.52-.81-3.56,1.66a35.73,35.73,0,0,1-5.49,9.22c-2.22,2.64-4.81,2.63-6.86-.11s-2.9-6-3.8-9.23c-.29-1-.51-2.09-.73-3.14-.15-.72-.44-.91-1.24-.82-4.2.45-8.42.79-12.61-.1a6,6,0,0,1-2.18-.93,3.23,3.23,0,0,1-1.37-3.65C36.73,204.31,37.73,203,38.4,201.61Z" transform="translate(-9.23 -30)"/><path class="cls-2" d="M186.73,182.66a21.29,21.29,0,0,1-3.24,2.36,5.73,5.73,0,0,0-2.56,4.83c-3.37-1.19-6.08-3.4-8.8-5.6-.28-.23-.54-.47-.83-.68-2-1.5-2-1.5-3.89.28a41.32,41.32,0,0,1-7.06,5.27c0-4.55,0-9.1,0-13.65,0-.87.42-.84,1-.84,5.46,0,10.93,0,16.4,0a6.44,6.44,0,0,0,4.37-1.32c.67-.56,1.13-.35,1.29.41a5.43,5.43,0,0,0,2.85,3.63A6.8,6.8,0,0,1,186.73,182.66Z" transform="translate(-9.23 -30)"/><path class="cls-2" d="M31.47,78a6,6,0,0,0,.19,3.5,1.75,1.75,0,0,1-.06,1.17c-.82,2.37.06,4.23,1.7,5.91a23.76,23.76,0,0,1,3.16,3.34,25.6,25.6,0,0,1-9.88-4.82c-2.16-1.79-2.16-3.89-.19-5.87A13,13,0,0,1,31.47,78Z" transform="translate(-9.23 -30)"/><path class="cls-2" d="M38.39,59.07c1,1,2,1.84,2.9,2.86,2.38,2.72,6.05,2.9,8.81.07a13.5,13.5,0,0,0,.59,5.35c-.59.06-.73-.28-.95-.48-2.72-2.47-5.65-2.4-8.25.21-1,1-2.05,2-3.07,3a41,41,0,0,1-.64-6.24A17,17,0,0,1,38.39,59.07Z" transform="translate(-9.23 -30)"/><path class="cls-2" d="M39.42,94.77l2.26,2.13a5.46,5.46,0,0,0,8.08,0c.53-.52,1-1.09,1.52-1.64l.28.16v7.09l-.27.2c-.49-.55-.95-1.12-1.48-1.64-2.59-2.54-5.65-2.52-8.21,0l-3.41,3.35a45.85,45.85,0,0,1,1-9.41C39.21,94.94,39.34,94.86,39.42,94.77Z" transform="translate(-9.23 -30)"/><path class="cls-2" d="M220.32,79.45c-.12-3-.11-6.09,0-9.13a7.45,7.45,0,0,1,3.36,2.94,2.91,2.91,0,0,1-.26,3.67A7.41,7.41,0,0,1,220.32,79.45Z" transform="translate(-9.23 -30)"/><path class="cls-3" d="M161.27,36.49c-.36.39-.83.19-1.24.19l-30.32,0c-2.07,0-2.07,0-2.29-2.09a5.78,5.78,0,0,1,4.32.86,8.94,8.94,0,0,0,4.69,1.06c4.35-.08,8.69,0,13,0a23.79,23.79,0,0,1,9,0Z" transform="translate(-9.23 -30)"/><path class="cls-4" d="M158.45,36.45h-9a16,16,0,0,1,3.84-1.92C156,33.69,157,34,158.45,36.45Z" transform="translate(-9.23 -30)"/><path class="cls-5" d="M127,175.92a2,2,0,0,1,2.31-1.3c1.05.11,2.12.07,3.18.1a3,3,0,0,1-3.53,1.59A7.26,7.26,0,0,0,127,175.92Z" transform="translate(-9.23 -30)"/><path class="cls-6" d="M215.14,92q0,15.9,0,31.8c0,1-.21,1.28-1.24,1.27-5.56-.06-11.12,0-16.68,0-.82,0-1.1-.2-1.08-1.06q.08-4.38,0-8.76c0-.86.28-1.07,1.09-1,2,.06,4.08,0,6.12,0,.76,0,.92-.23.92-1q0-21.36,0-42.72c0-.89-.3-1-1.09-1q-31.32,0-62.64,0c-1,0-1.16.3-1.15,1.2,0,17.52,0,35,0,52.56,0,1.19-.24,1.55-1.48,1.5-2.79-.11-5.6-.07-8.39,0-.8,0-1-.23-1-1q0-32,0-64.08c0-1,.43-1,1.14-1,11.76,0,23.52,0,35.28,0,1.09,0,1.47-.25,1.38-1.37a23.1,23.1,0,0,1,0-3.72c.09-1.06-.33-1.22-1.28-1.21-5.2,0-10.4,0-15.6,0-7.16,0-14.32,0-21.48,0-.89,0-1.15-.21-1.13-1.12q.09-4.26,0-8.52c0-1,.24-1.27,1.25-1.26q18.36,0,36.72,0c1.73,0,1.49.19,1.51-1.56,0-1.31,0-2.64,0-4,0-.64.21-.84.83-.83,3.08,0,6.16,0,9.24,0,.74,0,.85.33.84.95,0,1.35.08,2.72,0,4.07-.1,1.18.38,1.35,1.42,1.35q18.3,0,36.6,0c1.6,0,1.6,0,1.6,1.6,0,2.68,0,5.36,0,8,0,1-.31,1.25-1.28,1.24-12.32,0-24.64,0-37,0-1.2,0-1.5.34-1.41,1.47a30.59,30.59,0,0,1,0,3.83c-.05.83.26,1,1,1,3,0,6,0,9,0,8.88,0,17.76,0,26.64,0,1,0,1.26.25,1.25,1.25C215.12,70.68,215.14,81.36,215.14,92Z" transform="translate(-9.23 -30)"/><path class="cls-6" d="M112.18,95.68c-1.48,1.68-3,3.35-4.44,5-.44.51-.72.5-1.21,0-1.54-1.56-3.15-3.06-4.77-4.62-.2.32-.09.75-.09,1.16,0,6.2,0,12.4,0,18.6a2.23,2.23,0,0,1-.83,1.85q-3.78,3.31-7.49,6.74c-.5.45-.76.46-1.21-.06-1.77-2-3.58-4.09-5.42-6.09-.45-.5-.47-.76,0-1.21,1.39-1.2,2.71-2.5,4.11-3.69a2.41,2.41,0,0,0,.91-2q0-36.66,0-73.31c0-1.81,0-1.81,1.85-1.81,9.28,0,18.56,0,27.84,0,1.1,0,1.29.33,1.29,1.34q0,42.84,0,85.67c0,1-.26,1.33-1.32,1.32q-7-.09-14,0c-1,0-1.27-.3-1.25-1.28.07-2.52.06-5,0-7.56,0-.86.27-1.08,1.09-1,1.6.06,3.2,0,4.8,0,.55,0,.77-.15.77-.74,0-5.92,0-11.84,0-17.76,0,0,0,0-.08-.07Z" transform="translate(-9.23 -30)"/><path class="cls-6" d="M86.43,94.89c0,7,0,13.92,0,20.88,0,.89-.19,1.14-1.11,1.13q-13.8,0-27.6,0c-1,0-1.15-.33-1.14-1.22q0-20.75,0-41.51c0-1,.26-1.27,1.25-1.24,2.6.07,5.2,0,7.8,0,.72,0,1-.17,1-.92q-.06-5.4,0-10.8c0-.84-.3-1-1-1-3.12,0-6.24,0-9.36,0-.92,0-1.13-.28-1.11-1.15.06-2.56.05-5.12,0-7.68,0-.86.28-1.07,1.1-1.06,3.12,0,6.24,0,9.36,0,.85,0,1.06-.25,1-1.08,0-4.4,0-8.8,0-13.2,0-.86.18-1.18,1.12-1.15,2.59.07,5.2.06,7.79,0,.82,0,1,.26,1,1,0,4.4,0,8.8,0,13.2,0,.91.19,1.23,1.17,1.21,3.12-.06,6.24,0,9.36,0,.79,0,1.13.13,1.11,1-.06,2.64,0,5.28,0,7.92,0,.75-.23.94-1,.93-3.2,0-6.4,0-9.6,0-.84,0-1.09.23-1.08,1.07,0,3.52,0,7,0,10.56,0,1,.32,1.11,1.16,1.09,2.6,0,5.2,0,7.8,0,.86,0,1,.25,1,1.07C86.41,81,86.43,87.93,86.43,94.89Z" transform="translate(-9.23 -30)"/><path class="cls-6" d="M188.06,91.12c-3.24,0-6.48,0-9.72,0-.81,0-1.14.17-1.09,1a32.63,32.63,0,0,1,0,3.83c-.05.94.24,1.21,1.19,1.21,6.4,0,12.8,0,19.2-.06,1.14,0,1.37.34,1.34,1.4q-.1,4.06,0,8.15c0,1-.17,1.35-1.28,1.34-6.4-.07-12.8,0-19.2-.06-1,0-1.26.23-1.25,1.24.06,4.84,0,9.68,0,14.52,0,.81-.17,1.1-1,1.09q-4.38-.09-8.76,0c-.9,0-1.14-.22-1.13-1.13,0-4.8,0-9.6,0-14.4,0-1-.18-1.34-1.28-1.33-6.36.07-12.72,0-19.08.06-1.1,0-1.31-.31-1.29-1.33q.1-4.2,0-8.4c0-.89.21-1.14,1.12-1.14,6.44,0,12.88,0,19.32,0,.92,0,1.27-.19,1.2-1.17a27.17,27.17,0,0,1,0-3.72c.06-.93-.21-1.21-1.18-1.2-6.36,0-12.72,0-19.07.05-1.09,0-1.43-.26-1.4-1.38.09-2.72.07-5.44,0-8.16,0-1,.18-1.52,1.35-1.41s2.48,0,3.72,0c.77,0,.93-.24.92-1-.05-1.83,0-3.68,0-5.51,0-.63.16-.82.8-.82q4.62,0,9.24,0c.65,0,.81.21.8.82,0,1.84,0,3.69,0,5.52,0,.74.2.95.93.95q9.42,0,18.84,0c.78,0,.93-.27.91-1,0-1.8,0-3.6,0-5.4,0-.77.24-.93,1-.92q4.5.06,9,0c.76,0,.95.23.93,1,0,1.8,0,3.6,0,5.4,0,.76.25,1,1,.94,1.36,0,2.72,0,4.08,0,.66,0,.9.17.89.87q0,4.56,0,9.12c0,.74-.22,1-.94.94C194.7,91.1,191.38,91.12,188.06,91.12Z" transform="translate(-9.23 -30)"/><path class="cls-2" d="M143.48,145.42v8.2c-.68,1.18-1.89,1.49-3.06,1.87-4.8,0-9.6,0-14.39.07-2.17,0-4.21.55-5.4,2.63-.25.44-.56.45-1,.45-4.4,0-8.8,0-13.19,0-1,0-.85-.49-.89-1.1s.1-1.08,1-1.05c2,.07,3.92,0,5.88,0a12.85,12.85,0,0,0,5.8-1.19c1.6-.71,3.34-1.09,4.78-2.16s1.87-2.75,2.06-4.59c.35-3.31-1.23-6-2.29-8.94-1.17-3.21-3.64-4.41-6.91-3.5l-.11.05c-2.9,1.61-6.07,1.34-9.2,1.32l-7.19,0a12.39,12.39,0,0,1-.94-6l2.67-2.52a23.2,23.2,0,0,0,.86,2.77c1.16,2,3.07,2.52,5.1,2.55,5,.09,9.9.05,14.85,0,1.23,0,2.48-.86,3.53-.75s2.25.91,3.48,1,2.55,0,3.82.07a1.47,1.47,0,0,1,.2,1.36,28.74,28.74,0,0,1-.55,2.94c-.24.92,0,1.39,1,1.67a49.16,49.16,0,0,1,7.34,2.86C141.7,144,142.86,144.33,143.48,145.42Z" transform="translate(-9.23 -30)"/><path class="cls-2" d="M151.22,135.8a22.81,22.81,0,0,0-2.87.1,5.13,5.13,0,0,0-4.6,4,2.46,2.46,0,0,1-2.79-.24,5.17,5.17,0,0,1-2-5c1.78-.33,3.55-.64,4.59-2.39a7,7,0,0,0,.91-3.54c0-3.36,0-6.71,0-10.07,0-.72.14-.87.9-.87q7.38.09,14.75,0c1,0,1.23.3,1.21,1.26,0,3.2,0,6.4,0,9.59a6.93,6.93,0,0,0,.83,3.45c1.13,2,3.07,2.42,5.12,2.51s4.15,0,6.22.06c.62,1.6-.16,2.89-1,4.06a3.3,3.3,0,0,1-3.45,1.14,18.41,18.41,0,0,1-6.93-3.4,50.65,50.65,0,0,1-4.93-4,1.06,1.06,0,0,0-1.64,0c-1,.79-1.82,1.67-2.8,2.43A5.5,5.5,0,0,1,151.22,135.8Z" transform="translate(-9.23 -30)"/><path class="cls-7" d="M151.22,135.8c1.5-1.3,3-2.58,4.5-3.91.52-.47.86-.36,1.32.06a46.12,46.12,0,0,0,8.42,6.28,11.77,11.77,0,0,0,3.91,1.41c2.13.34,3.85-1.41,4.14-4.12a7.85,7.85,0,0,0,0-.84c1.31-.17,2.63.06,3.94-.15a5.69,5.69,0,0,0,4.25-2.77,8.61,8.61,0,0,1,2.85,1.14c2.16.94,4.39,1.64,6.61,2.38.62.21.77.42.63,1.1-.39,2-.67,4-1,6-1.5,1.8-2.92,3.67-4.55,5.35-.43-.38-.33-.88-.26-1.34a17.25,17.25,0,0,0-.1-5.6,6.39,6.39,0,0,0-.79-2.12,2.79,2.79,0,0,0-3-1.43,12.66,12.66,0,0,0-5.22,2.3,45.13,45.13,0,0,0-5.89,4.7c-.26.25-.55.47-.81.71-.76.69-1.37.63-2.16-.08a51.55,51.55,0,0,0-7.44-5.63c-.35-.21-.62-.51-.94-.74a6.09,6.09,0,0,0-5.69-2.64C153,135.86,152.12,135.81,151.22,135.8Z" transform="translate(-9.23 -30)"/><path class="cls-6" d="M45.7,35.4c.19.16.38.29.54.45,2.84,2.81,5.67,5.63,8.52,8.43.45.43.36.65,0,1q-4.27,4.29-8.51,8.62c-.41.42-.64.39-1,0Q41,49.66,36.71,45.44c-.46-.45-.42-.7,0-1.13,2.81-2.78,5.6-5.59,8.4-8.38C45.3,35.76,45.48,35.6,45.7,35.4Z" transform="translate(-9.23 -30)"/><path class="cls-6" d="M45.72,89c-.19-.17-.38-.31-.54-.48-2.81-2.78-5.62-5.57-8.44-8.34-.43-.41-.49-.66,0-1.12,2.83-2.81,5.64-5.66,8.43-8.52.42-.42.68-.49,1.14,0q4.2,4.26,8.47,8.47c.41.4.43.63,0,1-2.87,2.83-5.72,5.69-8.57,8.55C46.05,88.69,45.89,88.81,45.72,89Z" transform="translate(-9.23 -30)"/><path class="cls-6" d="M55.21,113.57l-.49.55c-2.82,2.82-5.66,5.64-8.46,8.49-.47.47-.71.36-1.11,0-2.77-2.77-5.54-5.54-8.36-8.26-.58-.55-.43-.82,0-1.3q4.17-4.14,8.27-8.35c.45-.46.71-.56,1.21-.05,2.78,2.83,5.59,5.61,8.38,8.41C54.86,113.18,55,113.36,55.21,113.57Z" transform="translate(-9.23 -30)"/><path class="cls-7" d="M139,134.67c.3.87.27,1.8.61,2.67.74,2,1.69,2.57,4.18,2.58a44,44,0,0,0-.27,5.5,39.55,39.55,0,0,0-10.36-4.48c-1.18-.36-1.37-.87-1.1-1.93a19.11,19.11,0,0,0,.71-4.33Z" transform="translate(-9.23 -30)"/><path class="cls-7" d="M98.42,131.52q.47,3,.94,6H96.49c1-1.42.28-2.72-.26-4Z" transform="translate(-9.23 -30)"/><path class="cls-7" d="M189.82,117.88,182.39,121c-.2-3.14-.2-3.14,2.91-3.14Z" transform="translate(-9.23 -30)"/><path class="cls-8" d="M83.59,127.18a2.43,2.43,0,0,1-1.25-.42C82.82,126.7,83.33,126.57,83.59,127.18Z" transform="translate(-9.23 -30)"/><path class="cls-9" d="M52.84,69.52c.11.23,0,.32-.1.29a.65.65,0,0,1-.35-.26s0-.19,0-.29Z" transform="translate(-9.23 -30)"/><path class="cls-10" d="M93,142.56c6,0,12.08-.08,18.11,0,2.12,0,3.87-.86,5.7-1.59.88-.35,1.25-.23,1.55.68.5,1.47,1.09,2.92,1.7,4.35.28.68.12,1-.57,1.24-1.5.54-3,1.15-4.45,1.75a4.47,4.47,0,0,1-1.77.24c-10.84,0-21.67,0-32.51,0-1.12,0-1.38.31-1.37,1.39.07,4,.06,7.92,0,11.87,0,.93.28,1.14,1.15,1.13,4.08,0,8.16,0,12.24,0,.93,0,1.12-.28,1.11-1.15,0-3.36,0-6.72,0-10.08,0-.89.16-1.29,1.17-1.22a36.38,36.38,0,0,0,4.43,0c1-.07,1.18.32,1.17,1.22,0,3.28,0,6.56,0,9.83,0,1.06.2,1.42,1.35,1.41,6.75-.06,13.51,0,20.27,0,1,0,1.34.22,1.28,1.25a36.46,36.46,0,0,0,0,4.31c0,1-.27,1.21-1.21,1.21-6.71,0-13.43,0-20.15,0-1.74,0-1.52-.19-1.52,1.54,0,7.24,0,14.48,0,21.72,0,.94-.17,1.31-1.22,1.29q-6.06-.09-12.12,0c-1,0-1.22-.3-1.18-1.22.07-1.55.05-3.11,0-4.67,0-.68.21-.91.89-.89,1.92,0,3.84,0,5.76,0,.91,0,1.14-.26,1.13-1.15q-.06-7.74,0-15.47c0-1-.25-1.21-1.19-1.2-6.16,0-12.32,0-18.48,0-1.51,0-1.51,0-1.51-1.57,0-8.24,0-16.47,0-24.71,0-1.15.2-1.55,1.48-1.54C80.4,142.6,86.68,142.56,93,142.56Z" transform="translate(-9.23 -30)"/><path class="cls-10" d="M48.25,177c-1.25,2-2.45,3.83-3.63,5.69Q41,188.34,37.4,194c-.45.73-.89.87-1.64.34A38.86,38.86,0,0,0,32,192c-1-.52-1-1.11-.45-1.92q3.36-5.26,6.7-10.55c1-1.64,2.06-3.3,3.15-4.92.53-.8.24-.89-.53-.89-2.6,0-5.2,0-7.8,0-.76,0-1.07-.18-1-1,.06-1.64.07-3.28,0-4.92,0-.89.32-1.05,1.11-1,3.44,0,6.88,0,10.32,0,1,0,1.19-.29,1.17-1.2,0-3-.08-5.93,0-8.88,0-1.14-.36-1.3-1.35-1.28-2.68.06-5.36,0-8,.05-1,0-1.27-.32-1.22-1.28.08-1.52.07-3,0-4.56,0-.87.17-1.18,1.11-1.15,2.6.07,5.2,0,7.8,0,1.67,0,1.67,0,1.67-1.73s0-3.52,0-5.28c0-.65.14-.93.86-.91,1.67.05,3.36.05,5,0,.77,0,.94.28.92,1,0,2,0,3.92,0,5.88,0,.83.21,1.09,1.06,1.08,3.6-.05,7.2,0,10.8,0,.87,0,1.06.26,1.06,1.08,0,5.36,0,10.72,0,16.08,0,.88.2,1.16,1.11,1.14,2.73,0,2.73,0,2.73,2.7,0,1,0,2,0,3s-.24,1.24-1.21,1.22c-3.72,0-7.44,0-11.16,0-.33,0-.79-.19-1,.16s.28.61.47.88C58.94,179.88,62.6,185,66.34,190c.6.81.47,1.23-.24,1.73-1.23.88-2.48,1.73-3.67,2.66-.78.62-1.3.48-1.85-.3-1.78-2.53-3.59-5-5.4-7.55Z" transform="translate(-9.23 -30)"/><path class="cls-6" d="M155.5,181.23c0,4.2,0,8.39,0,12.59,0,.82-.18,1.11-1,1.08q-2.52-.12-5,0c-.9,0-1.13-.22-1.12-1.12,0-8.32,0-16.63.05-24.95,0-1.11-.29-1.36-1.37-1.36-7,.05-14.08,0-21.11.05-.92,0-1.15-.25-1.11-1.13q.1-2.52,0-5c0-.88.28-1,1.08-1,7,0,14,0,21,.05,1.3,0,1.53-.39,1.52-1.58-.06-5.67,0-11.35-.05-17,0-.88.18-1.17,1.11-1.12,1.67.08,3.35.07,5,0,.84,0,1.07.2,1.06,1.05,0,5.84,0,11.67,0,17.51,0,1,.29,1.16,1.19,1.16,7,0,14.08,0,21.11-.05,1.11,0,1.34.31,1.28,1.33a34.54,34.54,0,0,0,0,4.55c.09,1.18-.38,1.34-1.4,1.33-7,0-14,0-21,0-.9,0-1.22.17-1.21,1.16C155.54,172.83,155.5,177,155.5,181.23Z" transform="translate(-9.23 -30)"/><path class="cls-10" d="M226.87,164c0,9.88,0,19.76,0,29.63,0,.85-.25,1.08-1.08,1.07-3.56,0-7.12,0-10.68,0-.69,0-1-.12-1-.91.06-1.68,0-3.36,0-5,0-.67.2-.92.89-.9,1.35,0,2.72,0,4.07,0,.71,0,1-.18,1-.94q0-7.74,0-15.47c0-.73-.21-1-.95-1q-8.62,0-17.27,0c-.79,0-1,.23-1,1,0,4.87,0,9.75,0,14.63a1.74,1.74,0,0,1-.83,1.67q-4.79,3.27-9.51,6.64c-.75.54-1.13.43-1.61-.31-.84-1.31-1.78-2.55-2.7-3.8-.44-.61-.54-1,.23-1.52,2.29-1.52,4.5-3.17,6.77-4.73a1.67,1.67,0,0,0,.83-1.56c0-3.64-.05-7.28,0-10.91,0-.92-.27-1.15-1.15-1.14a27.27,27.27,0,0,1-4.78-.09c-.28-2,0-4-.14-6,0-.39.14-.61.56-.6h37.15C226.11,163.81,226.53,163.66,226.87,164Z" transform="translate(-9.23 -30)"/><path class="cls-10" d="M28.08,162.22v1.41c0,10,0,20,0,30,0,1-.26,1.3-1.26,1.25a38.51,38.51,0,0,0-4.43,0c-1,.06-1.27-.35-1.27-1.31,0-9.92,0-19.83,0-29.75v-1.5c-.69.67-1.2,1.14-1.66,1.64s-1,.61-1.52.05c-1.05-1.1-2.15-2.15-3.21-3.24-.66-.68-.86-1.34,0-2.11,1.07-.95,2.08-2,3.06-3,.64-.69,1.18-.72,1.76,0,.39.49.77,1,1.15,1.5l.41-.25v-1.14c0-4.67,0-9.35,0-14,0-.84.22-1.1,1.07-1.07,1.51.07,3,.08,4.55,0,1-.06,1.36.17,1.35,1.29-.07,5,0,9.91,0,15,.85-.32,1.26-1.09,1.94-1.52s1-.39,1.45.11c1.16,1.26,2.33,2.5,3.5,3.75a.78.78,0,0,1,0,1.24,50.34,50.34,0,0,1-3.91,3.68c-.7.55-1.13.11-1.5-.37A5.36,5.36,0,0,0,28.08,162.22Z" transform="translate(-9.23 -30)"/><path class="cls-2" d="M159.63,138.47a24.28,24.28,0,0,1,5.68,3.71c1.15.86,2.21,1.83,3.28,2.79.37.33.58.37,1,0,1.5-1.31,3-2.63,4.56-3.86a24.31,24.31,0,0,1,6.2-3.8c3.22-1.24,5.4.07,5.93,3.46a33.25,33.25,0,0,1,0,6.91c-1.82,2.21-3.67,4.39-5.42,6.65a3,3,0,0,1-2.93,1.25c-5.43-.16-10.87-.09-16.3,0-1,0-1.36-.16-1.34-1.27.09-3.88,0-7.75.05-11.63A13.73,13.73,0,0,0,159.63,138.47Z" transform="translate(-9.23 -30)"/><path class="cls-7" d="M78.5,200.88a27.23,27.23,0,0,1,3.92,5.54A14.51,14.51,0,0,1,83.75,209c.27.69.09.83-.57.82a22.49,22.49,0,0,1-5.87-1c-1.37-.38-2.74-.81-4.13-1.18A5.16,5.16,0,0,0,67,210.66a41,41,0,0,1-4.85,9,2.86,2.86,0,0,1-.33.29,38.48,38.48,0,0,1-2.93-8.34c-.21-.81-.36-1.63-.54-2.45a5.35,5.35,0,0,0-5.6-3.69c-3.55.61-7.14.4-10.89.41a14.48,14.48,0,0,1,2.56-3.43c1.57-1.65,3.22-3.22,4.83-4.83a5.28,5.28,0,0,0,.71-6.86c-.55-.83-1.14-1.64-1.71-2.45.45-.92.66-.06.82.16,1.51,2.05,3,4.13,4.49,6.2,1.26,1.75,2.51,3.51,3.77,5.25a5.31,5.31,0,0,0,7.15,1.22c.89-.61,1.76-1.24,2.61-1.91a1,1,0,0,1,1.29-.08c1.13.66,2.31,1.24,3.45,1.89A5.85,5.85,0,0,0,78.5,200.88Z" transform="translate(-9.23 -30)"/><path class="cls-10" d="M226.87,164c-.36,0-.72-.05-1.07-.05q-18.15,0-36.31,0c-1,0-1.41.22-1.35,1.32.09,1.71,0,3.43,0,5.15a29.16,29.16,0,0,1-.13-5.2c0-1-.39-.64-.83-.31-.19-1,.36-1.3,1.18-1.42.21.37.57.23.86.23h36.92c.15,0,.3,0,.61-.06-1.47-1.77-2.85-3.44-4.24-5.1l-8.34-10c-.79-.95-1.56-1.91-2.38-2.83a.94.94,0,0,1,.13-1.6c1.23-1,2.41-2.08,3.62-3.11a1,1,0,0,1,1.53.14c2.58,3.13,5.18,6.23,7.79,9.34,2.37,2.83,4.76,5.66,7.14,8.49l2.44,2.92c.23.28.35.52,0,.81-1.46,1.17-2.91,2.34-4.35,3.53-.48.4-.77.29-1.21-.11C228.17,165.46,227.8,164.45,226.87,164Z" transform="translate(-9.23 -30)"/><path class="cls-10" d="M188.38,163.44c-.49.4-1.06.72-1.18,1.42-1.51,2.33-1.7,2-3.24.53a36.31,36.31,0,0,0-3-2.52c-.47-.36-.51-.59-.13-1q5-6,10-12c2.32-2.77,4.65-5.54,6.94-8.33.88-1.08,1.16-1.11,2.19-.2s2.16,1.88,3.27,2.78a1,1,0,0,1,.15,1.6c-1.93,2.27-3.83,4.57-5.74,6.85l-8.34,10C189,162.86,188.69,163.14,188.38,163.44Z" transform="translate(-9.23 -30)"/><path class="cls-10" d="M86.2,174.85a2.29,2.29,0,0,1-.43,1.1c-3.26,6-6.54,11.89-9.77,17.86-.56,1-1.12,1.23-2.13.58a35.73,35.73,0,0,0-3.55-1.93c-1-.47-1.13-1-.58-2,2.5-4.42,4.94-8.87,7.41-13.31.9-1.63,1.83-3.24,2.69-4.89.36-.69.74-.87,1.42-.5,1.5.81,3,1.62,4.52,2.41A.63.63,0,0,1,86.2,174.85Z" transform="translate(-9.23 -30)"/><path class="cls-10" d="M123.55,191.23c.11.76-.33.86-.62,1-1.45.82-2.93,1.59-4.38,2.41-.64.36-1,.18-1.31-.45-1.91-3.52-3.88-7-5.82-10.52-1.44-2.6-2.85-5.22-4.3-7.82-.49-.88-.53-1.46.58-1.94,1.34-.58,2.6-1.37,3.89-2.07.66-.37,1.1-.34,1.53.44,3.3,6,6.65,12,10,18C123.3,190.67,123.47,191.07,123.55,191.23Z" transform="translate(-9.23 -30)"/><path class="cls-7" d="M214.39,158.66h-13.6c2-2.38,3.88-4.63,5.78-6.87,1-1.2,1-1.2,2.05,0C210.5,154,212.37,156.24,214.39,158.66Z" transform="translate(-9.23 -30)"/><path class="cls-7" d="M186.73,182.66a31.61,31.61,0,0,0-.49-5.32l2.47.42a.64.64,0,0,1,.33.1,6.44,6.44,0,0,1-.32,3.5C188.07,181.81,187.4,182.23,186.73,182.66Z" transform="translate(-9.23 -30)"/><path class="cls-11" d="M86.41,158.64a5.12,5.12,0,0,0-1,0c-1,.19-1.26-.31-1.2-1.26,0-.67.21-.91.89-.87,1,0,2,0,3,0s.63.69.68,1.16.13,1.07-.72,1A15.49,15.49,0,0,0,86.41,158.64Z" transform="translate(-9.23 -30)"/><path class="cls-12" d="M65.64,180.9a9.92,9.92,0,0,0,4-.5A31.86,31.86,0,0,1,67.84,184Z" transform="translate(-9.23 -30)"/><path class="cls-13" d="M140.42,155.49l3.06-1.87c.12,1.92.12,1.92-1.75,1.91C141.29,155.53,140.85,155.5,140.42,155.49Z" transform="translate(-9.23 -30)"/><path class="cls-14" d="M45.2,193c.81.54.85,1.12,0,1.61s-1,1.31-1.94,1.5C43.89,195.05,44.54,194,45.2,193Z" transform="translate(-9.23 -30)"/><path class="cls-1" d="M112.81,66.05c-1.66-1.59-3.27-3.07-4.79-4.63-.6-.62-.93-.75-1.57,0C105,63,103.47,64.47,102,66c-.45-.33-.31-.68-.31-1,0-6,0-11.91,0-17.86,0-.89.22-1.14,1.12-1.12,3,.06,6.07,0,9.11,0,.56,0,1,0,.95.78C112.79,53.24,112.81,59.62,112.81,66.05Z" transform="translate(-9.23 -30)"/><path class="cls-1" d="M101.76,70.85c1.45,1.32,3.1,2.71,4.61,4.24.66.68,1,.6,1.55,0,1.47-1.63,3-3.2,4.5-4.8l.3.22V91.37c-1.42-1.32-3-2.67-4.44-4.19-.87-.93-1.35-.9-2.16,0-1.31,1.49-2.75,2.87-4.36,4.53Z" transform="translate(-9.23 -30)"/><path class="cls-1" d="M76.59,94.94c0,3.68,0,7.36,0,11,0,.78-.11,1.12-1,1.09-2.72-.06-5.44,0-8.16,0-.65,0-1,0-1-.87,0-7.52,0-15,0-22.56,0-.71.24-.86.89-.85,2.76,0,5.52,0,8.28,0,.79,0,1,.22,1,1C76.57,87.5,76.59,91.22,76.59,94.94Z" transform="translate(-9.23 -30)"/><path class="cls-1" d="M57.52,161.28c0,1.56,0,3.12,0,4.67,0,.57-.09.9-.78.88-1.51,0-3,0-4.55,0-.56,0-.77-.18-.77-.76,0-3.27,0-6.55,0-9.82,0-.58.21-.77.77-.76,1.52,0,3,0,4.56,0,.69,0,.78.32.77.88C57.51,158,57.52,159.64,57.52,161.28Z" transform="translate(-9.23 -30)"/><ellipse class="cls-15" cx="62.27" cy="67.44" rx="0.14" ry="6.55"/></svg>