<svg id="圖層_1" data-name="圖層 1" xmlns="http://www.w3.org/2000/svg" viewBox="0 0 232.74 189.54"><defs><style>.cls-1{fill:#4dab14;}.cls-2{fill:#ecdea4;}.cls-3{fill:#e1ab39;}.cls-4{fill:#b18cd1;}.cls-5{fill:#f9f1df;}.cls-6{fill:#f4e1ba;}.cls-7{fill:#fefefe;}.cls-8{fill:#deb444;}.cls-9{fill:#fdfefd;}.cls-10{fill:#fdfdfd;}.cls-11{fill:#ebdea3;}.cls-12{fill:#aec871;}.cls-13{fill:#f5f9f2;}.cls-14{fill:#e8f3e3;}.cls-15{fill:#a1d187;}.cls-16{fill:#e1ac39;}.cls-17{fill:#e0ab39;}.cls-18{fill:#6fb632;}.cls-19{fill:#dcab38;}.cls-20{fill:#dbac38;}.cls-21{fill:#deac39;}.cls-22{fill:#ddac38;}.cls-23{fill:#b4cc71;}.cls-24{fill:#c3d17f;}.cls-25{fill:#f8fbf6;}.cls-26{fill:#dfeed8;}.cls-27{fill:#96cc79;}.cls-28{fill:#e9dda1;}.cls-29{fill:#e3db9c;}.cls-30{fill:#d9b040;}.cls-31{fill:#c4ab31;}.cls-32{fill:#6bb52f;}.cls-33{fill:#6db631;}.cls-34{fill:#c8d284;}.cls-35{fill:#e1b853;}.cls-36{fill:#7dbb40;}.cls-37{fill:#65b32a;}.cls-38{fill:#e7c56f;}.cls-39{fill:#94c255;}.cls-40{fill:#ebdea4;}.cls-41{fill:#66b32b;}.cls-42{fill:#4eac16;}.cls-43{fill:#dcd996;}.cls-44{fill:#d0ac36;}.cls-45{fill:#dbd995;}.cls-46{fill:#d1ac35;}.cls-47{fill:#dad894;}</style></defs><title>6</title><path class="cls-1" d="M128.36,62.88c0-6.32,0-12.64,0-19,0-1,.27-1.23,1.25-1.22,10.36,0,20.71,0,31.07,0,1,0,1.29-.3,1.47-1.18.64-3.13,1.36-6.24,2-9.37.16-.8.43-1.17,1.37-1.16q9.66.08,19.32,0c1,0,1.21.29.91,1.2a21.29,21.29,0,0,0-.48,2.1c-.12.52-.43,1.1.59,1.08.56,0,.24.46.18.73-.4,1.83-.76,3.67-1.23,5.49-.23.92,0,1.1.92,1.1,10.48,0,21,0,31.44,0,.87,0,1.12.19,1.14,1.11.51,24.82.08,49.64.21,74.46,0,4.86-2.54,8.47-6.8,9.74a10.45,10.45,0,0,1-2.95.4l-8.64,0a2.22,2.22,0,0,1-1.48.34c-3.08,0-6.16,0-9.23,0-1.62,0-1.86-.28-1.91-1.9-.09-2.87-.35-5.74-.24-8.61.06-1.7.29-2,1.95-2s3.19,0,4.79,0a4,4,0,0,0,2.28-.6c1.09-.88,1.27-1.42.76-2.39a3.64,3.64,0,0,0-1.54-.11c-5,0-10.09,0-15.13,0-3.42,0-3,.07-3.7-3-.39-1.7-.74-3.42-1.11-5.13-.61-3.18-1.41-6.34-2-9.51-.54,2.4-1.09,4.85-1.55,7.31-.64,2.93-1.26,5.85-1.91,8.78-.3,1.33-.49,1.5-1.85,1.52-2,0-4,0-6,0-3.56,0-7.12,0-10.68,0-1.91,0-2,0-2,1.92,0,3.8,0,7.6,0,11.4,0,2-.24,2.27-2.28,2.28q-8.46,0-16.91,0c-2,0-2.18-.25-2.23-2.21-.54-20.62-.1-41.24-.24-61.86A2.76,2.76,0,0,1,128.36,62.88Z" transform="translate(-6.87 -31.04)"/><path class="cls-2" d="M128.36,62.88c0,3,0,6,0,9,0,16.88,0,33.76,0,50.64,0,1.74.29,3.48.21,5.24,0,.54.23.66.72.66,6.4,0,12.8,0,19.2,0,.82,0,.76-.45.76-1,0-4.44,0-8.88,0-13.32,0-1,.2-1.31,1.24-1.29,4,.07,8,.05,12,.06.63.3.55.94.65,1.46a16.4,16.4,0,0,0,3.21,7.15,10.85,10.85,0,0,0,3.89,3.13c3.76,1.78,7.42.33,9.06-3.52a15,15,0,0,0,.77-7c0-.43-.24-.87.15-1.25,4.89,0,9.79,0,14.68,0,.91,0,1.87-.36,2.76.17a.82.82,0,0,1-.64.29c-.75,0-.71.43-.49,1s.48.94.26,1.48a2.79,2.79,0,0,1-2.27.85c-2,0-3.91,0-5.87,0-.81,0-1,.27-1,1-.12,3.35.29,6.68.25,10,0,.8.42.78,1,.78l11.25,0c.19,1.77.37,3.55.56,5.33.06.66.46.94,1.08,1,.42.08.9-.09,1.24.29a1.29,1.29,0,0,1-.17.16c-.48.38-1.32-.19-1.59.48-.19.49.18,1.08.16,1.64-.06,1.39.27,2.77.26,4.16,0,.85.44,1.21,1.21,1.31a17.88,17.88,0,0,1,2.84.3c.36.11.93,0,.85.68-1.54.48-3.06-.07-4.59-.12-.19,0-.36-.17-.53-.11a89.31,89.31,0,0,1-.78,9.28,1.35,1.35,0,0,1-.46.94c-.79.09-1-.44-.94-1,.09-1-.49-1.22-1.31-1.24-1.08,0-2.16,0-3.24,0s-1.34-.34-.79-1.42c1.74-3.37,3.25-6.86,5-10.21.67-1.25.31-2.38.24-3.58,0-.49-.52-.57-.92-.58-2.92,0-5.83-.08-8.75,0-.88,0-1.32.63-1.66,1.35-1.22,2.52-2.35,5.08-3.66,7.55-.71,1.36-1.44,1.77-2.64,1.56-.54-.1-.91-.37-.94-.93a11.81,11.81,0,0,1,0-3,14.86,14.86,0,0,0-.11-5.36.81.81,0,0,0-.81-.74c-.4,0-.8,0-1.2,0H154c-2.08,0-2.25.15-2.2,2.27.06,2.35.41,4.68.55,7,.14,2.06.18,4.14.34,6.21.13,1.79.33,3.57.39,5.37-.06.46-.49.62-.77.89-.58.57-.49,1.31-.54,2s.18,1.38-.41,1.92a2.72,2.72,0,0,1-2.39-.11,2.22,2.22,0,0,1-.3-1.38c0-3.27,0-6.55,0-9.83a1.94,1.94,0,0,1,1.07-2.08,1,1,0,0,0,.58-1,17.27,17.27,0,0,0-.26-4.42,1,1,0,0,0-.48-.79c-.85-.45-.92-1.23-.9-2.06a25.44,25.44,0,0,0-.22-3.7c-.12-.81-.49-1.25-1.31-1.27-3-.06-6.07,0-9.11,0a1.19,1.19,0,0,0-1.32,1.34c0,1.32,0,2.64,0,4s-.33,1.58-1.58,1.6c-3.39.06-6.79,0-10.19,0a1,1,0,0,1-1.18-1.15c0-.72-.12-1.43-.19-2.15a1.24,1.24,0,0,0-1.5-1.27c-.64,0-1.28,0-1.92,0H104.66c-2,0-2,.06-2,2,0,6.79,0,13.59,0,20.38a3.38,3.38,0,0,1-.29,2,2.67,2.67,0,0,1-3.08-.22,2.93,2.93,0,0,1-.25-1.52c0-3.2,0-6.39,0-9.59,0-.93.12-1.75,1.09-2.19.47-.21.54-.66.57-1.11a17.71,17.71,0,0,0-.25-4.18,1.05,1.05,0,0,0-.43-.83c-1-.49-1-1.37-1-2.27a21.85,21.85,0,0,0-.25-3.7,1.12,1.12,0,0,0-1.18-1.1q-4.68-.13-9.35,0c-.85,0-1.16.56-1.18,1.36,0,1.32,0,2.64,0,4s-.34,1.55-1.6,1.58c-3.4.05-6.8,0-10.2,0a1,1,0,0,1-1.15-1c0-.63,0-1.27-.14-1.91-.24-1.52-.31-1.58-1.8-1.61H54.72c-1.66,0-1.78.12-1.78,1.77,0,6.08,0,12.15,0,18.23a3.78,3.78,0,0,1-.23,1.88,1.39,1.39,0,0,1-1.33.33c-2.33-.24-4.67-.41-7-.56-.59,0-1.31.1-1.69-.61a.6.6,0,0,1,.26-.24c1.42-.51,1.4-.51,1.13-2a66.49,66.49,0,0,1-1.21-10.81c0-1.43-.25-1.95-1.71-1.61a1.31,1.31,0,0,1-1.34-.28c.5-.92,1.46-.71,2.22-.77,1-.08,1.35-.43,1.31-1.4-.08-2.16.11-4.32-.14-6.47q.36-2.66.73-5.31c0-.31.16-.61.23-.92.46-.45,1-.33,1.59-.36,1.33-.05,1.49-.17,1.62-1.5q.49-4.87,1-9.75c.24-2.29.49-4.59.73-6.89,0-.38,0-.83.52-1,.39.21.37-.19.44-.34A70.63,70.63,0,0,1,55.76,98.7a3.94,3.94,0,0,0,.64-2.23q0-23.19,0-46.38c0-.45-.21-1,.21-1.36.58.65.41,1.44.41,2.18q0,26.27,0,52.53c0,3,0,6,.24,9,.09,1.31.14,1.43,1.48,1.43H75.53c2.8,0,5.6,0,8.39,0A9.16,9.16,0,0,0,93,104.73c-.14-16.51-.06-33,0-49.53,0-.73-.22-1.54.43-2.15.35.37.18.84.18,1.25,0,4.19,0,8.38,0,12.57,0,.93.26,1.13,1.07.75a11.9,11.9,0,0,0,2.74-1.13c.49.42.41,1,.41,1.56q0,22.73,0,45.45c0,2.42-1.29,3.67-3.72,3.75-1,0-2,0-3,0-.78,0-1.15.31-1.19,1.13-.12,3,.17,6,.27,9a.77.77,0,0,0,.8.85c.4,0,.8,0,1.2,0,5.16,0,10.32-.12,15.47,0,5.69.17,9.89-3.88,9.86-9.9-.11-17.79,0-35.58,0-53.37,0-.73-.21-1.54.42-2.16C121.38,62.39,124.87,63,128.36,62.88Z" transform="translate(-6.87 -31.04)"/><path class="cls-2" d="M187.69,185.52a55.61,55.61,0,0,1-6.27,8.28,79,79,0,0,1-45.82,25.59,79,79,0,0,1-36.4-2.19,78.05,78.05,0,0,1-25.42-13.08,77.06,77.06,0,0,1-17.34-18.55c-.73-1.1-1.37-2.2-2.91-2.16.49-.56,1.17-.4,1.79-.4,4.34,0,8.68,0,13,0a5.73,5.73,0,0,0,5-2.54,6.42,6.42,0,0,0,.81-2.48,37.16,37.16,0,0,0,.15-5.38c0-.79,0-1.59,0-2.39s.38-1.46,1.41-1.2a1.3,1.3,0,0,1,.69,1.17c.06.55.18,1.1.22,1.65.07,1,.63,1.35,1.58,1.34,1.91,0,3.82,0,5.73,0,1.39,0,1.58-.23,1.62-1.6a8.46,8.46,0,0,1,.08-1.42c.27-.7.65-.76,1.14-.21a35.34,35.34,0,0,1,.15,7.27c0,.82-.69,1.12-1.42,1.2-1,.09-1.92,0-2.88,0-1.2.05-1.35.2-1.38,1.43a20.35,20.35,0,0,0,.2,3.82c.13.76.51,1.18,1.25,1.18,4,0,8,.33,12-.21a4.85,4.85,0,0,0,4.32-5c.06-2.63,0-5.27,0-7.9a2.61,2.61,0,0,1,.33-1.73,3.67,3.67,0,0,1,2.89,0,2.29,2.29,0,0,1,.38,1.7c0,2.52,0,5,0,7.55a23.14,23.14,0,0,0,.22,2.62c.08.71.39,1.08,1.14,1.08,4.9,0,9.82.11,14.72-.05,2.8-.08,4.54-1.89,5.14-4.93a32.34,32.34,0,0,0,.16-5.11c0-.48,0-1,0-1.43.07-1.24.37-1.45,1.68-1.23a2.4,2.4,0,0,1,.66,1.74c.11.74.45,1.17,1.24,1.17,2.16,0,4.31,0,6.47,0a1.08,1.08,0,0,0,1.2-1.18,2.58,2.58,0,0,1,.31-1.61.69.69,0,0,1,.82,0,3.22,3.22,0,0,1,.31,2c0,1.4,0,2.8,0,4.2s-.44,1.82-1.88,1.9c-.92,0-1.84,0-2.76,0a1,1,0,0,0-1.09,1.11,21.66,21.66,0,0,0,.2,4.18c.13.7.48,1.12,1.17,1.12,4,0,8,.33,12-.19a4.85,4.85,0,0,0,4.38-5c.05-2.6,0-5.2,0-7.79a2.94,2.94,0,0,1,.29-1.75,5.64,5.64,0,0,1,2.66-.4c.53-.05.77.34.84.82a62.58,62.58,0,0,1-.33,7.62,27.71,27.71,0,0,0,.05,5.83c.08.58.29,1.07.9,1.08,2.42.06,4.85.39,7.24-.24a1.29,1.29,0,0,1,.82-.11,5.29,5.29,0,0,0,2.32.46c2,0,4.06,0,6.1,0a2.91,2.91,0,0,0,2.47-.9.46.46,0,0,1,.41.06,2.72,2.72,0,0,0,2.28.82c3.75,0,7.5-.12,11.25,0C186.57,185.18,187.19,185.05,187.69,185.52Z" transform="translate(-6.87 -31.04)"/><path class="cls-1" d="M117.89,62.86c0,.52,0,1,0,1.56q0,27.17,0,54.34c0,6-3.93,9.9-9.9,9.91-5.64,0-11.28,0-16.92,0-.88,0-1.26-.14-1.24-1.16.07-3.14-.32-6.28-.24-9.44,0-1,.32-1.29,1.29-1.23,1.23.08,2.48.05,3.72,0A2.76,2.76,0,0,0,97.42,114q0-23.74,0-47.49c0-7,0-14.08,0-21.11,0-1-.52-.94-1.19-.94-13.23,0-26.47,0-39.7,0C55.37,44.48,55,44.24,55,43c0-3.1-.27-6.21-.22-9.32,0-.85.25-1.05,1.08-1.05q32,0,64.05,0c.88,0,1.14.2,1.13,1.11,0,3.23.32,6.44.24,9.67,0,.84-.23,1.08-1.07,1.07-2.38,0-2.39,0-2.38,2.44Q117.87,54.89,117.89,62.86Z" transform="translate(-6.87 -31.04)"/><path class="cls-1" d="M93.42,53.05q0,25.68,0,51.35a9.36,9.36,0,0,1-4.6,8.53,8.73,8.73,0,0,1-4.67,1.32c-8.75,0-17.51,0-26.27,0-.77,0-1.12-.12-1.13-1-.38-21.51-.08-43-.17-64.52l16.53,0c6.31,0,12.61,0,18.92,0,1,0,1.2.27,1.18,1.2A7.6,7.6,0,0,0,93.42,53.05Z" transform="translate(-6.87 -31.04)"/><path class="cls-1" d="M160.56,185a1,1,0,0,1-.85.37q-3.42,0-6.84,0a1,1,0,0,1-1.1-1,35,35,0,0,1,0-5.7c.17-2.72.33-5.43.5-8.14a18.31,18.31,0,0,1,0-5,1.32,1.32,0,0,0-.33-1,3.36,3.36,0,0,1-.45-2.84c0-.91,0-1.83.05-2.74,0-.53-.07-1.15.65-1.37,2.67-.25,5.35,0,8-.11h-6.42c-.31,0-.66.06-.79-.35a9.56,9.56,0,0,1-.5-3.17c-.31-4.3-.45-8.61-.77-12.91-.1-1.31-.19-2.61-.21-3.93,0-1,.37-1.44,1.42-1.44q13.38,0,26.74,0c.94,0,1.29.29,1.39,1.3a32.33,32.33,0,0,1,.18,4.28c0,1.12-.47,2.21-.19,3.34.1.41-.37,1.12.34,1.18s1.72.46,2.23-.58,1.12-2.29,1.68-3.44c.84-1.76,1.71-3.51,2.51-5.3a1.71,1.71,0,0,1,1.75-1.14c3,0,5.92,0,8.88,0,1.27,0,1.46.26,1.22,1.5,0,.11-.14.28-.1.32,1.19,1.32-.08,2.3-.54,3.31-1.63,3.54-3.37,7-5.13,10.68,1.5,0,2.95,0,4.41,0s1.61.17,1.31,1.57c-.13.62.46.67.56,1.07.3.34.07.66,0,1-.73,1.43-1.46,2.87-2.15,4.32-.93,2.18-2,4.28-3.09,6.41a7.52,7.52,0,0,1-1.16,1.77c.6.25,1.22,0,1.83.08h1.36c.62,0,1.29-.16,1.85.3.85.17,1.32.57.92,1.5-.06.14-.18.38-.13.43,1.15,1.1.08,2-.32,2.86-1.41,3-3,6-4.32,9.07a5.9,5.9,0,0,1-6.13,3.85,9.63,9.63,0,0,0-1.07.08c-4.6-.19-9.21-.05-13.81-.07-.79,0-1.57,0-1.6-1.12a3.89,3.89,0,0,1-.08-1.13,3.89,3.89,0,0,1-.08,1.13,1.25,1.25,0,0,1-1.42,1.13c-2.79,0-5.58,0-8.37,0-.52,0-1.05-.05-1.31-.63a2.72,2.72,0,0,1-.06-1.33C160.88,184,161,184.61,160.56,185Z" transform="translate(-6.87 -31.04)"/><path class="cls-1" d="M49.63,109.42c-.3,2.69-.61,5.38-.9,8.07-.35,3.29-.72,6.58-1,9.87-.1,1.12-.43,1.67-1.66,1.48a10.2,10.2,0,0,0-1.91,0h0a2.26,2.26,0,0,0-1.28-.13H29.64a2.54,2.54,0,0,1-1.28-.11c.11-1,.24-2.06.33-3.09,0-.42.34-.94-.4-1.15-.33-.1-.13-.49-.1-.75l4.23-40c.31-2.93.3-2.94,3.27-2.94,5,0,10.07,0,15.11,0,.94,0,1.21.27,1,1.15a10.18,10.18,0,0,1-.24,1.78c-.4,1,.64,1.57.5,2.49-.26,1.78-.41,3.57-.6,5.36Q50.55,100.43,49.63,109.42Z" transform="translate(-6.87 -31.04)"/><path class="cls-1" d="M37.74,31.06c2.88,0,5.75,0,8.63,0a1,1,0,0,1,1.13.89q2,9.3,4,18.6C51.74,51.4,51,52,51.3,53c.78,2.81.66,2.84-2.3,2.84-1.64,0-1.63,0-1.29,1.53q2,8.76,3.95,17.52c.1.44.5.9-.27,1.27-.3.15.07.79.12,1.21.11,1,1,2.16.38,2.81-.43.49-1.8.17-2.76.17-5,0-10.08,0-15.11,0-.78,0-1.08-.2-1.26-1C31.4,73.24,30,67.1,28.58,61c-.09-.38-.41-.85.32-1.14.33-.13,0-.65-.08-1-.12-1-1-2.34-.42-3,.45-.52,2-.24,3-.16,1.24.1,1.33-.3,1.08-1.41-1.34-5.83-2.59-11.69-3.84-17.54-.11-.5-.39-1,.26-1.55.27-.24-.19-1.33-.34-2-.42-2.05-.42-2.05,1.64-2.05Z" transform="translate(-6.87 -31.04)"/><path class="cls-3" d="M42.71,158.66a8.33,8.33,0,0,0,3,.36c2.25.23,4.52.38,6.78.56a1.09,1.09,0,0,1,.4,1c.05,2.16.07,4.32,0,6.48a1.38,1.38,0,0,1-.2.68c-.63.6-1.4.43-2.13.36a13.71,13.71,0,0,1-4-.78q-7.16-.65-14.26-1.69a89.3,89.3,0,0,1-15.77-3.38c-2.45-.83-5-1.48-6.82-3.52a11.07,11.07,0,0,1-2.77-8.94,10.34,10.34,0,0,1,3.41-7,15.89,15.89,0,0,1,5.8-2.74c6.67-2.19,13.58-3.19,20.5-4.08,2.18-.28,4.36-.52,6.54-.78.57.1.48.54.48.93,0,2.1,0,4.21,0,6.31,0,.75-.26,1-1,1a6.83,6.83,0,0,0-2.89.45,12.42,12.42,0,0,1-3.95.81,113.83,113.83,0,0,0-17.07,3.2,15.47,15.47,0,0,0-4.53,1.86c-1.45,1-1.45,1.85,0,2.85a15.93,15.93,0,0,0,4.64,1.9,120.55,120.55,0,0,0,17.68,3.23c1.55.19,3.09.41,4.64.59A2.09,2.09,0,0,1,42.71,158.66Z" transform="translate(-6.87 -31.04)"/><path class="cls-3" d="M193.23,167.53c1.8-2.23,2.69-5,4-7.45l.5-.94a3.22,3.22,0,0,1,1.85-.34,18,18,0,0,0,4.14-.39c6.13-.83,12.29-1.5,18.36-2.73a47.36,47.36,0,0,0,8.53-2.39,6.58,6.58,0,0,0,2.06-1.21,1.22,1.22,0,0,0,0-2.11,7,7,0,0,0-2.17-1.25,61.35,61.35,0,0,0-11.72-2.95c-3.66-.63-7.35-1-11-1.64-.39-.07-.81,0-1.1-.38a10,10,0,0,0-3.39-.49c-1.83-.14-1.8-.17-1.91-2s-.28-3.48-.46-5.22c-.08-.69-.23-1.28.84-1a4.78,4.78,0,0,0,1.31,0c8.7,1,17.39,1.93,25.82,4.4a32.7,32.7,0,0,1,4.83,1.74,9.64,9.64,0,0,1,5.63,7.11,12.38,12.38,0,0,1-.73,7.59,9.82,9.82,0,0,1-6.08,5.4,81.86,81.86,0,0,1-17,4l-8.42,1.19c-2.44.41-4.91.63-7.38.84-1-.08-1.93.29-2.92.24h-1.48A8.77,8.77,0,0,1,193.23,167.53Z" transform="translate(-6.87 -31.04)"/><path class="cls-1" d="M52.51,167.79v-8.21q0-10.31,0-20.61c0-1.72,0-1.72,1.73-1.72,6.11,0,12.23,0,18.34,0,1.17,0,1.74.29,1.62,1.54a4,4,0,0,0,.2,1.17c.12.65-.31,1.54.24,1.9s1.23,0,1.87,0c3,0,5.91,0,8.87,0,1,0,1.28-.3,1.23-1.28-.09-1.47,0-3,0-4.43A1,1,0,0,1,87.76,135q5.14,0,10.31,0a1,1,0,0,1,1.09,1,38.2,38.2,0,0,1,.23,4.41c0,.71-.26,1.56.94,1.63.31,0,.46.4.49.75a44.06,44.06,0,0,1,.26,4.88c0,.76-.23,1.28-1,1.3-.64,0-.67.37-.67.86q0,6,0,12a3,3,0,0,1,.32,1.38c0,1.92,0,3.83,0,5.75a2.08,2.08,0,0,1-.31,1.26q0,4.48-.05,9c0,3.72-2.06,5.94-5.77,6s-7.43,0-11.14,0c-1,0-1.36-.37-1.46-1.41-.14-1.47-.18-2.94-.21-4.41,0-.95.3-1.41,1.31-1.35s2.24,0,3.36,0c.78,0,1.18-.25,1.16-1.11,0-2.35,0-4.71,0-7.06a2.87,2.87,0,0,1-.33-1.38c0-2.32,0-4.64,0-6.95-.06-3.51,0-7,0-10.52,0-1.53-.1-1.61-1.64-1.62-2.55,0-5.1,0-7.65,0a3.91,3.91,0,0,1-2.2-.4.62.62,0,0,1-.24-.55c0-.37,0-.74,0-.83,0,.15,0,.58,0,1a5.14,5.14,0,0,1,.22,1.65c0,4.91.11,9.81,0,14.71-.08,4.34-.29,8.67-.28,13a5.69,5.69,0,0,1-5.9,5.37c-4.5.06-9,0-13.51,0l-1.54,0a.81.81,0,0,1-.75-.88c-.06-1.16-.17-2.32-.27-3.48a17.54,17.54,0,0,1-.33-5.11c0-1.55,0-3.11,0-4.66A2.12,2.12,0,0,1,52.51,167.79Z" transform="translate(-6.87 -31.04)"/><path class="cls-3" d="M30.19,192.69a8.51,8.51,0,0,1,8.63,8.45,8.6,8.6,0,0,1-17.2-.08A8.46,8.46,0,0,1,30.19,192.69Z" transform="translate(-6.87 -31.04)"/><path class="cls-4" d="M222,188a8.37,8.37,0,1,1,.12-16.73A8.37,8.37,0,1,1,222,188Z" transform="translate(-6.87 -31.04)"/><path class="cls-2" d="M52.51,167.79v11.26a68.65,68.65,0,0,1-4.7-10.33,2.11,2.11,0,0,0-1.25-1.44Z" transform="translate(-6.87 -31.04)"/><path class="cls-2" d="M28.36,128.64c4.8,0,9.61,0,14.41.08.47,0,1-.15,1.39.17h-15C28.9,128.9,28.54,129,28.36,128.64Z" transform="translate(-6.87 -31.04)"/><path class="cls-5" d="M199.68,167.29l7.44-.73a1.34,1.34,0,0,1-1.07.44c-2.15-.14-4.23.65-6.37.52-.08-.06-.11-.11-.08-.16S199.66,167.29,199.68,167.29Z" transform="translate(-6.87 -31.04)"/><path class="cls-6" d="M199.68,167.29v.23c-.32,0-.68-.1-.94.21l-1.94,0c-.08-.06-.1-.11-.08-.15s.06-.07.09-.07A12,12,0,0,1,199.68,167.29Z" transform="translate(-6.87 -31.04)"/><path class="cls-7" d="M197.51,101.73q-1.19-5.55-2.38-11.1-2.88-13.45-5.74-26.92c-.16-.73-.49-.85-1.14-.84-2.64,0-5.27,0-8,0,.57-2.64,1.12-5.17,1.66-7.71a.7.7,0,0,1,.81-.65H197c.51,0,.76.17.7.69a1.92,1.92,0,0,0,0,.24v46.29Z" transform="translate(-6.87 -31.04)"/><path class="cls-8" d="M180.25,112.89a16.13,16.13,0,0,1-.49,8c-1.63,4.31-5.69,6-9.76,3.95a11.8,11.8,0,0,1-4.42-3.91,17.18,17.18,0,0,1-2.85-7.26c0-.27-.14-.53-.21-.8,2,0,4-.06,6,0,.75,0,1.1-.15,1.26-1,.55-2.89,1.22-5.76,1.86-8.64a4,4,0,0,1,.22-.53c1-.43,1.64.34,2.39.69a4.13,4.13,0,0,1,1.66,1.5c.47,2.09,1.05,4.17,1.38,6.28.21,1.32.67,1.92,2,1.68A4.33,4.33,0,0,1,180.25,112.89Z" transform="translate(-6.87 -31.04)"/><path class="cls-7" d="M159.14,55.42Q157.55,62.86,156,70.3a1,1,0,0,1-.81-.07q-2.62-1.12-5.28-2.21a.88.88,0,0,1-.43-.4,3.22,3.22,0,0,1,0-.43c0-3.79,0-7.58,0-11.37,0-1,.32-1.26,1.28-1.24,2.55.07,5.11,0,7.66,0C158.87,54.6,159.45,54.56,159.14,55.42Z" transform="translate(-6.87 -31.04)"/><path class="cls-2" d="M149.51,67.69A52.9,52.9,0,0,1,156,70.3q-2.56,12.06-5.12,24.12c-.36,1.72-.73,3.43-1.1,5.15-.48,0-.32-.39-.32-.62q0-15.45,0-30.92A1,1,0,0,1,149.51,67.69Z" transform="translate(-6.87 -31.04)"/><path class="cls-7" d="M217,120.27a7.9,7.9,0,0,1-7.63,6.68c-6.35,0-12.7,0-19.06,0-.69,0-1.07-.11-.95-.9a3.09,3.09,0,0,0,0-1c-.13-.85.22-1.06,1-1.05,6,0,12.07,0,18.1,0a9.42,9.42,0,0,0,8.23-4.29C217.22,119.74,217,120,217,120.27Z" transform="translate(-6.87 -31.04)"/><path class="cls-9" d="M159,108.53c3,0,6,0,9,0,.86,0,1.09.25.78,1a2.36,2.36,0,0,0-.1.46c-.06,1.09-.51,1.48-1.71,1.47-5.76-.08-11.52,0-17.27,0-.54,0-.66-.09-.69-.61-.13-2.32-.15-2.32,2.2-2.32Z" transform="translate(-6.87 -31.04)"/><path class="cls-9" d="M188,108.53c2.88,0,5.76,0,8.64,0,.83,0,1.19.21,1.06,1.06a2.17,2.17,0,0,0,0,.72c.12.86-.15,1.17-1.09,1.16-5.64,0-11.27,0-16.91,0-.73,0-1.14-.17-1.18-1a2.39,2.39,0,0,0-.16-.69c-.32-1-.11-1.33,1-1.3C182.28,108.58,185.16,108.53,188,108.53Z" transform="translate(-6.87 -31.04)"/><path class="cls-7" d="M139,127c-2.64,0-5.28,0-7.91,0-.78,0-1-.21-1-1,0-1.91,0-1.91,1.86-1.91,4.92,0,9.83,0,14.75,0,1,0,1.3.23,1.24,1.24-.08,1.66,0,1.67-1.63,1.67Z" transform="translate(-6.87 -31.04)"/><path class="cls-9" d="M181.3,53.43c0-.16-.07-.2-.06-.24.46-3,.46-3,3.43-3,4,0,8,0,12,0,.91,0,1.16.24,1.12,1.13-.09,2.11.27,1.77-1.76,1.78-4.23,0-8.45,0-12.68,0A5,5,0,0,0,181.3,53.43Z" transform="translate(-6.87 -31.04)"/><path class="cls-10" d="M154.78,50.21c1.55,0,3.11,0,4.67,0,.57,0,.84,0,.7.78-.41,2.12-.37,2.13-2.48,2.13-2.67,0-5.34,0-8,0-.53,0-.57-.15-.6-.58-.19-2.36-.2-2.36,2.13-2.36Z" transform="translate(-6.87 -31.04)"/><path class="cls-11" d="M175.89,104.88c-1.31-.8-2.42-2-4-2.19.31-2.65,1.09-5.2,1.57-7.81l.36,0Q174.82,99.86,175.89,104.88Z" transform="translate(-6.87 -31.04)"/><path class="cls-12" d="M149.51,67.69q0,15.44,0,30.88c0,.34-.13.73.22,1l-.26,1.47-.16,0c0-.3-.05-.6-.05-.9V68.26a5.63,5.63,0,0,1,.05-.59c.08-.1.14-.09.2,0Z" transform="translate(-6.87 -31.04)"/><path class="cls-2" d="M149.51,67.69a.65.65,0,0,1-.2,0c0-4.11,0-8.21-.05-12.32,0-.68.23-.88.89-.88,2.83,0,5.66,0,8.49,0,.83,0,.87.34.5.94,0-.46-.16-.72-.7-.72-2.72,0-5.44,0-8.15,0-.9,0-.79.57-.79,1.13C149.5,59.78,149.51,63.74,149.51,67.69Z" transform="translate(-6.87 -31.04)"/><path class="cls-13" d="M196.82,115.76c-.13-.33-.25-.67-.38-1-.69-1.75-.69-1.75,1.25-1.72A2.68,2.68,0,0,1,196.82,115.76Z" transform="translate(-6.87 -31.04)"/><path class="cls-14" d="M173.41,90c.14.55.19,1,.34,1.38.39,1,.23,1.7-1.11,1.69A12.44,12.44,0,0,1,173.41,90Z" transform="translate(-6.87 -31.04)"/><path class="cls-15" d="M217,120.27l-.26-.47c0-.21.24-.47.34-.36A.6.6,0,0,1,217,120.27Z" transform="translate(-6.87 -31.04)"/><path class="cls-1" d="M124.16,178a5.65,5.65,0,0,1-5.7,5.36c-4.95.08-9.91,0-14.87,0-.8,0-1-.33-1.14-1.14-.47-4,0-8.06-.26-12.08a1.73,1.73,0,0,1-.32-1c0-2.07,0-4.13,0-6.2a1.75,1.75,0,0,1,.32-1q0-11.39,0-22.79c0-1.93,0-1.93,1.88-1.93,6.08,0,12.16,0,18.23,0,1.1,0,1.62.25,1.59,1.46,0,.86.28,1.73.21,2.61,0,.43,0,.6.58.59,3.52,0,7-.07,10.56,0,.87,0,1.07-.28,1-1.1-.06-1.51,0-3,0-4.55,0-.9.41-1.26,1.21-1.26q5,0,10.08,0c.88,0,1.18.42,1.28,1.33a44.78,44.78,0,0,1,.21,4.77c0,.23,0,.65.11.67,2.23.41,1,2.33,1.52,3.49a6.83,6.83,0,0,1,.05,2c.05.92,0,1.71-1.23,1.73-.56,0-.45.45-.45.79l0,12a1.14,1.14,0,0,1,.27.66q.13,3.52,0,7.07a1.26,1.26,0,0,1-.26.66c0,3,0,6-.05,9,0,3.68-2,5.9-5.67,6s-7.52,0-11.28,0c-.9,0-1.32-.34-1.42-1.33-.14-1.48-.18-2.95-.21-4.42,0-1,.29-1.49,1.37-1.42s2.16,0,3.24,0c.84,0,1.25-.26,1.23-1.17,0-2.16,0-4.32,0-6.48a2.26,2.26,0,0,1-.33-1.48c0-2.29,0-4.59,0-6.89-.05-3.66,0-7.33,0-11,0-1.52-.1-1.61-1.63-1.62-2.56,0-5.11,0-7.66,0a4,4,0,0,1-2.2-.41.62.62,0,0,1-.24-.55c0-.37,0-.74,0-.86,0,.14,0,.53,0,.92,0,.16,0,0,0,.12a5.14,5.14,0,0,1,.22,1.65c0,4.86,0,9.73,0,14.59C124.53,169.26,124,173.63,124.16,178Z" transform="translate(-6.87 -31.04)"/><path class="cls-7" d="M206.65,143.75c5,.53,10,1.25,15,2.21a48.39,48.39,0,0,1,9.21,2.55,7.94,7.94,0,0,1,2,1.13q1.83,1.41,0,2.81a15.24,15.24,0,0,1-5.37,2.29,118.69,118.69,0,0,1-17.76,3.2l-5.94.72c-1.25.08-2.49.34-3.75.36-.93,0-1.09-.37-.93-1.16.21-1,.52-2.06.82-3.08l.23-.91a40.59,40.59,0,0,0,.73-6,31,31,0,0,0,.24-4.63A46.82,46.82,0,0,0,206.65,143.75Z" transform="translate(-6.87 -31.04)"/><path class="cls-7" d="M42.71,158.66c-4.53-.45-9-1-13.53-1.77A71.94,71.94,0,0,1,16.72,154a12.22,12.22,0,0,1-2.8-1.34c-1.58-1.08-1.59-2.21,0-3.26A19.78,19.78,0,0,1,20,147.05a144.4,144.4,0,0,1,19.81-3.3,5.34,5.34,0,0,0,1.78-.12c1.22-.27,1.48-.06,1.56,1.2s.08,2.7.21,4.06a67.05,67.05,0,0,0,1.26,8.47c.23,1,0,1.5-1.1,1.27A3.3,3.3,0,0,0,42.71,158.66Z" transform="translate(-6.87 -31.04)"/><path class="cls-16" d="M149.11,170.16q0-4.2,0-8.39h2.34a17,17,0,0,1,.79,8.79c-.08-.37-.19-.71-.68-.56A15.38,15.38,0,0,1,149.11,170.16Z" transform="translate(-6.87 -31.04)"/><path class="cls-17" d="M102.19,162v8.22H99.43c0-2.8,0-5.6,0-8.39A7.61,7.61,0,0,0,102.19,162Z" transform="translate(-6.87 -31.04)"/><path class="cls-18" d="M153,157.2a3.37,3.37,0,0,0,2,.23,52.45,52.45,0,0,1,5.6.24h-8.4C152.34,157.38,152.81,157.57,153,157.2Z" transform="translate(-6.87 -31.04)"/><path class="cls-1" d="M135.6,170.39a1.94,1.94,0,0,0,0,.24c0,3,.56,2.91-3,2.89-1.75,0-3.5,0-5.25,0-.95,0-1.38-.35-1.39-1.33a12.1,12.1,0,0,0-.27-1.76,3.89,3.89,0,0,1-.51-2.18c0-2-.42-4-.25-6a3.23,3.23,0,0,0-.16-.81c-.14-3-.43-6-.44-9.09,0-1.3.39-1.74,1.7-1.78q3.3-.09,6.6,0a1.75,1.75,0,0,1,2,1.68,26.75,26.75,0,0,1,.42,3.81c.09,2,.19,4.06.38,6.09,0,2.47.35,4.93.37,7.41A1.15,1.15,0,0,1,135.6,170.39Z" transform="translate(-6.87 -31.04)"/><path class="cls-1" d="M85.85,170.1c.16,3.85.49,3.39-3.27,3.41-1.56,0-3.12,0-4.67,0-1.09,0-1.64-.28-1.65-1.47a19.5,19.5,0,0,0-.41-2.83,2,2,0,0,1-.38-1.34c-.12-2.28-.22-4.57-.44-6.85,0-2.83-.38-5.65-.39-8.48,0-1.52.39-1.93,1.91-2,2,0,4,0,6,0,1.73,0,2.27.49,2.49,2.24a77.71,77.71,0,0,1,.55,8.36c.31,1.81.14,3.66.41,5.48A11,11,0,0,1,85.85,170.1Z" transform="translate(-6.87 -31.04)"/><path class="cls-19" d="M125.11,161.55c.13,1.65.28,3.31.39,5,.08,1.3.13,2.61.19,3.91-1-.19-1.47.12-1.44,1.3a41.15,41.15,0,0,1-.09,6.28c0-2.83,0-5.66,0-8.49q0-10.58,0-21.16c.07-.17.13-.17.2,0v.35a2.26,2.26,0,0,1,.35,1.94c-.47,2.61,0,5.21,0,7.82,0,.75,0,1.51,0,2.26C124.69,161.06,124.56,161.49,125.11,161.55Z" transform="translate(-6.87 -31.04)"/><path class="cls-20" d="M75.35,161a67.94,67.94,0,0,1,.5,8.19c-1-.18-1.27.26-1.27,1.25a67.57,67.57,0,0,1-.1,7.53c0-.48-.06-.95-.06-1.43V148.36c.07-.17.13-.17.2,0v.35a2.27,2.27,0,0,1,.36,1.94c-.49,2.59-.06,5.16,0,7.74C75,159.27,74.67,160.24,75.35,161Z" transform="translate(-6.87 -31.04)"/><path class="cls-21" d="M85.85,170.1c-.13-1.7-.27-3.4-.38-5.1-.09-1.22-.13-2.46-.19-3.69a1.28,1.28,0,0,1,1.3.19q0,4.2,0,8.39C86.27,169.71,86,169.68,85.85,170.1Z" transform="translate(-6.87 -31.04)"/><path class="cls-22" d="M135.6,170.39a65.8,65.8,0,0,1-.5-8.18,1.08,1.08,0,0,1,1.17-.19v8.39Z" transform="translate(-6.87 -31.04)"/><path class="cls-23" d="M160.56,185a8.1,8.1,0,0,0,.32-1.7,2.86,2.86,0,0,1,.14,1.47Z" transform="translate(-6.87 -31.04)"/><path class="cls-24" d="M172.12,184.33a1.59,1.59,0,0,1,.08-1,1.59,1.59,0,0,1,.08,1h-.16Z" transform="translate(-6.87 -31.04)"/><path class="cls-9" d="M77,40.13c6.4,0,12.8,0,19.2,0,1.42,0,1.16.73,1.19,1.55s0,1.43-1.2,1.42q-19.31-.08-38.62,0c-1.31,0-1.15-.67-1.15-1.48s-.16-1.5,1.15-1.49C64.09,40.17,70.57,40.13,77,40.13Z" transform="translate(-6.87 -31.04)"/><path class="cls-7" d="M116.2,121a7.61,7.61,0,0,1-6.9,6.15c-5.76.1-11.51,0-17.27.06-.63,0-.79-.21-.81-.83,0-2.07-.07-2.07,2-2.07,4.72,0,9.44-.08,14.15,0a10,10,0,0,0,8.57-3.9C116.38,120.46,116.26,120.76,116.2,121Z" transform="translate(-6.87 -31.04)"/><path class="cls-25" d="M117.61,41.69c0-.85-.26-1.59,1.08-1.63s1.11.75,1.23,1.57c.2,1.35-.47,1.41-1.55,1.44C116.89,43.1,118,42,117.61,41.69Z" transform="translate(-6.87 -31.04)"/><path class="cls-26" d="M116.2,121c-.06-.21-.06-.45-.3-.57l.41-.76A1.55,1.55,0,0,1,116.2,121Z" transform="translate(-6.87 -31.04)"/><path class="cls-2" d="M78,76.3c0,.36.07.72.07,1.07q0,11,0,22c0,2.44-.6,3-3,3-3,0-3,0-3-3l0-19a29.7,29.7,0,0,1,5.21-4.05A.59.59,0,0,1,78,76.3Z" transform="translate(-6.87 -31.04)"/><path class="cls-7" d="M78,76.3a32.6,32.6,0,0,0-5.16,3.63c-.26.18-.45.47-.81.47q0-9.57,0-19.15c0-.53.09-.79.71-.78,1.55,0,3.11,0,4.67,0,.46,0,.75.07.74.64C78,66.18,78.23,71.24,78,76.3Z" transform="translate(-6.87 -31.04)"/><path class="cls-7" d="M92,106.1a7.94,7.94,0,0,1-7.72,6.71c-8.35,0-16.7,0-25,0-.88,0-1.06-.29-1-1.09,0-1.82,0-1.82,1.86-1.82h1.31q11.08,0,22.17,0a9.33,9.33,0,0,0,8.21-4.3C92.16,105.58,92,105.86,92,106.1Z" transform="translate(-6.87 -31.04)"/><path class="cls-7" d="M74.91,59.05a15.26,15.26,0,0,0-2,0c-1,.14-1.17-.3-1.14-1.18.06-1.71,0-1.71,1.69-1.71,1.27,0,2.55,0,3.83,0,.57,0,.84.1.86.77.08,2.12.11,2.12-2,2.12Z" transform="translate(-6.87 -31.04)"/><path class="cls-27" d="M92,106.1c-.09-.16,0-.4-.26-.47,0-.21.23-.45.34-.34S92.18,105.84,92,106.1Z" transform="translate(-6.87 -31.04)"/><path class="cls-7" d="M170.4,172c0,3,0,6.08,0,9.12,0,.73-.19,1-.94,1-2-.05-4.08-.06-6.12,0-.93,0-1.2-.22-1.2-1.18.05-5.88,0-11.76,0-17.64,0-1.8-.16-2-2-2-2.12,0-4.24-.06-6.35,0-1.21,0-.84-.74-.9-1.34s0-1.11.91-1.08c2.28.08,4.56,0,6.84,0,1.07,0,1.6-.37,1.5-1.45-.08-.75.29-.83.91-.82,2.16,0,4.32,0,6.48,0,.7,0,.9.22.84.88-.11,1,.42,1.41,1.43,1.39,2.2,0,4.4,0,6.6,0,1.06,0,1.12.42,1.13,1.26s-.09,1.2-1.08,1.17c-2.19-.09-4.4,0-6.6,0-1.09,0-1.51.42-1.5,1.49C170.42,165.87,170.4,169,170.4,172Z" transform="translate(-6.87 -31.04)"/><path class="cls-7" d="M198.06,136.85l-3.59,7.45c-.5,1-1,2.08-1.52,3.11a3.86,3.86,0,0,1-3.64,2.29c-2.2,0-4.4,0-6.6,0-.75,0-1-.33-.8-.92s-.58-1.49.72-1.45a2.46,2.46,0,0,0,2.38-1.68c1.27-2.7,2.57-5.39,3.87-8.09.16-.33.21-.74.78-.74C192.4,136.87,195.14,136.85,198.06,136.85Z" transform="translate(-6.87 -31.04)"/><path class="cls-7" d="M198.07,169.23c-1.8,3.73-3.47,7.3-5.24,10.82a3.68,3.68,0,0,1-3.44,2c-2.24,0-4.48,0-6.72,0-.8,0-.89-.42-.76-1s-.54-1.4.67-1.38A2.52,2.52,0,0,0,185,178c1.24-2.67,2.56-5.31,3.81-8,.24-.51.47-.81,1.12-.8C192.6,169.25,195.24,169.23,198.07,169.23Z" transform="translate(-6.87 -31.04)"/><path class="cls-7" d="M198.09,152.67c-1.85,3.77-3.57,7.4-5.4,11a3.17,3.17,0,0,1-2.83,1.75c-2.44,0-4.87,0-7.31.05-.8,0-.73-.52-.63-.95s-.52-1.33.59-1.34a2.71,2.71,0,0,0,2.59-1.91c1.21-2.65,2.53-5.24,3.78-7.87a1,1,0,0,1,1.05-.72C192.57,152.69,195.2,152.67,198.09,152.67Z" transform="translate(-6.87 -31.04)"/><path class="cls-7" d="M179.09,173.53c.13,2.51.25,5,.42,7.53.05.76-.11,1.07-.95,1-1.35-.07-2.71-.05-4.07,0-.74,0-1-.16-1.07-1-.17-3.91-.41-7.81-.62-11.71-.07-1.32-.11-2.63-.23-3.94-.06-.7.17-.9.85-.87,1.39.05,2.79.06,4.19,0,.82,0,1.11.22,1.13,1C178.82,168.27,179,170.9,179.09,173.53Z" transform="translate(-6.87 -31.04)"/><path class="cls-7" d="M156,182.07c-3,0-3,0-2.85-2.95.28-4.54.59-9.07.84-13.61,0-.74.27-.94,1-.91,1.43.05,2.87,0,4.31,0,.63,0,.82.17.78.81q-.5,8-.94,16c0,.54-.24.68-.73.66C157.61,182.05,156.81,182.07,156,182.07Z" transform="translate(-6.87 -31.04)"/><path class="cls-7" d="M160,148.52c.09,1.63.16,3.27.29,4.9.05.6-.16.76-.73.76-1.63,0-3.27,0-4.91,0-.58,0-.74-.23-.76-.77-.15-3.27-.31-6.54-.51-9.81-.05-.75.09-1.07.94-1,1.51.07,3,0,4.55,0,.62,0,.83.19.85.81C159.74,145.09,159.86,146.81,160,148.52Z" transform="translate(-6.87 -31.04)"/><path class="cls-7" d="M163,148.32c-.08-1.59-.14-3.19-.26-4.78-.06-.7.09-1,.88-1,1.52.06,3,0,4.55,0,.59,0,.84.12.87.77.18,3.31.4,6.62.64,9.92.05.66-.09.93-.81.91-1.6-.05-3.2,0-4.8,0-.63,0-.81-.22-.83-.83,0-1.68-.16-3.35-.25-5Z" transform="translate(-6.87 -31.04)"/><path class="cls-7" d="M179.07,148.38c-.09,1.68-.2,3.35-.26,5,0,.55-.17.78-.76.77-1.68,0-3.35,0-5,0-.55,0-.68-.2-.64-.71.23-3.39.45-6.78.64-10.17,0-.61.27-.72.8-.71,1.6,0,3.2,0,4.79,0,.61,0,.75.22.71.77C179.22,145,179.15,146.71,179.07,148.38Z" transform="translate(-6.87 -31.04)"/><path class="cls-7" d="M166.2,139.48c-4.08,0-8.16,0-12.24,0-.87,0-1.09-.27-1.05-1.09s0-1.25,1-1.24q12.3.06,24.6,0c1.06,0,1,.49,1,1.23s-.09,1.12-1,1.11C174.44,139.45,170.32,139.48,166.2,139.48Z" transform="translate(-6.87 -31.04)"/><path class="cls-2" d="M184.14,168.78c1,0,1.92,0,2.87,0,.62,0,.79.17.49.77q-2,4-3.89,8.06c-.5,1.08-1.43.69-2.19.67s-.48-.78-.51-1.2c-.18-2.47-.28-4.93-.43-7.4,0-.71.12-1,.91-.93a25.23,25.23,0,0,0,2.75,0Z" transform="translate(-6.87 -31.04)"/><path class="cls-2" d="M181.25,160.35a4.8,4.8,0,0,1-.27-1.76c0-.48-.11-.87-.67-1-.25-.07-.18-.26-.14-.43.52-1.15.23-2.37.35-3.56.19-.3-.05-.69.2-1a3.26,3.26,0,0,0,2.07.42h4.64c-1.23,2.52-2.24,5-3.56,7.27C183,160.69,182.12,161.3,181.25,160.35Z" transform="translate(-6.87 -31.04)"/><path class="cls-28" d="M199.91,154.78a10.74,10.74,0,0,1-.53,3.37c-.14.64.06.73.62.75,1.27,0,2.49-.47,3.77-.24a19.42,19.42,0,0,1-6,.48A30.53,30.53,0,0,1,199.91,154.78Z" transform="translate(-6.87 -31.04)"/><path class="cls-29" d="M170.92,149c-.14-1.83-.26-3.66-.44-5.48,0-.43-.07-.7.47-.72s.68.11.65.6c-.1,1.4-.19,2.79-.28,4.18C171,148,171.65,148.72,170.92,149Z" transform="translate(-6.87 -31.04)"/><path class="cls-30" d="M181.25,160.35c.87.51,1.74-.2,2.62,0a1.69,1.69,0,0,1-.78,1.26,1.88,1.88,0,0,1-1.62,0C181,161.4,181.26,160.8,181.25,160.35Z" transform="translate(-6.87 -31.04)"/><path class="cls-18" d="M180.17,157.2c.05.14.1.29.14.43h-8.19v-.19h6.56A2.37,2.37,0,0,0,180.17,157.2Z" transform="translate(-6.87 -31.04)"/><path class="cls-31" d="M180.28,164.79c0,1,.58,2,.35,3.25C180,166.85,180.4,165.78,180.28,164.79Z" transform="translate(-6.87 -31.04)"/><path class="cls-32" d="M161.56,151.81v-2.49A4.31,4.31,0,0,1,161.56,151.81Z" transform="translate(-6.87 -31.04)"/><path class="cls-33" d="M161.48,144.83v2.48A4.27,4.27,0,0,1,161.48,144.83Z" transform="translate(-6.87 -31.04)"/><path class="cls-34" d="M170.92,149c.42-.39,0-1,.4-1.42a7.23,7.23,0,0,1-.19,2.41c-.09.1-.16.1-.22,0Z" transform="translate(-6.87 -31.04)"/><path class="cls-35" d="M193.23,167.53h2.13c.08,0,.11.1.08.15s-.05.07-.08.07a7.89,7.89,0,0,1-2.17,0,.1.1,0,0,1,0-.08A.28.28,0,0,1,193.23,167.53Z" transform="translate(-6.87 -31.04)"/><path class="cls-36" d="M180.72,152.66a1.75,1.75,0,0,1-.2,1v-2C180.84,152,180.68,152.33,180.72,152.66Z" transform="translate(-6.87 -31.04)"/><path class="cls-37" d="M161.89,154.88a1.8,1.8,0,0,1,0-1.35A1.8,1.8,0,0,1,161.89,154.88Z" transform="translate(-6.87 -31.04)"/><path class="cls-38" d="M195.36,167.74v-.22h1.45v.22Z" transform="translate(-6.87 -31.04)"/><path class="cls-39" d="M170.91,150l.22,0v1.44A2.4,2.4,0,0,1,170.91,150Z" transform="translate(-6.87 -31.04)"/><path class="cls-9" d="M38.52,124.48c2.4,0,4.79,0,7.19,0,.7,0,.88.2.8.89-.25,2-.22,2-2.28,2-4.39,0-8.79,0-13.18,0-.93,0-1.15-.25-1.05-1.14.19-1.79.14-1.79,1.93-1.79Z" transform="translate(-6.87 -31.04)"/><path class="cls-9" d="M41.93,54.44c-2.27,0-4.55-.07-6.82,0-1,.05-1.31-.28-1.48-1.16-.34-1.78-.38-1.77,1.43-1.77,4.51,0,9,0,13.53,0,.37,0,.9-.24,1,.27a5.78,5.78,0,0,1,.45,2.44c0,.34-.55.17-.85.17C46.81,54.45,44.37,54.44,41.93,54.44Z" transform="translate(-6.87 -31.04)"/><path class="cls-7" d="M33.46,76.05h4.86c3.44,0,6.88,0,10.32,0,.86,0,1.39.16,1.39,1.12a1.43,1.43,0,0,0,.09.34c.33,1.45.33,1.45-1.14,1.45-4.48,0-9,0-13.43,0-1.13,0-1.7-.24-1.77-1.4A11,11,0,0,0,33.46,76.05Z" transform="translate(-6.87 -31.04)"/><path class="cls-7" d="M54,159.34c0-6.52,0-13,0-19.56,0-.89.21-1.13,1.11-1.12q8.34.06,16.68,0c.86,0,1,.26,1,1.08q0,18,0,36A4.1,4.1,0,0,1,68.7,180c-4.68.1-9.36,0-14,.06-.91,0-.66-.59-.66-1.05q0-8.88,0-17.76Z" transform="translate(-6.87 -31.04)"/><path class="cls-7" d="M97.71,162.48v14.76c0,3-1.5,4.55-4.45,4.58-3.36,0-6.72,0-10.08,0-1,0-1-.48-1-1.18s-.17-1.32.91-1.21a17.51,17.51,0,0,0,2.51,0,2.2,2.2,0,0,0,2.4-2.39q0-15.06,0-30.12c0-1-.43-1.41-1.45-1.4-3.32,0-6.64,0-10,0-1,0-1.06-.39-1.07-1.19s.09-1.19,1.08-1.17c3.23.07,6.47,0,9.71,0,1.57,0,1.68-.12,1.68-1.73,0-1.4,0-2.8,0-4.2,0-.71.14-1,.92-1,2.6.05,5.2,0,7.8,0,.71,0,1,.18,1,.93,0,1.56,0,3.12,0,4.68,0,.6.09,1.27.8,1.24.95,0,.91.48.88,1.11s.22,1.28-.85,1.3c-.87,0-.83.83-.83,1.47v15.36Z" transform="translate(-6.87 -31.04)"/><path class="cls-40" d="M86.58,161.5a2,2,0,0,1-1.3-.19c-.24-3-.29-6-.67-9-.13-1-.54-1.39-1.53-1.38-2.28,0-4.56,0-6.84,0-1,0-1.44.4-1.37,1.45.19,2.87.32,5.74.48,8.61-.82.08-.75-.49-.75-1q0-5.66,0-11.31a4.79,4.79,0,0,0,1.76.26h9.2c.59,0,1.07,0,1.06.84C86.59,153.7,86.6,157.6,86.58,161.5Z" transform="translate(-6.87 -31.04)"/><path class="cls-41" d="M74.62,148.36l-.1,0-.1,0a2.67,2.67,0,0,1,.1-1.28A2.67,2.67,0,0,1,74.62,148.36Z" transform="translate(-6.87 -31.04)"/><path class="cls-7" d="M103.67,159.34c0-6.52,0-13,0-19.56,0-.88.21-1.13,1.11-1.12q8.34.06,16.68,0c.85,0,1,.26,1,1.08q0,18,0,36a4.1,4.1,0,0,1-4.08,4.28c-4.68.1-9.36,0-14,.06-.9,0-.66-.59-.66-1.05q0-8.88,0-17.75Z" transform="translate(-6.87 -31.04)"/><path class="cls-7" d="M138.07,181.83c-1.76,0-3.52-.05-5.28,0-1.09.05-.87-.63-.88-1.24s-.16-1.24.86-1.14a19.11,19.11,0,0,0,2.51,0,2.22,2.22,0,0,0,2.46-2.46q0-15,0-30c0-1.09-.46-1.46-1.52-1.45-3.28,0-6.56,0-9.84,0-1.08,0-1.07-.46-1.12-1.26-.07-1,.29-1.11,1.15-1.09,3.23,0,6.47,0,9.71,0,1.44,0,1.61-.16,1.61-1.56s0-3,0-4.56c0-.56.16-.78.75-.77,2.72,0,5.44,0,8.16,0,.7,0,.76.33.76.88,0,1.56,0,3.12,0,4.68,0,.78.19,1.38,1.12,1.33.65,0,.64.41.55.78s.46,1.4-.43,1.49c-1.24.13-1.23.88-1.23,1.76q0,14.82,0,29.64a5.48,5.48,0,0,1-.15,2,3.76,3.76,0,0,1-3.4,2.78c-1.92.09-3.84,0-5.76,0Z" transform="translate(-6.87 -31.04)"/><path class="cls-40" d="M136.27,162a2.12,2.12,0,0,1-1.17.19,47.55,47.55,0,0,1-.43-5.72c-.09-1.44-.28-2.86-.42-4.29A1.14,1.14,0,0,0,133,151q-3.6,0-7.2,0c-.92,0-1.27.45-1.21,1.36.2,3.07.38,6.14.56,9.21-.09.27,0,.73-.52.61s-.3-.51-.3-.81q0-6.32,0-12.64a4.82,4.82,0,0,0,1.77.26c3,0,6.06,0,9.09,0,.85,0,1.18.16,1.17,1.11C136.26,154.05,136.28,158,136.27,162Z" transform="translate(-6.87 -31.04)"/><path class="cls-41" d="M124.3,148.36l-.1,0-.1,0v-1.49A2.72,2.72,0,0,1,124.3,148.36Z" transform="translate(-6.87 -31.04)"/><path class="cls-7" d="M129.66,152.43c.91.11,2.31-.48,3,.23s.25,2.06.33,3.13c.3,4.42.56,8.85.89,13.27.07.92-.18,1.16-1.08,1.11a31.14,31.14,0,0,0-4.32,0c-1.2.11-1.46-.37-1.5-1.44-.12-2.71-.33-5.42-.5-8.13-.16-2.39-.29-4.79-.49-7.18-.06-.75.09-1.09.94-1S128.63,152.43,129.66,152.43Z" transform="translate(-6.87 -31.04)"/><path class="cls-7" d="M83.75,162.12c.12,1.87.27,4.47.48,7,.07.8-.17,1-1,1a38.37,38.37,0,0,0-4.55,0c-1.11.1-1.32-.37-1.37-1.31-.24-4.19-.52-8.38-.79-12.56,0-.4,0-.8,0-1.2-.19-2.68-.19-2.68,2.56-2.68a23.06,23.06,0,0,0,2.63,0c1.17-.14,1.58.22,1.6,1.45C83.33,156.38,83.56,158.89,83.75,162.12Z" transform="translate(-6.87 -31.04)"/><path class="cls-42" d="M65.45,149.64c0,2.36,0,4.71,0,7.07,0,1-.36,1.52-1.48,1.47-2.55-.1-2.69.55-2.68-2.64,0-4.23,0-8.46,0-12.7,0-1.72.15-1.86,1.81-1.87,2.28,0,2.33,0,2.33,2.32Z" transform="translate(-6.87 -31.04)"/><path class="cls-42" d="M61.31,169c0-2.32,0-4.64,0-7,0-1.07.3-1.58,1.51-1.56,2.64.06,2.64,0,2.64,2.6,0,3.95,0,7.91,0,11.86,0,1.88-.87,2.7-2.7,2.75-1,0-1.46-.36-1.45-1.38C61.33,173.88,61.31,171.44,61.31,169Z" transform="translate(-6.87 -31.04)"/><path class="cls-42" d="M111,149.63c0-2.35,0-4.71,0-7.06,0-1.39.21-1.58,1.61-1.6h.24c2.23,0,2.29,0,2.29,2.24v13.18c0,1.66-.11,1.78-1.75,1.78-2.39,0-2.39,0-2.39-2.43Z" transform="translate(-6.87 -31.04)"/><path class="cls-42" d="M111,169.05c0-2.36,0-4.71,0-7.07,0-1,.34-1.5,1.46-1.48,2.69,0,2.69,0,2.69,2.66,0,3.92,0,7.83,0,11.75,0,1.91-.84,2.72-2.65,2.79-1.08,0-1.52-.38-1.5-1.46C111,173.84,111,171.45,111,169.05Z" transform="translate(-6.87 -31.04)"/><path class="cls-43" d="M63,150.6c0-1.84,0-3.68,0-5.52,0-.33-.13-.77.46-.77s.63.35.63.79V156c0,.39,0,.72-.56.72S63,156.37,63,156Z" transform="translate(-6.87 -31.04)"/><path class="cls-44" d="M63.06,176.14a5.83,5.83,0,0,1-.14-2.35c0-3,0-6,0-8.95,0-.42-.12-1,.58-.94s.55.56.55,1c0,1.35,0,2.7,0,4-.61.28-.54.83-.54,1.34,0,1.48,0,3,0,4.44C63.45,175.2,63.55,175.76,63.06,176.14Z" transform="translate(-6.87 -31.04)"/><path class="cls-45" d="M63.06,176.14l0-6.82c0-.27-.07-.59.24-.74s.48.18.68.34c0,2,0,4.07,0,6.1C64,175.64,64,176.29,63.06,176.14Z" transform="translate(-6.87 -31.04)"/><path class="cls-43" d="M113.72,150.6c0,1.76,0,3.52,0,5.28,0,.38.11.84-.53.85s-.55-.44-.55-.83c0-3.6,0-7.2,0-10.8,0-.32-.15-.77.44-.79s.65.32.65.77C113.71,146.92,113.72,148.76,113.72,150.6Z" transform="translate(-6.87 -31.04)"/><path class="cls-46" d="M112.74,176.14a3.41,3.41,0,0,1-.14-1.76c0-3.14,0-6.29,0-9.43,0-.43-.21-1.07.58-1s.53.67.53,1.08c0,1.87,0,3.74,0,5.61a1.41,1.41,0,0,0-.54,1.37c0,.95,0,1.91,0,2.86C113.12,175.29,113.19,175.8,112.74,176.14Z" transform="translate(-6.87 -31.04)"/><path class="cls-47" d="M112.74,176.14c0-1.66,0-3.31,0-5,0-.73.25-1,.92-.57,0,1.48,0,3,0,4.43C113.71,175.64,113.66,176.29,112.74,176.14Z" transform="translate(-6.87 -31.04)"/></svg>