<svg id="圖層_1" data-name="圖層 1" xmlns="http://www.w3.org/2000/svg" viewBox="0 0 226.28 226.39"><defs><style>.cls-1{fill:#199698;}.cls-2{fill:#fbab8b;}.cls-3{fill:#c1f0ec;}.cls-4{fill:#fefefe;}.cls-5{fill:#f6b6d0;}.cls-6{fill:#b7eae7;}</style></defs><title>28</title><path class="cls-1" d="M40.94,55.68c-2.37,0-4.65-.12-6.91,0-6.32.39-9.88-6-8.79-10.9.52-2.35,1.24-4.54,3.29-6a8.44,8.44,0,0,1,5.07-1.53c4,0,8-.08,12,0a9.7,9.7,0,0,0,2.83-.77c5.57-1.41,11.14-2.86,16.71-4.28a3.23,3.23,0,0,0,1.42-.79,10.45,10.45,0,0,1,9.84-2.68,4.79,4.79,0,0,0,2.35,0q38.57-9.93,77.12-19.83c1-.27,2-.92,3.23-.56a6.43,6.43,0,0,1,3,1.79c5.81,6,11.65,12,17.45,18a1.36,1.36,0,0,0,1.73.43c4.66-1.79,10.07.71,12.24,4.15a10.26,10.26,0,0,1,1.34,5.85c0,2,0,2,2.08,2h8.39a9.43,9.43,0,0,1,9.29,11.57c-.62,3-1.72,5.67-5.26,7.13A23,23,0,0,1,211.55,61Q222.8,72.5,234,84c1.93,2,3.82,4,5.76,6a4.64,4.64,0,0,1,1.32,4.89c-3,10.6-5.91,21.22-8.87,31.84q-10.64,38.24-21.28,76.49a4.27,4.27,0,0,1-3.35,3.3q-45.65,11.7-91.27,23.46c-5.72,1.48-11.45,2.94-17.16,4.45A4.53,4.53,0,0,1,94.4,233q-14.87-15.33-29.77-30.62Q55.69,193.18,46.75,184a1.33,1.33,0,0,0-1.73-.34,15.19,15.19,0,0,1-19.64-7.8,14.93,14.93,0,0,1,0-12.44,1.38,1.38,0,0,0-.36-1.84c-2.84-2.87-5.63-5.79-8.46-8.67a4.56,4.56,0,0,1-1.29-4.79q4.7-16.77,9.34-33.57,2.9-10.44,5.83-20.87a8.56,8.56,0,0,0,.32-2.36c0-3.5.41-6.84,2.87-9.64.67-.76.64-2,.95-2.93.16-.5-.28-.59-.59-.73-5.68-2.57-6.46-12.56-1.05-16.25a9,9,0,0,1,5-1.5c1.83-.05,1.84,0,2.34-1.8C40.45,57.56,40.68,56.67,40.94,55.68Z" transform="translate(-15.02 -8.19)"/><path class="cls-2" d="M108.82,139.69a53.9,53.9,0,0,1-3.17-8.46c-.5-1.73-.88-3.49-1.29-5.23-.33-1.45-.31-1.45,1.22-1.46,2.76,0,5.4-.41,7.66-2.21a10.74,10.74,0,0,0,4.34-8.56c.08-4.55,0-9.1,0-13.89a12.11,12.11,0,0,0,6.93,4.67,8.48,8.48,0,0,0,7.91-1.75v1.3c0,4.4.12,8.81,0,13.2-.21,6.45,5.7,10.54,11.5,9.42,2.65-.51,5-1.55,6.46-3.91a9.66,9.66,0,0,0,1.31-5.27q0-11.76.06-23.52c0-2.22,0-4.44,0-6.92a16.8,16.8,0,0,0,3.37,2.38c.74.34.14.65-.06.88A10.57,10.57,0,0,0,152.6,95a7,7,0,0,0,.74,5,10,10,0,0,0,6.75,5.32,11.6,11.6,0,0,0,5.3.55c2.81-.58,4.57-2.49,6.22-4.59,1.15-1.47,2.28-3,3.61-4.68,0,.68.06,1.09.06,1.5,0,6.36.08,12.72,0,19.08-.1,7.39,6.25,10.13,11.7,9.23a9.56,9.56,0,0,0,6.55-3.79,7.33,7.33,0,0,0,1.35-4.39c0-6.28.06-12.56.08-18.84,0-.87,0-1.75,0-2.86a8.23,8.23,0,0,1,1.67,2.14,19,19,0,0,0,3.58,4.17c3.56,2.84,7.68,2.69,11.51.38a9.74,9.74,0,0,0,5-7A6.76,6.76,0,0,0,215,90.12c-8.15-8.49-13.53-18.64-17.7-29.51a3.93,3.93,0,0,1-.14-.57c2,0,3.87,0,5.77,0,.75,0,1.21.58,1.73,1a63.61,63.61,0,0,1,22.77,36.12c4.25,18.7,1.11,36.19-9.47,52.25a63.19,63.19,0,0,1-13.09,14.27c-.59.48-1,.6-1.64.08a6.17,6.17,0,0,0-4.05-1.24q-25,0-49.92,0a7.43,7.43,0,0,0-6.65,3.39c-.37.58-.64.52-1.1.14a3.08,3.08,0,0,0-1.21-.74c-.81-.18-.82-.68-.81-1.32,0-4.92.06-9.84,0-14.76,0-2.8-.91-5.3-3.59-6.73a10.52,10.52,0,0,0-4.74-1.11c-1.76-.06-3.52,0-5.28,0-.81,0-1.2-.15-1.32-1.06-.58-4.44-4.12-6.23-7.57-6.55C113.35,133.46,110.24,135.77,108.82,139.69Z" transform="translate(-15.02 -8.19)"/><path class="cls-3" d="M96.48,229.09c-2.13-2-4.35-3.94-6.41-6.05C82.48,215.3,75,207.5,67.4,199.73q-8.69-9-17.4-17.88c-.62-.63-.62-.89,0-1.54a15.19,15.19,0,0,0-4.63-24.63c-5.86-2.54-11.44-1.61-16.31,2.6-1,.85-1.38.63-2.12-.16-2.44-2.59-4.92-5.15-7.44-7.65a1.75,1.75,0,0,1-.51-2q4.6-16.42,9.18-32.86c.76-2.72,1.52-5.44,2.53-8.13v6.22a10.57,10.57,0,0,0,10.92,10.88q28.56,0,57.11-.07c1.12,0,1.57.27,1.78,1.4a67.76,67.76,0,0,0,4.81,15.49c-1.66.34-3.33.41-4.63,1.53-.06.06-.15.08-.19.14-.92,1.45-2.19,1.28-3.62.93-.78-.19-1-.5-.91-1.19a11.27,11.27,0,0,0-.41-3.91,6.43,6.43,0,0,0-4.47-4.44,8.71,8.71,0,0,0-7.69.92c-2.12,1.37-2.89,3.54-3,6,0,.92.26,2-.09,2.73-.45.95-1.61.21-2.45.35-4.39.72-6.06,3.29-5.94,7.66a97.75,97.75,0,0,1-1.25,17.67c-.51,3.23.07,6.19,3,8.14a6.73,6.73,0,0,0,5.59,1c1-.27,1.13,0,1.13.92,0,6.59,0,13.19,0,19.79,0,5.72,4.65,8.54,9.65,7.58a7.34,7.34,0,0,0,4.59-2.57c.33-.41.54-.43.93-.07a8,8,0,0,0,6.46,2.26c.79-.09.37.48.29.78q-1.83,6.76-3.68,13.52Z" transform="translate(-15.02 -8.19)"/><path class="cls-4" d="M178.63,56.22h-9.3A5.74,5.74,0,0,1,163.5,49c.69-3.28,2.29-4.57,5.67-4.57,3,0,5.92,0,8.88,0,.82,0,1.11-.18,1.08-1.05-.06-2,0-4.08,0-6.12A5.42,5.42,0,0,1,186,31.89a7.2,7.2,0,0,1,4,2.45,4.19,4.19,0,0,1,1,2.76c0,2,0,4,0,6,0,1,.16,1.35,1.27,1.33,4.36-.08,8.72,0,13.08,0,3.17,0,5,1.57,5.54,4.74a8,8,0,0,1,0,2.63c-.51,2.83-2.06,4.29-5,4.36-4.4.12-8.8.07-13.2.08-.61,0-1.09-.08-.76.87,3.88,11.29,8.85,22,16.46,31.33,1.14,1.39,2.35,2.72,3.56,4.06a3.62,3.62,0,0,1,.51,4.69,8.14,8.14,0,0,1-5.8,3.87,5.35,5.35,0,0,1-5-2.07,52.79,52.79,0,0,1-4.84-6.84,74,74,0,0,1-5.52-10.57c0,.65-.07,1-.08,1.37l-.21,34.55c0,2.76-1.07,4.15-3.74,4.93a7.92,7.92,0,0,1-4.5,0,4.65,4.65,0,0,1-3.7-4.92V83.58c-.42.63-.66,1-.88,1.32A129.14,129.14,0,0,1,168,99.65c-1.46,1.78-3.07,2.94-5.57,2.34-2.66-.64-4.9-1.76-6-4.45a3.74,3.74,0,0,1,.88-3.89c1.11-1.37,2.31-2.66,3.41-4,7.16-8.9,12.24-19,16.41-29.52C177.61,58.88,178.08,57.65,178.63,56.22Z" transform="translate(-15.02 -8.19)"/><path class="cls-4" d="M74.1,82.87H107c3.38,0,5.81,1.74,6.62,4.65a6.87,6.87,0,0,1,.17,1.91v23.87a7,7,0,0,1-7.33,7.4l-50.75.05-14.16,0a6.67,6.67,0,0,1-7-6.92V90.34a12.05,12.05,0,0,1,.49-3.78,4.78,4.78,0,0,1,4.27-3.51,22.94,22.94,0,0,1,2.75-.17Z" transform="translate(-15.02 -8.19)"/><path class="cls-4" d="M73.92,74.88H37.57a3.89,3.89,0,0,1-4.13-2.95c-.68-2.23-.72-4.43.9-6.35A4.33,4.33,0,0,1,38,64.05c9.64,0,19.27,0,28.91,0,1,0,1.36-.19,1.33-1.29-.09-3.2-.07-6.4,0-9.6,0-1-.19-1.4-1.33-1.39-11,0-22.08,0-33.12,0A4.83,4.83,0,0,1,28.84,47a8.6,8.6,0,0,1,.52-3.18A3.92,3.92,0,0,1,33.48,41c11,0,22.08,0,33.12,0,1.17,0,1.58-.28,1.37-1.44a10.13,10.13,0,0,1,0-1.56c0-2.89,1.22-4.63,3.87-5.5s6-.1,7.4,1.93c1,1.43,1,3.09.85,4.73-.13,2-.15,1.57,1.51,1.58,10.84,0,21.68.09,32.52-.05,3.57,0,4.78,2.31,5.18,4.66.49,3-1.05,6.45-5.51,6.41-10.76-.11-21.52,0-32.28-.06-1,0-1.37.15-1.34,1.28.09,3.23.07,6.48,0,9.72,0,1,.3,1.16,1.2,1.16,9.68,0,19.36,0,29,0,2.58,0,3.88,1.11,4.34,3.67a11.58,11.58,0,0,1,0,3.94A3.6,3.6,0,0,1,111,74.86c-2,0-4,0-6,0Z" transform="translate(-15.02 -8.19)"/><path class="cls-4" d="M148.68,56.22c2.5,3.24,4.88,6.25,7.18,9.31a127.64,127.64,0,0,1,7.35,10.81,11.88,11.88,0,0,1,.79,1.6,6,6,0,0,1-4.89,8.43,4.66,4.66,0,0,1-4-1.49,10.78,10.78,0,0,1-2-2.82c-1.4-2.65-3.18-5.06-4.82-7.6-.37.33-.2.71-.2,1q-.1,20.94-.2,41.87c0,3-.78,4.33-3.07,5.24a6.57,6.57,0,0,1-7.22-1.34,4.93,4.93,0,0,1-1.33-3.6q0-14.34,0-28.67V87.64a4.31,4.31,0,0,0-.9,1.73,51.63,51.63,0,0,1-4.17,8.87c-1.57,2.65-3.43,3.38-6.26,2.54s-5.06-3.45-5-6a2.78,2.78,0,0,1,.38-1.49c6.11-9.71,9.81-20.4,12.87-31.36.42-1.5.75-3,1.23-4.5.31-.94.17-1.24-.89-1.21-2.59.06-5.2,0-7.79,0A2.81,2.81,0,0,1,123,54.67a8.36,8.36,0,0,1-.67-7.59,4,4,0,0,1,4-2.68c3,0,5.92,0,8.88,0,.86,0,1.08-.26,1.05-1.08-.06-1.8.17-3.62-.06-5.4-.42-3.34,2.82-6.56,7-5.72,3.08.62,4.59,2.45,4.6,5.62,0,1.88,0,3.76,0,5.64,0,.73.19,1,.93.94,2.64-.05,5.28,0,7.92,0,3,0,4.33,1,5.1,4a8.25,8.25,0,0,1-.44,5.62,3.41,3.41,0,0,1-3.45,2.26C154.89,56.17,151.9,56.22,148.68,56.22Z" transform="translate(-15.02 -8.19)"/><path class="cls-4" d="M117.91,182.07a42.62,42.62,0,0,1-6.43,11.66A66.62,66.62,0,0,1,104,202a3.72,3.72,0,0,1-4.09.92,4.88,4.88,0,0,1-3.34-4.05,3.3,3.3,0,0,1,1.29-2.59A75.62,75.62,0,0,0,106.27,186a31.2,31.2,0,0,0,4.15-8.61c-2.88,0-5.66-.11-8.44,0a3.74,3.74,0,0,1-3.83-3.48c-.37-3.37,1.09-5,4.65-5.1,2.68-.06,5.36-.08,8,0,1.2.05,1.44-.4,1.51-1.48.3-4.16.18-8.32.42-12.47,0-.82-.15-1.12-1-1.1-2.08.07-4.16,0-6.24,0-3.14,0-4.72-1.89-4.17-5a3.88,3.88,0,0,1,4-3.48c2.08,0,4.16,0,6.24.11.73,0,1-.17.94-.93-.07-1,0-2,0-3a4.2,4.2,0,0,1,8.38.26,14,14,0,0,1-.07,2.51c-.14.87.21,1,1,1,3,0,6.08,0,9.12,0a8.11,8.11,0,0,1,1.9.18,3.13,3.13,0,0,1,2.78,3.24c.09,2.36.05,4.72.06,7.08,0,3.88,0,7.76,0,11.64,0,.85.15,1.28,1.1,1.16a3.13,3.13,0,0,1,3.6,2.14c.74,1.88.85,3.77-.49,5.45a3.59,3.59,0,0,1-3,1.1H124.18a1.93,1.93,0,0,0,.08.43,66.08,66.08,0,0,0,14.63,18.09,3.92,3.92,0,0,1,1,5.31,4.18,4.18,0,0,1-5.31,2,9.41,9.41,0,0,1-3.52-2.62,81.16,81.16,0,0,1-12.12-16.63Z" transform="translate(-15.02 -8.19)"/><path class="cls-3" d="M100.34,230.2l3.72-13.71c1.06-3.89,2.14-7.78,3.18-11.68a3.29,3.29,0,0,1,.92-1.62,59.22,59.22,0,0,0,9.64-12.05c.51-.84.72-.53,1.1.05a82.17,82.17,0,0,0,9.38,12,11.64,11.64,0,0,0,5.87,3.74,7.75,7.75,0,0,0,7.07-1.6,1.2,1.2,0,0,1,1.46-.28,9,9,0,0,0,3.39.59q23.76,0,47.52,0h1.3l.05.26Z" transform="translate(-15.02 -8.19)"/><path class="cls-3" d="M221.32,151.74c-3.87,13.92-7.73,27.76-11.64,41.82-2-3.49-5.14-4-8.54-4q-27.82,0-55.65,0a7.8,7.8,0,0,0-4.82,1.53c-.35.27-.64.56-1.12.11A62.79,62.79,0,0,1,130.82,181c1.91,0,3.61,0,5.31,0,2.93,0,5.57-.6,7.28-3.27.37-.58.79-.34,1.25-.19A75.41,75.41,0,0,0,157,180.51a61.53,61.53,0,0,0,24.94-1.36,18.83,18.83,0,0,1,4.84-.61c4.32.05,8.63.07,13,0,2.74,0,5-1,6.17-3.73a8.89,8.89,0,0,0,.57-5.86,1.93,1.93,0,0,1,.85-2.38,65.27,65.27,0,0,0,13.23-14.13C220.7,152.2,220.78,151.84,221.32,151.74Z" transform="translate(-15.02 -8.19)"/><path class="cls-3" d="M155.33,12.86c-1.78,6.52-3.48,12.79-5.24,19.27a10.52,10.52,0,0,0-6.69-3.68c-5.38-.95-10.88,3-11,8.74,0,1.07.46,2.47-.19,3.13s-2.12.23-3.22.22c-2.25,0-4.49,0-6.58,1-.49.23-.52-.13-.67-.38A8.19,8.19,0,0,0,114.09,37c-9.68,0-19.36,0-29,0-.84,0-1.27-.12-1.37-1.11a7.53,7.53,0,0,0-1.76-4.13Z" transform="translate(-15.02 -8.19)"/><path class="cls-4" d="M174,193.44h28.43c1.43,0,2.87.16,3.62,1.6a5.14,5.14,0,0,1,0,5.27,3.64,3.64,0,0,1-3.37,1.45c-2.44,0-4.88,0-7.32,0H145.55a3.55,3.55,0,0,1-3.65-3.39c-.39-2.6.35-4.22,2.25-4.79a4.34,4.34,0,0,1,1.3-.17H174Z" transform="translate(-15.02 -8.19)"/><path class="cls-4" d="M92.16,171c0,9.84,0,19.68,0,29.52a2.59,2.59,0,0,1-1.5,2.61,5,5,0,0,1-4.73,0A3.2,3.2,0,0,1,84.24,200V141.37c0-2.27,1.48-3.57,4-3.59s3.9,1.29,3.9,3.54Z" transform="translate(-15.02 -8.19)"/><path class="cls-4" d="M174.42,174.72H149.35c-2.71,0-4.16-1.61-4.15-4.57,0-2.39,1.52-3.8,4.11-3.8h49.77a3.56,3.56,0,0,1,3.71,3.43,11.61,11.61,0,0,1,0,1.67c-.13,2.38-1.08,3.27-3.47,3.27Z" transform="translate(-15.02 -8.19)"/><path class="cls-3" d="M159.36,13.31c2.14,2,4.33,3.94,6.38,6,3.69,3.72,7.31,7.51,10.94,11.28.29.3.88.53.39,1.15-1.58,2-1.79,4.38-1.79,6.81,0,2,0,2-2,2-2.35.07-4.71-.27-7,.29a6.26,6.26,0,0,0-2.81,1.27.83.83,0,0,1-1.25,0A7.79,7.79,0,0,0,157,40.56c-1.64,0-3.27,0-5.06,0C154.46,31.33,156.93,22.21,159.36,13.31Z" transform="translate(-15.02 -8.19)"/><path class="cls-5" d="M39.28,158.16a11.4,11.4,0,1,1-11.44,11.3A11.41,11.41,0,0,1,39.28,158.16Z" transform="translate(-15.02 -8.19)"/><path class="cls-3" d="M123.16,59.68a65.79,65.79,0,0,0-4.88,4.63c-.43.44-.56.11-.77-.23a9.11,9.11,0,0,0-1.84-2.35,8,8,0,0,0-5.27-1.64q-12.54,0-25.07,0c-1,0-1.5-.17-1.34-1.29s-.43-2.34.24-3,1.9-.17,2.9-.18q13,0,26,0a13.29,13.29,0,0,0,4.93-.84c.61-.24.74,0,1,.44A8,8,0,0,0,123.16,59.68Z" transform="translate(-15.02 -8.19)"/><path class="cls-2" d="M117.65,90.27c-.08-2.76-.53-5.17-2.14-7.27a14,14,0,0,0-3-2.58c-.32-.23-1-.26-.87-.8a1.59,1.59,0,0,1,1.24-1.31,6.28,6.28,0,0,0,2-.7c2.48-1.41,3.37-3.76,3.62-6.39A5,5,0,0,1,120,68.06a70,70,0,0,1,8-7.38,3.42,3.42,0,0,1,1-.6c.49-.15.83-.1.62.63-2.83,10.11-6.27,20-11.62,29.06C118,89.87,117.88,90,117.65,90.27Z" transform="translate(-15.02 -8.19)"/><path class="cls-4" d="M82.55,157.29a105.16,105.16,0,0,1-1.46,15.14,3.28,3.28,0,0,1-3.35,2.95,3.37,3.37,0,0,1-3.39-3.22c-.18-1.9.42-3.72.62-5.58a90,90,0,0,0,.72-15c-.14-2.3.74-3.31,3-3.47a3.23,3.23,0,0,1,3.64,3.14c0,.16,0,.32,0,.48Z" transform="translate(-15.02 -8.19)"/><path class="cls-2" d="M166.4,74.19c-3.11-4.9-6.31-9.52-9.92-14.15h1.42a6.93,6.93,0,0,0,4.57-1.45c.33-.28.62-.52,1.11-.12A8.15,8.15,0,0,0,169,60H173A131.66,131.66,0,0,1,166.4,74.19Z" transform="translate(-15.02 -8.19)"/><path class="cls-4" d="M97.46,166.56a2.65,2.65,0,0,1-2.92-2.41c-.47-3-.78-6.09-1.16-9.14-.17-1.3-.41-2.6-.53-3.91-.17-1.9.89-3.08,2.92-3.37a2.79,2.79,0,0,1,3.39,2.39,122.57,122.57,0,0,1,2,13.36C101.33,165.14,99.57,166.57,97.46,166.56Z" transform="translate(-15.02 -8.19)"/><path class="cls-3" d="M233.23,109a85.75,85.75,0,0,0-7-27.34c.27.25.55.48.8.74L237,92.6c.36.37.69.65.5,1.32C236,98.94,234.63,104,233.23,109Z" transform="translate(-15.02 -8.19)"/><path class="cls-3" d="M53.93,60.23c-3.07,0-6.14,0-9.22,0-.84,0-1.16-.13-.82-1,.41-1.12.38-2.63,1.14-3.32s2.29-.2,3.47-.2c4.91,0,9.82,0,14.73,0,.91,0,1.19.25,1.11,1.14a15,15,0,0,0,0,2.51c.06.75-.21.95-.94.94C60.24,60.21,57.08,60.23,53.93,60.23Z" transform="translate(-15.02 -8.19)"/><path class="cls-3" d="M96.05,192.52v-14c2.34,2.76,5.37,2.81,8.63,2.64C102.43,185.49,99.33,188.92,96.05,192.52Z" transform="translate(-15.02 -8.19)"/><path class="cls-3" d="M108.71,161.09c0,1,0,2.08,0,3.11,0,.57-.22.79-.78.77-.92,0-2,.26-2.71-.13s-.2-1.58-.34-2.41c-.22-1.29-.31-2.61-.5-3.91-.1-.69.14-.93.83-.9,1,0,1.91,0,2.87,0,.66,0,.8.21.75.84-.08.87,0,1.75,0,2.63Z" transform="translate(-15.02 -8.19)"/><path class="cls-3" d="M107.49,78.72c-.44.43-.92.31-1.39.31H43.87a47.12,47.12,0,0,0-4.9.21c-.2,0-.51.23-.54-.18s.26-.34.5-.35h68.56Z" transform="translate(-15.02 -8.19)"/><path class="cls-6" d="M61.38,37c.72-.19,1.43-.38,2.14-.55.22-.05.5-.11.57.22s-.15.49-.48.49H61.4Z" transform="translate(-15.02 -8.19)"/><path class="cls-1" d="M174.37,151.44c-9,0-18.07,0-27.11,0-5.44,0-8.28-4.72-7.66-9.4s4.22-6.59,8-6.59c11.39,0,22.79,0,34.18,0,6.55,0,13.11,0,19.67,0a9,9,0,0,1,4.57,1.18c2.85,1.64,3.55,5.8,3.15,8.26-.76,4.66-4,6.55-8.21,6.54Z" transform="translate(-15.02 -8.19)"/><path class="cls-1" d="M74,109.68H48.6c-1.73,0-2-.3-2-2V96.42c0-1.75.81-2.58,2.52-2.58h51a1.69,1.69,0,0,1,1.85,1.82q0,6,0,12c0,1.36-.71,2-2.1,2Z" transform="translate(-15.02 -8.19)"/><path class="cls-1" d="M120.76,161.14c0-2.2,0-4.4,0-6.59,0-.71.17-1,.94-1,1.4.06,2.8,0,4.2,0a1.33,1.33,0,0,1,1.52,1.45c0,4.35,0,8.71,0,13.07,0,.5-.24.59-.67.59-1.84,0-3.67,0-5.51,0-.66,0-.66-.35-.66-.84,0-2.24,0-4.48,0-6.72Z" transform="translate(-15.02 -8.19)"/><path class="cls-4" d="M174.36,147.6H147.48c-2.64,0-4.19-1.58-4.19-4.26s1.42-4.06,4.21-4.06h54.11c2.63,0,3.92,1.4,3.91,4.2,0,2.61-1.43,4.13-3.92,4.13Z" transform="translate(-15.02 -8.19)"/><path class="cls-3" d="M74.27,97.68c7.55,0,15.11,0,22.66,0,.91,0,1.26.19,1.22,1.18-.08,1.91-.08,3.83,0,5.75,0,1-.22,1.28-1.24,1.27-6.4,0-12.79,0-19.19,0-8.71,0-17.43,0-26.14,0-.92,0-1.25-.2-1.2-1.18.08-1.87.08-3.75,0-5.63-.05-1,.2-1.41,1.34-1.4C59.24,97.71,66.75,97.68,74.27,97.68Z" transform="translate(-15.02 -8.19)"/></svg>