<svg id="圖層_1" data-name="圖層 1" xmlns="http://www.w3.org/2000/svg" viewBox="0 0 214.23 180.78"><defs><style>.cls-1{fill:#206111;}.cls-2{fill:#7cdd9c;}.cls-3{fill:#d1d3d1;}.cls-4{fill:#7bdd9c;}.cls-5{fill:#f7faa8;}.cls-6{fill:#fefefd;}.cls-7{fill:#fefefe;}.cls-8{fill:#d0d2d0;}.cls-9{fill:#d0d2cf;}.cls-10{fill:#fbfcfa;}.cls-11{fill:#ced1ce;}.cls-12{fill:#fdfdfd;}.cls-13{fill:#fe8768;}.cls-14{fill:#fece68;}.cls-15{fill:#fbfcfb;}</style></defs><title>15</title><path class="cls-1" d="M68.87,143.05a40.52,40.52,0,0,0,5,0,16.62,16.62,0,0,1,8.23.16,2.34,2.34,0,0,1,1.45,2.42c.05,1.11,0,2.23,0,3.35,0,.69.21,1.15,1,1.27a9.36,9.36,0,0,1,1.34.49c1,.31,1.49-.12,1.21-1.14-.63-2.27-1.18-4.57-1.74-6.85s.45-3.79,2.86-3.85q5.39-.12,10.78,0c2,.05,2.77.78,3.32,2.67a13.22,13.22,0,0,1,.42,1.49,2.66,2.66,0,0,0,1.8,2.3,2.28,2.28,0,0,1,1.37,2.44c0,.37-.37,1,.31,1.09s.81-.42,1-.89c.7-1.91,1.2-3.89,1.85-5.82a3.19,3.19,0,0,1,2-2.26c1.71-.31,3.4.23,5.12.16a71.38,71.38,0,0,1,7.88-.27,1.37,1.37,0,0,0,1.09-.41,4.14,4.14,0,0,1,3-1c3.56,0,7.12-.05,10.68,0,2.58,0,3.63,1.13,3.66,3.69,0,2.39-.1,2.29,2.31,2.29,3,0,6,0,9,0,2.22,0,3.18.94,3.33,3.18a12.31,12.31,0,0,1,0,1.92c-.13,1.29.06,2.37,1.54,2.73.37.38.78.78.71,1.33-.46,3.8,1.06,7.47.7,11.25-.07.79.11,1.11,1,1.11.7,0,.77-.22.76-.79,0-2.47,0-5,0-7.43,0-3.84,0-7.68,0-11.52,0-2.27.83-3.09,3.12-3.09h43.55c2.19,0,3,.84,3,3,0,.8,0,1.6,0,2.4,0,1.07-.34,2.28,1.53,2.08.65-.07,1.11.57,1.11,1.33,0,2.47,0,5,0,7.43,0,1.18-.86,1.43-1.82,1.43H204c-6.2,0-12.4,0-18.6,0-1,0-1.42.2-1.24,1.23a2.48,2.48,0,0,1,0,.72c-.14.92.2,1.21,1.17,1.2,7.63,0,15.27,0,22.91,0,2.64,0,3.23.59,3.23,3.26,0,1.12,0,2.24,0,3.36,0,.6.15.82.8.84,1.67,0,1.85.27,1.85,1.91,0,7.52,0,15,0,22.56a2.51,2.51,0,0,1-1.06,2.24c-1.36,1-2.62,2.22-3.91,3.35a2.22,2.22,0,0,1-1.34.72c-3.72.17-7.44-.1-11.15.1-9.06.49-18.13.08-27.2.22-.48,0-1,0-1.43,0a2,2,0,0,1-2-1.93A23.55,23.55,0,0,1,166,198c0-.68-.32-1-1-1a5.48,5.48,0,0,1-2.23-.37c-.58-.26-.89.11-1.17.53-.64.92-1.24,1.87-1.83,2.82a2.84,2.84,0,0,1-1.53,1.44,5.21,5.21,0,0,1-1.88.24H115.08c-.43,0-.87,0-1.31,0-2,.82-2.83.37-5-2.55-.25.23-.12.53-.15.78a2,2,0,0,1-2.17,2.08c-1.2.07-2.4,0-3.6,0-3.59,0-7.19,0-10.79,0-2.29,0-2.85-.58-2.86-2.83,0-.52,0-1,0-1.56,0-.74-.29-1.06-1.05-1.14-1.82-.18-1.81-.21-1.82,1.68,0,.87,0,1.75,0,2.63s-.54,1.65-1.54,1.65a104.13,104.13,0,0,1-10.89-.14,20.61,20.61,0,0,0-4.9.06,4.28,4.28,0,0,1-1.07.06c-1-.25-1.32-1.06-1.45-2a17.31,17.31,0,0,1-.06-2.39.93.93,0,0,0-1-1.08c-2.85-.34-3.58-1.14-3.59-4,0-5,0-9.89,0-14.84,0-1.32,0-2.63,0-4,0-.14,0-.28,0-.42,0-3.68,0-7.35,0-11,0-1.48-.09-1.55-1.55-1.57-.36,0-.72,0-1.08,0-1.65-.09-2.26-1-1.64-2.6.29-.74.69-1.44,1-2.15.25-.5.12-.76-.45-.76-.88,0-1.76,0-2.64,0-2.32-.11-3.35-1.79-2.36-3.9,1.11-2.35,2.34-4.64,3.46-7a3.23,3.23,0,0,1,2.9-2c2.83-.14,5.67-.06,8.51,0A1.31,1.31,0,0,1,68.87,143.05Z" transform="translate(-9.13 -35.51)"/><path class="cls-1" d="M124.77,92.63a38.9,38.9,0,0,0,.76-5,2.94,2.94,0,0,1,0-1.53c.23-1.13.17-1.21-1-1.24-.43,0-.87,0-1.31,0A3.43,3.43,0,0,1,120,81.42c-.12-4-.08-7.9,0-11.84a5.07,5.07,0,0,1,.95-2.55c.35-.58.7-1.16,1-1.75.6-1,1.51-1.94.7-3.34-.32-.53-.11-1.33-.08-2,0-.9-.29-1.31-1.24-1.28a3.17,3.17,0,0,1-2.48-.6,3.85,3.85,0,0,1-2.17-3.91V46.82c0-3,1.27-4.26,4.31-4.26,4.72,0,9.44,0,14.16,0a1.69,1.69,0,0,0,1.68-1c.87-1.47,1.81-2.9,2.7-4.36a3.49,3.49,0,0,1,3.2-1.72c6.08,0,12.16,0,18.23,0,3.2,0,4.61,2.62,3,5.33-.3.5-.61,1-1,1.69h54.89a8.19,8.19,0,0,1,1.78.16,3,3,0,0,1,2.7,3.25c0,1.84,0,3.68,0,5.52,0,.44-.07.86.57.94.44,0,.52.45.52.83,0,2.88,0,5.76,0,8.64,0,.72-.36,1-1,1-1,0-2.08,0-3.12,0q-17.82,0-35.63,0c-1,0-1.4.19-1.25,1.22a15.42,15.42,0,0,1,0,1.8c0,.53-.18,1.15.65,1.3a.58.58,0,0,1,.3.47c-.2,1.49.86,1.17,1.68,1.17h29.51c3.31,0,4.41,1.11,4.41,4.46,0,1.32,0,2.63,0,4,0,.6-.2,1.27.7,1.52.38.1.33.59.33,1,0,2.76,0,5.52,0,8.28,0,.92-.41,1.19-1.23,1.19-1.44,0-2.88,0-4.32,0-.61,0-.81.09-.68.81.65,3.64,1.24,7.3,1.83,11,.13.8.39,1.29,1.35,1.15a6.35,6.35,0,0,1,2.37.18,3,3,0,0,1,2.39,4,44.34,44.34,0,0,1-2.11,4.79c-.11.25-.22.49-.37.85.94,0,1.77,0,2.6,0,1.1,0,1.34.36.9,1.32-1,2.1-2,4.18-3,6.28a1.25,1.25,0,0,1-1.3.82c-5.52,0-11,0-16.55,0a1.15,1.15,0,0,1-1.34-1.15c-.13-.91-.34-1.81-.45-2.72-.08-.6-.35-.81-.93-.75a6.35,6.35,0,0,1-2.25-.23,2.77,2.77,0,0,1-2.22-2.24q-1.11-5.93-2.16-11.86c-.67-3.76-1.31-7.52-2-11.29-.11-.66-.42-.91-1.13-.88-1.63,0-3.28.07-4.91,0-1,0-1.18.26-1.18,1.19,0,9.63,0,19.27,0,28.91,0,1.94,0,1.94-1.91,1.94-6.36,0-12.71,0-19.07,0a1.8,1.8,0,0,1-1.94-1.21c-.45-1.06-1-2.06-1.57-3.1a4.68,4.68,0,0,1-4.67-2.87c-1-2.17-2.13-4.28-3.18-6.43a4.65,4.65,0,0,1-.58-2.53,3.21,3.21,0,0,1,2.23-3,9.67,9.67,0,0,1,3.42-.44c1.42,0,1.51-.09,1.51-1.47,0-1.84,0-3.67,0-5.5,0-1.32-.05-2.63,0-4,0-.95-.29-1.38-1.3-1.35-2,0-4,0-6,0a1.4,1.4,0,0,0-1.63,1.46c0,.55-.2,1.09-.23,1.65,0,.35.22.44.51.55,1.25.46,1.48.83,1.25,2.17-.54,3.15-1.05,6.31-1.6,9.46q-1.18,6.67-2.31,13.36c-.38,2.27-.69,2.54-2.94,2.55-4.88,0-9.76,0-14.63,0a2.79,2.79,0,0,1-3.05-2c-.11-.29-.3-.57-.38-.87a2.51,2.51,0,0,0-2.26-2,3.63,3.63,0,0,1-2.67-2,14.27,14.27,0,0,1-1.53-3.88c-.41-.93-.83-1.86-1.23-2.8-.87-2-.56-3.23,1.2-4.64a3.74,3.74,0,0,1,2.68-.79c1.53-.06,1.54,0,1.78-1.6.32-2,.62-4,1-6A2.56,2.56,0,0,1,124.77,92.63Z" transform="translate(-9.13 -35.51)"/><path class="cls-1" d="M38.45,87.37v5A2.46,2.46,0,0,1,38.79,94q0,12.66,0,25.32c0,1.92-.35,2.25-2.23,2.27s-3.62.14-5.4,0c-5-.47-10.06-.09-15.08-.31a1,1,0,0,1-.71-1.1c0-.88,0-1.76,0-2.64s-.24-.93-.94-.9a9.08,9.08,0,0,1-2.74-.19A2.78,2.78,0,0,1,9.4,114a52,52,0,0,1,0-10.51A2.63,2.63,0,0,1,11.76,101c.91-.15,1.05-.63,1.05-1.46q0-26.34,0-52.67c0-1.51.13-3,1.63-3.86a5,5,0,0,1,2.64-.56c12.2,0,24.4,0,36.6,0,1.1,0,1.5-.27,1.34-1.36a9,9,0,0,1,0-1.56c.12-2.52,1.41-3.8,3.94-3.81q9.3,0,18.6,0c2.5,0,3.77,1.36,3.82,3.89,0,.9-.39,2.14.18,2.63s1.75.18,2.65.18q13.08,0,26.16,0c3.11,0,4.35,1.24,4.35,4.35,0,1.32,0,2.64,0,4,0,.67-.24,1.44.76,1.73.32.09.23.56.23.87,0,2.64,0,5.28,0,7.92,0,.56-.06,1.06-.77,1.12a21.26,21.26,0,0,1-5.34.36H75.94a4.15,4.15,0,0,1-2-.24c-2.47-.19-4.93.21-7.39.22-8.63,0-17.27,0-25.9,0-1.85,0-1.86,0-1.86,1.87V85.4A3.14,3.14,0,0,1,38.45,87.37Z" transform="translate(-9.13 -35.51)"/><path class="cls-2" d="M93.85,130.81H79.22c-3.36,0-5.3-1.93-5.3-5.25q0-13.84,0-27.7c0-3.25,2-5.22,5.21-5.22h29.38a4.87,4.87,0,0,1,5.22,5.25q0,13.86,0,27.71c0,3.21-2,5.2-5.25,5.21Z" transform="translate(-9.13 -35.51)"/><path class="cls-3" d="M16.08,121.26c5.15,0,10.31,0,15.46,0,2.22,0,4.46.33,6.65-.24.48-2.21.18-4.44.2-6.66.06-7.31,0-14.63.06-21.94h25c3.33,0,5.38,2,5.38,5.38,0,9.15,0,18.3,0,27.45a5.12,5.12,0,0,1-5.35,5.38c-9.79-.11-19.58,0-29.37,0-3.24,0-5.13-1.91-5.14-5.14,0-1-.06-1.92,0-2.87s-.31-1.13-1.17-1.12c-3.52,0-7,0-10.55,0C16.92,121.45,16.45,121.6,16.08,121.26Z" transform="translate(-9.13 -35.51)"/><path class="cls-2" d="M73.9,62.46l38.29,0h2.74c-1.05.06-1.23.64-1.22,1.63.05,6,0,12.07,0,18.1,0,3.46-2,5.43-5.41,5.43H79.2c-3.34,0-5.28-1.94-5.29-5.27q0-9.82,0-19.65c-.06-.06-.07-.11,0-.15A.1.1,0,0,1,73.9,62.46Z" transform="translate(-9.13 -35.51)"/><path class="cls-3" d="M62.19,173.77a.17.17,0,0,1,0,.22,2.15,2.15,0,0,1-1.58.38c-2,0-4,0-6,0-1.33,0-1.43.12-1.45,1.42,0,1.84,0,1.9,1.8,1.9h5.61a2.19,2.19,0,0,1,1.59.38l.06,14.6c0,.36,0,.72,0,1.08.07,2,.84,2.81,2.86,2.84,1.69,0,1.69,0,1.69,1.74,0,.72,0,1.44,0,2.16s.24,1.42,1.11,1.63c.39.19.87-.11,1.24.21,0,2.92,0,5.83,0,8.75A4.79,4.79,0,0,1,64,216.24H34.43a4.77,4.77,0,0,1-5.15-5.14q0-7.74,0-15.48a16.41,16.41,0,0,0,3.49.65c.69,0,.9.57,1,1.18.06.84,0,1.68.06,2.51.11,1.36.45,1.72,1.77,1.73q7.56,0,15.1,0c1.25,0,1.48-.26,1.52-1.49s0-2.63,0-3.95q0-10.31,0-20.61a2.9,2.9,0,0,1,.35-2,.59.59,0,0,1,.2-.12,55.46,55.46,0,0,1,8.93-.06A1,1,0,0,1,62.19,173.77Z" transform="translate(-9.13 -35.51)"/><path class="cls-3" d="M73.9,62.46a1.52,1.52,0,0,1,0,.21c-1.32,0-2.64,0-4,0-.88-.05-1,.33-1,1.12,0,6.07,0,12.14,0,18.21a5.14,5.14,0,0,1-5.4,5.45c-8.35-.13-16.7,0-25,0,0-8,0-16.05-.06-24.08,0-.84.37-.86,1-.86,4.35,0,8.71,0,13.06,0l20.13,0C73,62.41,73.46,62.44,73.9,62.46Z" transform="translate(-9.13 -35.51)"/><path class="cls-3" d="M118.82,109.89c.53,1.07,1.14,2.1,1.59,3.2a3.75,3.75,0,0,0,3.54,2.55,1.06,1.06,0,0,1,1.06.74c.43,1,.94,1.94,1.36,2.93a1.38,1.38,0,0,0,1.46,1q8.28,0,16.56,0c.83,0,1.19-.29,1.33-1.14q2.09-12.22,4.23-24.44c.17-1-.3-1.31-1.2-1.27-.55,0-1.16.08-.66-.78a1.55,1.55,0,0,1,1.11-.34c1.59,0,3.18-.09,4.77,0a4.32,4.32,0,0,1,3.92,2.46c0,2.15,0,4.31.05,6.46,0,.63-.19.81-.81.82a16.78,16.78,0,0,0-3.81.16,3.05,3.05,0,0,0-2.42,4.21,30.26,30.26,0,0,0,2,4.19c.56,1.18,1.19,2.33,1.76,3.51a3.76,3.76,0,0,0,3.06,2.34c.36,0,.93-.16,1.14.42-.38.36-.21.83-.21,1.25,0,2.47,0,4.95,0,7.43a5,5,0,0,1-5.28,5.22H123.86a4.69,4.69,0,0,1-5.06-5.08Q118.8,117.8,118.82,109.89Z" transform="translate(-9.13 -35.51)"/><path class="cls-3" d="M69.17,202.35c-.41-.1-.87.11-1.24-.21H83.86c1.88,0,2.07-.2,2.08-2.06v-4.19c.54-.15,1,.16,1.41.2,2.13.18,2.13.19,2.13,2.35,0,3.16,0,3.16,3.2,3.16h13.18c2.06,0,2.37-.31,2.37-2.33V197.7a7.42,7.42,0,0,1,1.58,2.25,2.73,2.73,0,0,0,3,1.65,6.16,6.16,0,0,1,1,0c0,3.12-.06,6.24,0,9.36a5.05,5.05,0,0,1-5.31,5.3c-9.79-.11-19.59,0-29.39,0-3.25,0-5.15-1.9-5.15-5.13,0-2.52,0-5,0-7.56,0-1-.32-1.31-1.29-1.24C71.49,202.4,70.33,202.34,69.17,202.35Z" transform="translate(-9.13 -35.51)"/><path class="cls-1" d="M52.61,173.79c0,1.68,0,3.36,0,5v21.35c0,1.7-.25,2-1.94,2H35.41c-1.54,0-1.91-.37-2-1.89,0-.27,0-.55,0-.83,0-.84.24-1.83-.12-2.48s-1.53-.2-2.32-.34a2.87,2.87,0,0,1-1.73-1,6.61,6.61,0,0,1-.39-2.46c0-10.35,0-20.69,0-31,0-1-.18-1.5-1.28-1.32a9,9,0,0,1-1.56,0c-1.84,0-2.25-.72-1.41-2.41l1.53-3.11c-1.44,0-2.74,0-4,0-2.11,0-3-1.49-2.14-3.42,1.2-2.51,2.49-5,3.76-7.47a2.67,2.67,0,0,1,2.52-1.29c.92,0,1.84,0,2.75-.07a2.2,2.2,0,0,1,1.59-.38H46.35a6.75,6.75,0,0,1,1.55.16,2.75,2.75,0,0,1,2.37,2.76c.08,1.08,0,2.16,0,3.24a1.29,1.29,0,0,0,1,1.42c1.46.49,1.5.85,1.57,2.39.14,3.48.08,7,.1,10.43q0,4.5,0,9A2.75,2.75,0,0,1,52.61,173.79Z" transform="translate(-9.13 -35.51)"/><path class="cls-2" d="M52.61,173.79l0-21.09c0-1.78-.15-2-1.94-2.15-.61-.06-.72-.31-.71-.82,0-1.2,0-2.4,0-3.6,0-2.21-.79-3-3-3-4.51,0-9,0-13.54,0-1.43,0-2.87,0-4.31-.05,0-.79,0-1.59,0-2.39a4.81,4.81,0,0,1,4.87-5q15-.06,30.08,0a4.83,4.83,0,0,1,4.88,5c0,.8,0,1.6,0,2.4-2.87,0-5.75.07-8.62,0a3.38,3.38,0,0,0-3.58,2.17c-.93,2.11-2.06,4.13-3.09,6.21-1.2,2.4-.34,3.82,2.31,3.83h3.66c-.59,1.18-1.13,2.23-1.64,3.29-.7,1.45-.23,2.17,1.37,2.23.95,0,2.16-.43,2.76.22s.17,1.84.18,2.78c0,3.32,0,6.63,0,10Z" transform="translate(-9.13 -35.51)"/><path class="cls-2" d="M158.17,201.36c1.33-1.6,2.28-3.46,3.46-5.17.35-.49.51-.72,1-.15a2.6,2.6,0,0,0,2.13.56c1.76,0,1.55-.23,1.57,1.63,0,.76,0,1.52,0,2.28.06,1,.52,1.62,1.65,1.62q14,0,28.07,0c3.91,0,7.83,0,11.75,0a5,5,0,0,1-2.23.15c-2.8,0-5.6.07-8.39,0a2,2,0,0,0-2.06,1.21c-1.89,3.38-3.83,6.72-5.77,10.07-1.45,2.5-4.13,3.44-6.54,2.07C174.58,210.9,166.39,206.11,158.17,201.36Z" transform="translate(-9.13 -35.51)"/><path class="cls-3" d="M110.9,140.22a3.65,3.65,0,0,0-1.6,2.28c-.57,2-1.21,4-1.82,5.94a2,2,0,0,1-1.94.9c-.37-.18-.14-.48-.1-.73.41-2.14.11-2.72-1.94-3.34a1,1,0,0,1-.71-.81c-.28-1-.54-2-.81-3-.45-1.62-1.1-2.2-2.81-2.22-3.71,0-7.43-.05-11.14,0-2,0-2.84,1.26-2.36,3.2.61,2.48,1.27,4.94,1.87,7.42.08.35.48.93.08,1.06-.6.2-1.3.7-2,.14a1.55,1.55,0,0,0-1.07-.47c-1.34.18-1.35-.61-1.29-1.57s0-2,0-3c0-2.07-.81-2.88-2.91-2.91s-4.31-.05-6.47-.07c.09-1.65-.31-3.34.68-4.89a4.67,4.67,0,0,1,4.1-2.29q15.12,0,30.22,0a4.81,4.81,0,0,1,4.67,4,2,2,0,0,1-1.69,0A.73.73,0,0,0,110.9,140.22Z" transform="translate(-9.13 -35.51)"/><path class="cls-3" d="M110.9,140.22c-.07-.88.5-1,1-.63a2.43,2.43,0,0,0,1.67.29c1.44,0,2.88,0,4.31.05a1,1,0,0,0,1.14-.79,4.75,4.75,0,0,1,4.89-3.29H153.3a5,5,0,0,1,5.33,5.31c0,3.68,0,7.35,0,11-1.91-.2-1.91-.2-1.91-2.18,0-.88,0-1.75,0-2.63-.06-1.83-.92-2.7-2.76-2.71-3.56,0-7.11,0-10.67,0-1,0-1.33-.3-1.21-1.27a12.63,12.63,0,0,0,0-2c-.1-1.66-.9-2.55-2.54-2.57-4.07-.06-8.15,0-12.22,0-.54,0-1.24,0-1.55.51-.69,1.07-1.65.83-2.64.83C119.05,140.13,115,140.19,110.9,140.22Z" transform="translate(-9.13 -35.51)"/><path class="cls-4" d="M118.82,58.05a14.29,14.29,0,0,0,3.2.22c.62-.05.87.2.84.82,0,.84,0,1.68,0,2.52,0,.27,0,.71.11.8,1.19.7.36,1.39-.06,1.93a13.08,13.08,0,0,0-2.75,9.71c.21,2.22,0,4.47,0,6.7,0,2.49,1.29,3.71,3.78,3.73,2.23,0,2.23,0,1.81,2.1-.07.34,0,.73-.26,1a15.05,15.05,0,0,1-3.21-.19,4.63,4.63,0,0,1-3.52-4.33C118.78,74.74,118.81,66.39,118.82,58.05Z" transform="translate(-9.13 -35.51)"/><path class="cls-3" d="M124.77,92.63c-.47,3-1,5.89-1.39,8.84-.08.59-.39.6-.81.58a11.23,11.23,0,0,0-3.78.4V97.9c0-3.39,1.86-5.25,5.26-5.26Z" transform="translate(-9.13 -35.51)"/><path class="cls-5" d="M186.65,145.21c7.2,0,14.4,0,21.59,0,.9,0,1.16.23,1.12,1.13-.07,1.87-.07,3.76,0,5.63,0,1-.28,1.19-1.21,1.18-9.11,0-18.23,0-27.35-.05-1.18,0-1.44.32-1.41,1.45.08,3.44.06,6.88,0,10.32,0,.94.25,1.2,1.2,1.2,9.16,0,18.32,0,27.47,0,1.09,0,1.3.31,1.3,1.33-.05,7.24,0,14.47,0,21.71a2,2,0,0,1-.86,1.82c-1.47,1.16-2.72,2.84-4.38,3.46s-3.62.17-5.46.17q-16.74,0-33.47,0c-1,0-1.32-.19-1.28-1.23.09-1.83.08-3.68,0-5.51,0-.95.23-1.21,1.19-1.21,7.19,0,14.39,0,21.59,0,1.56,0,3.12,0,4.68,0,.75,0,1.05-.17,1-1q-.07-5.28,0-10.56c0-.89-.34-1-1.12-1-8.68,0-17.35,0-26,.05-1.11,0-1.36-.31-1.36-1.38q.08-13.14,0-26.27c0-1,.3-1.23,1.27-1.23C172.34,145.22,179.49,145.21,186.65,145.21Z" transform="translate(-9.13 -35.51)"/><path class="cls-5" d="M108.08,178.1c1.16,0,2.19,0,3.22,0,.71,0,1-.21,1.11-.89.73-3,1.51-6,2.32-9,.2-.77.19-1.13-.79-1.08-1.64.08-3.28,0-4.92,0-.7,0-.89-.24-.87-.9,0-1.6,0-3.2,0-4.8,0-.8.3-.9,1-.89,5.56,0,11.12,0,16.67,0,1,0,1.22-.25,1.18-1.18-.08-1.68-.06-3.36,0-5,0-.76-.23-1-.95-.93-1.48,0-3,0-4.44,0a1,1,0,0,0-1.18.85c-.71,2.39-.75,2.38-3.23,2.38-2.68,0-5.36,0-8,0a1.25,1.25,0,0,1-1.48-1.1c-.32-1.2-.72-2.37-1.15-3.53-.23-.62-.06-.87.54-.75,1.54.32,2-.5,2.38-1.84.54-2.13,1.29-4.19,1.9-6.3.18-.63.41-.93,1.13-.92q5.28.06,10.56,0c.8,0,1,.19.69,1-.35,1-.57,2-.9,3-.17.51,0,.66.46.62a1.92,1.92,0,0,1,.24,0c1.11-.07,2.53.46,3.25-.21s.18-2.05.2-3.11c0-2.55,0-2.55,2.55-2.55,3,0,6,.08,9,0,1.28,0,1.55.38,1.45,1.53s.06,2.17,0,3.24.31,1.17,1.21,1.16c4.12,0,8.24,0,12.36,0,.93,0,1.15.27,1.1,1.15-.07,1.52-.06,3,0,4.56,0,.82-.26,1-1,1-4.16,0-8.32,0-12.47,0-1,0-1.22.27-1.18,1.2.07,1.63.07,3.28,0,4.92,0,.86.23,1.05,1.06,1,5.24,0,10.48,0,15.72,0,1,0,1.3.25,1.24,1.25a30.71,30.71,0,0,0,0,4.07c.06,1-.19,1.32-1.22,1.29-2.28-.08-4.56,0-6.84,0-.78,0-1.14.12-1.12,1,.06,3,.05,6,0,9,0,.81.25,1,1,1,2.16-.05,4.32,0,6.48,0,.58,0,.81.07.54.72-.7,1.7-1.35,3.41-2,5.13a.94.94,0,0,1-1.07.69c-5.68,0-11.36,0-17,0-.85,0-1-.31-1-1,0-5,0-10.08,0-15.12,0-1.1-.28-1.45-1.39-1.38-1.59.09-3.2.06-4.8,0-.83,0-1.24.15-1.46,1.08-1.19,5.09-2.52,10.15-3.72,15.24-.23,1-.61,1.24-1.59,1.22-3.84-.07-7.68-.05-11.52,0-.83,0-1.29-.16-1.52-1.06C109.26,181.77,108.66,180,108.08,178.1Z" transform="translate(-9.13 -35.51)"/><path class="cls-5" d="M55.13,153.15c1.3-2.59,2.52-5,3.72-7.42.22-.45.55-.49,1-.49,6.84,0,13.68,0,20.51,0,.76,0,.83.33.83.94,0,2.28,0,4.56,0,6.83q0,20.1,0,40.18c0,1-.2,1.35-1.29,1.33-4.76-.07-9.51-.06-14.27,0-1,0-1.25-.29-1.25-1.28,0-12.91,0-25.82,0-38.74,0-1.09-.28-1.41-1.38-1.37C60.47,153.21,57.92,153.15,55.13,153.15Z" transform="translate(-9.13 -35.51)"/><path class="cls-5" d="M103.43,173.54c0,6.4,0,12.79,0,19.19,0,.88-.14,1.22-1.14,1.21-4.72-.06-9.44-.05-14.15,0-.9,0-1.17-.22-1.12-1.13.07-1.59,0-3.19,0-4.79,0-.6.13-.92.79-.82a2.16,2.16,0,0,0,.36,0c2.68,0,2.68,0,2.68-2.64,0-7.72,0-15.43,0-23.15,0-1-.19-1.45-1.35-1.41-2.49.1-2.49,0-2.49-2.46,0-1.08,0-2.16,0-3.23-.05-.86.16-1.18,1.11-1.17q7.13.08,14.26,0c.88,0,1,.28,1,1.09C103.42,160.67,103.43,167.11,103.43,173.54Z" transform="translate(-9.13 -35.51)"/><path class="cls-5" d="M103.62,187.23h54.6l-4.13,6.41c-.25.39-.64.27-1,.27h-44.4a1.08,1.08,0,0,1-1.11-.48C106.34,191.41,105,189.41,103.62,187.23Z" transform="translate(-9.13 -35.51)"/><path class="cls-5" d="M93.76,141.38c1.55,0,3.12.08,4.67,0,1.12-.08,1.53.34,1.72,1.38s.65,2.22.89,3.35c.2,1,.58,1.5,1.65,1.29.7-.14,1,.15.72.83a.53.53,0,0,0,0,.12c-.31,1.15-.29,2.66-1,3.35s-2.28.2-3.47.21c-2.6,0-5.2,0-7.8,0-.61,0-.92-.15-1.08-.79-.72-3-1.47-6-2.27-8.93-.17-.66,0-.84.63-.82C90.16,141.4,92,141.38,93.76,141.38Z" transform="translate(-9.13 -35.51)"/><path class="cls-4" d="M164.86,176.21c1.21-.27,1.67.19,1.5,1.43a14.33,14.33,0,0,0,0,2.27c0,1.33.49,1.78,1.84,1.78,6.88,0,13.76,0,20.63,0,.47,0,1.21-.33,1.38.3a5.07,5.07,0,0,1,0,2.26c-.09.43-.7.21-1.07.21H165.35c-2.93,0-3.57.65-3.57,3.6,0,1.16,0,2.32,0,3.48,0,.76-.25,1-1,.92-.9-.05-1.81,0-2.75-.09a2.29,2.29,0,0,0,1.4-1.64c.64-1.72,1.35-3.42,2-5.13.49-1.3.33-1.64-.93-2.22A46,46,0,0,1,164.86,176.21Z" transform="translate(-9.13 -35.51)"/><path class="cls-6" d="M164.86,176.21a51.86,51.86,0,0,1-4.3,7.2l-.24,0c-1-.1-2.25.43-2.8-.25-.31-.38.53-1.7.85-2.59.14-.37.3-.74.43-1.12.72-2.09-.21-3.41-2.45-3.48q-1.14,0-2.28,0c-.41,0-.56-.16-.54-.56s.06-.62.51-.62l7.66,0a.5.5,0,0,1,.37.22A2.86,2.86,0,0,0,164.86,176.21Z" transform="translate(-9.13 -35.51)"/><path class="cls-7" d="M62.18,178.09c-2.76,0-5.52,0-8.27,0-.92,0-1.15-.29-1.14-1.17,0-2.94,0-2.94,2.94-2.94h6.47A24.41,24.41,0,0,1,62.18,178.09Z" transform="translate(-9.13 -35.51)"/><path class="cls-8" d="M86,178.08V161.92l2.6.35a22.71,22.71,0,0,1,.11,4c0,2.51,0,5,0,7.53-.21.51-.69.49-1.1.49-.82,0-1.06.43-1.07,1.19a5.91,5.91,0,0,1-.19,2.44A.26.26,0,0,1,86,178.08Z" transform="translate(-9.13 -35.51)"/><path class="cls-9" d="M86,178.08h.2a1.42,1.42,0,0,1,.63-.3c1.41-.29,1.39-.29,1.42-1.79,0-.65-.15-1.35.31-1.93q0-5.9,0-11.79c.35.28.18.67.18,1,0,6.88,0,13.75,0,20.62,0,.83-.1,1.28-1.08,1.17a8.56,8.56,0,0,0-1.72.21Z" transform="translate(-9.13 -35.51)"/><path class="cls-10" d="M130.31,185c.81-3.25,1.58-6.33,2.36-9.41.08-.35,0-.93.6-.82s.31.58.31.9c0,2.91,0,5.82,0,8.73,0,.51-.12.62-.57.61C132.19,185,131.31,185,130.31,185Z" transform="translate(-9.13 -35.51)"/><path class="cls-11" d="M108.28,174c0-1.36,0-2.72-.06-4.07,0-.89.58-.72,1-.67s1.32-.4,1.32.67c0,1.27,0,2.55,0,3.83A1.73,1.73,0,0,1,108.28,174Z" transform="translate(-9.13 -35.51)"/><path class="cls-12" d="M108.28,174a6.73,6.73,0,0,0,2.32-.24,1.59,1.59,0,0,1-.07,2c-.42.47-1.28.14-2,.16-.34,0-.35-.24-.35-.49C108.25,175,108.26,174.49,108.28,174Z" transform="translate(-9.13 -35.51)"/><path class="cls-7" d="M141.4,72h15.41c1.12,0,2.24,0,3.36,0,.77,0,.93-.24.92-1,0-3.16,0-6.32,0-9.48,0-.78.11-1.11,1-1.1q8,.06,16.08,0c.9,0,1,.31,1,1.1,0,3,0,6.08,0,9.12,0,1,.2,1.34,1.3,1.33,11.36,0,22.72,0,34.07,0,1,0,1.32.15,1.28,1.21-.09,2.36-.08,4.72,0,7.08,0,1-.26,1.16-1.18,1.16-11.36,0-22.72,0-34.08,0-1.06,0-1.39.21-1.39,1.34,0,9.8,0,19.6.06,29.4,0,1-.21,1.35-1.3,1.34-6.32-.06-12.64,0-19,0a1.55,1.55,0,0,1-1.65-1q-1.49-3.14-3.12-6.19c-.48-.9-.23-1,.66-1,1.8,0,3.6,0,5.4,0,.68,0,.88-.19.88-.87,0-7.4,0-14.8,0-22.2,0-1-.62-.8-1.16-.8q-16.5,0-33,0c-1.19,0-2.77.52-3.44-.23s-.18-2.2-.19-3.35c0-2.36,0-4.72,0-7.08a3.18,3.18,0,0,1,.5-1.8q4-6.52,8-13.08c.1-.16.19-.33.4-.71H130c-3.08,0-6.16,0-9.23,0-.72,0-1-.18-1-.94,0-2.48.06-5,0-7.44,0-.89.32-1,1.11-1,5.24,0,10.48,0,15.72,0a2,2,0,0,0,2-1.08c1-1.81,2.17-3.54,3.25-5.32a1.19,1.19,0,0,1,1.1-.72c6.08,0,12.16,0,18.24,0,.06,0,.13.06.28.14l-4.06,6.74a2.28,2.28,0,0,0,1.45.18q29.46,0,58.92,0c1,0,1.45.16,1.4,1.32-.11,2.32-.08,4.64,0,7,0,.89-.2,1.15-1.12,1.14-5-.05-10,0-15,0q-25.14,0-50.27,0a1.88,1.88,0,0,0-1.89,1.06c-2.91,4.92-5.88,9.79-8.83,14.68C141.87,71.12,141.69,71.44,141.4,72Z" transform="translate(-9.13 -35.51)"/><path class="cls-13" d="M132.4,112.59c-2.68,0-5.36,0-8,0a1.09,1.09,0,0,1-1.21-.7q-1.29-2.88-2.69-5.73c-.43-.86-.21-1.1.71-1.06,1.28,0,2.56,0,3.84,0,.61,0,.85-.25.94-.82.88-5.5,1.79-11,2.64-16.51.14-.9.47-1.17,1.37-1.16,4.84,0,9.68,0,14.52,0,1.47,0,1.5,0,1.25,1.48-1.34,7.85-2.72,15.69-4,23.55-.14.82-.46.92-1.15.92C137.84,112.58,135.12,112.59,132.4,112.59Z" transform="translate(-9.13 -35.51)"/><path class="cls-14" d="M206.48,112.56c-2.64,0-5.28,0-7.92,0-.84,0-1.11-.34-1.23-1q-1.1-6.33-2.21-12.67-.93-5.28-1.87-10.56c-.29-1.55-.31-1.55,1.28-1.55,4.8,0,9.6,0,14.4,0,.82,0,1.21.09,1.37,1.11.85,5.49,1.87,11,2.77,16.44.11.67.33.84,1,.83,1.36-.05,2.72,0,4.08,0,.6,0,.69.21.46.71-1,2.08-2,4.16-3,6.26-.25.56-.67.46-1.09.47Z" transform="translate(-9.13 -35.51)"/><path class="cls-12" d="M157.89,94.79a6.56,6.56,0,0,0-6-2.17c-1.26.11-2.54,0-3.81,0,0,0,0-.08,0-.12.14-3.36.14-3.36,3.41-3.36,1.86,0,3.73,0,5.6,0,.69,0,.88.22.86.88C157.89,91.61,157.91,93.2,157.89,94.79Z" transform="translate(-9.13 -35.51)"/><path class="cls-4" d="M151.87,68.83c1.21-2,2.24-3.79,3.36-5.52.56-.88,1.54-.41,2.3-.38s.37.76.38,1.16c.05,1.31,0,2.63,0,3.94,0,.52-.1.82-.72.81C155.52,68.81,153.82,68.83,151.87,68.83Z" transform="translate(-9.13 -35.51)"/><path class="cls-14" d="M78.5,54.7c-.48,0-1,0-1.44,0q-20.68,0-41.39,0c-1.08,0-1.38.25-1.38,1.36,0,18.68,0,37.35.06,56,0,1.27-.37,1.47-1.52,1.46q-9.72-.08-19.43,0c-1,0-1.2-.27-1.18-1.2.07-2.52,0-5,0-7.56,0-.72.17-.95.92-1,2.69,0,2.69,0,2.69-2.74q0-27.11,0-54.22c0-1.12.31-1.36,1.38-1.36,13.2,0,26.39,0,39.59.05,1.05,0,1.39-.23,1.32-1.31-.11-1.55,0-3.12,0-4.67,0-.56.15-.78.74-.77,6.24,0,12.48,0,18.71,0,.7,0,.77.32.76.88,0,1.6,0,3.2,0,4.8,0,.37-.19.8.21,1.11a1.66,1.66,0,0,1,.35,1.22c0,2.21,0,4.43,0,6.64A1.66,1.66,0,0,1,78.5,54.7Z" transform="translate(-9.13 -35.51)"/><path class="cls-7" d="M78.5,54.7V45.62l19.66,0c4.2,0,8.4,0,12.6,0,.91,0,1.13.25,1.1,1.13-.06,2.4,0,4.8,0,7.2,0,.67-.17.88-.86.88C100.16,54.72,89.33,54.72,78.5,54.7Z" transform="translate(-9.13 -35.51)"/><path class="cls-5" d="M21.76,153.15c1.31-2.59,2.51-5,3.7-7.36a.89.89,0,0,1,.93-.55c6.88,0,13.76,0,20.63,0,.94,0,.77.57.77,1.11v20.74c0,8.72,0,17.43,0,26.15,0,1-.18,1.29-1.22,1.28q-7.12-.09-14.27,0c-1.05,0-1.33-.26-1.33-1.32,0-12.88,0-25.75.06-38.62,0-1.14-.24-1.5-1.43-1.45C27.07,153.22,24.51,153.15,21.76,153.15Z" transform="translate(-9.13 -35.51)"/><path class="cls-15" d="M88.52,174.06a25.35,25.35,0,0,0,0,2.62c.13,1.17-.33,1.59-1.46,1.41a7.51,7.51,0,0,0-1,0c0-.92.06-1.84,0-2.75-.11-1.06.25-1.5,1.32-1.33C87.8,174.05,88.17,174,88.52,174.06Z" transform="translate(-9.13 -35.51)"/></svg>