<?xml version="1.0" encoding="utf-8"?>
<!-- Generator: Adobe Illustrator 22.1.0, SVG Export Plug-In . SVG Version: 6.00 Build 0)  -->
<svg version="1.1" id="圖層_1" xmlns="http://www.w3.org/2000/svg" xmlns:xlink="http://www.w3.org/1999/xlink" x="0px" y="0px"
	 viewBox="0 0 245.8 245.8" style="enable-background:new 0 0 245.8 245.8;" xml:space="preserve">
<style type="text/css">
	.st0{fill:#38322F;}
	.st1{fill:#FA9BAA;}
	.st2{fill:#FA9DAC;}
	.st3{fill:#FEFEFE;}
	.st4{fill:#FEEFF1;}
	.st5{fill:#FEFDFD;}
	.st6{fill:#FAFAFA;}
	.st7{fill:#FDFDFD;}
	.st8{fill:#F89BAA;}
	.st9{fill:#FEFCFC;}
	.st10{fill:#F8F5F5;}
	.st11{fill:#F99BAA;}
	.st12{fill:#F599A8;}
	.st13{fill:#F79AA9;}
</style>
<g>
	<path class="st0" d="M225.1,143.1c1.4,2,3,3.7,4.5,5.5c3,3.6,6,7.1,8.9,10.8c0.8,1,1.2,2.3,0.8,3.8c-0.2,0.9,0.2,1.9-0.1,2.9
		c-0.3,1.1-0.9,2-1.7,2.7c-1.7,1.4-3.4,2.8-5.1,4.1c-0.5,0.4-0.5,0.8-0.5,1.3c0,6.4,0,12.8,0,19.2c0,1.4,0,2.7-0.3,4.1
		c-0.6,3.3-2.6,4.3-5.3,4.4c-3.9,0.1-7.8,0.1-11.6,0c-3.2-0.1-5.3-2.2-5.4-5.5c-0.1-2.7-0.2-5.4,0-8c0.2-2.9,1.1-4.8,5-5.4
		c0.7-0.1,0.8-0.3,0.7-0.9c0-1.1,0-2.2,0-3.4c0-0.7-0.1-1-0.9-1c-2.4,0.1-4.9,0-7.3,0c-0.8,0-1,0.2-1,1c0.1,2.4,0.1,4.8,0,7.2
		c-0.1,1.6,0,3.2-0.4,4.8c-0.3,1.2-0.9,2.2-1.9,2.9c-3.6,2.5-7.1,5-10.7,7.5c-2.5,1.7-5.6,1.2-7.4-1.3c-1.1-1.5-2.1-3-3.2-4.5
		c-0.9-1.3-1.5-2.6-1.1-4.2c0.1-0.4-0.2-0.8-0.3-1.1c-0.5-1.4,0.3-3.4,1.8-4.6c1.3-1,2.6-1.9,3.9-2.9c0.3-0.2,0.6-0.5,1-0.7
		c1.1-0.8,1.5-1.7,1.2-3c-0.1-0.5-0.4-0.6-0.8-0.7c-0.6-0.2-1.3-0.3-1.9-0.5c-1.3-0.6-2.2-1.6-2.7-2.9c-0.3-0.9-0.8-1-1.6-0.6
		c-1.4,0.8-3,1.1-4.6,1.1c-4.9,0-9.8,0-14.7,0c-1.5,0-1.6,0.1-1.6,1.6c0,3.5,0,7,0,10.5c0,0.6,0,1.3-0.3,1.9c0,2.4,0,4.8-0.1,7.2
		c-0.1,2-0.6,3.8-2.4,5c-0.7,0.5-1.5,0.6-2.2,0.7c-2.4,0.2-4.9,0.3-7.3,0c-3.5-0.4-4.5-2.7-4.7-5.8c-0.3-6.8-0.1-13.6-0.1-20.4
		c0-1-0.2-1.3-1.2-1.3c-3.3,0.1-6.5-0.1-9.8,0.1c-0.7,0.5-1.5,0.3-2.3,0.3c-1.2,0-2.3,0.1-3.2,0.8c-1.4,1.5-3.3,1.7-5.4,1.7
		c1.7,3.1,3.4,6.1,5,9c0.8,1.4,1.5,2.8,1.9,4.5c0.7,3.6-0.5,6.4-3.8,8c-1.9,1-3.7,2.4-5.9,2.8c-1.8,0.4-3.9-0.3-5-1.9
		c-1.6-2.3-2.8-4.9-4.1-7.3c-1.3-2.3-2.6-4.7-4.1-7c0,2.4,0,4.8,0,7.2c0,1.6,0,3.1-0.3,4.7c-0.6,3.3-2.6,4.4-5.4,4.4
		c-4.8,0.1-9.5,0-14.3,0c-1.9,0.1-3.6-1.1-4.3-3.1c-0.2-0.5-0.4-1.1-0.4-1.7c-0.5,1.4-1.3,2.7-2.4,3.8c-2.1,1.6-4.3,1.7-6.5,0.5
		c-0.8-0.4-1.6-0.9-2.4-1.3c-1.9-1.1-1.9-1.1-3.8,0.2c-0.7,0.5-1.4,1.1-2.2,1.4c-2.6,1-5.2,0.2-6.9-2.1c-2.5-3.5-5.1-7-7.6-10.5
		c-0.2-0.3-0.3-0.8-0.8-0.7c-1.1,1.4-1.9,3-3,4.5c-0.7,1.1-1.4,2.2-2,3.3c-0.8,1-1.3,2.3-2.1,3.3c-0.7,0.9-1.4,2-2.8,1.9
		c-2.2,0.6-4.1,0.1-5.8-1.2c-0.4-0.3-0.7-0.5-1.2,0c-0.8,0.9-1.8,1.3-2.9,1.4c-2.5,0.3-4.9,0.3-7.4,0c-3.6-0.4-4.7-2.8-4.7-6
		c-0.1-7.9-0.1-15.7,0-23.6c0-0.8-0.2-1.3-0.9-1.9c-1.9-1.6-3.6-3.3-5.1-5.2c-0.9-1.1-1.2-2.4-1-3.8c0.1-0.9-0.3-1.8,0-2.8
		c0.3-1,0.6-2,1.4-2.7c1.6-1.6,3.2-3.1,4.9-4.6c0.6-0.5,0.8-0.9,0.8-1.6c0-2.7-0.1-5.4,0-8.2c0.1-2,0.6-3.9,2.6-5.1
		c0.9-0.5,1.9-0.8,2.8-0.8c2.6,0,5.2-0.4,7.7,0.4c1.7,0.5,2.7,1.6,3.2,3.3c0.4,1.5,0.4,3,0.5,4.5c1.8-0.5,3.6-0.2,5.4-0.3
		c0.4,0,0.9,0.3,1.1-0.4c0.2-0.8,0.1-1.5,0.1-2.3c-0.1-2.3,1.1-4.3,3.3-5.1c0.8-0.3,1.6-0.4,2.5-0.4c1.6,0,3.2,0,4.8,0
		c4,0,6.2,2.1,6.4,6c0.1,1.6,0.1,1.6,1.6,1.6c2.8,0,5.7-0.3,8.4,0.9c0.5,0.2,0.5-0.2,0.5-0.5c0.2-4.8,2.8-6.4,7.5-6.4
		c7.2,0,14.5,0,21.7,0c0.9,0,1.9,0,2.8,0c3.5,0,7,0,10.4,0c1.7,0,3.3-0.2,4.8-0.9c0.6-0.3,1.4-0.5,2.1-0.6c2.7-0.5,5,0.6,6.2,3
		c0.9,1.9,1.7,4,2.3,6c0.6,1.8,0.4,3.6,0.1,5.5c-0.2,1.7-1.2,3-2.7,3.7c-3.5,1.6-6.9,3.3-11,2.9c-1.5-0.1-3,0-4.4,0
		c-0.5,0-1,0-1,0.7c0,0.7,0.5,0.7,1,0.7c4.1,0,8.2,0,12.2,0c0.5,0,0.9-0.2,1.3-0.6c1.4-2,3.6-2.5,5.8-2.5c4.7,0,9.4,0,14,0
		c0.4,0,0.8,0,1.2,0c1.7,0,1.7,0,1.6-1.7c0-2.6,0-5.3,0-7.9c0.1-1.8-0.2-3.7,0.3-5.5c0.8-2.9,2.7-4.4,5.8-4.5c0.7,0,1.4,0,2,0
		c1.2,0,2.4,0,3.6,0c2.2,0.1,4,0.9,5.1,2.9c0.5,1.3,0.8,2.6,0.8,4c0,3.8,0,7.5,0,11.3c0,1.5,0.1,1.5,1.6,1.6c5.5,0,11-0.1,16.5,0.1
		c0.8,0,1.2-0.4,1.6-0.9c1.9-2.2,3.7-4.5,5.7-6.7c1.6-1.8,3.1-3.6,4.6-5.5c1.4-1.6,2.7-3.4,4.3-5c0.6-0.6,1.3-1.1,2.2-1.4
		c2.3-0.7,4.2-0.1,6,1.4c1,0.8,2,1.6,2.9,2.5c1.5,1.6,1.7,1.6,3.2,0c1-0.8,1.9-1.5,2.8-2.4c1.8-1.6,3.9-2.3,6.3-1.4
		c1.6,0.6,2.6,2,3.7,3.3C223.1,140.4,224.3,141.6,225.1,143.1z"/>
	<path class="st0" d="M217.4,81.1c0,3.5,0,6.9-0.1,10.4c0,1.3-0.2,2.6-0.9,3.8c-1.2,1.9-3.2,2.1-5.4,2.4c0.8,1.7,1.7,3.4,2.5,5
		c1.2,1,1.5,2.4,2.1,3.7c0.2,0.4,0.3,0.9,0.6,1.3c1,2,2,4,3,6c0.6,1.3,1.3,2.5,1.8,3.8c0.5,1.3,0.7,2.6,0.3,4
		c-0.2,0.6-0.1,1.2,0,1.8c0.6,2.7-0.4,5-2.9,6.3c-3,1.6-6,3-9.1,4.4c-3.5,1.6-6.3,0.5-8.1-3c-1.8-3.6-3.5-7.2-5.3-10.8
		c-2-4-4-8-6-11.9c-0.8-1.7-1.6-3.4-2.4-5.1c-0.6-1.3-1-2.6-0.5-4c0.2-0.7,0-1.1-0.8-1.1c-0.6,0-1.2-0.2-1.7,0.4
		c-0.2,0.4-0.1,0.8-0.1,1.2c0,8.7,0,17.4,0,26c0,0.5,0,1,0,1.5c0,1.9,0.1,3.7-0.8,5.5c-1.1,1.8-2.9,2.5-4.9,2.6
		c-1.8,0.1-3.6,0-5.4,0c-4.3,0.1-8.6,0.1-12.9,0c-1.5,0-3.1,0.1-4.6-0.2c-0.8-0.2-1.6-0.4-2.3-0.9c-1.6-1.3-2.2-3-2.2-5
		c0-4.7,0-9.4,0-14.1c0-2.1,0.6-4,2.6-5.2c1.2-0.7,2.5-0.9,3.8-1c1.3,0,2.6,0,3.8,0c0.9,0,1.3-0.3,1.3-1.2c0-2.8,0-5.6,0-8.4
		c0-0.8-0.3-1.3-1.2-1.3c-1.5,0-3,0-4.6,0c-0.8,0-1.2,0.2-0.9,1.1c0.5,1.7,0,3.2-0.7,4.6c-2.5,5.1-5.2,10.2-7.6,15.3
		c-1.9,4-3.9,7.9-5.8,11.8c-0.7,1.4-1.7,2.6-3.2,3.3c-2.1,1-4,0.3-5.9-0.7c-2.7-1.2-5.3-2.5-7.9-3.9c-1.5-0.8-2.6-1.9-3-3.6
		c-0.2-0.6-0.3-1.3-0.1-1.9c0.4-1.3,0.3-2.6-0.1-3.9c0-0.1,0-0.3,0-0.4c0.2-2.4,1.6-4.4,2.5-6.5c1.4-3,2.9-5.8,4.3-8.8
		c0.9-1.8,1.8-3.6,2.7-5.4c0.3-0.7,0.5-1-0.5-1.1c-1.1-0.1-2.1-0.3-3.1-0.9c-1.8-1.1-2.6-2.8-2.6-4.8c0-1.6,0-3.3,0-4.9
		c0-0.5,0-1-0.2-1.5c-0.1-0.3-0.1-0.6-0.1-0.8c0.1-3.2,0.1-6.3,0.5-9.4c0.2-1.9,1.3-3.4,2-5.1c0.3-0.8,0.7-1.5,1-2.3
		c0.3-0.7,0.1-1.1-0.7-1.1c-0.6,0-1.1,0-1.7-0.1c-1.4-0.2-2.7-0.8-3.5-2.1c-0.6-0.9-1.4-1.2-2.5-1.2c-20.2-0.1-40.4,0-60.6,0
		c-1.5,0-1.6,0.1-1.6,1.7c0,16.7,0,33.3,0,50c0,0.3,0,0.6,0,0.8c-0.2,1.5-0.6,2.8-1.5,4c-3,4.2-6,8.4-9.1,12.5c-2.2,2.9-7,2.8-9-0.2
		c-2.1-1.5-4.3-3.1-6.4-4.6c-2.2-1.5-2.9-3.3-2.2-5.9c0.1-0.6,0.2-1.2,0-1.9c-0.6-1.9-0.1-3.5,1-5c1.8-2.5,3.5-5,5.3-7.5
		c0.4-0.6,0.7-1.2,0.7-2c0-4.5,0-9-0.1-13.5c-0.3-0.4-0.3-1-0.3-1.5c0-4.5,0-9,0-13.5c0-0.6,0.1-1.1,0.4-1.6c0-10.6,0-21.2,0.1-31.8
		c0-2.1,0.4-4.1,2.4-5.3c1.1-0.7,2.4-0.9,3.7-0.9c10.2,0,20.4,0,30.6,0c1,0,1.3-0.2,1.2-1.2c-0.1-2.1,0.4-4.1,2.4-5.4
		c1-0.6,2.2-0.9,3.4-0.9c3,0,6,0,9,0c3.8,0,5.9,2.1,6,5.9c0,1.6,0,1.6,1.6,1.6c9,0,18.1,0,27.1,0c1.8-0.2,3.2,0.5,4.2,2
		c0.5,0.8,1.2,1,2.1,1c2.4,0,4.9,0,7.3,0c0.6,0,1.2,0,1.7,0.3c1.3,0.4,2-0.1,2.5-1.4c0.8-2,1.8-3.9,2.7-5.9c1.5-3.3,4.3-4.4,7.6-2.9
		c3,1.3,5.9,2.6,8.8,4c2,1,3.6,2.4,3.2,5.7c-0.1,0.4,0,0.6,0.4,0.6c0.3,0,0.6,0,1,0c16.6,0,33.2,0,49.8,0c2.1,0,4.1,0.5,5.3,2.5
		c0.6,1,0.8,2.2,0.8,3.3c0,4.5,0,9,0,13.4c0,3.7-1,5.9-5.1,6.5c-9.8,0.5-19.6,0.2-29.3,0.3c-0.4,0-0.9,0-1.3,0
		c-0.9,0-1.3,0.3-1.3,1.3c0,3.8-0.3,3.2,3,3.2c7.9,0,15.8,0,23.7,0c1.8,0,3.5,0.3,4.7,1.7C218,75.6,218.2,78.3,217.4,81.1z"/>
	<path class="st1" d="M38.6,132.5c1.1,0.6,1.9,1.5,3.2,1.8c2.5,0.6,4.3-0.1,5.8-2.1c2.8-3.9,5.6-7.8,8.4-11.6c0.9-1.2,1.5-2.5,1.8-4
		c0.2-1.7,0-3.3,0.1-5c0.4-0.8,0.8-0.1,1.1,0.1c1.8,1.1,3.4,2.4,5,3.7c0.4,0.3,0.8,0.7,1.2,1c1.2,0.9,1.3,1,2.4-0.1
		c2.3-2.2,4.8-4.1,7.5-5.8c1.2-0.7,2.5-1.3,3.9-1.5c1.9-0.3,3.2,0.3,4,2c1.2,2.3,1.1,4.7,0.9,7.2c-0.2,2.4-0.5,4.8-1.1,7.1
		c-0.2,0.9,0.1,1.4,1,1.7c3.2,1,6.3,2.2,9.3,3.9c1.3,0.7,2.4,1.7,3.3,2.9c1,1.3,1,2.8,0,3.7c-7.6,0-15.1,0-22.7,0.1
		c-2.3,0-4.4,0.6-5.5,2.9c-0.6,1.4-0.8,2.9-0.7,4.6c-3-2-6.3-1.3-9.4-1.4c-1.9-0.1-1.8,0-1.9-1.9c-0.1-2-0.6-3.8-2.4-5
		c-0.7-0.5-1.6-0.7-2.4-0.8c-2.4-0.1-4.8-0.3-7.2,0c-3.1,0.4-4.5,2.3-4.7,5.5c0,0.6,0.1,1.2-0.1,1.8c0-0.2-0.1-0.3-0.1-0.5
		c0.2-1.4-0.3-2.3-1.5-3.2c-2.4-1.7-2.4-4-0.3-6.1C38,133.2,38.3,132.8,38.6,132.5z"/>
	<path class="st1" d="M45.2,193c1-1.5,2-3.1,3-4.6c3.3,2.7,4,6.6,1.3,9.5c-2,2.1-4.3,4-6.1,6.3c-0.3,0.4-0.7,0.8-0.9,1.3
		c0.2,0.4,0.6,0.2,0.9,0.2c3.2,0,6.3-0.1,9.5-0.3c2.7-0.2,5.2,1.2,5.8,4.2c0.6,2.9,1.4,5.8,2.6,8.6c0.2,0.4,0.2,0.9,0.7,1.2
		c0.8-1.1,1.5-2.2,2.2-3.4c1-1.8,1.8-3.8,2.7-5.6c1.3-2.5,3.5-3.6,6.3-3c1.6,0.3,3.1,0.9,4.6,1.3c1.5,0.4,3,0.7,4.5,0.9
		c1.2,0.1,1.4-0.2,0.9-1.2c-1.1-2.2-2.5-4.3-4-6.3c-0.2-0.3-0.6-0.6-0.6-1c1-1.1,1.7-2.5,2.6-4.1c0.4,3,1.8,4.8,4.6,5.3
		c1.5,2.5,3.1,4.9,3.6,7.8c0.6,3.1-0.8,4.8-4,5c-3.8,0.2-7.4-0.7-10.9-1.8c-2.7-0.8-2.7-0.8-3.8,1.7c-1.4,3.2-3,6.3-5.3,8.9
		c-0.2,0.2-0.3,0.4-0.5,0.5c-2.8,2.4-5,2.1-7-1.1c-1.6-2.7-2.5-5.6-3.3-8.6c-0.3-1-0.5-2-0.7-3c-0.1-0.9-0.4-1-1.4-0.9
		c-4.2,0.4-8.4,0.8-12.5-0.1c-0.7-0.2-1.4-0.4-2-0.8c-1.5-0.9-1.9-2.2-1.5-3.9c0.4-1.6,1.4-2.8,2-4.2c1.9-0.7,2.8-2.4,3.8-4
		c0.3-0.4,0.6-0.9,0.8-1.3c0.8-0.6,1.2-1.5,2-2.1C45.6,193.9,45.2,193.4,45.2,193z"/>
	<path class="st1" d="M216,107.7c-0.8-1.7-1.7-3.3-2.5-5c1.1-0.3,1.9-1.2,2.9-1.7c0.9-0.5,1.8-0.9,2.7-1.3c3-1.1,5.1,0.3,5.6,3.5
		c0.6,3.6,0,7.2-0.6,10.7c-0.5,2.9-0.6,2.9,2.2,3.8c2.6,0.9,5.2,1.9,7.7,3.3c1,0.6,1.9,1.2,2.7,2c2.1,2.1,2,4.1-0.2,6
		c-2.4,2.1-5.3,3.3-8.3,4.5c-1.1,0.5-2.3,0.9-3.5,1.2c-0.8,0.2-0.9,0.6-0.7,1.4c0.5,2.3,0.8,4.5,1.2,6.8c-1.4-1.4-2.6-2.9-3.8-4.4
		c-0.8-1-1.7-1.9-2.8-2.5c-0.3-2.7,1.2-5.1,3.8-6c2.4-0.8,4.8-1.7,7.1-2.8c0.7-0.3,1.9-0.6,1.9-1.4c0-0.7-1.2-0.9-1.9-1.2
		c-2.2-1.1-4.6-1.8-7-2.6c-0.5-0.2-1-0.3-1.3-0.8c0.7-2.4-0.4-4.3-1.4-6.3c-0.2-0.5-0.4-0.9-0.7-1.4c-0.1-1.7,0.4-3.4,0.5-5.1
		c0.1-0.8,0.1-1.6,0.1-2.4c0-0.7-0.3-0.7-0.8-0.4C217.8,106.4,216.9,107.1,216,107.7z"/>
	<path class="st1" d="M160.4,189.1c0-4.5,0-9-0.1-13.6c0-0.9,0.4-0.9,1.1-0.9c5.3,0,10.6,0,16,0c1.7,0,3.4-0.2,4.8-1.4
		c0.7-0.5,1.1-0.2,1.2,0.4c0.3,1.7,1.4,2.8,2.9,3.6c0.8,1.7,1.1,3.5,0.5,5.3c-1,1-2.1,1.6-3.3,2.4c-1.7,1.2-2.5,2.8-2.6,4.8
		c-3.4-1.2-6.1-3.4-8.8-5.6c-0.2-0.2-0.5-0.4-0.7-0.6c-2-1.6-2-1.6-3.9,0.1C165.3,185.8,162.9,187.6,160.4,189.1z"/>
	<path class="st1" d="M217.4,81.1c-0.2-1.5,0-2.9-0.2-4.4c-0.5-3.5-2.8-4.7-5.8-4.8c-7.7,0-15.4,0-23.1,0c-1,0-2.1,0-3.1,0
		c-0.6,0-0.8-0.2-0.8-0.8c0-1.2,0-2.3,0-3.5c0-0.7,0.3-0.9,0.9-0.9c1.9,0,3.8,0,5.8,0c8.1,0,16.2,0,24.3,0c0.4,0,0.9,0,1.3,0.1
		c-1,0.3-2,0-3.2,0.2c2.3,1,4.5,1.8,6.6,3c1,0.6,1.9,1.2,2.7,2c2.1,2.1,1.9,4.1-0.3,6C220.9,79.3,219.2,80.3,217.4,81.1z"/>
	<path class="st1" d="M36.9,75.6c0,5.5,0,11,0,16.6c-3.5-1.2-7-2.4-10-4.8c-2.5-1.9-2.6-4.1-0.4-6.3c2.4-2.3,5.5-3.5,8.5-4.8
		C35.7,76.1,36.3,75.9,36.9,75.6z"/>
	<path class="st1" d="M139.7,41c-3.4,0-6.8,0-10.1,0.1c-0.3,0-0.5,0-0.7-0.3c-0.9-1.9-2.6-2.7-4.5-3.1c0.3-0.1,0.4-0.3,0.5-0.6
		c0.8-2.5,2.8-3.3,5.3-2.4c2.5,0.9,4.7,2.4,6.8,4C137.9,39.4,139,40.1,139.7,41z"/>
	<path class="st2" d="M127,175.9c0.4-1,1.2-1.4,2.3-1.3c1,0.1,2.1,0.1,3.2,0.1c-0.7,1.3-2,1.9-3.4,1.6
		C128.4,176.2,127.7,176,127,175.9z"/>
	<path class="st3" d="M96.5,137.5c0.8-1.7,0.6-2.8-0.7-4.1c-2.2-2.4-5.1-3.5-8-4.7c-1.5-0.6-3.1-1.1-4.6-1.6
		c-0.7-0.2-0.8-0.5-0.7-1.2c0.7-3.5,1.3-7.1,1.2-10.7c0-1-0.2-1.9-0.4-2.8c-0.8-2.9-2.6-3.8-5.5-2.7c-2.9,1.1-5.4,3-7.7,4.9
		c-1,0.9-2.1,1.7-3.1,2.7c-0.5,0.4-0.7,0.5-1.3,0c-2.4-2.2-4.9-4.2-7.7-5.9c-0.3-2.2,0-4.4-0.1-6.7c0-0.4,0.3-0.4,0.6-0.3
		c0.5,0.2,0.8,0.5,1.2,0.8c2,1.6,4,3,6.3,4.1c0.2,0.1,0.4,0.2,0.7,0.3c3.4,1.2,5.2,0,5.7-3.5c0.4-3.6-0.2-7-0.9-10.4
		c-0.7-3.6-0.8-2.9,2.2-4c2.9-1.1,5.8-2.2,8.4-4c0.9-0.6,1.8-1.3,2.5-2.2c1-1.4,0.9-2.6-0.2-3.9c-1.8-2.2-4.3-3.2-6.8-4.3
		c-1.8-0.8-3.6-1.4-5.4-2c-1.3-0.4-1.5-0.7-1.2-2c0.6-2.9,1-5.8,1.2-8.8c0-0.3,0-0.7,0.5-0.9c13,0,26,0,39,0c0.8,0,1.4,0.2,2.1,0.7
		c2.4,2.1,5.3,3.2,8.3,4.3c1,0.4,2,0.7,3.1,1c1.4,0.5,1.6,0.8,1.3,2.2c-0.7,3.3-1.2,6.7-1.1,10.1c0,1.1,0,2.3,0.4,3.4
		c0,0.2,0,0.5,0,0.7c0.2,1.6,0,3.3,0.1,4.9c0,0.7-0.3,0.7-0.8,0.6c-1.3-0.4-2.6-0.8-3.9-1.3c-0.8-0.3-1-0.9-0.8-1.6
		c0.5-2.3,0.8-4.7,1.1-7.1c0.2-1.9,0.2-3.8-0.2-5.6c-0.6-3-2.4-4-5.3-3c-2.8,1-5.1,2.9-7.5,4.7c-1,0.8-1.9,1.7-2.9,2.5
		c-1,0.9-1.2,0.8-2.2,0c-2.9-2.5-5.9-5-9.4-6.6c-1.2-0.5-2.4-1-3.7-0.7c-1.6,0.4-2.5,1.8-2.7,4c-0.3,3.3,0.1,6.5,0.7,9.6
		c0.2,0.8,0.3,1.7,0.5,2.5c0.2,0.9-0.1,1.4-1,1.7c-1.9,0.6-3.8,1.3-5.6,2.1c-2.1,0.9-4.1,1.9-5.8,3.5c-2.4,2.3-2.3,4.2,0.4,6.3
		c2.4,1.9,5.1,2.9,7.9,4c1.1,0.4,2.2,0.8,3.3,1.1c0.9,0.3,1.3,0.8,1.1,1.8c-0.5,2.4-0.8,4.8-1.1,7.2c-0.2,1.9-0.2,3.8,0.2,5.6
		c0.6,2.8,2.3,3.8,5,2.9c2.3-0.7,4.3-2.2,6.2-3.6c1.5-1.1,2.9-2.4,4.3-3.6c1.1-0.9,1.3-0.9,2.4,0c2.5,2.1,5,4.2,7.9,5.8
		c1,0.6,2.1,1,3.2,1.3c2,0.5,3.3-0.2,4.1-2.1c0.3-0.7,0.4-1.4,0.4-2.1c0-0.4,0-0.9,0.7-0.8c0.4,1.4,0.7,2.8,0.1,4.3
		c-0.2,0.6,0.1,1.2,0.2,1.7c-0.7,1.2-2,1.7-3,2.7c-0.9,0.8-1.7,1.6-2.6,2.3c-1.1,0.9-1.2,0.8-2.2,0c-3-2.5-5.9-5-9.5-6.6
		c-1.2-0.5-2.4-1-3.7-0.6c-1.6,0.5-2.4,1.8-2.6,4c-0.2,2.8,0,5.6,0.5,8.4c0.1,0.5,0.3,0.9-0.1,1.4C98.4,137.5,97.5,137.5,96.5,137.5
		z"/>
	<path class="st1" d="M93.2,142.6c6.1,0,12.2-0.1,18.2,0c1.9,0,3.6-0.8,5.2-1.5c0.9-0.4,1.3-0.2,1.6,0.7c0.5,1.4,1,2.8,1.6,4.1
		c0.2,0.6,0.1,0.8-0.5,1.1c-2.9,1.3-5.8,2.1-9.1,2c-9.9-0.2-19.8,0-29.8-0.1c-1.1,0-1.4,0.3-1.4,1.4c0.1,4,0,8,0,12
		c0,0.9,0.1,1.2,1.1,1.2c4.2-0.1,8.3-0.1,12.5,0c0.9,0,1.1-0.3,1.1-1.1c0-3.4,0-6.8,0-10.2c0-0.8,0.2-1.1,1.1-1.1
		c1.4,0.1,2.9,0.1,4.3,0c0.9,0,1.3,0.2,1.2,1.2c-0.1,3.4,0,6.8,0,10.2c0,0.9,0.2,1.1,1.1,1.1c6.8,0,13.7,0,20.5,0
		c1.1,0,1.4,0.3,1.3,1.3c-0.1,1.4-0.1,2.7,0,4.1c0.1,0.9-0.2,1.1-1.1,1.1c-6.7,0-13.4,0-20.2,0c-1.6,0-1.6,0-1.6,1.6
		c0,7.2,0,14.5,0,21.7c0,0.9-0.2,1.2-1.2,1.2c-4-0.1-8.1,0-12.1,0c-0.8,0-1.1-0.2-1.1-1c0.1-1.5,0.1-3,0-4.6c0-0.7,0.2-1,0.9-1
		c2,0.1,3.9,0,5.9,0c0.7,0,1-0.2,1-0.9c0-5.4,0-10.8,0-16.2c0-0.9-0.4-0.9-1.1-0.9c-6.3,0-12.6,0-18.8,0c-1,0-1.3-0.2-1.3-1.2
		c0-8.4,0-16.7,0-25.1c0-1,0.3-1.3,1.3-1.3C80.4,142.7,86.8,142.6,93.2,142.6z"/>
	<path class="st1" d="M54,173.5c3.2,4.4,6.2,8.5,9.2,12.7c1,1.3,1.9,2.7,2.9,4c0.4,0.6,0.5,0.9-0.2,1.4c-1.3,0.8-2.5,1.7-3.7,2.7
		c-0.7,0.6-1,0.4-1.5-0.3C56.9,188.5,53,183,49,177.6c-0.8-1.1-0.8-1.1-1.5,0c-3.4,5.4-6.9,10.7-10.2,16.1c-0.5,0.7-0.8,0.9-1.5,0.4
		c-1.2-0.8-2.4-1.6-3.6-2.3c-0.8-0.5-0.8-0.8-0.3-1.5c3.3-5.1,6.5-10.2,9.8-15.4c0.2-0.4,0.4-0.7,0.8-1.3c-0.9,0-1.7,0-2.5,0
		c-2.3,0-4.6,0-6.8,0c-0.7,0-0.9-0.2-0.9-0.9c0-1.6,0.1-3.1,0-4.7c0-0.8,0.2-0.9,1-0.9c3.5,0,7,0,10.4,0c1,0,1.3-0.2,1.3-1.2
		c-0.1-3.2-0.1-6.3,0-9.5c0-0.9-0.3-1.1-1.1-1.1c-2.8,0.1-5.5,0-8.3,0c-1,0-1.2-0.3-1.2-1.2c0.1-1.4,0.1-2.8,0-4.2
		c0-0.9,0.2-1.2,1.1-1.1c2.8,0.1,5.5,0,8.3,0c1,0,1.2-0.3,1.2-1.2c-0.1-1.9,0-3.8,0-5.8c0-0.8,0.2-1,1-0.9c1.6,0.1,3.1,0,4.7,0
		c0.7,0,0.9,0.2,0.9,0.9c0,2,0,4,0,6c0,0.8,0.3,1,1,1c3.6,0,7.1,0,10.7,0c1,0,1.2,0.3,1.2,1.2c0,5.3,0,10.6,0,15.8
		c0,0.9,0.2,1.3,1.2,1.3c2.6-0.1,2.6,0,2.6,2.5c0,1-0.1,1.9,0,2.9c0.1,0.8-0.2,1.1-1.1,1.1c-3.9,0-7.8,0-11.6,0
		C54.9,173.5,54.6,173.5,54,173.5z"/>
	<path class="st4" d="M155.3,181c0,4.2,0,8.3,0,12.5c0,1-0.3,1.3-1.3,1.2c-1.4-0.1-2.9-0.1-4.3,0c-0.9,0.1-1.1-0.3-1.1-1.1
		c0-8.4,0-16.7,0-25.1c0-1-0.3-1.2-1.3-1.2c-7,0-14.1,0-21.1,0.1c-1.1,0-1.4-0.3-1.3-1.3c0.1-1.4,0.1-2.8,0-4.2
		c-0.1-1,0.3-1.2,1.2-1.2c7.1,0,14.2,0,21.2,0c0.9,0,1.2-0.2,1.2-1.2c-0.1-5.8,0-11.7,0-17.5c0-0.8,0.2-1.1,1-1.1
		c1.6,0.1,3.1,0.1,4.7,0c0.8,0,1,0.3,1,1c0,5.8,0,11.7,0,17.5c0,1,0.3,1.2,1.3,1.2c7.1,0,14.2,0,21.2,0c1,0,1.2,0.3,1.2,1.2
		c-0.1,1.4-0.1,2.7,0,4.1c0.1,1.2-0.4,1.4-1.5,1.4c-7-0.1-13.9,0-20.9-0.1c-1.2,0-1.3,0.4-1.3,1.4
		C155.3,172.7,155.3,176.9,155.3,181z"/>
	<path class="st1" d="M99.4,137.5c-0.4-2.4-0.8-4.9-0.8-7.3c0-1.7,0-3.5,0.8-5.1c0.7-1.4,2.1-2.1,3.7-1.8c3.1,0.6,5.5,2.4,8,4.2
		c1.5,1.1,2.9,2.3,4.2,3.5c0.5,0.5,0.8,0.4,1.3,0c2-1.7,3.9-3.6,6.1-5c0.4,1.7,1.6,2.8,3.1,3.5c2.5,1.2,5,2.4,7.5,3.7
		c0.1,1.9-0.4,3.6-0.7,5.4c-0.3,1.6-0.3,1.7,1.3,2.2c3,1,5.9,2.1,8.6,3.6c0.5,0.3,0.9,0.5,1.1,1c0,2.7,0,5.5,0,8.2
		c-0.7,1.2-1.9,1.5-3.1,1.9c-4.7,0-9.3,0-14,0.1c-2.3,0-4.5,0.5-5.8,2.7c-0.2,0.4-0.6,0.4-0.9,0.4c-4.4,0-8.8,0-13.2,0
		c-0.9,0-0.9-0.4-0.9-1.1c0-0.7,0.1-1.1,0.9-1.1c2,0.1,4,0,6,0c1.9,0.1,3.7-0.3,5.4-1c1.7-0.8,3.6-1.2,5.1-2.3
		c1.6-1.1,1.9-2.7,2.1-4.6c0.3-3.4-1.3-6.1-2.3-9.1c-0.8-2.4-3.3-4.4-6.5-3.5c-0.2,0-0.3,0.1-0.5,0.1c-2.9,1.6-6.1,1.3-9.2,1.3
		C104.2,137.5,101.8,137.5,99.4,137.5z"/>
	<path class="st1" d="M207.5,163.9c6,0,12.1,0,18.1,0c0.9,0,1.1,0.2,1.1,1.1c0,9.4,0,18.9,0,28.3c0,1-0.3,1.2-1.2,1.2
		c-3.4-0.1-6.8,0-10.2,0c-0.9,0-1.1-0.3-1.1-1.1c0.1-1.5,0.1-3,0-4.4c0-0.9,0.3-1.1,1.1-1c1.3,0.1,2.6,0,4,0c0.6,0,0.9-0.1,0.9-0.8
		c0-5.3,0-10.6,0-16c0-0.6-0.2-0.8-0.8-0.8c-6,0-11.9,0-17.9,0c-0.8,0-0.9,0.4-0.9,1c0,4.9,0,9.8,0,14.6c0,0.8-0.2,1.2-0.9,1.7
		c-3.1,2.1-6.2,4.3-9.3,6.5c-0.6,0.4-1,0.5-1.4-0.2c-0.9-1.3-1.8-2.6-2.7-3.8c-0.4-0.6-0.3-0.8,0.2-1.2c2.3-1.6,4.5-3.2,6.8-4.7
		c0.5-0.4,0.8-0.8,0.8-1.4c0-3.8,0-7.6,0-11.4c0-0.9-0.3-1.1-1.1-1.1c-1.4,0.1-2.8,0-4.2,0c-0.6,0-0.8-0.2-0.8-0.8
		c0-1.6,0.1-3.1,0-4.7c-0.1-0.9,0.4-1,1.1-1C195.3,163.9,201.4,163.9,207.5,163.9z"/>
	<path class="st1" d="M27.9,161.8c0,0.6,0,1,0,1.4c0,10,0,20.1,0,30.1c0,1.1-0.3,1.4-1.4,1.4c-1.3-0.1-2.6-0.1-3.8,0
		c-1,0.1-1.3-0.2-1.3-1.3c0.1-6.9,0-13.8,0-20.7c0-3.1,0-6.2,0-9.4c0-0.4,0-0.8,0-1.4c-0.8,0.8-1.5,1.3-2.1,1.9
		c-0.5,0.5-0.8,0.4-1.2-0.1c-1.1-1.2-2.3-2.4-3.4-3.5c-0.4-0.4-0.5-0.6,0-1.1c1.3-1.2,2.5-2.4,3.7-3.6c0.4-0.4,0.6-0.4,1,0
		c0.6,0.7,1.3,1.4,2.1,2.3c0-1.6,0-3,0-4.3c0-3.9,0-7.8,0-11.6c0-0.9,0.2-1.2,1.1-1.2c1.4,0.1,2.9,0.1,4.3,0c0.9,0,1.1,0.3,1.1,1.2
		c0,5,0,10,0,15c0,0.2,0,0.4,0,0.9c0.8-0.8,1.5-1.5,2.2-2.1c0.4-0.4,0.6-0.6,1-0.1c1.2,1.3,2.5,2.6,3.7,3.9c0.4,0.4,0.3,0.6-0.1,1
		c-1.2,1.1-2.4,2.2-3.6,3.4c-0.5,0.5-0.8,0.4-1.2-0.1C29.3,163.1,28.7,162.5,27.9,161.8z"/>
	<path class="st1" d="M186.4,147.6c-2.2,2.6-4.3,5.2-6.5,7.8c-0.2,0.2-0.3,0.4-0.6,0.3c-6.1-0.5-12.1-0.1-18.2-0.2
		c-0.9,0-0.8-0.5-0.8-1c0-3.9,0-7.8,0-11.8c0-1.5-0.3-2.9-0.7-4.3c0.7-0.3,1.2,0.2,1.7,0.5c2.4,1.5,4.5,3.3,6.7,5
		c1.2,1,1.2,1,2.3-0.1c2.3-2.2,4.8-4.2,7.6-5.8c1.2-0.7,2.5-1.3,3.9-1.5c1.8-0.3,3.1,0.3,3.9,2c1.3,2.6,1.2,5.4,0.8,8.2
		C186.5,147.1,186.4,147.3,186.4,147.6z"/>
	<path class="st3" d="M78.5,200.9c1.6,1.6,2.7,3.6,3.8,5.5c0.5,0.8,0.9,1.8,1.4,2.6c0.3,0.6,0.1,0.8-0.5,0.8c-2-0.1-4-0.5-5.9-1
		c-1.2-0.3-2.4-0.8-3.7-1.1c-3.2-0.9-5.7,0.4-6.9,3.3c-1.2,3-2.7,6-4.6,8.6c-0.1,0.1-0.2,0.2-0.4,0.4c-1.7-3.4-2.7-6.9-3.4-10.5
		c-0.5-2.7-3.2-4.3-5.8-3.9c-3.5,0.4-7,0.4-10.7,0.3c0.6-1.3,1.5-2.3,2.4-3.3c1.4-1.5,3-3,4.5-4.5c2.5-2.3,2.8-4.9,0.9-7.7
		c-0.5-0.7-1-1.4-1.5-2c0.4-0.9,0.6-0.1,0.8,0.1c1.5,2.1,3,4.1,4.5,6.2c1.3,1.7,2.5,3.5,3.8,5.2c1.6,2.2,4.8,2.8,7.1,1.3
		c0.4-0.3,0.9-0.6,1.2-0.9c1.3-1.4,2.7-1.5,4.2-0.3c0.6,0.5,1.3,0.7,2,1.1C74.1,202.4,76.3,202.4,78.5,200.9z"/>
	<path class="st3" d="M221,121.4c3.2,1,6.5,2.1,9.5,3.6c0.3,0.2,0.6,0.3,0.9,0.5c0.7,0.4,0.7,0.6,0,1c-2.6,1.5-5.3,2.5-8.1,3.5
		c-0.7,0.2-1.4,0.4-2,0.8c-1.8,1-2.5,2.6-2.7,4.5c0,0.3,0,0.6-0.2,0.8c-1-0.1-2-0.5-3.1-0.2c-1.9,0.4-3,1.8-4.4,2.8
		c-0.5,0.4-1.1,0.8-1.6,1.2c-1.1,0-2.3,0.3-3.4,0c-0.9-0.7-1.8-1.3-2.6-2.1c-1.8-1.8-3.8-2.5-6.3-1.8c-0.5-0.4-0.5-1-0.6-1.5
		c-0.4-1.8-1.6-3-3.4-3.5c-2.6-0.8-5.1-1.7-7.5-2.9c-0.5-0.2-1-0.4-1.2-0.9c0-0.5,0-1,0-1.4c0-0.2,0.1-0.3,0.3-0.5
		c2.4-1.4,5.1-2.3,7.7-3.3c1.1-0.4,2.2-0.8,3-1.7c0.2-0.3,0.5-0.5,0.9-0.3c1.8,3.6,3.6,7.2,5.3,10.8c0.9,1.9,2.2,3.2,4.3,3.5
		c1.2,0.2,2.3-0.2,3.3-0.6c2.9-1.3,5.7-2.7,8.6-4.1c2.3-1.1,4.1-3.4,3.1-6.5C220.8,122.5,220.7,121.9,221,121.4z"/>
	<path class="st1" d="M139,134c1.4-0.7,2.4-1.9,3.1-3.4c4.4-8.9,8.8-17.7,13.2-26.6c0.9-1.7,1.5-3.4,0.7-5.4c-0.2-0.7-0.1-1,0.7-1
		c2,0,3.9,0,5.9,0c0.7,0,0.8,0.3,0.8,0.9c0,3.3,0,6.6,0,9.8c0,0.7-0.3,0.8-0.9,0.9c-2.1,0.1-4.2-0.2-6.3,0.2c-3,0.5-4.3,2.7-4.3,5.2
		c-0.1,5-0.1,9.9,0,14.9c0,1.7,0.5,3.2,1.9,4.3c-0.7,0.9-1.6,1.5-2.6,2c-1,0-1.9,0-2.9,0.1c-2.4,0.4-4,1.6-4.6,4
		c-0.9,0.7-1.8,0.3-2.7-0.2C139.4,138.8,138.3,135.7,139,134z"/>
	<path class="st1" d="M234.4,162.3c0,0.3-0.3,0.5-0.5,0.6c-1.2,1-2.4,1.9-3.6,3c-0.6,0.5-0.9,0.5-1.4-0.1
		c-4.9-5.9-9.9-11.8-14.8-17.7c-0.7-0.8-1.4-1.7-2.1-2.5c-0.5-0.5-0.4-0.8,0.1-1.2c1.1-0.9,2.3-1.8,3.3-2.8c0.7-0.7,1.1-0.7,1.8,0.1
		c4.8,5.8,9.6,11.5,14.4,17.2c0.8,0.9,1.6,1.9,2.4,2.8C234.1,161.9,234.3,162.1,234.4,162.3z"/>
	<path class="st1" d="M185.4,166.3c-1.5-1.3-3.1-2.6-4.6-3.9c-0.2-0.2,0.3-0.6,0.5-0.8c3.9-4.6,7.7-9.2,11.6-13.9
		c1.7-2.1,3.5-4.1,5.2-6.2c0.4-0.5,0.7-0.7,1.3-0.1c1.2,1.1,2.4,2.1,3.7,3.1c0.5,0.4,0.5,0.7,0.1,1.1c-5.7,6.7-11.4,13.5-17.1,20.2
		C186,166,185.9,166.3,185.4,166.3z"/>
	<path class="st3" d="M151.2,135.8c0.8-0.7,1.6-1.5,2.6-2c1.4,0.9,2.9,1.1,4.5,1.1c0.7,0,1.5,0,2.2,0c0.7,0.1,1.2,0.6,1.8,0.9
		c1.9,1.3,3.8,2.6,6.1,3.2c2.4,0.6,3.7-0.2,4.5-2.5c0.2-0.6,0.1-1.3,0.8-1.7c1.9,0,3.8,0,5.7-0.1c1.7-0.1,3.2-0.8,4.2-2.4
		c0.4-0.2,0.8,0,1.2,0.1c2,0.9,4,1.5,6.1,2.2c1.3,0.5,1.5,0.7,1.2,2c-0.4,1.8-0.4,3.7-1.2,5.5c-1.5,1.8-3,3.5-4.4,5.3
		c-0.3-0.5-0.1-1,0-1.5c0.2-2,0.2-4.1-0.3-6c-0.8-3-2.6-3.9-5.5-2.8c-2.9,1.1-5.3,2.9-7.6,4.9c-1,0.8-1.9,1.7-2.9,2.5
		c-0.6,0.6-1.1,0.7-1.8,0c-2.2-2.1-4.6-3.9-7.2-5.5c-0.4-0.3-0.9-0.4-1.4-0.7c-1.4-2.1-3.4-2.7-5.8-2.6
		C153,135.9,152.1,135.8,151.2,135.8z"/>
	<path class="st1" d="M123.4,191.5c0.1,0.3-0.2,0.3-0.3,0.4c-1.6,0.9-3.2,1.7-4.7,2.6c-0.5,0.3-0.7,0.1-0.9-0.3
		c-3.5-6.3-6.9-12.6-10.4-18.9c-0.3-0.5-0.2-0.7,0.3-0.9c1.5-0.8,3-1.6,4.5-2.5c0.4-0.2,0.6-0.2,0.9,0.2c3.5,6.3,7,12.7,10.6,19
		C123.4,191.3,123.4,191.4,123.4,191.5z"/>
	<path class="st1" d="M74.9,194.7c-0.1-0.1-0.3-0.1-0.5-0.2c-1.5-0.8-2.9-1.6-4.4-2.4c-0.5-0.3-0.6-0.5-0.3-1
		c3.5-6.2,7-12.5,10.4-18.7c0.3-0.6,0.6-0.6,1.1-0.3c1.4,0.8,2.8,1.5,4.2,2.3c0.6,0.3,0.7,0.5,0.4,1.2c-3.5,6.2-6.9,12.4-10.3,18.6
		C75.4,194.3,75.3,194.6,74.9,194.7z"/>
	<path class="st1" d="M190.8,142.3c0.2-1.9,0.5-3.7,0.9-5.5c0.2-0.9,0.1-1.4-1-1.7c-2.5-0.7-4.8-1.6-7.2-2.6
		c0.7-1.7,0.7-3.5,0.8-5.3c2.7,1.5,5.5,2.5,8.4,3.4c2.3,0.7,3.7,2.1,4,4.4c0.1,0.4,0.1,0.7,0.2,1c-2,0.8-3,2.6-4.4,4.1
		C192,140.9,191.4,141.6,190.8,142.3z"/>
	<path class="st3" d="M139,134c0.1,0.8,0.2,1.7,0.3,2.5c0.6,2.6,1.8,3.5,4.4,3.5c-0.4,1.8-0.1,3.7-0.3,5.5
		c-3.3-2.1-6.8-3.4-10.5-4.5c-1-0.3-1.2-0.7-1-1.7c0.6-2,0.5-4.1,1.2-6.1c0.6,0.3,1.1,0.5,1.7,0.8C136.2,134.5,137.6,134.3,139,134z
		"/>
	<path class="st3" d="M200.8,158.6c2.2-2.7,4.3-5.2,6.4-7.7c0.3-0.4,0.5-0.2,0.7,0.1c2.1,2.5,4.2,5,6.4,7.6
		C209.8,158.6,205.4,158.6,200.8,158.6z"/>
	<path class="st5" d="M186.8,182.6c0.1-1.8-0.3-3.5-0.5-5.3c0.8,0.1,1.6,0.3,2.5,0.4c0.1,0,0.3,0,0.3,0.1c0.3,0.3,0,3.3-0.3,3.5
		C188.1,181.8,187.4,182.2,186.8,182.6z"/>
	<path class="st6" d="M86.5,158.6c-0.4,0-0.7-0.1-1.1,0c-1.1,0.2-1.3-0.3-1.2-1.3c0-0.7,0.2-0.9,0.9-0.9c1,0,1.9,0.1,2.9,0
		c1-0.1,0.8,0.6,0.8,1.2c0.1,0.6,0,1.1-0.9,1C87.5,158.6,87,158.6,86.5,158.6z"/>
	<path class="st7" d="M69.9,180.3c-0.8,1.4-1.3,2.4-2,3.6c-0.7-1-1.4-1.9-2.2-3C67.1,181,68.4,180.9,69.9,180.3z"/>
	<path class="st8" d="M205.9,140c1.1-0.1,2.3-0.7,3.4,0C207.2,141.8,207.9,141.7,205.9,140z"/>
	<path class="st9" d="M140.4,155.5c1-0.6,2-1.2,3.1-1.9c0.1,1.9,0.1,1.9-1.7,1.9C141.3,155.5,140.9,155.5,140.4,155.5z"/>
	<path class="st10" d="M45.2,193c0.8,0.6,0.8,1.1,0,1.6c-0.8,0.5-1.2,1.4-2.1,1.7C43.8,195.2,44.5,194.1,45.2,193z"/>
	<path class="st4" d="M139.7,57c-4,0-7.7,0-11.5,0c-1.1,0-1.3-0.3-1.3-1.3c0.1-2.8,0.1-5.6,0-8.4c0-0.9,0.2-1.2,1.2-1.2
		c5.1,0.1,10.2,0,15.4,0.1c1,0,1.4-0.3,1.8-1.2c1.3-3,2.8-6,4.1-9c0.3-0.7,0.6-0.8,1.2-0.5c2.7,1.3,5.5,2.6,8.3,3.8
		c0.7,0.3,0.8,0.6,0.5,1.2c-0.8,1.6-1.5,3.2-2.2,4.8c-0.4,0.7-0.1,0.9,0.6,0.8c0.3,0,0.6,0,0.8,0c19,0,37.9,0,56.9,0
		c1,0,1.3,0.2,1.3,1.3c-0.1,2.8-0.1,5.6,0,8.4c0,1-0.3,1.2-1.3,1.2c-20.8,0-41.5,0-62.3,0c-1.1,0-1.7,0.3-2.1,1.3
		c-2.7,6-5.5,12-8.3,17.9c-0.1,0.2-0.1,0.4-0.2,0.5c0.3,0.3,0.7,0.2,1.1,0.2c7.9,0,15.8,0,23.6,0c1,0,1.2-0.3,1.2-1.3
		c-0.1-5,0-9.9,0-14.9c0-0.9,0.3-1.1,1.1-1.1c2.9,0.1,5.8,0.1,8.8,0c0.8,0,1,0.2,1,1c0,5,0,9.9,0,14.9c0,1.2,0.4,1.4,1.4,1.3
		c10.1,0,20.2,0,30.4,0c1,0,1.4,0.2,1.3,1.3c-0.1,2.8-0.1,5.6,0,8.4c0,0.9-0.2,1.2-1.2,1.2c-10.2,0-20.3,0-30.5-0.1
		c-1.2,0-1.4,0.3-1.4,1.4c0,11.5,0,23,0.1,34.6c0,1.1-0.3,1.3-1.4,1.3c-6.6,0-13.1-0.1-19.7,0c-1.2,0-1.4-0.4-1.4-1.5
		c0.1-2.7,0.1-5.4,0-8c0-1,0.2-1.4,1.3-1.4c3.1,0.1,6.2,0,9.4,0.1c0.7,0,0.9-0.2,0.9-0.9c0-8.2,0-16.4,0-24.6c0-1-0.5-0.9-1.2-0.9
		c-11.7,0-23.4,0-35.2,0c-1.7,0-1.5,0.2-1.5-1.6c0-2.8,0-5.6,0-8.4c0-0.7,0.1-1.4,0.5-2.1c2.7-5.8,5.3-11.5,8-17.3
		C139.3,58.1,139.5,57.6,139.7,57z"/>
	<path class="st4" d="M88.4,53.6c-11.4,0-22.9,0-34.3,0c-1,0-1.3,0.2-1.3,1.3c0,18.5,0,37,0,55.4c0,1-0.3,1.8-0.9,2.6
		c-2.7,3.7-5.4,7.4-8,11.1c-0.5,0.7-0.8,0.9-1.5,0.3c-2.3-1.8-4.7-3.4-7.1-5.1c-0.7-0.5-0.6-0.8-0.2-1.4c2.1-2.9,4.1-5.8,6.2-8.7
		c0.5-0.6,0.7-1.3,0.7-2.1c0-21,0-42,0-63c0-1.2,0.3-1.4,1.4-1.4c11.8,0,23.5,0,35.3,0.1c1,0,1.3-0.2,1.3-1.2c-0.1-1.8,0-3.5,0-5.3
		c0-0.7,0.1-1,1-1c3,0.1,5.9,0,8.9,0c0.7,0,1,0.2,1,0.9c-0.1,1.8,0,3.6,0,5.4c0,0.9,0.2,1.2,1.2,1.2c10.3,0,20.6,0,31,0
		c1.6,0,1.6,0,1.6,1.6c0,2.7,0,5.4,0,8.2c0,0.9-0.2,1.1-1.1,1.1C111.6,53.6,100,53.6,88.4,53.6z"/>
	<path class="st1" d="M122.3,120c-0.6,0.3-0.4,0.8-0.4,1.3c-0.3,2.9-2.1,4.7-4.4,4.2c-1.3-0.3-2.5-0.7-3.7-1.4
		c-3-1.7-5.7-3.8-8.3-6.1c-0.7-0.6-1.1-0.6-1.8,0c-2.7,2.5-5.5,4.9-8.8,6.6c-5.3,2.8-7.4,0.4-7.7-4.7c-0.2-3.4,0.4-6.7,1-10
		c0.3-1.7,0.4-1.7-1.3-2.3c-3.5-1.2-7-2.3-10-4.4c-0.7-0.5-1.4-1-2-1.7c-1.4-1.8-1.3-3.3,0.2-4.9c1.8-2,4.1-3.1,6.5-4.1
		c1.9-0.8,3.9-1.5,5.8-2.2c0.6-0.2,0.9-0.4,0.7-1.2c-0.8-3.3-1.4-6.6-1.4-10c0-1.4,0-2.8,0.5-4.1c0.8-2.3,2.6-3.1,5.1-2.2
		c2.6,0.8,4.7,2.3,6.8,3.9c1.5,1.1,2.9,2.3,4.2,3.5c0.5,0.5,0.8,0.4,1.3,0c2-1.8,4-3.6,6.2-5.1c1.4-1,2.8-1.8,4.4-2.4
		c3.2-1.2,5.4,0,5.9,3.5c0.6,4-0.2,7.9-0.8,11.8c0,0.1-0.1,0.2-0.1,0.3c-0.4,1.2,0,1.7,1.2,2c1.2,0.3,2.4,0.8,3.9,1.3
		c0-1.9,0-3.6,0-5.4c0.2,1.9,0.2,3.8,0.1,5.7c0,2.2,0.6,4.2,2.7,5.2c1.2,0.6,2.6,0.8,4.3,0.7c-1.2,2.5-2.4,4.7-3.6,7
		c-2.2,1.3-4.5,2.1-6.9,3c-1.4,0.5-1.4,0.5-1.1,1.9c0.6,2.8,1.1,5.6,1.2,8.5c0,0.6-0.2,1.2,0,1.8C122.4,119.8,122.4,119.9,122.3,120
		z"/>
	<path class="st4" d="M216.2,119.7c0,0.4-0.3,0.4-0.6,0.5c-2.8,1.4-5.7,2.7-8.5,4.1c-0.5,0.3-0.7,0.1-1-0.4
		c-4.5-9.2-9.1-18.5-13.7-27.7c-0.3-0.6-0.2-0.8,0.4-1.1c2.8-1.3,5.5-2.7,8.2-4.1c0.7-0.4,0.9-0.1,1.2,0.5
		c4.5,9.2,9.1,18.3,13.6,27.5C216.1,119.3,216.1,119.5,216.2,119.7z"/>
	<path class="st4" d="M136.8,124.5c-0.2-0.1-0.4-0.2-0.6-0.3c-2.7-1.3-5.4-2.6-8.1-3.9c-0.7-0.3-0.8-0.6-0.5-1.3
		c4.5-9.1,9-18.2,13.5-27.3c0.4-0.7,0.6-0.9,1.4-0.5c2.7,1.4,5.3,2.7,8,4c0.6,0.3,0.8,0.5,0.4,1.2c-4.6,9.1-9.1,18.3-13.6,27.4
		C137.3,124.1,137.3,124.5,136.8,124.5z"/>
	<path class="st1" d="M125.5,85.2c-0.9-2-0.8-4.2-0.6-6.3c0.2-2.7,0.6-5.3,1.2-7.9c0.2-0.8-0.3-0.8-0.8-1c-3-1-5.9-2-8.7-3.4
		c-1.4-0.7-2.6-1.5-3.7-2.6c-0.3-0.3-0.7-0.4-1.1-0.4c-13.1,0-26.2,0-39.3,0c-0.5,0.5-1.2,0.4-1.8,0.4c-3.5,0-7,0-10.4,0
		c-1.7,0-1.8,0.1-1.8,1.8c0,12.1,0,24.3,0,36.4c0,0.7,0.2,1.5-0.4,2.2c0,2.3,0,4.7,0,7c-0.1,1.7,0.2,3.5-0.2,5.3
		c0-16.8,0-33.5,0-50.3c0-3,0-3,3-3c16.6,0,33.1,0,49.7,0c3.6,0,7.3,0,10.9,0c0.5,0,0.9-0.1,1.2,0.5c1,2.2,3,2.8,5.2,2.9
		c0.3,0,0.6,0,1,0c0.7-0.1,1,0.1,0.6,0.9c-0.9,1.9-1.8,3.9-2.7,5.9c-0.7,1.4-1,2.9-1,4.5C125.7,80.4,125.6,82.8,125.5,85.2z"/>
	<path class="st3" d="M187.5,99.1c-0.5,1.6,0.1,3.1,0.8,4.6c0.7,1.5,1.4,3,2.1,4.5c0.6,2.6,0.9,5.3,1.5,8c0.2,0.9,0,1.5-0.9,1.8
		c-1.9,0.6-3.7,1.3-5.5,2c-0.3,0.1-0.7,0.3-1,0c-0.1-1,0-2,0-3c0-0.8,0.2-1.4,0.7-2c1.4-1.7,1.4-2.7-0.1-4.4
		c-0.4-0.5-0.6-1.1-0.6-1.7c0-2.7,0-5.3,0-8c0.7-1,1.8-1.5,2.8-2C187.4,98.8,187.5,99,187.5,99.1z"/>
	<path class="st1" d="M184.6,120c2.1-0.8,4.2-1.6,6.4-2.4c0.6-0.2,0.8-0.5,0.7-1.2c-0.5-2.7-1.3-5.4-1.2-8.2c2,3.9,3.9,7.9,5.9,11.8
		c-3.3,3.1-8,3.3-11.7,5.6C184.3,123.7,184.4,121.9,184.6,120z"/>
	<path class="st3" d="M122.3,119.8c-0.6-1.6-0.3-3.3-0.6-4.9c-0.3-2.1-0.7-4.1-1.1-6.2c-0.1-0.4-0.2-0.7,0.3-0.9
		c2.7-0.9,5.4-1.9,8-3.2c0,0,0.1,0,0.2,0.1c-1.8,3.7-3.6,7.4-5.4,11C123.1,117,122.6,118.3,122.3,119.8z"/>
	<path class="st1" d="M173.7,134.9c-0.4,0.9-0.4,1.9-0.8,2.7c-0.8,1.6-2.1,2.3-3.9,1.9c-2.9-0.6-5.2-2.3-7.5-4
		c-0.3-0.2-0.6-0.4-0.8-0.6C165,134.9,169.3,134.9,173.7,134.9z"/>
	<path class="st11" d="M163.4,71.8c-0.7,0.4-1.5,0.2-2.2,0.2c-2.6,0-5.1,0-7.7,0c-0.9,0-0.9-0.2-0.6-0.9c0.6-1.2,1.1-2.4,1.7-3.6
		c0.2-0.5,0.5-0.7,1.1-0.7c2.2,0,4.5,0.1,6.7,0c1,0,1.2,0.3,1,1.2c-0.8,0.9-1.9,1-2.9,1.5c-0.4,0.2-0.9,0.3-1.4,0.5
		c-0.4,0.1-0.7,0.3-0.7,0.9c0.1,0.5,0.4,0.6,0.9,0.7c0.9,0,1.8,0,2.7,0C162.5,71.5,163,71.4,163.4,71.8z"/>
	<path class="st5" d="M216,107.7c0.9-1.4,2.4-1.9,3.8-2.8c0.1,3.1-0.2,6-0.9,8.9C217.9,111.7,217,109.7,216,107.7z"/>
	<path class="st12" d="M184.6,120c0,1.9,0,3.7,0,5.6c-0.1,0.1-0.1,0.1-0.2,0.2c0-9.2,0-18.3,0-27.5c0-0.2,0-0.4,0.2-0.5
		c0.6,1,0.5,1.9,0,2.9c0,2.7,0,5.5-0.1,8.2c0,0.7,0.5,1,0.9,1.5c1.3,1.4,1.6,3.1,0.3,4.4c-1.1,1.1-1.3,2.4-1.2,3.8
		C184.6,119,184.6,119.5,184.6,120z"/>
	<path class="st7" d="M163.4,71.8c-1.4,0-2.8-0.1-4.2,0c-1,0.1-1-0.6-1.2-1.2c-0.2-0.8,0.4-0.8,0.8-0.9c1.5-0.6,3.1-1.1,4.6-1.7
		C163.4,69.2,163.4,70.5,163.4,71.8z"/>
	<path class="st13" d="M184.6,100.6c0-1,0-1.9,0-2.9c0.6,0,1.3-0.1,1.9-0.1c1.5,0,1.5,0,1,1.4C186.4,99.3,185.6,100.3,184.6,100.6z"
		/>
	<path class="st1" d="M58.1,104.4c0-13.1,0-26.2,0-39.3c0-1.2,0.3-1.5,1.5-1.4c4.3,0.1,8.6,0,13,0c0,3.2-0.5,6.4-1.2,9.5
		c-0.2,1-0.1,1.5,1.1,1.8c3.2,0.9,6.3,2.1,9.2,3.8c1,0.6,1.9,1.2,2.7,2c2.1,2.1,2,4.1-0.3,6c-2.4,2.1-5.3,3.3-8.3,4.5
		c-1.2,0.5-2.5,0.9-3.7,1.3c-0.5,0.2-0.7,0.4-0.5,0.9c0.8,3.2,1.3,6.5,1.5,9.8c0.1,1.7,0,3.4-0.8,5c-0.8,1.7-2.1,2.4-4,2
		c-2.9-0.6-5.2-2.3-7.6-4C59.7,105.6,58.9,105,58.1,104.4z"/>
	<path class="st0" d="M57.6,161.3c0,1.6,0,3.2,0,4.8c0,0.7-0.1,1-0.9,1c-1.6-0.1-3.1,0-4.7,0c-0.6,0-0.8-0.2-0.8-0.7
		c0-3.4,0-6.9,0-10.3c0-0.6,0.2-0.7,0.8-0.7c1.6,0,3.1,0,4.7,0c0.7,0,0.9,0.2,0.9,0.9C57.6,157.8,57.6,159.6,57.6,161.3z"/>
	<path class="st3" d="M116.6,77.7c0.2,3.4-0.3,6.8-1.1,10.1c-0.7,3.2,1,6.1,3.9,6.8c2.9,0.7,5.8,1.9,8.5,3.3c1.2,0.6,1.1,0.7,0,1.4
		c-2.7,1.6-5.6,2.7-8.6,3.6c-2.5,0.7-4.5,3.4-3.7,6.6c0.8,3,1.1,6.1,1.3,9.2c0,0.4,0.2,0.9-0.2,1.1c-0.4,0.2-0.7-0.2-1.1-0.4
		c-2.7-1.6-5.1-3.5-7.3-5.6c-2.2-2.1-5.8-1.9-8.1,0.4c-2.2,2.2-4.6,4.2-7.4,5.7c-0.2,0.1-0.3,0.2-0.6,0.3c-0.3-2,0-3.8,0.2-5.7
		c0.2-1.9,0.6-3.7,0.9-5.5c0.4-2.5-1.2-4.9-3.4-5.6c-3.1-0.9-6.1-2-9-3.6c-0.3-0.2-0.9-0.3-0.9-0.7c0-0.5,0.6-0.6,0.9-0.8
		c2.7-1.5,5.5-2.7,8.5-3.5c2.4-0.7,4.5-3.5,3.6-6.5c-0.9-3.1-1.1-6.3-1.4-9.4c-0.1-0.9,0.3-1,1.1-0.6c2.5,1.4,4.7,3.2,6.8,5.1
		c1,0.9,2,1.8,3.5,2c1.5,0.2,2.9,0,4.1-0.9c2.6-1.9,4.7-4.3,7.5-6C115.4,78.2,115.9,77.8,116.6,77.7z"/>
</g>
</svg>
