<svg id="圖層_1" data-name="圖層 1" xmlns="http://www.w3.org/2000/svg" viewBox="0 0 226.29 226.4"><defs><style>.cls-1{fill:#199698;}.cls-2{fill:#c1f0ec;}.cls-3{fill:#fefefe;}.cls-4{fill:#d0b5f1;}.cls-5{fill:#b5c5f1;}.cls-6{fill:#beeeea;}.cls-7{fill:#bdb2e8;}.cls-8{fill:#c5b3ec;}.cls-9{fill:#ace5e2;}.cls-10{fill:#c1b3ea;}</style></defs><title>31</title><path class="cls-1" d="M201.31,50.36a11.34,11.34,0,0,0,3.44,3,11.1,11.1,0,0,1,5.85,6.22,4.37,4.37,0,0,0,1,1.48Q222.76,72.47,233.93,84c2,2,3.93,4.09,5.92,6.12a4.51,4.51,0,0,1,1.26,4.69c-3,10.64-5.93,21.3-8.9,31.95Q221.56,165,210.93,203.2a4.28,4.28,0,0,1-3.37,3.3Q162,218.19,116.41,229.94c-5.76,1.48-11.52,2.95-17.28,4.46a4.44,4.44,0,0,1-4.65-1.32Q83.74,222,73,211q-13.14-13.5-26.25-27a1.25,1.25,0,0,0-1.62-.37,15.19,15.19,0,0,1-19.74-7.78,15,15,0,0,1-.07-12.34,1.45,1.45,0,0,0-.32-1.94c-2.85-2.86-5.64-5.79-8.46-8.67a4.56,4.56,0,0,1-1.28-4.79Q20,131.3,24.58,114.5c1.91-6.88,3.91-13.75,5.67-20.67A64.8,64.8,0,0,0,31.67,82c.68-10.59.23-21.19.35-31.79,0-4.45,1.55-8.14,5.56-10.47a12.75,12.75,0,0,1,6.81-1.49c.88,0,1.72.09,2.32-.82a2.66,2.66,0,0,1,1.66-.89c4.68-1.19,9.35-2.41,14-3.59A1.8,1.8,0,0,0,63.65,32a12.2,12.2,0,0,1,9.68-6.26,7.93,7.93,0,0,1,6.44,2,1.42,1.42,0,0,0,1.5.36l28.63-7.4q22.91-5.89,45.81-11.77c1.16-.29,2.22-1,3.58-.55A6.4,6.4,0,0,1,162,10q10.11,10.41,20.22,20.83a2.77,2.77,0,0,0,2.19.9c7,0,14.08-.09,21.12,0,2.67,0,5.34.4,7.62,2.07a5,5,0,0,1,1.35,1.51c2,3.38,2.43,8.33,0,11.69-1.85,2.53-4.58,3.2-7.48,3.35C205.21,50.44,203.41,50.36,201.31,50.36Z" transform="translate(-15.02 -8.19)"/><path class="cls-2" d="M136.35,50.69c-1.81,1.49-3.92,1.89-6,2.3a8.07,8.07,0,0,0-6,5,5.28,5.28,0,0,1-1.4,1.89A68.51,68.51,0,0,0,100,101.44c-2.21,13.34-.32,26.17,4.71,38.62.54,1.32.56,1.33-.79,1.57a6.8,6.8,0,0,0-4.42,2.4c-.46.59-.91.3-1.38.2-2.16-.47-2.16-.48-2.16-2.66,0-5.33-4.14-8.08-9.06-7.45S80.3,138.35,80.4,142v.48c0,.6.17,1.31-.09,1.77s-1.08,0-1.65.11c-2.26.33-4.44.78-5.75,2.94a7.49,7.49,0,0,0-1,4.25,94.17,94.17,0,0,1-1.21,18.14c-.49,3.25,0,6.19,3,8.16a6.73,6.73,0,0,0,5.7,1.08c.92-.26,1.08,0,1.07.86q0,10,0,19.91c0,5.55,4.35,8.35,9.35,7.6a7.29,7.29,0,0,0,4.92-2.67c.29-.38.5-.42.85-.09a8.12,8.12,0,0,0,7,2.25l-6.12,22.5c-.5,0-.69-.43-1-.7Q72.72,205.19,50,181.81c-.59-.6-.57-.86,0-1.46a15.19,15.19,0,0,0-4.53-24.65c-6-2.63-11.66-1.55-16.61,2.76-.67.58-1,.62-1.59,0-2.61-2.76-5.27-5.47-7.93-8.18a1.2,1.2,0,0,1-.41-1.35q4-14.07,7.86-28.14a2.67,2.67,0,0,1,.21-.4,21.07,21.07,0,0,0,1.55,2c4.23,4.26,12,4.14,15.39-1.41,1.27-2.1,1.72-4.55,2.38-6.89a147,147,0,0,0,5-28.86c.42-5.63.29-11.27.3-16.9,0-3.28,0-6.56,0-9.84,0-1,.23-1.33,1.31-1.33q20,.06,39.95,0c7.44,0,14.88,0,22.32,0,4.07,0,7.51-2.08,8.7-6.32.09-.32.15-.66.6-.56C128.37,51.12,132.34,50.38,136.35,50.69Z" transform="translate(-15.02 -8.19)"/><path class="cls-3" d="M166.48,35.52q19.44,0,38.87,0a17,17,0,0,1,3.91.52,3.31,3.31,0,0,1,2.62,2.52,16.82,16.82,0,0,1,.46,2.22c.38,3.54-1.6,5.74-5.22,5.75q-11.46,0-22.92,0c-1,0-1.36.23-1.32,1.31.09,2.35.07,4.71,0,7.07,0,.93.27,1.13,1.15,1.12,5,0,9.92.12,14.87-.06s8.68,3,8.9,8.57c0,.84,0,1.68,0,2.52v44.75c0,5.68-2.78,8.51-8.48,8.61-2,0-3.92,0-5.88,0H134.93c-5.17,0-8-2.85-8-8V64.88a14.1,14.1,0,0,1,.52-4.38c.85-2.68,2.56-4.08,5.37-4.12,5.08-.07,10.16-.06,15.23,0,1,0,1.32-.19,1.29-1.22-.08-2.44-.07-4.88,0-7.32,0-.86-.25-1-1.07-1-6.84,0-13.68-.1-20.52.06-4.63.12-6.31-3.46-5.68-7.05a4.84,4.84,0,0,1,5.22-4.27Z" transform="translate(-15.02 -8.19)"/><path class="cls-4" d="M108.8,139.75a66.34,66.34,0,0,1,14.29-74.86v1.55c0,15.4,0,30.8,0,46.19,0,4.16,1.46,7.67,5.19,9.92a12.45,12.45,0,0,0,6.54,1.68q32,0,63.95,0a17.7,17.7,0,0,0,6-1.06,10.5,10.5,0,0,0,6.91-10.24q0-21.9,0-43.8V67.6a54.92,54.92,0,0,1,5.09,6.16,62.89,62.89,0,0,1,11.86,30.11c2.53,22.54-4.37,41.76-20.93,57.38-1,.91-2,1.7-3,2.57a.89.89,0,0,1-1.36,0,6.51,6.51,0,0,0-4.27-1.31q-24.83,0-49.67,0a7.56,7.56,0,0,0-6.78,3.36c-.35.54-.56.42-1.1.21-2-.74-2.13-2.17-2.08-4,.13-4.12,0-8.24,0-12.36a9.34,9.34,0,0,0-1.18-4.94c-1.59-2.64-4.25-3.21-7-3.39-1.84-.13-3.68-.06-5.52,0-.8,0-1.11-.23-1.22-1-.61-4.6-4.34-6.34-7.68-6.57C113.18,133.54,110.18,135.82,108.8,139.75Z" transform="translate(-15.02 -8.19)"/><path class="cls-3" d="M70.57,42a30.4,30.4,0,0,0-2.69-3.62c-1.84-2.24-1.78-4.19.29-6.25a8.33,8.33,0,0,1,6.19-2.7,4.38,4.38,0,0,1,3.44,1.66A77.26,77.26,0,0,1,84.74,41a1.78,1.78,0,0,0,1.78,1c9.4,0,18.8,0,28.2,0,4.57,0,7.15,3.93,5.37,8.18a4.85,4.85,0,0,1-4.94,3.07H50c-1.62,0-2.24.62-2.24,2.25,0,7.43.09,14.88,0,22.31a131.68,131.68,0,0,1-6.39,39.47c-1.09,3.31-3.83,4.86-7.09,4a6.07,6.07,0,0,1-4.59-7.12c.53-2.53,1.4-5,2-7.51a146.61,146.61,0,0,0,4.17-34.91c0-7.31,0-14.63,0-21.95A7.6,7.6,0,0,1,38,44.1,7.46,7.46,0,0,1,43.46,42H70.57Z" transform="translate(-15.02 -8.19)"/><path class="cls-3" d="M110.43,177.36H102a3.39,3.39,0,0,1-3.68-2.59c-1.06-2.93.51-5.66,3.57-5.86s6-.14,9-.09c1,0,1.36-.29,1.43-1.32.31-4.23.2-8.47.43-12.71,0-.78-.18-1-1-1-2.12.05-4.24,0-6.36,0-3.13,0-4.76-2.09-4.06-5.2a3.84,3.84,0,0,1,4.09-3.29q3,0,6.11.11c.79,0,1.06-.2,1-1-.07-1,0-1.92,0-2.88a4,4,0,0,1,4.73-3.9,4,4,0,0,1,3.65,4.06,11.3,11.3,0,0,1-.06,2.4c-.2,1,.26,1.17,1.14,1.15,3,0,6.08,0,9.12,0,3.34,0,4.54,1.23,4.55,4.58,0,5.84,0,11.68,0,17.51,0,.92.2,1.24,1.18,1.22,2.57,0,4,1.62,4,4.53,0,2.72-1.32,4.13-4,4.14-4.2,0-8.39,0-12.59,0-.15.51.2.8.39,1.12a64.77,64.77,0,0,0,14.67,17.74,3.37,3.37,0,0,1,.92,3.93,4.21,4.21,0,0,1-3.42,3.3,5.53,5.53,0,0,1-4.84-1.87,65.17,65.17,0,0,1-6-6.84,82,82,0,0,1-7.21-11c-.25-.45-.51-.89-.8-1.4-.66,1.49-1.23,2.94-1.92,4.32a54.47,54.47,0,0,1-12.23,15.58,3.58,3.58,0,0,1-4.12.72,4.81,4.81,0,0,1-3.16-4,3.44,3.44,0,0,1,1.34-2.58,74.81,74.81,0,0,0,8.45-10.26A31.78,31.78,0,0,0,110.43,177.36Z" transform="translate(-15.02 -8.19)"/><path class="cls-2" d="M194.9,205.87,100.35,230.2c.79-2.92,1.52-5.68,2.27-8.43,1.54-5.66,3.1-11.32,4.63-17a3.1,3.1,0,0,1,.85-1.53,59.46,59.46,0,0,0,9.72-12.13c.54-.92.77-.41,1.09.1a82.84,82.84,0,0,0,9.39,12,11.57,11.57,0,0,0,5.88,3.72,7.68,7.68,0,0,0,7.06-1.63,1.23,1.23,0,0,1,1.46-.24,9.32,9.32,0,0,0,3.4.58q23.7,0,47.4,0h1.42Z" transform="translate(-15.02 -8.19)"/><path class="cls-2" d="M130.79,181c1.84,0,3.43,0,5,0,3.05,0,5.83-.49,7.63-3.31.37-.59.82-.27,1.26-.13a76,76,0,0,0,14.22,3.19,60.31,60.31,0,0,0,22-1.39,26.87,26.87,0,0,1,7-.84q5.94.11,11.87,0c2.69,0,5-1,6.1-3.66a8.83,8.83,0,0,0,.61-5.86,2,2,0,0,1,.87-2.48,65.18,65.18,0,0,0,13.16-14c.19-.28.27-.69.83-.75l-11.65,41.8c-1.91-3.37-4.92-4-8.21-4q-28,0-56,0a7.36,7.36,0,0,0-4.71,1.49.88.88,0,0,1-1.4,0A67.1,67.1,0,0,1,130.79,181Z" transform="translate(-15.02 -8.19)"/><path class="cls-2" d="M155.31,12.87c-.95,3.55-1.84,6.89-2.75,10.22-.68,2.54-1.43,5.07-2.06,7.63-.2.79-.55,1-1.31,1-7.28,0-14.56,0-21.83,0-4.32,0-8,2.67-8.77,6.4-.13.64-.48.67-.94.52a13.74,13.74,0,0,0-4.51-.4c-8.2,0-16.4,0-24.6,0a1.63,1.63,0,0,1-1.62-.88c-1.22-2-2.56-3.85-3.92-5.86Z" transform="translate(-15.02 -8.19)"/><path class="cls-3" d="M174,201.77H145.45a3.55,3.55,0,0,1-3.55-3.36c-.4-2.59.34-4.22,2.23-4.81a4.74,4.74,0,0,1,1.3-.17l56.86,0c3.69,0,5.66,3.36,3.86,6.65-.77,1.42-2.17,1.66-3.6,1.67-4.36,0-8.72,0-13.08,0Z" transform="translate(-15.02 -8.19)"/><path class="cls-3" d="M92.16,171.12c0,9.8,0,19.6,0,29.4a2.7,2.7,0,0,1-1.54,2.6c-2,1.16-5,.46-6-1.4a3.82,3.82,0,0,1-.38-1.85q0-29.16,0-58.31c0-2.48,1.4-3.78,4.06-3.78s3.86,1.32,3.86,3.83Z" transform="translate(-15.02 -8.19)"/><path class="cls-3" d="M174.43,174.72H149.37c-2.72,0-4.17-1.6-4.17-4.56,0-2.4,1.51-3.81,4.09-3.81h49.77a3.56,3.56,0,0,1,3.73,3.41,11.62,11.62,0,0,1,.05,1.56c-.11,2.51-1.05,3.4-3.59,3.4Z" transform="translate(-15.02 -8.19)"/><path class="cls-5" d="M39.24,181a11.4,11.4,0,1,1,11.4-11.34A11.41,11.41,0,0,1,39.24,181Z" transform="translate(-15.02 -8.19)"/><path class="cls-2" d="M177.76,31.68H155.28c-.5,0-1,.08-.74-.73,1.65-5.95,3.26-11.9,4.94-18.08C165.58,19.15,171.55,25.3,177.76,31.68Z" transform="translate(-15.02 -8.19)"/><path class="cls-3" d="M82.56,157.4a106.54,106.54,0,0,1-1.47,15,3.27,3.27,0,0,1-3.34,2.95,3.39,3.39,0,0,1-3.42-3.33c-.13-1.86.45-3.64.64-5.47a89.9,89.9,0,0,0,.72-14.94c-.14-2.3.74-3.31,3-3.48a3.17,3.17,0,0,1,3.62,3.14C82.43,153.33,82.47,155.37,82.56,157.4Z" transform="translate(-15.02 -8.19)"/><path class="cls-3" d="M97.51,166.56a2.64,2.64,0,0,1-3-2.36c-.47-3.07-.79-6.17-1.18-9.25-.16-1.27-.39-2.53-.51-3.79-.18-1.94.82-3.1,2.86-3.42a2.8,2.8,0,0,1,3.46,2.44,125.41,125.41,0,0,1,2,13.36C101.33,165.14,99.56,166.54,97.51,166.56Z" transform="translate(-15.02 -8.19)"/><path class="cls-2" d="M226.13,82c1.76,1.66,3.67,3.38,5.5,5.18s3.57,3.66,5.34,5.5c.32.33.68.58.5,1.21-1.44,5-2.84,10.12-4.37,15.19A77.41,77.41,0,0,0,226.13,82Z" transform="translate(-15.02 -8.19)"/><path class="cls-2" d="M96.07,178.7c2.63,2.25,2.74,2.28,8.57,2.54-2.21,4.24-5.3,7.68-8.57,11.25Z" transform="translate(-15.02 -8.19)"/><path class="cls-2" d="M108.71,161.17c0,.92,0,1.84,0,2.75,0,.73-.15,1.13-1,1.05s-1.93.24-2.58-.15-.14-1.54-.27-2.35c-.21-1.25-.31-2.53-.49-3.79-.11-.73,0-1.14.9-1.06,1.14.1,2.71-.49,3.32.22s.12,2.19.12,3.33Z" transform="translate(-15.02 -8.19)"/><path class="cls-6" d="M57.64,38c1.53-.4,3.07-.78,4.59-1.2.82-.23.81.32.93.84.16.72-.37.55-.72.55-1.59,0-3.18,0-4.77,0Z" transform="translate(-15.02 -8.19)"/><path class="cls-7" d="M142,52.54a14.33,14.33,0,0,1,3.35-1.39c.35,1.07,0,1.52-1.07,1.4C143.63,52.49,143,52.54,142,52.54Z" transform="translate(-15.02 -8.19)"/><path class="cls-8" d="M189.1,52.25h-1.85c-.53,0-.55-.35-.51-.72.06-.61.44-.28.68-.2.58.2,1.16.44,1.73.66Z" transform="translate(-15.02 -8.19)"/><path class="cls-9" d="M196.25,50.8c-.46.14-.69-.08-1-.33C195.7,50.31,196,50.35,196.25,50.8Z" transform="translate(-15.02 -8.19)"/><path class="cls-1" d="M167.35,109H141.07c-2,0-2.58-.51-2.59-2.52V70.32a5.22,5.22,0,0,1,.26-1.76,1.48,1.48,0,0,1,1.51-1.13q4.14,0,8.28,0c.56,0,.76.14.72.74-.55,9.06-2.44,17.64-8.69,24.72A3.74,3.74,0,0,0,140,97c1.92,4.73,7.6,5.94,11,2.2a34.28,34.28,0,0,0,8.31-16.62,76.19,76.19,0,0,0,1.36-14c0-.85.24-1.07,1.07-1.06,2.88,0,5.76.06,8.64,0,.91,0,1.2.19,1.19,1.16,0,8.12,0,16.24,0,24.36a7,7,0,0,0,7.17,7.13q8,0,16.08,0c.93,0,1.24.22,1.19,1.18-.08,1.8,0,3.6,0,5.4s-.6,2.32-2.28,2.32Z" transform="translate(-15.02 -8.19)"/><path class="cls-1" d="M183.12,77.91c0-3.16,0-6.32,0-9.47,0-.75.15-1,1-1,3.2,0,6.4,0,9.59,0A2.07,2.07,0,0,1,196,69.73c0,6.19,0,12.38,0,18.58,0,.56-.17.77-.75.77-3.56,0-7.12,0-10.67,0a1.34,1.34,0,0,1-1.51-1.55C183.15,84.3,183.12,81.1,183.12,77.91Z" transform="translate(-15.02 -8.19)"/><path class="cls-1" d="M166,56.2c-1.48,0-3,0-4.43,0-.62,0-.83-.16-.82-.8,0-2.64,0-5.27,0-7.9,0-.56.15-.77.74-.77,3,0,6.06,0,9.1,0,.55,0,.76.16.76.75q0,4,0,8c0,.63-.3.7-.8.69C169.07,56.18,167.55,56.2,166,56.2Z" transform="translate(-15.02 -8.19)"/><path class="cls-1" d="M174.23,151.44c-8.87,0-17.75-.09-26.62,0-5.78.08-8.74-4.84-8-9.67.69-4.32,4-6.33,7.77-6.34,18.11-.05,36.22-.08,54.33,0,5.81,0,8.14,4.38,7.42,9.55-.62,4.4-4,6.42-8.05,6.42Z" transform="translate(-15.02 -8.19)"/><path class="cls-1" d="M120.76,161.13c0-2.2,0-4.4,0-6.59,0-.73.2-1,1-1,1.36.06,2.72.06,4.08,0,1.07-.05,1.62.48,1.63,1.46,0,4.35,0,8.71,0,13.07,0,.51-.26.58-.68.58-1.8,0-3.6,0-5.39,0-.67,0-.78-.25-.77-.85,0-2.24,0-4.48,0-6.72Z" transform="translate(-15.02 -8.19)"/><path class="cls-4" d="M148.36,105.12c3.08-.74,5.16-2.79,7.07-5.18,4.72-5.93,7.13-12.77,8.25-20.16a54.13,54.13,0,0,0,.72-7.62c0-.67.22-.88.9-.9,2.46-.06,2.46-.08,2.46,2.41,0,6.52,0,13,0,19.55,0,5.54,3.19,8.55,8.26,10.21a13.94,13.94,0,0,0,4.5.5c3.6,0,7.2,0,10.8,0,.42,0,.91-.11.9.6s-.49.6-.91.6Z" transform="translate(-15.02 -8.19)"/><path class="cls-4" d="M142.32,82.53c0-3.53,0-7.07,0-10.61,0-.44.15-.6.61-.65,2.11-.23,2.24-.15,2,1.89A26.93,26.93,0,0,1,142.32,82.53Z" transform="translate(-15.02 -8.19)"/><path class="cls-10" d="M144.5,105.12h-1.75c-.28,0-.46-.12-.41-.43s.31-.27.53-.21l1.66.5Z" transform="translate(-15.02 -8.19)"/><path class="cls-4" d="M187,78.24c0-2,0-3.92,0-5.87,0-.94.28-1.16,1.15-1.11,1.11.08,2.24,0,3.35,0,.57,0,.78.18.77.76q0,6.23,0,12.47c0,.59-.24.75-.78.74-1.2,0-2.4,0-3.6,0-.69,0-.9-.21-.88-.88C187,82.32,187,80.28,187,78.24Z" transform="translate(-15.02 -8.19)"/><path class="cls-4" d="M165.92,52.36c-.44-.15-1.3.41-1.3-.75,0-.74.15-1.15,1-1a5.75,5.75,0,0,0,.83,0c.62,0,1.15-.08,1.15.87s-.48.94-1.12.9Z" transform="translate(-15.02 -8.19)"/><path class="cls-3" d="M174.35,147.6c-9,0-18.08-.06-27.11.05a4.1,4.1,0,0,1-4-4.2c0-2.62,1.34-4.14,3.86-4.17,3.4,0,6.8,0,10.2,0h44.28c2.23,0,3.48,1,3.81,3,.43,2.68-.46,4.47-2.54,5.17a4.71,4.71,0,0,1-1.54.14Z" transform="translate(-15.02 -8.19)"/></svg>