<svg id="圖層_1" data-name="圖層 1" xmlns="http://www.w3.org/2000/svg" viewBox="0 0 215.36 180.01"><defs><style>.cls-1{fill:#e04a00;}.cls-2{fill:#d1d3d1;}.cls-3{fill:#e6bc73;}.cls-4{fill:#e6bc72;}.cls-5{fill:#f6eada;}.cls-6{fill:#e6ba71;}.cls-7{fill:#fefefe;}.cls-8{fill:#fefdfc;}.cls-9{fill:#d2cbc5;}.cls-10{fill:#d2cdc7;}.cls-11{fill:#d2d0cc;}.cls-12{fill:#fcf3ee;}.cls-13{fill:#fdfaf8;}.cls-14{fill:#d4bdb0;}.cls-15{fill:#d2c8c0;}.cls-16{fill:#e6b167;}.cls-17{fill:#d6a78f;}.cls-18{fill:#99d9e4;}.cls-19{fill:#c7e499;}.cls-20{fill:#f8dbcd;}.cls-21{fill:#e5a65d;}</style></defs><title>21</title><path class="cls-1" d="M29.33,197.91c-1.69-1.1-2.13-2.77-2.13-4.65,0-10.39,0-20.77,0-31.15,0-1-.22-1.38-1.3-1.32-1.61.08-2.07-.74-1.39-2.2.77-1.61.77-1.61-1-1.61-.44,0-.88,0-1.32,0-3.34-.1-5.08-2.73-3.7-5.77,1.17-2.58,2.49-5.09,3.8-7.61.86-1.64,2.43-2.06,4.12-2.17.88-.05,1.76,0,2.63-.07a2,2,0,0,1,1.48-.35H46.46a7.14,7.14,0,0,1,1.9.26,4.22,4.22,0,0,1,3.58,4.44c.06,1.31,0,2.62.15,3.95a41.32,41.32,0,0,0,2.59-5C55.81,142,57.83,141,60.56,141h6.72a2.1,2.1,0,0,1,1.59.36,44.78,44.78,0,0,0,5,0c.1-.08.19-.19.3-.2,3-.14,6.13-.7,9,.7.13,0,.32.28.35.22s-.09-.36-.1-.56a4.24,4.24,0,0,1,4.41-4.28c3.78-.17,7.59-.18,11.37,0,2.68.13,3.91,1.2,4.57,3.79a4.44,4.44,0,0,0,2.69,3.46c.38-.93.66-1.94,1-2.95a4.52,4.52,0,0,1,3.55-3.35c2.38.14,4.77.23,7.16.14,1.71-.06,3.41-.32,5.12-.27a1.62,1.62,0,0,0,.91-.25,9,9,0,0,1,5.06-1.17c3,0,5.92,0,8.87,0a9.42,9.42,0,0,1,1.91.16,4.47,4.47,0,0,1,4,4.29c.21,1.54.21,1.55,1.74,1.55,2.76,0,5.52,0,8.27,0a4.19,4.19,0,0,1,4,2.16,6,6,0,0,1,.43,2.69c.08,1.55-.12,3.11.11,4.66,1.21,1.09.57,2.55.73,3.85.07.5-.24,1.17.62,1.34.26-.35.13-.75.13-1.12,0-3.36,0-6.72,0-10.08,0-3.2,1.59-4.81,4.78-4.81h43.55c3.12,0,4.71,1.6,4.72,4.73,0,1,0,1.92,0,2.88,0,.77-.15,1.58.69,2.13.39.26.27.81.27,1.24v6.24c0,1.81-.36,2.18-2.16,2.18H190.25c-1.64,0-3.28,0-4.92,0-.47,0-1.17-.34-1.18.67s.64.73,1.15.74h23.52c2.81.08,4.26,1.51,4.34,4.31,0,1,0,2.08,0,3.12,0,.81-.19,1.65.7,2.23.37.24.26.81.26,1.25,0,7.63,0,15.27,0,22.91a2.3,2.3,0,0,1-.94,1.94c-1.37,1.09-2.68,2.27-4,3.42a2.14,2.14,0,0,1-1.34.73c-1.59.19-3.18,0-4.78.09-11.09.33-22.19.24-33.28.25-.48,0-1,0-1.44,0-1.62-.06-2.23-.63-2.37-2.23s-.13-1.53-1.69-1.61a4.34,4.34,0,0,1-2.08-.46c-.85-.51-1.32-.16-1.75.56-.3.52-.6,1-.94,1.53a2.5,2.5,0,0,1-1.35,1.13,5,5,0,0,1-1.88.24H115.2c-.48,0-1,0-1.43,0-2,.82-2.85.36-5-2.57-.22.29-.11.62-.15.91a2,2,0,0,1-2,2c-1.23.09-2.48,0-3.71,0-3.6,0-7.2,0-10.79,0-2,0-3-.72-2.91-2.71.06-1-.4-1.21-2-1.2-1,0-.84.64-.86,1.22-.1,3.08-.19,3.16-3.22,3.16H76c-1.63,0-3.24-.34-4.89-.28-1.07,0-2.13.18-3.21.21-1.2-.31-1.41-1.28-1.51-2.31-.14-1.38-.14-1.38-1.56-1.48-2.75-.18-3.93-1.2-4.52-3.89a7.28,7.28,0,0,1-.18-1.54c0-5,0-10,0-15.08,0-1.31,0-2.63,0-4v-.43q0-5.46,0-10.9c0-1-.2-1.62-1.4-1.72s-1.68-1.06-1.26-2.41.42-1.34-1-1.35a7.65,7.65,0,0,1-2.61-.28c-.83-.29-1,.12-.95.81q0,3.36,0,6.71c0,3,0,6.07,0,9.11v.44c0,1.34,0,2.69,0,4,.07,7.39,0,14.77,0,22.16,0,1.63-.53,2.14-2.19,2.15q-7.66,0-15.33,0c-1.6,0-2.18-.61-2.39-2.24s-.2-1.47-1.72-1.61A2.52,2.52,0,0,1,29.33,197.91Z" transform="translate(-11.54 -36.28)"/><path class="cls-1" d="M114.72,101c1.93.26,3.4,1.08,3.9,3.12a2,2,0,0,1,0,2.66c-.91,2.17-2.43,4-3.59,6-.28.49-1.1,1,.17,1.46.42.14.25.68,0,1l-1.44,2.32c-.79,2.44-2.4,4.39-3.79,6.47a2.41,2.41,0,0,1-2.25.85H75.86a3,3,0,0,1-2-.33h-5a2.35,2.35,0,0,1-1.61.33c-6.92,0-13.83,0-20.75,0a3,3,0,0,1-2.92-1.65c-.72-1.3-1.6-2.49-2.43-3.72-.17-.26-.37-.58-.74-.5s-.43.53-.45.87c-.06,1.08,0,2.16-.06,3.23s-.53,1.67-1.61,1.71c-2.8.1-5.6.06-8.4,0a1.4,1.4,0,0,1-.89-.31l-11.87,0c-1.47,0-1.55-.09-1.56-1.57,0-.6,0-1.2,0-1.8.08-1.36.22-2.52-1.69-3-1.37-.32-2-1.78-2.13-3.21a48.92,48.92,0,0,1,0-10c.31-2.6,1.52-3.6,4.19-3.92.78-.09,1-.31,1-1.06,0-7.12,0-14.24,0-21.35,0-.55.12-1.12-.77-1.16-.54,0-.58-.56-.58-1,0-1.32,0-2.64,0-4,0-.46-.07-.75-.58-.85A3.73,3.73,0,0,1,11.81,68,43.88,43.88,0,0,1,12,56.88a3.39,3.39,0,0,1,2.64-2.79c.69-.19.66-.43.52-1-.83-3.29-1.6-6.6-2.45-9.88-.8-3.07.85-5.79,4.26-5.84,5.47-.09,11-.08,16.43,0,2.4,0,3.78,1.33,4.42,3.65.44,1.6.88,3.2,1.47,4.78a4.8,4.8,0,0,0,.28-2.36c.11-1.69.46-3.27,2.08-4.2a6.08,6.08,0,0,1,3.11-.71h62c3.39,0,5.09,1.72,5.11,5.09,0,2.24,0,4.48,0,6.72a6.2,6.2,0,0,1-2.18,7.12,2,2,0,0,0-.9,1.83c0,.16,0,0,0,.12,0,4.25.46,3.35-3.16,6q-6.48,4.71-13,9.36a2.29,2.29,0,0,0-1.1,2.09c0,1.76,0,3.51,0,5.27.12,3.15-.34,6.28-.23,9.43a2.87,2.87,0,0,0,.13,1.3,38.67,38.67,0,0,1,.13,5.38c0,2.39,0,2.4,2.45,2.4h16.3A15.41,15.41,0,0,1,114.72,101Z" transform="translate(-11.54 -36.28)"/><path class="cls-1" d="M158.64,100.77c.43-.24.21-.64.21-1,0-3.28,0-6.56,0-9.84,0-1-.3-1.16-1.21-1.16-10.92,0-21.83,0-32.74,0-.92,0-1.61-.12-1.58-1.24-.6-.87-.32-1.86-.32-2.8A1.73,1.73,0,0,0,121.89,83a4.33,4.33,0,0,1-2.67-4.08c-.1-3.19,0-6.39,0-9.59,0-1.06,1-2,.6-2.94a9,9,0,0,1-1-2.77c0-5.88-.11-11.76,0-17.63,0-3,1.9-4.48,5.2-4.48q16.56,0,33.11,0c.92,0,1.37-.18,1.5-1.13.41-3.08,2.32-4,4.8-4,6.23-.1,12.48-.12,18.71,0,2.44,0,4.41.77,4.84,4.09.12.89.54,1,1.34,1q16.62,0,33.23,0c1.81,0,3.53.28,4.59,2a5.76,5.76,0,0,1,.75,3.09c0,5.16,0,10.32,0,15.48a4.93,4.93,0,0,1-1.63,4.2c-.31.23-.26.42-.06.68a5.56,5.56,0,0,1,.91,3.52c0,2.64,0,5.28,0,7.92-.05,2.07-.81,3.74-2.94,4.45-.53.17-.5.54-.5.94v3.36c0,1.67,0,1.7-1.66,1.7-10.68,0-21.36,0-32,0-1.26,0-1.49.35-1.48,1.53.05,7.68,0,15.36,0,23,0,2.4-.5,4.45-3.09,5.32-.49.16-.35.57-.35.91,0,1.28,0,2.56,0,3.84,0,.89-.38,1.21-1.22,1.21q-11.34,0-22.68,0a1.23,1.23,0,0,1-1.32-.8,1.19,1.19,0,0,1-.59-.73c-2-5-4.67-9.72-6.5-14.8a21.45,21.45,0,0,1-.66-2.06A4.54,4.54,0,0,1,154,101,6.79,6.79,0,0,1,158.64,100.77Z" transform="translate(-11.54 -36.28)"/><path class="cls-2" d="M158.64,100.77a39,39,0,0,0-4.16.31c-2,.44-3.79,2.84-3.07,5a67.87,67.87,0,0,0,4.78,11.45,50.12,50.12,0,0,1,2.65,6.27c-.51,1-.08,2.1-.38,3.16a4.91,4.91,0,0,1-4.75,3.8H123.48a4.65,4.65,0,0,1-4.68-4.74c0-6,0-12,0-18,0-.42.15-.88-.2-1.26a4.72,4.72,0,0,0,0-2.66,46.41,46.41,0,0,0,.17-6.67,4.79,4.79,0,0,1,3.55-4.69,4.93,4.93,0,0,1,1.42-.14h29.73a5,5,0,0,1,5.15,5.13C158.66,98.77,158.64,99.77,158.64,100.77Z" transform="translate(-11.54 -36.28)"/><path class="cls-2" d="M60.5,178.09q0,7.59,0,15.19a6.56,6.56,0,0,0,.62,3c.84,1.63,2.38,2,4,2s1.56-.19,1.58,1.62c0,.92,0,1.89,1.14,2.23.38.19.85-.1,1.21.2l0,8.76A4.79,4.79,0,0,1,64,216.24H34.44a4.77,4.77,0,0,1-5.16-5.13q0-6.6,0-13.2a11.19,11.19,0,0,0,3.31.38c.66-.07.78.26.81.85.13,3,.15,3,3.13,3h14c1.77,0,2-.23,2-2q0-11,0-22A16.92,16.92,0,0,1,60.5,178.09Z" transform="translate(-11.54 -36.28)"/><path class="cls-2" d="M69.15,202.34c-.4-.08-.85.12-1.21-.2H83.88c1.85,0,2.05-.21,2.06-2.08,0-.8-.23-1.8.15-2.33s1.38.2,2.12,0c1.09-.24,1.33.27,1.3,1.3-.08,2.32.19,2.53,2.49,2.53h13.79c2.14,0,2.44-.29,2.44-2.39v-1.45a5.86,5.86,0,0,1,1.5,2.1,2.87,2.87,0,0,0,3.2,1.75,4.76,4.76,0,0,1,.84,0c0,3.12-.07,6.23,0,9.35a5,5,0,0,1-5.28,5.31c-9.79-.11-19.57,0-29.36,0-3.32,0-5.21-1.88-5.21-5.18,0-2.59,0-5.19,0-7.78,0-.72-.2-1-1-1C71.71,202.36,70.43,202.34,69.15,202.34Z" transform="translate(-11.54 -36.28)"/><path class="cls-3" d="M91.26,92.64c0-4.55.18-9.12-.09-13.65a5.76,5.76,0,0,1,3-5.8c4.6-3,9-6.38,13.47-9.58a1.67,1.67,0,0,0,.8-1.61c0-.44,0-.89,0-1.32a3.6,3.6,0,0,1,1.86-4.07c1.24-.71,1.47-2.21,1.55-3.6.05-.87,0-1.75,0-2.63a5.78,5.78,0,0,1,1.86,4.49c0,9.07,0,18.14,0,27.21,0,3.55-1.94,5.51-5.46,5.51-5.19,0-10.39,0-15.58,0-1.1,0-1.38.32-1.3,1.35.09,1.23,0,2.47.07,3.71A.13.13,0,0,1,91.26,92.64Z" transform="translate(-11.54 -36.28)"/><path class="cls-3" d="M158.16,201.36a35.43,35.43,0,0,0,2.56-3.75c.21-.28.34-.71.79-.32a5,5,0,0,0,3.83,1c.79,0,1.1.23,1,1a5.83,5.83,0,0,0,0,1.32,1.47,1.47,0,0,0,1.62,1.52q14.07,0,28.14-.05c3.91,0,7.82,0,11.73,0a3.08,3.08,0,0,1-1.75.16c-3,0-6.07,0-9.11,0a1.68,1.68,0,0,0-1.7,1c-1.94,3.44-3.93,6.85-5.9,10.27-1.47,2.54-4.17,3.44-6.65,2C174.52,210.86,166.35,206.1,158.16,201.36Z" transform="translate(-11.54 -36.28)"/><path class="cls-3" d="M73.9,124.59l30.16,0c1.39,0,2.79,0,4.19,0a1.72,1.72,0,0,0,1.66-.91c1.26-2,2.56-4,3.85-6,0,2.64,0,5.27,0,7.91,0,3.3-2,5.28-5.3,5.28-9.63,0-19.26-.09-28.88.06-3.56,0-6-2.41-5.65-5.67C73.93,125,73.9,124.79,73.9,124.59Z" transform="translate(-11.54 -36.28)"/><path class="cls-3" d="M68.87,141.37c-2.79,0-5.59.06-8.38,0-2.57,0-4.43.88-5.47,3.38-.76,1.84-1.76,3.58-2.67,5.36-.11.22-.17.61-.55.47s-.18-.41-.18-.63c0-1.24,0-2.48,0-3.72,0-3.25-1.56-4.83-4.84-4.85-5.43,0-10.86,0-16.29,0-.48,0-1,0-1.44,0-.36-3.31,2.07-5.81,5.72-5.77,9.46.11,18.92,0,28.39,0C67,135.63,68.86,137.5,68.87,141.37Z" transform="translate(-11.54 -36.28)"/><path class="cls-2" d="M29,124.59c3,0,6.07,0,9.11,0,1,0,1.46-.32,1.41-1.38-.06-1.24,0-2.48,0-3.72,0-.45,0-.8.6-1a.86.86,0,0,1,1.14.47c.94,1.53,2,3,2.9,4.54a2,2,0,0,0,1.94,1.06c7.59,0,15.18,0,22.77,0,.08,2.14-.33,4.06-2.33,5.29a5,5,0,0,1-2.74.7q-14.82,0-29.64,0c-3.24,0-5.13-1.9-5.14-5.14C29,125.15,29,124.87,29,124.59Z" transform="translate(-11.54 -36.28)"/><path class="cls-4" d="M91.26,92.64h17.09c3.44,0,5.38,2,5.39,5.44a8.89,8.89,0,0,1,0,1.55c-.15.85.26,1.22,1,1.39q-11.27,0-22.53,0c-.73,0-1-.19-1-.94C91.27,97.59,91.25,95.12,91.26,92.64Z" transform="translate(-11.54 -36.28)"/><path class="cls-2" d="M158.62,152.19c-.43-.3-.21-.74-.22-1.1,0-1.24,0-2.48,0-3.72-.09-2.8-1.66-4.35-4.46-4.37-3,0-6.08,0-9.11,0-.85,0-1.07-.24-1.07-1.07,0-3.29-1.6-4.83-4.87-4.84h-10.8a5.24,5.24,0,0,0-3.58,1.07,1.86,1.86,0,0,1-1.37.27l-12.22.1c-.29-.85.2-1,.85-.85a5.46,5.46,0,0,1,1.31.53c1.84,0,3.68,0,5.52,0a1.41,1.41,0,0,0,1.3-.64,4.44,4.44,0,0,1,3.65-1.75q15.06,0,30.11,0a4.9,4.9,0,0,1,5,5.06C158.65,144.67,158.62,148.43,158.62,152.19Z" transform="translate(-11.54 -36.28)"/><path class="cls-2" d="M113.06,138.22a2.25,2.25,0,0,1-1.38-.23c-.6-.4-.74.06-.78.55a4.29,4.29,0,0,0-3.09,3.16c-.33,1.19-.72,2.36-1.09,3.58a5,5,0,0,0-2-1.45c-.37-.11-.45-.39-.53-.71-.17-.66-.39-1.3-.53-2-.62-2.78-2.18-3.52-4.75-3.59-3.51-.1-7,0-10.53,0-2.85,0-4.36,1.46-4.55,4.26.12.3.16.55-.29.54a5.64,5.64,0,0,0-3.26-.92c-2.1,0-4.21-.05-6.31-.06-.37-3.4,2.25-5.59,5.49-5.56,9.54.09,19.08.07,28.62,0A5.68,5.68,0,0,1,113.06,138.22Z" transform="translate(-11.54 -36.28)"/><path class="cls-4" d="M118.83,63.58a5,5,0,0,0,1.51,2.64c.3.22.27.44,0,.7a5.08,5.08,0,0,0-.9,3.4c0,2.64,0,5.28,0,7.92,0,2.28.81,4,3.26,4.69.55.15.64.46.63.95,0,1.24,0,2.48,0,3.72-3.09-.49-4.58-2.19-4.57-5.25Q118.79,73,118.83,63.58Z" transform="translate(-11.54 -36.28)"/><path class="cls-5" d="M186.67,145.2c7.12,0,14.24,0,21.35,0,1.16,0,1.39.36,1.35,1.41-.08,1.75-.08,3.52,0,5.27,0,1-.22,1.28-1.24,1.28-9.12,0-18.23,0-27.35-.06-1.11,0-1.39.31-1.37,1.39.07,3.43.06,6.88,0,10.31,0,1,.27,1.27,1.27,1.27,9.11,0,18.23,0,27.35,0,1,0,1.35.19,1.34,1.3-.05,7.23,0,14.47,0,21.71a2.08,2.08,0,0,1-.83,1.83c-1.48,1.16-2.72,2.86-4.38,3.47s-3.7.18-5.58.18c-11.12,0-22.23,0-33.35,0-1.07,0-1.36-.29-1.31-1.33q.14-2.7,0-5.4c0-1,.33-1.24,1.29-1.24,8.6,0,17.19,0,25.79.05,1.18,0,1.46-.33,1.43-1.47-.07-3.23-.06-6.47,0-9.71,0-1.07-.23-1.41-1.37-1.41-8.59.06-17.19,0-25.79.06-1.13,0-1.35-.34-1.35-1.4q.08-13.07,0-26.15c0-1,.16-1.35,1.28-1.34C172.35,145.23,179.51,145.2,186.67,145.2Z" transform="translate(-11.54 -36.28)"/><path class="cls-5" d="M157,178.1c-.82,2.1-1.57,4-2.3,6a.82.82,0,0,1-.92.57c-5.75,0-11.51,0-17.27,0-.86,0-.85-.44-.85-1,0-5.08,0-10.16,0-15.24,0-1-.3-1.29-1.28-1.25-1.68.08-3.36.06-5,0-.78,0-1.1.21-1.29,1-1.23,5.17-2.54,10.31-3.78,15.47-.2.8-.51,1.08-1.36,1.07q-5.94-.08-11.88,0a1.15,1.15,0,0,1-1.33-1c-.5-1.8-1.08-3.59-1.68-5.56,1.17,0,2.22,0,3.27,0,.63,0,.89-.17,1-.82.74-3.06,1.52-6.12,2.35-9.16.25-.91,0-1.06-.87-1-1.56.06-3.12,0-4.68,0-.87,0-1.08-.28-1-1.1.06-1.47.06-3,0-4.43,0-.85.23-1.07,1.06-1.07,5.52,0,11,0,16.56,0,.9,0,1.26-.17,1.21-1.16-.09-1.72,0-3.44,0-5.16,0-.62-.19-.84-.82-.83q-2.34.06-4.68,0c-.64,0-.88.24-1.06.84-.73,2.4-.76,2.4-3.23,2.4-2.72,0-5.44,0-8.16,0a1.12,1.12,0,0,1-1.33-1,36.35,36.35,0,0,0-1.15-3.53c-.26-.68-.16-1,.61-.88,1.43.29,1.9-.47,2.22-1.72.57-2.16,1.33-4.27,2-6.41.18-.63.42-.93,1.13-.92q5.28,0,10.56,0c.81,0,1,.22.69,1-.33.9-.52,1.85-.84,2.74s0,.9.67.86a19.26,19.26,0,0,1,2.52,0c.78.06.94-.27.92-1,0-1.32,0-2.64,0-4,0-.71.15-1,.92-1q5.58,0,11.16,0c.76,0,1,.24.92,1-.05,1.32,0,2.65,0,4-.05.83.27,1,1,1,4.16,0,8.32,0,12.48,0,1,0,1.22.29,1.17,1.21a38.91,38.91,0,0,0,0,4.32c.06,1-.32,1.17-1.22,1.16-4.08,0-8.16,0-12.23,0-1,0-1.28.31-1.23,1.28a38.3,38.3,0,0,1,0,4.67c-.07,1.06.33,1.22,1.28,1.21,5.2,0,10.4,0,15.59,0,.86,0,1.21.15,1.16,1.1-.09,1.51-.06,3,0,4.56,0,.75-.24,1-1,.94-2.4,0-4.8,0-7.2,0-.78,0-1,.22-1,1q.06,4.5,0,9c0,.79.23,1,1,1C152.1,178.07,154.46,178.1,157,178.1Z" transform="translate(-11.54 -36.28)"/><path class="cls-5" d="M55.12,153.15c1.3-2.59,2.53-5,3.73-7.42.22-.45.55-.49,1-.49q10.26,0,20.51,0c.61,0,.85.18.83.81,0,1.12,0,2.24,0,3.36q0,21.89,0,43.77c0,1-.17,1.36-1.28,1.34-4.76-.07-9.52,0-14.27,0-1,0-1.27-.26-1.27-1.27,0-12.91,0-25.82.05-38.73,0-1.07-.24-1.43-1.37-1.39C60.48,153.21,57.92,153.15,55.12,153.15Z" transform="translate(-11.54 -36.28)"/><path class="cls-5" d="M21.76,153.15c1.31-2.6,2.53-5,3.73-7.44.23-.45.57-.47,1-.47,6.79,0,13.59,0,20.38,0,.74,0,1,.22,1,1-.05,2.2,0,4.4,0,6.59q0,20.21,0,40.41c0,1-.22,1.35-1.31,1.33q-7.12-.09-14.27,0c-1,0-1.25-.3-1.25-1.28,0-12.91,0-25.82.05-38.73,0-1.1-.28-1.41-1.38-1.38C27.11,153.21,24.55,153.15,21.76,153.15Z" transform="translate(-11.54 -36.28)"/><path class="cls-5" d="M103.44,173.6c0,6.4,0,12.8,0,19.2,0,.86-.16,1.15-1.1,1.14-4.72-.05-9.44,0-14.15,0-.85,0-1.22-.13-1.17-1.09.09-1.55.07-3.12,0-4.68,0-.82.27-1.07,1-1,.12,0,.24,0,.36,0,2.46,0,2.46,0,2.46-2.4,0-7.84,0-15.68,0-23.52,0-1-.24-1.29-1.25-1.27-2.59.06-2.59,0-2.59-2.61,0-1.16,0-2.32,0-3.48,0-.58.2-.77.77-.77,5,0,9.92,0,14.87,0,1,0,.74.62.74,1.13Q103.45,163.94,103.44,173.6Z" transform="translate(-11.54 -36.28)"/><path class="cls-5" d="M158.19,187.29c-1.38,2.13-2.7,4.13-4,6.16-.37.59-.87.46-1.36.46H130.8c-7.28,0-14.56,0-21.83,0a1.65,1.65,0,0,1-1.63-.89c-1.17-1.91-2.4-3.77-3.68-5.76Z" transform="translate(-11.54 -36.28)"/><path class="cls-5" d="M103.58,147.36c-.32,1.38-.63,2.62-.9,3.86-.11.53-.39.69-.92.68-3.59,0-7.19,0-10.79,0-.6,0-.82-.23-1-.79-.73-3-1.48-6-2.28-8.92-.17-.65-.06-.84.62-.83q5.34,0,10.67,0a.85.85,0,0,1,1,.78c.33,1.27.76,2.52,1,3.81.21,1.06.61,1.68,1.8,1.42A4.5,4.5,0,0,1,103.58,147.36Z" transform="translate(-11.54 -36.28)"/><path class="cls-3" d="M52.61,173.8V156.11c1.65,1.06,3.44.87,5.2.85.75,0,.84.26.49.84-.1.17-.18.35-.27.53-.87,1.78-.49,2.46,1.44,2.47.72,0,1.09.12,1.08,1,0,4,0,8,0,12A1,1,0,0,1,60,174,66.94,66.94,0,0,1,53,174,.67.67,0,0,1,52.61,173.8Z" transform="translate(-11.54 -36.28)"/><path class="cls-6" d="M163.9,177.87c2.29-.05,2.29-.05,2.44,2.18.08,1.21.55,1.64,1.86,1.64h19.06c.32,0,.64,0,1,0s.38.34.38.63-.12.46-.42.47H164.93a5,5,0,0,0-3.08.72c-.49.36-.89.07-1.31-.14A30.3,30.3,0,0,1,163.9,177.87Z" transform="translate(-11.54 -36.28)"/><path class="cls-7" d="M60.5,178.09l-7.88,0V174a62.78,62.78,0,0,1,7.88,0A25.76,25.76,0,0,1,60.5,178.09Z" transform="translate(-11.54 -36.28)"/><path class="cls-8" d="M163.9,177.87a28.23,28.23,0,0,1-3.36,5.54h-1.42c.74-2.91,3.29-5.77-.14-8.5,1.15-.17,1.15-.17,1.6.73A4.25,4.25,0,0,0,163.9,177.87Z" transform="translate(-11.54 -36.28)"/><path class="cls-9" d="M86.65,163.72c.51,0,.43.37.43.67,0,6.08,0,12.16,0,18.24,0,.58-.19,1-.79.93S86,183,86,182.63c0-1.52,0-3,0-4.56a2,2,0,0,0,.56-1.73c0-.83,0-1.66,0-2.49-.07-3.11,0-6.21,0-9.32A1.54,1.54,0,0,1,86.65,163.72Z" transform="translate(-11.54 -36.28)"/><path class="cls-10" d="M86.65,163.72a2,2,0,0,1,.23,1.15c0,3,0,6.1,0,9.16a.63.63,0,0,1-.88,0c0-3.23,0-6.46-.06-9.7C85.92,163.75,86,163.44,86.65,163.72Z" transform="translate(-11.54 -36.28)"/><path class="cls-11" d="M108.23,172.48c.12-.44-.3-1.15.23-1.46a1.91,1.91,0,0,1,1.5,0c.32.13,0,.63-.08,1-.09.55-.31,1.07-.4,1.62s-.25.69-.77.67-.46-.42-.48-.75S108.23,172.89,108.23,172.48Z" transform="translate(-11.54 -36.28)"/><path class="cls-12" d="M86,174l.88,0c0,1.07,0,2.15,0,3.22,0,.72-.29.92-.93.82C86,176.72,86,175.37,86,174Z" transform="translate(-11.54 -36.28)"/><path class="cls-13" d="M131.91,179.27c0,1.24,0,2.34,0,3.43,0,.52-.18.69-.69.67s-.41-.44-.32-.74A16.34,16.34,0,0,1,131.91,179.27Z" transform="translate(-11.54 -36.28)"/><path class="cls-2" d="M60.5,174l-7.88,0a.2.2,0,0,1,0-.2l7.89,0A.2.2,0,0,1,60.5,174Z" transform="translate(-11.54 -36.28)"/><path class="cls-14" d="M85.46,149.77c-.29.25-.49.27-.5-.19a9,9,0,0,1,.19-2.3l.24.82C85.2,148.67,85.53,149.21,85.46,149.77Z" transform="translate(-11.54 -36.28)"/><path class="cls-15" d="M85.46,149.77a1.44,1.44,0,0,1-.07-1.67C85.37,148.66,86.06,149.19,85.46,149.77Z" transform="translate(-11.54 -36.28)"/><path class="cls-16" d="M160,191.69c.12.32.24.61-.18.76a.36.36,0,0,1-.27-.11A.75.75,0,0,1,160,191.69Z" transform="translate(-11.54 -36.28)"/><path class="cls-17" d="M83.49,142.35c.23-.1.24-.33.29-.54.22.25.36.55.13.8S83.58,142.53,83.49,142.35Z" transform="translate(-11.54 -36.28)"/><path class="cls-7" d="M70.54,63.85c0-.62.54-.74.91-1q7.41-5,14.84-9.94L87.56,52H86c-13.59,0-27.18,0-40.77,0-1.06,0-1.46-.21-1.41-1.36.1-2.23.08-4.47,0-6.71,0-1,.3-1.18,1.21-1.18q19.07,0,38.14,0c7.72,0,15.43,0,23.15,0,1,0,1.29.24,1.26,1.24-.06,2.8,0,5.6,0,8.4a1.69,1.69,0,0,1-.82,1.56q-9.37,6.68-18.7,13.42c-.38.28-.74.59-1.11.89.08,1,0,2,0,3s-.35,1-1,.68c-.25-.11-.5-.24-.75-.36l-13.5-6.76C71.26,64.64,70.6,64.57,70.54,63.85Z" transform="translate(-11.54 -36.28)"/><path class="cls-7" d="M21.17,67.71c-1.47,0-3-.07-4.42-.06-.61,0-.86-.17-.85-.81,0-2.68,0-5.36,0-8,0-.58.19-.76.76-.76q10.67,0,21.34,0c.52,0,.74.17.68.69a2.17,2.17,0,0,0,0,.36v45.43c0,.2,0,.4,0,.6a2,2,0,0,1-1.47.37q-7.14,0-14.26,0c-1.57,0-1.66-.12-1.66-1.72V69A4.13,4.13,0,0,0,21.17,67.71Z" transform="translate(-11.54 -36.28)"/><path class="cls-7" d="M76.92,105.23h36.36c.38,0,.92-.21,1.13.13s-.27.77-.49,1.12c-1.54,2.47-3.13,4.92-4.67,7.4a1.39,1.39,0,0,1-1.33.76q-31.08,0-62.16,0a1.41,1.41,0,0,1-1.32-.79c-1.61-2.53-3.25-5-4.86-7.57-.18-.28-.61-.56-.39-.92s.67-.13,1-.13Z" transform="translate(-11.54 -36.28)"/><path class="cls-2" d="M43,87.58Q43,74.4,43,61.2c0-1.71.19-3.43-.51-5.15.75,0,1,.17,1,.86,0,1.19,0,2.4,0,3.59S43.86,62,44.94,62c6.76,0,13.52,0,20.27,0,1.1,0,1.58.17,1.12,1.36a4.23,4.23,0,0,0-.09,1.43q0,11.1,0,22.19c-.56.92-1.49.82-2.36.83-3.87,0-7.75,0-11.63,0H44.3A2.47,2.47,0,0,1,43,87.58Z" transform="translate(-11.54 -36.28)"/><path class="cls-18" d="M70.54,63.85C73,65.12,75.49,66.4,78,67.66s5.13,2.57,7.69,3.85c1.22.61,1.22.6,1.23-.81,0-.79,0-1.59.06-2.38,0,.36.06.72.06,1.07,0,10.63,0,21.25,0,31.87,0,1-.19,1.43-1.36,1.42-7.11-.06-14.21,0-21.32,0-.4,0-.79-.06-1.18-.09.33-.48.84-.4,1.31-.4,6.71,0,13.43,0,20.14,0a1.41,1.41,0,0,1,.91.17q-7.12-3.54-14.25-7.14c-.45-.22-1-.4-1-1.06q0-14.44,0-28.9C70.33,64.76,70.12,64.25,70.54,63.85Z" transform="translate(-11.54 -36.28)"/><path class="cls-7" d="M28.68,56.19c-2.52,0-5,0-7.55,0A1,1,0,0,1,20,55.35Q18.45,49,16.83,42.59c-.18-.7-.12-1,.73-1,5.07,0,10.14,0,15.21,0,.66,0,.9.25,1,.84.55,2.12,1.19,4.22,1.69,6.35.22.94.59,1.3,1.6,1.25,1.79-.1,1.79,0,1.36,1.7-.25,1-.57,2-.72,3s-.58,1.51-1.77,1.45C33.55,56.11,31.11,56.19,28.68,56.19Z" transform="translate(-11.54 -36.28)"/><path class="cls-19" d="M21.17,67.71c.36.42.18.92.18,1.38q0,17.26,0,34.51c0,1.52,0,1.52,1.57,1.52h15.7c0,3,0,6,.06,9,0,.7-.27.86-.92.86q-10.55,0-21.1,0c-.73,0-.85-.29-.84-.92,0-2.68,0-5.35,0-8,0-.77.25-1,1-.92,1,0,1.93-.07,2.88,0,1.16.12,1.53-.2,1.52-1.46-.06-9.67,0-19.34,0-29C21.15,72.35,21.17,70,21.17,67.71Z" transform="translate(-11.54 -36.28)"/><path class="cls-7" d="M70.3,94.11c.23.43.68.53,1.06.72l13.81,6.91a2.42,2.42,0,0,1,1,.81h-23a15.62,15.62,0,0,1-1.88-3.42c-.85-1.58-1.6-3.2-2.51-5Z" transform="translate(-11.54 -36.28)"/><path class="cls-2" d="M55,92.41c-1,3.28,1.26,5.66,2.29,8.34-.08.26-.26.22-.41.22H43.91c-.59,0-1,0-.95-.8.06-2.6,0-5.19.06-7.79A1.87,1.87,0,0,1,44.48,92c3,0,6,0,9,0A1.82,1.82,0,0,1,55,92.41Z" transform="translate(-11.54 -36.28)"/><path class="cls-7" d="M55,92.41,43,92.39V87.58a2.61,2.61,0,0,1,1.51-.22c6.41,0,12.83,0,19.25,0a5.47,5.47,0,0,0,2.43-.47c.16,2.93.16,2.92-2.7,2.93-1.48,0-3,0-4.44.06A4.74,4.74,0,0,0,55,92.41Z" transform="translate(-11.54 -36.28)"/><path class="cls-7" d="M163.23,69.36q28.61,0,57.21,0c1.06,0,1.43.22,1.38,1.35-.09,2.35-.07,4.72,0,7.07,0,.95-.25,1.19-1.19,1.19-12,0-24,0-36,0-1.12,0-1.47.22-1.46,1.41,0,11,0,22.07.06,33.11,0,1-.23,1.33-1.31,1.32-7.15-.06-14.31,0-21.47,0a1.4,1.4,0,0,1-1.56-1c-1.09-2.82-2.26-5.6-3.46-8.54,2.35,0,4.54,0,6.72,0,.75,0,1-.15,1-1,0-8.4,0-16.79,0-25.19a2.21,2.21,0,0,1-.33-1.37c0-2.27,0-4.54,0-6.82A1.69,1.69,0,0,1,163.23,69.36Z" transform="translate(-11.54 -36.28)"/><path class="cls-7" d="M142.38,55c0,2.36-.08,4.72,0,7.07,0,.76-.17,1-1,1q-8.64,0-17.27,0c-.78,0-1-.2-1-1,0-5,.06-10.08,0-15.11,0-1.09.39-1.2,1.31-1.2,12.31,0,24.63,0,37,.05,1.26,0,1.54-.35,1.48-1.52s-.54-2.71.22-3.45,2.21-.18,3.36-.19c5.12,0,10.24,0,15.36,0,.9,0,1.18.23,1.14,1.14-.06,1.31,0,2.63,0,3.95,6.15.08,12.31,0,18.46,0,1.46,0,1.55.08,1.57,1.57q0,3,0,6c0,1.47-.13,1.56-1.59,1.56H143.79A3.06,3.06,0,0,0,142.38,55Z" transform="translate(-11.54 -36.28)"/><path class="cls-18" d="M163.23,69.36c0,3.21,0,6.42-.08,9.63l-32.36,0c-2.12,0-4.24,0-6.36,0-.94,0-1.11-.27-1.09-1.14.06-2.47.07-5,0-7.43,0-1,.18-1.33,1.28-1.32,8.35,0,16.7,0,25,0,4.11,0,8.23,0,12.35,0C162.42,69.13,162.9,68.9,163.23,69.36Z" transform="translate(-11.54 -36.28)"/><path class="cls-19" d="M142.38,55c.41-.37.92-.19,1.37-.19q28.68,0,57.35,0c1.13,0,1.55-.23,1.49-1.43-.1-2.08-.08-4.16,0-6.24,0-1-.23-1.29-1.25-1.28-5.72.05-11.44,0-17.15,0-.43,0-.89.15-1.27-.16l.72,0q19.13,0,38.26-.08c1,0,1.36.17,1.34,1.28-.07,5-.06,10.08,0,15.12,0,1-.31,1.17-1.22,1.16q-9.16-.06-18.35,0c-.91,0-1.15-.24-1.12-1.13.07-1.92,0-3.84.05-5.76,0-1.06-.25-1.31-1.31-1.31q-27.18.06-54.35,0Z" transform="translate(-11.54 -36.28)"/><path class="cls-20" d="M158.65,64.82l39.56,0a.81.81,0,0,1,.57.22H158.65c-.09,0-.11-.09-.08-.13S158.62,64.82,158.65,64.82Z" transform="translate(-11.54 -36.28)"/><path class="cls-21" d="M158.65,64.82a.34.34,0,0,0,0,.2H146.21v-.2Z" transform="translate(-11.54 -36.28)"/></svg>