<svg id="圖層_1" data-name="圖層 1" xmlns="http://www.w3.org/2000/svg" viewBox="0 0 232.74 190.82"><defs><style>.cls-1{fill:#16b6b4;}.cls-2{fill:#ace7b7;}.cls-3{fill:#81c0d2;}.cls-4{fill:#efdb8a;}.cls-5{fill:#afe8ba;}.cls-6{fill:#e3f5ed;}.cls-7{fill:#fefefe;}.cls-8{fill:#fdfefe;}.cls-9{fill:#f7fbfb;}.cls-10{fill:#d3efef;}.cls-11{fill:#80c0d2;}.cls-12{fill:#c0e0e8;}.cls-13{fill:#37c1b5;}.cls-14{fill:#e4f5f5;}.cls-15{fill:#d7f0f0;}.cls-16{fill:#d5efee;}.cls-17{fill:#78d6b6;}.cls-18{fill:#36c0b5;}.cls-19{fill:#8dddb7;}.cls-20{fill:#57ccb6;}.cls-21{fill:#dff3f3;}.cls-22{fill:#dff3f2;}.cls-23{fill:#d9f1f1;}.cls-24{fill:#dbf1f1;}.cls-25{fill:#dbf2f1;}.cls-26{fill:#f5fafa;}.cls-27{fill:#fbfdfd;}.cls-28{fill:#f5fbfb;}</style></defs><title>10</title><path class="cls-1" d="M62.39,90c.23-3.2.23-3.2-2.93-3.2-10.16,0-20.32,0-30.48,0-1.11,0-1.41-.31-1.38-1.4.11-3.43-.33-6.84-.24-10.28,0-1,.32-1.17,1.22-1.17,10.84,0,21.68,0,32.52.05,1.12,0,1.47-.31,1.36-1.4a13.59,13.59,0,0,1,0-2.63c.09-1-.29-1.11-1.15-1.11-6.76,0-13.52,0-20.28,0-2.56,0-5.12,0-7.68,0-.68,0-.9-.21-.88-.89.1-3.55-.37-7.08-.26-10.64,0-1,.24-1.27,1.25-1.27,9.2,0,18.4,0,27.6,0,1,0,1.45-.18,1.41-1.35-.08-2.8,0-2.81-2.81-2.81C50,52,40.23,52,30.51,52c-1,0-1.32-.21-1.29-1.24.11-3.51-.36-7-.24-10.52,0-.81.2-1.12,1.06-1.09,2.08.06,4.16,0,6.24,0,.72,0,.94-.18.66-.87a15.52,15.52,0,0,1-.52-1.59c-.17-.62-.92-1.47.61-1.42.58,0,.22-.49.15-.73-.38-1.26-.78-2.51-1.22-3.76-.21-.59-.09-.76.54-.76q11,0,22.08,0c.64,0,.8.34,1,.84.76,2.44,1.57,4.86,2.29,7.31a1.16,1.16,0,0,0,1.34,1q11,0,22.07,0a1.19,1.19,0,0,0,1.34-1c.74-2.41,1.56-4.79,2.3-7.19.21-.66.48-1,1.24-1q10.8,0,21.6,0c.89,0,.88.3.64,1-.42,1.13-.75,2.28-1.15,3.41-.21.6-.24,1,.6.91s1.09.22.77,1.06-1.1,2-.68,2.54,1.79.19,2.73.22c1.32,0,2.64,0,4,0,.64,0,.94.15.92.86-.11,3.55.35,7.09.26,10.64,0,1.05-.26,1.34-1.33,1.34C108.16,52,97.88,52,87.6,52c-1.07,0-1.45.22-1.41,1.37.08,2.78,0,2.78,2.83,2.78,8.64,0,17.28,0,25.92,0,.9,0,1.28.17,1.21,1.17a26.2,26.2,0,0,0,.26,5.59c.63.9.36,1.93.37,2.9,0,3.57.22,3.5-3.43,3.49-7.33,0-14.67,0-22,0a21.82,21.82,0,0,0-4.5.15c-.73,1.2-.28,2.47-.2,3.71,0,.32.38.37.66.41a9.7,9.7,0,0,0,1.32,0h29.75c.44,0,.88,0,1.32,0,1.3.06,1.6.3,1.59,1.57,0,3.19.38,6.38.28,9.58-.08,2.48,0,2.51-2.59,2.51H88.27c-2,0-2.23.17-1.93,2.22.35,2.45-.26,2.35,2.61,2.36H120a1.15,1.15,0,0,1,1.26,1.28c0,3.52.43,7,.26,10.55-.07,1.32-.33,1.57-1.83,1.58h-20a2.59,2.59,0,0,0-1.29.11c.15.42.53.6.84.84q9.88,7.8,19.73,15.65c.42.34,1.16.64,1,1.23s-1,.38-1.51.4c-1.15,0-2.3,0-3.71,0,1.56,1.27,2.93,2.36,4.29,3.45a8,8,0,0,1,.83.69c.19.19.47.37.37.69s-.42.33-.69.38a8.51,8.51,0,0,1-1.43.05c-7.8,0-15.6,0-23.4,0a6.13,6.13,0,0,1-4.25-1.48c-4.72-3.84-9.44-7.67-14.2-11.44-1.54-1.22-1.55-1.22-3,0-4.85,3.85-9.65,7.78-14.48,11.66a5.26,5.26,0,0,1-3.61,1.29c-2.92-.08-5.85.12-8.76-.06-5.59-.34-11.18-.12-16.77-.21-.26,0-.67.19-.73-.32l6.36-5H28.68l-.11-.25,22.76-18c-.57,0-.94-.07-1.31-.07-7.08,0-14.15,0-21.23,0-.95,0-1.21-.25-1.18-1.19.11-3.43-.33-6.84-.26-10.27,0-1.1.34-1.29,1.35-1.29,10.12,0,20.23,0,30.35,0,.48,0,1,0,1.44,0C61.83,92.06,62.11,91,62.39,90Z" transform="translate(-6.86 -29.78)"/><path class="cls-2" d="M28.81,128.19c.32.37.75.2,1.12.2q13,0,25.91.06a2.73,2.73,0,0,0,1.85-.64c5.38-4.34,10.79-8.64,16.15-13a1.11,1.11,0,0,1,1.71,0q8.06,6.51,16.14,13a2.13,2.13,0,0,0,1.38.6c9,0,17.91,0,27.2,0-2.25-1.82-4.29-3.45-6.52-5.24h6l.12-.24L97,104.88H98.6c7.11,0,14.23,0,21.35,0,1.08,0,1.3-.31,1.33-1.34.09-3.52-.38-7-.26-10.52,0-1.08-.66-.88-1.27-.88H89c-3,0-3,0-3.07-3s-.35-2.36,2.28-2.36q15.84,0,31.67,0c1,0,1.33-.25,1.36-1.32.09-3.56-.38-7.1-.26-10.65,0-1-.58-.93-1.23-.93h-32c-1.56,0-1.6,0-1.55-1.54,0-1.17-.35-2.36.19-3.49.47.54.24,1.2.27,1.85,1.52-.64,2.85-1.62,4.49-1.85l23.6,0c1.81,0,1.6.2,1.62-1.58l0-4.43c1.55,0,3.1-.18,4.65-.18a77.05,77.05,0,0,1,12.23.85,11.47,11.47,0,0,0,1.55.05,2.83,2.83,0,0,1-.25,2.08c-1.6,4.9-3.13,9.83-4.73,14.73-.28.85-.69,1.67.67,2,.5.12.36.66.27,1-.2.89-.56,1.75-.83,2.63-.37,1.22-.27,1.38,1.05,1.38,4.67,0,9.35,0,14,0H161c1.85,0,2.08.23,2.08,2.06q0,11.34,0,22.67c0,2.71-1.35,4-4.06,4.07-.84,0-1.67,0-2.51,0s-1.07.33-1.1,1.08c-.15,3.32.24,6.63.25,9.94a.87.87,0,0,0,1,.95h.12c7,0,14,.17,21-.06,4.51-.15,8.09-4.23,8.11-8.86,0-7.23,0-14.47,0-21.7,0-.65-.18-1.38.42-1.91a68.85,68.85,0,0,1,7.13,11.89c.18.35.34.72.51,1.08.66.25.52,1.14,1.14,1.43,1,3,1.6,6.18,2.46,9.25.61,2.15,1.15,4.32,1.67,6.49a1.65,1.65,0,0,0,1.91,1.47c5.79,0,11.57,0,17.36,0a2.47,2.47,0,0,1,1.83.36c-.35.41-.82.22-1.24.22-5.93,0-11.87,0-17.8,0-.9,0-1.37,0-1.15,1.18.37,1.9.53,3.84.78,5.77a13.2,13.2,0,0,1,.57,5.15c0,1,0,2,0,3a76.07,76.07,0,0,1-1.66,15.05,2,2,0,0,1-.56,1.17,8.12,8.12,0,0,1-2.89.52c-1.41.16-2.83.24-4.24.4a2.26,2.26,0,0,1-2.13-.39c-.25-.65.12-1.16.38-1.69a44.17,44.17,0,0,0,2.22-4.91c.43-1.28.25-1.57-1.13-1.61s-2.8,0-4.2,0c-1.12-.06-1.28-.33-.76-1.34,1.7-3.31,3.26-6.68,4.9-10,.49-1,.89-2,1.28-3.1.29-.78.08-1.3-.79-1.32-3-.06-5.91-.09-8.87,0-.83,0-1.24.63-1.56,1.31-1.22,2.52-2.36,5.07-3.66,7.55-.75,1.44-1.34,1.77-2.73,1.62-.72-.07-1.17-.42-1.12-1.13.14-1.76-.51-3.52.12-5.31a7.64,7.64,0,0,0,.06-2.62.88.88,0,0,0-1-1h-26c-1.92,0-1.55.19-2.39,2.65a3.5,3.5,0,0,0,.52,3.74.61.61,0,0,1,.09.77,4.62,4.62,0,0,0-.29,2.35c.12,3.43.42,6.86.51,10.29a11.2,11.2,0,0,0,.27,1.28,1.07,1.07,0,0,1,0,.4,17.39,17.39,0,0,0-1.29,3.78.86.86,0,0,1-.38.71,4.24,4.24,0,0,1-2.68,0c-.79-1.34-.38-2.77-.3-4.18,0-.11.09-.27.19-.29,1.35-.26,1.18-1.62,1.78-2.42.39-.54.16-1.07-.06-1.59-2-4.91-4.1-9.81-6.16-14.71-.13-.3-.26-.59-.38-.88-1.14-2.79-.76-2.64-3.87-2.64-2.8,0-5.6,0-8.4,0-.86,0-1.11.38-1.56,1.17-1,1.72-.11,3,.47,4.36,1.88,4.5,3.79,9,5.65,13.5a9.42,9.42,0,0,1,.41,1.12c.19.7-.09,1.08-.79,1.17a7.71,7.71,0,0,1-1,0H110.57c-.24,0-.48,0-.72,0-1-.11-1.29-.46-.95-1.43.42-1.25,1-2.45,1.49-3.67q2.88-6.8,5.7-13.61c1-2.45.87-2.64-1.73-2.64-2.87,0-5.75,0-8.63,0a2.12,2.12,0,0,0-2.29,1.47c-2.43,5.78-4.81,11.6-7.25,17.38-.2.48-.34,1-.52,1.47-.25.7-.33,1.32.53,1.69a.64.64,0,0,1,.39.89,7,7,0,0,0-.56,2.91.78.78,0,0,1-.41.69,18.12,18.12,0,0,1-4.71.13.74.74,0,0,1-.74-.49,1.91,1.91,0,0,1,.46-1,16.24,16.24,0,0,0,3.07-9.91c0-3.88,0-7.76,0-11.64,0-2-.17-2.13-2.11-2.13H60.15c-2.5,0-2.72.18-3.28,2.63-.66,2.86-.08,3.59,2.82,3.59H78.05c.48,0,1,0,1.44,0a1.18,1.18,0,0,1,1.25,1.3c.05,3.32.09,6.64,0,10a3.39,3.39,0,0,1-3.11,2.85,15.23,15.23,0,0,1-1.79,0c-5.4,0-10.8,0-16.2,0-1.16,0-2.06.18-2.28,1.54a1.8,1.8,0,0,1-.87,1.11c-1.65.58-3.3,0-4.94-.09s-3.38-.33-5.08-.41a2.85,2.85,0,0,1-1.58-.45,2.29,2.29,0,0,1-.56-1.29,64,64,0,0,1-1.45-11.85c0-1.12-.26-1.94-1.38-2.34,0-.51.44-.55.77-.57.93,0,1.08-.61,1.06-1.38,0-2.16.09-4.32-.1-6.47.27-2,.56-4,.79-6,.09-.76-.58-.47-.93-.47q-6.63,0-13.26,0a6.12,6.12,0,0,1-1,0C28.59,128.53,28.6,128.35,28.81,128.19Z" transform="translate(-6.86 -29.78)"/><path class="cls-1" d="M186.3,95.73c0,6.79,0,13.59-.06,20.38a23.25,23.25,0,0,1-.2,5.14,9.34,9.34,0,0,1-9.23,7.41c-6.8,0-13.59,0-20.39,0-.95,0-1.23-.26-1.2-1.21.09-3.39-.35-6.77-.25-10.16,0-1,.2-1.54,1.36-1.42a26.93,26.93,0,0,0,3.24,0,3,3,0,0,0,3.12-3.07c0-8,0-16,0-24,0-1-.44-1.07-1.23-1.07q-15.53,0-31.06,0c-1.41,0-1.41,0-1-1.35.34-1,.67-2,1-3.07.18-.53.24-1-.55-.85-1.07.15-1.06-.32-.79-1.16q2.88-8.88,5.7-17.77c1.06-3.27,2.08-6.55,3.18-9.79.31-.9,0-1-.76-1-3.2,0-6.4,0-9.6,0-.66,0-1-.09-1-.9.11-3.55-.36-7.08-.25-10.64,0-1,.19-1.28,1.23-1.27,4.56.07,9.11,0,13.67.05a1.27,1.27,0,0,0,1.5-1.06c.82-2.79,1.76-5.55,2.62-8.34a1.07,1.07,0,0,1,1.25-.91c6.59,0,13.19,0,19.79,0,1.07,0,1.09.33.79,1.15-.39,1.09-.66,2.22-1,3.31-.22.61-.15.94.57.84,1-.15,1,.34.72,1.09-.42,1.24-.78,2.5-1.17,3.77a2.93,2.93,0,0,0,1.45.13q25.48,0,51,0c1.06,0,1.44.21,1.4,1.35-.12,3.38.32,6.76.25,10.15,0,1.08-.31,1.31-1.35,1.31-18.47,0-36.94,0-55.42,0a1.54,1.54,0,0,0-1.79,1.34c-1.61,5.48-3.31,10.92-5,16.38a5.71,5.71,0,0,1-.53,2.79c-.29.83-.07,1.2.83,1.19,1.24,0,2.48,0,3.72,0,1.39,0,1.68-.31,1.68-1.71,0-5.19,0-10.38,0-15.57a2.58,2.58,0,0,1,.11-1.29c.31,0,.63-.08.95-.09,7.07,0,14.15,0,21.23,0,.88,0,1.1.22,1.14,1.12.25,5.63.23,11.25.19,16.87,0,1,.33,1.17,1.22,1.17,9.44,0,18.88,0,28.31,0,1.11,0,1.43.29,1.39,1.4-.14,3.22.36,6.44.23,9.68-.09,2,.2,1.75-1.71,1.75-9.4,0-18.79,0-28.19,0-1,0-1.29.26-1.25,1.26C186.32,91.25,186.28,93.49,186.3,95.73Z" transform="translate(-6.86 -29.78)"/><path class="cls-2" d="M197,167.54c-1.08,1.47-1.42,3.27-2.12,4.9a80.55,80.55,0,0,1-12.5,20.18,78.45,78.45,0,0,1-20.65,17.28,79.24,79.24,0,0,1-43,10.62A79.7,79.7,0,0,1,99,217.12a79.26,79.26,0,0,1-45.58-36.43,91.14,91.14,0,0,1-6.12-13.37.81.81,0,0,1,.76-.25c2.6.2,5.2.52,7.81.62a1.05,1.05,0,0,1,.65.27,3.07,3.07,0,0,1,.3,1.86c0,4.24,0,8.47,0,12.71,0,1.9.24,2.13,2.15,2.13H90c2.61,0,3.29-.54,3.64-3.18.14-1,.4-2.17-.57-3a2.56,2.56,0,0,0-1.63-.27H73c-3.51,0-3.21.2-3.22-3.28,0-1.55,0-3.11,0-4.67,0-1.33.18-1.48,1.45-1.44,7.62.19,15.23.74,22.86.79,1.59,0,3.19.21,4.79.21a1.83,1.83,0,0,1,1.24.33c.44.61.16,1.24,0,1.84-.9,3.65-1.84,7.29-2.73,10.94-.42,1.72-.2,2,1.53,2,2.88,0,5.76,0,8.63,0a2.1,2.1,0,0,0,2.27-1.51,45.9,45.9,0,0,0,1.38-4.84c.6-2.28,1.13-4.58,1.72-6.86.14-.57.2-1.2.8-1.55A3.51,3.51,0,0,1,115,170c3.54,0,7.09,0,10.63,0,1.71,0,1.94.23,1.91,1.94a43.9,43.9,0,0,1-.13,6c-.26.45-.72.46-1.15.49s-1,0-1.44,0c-2.47,0-3.34.83-3.49,3.36-.17,2.8.14,3.14,2.9,3.14s5.51,0,8.27,0a14.08,14.08,0,0,0,3-.33,5.61,5.61,0,0,0,4.06-3.07,11.91,11.91,0,0,0,1.5-5.86c-.06-1.39,0-2.79,0-4.19a1.8,1.8,0,0,1,.38-1.46,6.38,6.38,0,0,1,3.77,0,1.85,1.85,0,0,1,.34,1.57c-.28,3.93-.57,7.87-.69,11.81,0,1.45.17,1.75,1.6,1.72,2.14,0,4.3.32,6.42-.3a1.51,1.51,0,0,1,.81-.13,5.23,5.23,0,0,0,2.44.48c2.08,0,4.16-.05,6.24,0,1,0,1.66-.72,2.4-.78s1.4.81,2.37.78c4.63-.11,9.26,0,13.9,0a6.13,6.13,0,0,0,6.17-3.84c1.75-3.9,3.8-7.66,5.42-11.62.25-.6.31-1.24.56-1.83A5.09,5.09,0,0,1,197,167.54Z" transform="translate(-6.86 -29.78)"/><path class="cls-1" d="M220.31,127.69c-6.6,0-13.2,0-19.8,0-.95,0-1.3-.29-1.51-1.16q-2-8.19-4.14-16.36a1.33,1.33,0,0,0-.18-.3,3.39,3.39,0,0,1-.48-1.73c-1.12-4.37-2.25-8.73-3.33-13.11-.1-.42-.83-1.23.48-1.32.4,0,.14-.62.06-.93-.34-1.39-.71-2.77-1.09-4.22.41,0,.72,0,1,0,6.32,0,12.63,0,18.95,0,.85,0,1.15.26,1.36,1,2.7,10.55,5.45,21.09,8.16,31.64.13.5.72,1.23-.5,1.36-.39,0-.11.54-.05.83C219.62,124.83,220,126.26,220.31,127.69Z" transform="translate(-6.86 -29.78)"/><path class="cls-3" d="M197,167.54c-1.26.43-2.63,0-3.89.47a63.23,63.23,0,0,1-7,0c-.56,0-.84-.38-.45-.89,1.6-2.13,2.49-4.64,3.74-6.95.14-.26.23-.62.66-.58a3.19,3.19,0,0,0,2.19.19c2.33-.19,4.65-.47,7-.71a13,13,0,0,1,4.22-.74,190,190,0,0,0,20.83-3.14,31.42,31.42,0,0,0,6.63-2.05c1-.46,2.34-.87,2.29-2.16s-1.27-1.66-2.26-2.08A51.16,51.16,0,0,0,220.21,146c-4.52-.83-9.09-1.35-13.63-2-1.33-.48-2.75-.3-4.11-.56-.92-.17-1.3-.57-1.24-1.51a4.78,4.78,0,0,0-.11-2,16,16,0,0,0-.38-4.68c0-.11.1-.26.16-.4,4.9.6,9.8,1.13,14.69,1.86a106,106,0,0,1,13.09,2.74,27.23,27.23,0,0,1,5.27,1.92,9.84,9.84,0,0,1,5.4,7.15,12.46,12.46,0,0,1-.78,7.45,9.36,9.36,0,0,1-5.65,5.21,82.37,82.37,0,0,1-17.38,4.2c-4.77.72-9.56,1.25-14.34,1.82C199.81,167.36,198.42,167.43,197,167.54Z" transform="translate(-6.86 -29.78)"/><path class="cls-3" d="M56.36,168a84,84,0,0,1-9.11-.7c-5.32-.45-10.61-1.11-15.89-1.89a86.78,86.78,0,0,1-14.8-3.22c-2.3-.76-4.67-1.37-6.49-3.17a10.58,10.58,0,0,1-3-5.73c-1.17-5.79,1.83-11,7.07-12.7a101.38,101.38,0,0,1,16.48-3.86c4.18-.62,8.37-1.13,12.56-1.63.5.08.46.46.46.82,0,2.15,0,4.3,0,6.45,0,.67-.22.94-.9.91-.42,0-.88-.14-1.26.18a2,2,0,0,1-1.52.58c-4.69.49-9.35,1.18-14,2a51.07,51.07,0,0,0-10.17,2.72,6.92,6.92,0,0,0-2.15,1.29,1.16,1.16,0,0,0,0,1.87,6.39,6.39,0,0,0,2.24,1.37,57.47,57.47,0,0,0,12.18,3c5,.85,10.1,1.57,15.2,2a2.67,2.67,0,0,1,1.58.5c3.83.41,7.66.86,11.52,1a1.43,1.43,0,0,1,.39,1.19c0,1.94,0,3.87,0,5.81A1.38,1.38,0,0,1,56.36,168Z" transform="translate(-6.86 -29.78)"/><path class="cls-3" d="M30.24,192.7a8.43,8.43,0,0,1,8.58,8.45,8.6,8.6,0,0,1-17.2-.17A8.44,8.44,0,0,1,30.24,192.7Z" transform="translate(-6.86 -29.78)"/><path class="cls-4" d="M219.66,187.71a8.36,8.36,0,1,1,.1-16.71,8.36,8.36,0,1,1-.1,16.71Z" transform="translate(-6.86 -29.78)"/><path class="cls-2" d="M162.72,55.94c0,5.87,0,11.74,0,17.62,0,1-.28,1.47-1.41,1.4-1.64-.1-3.28,0-4.92,0-.73,0-.9-.2-.66-.9.41-1.16.76-2.34,1.14-3.51,1.55,1.27,3.47,1.91,5.14,3,.27.17.44,0,.46-.3s0-.56,0-.84q0-7.59,0-15.2C162.52,56.77,162.36,56.31,162.72,55.94Z" transform="translate(-6.86 -29.78)"/><path class="cls-5" d="M62.39,90a2,2,0,0,1,0,.24c0,2.19.35,2-1.93,1.92Z" transform="translate(-6.86 -29.78)"/><path class="cls-6" d="M194.2,108.17a5.24,5.24,0,0,1,.47,1.73c-.51-.23-.49-.8-.73-1.2C194.15,108.59,194.15,108.37,194.2,108.17Z" transform="translate(-6.86 -29.78)"/><path class="cls-7" d="M74.44,81.51q21.94,0,43.91,0c1.16,0,1.6.21,1.54,1.49-.11,2.4,0,2.41-2.38,2.41-10,0-20,.51-30-.17-8.06-.54-16.08-.1-24.11-.45-5.39,1.34-10.86.41-16.29.58s-11,0-16.55.07c-1.29,0-1.59-.36-1.54-1.58.1-2.32,0-2.32,2.34-2.32Z" transform="translate(-6.86 -29.78)"/><path class="cls-7" d="M116.05,126.87a2.49,2.49,0,0,1-1.39.16c-6.76,0-13.52,0-20.28,0a3.82,3.82,0,0,1-2.6-.92Q84,119.78,76.1,113.51c-1.26-1-1.68-1-2.93,0L57.11,126.48a2.1,2.1,0,0,1-1.4.57c-7.44,0-14.88,0-22.32,0-.14,0-.28,0-.69-.08,1.65-1.3,3.1-2.46,4.57-3.59.37-.3.84-.18,1.28-.18q8.52,0,17,0a2.74,2.74,0,0,0,1.85-.63c5.37-4.36,10.78-8.67,16.15-13a1.1,1.1,0,0,1,1.7,0c5.37,4.36,10.77,8.68,16.15,13a2.56,2.56,0,0,0,1.73.62c5.72,0,11.44,0,17.16,0a2.72,2.72,0,0,1,1.87.63C113.45,124.82,114.73,125.81,116.05,126.87Z" transform="translate(-6.86 -29.78)"/><path class="cls-8" d="M102.13,50.59c-5,0-10.06,0-15.1,0-.8,0-1.08-.16-1.08-1,0-2.86,0-2.86,2.89-2.86,9.39,0,18.77,0,28.16,0,1,0,1.37.23,1.33,1.31-.08,2.58,0,2.58-2.65,2.58Z" transform="translate(-6.86 -29.78)"/><path class="cls-7" d="M46.59,50.59c-5,0-9.91,0-14.87,0-.84,0-1.07-.24-1.07-1.08,0-2.81,0-2.81,2.8-2.81,9.23,0,18.47,0,27.7,0,1.06,0,1.35.26,1.32,1.32-.07,2.57,0,2.57-2.57,2.57Z" transform="translate(-6.86 -29.78)"/><path class="cls-7" d="M100.55,63.61c4.44,0,8.87,0,13.3,0,.93,0,1.13.27,1.12,1.14,0,2.73,0,2.73-2.75,2.73-8.38,0-16.77,0-25.16,0-.93,0-1.11-.26-1.11-1.13,0-2.74,0-2.74,2.74-2.74Z" transform="translate(-6.86 -29.78)"/><path class="cls-7" d="M48.13,67.46c-4.4,0-8.8,0-13.2,0-.85,0-1.06-.26-1.06-1.09,0-2.78,0-2.78,2.7-2.78,8.2,0,16.4,0,24.6,0,.93,0,1.33.14,1.3,1.21-.07,2.65,0,2.66-2.7,2.66Z" transform="translate(-6.86 -29.78)"/><path class="cls-7" d="M90.37,99.6H91.6c9,0,18.05,0,27.07,0,.91,0,1.23.2,1.21,1.17,0,2.69,0,2.69-2.66,2.69-7,0-14,0-21,0a2.61,2.61,0,0,1-1.85-.63C93.18,101.78,91.89,100.8,90.37,99.6Z" transform="translate(-6.86 -29.78)"/><path class="cls-7" d="M57.79,99.84q-2.11,1.66-4.22,3.34a1.47,1.47,0,0,1-1,.26c-7.52,0-15,0-22.56,0-.7,0-1-.14-1-.91,0-2.94-.06-2.94,2.9-2.94H57.69Z" transform="translate(-6.86 -29.78)"/><path class="cls-9" d="M91.16,68.93,86.4,71.24V68.93Z" transform="translate(-6.86 -29.78)"/><path class="cls-10" d="M109.89,39.11a3.15,3.15,0,0,1,.83-2.28A2.87,2.87,0,0,1,109.89,39.11Z" transform="translate(-6.86 -29.78)"/><path class="cls-1" d="M190.07,159.61c-1.48,2.65-2.43,5.59-4.46,8.16h5.78a4.73,4.73,0,0,1,1.75.24c.47,1.3-.39,2.34-.84,3.36-1.68,3.75-3.54,7.42-5.35,11.12-1.11,2.26-3.13,3-5.46,3l-7.89-.08c-2.38,0-4.78,0-7.17.1-.76,0-1.47-.06-1.67-1.33a1.54,1.54,0,0,1-1.83,1.34c-2.56,0-5.11,0-7.67,0-.64,0-1.3,0-1.68-.66a1.69,1.69,0,0,1-.05-1.11c-.09.46-.05,1-.41,1.34a1.79,1.79,0,0,1-1.32.43c-2,0-4,0-6,0-1.27,0-1.51-.37-1.43-1.6.2-3.21.37-6.42.56-9.64.07-1.34.13-2.69.2-4-.67-1.41,0-2.82.06-4.23,0-.54.17-.88-.46-1.22-.92-.51-1-1.53-.52-2.73-.27-1.48.79-2.64,1-4,0-.22.23-.29.44-.32,2.52-.25,5,0,7.42-.12-.15-.08-.49,0-.81,0-2.19-.08-4.38.15-6.56-.13a2.15,2.15,0,0,1-.48-1.33q-.27-5.73-.53-11.48c0-.49-.18-1.05.4-1.4.19-.12.18-.22,0-.42-.9-.81-1.14-3.71-.45-4.85.11-.16.34-.32.33-.47-.08-1.74,1-1.71,2.3-1.7q12.76,0,25.53,0c1.73,0,1.81,0,1.7,1.74-.07,1.17.56,2.47-.54,3.52-.09.09.31.6.33.92,0,.76-.07,1.52,0,2.27.06.56-.5,1.36.4,1.65a2,2,0,0,0,2.68-1.07c1.33-2.77,2.69-5.53,4-8.32a1.75,1.75,0,0,1,1.78-1.11c3,0,5.91,0,8.87,0,1.32,0,1.56.49,1.05,1.77-1.9,4.77-4.36,9.29-6.61,14.05h5.29c1.65,0,1.81.38,1.26,2C192.19,155.42,190.91,157.41,190.07,159.61Z" transform="translate(-6.86 -29.78)"/><path class="cls-1" d="M147.6,88.55c3.12,0,6.24,0,9.36,0,.91,0,1.12.25.8,1.11-.41,1.13-.68,2.3-1.06,3.43-.2.6-.06.83.56.76,1-.12,1,.39.72,1.15-3.16,10.42-6.33,20.84-9.43,31.28a1.78,1.78,0,0,1-2.07,1.51c-6-.08-12.07-.06-18.11,0-1.11,0-1.3-.3-.92-1.29s.62-2.06,1-3.08c.22-.62.23-1-.6-.93s-.91-.23-.68-1q4.86-16,9.67-31.95a1.14,1.14,0,0,1,1.32-1C141.29,88.58,144.44,88.55,147.6,88.55Z" transform="translate(-6.86 -29.78)"/><path class="cls-1" d="M113.58,170.42c-.89,3.55-1.83,7.1-2.66,10.66-.27,1.13-.83,2.15-1.09,3.28-.16.69-.79.86-1.41.86-3.47,0-7,0-10.42,0-1.2,0-1.47-.45-1.18-1.62q1.64-6.6,3.29-13.2c-.1-1.58.59-3,.88-4.53.07-.39.17-.77.28-1.16.21-.7-.09-.93-.77-.93-1.19,0-2.38.07-3.57-.05s-1.6-.79-1.17-2c.22-1.17-.42-2.49.65-3.53.23-.22,0-.52-.33-.56-1.3-.14-1.18-.9-.81-1.8l6.86-16.71c.41-1,.87-2,1.25-3a1.48,1.48,0,0,1,1.54-1.06c3.63,0,7.27,0,10.91,0,1.27,0,1.54.44,1.08,1.67-2.29,6-4.93,11.85-7.36,17.8l-.25.54c-.53,1.28-.52,1.3.88,1.3,6,0,11.92,0,17.87,0,1,0,1.19-.18.78-1.13q-3.42-8-6.76-16.11c-.31-.75-1-1.64.33-2.19.25-.11.13-.32.07-.51-.37-1.19.36-1.39,1.28-1.39,3.56,0,7.12,0,10.67,0a1.65,1.65,0,0,1,1.74,1.14c2.44,5.9,4.92,11.78,7.38,17.67.29.69,0,1.18-.27,1.83-.37,1.14-.65,1.83-1.84,2.29-.31.11-.08,1.64-.09,2.52,0,.48,0,1,0,1.44a18.81,18.81,0,0,1,0,8.18,65.58,65.58,0,0,1-.09,6.58c-.34,3.13-1.16,6.14-4.33,7.75a7.87,7.87,0,0,1-3.6.71c-3.47,0-7,0-10.42,0-1.64,0-1.8-.32-2-2s.5-3.07.89-4.58c.16-.59.63-.63,1.14-.63,1.4,0,2.79,0,4.19,0a41.91,41.91,0,0,0,0-7.84c-.16-1.59,0-3.18-.09-4.77s-.1-1.6-1.53-1.6h-8.38c-1.44,0-1.57.12-2,1.55-.32,1.24-.61,2.48-.93,3.72A2.26,2.26,0,0,1,113.58,170.42Z" transform="translate(-6.86 -29.78)"/><path class="cls-1" d="M56.36,168c0-2.73,0-5.46,0-8.18.28-.63.8-1.1.81-1.92S58,157,58.73,157h18.1c2.38,0,3.59-1.24,3.59-3.57,0-2.88,0-5.75,0-8.63,0-1-.23-1.29-1.25-1.28-7,0-14.07,0-21.1,0-1.57,0-1.56-.15-1.74-1.72s.46-3.06.82-4.57c.16-.68.76-.71,1.35-.7,2.48,0,4.95,0,7.43,0H92.1c1.81,0,1.93.12,1.93,1.88,0,4.35.07,8.71,0,13.06a14.46,14.46,0,0,1-3.74,10.08c-1.36,2-3.5,2.54-5.71,2.7s-4.32,0-6.47,0H71.62c-.93,0-1.35.31-1.42,1.3-.23,3.71-.24,7.41-.27,11.12,0,1,.25,1.27,1.26,1.27,7-.05,13.9,0,20.85,0a4.07,4.07,0,0,1,1.3.07c.63.27.6.86.7,1.41.3,1.72-.43,3.24-.88,4.82a.9.9,0,0,1-.8.63,7.84,7.84,0,0,1-1.19.08H58.41c-1.81,0-2-.19-2-2Q56.39,175.52,56.36,168Z" transform="translate(-6.86 -29.78)"/><path class="cls-7" d="M206.65,143.75c4.31.43,8.61,1.06,12.88,1.8a55.65,55.65,0,0,1,11.42,3,7,7,0,0,1,1.94,1.17c1.18,1,1.15,1.87-.12,2.81a15.54,15.54,0,0,1-5.14,2.2,122.15,122.15,0,0,1-17.72,3.22c-3.08.37-6.16.75-9.24,1.11-.48.06-1,0-1.44.05a84,84,0,0,0,1.91-16C203,143.44,204.83,143.37,206.65,143.75Z" transform="translate(-6.86 -29.78)"/><path class="cls-7" d="M44.86,158.86c-3.62-.29-7.21-.75-10.8-1.24-4.07-.56-8.12-1.18-12.12-2.12a25,25,0,0,1-7.86-2.76c-1.82-1.15-1.82-2.28,0-3.42a24.89,24.89,0,0,1,7.63-2.69A148.27,148.27,0,0,1,37.38,144l4.15-.53c.93-.09,1.64.09,1.64,1.25A76.39,76.39,0,0,0,44.86,158.86Z" transform="translate(-6.86 -29.78)"/><path class="cls-11" d="M93.34,178q-11.2,0-22.41,0c-.81,0-1.11-.2-1.1-1.06q.06-5.94,0-11.87c0-1,.35-1.22,1.27-1.21,3.87,0,7.75-.06,11.62,0a10.73,10.73,0,0,0,7.54-2.41c1.82.44,3.66.09,5.49.2.07,1.59.18,1.69,1.73,1.7,1.2,0,2.39,0,3.58,0,.61,0,.87.1.69.78-.57,2.05-1.11,4.11-1.65,6.17a.75.75,0,0,0-.65-.24c-2.19.11-4.38-.25-6.56-.22-4,.06-8-.23-12-.33-3.41-.08-6.83-.34-10.24-.51-.54,0-.63.15-.63.57,0,2.47,0,5,0,7.42,0,.93.64.74,1.16.74h21C92.59,177.85,93,177.72,93.34,178Z" transform="translate(-6.86 -29.78)"/><path class="cls-11" d="M141.39,170.18c0-2.73,0-5.46,0-8.18h2.87c0,.15,0,.31,0,.47,0,1.91,0,1.91,1.78,2.36-1,1.67-.61,3.56-.88,5.35Z" transform="translate(-6.86 -29.78)"/><path class="cls-12" d="M206.65,143.75a22.24,22.24,0,0,1-5.51-.68c0-1,0-2.1,0-3.14.47.64.2,1.37.23,2.06a1,1,0,0,0,.92,1.09C203.72,143.42,205.27,143,206.65,143.75Z" transform="translate(-6.86 -29.78)"/><path class="cls-13" d="M145.71,157.43h7.62v.24h-7.67A2,2,0,0,1,145.71,157.43Z" transform="translate(-6.86 -29.78)"/><path class="cls-7" d="M160.76,52c.37-1.26.74-2.52,1.09-3.79a.77.77,0,0,1,1-.66,3.84,3.84,0,0,0,.48,0q27.16,0,54.32,0c1.09,0,1.44.26,1.4,1.38-.07,2.5,0,2.5-2.52,2.5H163.6c-1,0-1.95,0-2.59.89C160.78,52.34,160.65,52.27,160.76,52Z" transform="translate(-6.86 -29.78)"/><path class="cls-7" d="M146.88,86.36c-4.91,0-9.82,0-14.74,0-.86,0-1.21-.06-.87-1.08.93-2.78.89-2.8,3.84-2.8,8.75,0,17.5,0,26.24,0,1,0,1.41.15,1.37,1.28-.09,2.6,0,2.6-2.66,2.6Z" transform="translate(-6.86 -29.78)"/><path class="cls-7" d="M200.9,86.36c-4.63,0-9.27,0-13.91,0-.77,0-1-.18-1-1,0-2.9,0-2.9,2.82-2.9,8.63,0,17.27,0,25.9,0,1,0,1.29.25,1.27,1.26-.06,2.62,0,2.62-2.61,2.62Z" transform="translate(-6.86 -29.78)"/><path class="cls-7" d="M184.73,118.8c.34,4.25-3,8.31-7,8.38-6.75.12-13.5,0-20.26.07-.61,0-.8-.2-.83-.82-.15-3.05-.17-3,2.81-3,5.36,0,10.71-.1,16.07,0A10.08,10.08,0,0,0,184.73,118.8Z" transform="translate(-6.86 -29.78)"/><path class="cls-8" d="M134,47.56c1.64,0,3.27,0,4.91,0,.78,0,1.05.09.76,1-.92,2.88-.88,2.89-3.88,2.89-2.23,0-4.47,0-6.7,0-.75,0-1-.17-1-1,0-2.89-.05-2.89,2.84-2.89Z" transform="translate(-6.86 -29.78)"/><path class="cls-14" d="M160.76,52l.25.3c-2.31,7.53-4.62,15.06-6.94,22.65-.53-.31-.25-.6-.19-.8q3.33-10.92,6.7-21.84A2.48,2.48,0,0,1,160.76,52Z" transform="translate(-6.86 -29.78)"/><path class="cls-15" d="M164.86,38.82a5.79,5.79,0,0,1,.84-2.26,7.94,7.94,0,0,1-.63,2.78C164.62,39.32,164.79,39.05,164.86,38.82Z" transform="translate(-6.86 -29.78)"/><path class="cls-16" d="M164.86,38.82l.21.52c-.08.27,0,.61-.51.73A1.7,1.7,0,0,1,164.86,38.82Z" transform="translate(-6.86 -29.78)"/><path class="cls-11" d="M113.58,170.42c.48-1.93,1-3.86,1.42-5.8.19-.79.5-1.2,1.45-1.19,3.31.07,6.63,0,10,0,.64,0,1,.06,1,.88,0,4.36,0,8.71,0,13.07,0,.24,0,.49-.24.62,0-2.19,0-4.38,0-6.57,0-.73-.15-1.07-1-1.06C122,170.43,117.8,170.42,113.58,170.42Z" transform="translate(-6.86 -29.78)"/><path class="cls-17" d="M153.12,185l.35-1.54a2.73,2.73,0,0,1,.11,1.31Z" transform="translate(-6.86 -29.78)"/><path class="cls-8" d="M209.48,126.4c-2.71,0-5.42,0-8.14,0-.68,0-1.06-.18-1.15-.86-.13-1-1-2.22-.49-2.9.4-.51,1.87-.17,2.86-.17,4.63,0,9.26,0,13.89,0,.88,0,1.33.24,1.45,1.11s1,2.05.45,2.68c-.37.46-1.73.14-2.64.15Z" transform="translate(-6.86 -29.78)"/><path class="cls-7" d="M163.92,172c0,3,0,6,0,9,0,.93-.28,1.14-1.15,1.11-1.92-.06-3.84-.1-5.76,0-1.17.07-1.35-.38-1.34-1.42,0-5.84,0-11.68,0-17.52,0-1.65-.2-1.85-1.87-1.85-2.16,0-4.32,0-6.48,0-1,0-.92-.57-.92-1.22s-.14-1.24.92-1.2c2.31.08,4.64,0,7,0,1,0,1.45-.39,1.38-1.33-.06-.75.2-1,.94-.94,2.15,0,4.32,0,6.47,0,.63,0,.88.17.82.81-.12,1.09.4,1.48,1.48,1.46,2.24-.05,4.48,0,6.72,0,1,0,1,.52.94,1.2s.18,1.26-.9,1.22c-2.23-.08-4.48,0-6.72,0-1.16,0-1.55.46-1.54,1.57C163.94,165.91,163.92,169,163.92,172Z" transform="translate(-6.86 -29.78)"/><path class="cls-7" d="M191.61,136.85c-1.86,3.81-3.59,7.43-5.41,11a3.53,3.53,0,0,1-3.29,1.84c-2.23,0-4.47,0-6.71,0-.78,0-.9-.41-.77-1s-.56-1.42.65-1.4a2.56,2.56,0,0,0,2.47-1.73c1.23-2.63,2.54-5.23,3.75-7.88a1.3,1.3,0,0,1,1.4-.92C186.26,136.88,188.81,136.85,191.61,136.85Z" transform="translate(-6.86 -29.78)"/><path class="cls-7" d="M191.57,169.23l-1.74,3.66c-1.05,2.19-2.12,4.37-3.15,6.57a4.09,4.09,0,0,1-3.82,2.61c-2.23,0-4.47,0-6.7,0-.84,0-.81-.49-.73-1s-.46-1.38.72-1.35a2.44,2.44,0,0,0,2.37-1.67c1.24-2.68,2.56-5.31,3.81-8a1.23,1.23,0,0,1,1.32-.87C186.24,169.26,188.82,169.23,191.57,169.23Z" transform="translate(-6.86 -29.78)"/><path class="cls-7" d="M191.59,152.67c-.63,1.29-1.19,2.42-1.74,3.56-1.13,2.33-2.23,4.68-3.39,7a3.66,3.66,0,0,1-3.44,2.19c-2.24,0-4.48,0-6.72,0-.67,0-1-.18-.88-.87s-.47-1.45.78-1.44a2.41,2.41,0,0,0,2.29-1.62c1.26-2.68,2.58-5.32,3.84-8a1.23,1.23,0,0,1,1.32-.87C186.24,152.7,188.82,152.67,191.59,152.67Z" transform="translate(-6.86 -29.78)"/><path class="cls-7" d="M169.18,164.61c3.06,0,3,0,3.15,3.06q.28,6.59.7,13.17c.06,1-.19,1.34-1.21,1.26a27,27,0,0,0-3.6,0c-.87.05-1.26-.15-1.3-1.14-.15-3.87-.39-7.74-.6-11.61-.06-1.2-.07-2.4-.23-3.59-.12-1,.27-1.25,1.17-1.16A17.57,17.57,0,0,0,169.18,164.61Z" transform="translate(-6.86 -29.78)"/><path class="cls-7" d="M149.62,182.08h-.24c-2.84,0-2.87,0-2.7-2.78.26-4.54.6-9.09.83-13.64.05-.94.39-1.1,1.22-1.06,1.35.06,2.72,0,4.07,0,.63,0,.84.18.8.82q-.49,8-.94,16c0,.57-.31.65-.77.64C151.13,182.07,150.37,182.08,149.62,182.08Z" transform="translate(-6.86 -29.78)"/><path class="cls-7" d="M150.6,154.16c-.8,0-1.61,0-2.4,0-.64,0-.81-.24-.84-.84-.14-3.23-.29-6.47-.5-9.7-.06-.86.21-1.1,1-1.06,1.43.06,2.88.06,4.31,0,.75,0,.95.22,1,.94.16,3.31.36,6.63.57,9.94,0,.51-.13.73-.66.71C152.28,154.14,151.44,154.16,150.6,154.16Z" transform="translate(-6.86 -29.78)"/><path class="cls-7" d="M159.76,154.16c-.83-.11-2.12.44-2.81-.22s-.23-1.89-.29-2.88c-.18-2.5-.27-5-.44-7.52-.05-.71.11-1,.89-1,1.51.06,3,0,4.54,0,.6,0,.83.15.87.79.18,3.3.4,6.6.64,9.9.05.66-.11,1-.82.91S160.74,154.16,159.76,154.16Z" transform="translate(-6.86 -29.78)"/><path class="cls-7" d="M169,154.2c-1,0-2.27.28-2.89-.23s-.06-1.86,0-2.83c.09-2.59.31-5.18.43-7.76,0-.63.23-.82.85-.81,1.51,0,3,.05,4.54,0,.75,0,1,.21.92,1-.2,3.3-.37,6.61-.51,9.91,0,.59-.26.75-.8.74-.84,0-1.68,0-2.51,0Z" transform="translate(-6.86 -29.78)"/><path class="cls-7" d="M159.71,139.48c-4.07,0-8.15,0-12.22,0-.86,0-1.1-.27-1.06-1.09s0-1.24,1-1.23q12.28.06,24.57,0c1,0,1,.47,1.05,1.23s-.15,1.11-1,1.1C167.94,139.45,163.82,139.48,159.71,139.48Z" transform="translate(-6.86 -29.78)"/><path class="cls-2" d="M179.73,168.78c1.65,0,1.66,0,1.05,1.24-1.16,2.41-2.31,4.83-3.48,7.24a2.27,2.27,0,0,1-2.72,1c-.36-.14-.31-.42-.33-.68-.14-2.67-.28-5.35-.43-8,0-.68.41-.65.86-.66A43.23,43.23,0,0,0,179.73,168.78Z" transform="translate(-6.86 -29.78)"/><path class="cls-2" d="M172.73,157.2c.16-1.29,1.18-2.34,1-3.71,0-.38.18-.43.53-.42,2.15,0,4.31,0,6.7,0-1.36,2.76-2.6,5.38-3.93,8-.5,1-1.54.45-2.3.47-.43,0-.22-.72-.25-1.12,0-.6,0-1.2,0-1.8s-.13-.87-.69-.94C173.5,157.37,172.88,157.86,172.73,157.2Z" transform="translate(-6.86 -29.78)"/><path class="cls-18" d="M172.73,157.2c.25.42.8.11,1.08.45h-8.13v-.21h5.44A2.59,2.59,0,0,0,172.73,157.2Z" transform="translate(-6.86 -29.78)"/><path class="cls-19" d="M165.2,142.93c-.95.85-.71,1.87-.85,2.88C163.51,143.63,163.72,142.79,165.2,142.93Z" transform="translate(-6.86 -29.78)"/><path class="cls-20" d="M164.2,146.73c.29.35.15.6.18,1C164.05,147.34,164.21,147.09,164.2,146.73Z" transform="translate(-6.86 -29.78)"/><path class="cls-8" d="M148.14,122.41s0,.09,0,.12c-.38,1.26-.42,2.88-1.24,3.67s-2.37.19-3.6.19c-4.43,0-8.87,0-13.31,0-.75,0-1-.06-.77-.94.9-3,.86-3,4-3l14.62-.07A.19.19,0,0,1,148.14,122.41Z" transform="translate(-6.86 -29.78)"/><path class="cls-15" d="M152.93,105.61a5.43,5.43,0,0,1,.81-2.11,5.64,5.64,0,0,1-.57,2.42C153,105.88,153,105.72,152.93,105.61Z" transform="translate(-6.86 -29.78)"/><path class="cls-15" d="M150.54,113.54a6.37,6.37,0,0,1,.63-2c.09-.13.17-.13.25,0a6.94,6.94,0,0,1-.66,2.22C150.61,113.79,150.59,113.65,150.54,113.54Z" transform="translate(-6.86 -29.78)"/><path class="cls-15" d="M149,119.52a7.22,7.22,0,0,1-.67,2.22c-.15,0-.17-.17-.22-.28a6.37,6.37,0,0,1,.63-1.95C148.86,119.39,148.94,119.4,149,119.52Z" transform="translate(-6.86 -29.78)"/><path class="cls-15" d="M155.33,97.69a5.27,5.27,0,0,1,.81-2.11,5.64,5.64,0,0,1-.57,2.42C155.41,98,155.39,97.8,155.33,97.69Z" transform="translate(-6.86 -29.78)"/><path class="cls-21" d="M155.33,97.69l.24.31c-.19.61-.37,1.22-.55,1.84-.21,0-.35,0-.23-.26Z" transform="translate(-6.86 -29.78)"/><path class="cls-22" d="M152.93,105.61l.24.31c-.18.61-.37,1.22-.55,1.84-.21,0-.35,0-.23-.26Z" transform="translate(-6.86 -29.78)"/><path class="cls-23" d="M149,119.52h-.26c.11-.59.1-1.22.61-1.66l.06,0A2.58,2.58,0,0,1,149,119.52Z" transform="translate(-6.86 -29.78)"/><path class="cls-23" d="M151.42,111.6h-.25c.11-.59.1-1.22.61-1.66l.06,0A2.54,2.54,0,0,1,151.42,111.6Z" transform="translate(-6.86 -29.78)"/><path class="cls-23" d="M154.25,102a1.45,1.45,0,0,1-.47,1.37,1.3,1.3,0,0,1,.39-1.35Z" transform="translate(-6.86 -29.78)"/><path class="cls-24" d="M149.54,116.88a3.39,3.39,0,0,1,.46-1.44.47.47,0,0,1,.21.23,2.57,2.57,0,0,1-.38,1.23C149.73,117,149.63,117,149.54,116.88Z" transform="translate(-6.86 -29.78)"/><path class="cls-25" d="M154.79,99.58l.23.26-.39,1.22c-.1.12-.2.12-.29,0A3.6,3.6,0,0,1,154.79,99.58Z" transform="translate(-6.86 -29.78)"/><path class="cls-25" d="M152.39,107.5l.23.26-.39,1.22c-.1.12-.2.12-.29,0A3.94,3.94,0,0,1,152.39,107.5Z" transform="translate(-6.86 -29.78)"/><path class="cls-26" d="M150.54,113.54l.22.28a1.29,1.29,0,0,1-.33.9h-.16C150.17,114.29,150.43,113.93,150.54,113.54Z" transform="translate(-6.86 -29.78)"/><path class="cls-26" d="M154.34,101l.29,0c-.06.34-.06.7-.38.93l-.08,0C154,101.65,154.21,101.35,154.34,101Z" transform="translate(-6.86 -29.78)"/><path class="cls-26" d="M151.94,109l.29,0c-.06.34-.06.7-.39.93l-.06,0C151.59,109.57,151.81,109.27,151.94,109Z" transform="translate(-6.86 -29.78)"/><path class="cls-27" d="M150.27,114.73h.16a1.75,1.75,0,0,1-.22,1l-.21-.23C150,115.17,150,114.9,150.27,114.73Z" transform="translate(-6.86 -29.78)"/><path class="cls-26" d="M149.54,116.88l.29,0c-.06.34-.05.71-.39.93l-.06,0C149.19,117.49,149.41,117.19,149.54,116.88Z" transform="translate(-6.86 -29.78)"/><path class="cls-28" d="M148.14,121.46l.22.28c0,.24,0,.5-.22.67h-.28Z" transform="translate(-6.86 -29.78)"/><path class="cls-7" d="M99,181.84l2.91-11.48q1.1-4.29,2.18-8.58c.32-1.26.06-1.62-1.23-1.64s-2.72,0-4.08,0c-1,0-.73-.69-.77-1.22s-.09-1.09.8-1.08c3.16,0,6.32,0,9.48,0,10.12,0,20.24,0,30.35,0,1,0,1.34.24,1.33,1.31-.06,5.76,0,11.52,0,17.28,0,3.27-1.85,5.3-5.12,5.39-3.59.1-7.19,0-10.79.05-1.07,0-.76-.67-.77-1.2s-.21-1.25.81-1.18,2,0,3,0c1.64,0,2.5-.77,2.51-2.39,0-5.2,0-10.39,0-15.59a1.21,1.21,0,0,0-1.39-1.38c-4.12,0-8.24,0-12.36,0-1.1,0-1.28.74-1.48,1.54q-2.32,9.22-4.64,18.46c-.43,1.72-.42,1.72-2.25,1.72Z" transform="translate(-6.86 -29.78)"/><path class="cls-7" d="M142,154.29h-9.94a.75.75,0,0,1-.82-.52c-2.37-5.69-4.77-11.37-7.23-17.21H134.3c.4,0,.53.24.66.55q3.49,8.38,7,16.76A1.55,1.55,0,0,1,142,154.29Z" transform="translate(-6.86 -29.78)"/><path class="cls-7" d="M97.39,154.29c1-2.48,2-4.83,3-7.17,1.34-3.24,2.71-6.48,4-9.72.21-.51.4-.86,1.08-.85,3.28,0,6.56,0,10,0l-2.5,6c-1.5,3.57-3,7.13-4.48,10.71a1.35,1.35,0,0,1-1.48,1C103.85,154.26,100.7,154.29,97.39,154.29Z" transform="translate(-6.86 -29.78)"/><path class="cls-7" d="M75.6,181.58c-5.28,0-10.56,0-15.84,0-.88,0-1.23-.14-1.23-1.15q.07-10.44,0-20.88c0-.89.2-1.15,1.12-1.14,5.56,0,11.12,0,16.68,0a5.86,5.86,0,0,0,6.25-6.2c0-3.52,0-7,0-10.56,0-1.17-.45-1.53-1.57-1.53-7.08,0-14.16,0-21.23,0a1.26,1.26,0,0,1-1.24-1.91c.2-.48.61-.28.93-.29,2.16,0,4.32,0,6.48,0,8.43,0,16.87,0,25.31,0,1,0,1.31.19,1.29,1.23-.12,4.76.16,9.52-.16,14.27a7.45,7.45,0,0,1-7.37,7.12c-4.88.11-9.76,0-14.64.05-1.8,0-2,.18-2,2V177.5c0,1.74.12,1.86,1.82,1.86,7,0,14,0,21,0,.87,0,1.35,0,1.34,1.16s-.49,1.1-1.29,1.09C86.08,181.57,80.84,181.58,75.6,181.58Z" transform="translate(-6.86 -29.78)"/></svg>