<svg id="圖層_1" data-name="圖層 1" xmlns="http://www.w3.org/2000/svg" viewBox="0 0 227.59 226.39"><defs><style>.cls-1{fill:#199698;}.cls-2{fill:#c1f0ec;}.cls-3{fill:#fefefe;}.cls-4{fill:#f0e282;}.cls-5{fill:#b5c5f1;}.cls-6{fill:#f0e283;}.cls-7{fill:#c0f0ec;}.cls-8{fill:#fbfdfd;}.cls-9{fill:#bdeeea;}.cls-10{fill:#85d0ce;}.cls-11{fill:#78c9c8;}.cls-12{fill:#56b7b7;}.cls-13{fill:#6ac2c1;}.cls-14{fill:#1b9799;}</style></defs><title>32</title><path class="cls-1" d="M229.06,79c2.2,2.28,4.22,4.38,6.24,6.46,1.47,1.52,2.95,3,4.45,4.54a4.6,4.6,0,0,1,1.33,4.89c-1.87,6.6-3.65,13.24-5.54,19.84a15.81,15.81,0,0,0-.61,5.2c.13,3.08-.56,5.86-2.89,8.07a2.11,2.11,0,0,0-.47,1.08q-10.32,37-20.62,74.07a4.37,4.37,0,0,1-3.41,3.4Q162,218.18,116.38,229.94q-8.64,2.22-17.28,4.47a4.47,4.47,0,0,1-4.65-1.35Q83.71,222,73,211q-13.14-13.52-26.25-27a1.24,1.24,0,0,0-1.63-.33,15.18,15.18,0,0,1-19.67-7.73,14.92,14.92,0,0,1,0-12.55,1.32,1.32,0,0,0-.33-1.74c-2.88-2.89-5.7-5.84-8.55-8.76a4.47,4.47,0,0,1-1.27-4.68c1.47-5.18,2.88-10.38,4.32-15.58.14-.5.37-.88-.41-1.18-3.66-1.4-5.34-4.32-5.36-8-.09-16.6-.06-33.2,0-49.8,0-4.62,3.59-8,8.53-8s9.76,0,14.64,0a1.45,1.45,0,0,0,1.71-1.28c2.28-8.36,4.63-16.7,7-25a3.62,3.62,0,0,1,2.74-2.72l69.12-17.78,38.51-9.89c1.05-.27,2-.89,3.22-.53a6.44,6.44,0,0,1,2.93,1.74q15.38,15.83,30.78,31.64,4.56,4.7,9.08,9.41a3.79,3.79,0,0,0,1.61.95,6.52,6.52,0,0,1,4.58,4.79c.23,1,1.06,1.46,1.56,2.21,1.58,2.31,3.65,3.08,6.49,2.94,5.31-.25,10.64-.08,16-.07A7.64,7.64,0,0,1,239.74,68a12.14,12.14,0,0,1-.43,6.49,6,6,0,0,1-2.8,3.6A7.6,7.6,0,0,1,233,79C231.75,79,230.55,79,229.06,79Z" transform="translate(-13.71 -8.2)"/><path class="cls-2" d="M52.94,98.47a73.45,73.45,0,0,1,8.24,12.41c.21.4.15.61-.25.86a9.28,9.28,0,0,0-4.41,7.71,7,7,0,0,0,4.24,7.27A65.23,65.23,0,0,0,74,130.56a16.82,16.82,0,0,0,6.78.18,10.93,10.93,0,0,0,7.21-4.2A7.89,7.89,0,0,0,93.8,131a8.13,8.13,0,0,0,3.3-.27c.77-.19,1.54-.44,2.3-.67,1.87-.57,1.86-.57,2.37,1.37a66.87,66.87,0,0,0,3.51,9.9c-.24.4-.6.25-.89.29a7,7,0,0,0-4.8,2.4,1,1,0,0,1-1.24.31c-2.33-.53-2.32-.52-2.35-2.87-.08-5.19-4.12-7.89-9-7.3s-6.77,4.25-6.62,8.06c0,.19,0,.4,0,.59.12,1.15.08,1.74-1.55,1.68a6.25,6.25,0,0,0-6,2.89,7.61,7.61,0,0,0-1,4.26,95.79,95.79,0,0,1-1.21,18.14c-.49,3.24.06,6.18,3,8.15A7.09,7.09,0,0,0,79,179c1.36-.26,1.36-.27,1.36,1.17q0,9.72,0,19.44c0,5.74,4.64,8.55,9.62,7.61a7.4,7.4,0,0,0,4.68-2.65c.32-.42.54-.3.85,0a8,8,0,0,0,6.45,2.27c.83-.09.41.46.33.77q-1.56,5.71-3.13,11.43-1.4,5.13-2.77,10.28c-.55-.13-.77-.54-1.07-.85q-19.08-19.6-38.14-39.22c-2.46-2.52-4.9-5.06-7.37-7.56-.44-.45-.54-.67,0-1.19a15.29,15.29,0,0,0,.4-21.51c-5.15-5.59-14.29-6.16-20.51-1.29-1.78,1.4-1.78,1.4-3.4-.26-2.32-2.38-4.61-4.78-6.95-7.14a1.38,1.38,0,0,1-.42-1.56q2.28-8,4.46-16a1.47,1.47,0,0,1,1.28-1.18c4.07-1,6-3.47,6-7.6,0-1.52,0-3,0-4.56,0-.72.21-.93.9-.72,2.82.82,5.17-.1,7.25-2A73.58,73.58,0,0,0,52,100Z" transform="translate(-13.71 -8.2)"/><path class="cls-2" d="M155.26,13.1C153.13,21,151,28.76,148.87,36.58c-.84,3.08-1.69,6.16-2.49,9.25a1.7,1.7,0,0,1-1.28,1.37,59.81,59.81,0,0,0-14.63,7,2.63,2.63,0,0,1-1.56.49q-5.4,0-10.8,0a1.21,1.21,0,0,1-1.3-.74c-3-5.84-12.41-5.35-15.1,0a1.1,1.1,0,0,1-1.2.71c-1.64,0-3.28.05-4.91,0a15.82,15.82,0,0,0-5.3.85c-3.2,1-5.32,5-4.52,8.42.23,1,.49,1.91.76,3a13.67,13.67,0,0,0-7-1.43c-5.36,0-10.72,0-16.08,0-.82,0-1-.15-1-1.06.06-2.3.51-4.6.15-6.93a7,7,0,0,0-3.36-5c-3.76-2.4-9.87-1.83-12.21,2.29a11.1,11.1,0,0,0-1.23,4.71c-.13,1.63-.23,3.27-.28,4.9,0,.79-.27,1.11-1.13,1.1-2.35,0-2.34,0-1.72-2.2q3.1-11.07,6.17-22.15a1.59,1.59,0,0,1,1.29-1.31q36.06-9.24,72.13-18.52l32.12-8.26A.88.88,0,0,1,155.26,13.1Z" transform="translate(-13.71 -8.2)"/><path class="cls-3" d="M52.23,91.66a94.6,94.6,0,0,1-7.88,13.09A59.37,59.37,0,0,1,36.14,114a3.77,3.77,0,0,1-5.12.41c-2.84-1.88-4.12-5.5-.66-8.61,8-7.17,13.19-16.15,16.48-26.3.27-.83.07-1-.75-1-5.56,0-11.11,0-16.67,0-2,0-2.53.53-2.53,2.56v42.59c0,2.94-1.45,4.39-4.49,4.49a4.5,4.5,0,0,1-4.84-4.4c0-.32,0-.64,0-1,0-16.24,0-32.47,0-48.71a4.51,4.51,0,0,1,4.7-4.72c8.43,0,16.87,0,25.31,0,1,0,1.3-.32,1.41-1.22a85.07,85.07,0,0,0,.75-8.59c.05-1.83.49-3.46,2.34-4.23a5.41,5.41,0,0,1,5.75.79A3.23,3.23,0,0,1,59,59c-.19,3.11-.23,6.24-.65,9.33-.12.9.16,1,1,1,7.28,0,14.56,0,21.84,0a5.44,5.44,0,0,1,3.2.81c1.43,1,1.68,2.45,1.69,4,0,5.16,0,10.32,0,15.48,0,10-.11,20,.05,30,.07,4.85-3.1,7.37-7.44,7.53a30.13,30.13,0,0,1-8.84-1.4,42.3,42.3,0,0,1-7.58-2.57A3.13,3.13,0,0,1,60.44,121a5.64,5.64,0,0,1,1.77-5.44c1.31-1.33,2.94-1.28,4.58-.74a62.88,62.88,0,0,0,7.27,2c1.49.29,2.28-.25,2.47-1.76a7.75,7.75,0,0,0,0-1.08q0-16.5,0-33c0-2.06-.36-2.43-2.44-2.43-5.4,0-10.8,0-16.2,0-.69,0-.94.17-1.2.89-.68,1.89-.28,3.2,1.11,4.73A116.24,116.24,0,0,1,73,104.31a11.1,11.1,0,0,1,1.5,3.5,4.68,4.68,0,0,1-3.28,5.3c-2.55.88-4.53.16-5.66-2.09A81.92,81.92,0,0,0,52.76,92.39C52.61,92.21,52.48,92,52.23,91.66Z" transform="translate(-13.71 -8.2)"/><path class="cls-3" d="M199.17,126.45c-8.48,0-17-.07-25.44,0a5.12,5.12,0,0,1-5.3-5.3c.14-9,0-18,0-27a8.32,8.32,0,0,1,.28-2.49,3.11,3.11,0,0,1,3.35-2.49c7.2,0,14.39,0,21.59,0,.94,0,1.22-.22,1.2-1.18q-.08-5.82,0-11.64c0-1-.16-1.34-1.27-1.33-8.68,0-17.36,0-26,0a3.75,3.75,0,0,1-4.05-3.28,8.12,8.12,0,0,1,0-3c.37-2.18,1.54-3.1,3.83-3.1,8.76,0,17.52,0,26.28,0,1.09,0,1.3-.29,1.28-1.32a30.18,30.18,0,0,1,.19-6.58,2.93,2.93,0,0,1,3-2.68,9.08,9.08,0,0,1,4.26.42,3.39,3.39,0,0,1,2.34,3.4c0,1.88.05,3.76,0,5.64,0,.92.24,1.11,1.12,1.11,8.72,0,17.45.06,26.16-.07,2.15,0,4.46,2,4.2,4.22a14.6,14.6,0,0,1-.34,3.08,2.6,2.6,0,0,1-2.92,2.11c-9,0-17.92,0-26.88,0-1.13,0-1.36.33-1.34,1.38.06,3.88.05,7.76,0,11.64,0,.91.23,1.14,1.13,1.13,6.52,0,13,0,19.56,0a7.13,7.13,0,0,1,2.71.38c2.17.86,2.88,2.64,3,4.77.06,1.6,0,3.2,0,4.8v22.08a4.73,4.73,0,0,1-4.21,5,17.64,17.64,0,0,1-3,.23Z" transform="translate(-13.71 -8.2)"/><path class="cls-3" d="M107.08,95.53c-3.87,0-7.74,0-11.61,0-1.49,0-2.87-.22-3.49-1.75a5.19,5.19,0,0,1,.56-5.13,2.7,2.7,0,0,1,2.32-1.06H155c2.95.06,4.45,2,3.81,4.92-.47,2.13-1.51,3-3.68,3h-2.46c.1.43.46.54.7.76,2.92,2.65,2.56,6.06-.89,7.94-1.69.91-3.44,1.69-5.16,2.54l-1.27.63a35.08,35.08,0,0,0,4.79,4.59,50.55,50.55,0,0,0,7.87,5.24,4.85,4.85,0,0,1,2.37,5.33,4.31,4.31,0,0,1-3.32,3.55,5,5,0,0,1-4-.76,48.73,48.73,0,0,1-12.1-10.1c-1.12-1.25-2.22-2.52-3.24-3.86a1.33,1.33,0,0,0-1.81-.51c-1.7.62-1.68.57-1.52,2.31a43.11,43.11,0,0,1,0,8.27c-.4,3.9-3.61,6.62-8,6.91a23.86,23.86,0,0,1-9.39-1.61c-2.12-.72-2.74-2.45-2-4.92.61-2.16,2.19-3.28,4.28-2.91,1.37.25,2.7.7,4.06,1,1.78.41,2.25,0,2.28-1.81,0-1-.14-2.07-.21-3.1s-.37-.86-1-.52c-3.18,1.66-6.36,3.35-9.59,4.92A127.1,127.1,0,0,1,96.3,127a3.6,3.6,0,0,1-4.14-1,4.66,4.66,0,0,1-.86-4.93,2.37,2.37,0,0,1,1.77-1.29c4-1.26,8.08-2.51,12.11-3.81a139.39,139.39,0,0,0,18.46-8c1.28-.63.28-1.36.11-2-.27-1-.83-.2-1.17,0a122.31,122.31,0,0,1-25.73,10.66c-4.42,1.26-5.67-1.92-5.37-4.93a2.16,2.16,0,0,1,1.78-1.86c4.24-1.28,8.5-2.49,12.67-4,4.54-1.66,9-3.42,13.39-5.52.38-.19,1.31-.08,1-1-.48-1.24-1.28-1.62-2.21-1.19q-4.83,2.25-9.81,4.17a130.87,130.87,0,0,1-13,4.26,3.45,3.45,0,0,1-4.59-3.52c0-1.45.64-2.28,2.43-2.84,2.17-.69,4.38-1.23,6.55-1.9,2.47-.76,4.92-1.59,7.38-2.4Z" transform="translate(-13.71 -8.2)"/><path class="cls-4" d="M108.82,139.74A67,67,0,0,1,105,128.83c-.15-.59.09-.78.55-1,1.9-.75,3.78-1.52,5.66-2.31.49-.2.72-.1.85.41.65,2.46,2.49,3.76,4.73,4.48a48,48,0,0,0,6,1.46,14.66,14.66,0,0,0,11.74-2.41c2.93-2.14,4.06-5.23,4.37-8.7.08-.79,0-1.6,0-2.51a2.16,2.16,0,0,1,1,.82,52.66,52.66,0,0,0,11.62,9.4c3.72,2.2,7.07,2.09,10.37-.43a7.32,7.32,0,0,0,2.73-4.36.34.34,0,0,1,.34.3,8.19,8.19,0,0,0,8.23,6.25c17.16.06,34.32,0,51.48,0,.63,0,1.26-.1,2-.16a10.27,10.27,0,0,1-.62,2.41A64.86,64.86,0,0,1,205,163.6c-.64.52-1.1.73-1.83.11a6,6,0,0,0-3.95-1.18q-25,0-49.92,0a7.46,7.46,0,0,0-6.66,3.37c-.35.55-.56.4-1.1.2-2-.73-2.11-2.18-2.06-4,.12-4.2.05-8.4,0-12.6a9,9,0,0,0-1.18-4.7c-1.61-2.64-4.26-3.21-7-3.39-1.83-.12-3.68,0-5.52,0-.69,0-1.1-.1-1.19-.92-.52-4.42-4-6.28-7.46-6.68S110.16,135.78,108.82,139.74Z" transform="translate(-13.71 -8.2)"/><path class="cls-3" d="M117.91,182.07a41.7,41.7,0,0,1-4.81,9.41A62.19,62.19,0,0,1,103.87,202a3.66,3.66,0,0,1-4.11.8,4.88,4.88,0,0,1-3.24-4,3.3,3.3,0,0,1,1.28-2.6A77,77,0,0,0,106.27,186a33.15,33.15,0,0,0,3.71-7.23c.49-1.39.5-1.39-.91-1.39H102a3.6,3.6,0,0,1-3.85-3.56c-.3-3.35,1.11-4.91,4.65-5q4.08-.1,8.16,0c1.09,0,1.32-.38,1.39-1.35.32-4.2.18-8.4.43-12.59.06-1-.28-1.13-1.14-1.11-2,.06-4.08,0-6.12,0-3.15,0-4.72-1.88-4.18-5a3.87,3.87,0,0,1,4-3.49c2.08,0,4.16,0,6.24.11.71,0,1-.14,1-.92-.07-1,0-2,0-3a4,4,0,0,1,4.77-3.85,4,4,0,0,1,3.61,4.09,16.48,16.48,0,0,1-.08,2.63c-.09.74.17.88.84.88,3.08,0,6.16,0,9.24,0a8.11,8.11,0,0,1,1.9.18,3.13,3.13,0,0,1,2.79,3.23c.09,2.28.05,4.56.06,6.84,0,4,0,7.92,0,11.88,0,.84.12,1.29,1.09,1.17a3.13,3.13,0,0,1,3.6,2.13c.74,1.88.86,3.77-.47,5.45a3.59,3.59,0,0,1-3.05,1.11H124.19a1.55,1.55,0,0,0,.07.42,65.72,65.72,0,0,0,14.62,18.09,3.91,3.91,0,0,1,1,5.31,4.17,4.17,0,0,1-5.3,2.06,9.31,9.31,0,0,1-3.53-2.62,81.43,81.43,0,0,1-12.11-16.62Z" transform="translate(-13.71 -8.2)"/><path class="cls-3" d="M125.45,77H103c-1.9,0-2.15.26-2.16,2.14,0,.4,0,.8,0,1.2.28,2.72-1.4,4-4.5,4.11a3.9,3.9,0,0,1-4.19-4.08c0-2,0-4,0-6,0-3,1.65-4.87,4.69-5,2.27-.13,4.56-.13,6.83-.06,1.14,0,.92-.63,1-1.29s-.09-1.12-1-1.1c-3.4,0-6.8,0-10.2,0-2.5,0-3.66-1.19-4-4.08a3.66,3.66,0,0,1,3-4,9.13,9.13,0,0,1,2.49-.3c2.92,0,5.84,0,8.76,0,.72,0,.93-.21,1-.93.26-2.72,2-4.17,4.91-4.1A4.25,4.25,0,0,1,114,57.79c0,.65.24.78.84.78q10.26,0,20.51,0c.61,0,.78-.19.89-.78C136.72,55,138,54,140.82,54s4.32,1.14,4.79,3.82c.12.7.38.8,1,.79,3.6,0,7.19,0,10.79,0a3.15,3.15,0,0,1,3.42,2.7,8.39,8.39,0,0,1,.22,1.66c.07,2.6-1.18,4-3.8,4q-5.22.09-10.44,0c-.89,0-1.18.2-1.13,1.11s0,1.32,1.11,1.28c2.76-.09,5.52,0,8.28,0A4.31,4.31,0,0,1,159.63,74a18,18,0,0,1-3,9.23c-1.08,1.77-2.79,2.15-4.72,1.73a4.63,4.63,0,0,1-3.77-3.72,3.12,3.12,0,0,1,.52-2c1.09-2,1-2.13-1.29-2.13Z" transform="translate(-13.71 -8.2)"/><path class="cls-2" d="M100.34,230.2c1.28-4.71,2.5-9.22,3.72-13.72,1.06-3.89,2.14-7.77,3.18-11.67a3.34,3.34,0,0,1,.93-1.63,59.18,59.18,0,0,0,9.63-12c.52-.86.74-.51,1.1.05a82.32,82.32,0,0,0,9.39,12,11.61,11.61,0,0,0,5.87,3.73,7.71,7.71,0,0,0,7.06-1.61,1.22,1.22,0,0,1,1.46-.27,9.05,9.05,0,0,0,3.4.59q23.7,0,47.39,0h1.43l0,.26Z" transform="translate(-13.71 -8.2)"/><path class="cls-2" d="M130.81,181c1.86,0,3.49,0,5.11,0,3,0,5.75-.54,7.51-3.3.38-.6.82-.29,1.26-.14a76,76,0,0,0,14.22,3.19,60.51,60.51,0,0,0,22-1.38,26.53,26.53,0,0,1,7-.85q5.93.11,11.87,0c2.63,0,4.89-1,6-3.55a8.88,8.88,0,0,0,.7-5.85,2.21,2.21,0,0,1,.93-2.68,64.33,64.33,0,0,0,13.06-14c.2-.27.28-.68.84-.76l-11.64,41.8c-1.91-3.36-4.93-4-8.21-4q-28,0-56,0a7.44,7.44,0,0,0-4.71,1.5.88.88,0,0,1-1.4,0A64.89,64.89,0,0,1,130.81,181Z" transform="translate(-13.71 -8.2)"/><path class="cls-2" d="M196,50.87c-1.31-.59-2.55-1.18-3.81-1.72a66.87,66.87,0,0,0-29-5.42,57.87,57.87,0,0,0-11.48,1.63c-.87.22-1.22.25-.91-.87,2.81-10.2,5.56-20.42,8.32-30.63.19-.71.33-1,1-.29q15.57,16.07,31.18,32.11c1.33,1.37,2.68,2.74,4,4.13C195.62,50.08,196,50.27,196,50.87Z" transform="translate(-13.71 -8.2)"/><path class="cls-3" d="M174.12,193.44h28.19c1.43,0,2.89.1,3.68,1.5a5.14,5.14,0,0,1,.09,5.27c-.73,1.29-2.08,1.54-3.44,1.55-2.92,0-5.84,0-8.76,0H145.54a3.55,3.55,0,0,1-3.64-3.39c-.39-2.6.36-4.22,2.26-4.8a4.66,4.66,0,0,1,1.29-.16h28.67Z" transform="translate(-13.71 -8.2)"/><path class="cls-3" d="M92.16,171.12c0,9.8,0,19.6,0,29.4a2.7,2.7,0,0,1-1.54,2.6c-2,1.16-5,.46-6-1.4a3.8,3.8,0,0,1-.38-1.85q0-29.16,0-58.31c0-2.48,1.4-3.78,4.06-3.78s3.86,1.32,3.86,3.82Z" transform="translate(-13.71 -8.2)"/><path class="cls-3" d="M174.29,174.72H149.35c-2.71,0-4.16-1.61-4.15-4.58,0-2.38,1.52-3.79,4.11-3.79h49.77a3.56,3.56,0,0,1,3.71,3.43,11.68,11.68,0,0,1,0,1.67c-.13,2.39-1.08,3.27-3.47,3.27Z" transform="translate(-13.71 -8.2)"/><path class="cls-4" d="M145.29,51.16a55.29,55.29,0,0,1,11.05-2.87,61.65,61.65,0,0,1,35.45,4.82c1,.43,1.06.69.48,1.65a10.09,10.09,0,0,0-1.21,5.89c.05,1.12-.34,1.3-1.35,1.29-7.43,0-14.87,0-22.3,0-.28,0-.56,0-.84,0-1.76.12-1.76.12-2.17-1.64a6.78,6.78,0,0,0-7-5.57q-4,0-7.91,0a1.18,1.18,0,0,1-1.22-.68A7.29,7.29,0,0,0,145.29,51.16Z" transform="translate(-13.71 -8.2)"/><path class="cls-5" d="M39.24,181a11.4,11.4,0,1,1,11.4-11.34A11.41,11.41,0,0,1,39.24,181Z" transform="translate(-13.71 -8.2)"/><path class="cls-4" d="M164.64,118.53a10.37,10.37,0,0,0-5.06-5.2,39.06,39.06,0,0,1-6.26-4.19c-.71-.56-.61-.8.16-1.17a9.73,9.73,0,0,0,4.44-3.71,7.19,7.19,0,0,0,1.06-5,.92.92,0,0,1,.47-1.08c3.58-2.39,4.43-8.73,1.18-12.23-.59-.64-.49-1-.1-1.71a23,23,0,0,0,2.18-5.68c.15-.6.24-.93,1-.5a7.62,7.62,0,0,0,3.79.92c7.47,0,14.95,0,22.42,0,.85,0,1.21.14,1.15,1.1a38.73,38.73,0,0,0,0,4.31c0,.84-.23,1.08-1.07,1.07-5.63,0-11.27.1-16.9,0-5.85-.15-8.31,3.32-8.41,8.47-.15,7.87,0,15.74,0,23.61Z" transform="translate(-13.71 -8.2)"/><path class="cls-3" d="M124.54,84.92H106.31a2.51,2.51,0,0,1-2.83-2.77c0-2,1-3.13,2.8-3.14,6.23,0,12.47,0,18.71,0,6,0,12,0,18,0a2.73,2.73,0,0,1,2.87,2.93c0,2-1,3.1-2.84,3.1-6.16,0-12.31,0-18.47,0Z" transform="translate(-13.71 -8.2)"/><path class="cls-3" d="M82.51,156.34a100.33,100.33,0,0,1-1.43,16.12,3.26,3.26,0,0,1-3.36,2.92,3.35,3.35,0,0,1-3.37-3.24c-.16-2,.47-3.88.66-5.82a90.15,90.15,0,0,0,.68-14.59c-.15-2.35.66-3.34,2.87-3.56a3.19,3.19,0,0,1,3.71,3.16C82.43,153.32,82.47,155.32,82.51,156.34Z" transform="translate(-13.71 -8.2)"/><path class="cls-3" d="M97.45,166.56a2.66,2.66,0,0,1-2.92-2.43c-.46-3-.77-6.09-1.15-9.13-.17-1.31-.41-2.6-.53-3.91-.17-1.9.9-3.08,2.93-3.36a2.79,2.79,0,0,1,3.38,2.4,120.53,120.53,0,0,1,2,13.36C101.33,165.15,99.55,166.57,97.45,166.56Z" transform="translate(-13.71 -8.2)"/><path class="cls-6" d="M223.47,85.4H209.28c-.6,0-.74-.24-.73-.78,0-1.64,0-3.28,0-4.91,0-.56.15-.77.74-.77,3.43,0,6.87,0,10.3,0a.87.87,0,0,1,.86.5A63.42,63.42,0,0,1,223.47,85.4Z" transform="translate(-13.71 -8.2)"/><path class="cls-2" d="M72.73,96.31c-3.6-4.75-7.27-9.35-11.27-14,3.7,0,7.16,0,10.61,0,.55,0,.66.25.66.73C72.72,87.47,72.73,91.89,72.73,96.31Z" transform="translate(-13.71 -8.2)"/><path class="cls-2" d="M104.53,181.24c-1,2.52-5.51,8.5-8.45,11.11V178.71A9.32,9.32,0,0,0,100,181,39.84,39.84,0,0,0,104.53,181.24Z" transform="translate(-13.71 -8.2)"/><path class="cls-2" d="M33.58,96.34c.5-1.86,1-3.72,1.52-5.58.69-2.49,1.42-5,2.08-7.48.18-.67.41-1,1.19-1,1.07.07,2.15,0,3.44,0A53.18,53.18,0,0,1,33.58,96.34Z" transform="translate(-13.71 -8.2)"/><path class="cls-2" d="M108.74,161.19c0,.36,0,.72,0,1.08,0,2.85-.46,3.17-3.31,2.69-.39-.06-.56-.18-.53-.6a33.11,33.11,0,0,0-.52-5.7c-.08-.78.1-1.1.93-1s1.92,0,2.87,0c.52,0,.69.16.66.7-.06,1,0,1.92,0,2.87Z" transform="translate(-13.71 -8.2)"/><path class="cls-7" d="M233.66,89.4l3.62,3.54a.67.67,0,0,1,.23.74c-.79,2.79-1.57,5.57-2.45,8.35C234.74,97.87,235.49,93.61,233.66,89.4Z" transform="translate(-13.71 -8.2)"/><path class="cls-8" d="M30.73,91.75c0-3,0-5.86,0-8.76,0-.54.2-.65.7-.68,2.17-.12,2.17-.14,1.57,2-.68,2.42-1.35,4.84-2,7.26C30.94,91.61,30.85,91.65,30.73,91.75Z" transform="translate(-13.71 -8.2)"/><path class="cls-9" d="M230.88,86.69a2.88,2.88,0,0,0-.87-.38c-2.82-.23-3-2.68-3.73-4.7l4.58,4.81c.08.06.11.11.09.18S230.91,86.69,230.88,86.69Z" transform="translate(-13.71 -8.2)"/><path class="cls-10" d="M230.88,86.69l0-.27c.4.12.6.45.95.87A1.16,1.16,0,0,1,230.88,86.69Z" transform="translate(-13.71 -8.2)"/><path class="cls-11" d="M90.22,85.53c-.11.1-.19.22-.28.23s-.17-.21-.17-.34.09-.17.13-.25Z" transform="translate(-13.71 -8.2)"/><path class="cls-12" d="M233.63,88.91c0,.34-.17.37-.25.3a.76.76,0,0,1-.27-.35c0-.13.08-.18.21-.11Z" transform="translate(-13.71 -8.2)"/><path class="cls-13" d="M89.07,69.51a1.68,1.68,0,0,1,.2.35c0,.07-.08.17-.12.26a3.09,3.09,0,0,1-.26-.37C88.84,69.65,88.86,69.54,89.07,69.51Z" transform="translate(-13.71 -8.2)"/><path class="cls-1" d="M199.43,117.12c-6.6,0-13.2,0-19.8,0-1.14,0-1.49-.46-1.49-1.46v-15.6c0-1.19.72-1.46,1.74-1.46,6,0,12.08,0,18.12,0h20.4c2.71,0,2.88.18,2.88,3v13.32c0,1.77-.44,2.21-2.17,2.21Z" transform="translate(-13.71 -8.2)"/><path class="cls-1" d="M128.63,95.68H148.1l.08.28c-1.07.65-2.13,1.32-3.22,1.94a88.6,88.6,0,0,1-11.41,5.27c-.4.16-.75.37-1-.29A44.58,44.58,0,0,0,128.63,95.68Z" transform="translate(-13.71 -8.2)"/><path class="cls-1" d="M174.23,151.44c-8.91,0-17.83-.07-26.74,0-5.65.06-8.56-4.78-7.88-9.54.65-4.51,4.17-6.46,8-6.46q20.81,0,41.62,0c4.11,0,8.23,0,12.35,0,2.45,0,4.74.7,6.18,2.83a8.92,8.92,0,0,1,.63,9.13c-1.33,2.89-3.93,4-7,4C192.38,151.47,183.31,151.44,174.23,151.44Z" transform="translate(-13.71 -8.2)"/><path class="cls-1" d="M120.76,161.28c0-2.2,0-4.4,0-6.6,0-.93.3-1.15,1.17-1.1,1.19.08,2.4,0,3.6,0,1.53,0,1.92.36,1.92,1.9,0,3.36,0,6.71,0,10.07,0,1,.43,2.29-.16,2.9s-2,.17-3,.21-1.84,0-2.75,0c-.74.05-1-.18-.92-.94.06-2.16,0-4.32,0-6.48Z" transform="translate(-13.71 -8.2)"/><path class="cls-14" d="M125.14,69.3c-3.36,0-6.71,0-10.07,0-1.06,0-1-.53-1-1.26s.07-1.14,1-1.13q10.08.06,20.15,0c1,0,1.12.33,1.1,1.17s-.06,1.25-1.07,1.23C131.86,69.26,128.5,69.3,125.14,69.3Z" transform="translate(-13.71 -8.2)"/><path class="cls-4" d="M199.73,102.48c5.55,0,11.11,0,16.67,0,.84,0,1.07.22,1.06,1.06-.05,3,0,5.92,0,8.88,0,.65-.15.9-.86.89q-16.9,0-33.82,0c-.61,0-.83-.18-.83-.81,0-3,.06-6.08,0-9.12,0-1,.5-.88,1.13-.88Z" transform="translate(-13.71 -8.2)"/><path class="cls-3" d="M174.28,147.6c-9,0-17.92-.08-26.88.05a4.12,4.12,0,0,1-4.12-4.28c.05-2.65,1.4-4.09,4.06-4.09h54.12c2.76,0,4,1.33,4.06,4.17s-1.44,4.16-4.13,4.16Z" transform="translate(-13.71 -8.2)"/></svg>