<svg id="圖層_1" data-name="圖層 1" xmlns="http://www.w3.org/2000/svg" viewBox="0 0 220.38 186.67"><defs><style>.cls-1{fill:#f6ea9a;}.cls-2{fill:#2585ad;}.cls-3{fill:#fee13f;}.cls-4{fill:#46961a;}.cls-5{fill:#f3c352;}.cls-6{fill:#46971a;}.cls-7{fill:#4ba7ef;}.cls-8{fill:#59c77b;}.cls-9{fill:#f5ea9a;}.cls-10{fill:#9ccb65;}.cls-11{fill:#5ac77a;}.cls-12{fill:#fefefe;}.cls-13{fill:#fdfefe;}.cls-14{fill:#ecc155;}</style></defs><title>35</title><path class="cls-1" d="M68.63,192.48c-4.16,0-8.32,0-12.48,0-.94,0-1.22-.24-1.21-1.2,0-4.72,0-9.43,0-14.15.59-.58,1.35-.41,2-.41H89.8c2.45,0,2.45,0,2.45-2.51,0-2.19,0-4.39.07-6.58a1.24,1.24,0,0,1,.57-1,5,5,0,0,1,2.13-.22q20,0,40,0a14,14,0,0,0,2.74-.24c4-.77,5.09-4,4.88-6.91-.23-3.24-2-5.09-5.17-5.71a18.18,18.18,0,0,0-3.46-.32H94.74a3.26,3.26,0,0,1-2.2-.36,2.3,2.3,0,0,1-.28-1.38q0-5.44,0-10.87a2.58,2.58,0,0,1,.25-1.39c.63-.6,1.43-.41,2.16-.41q21.57,0,43.13,0a19.12,19.12,0,0,0,2.62-.18c4.27-.6,5.84-4,5.25-7.69a6.94,6.94,0,0,0-.81-2.49c-.2-.34-.42-.7-.13-1.11a1.08,1.08,0,0,1,.66-.25c2.69-.1,5.39-.08,8.08,0a1.05,1.05,0,0,1,1.06.61,22,22,0,0,0,.26,4.28,4.86,4.86,0,0,0,3.92,3.88,15.31,15.31,0,0,0,3.09.34h17.75c.44,0,.88,0,1.32,0,.8.06,1.18.5,1.06,1.28-.42,2.92-.88,5.85-1.38,8.76-.15.82-.78.94-1.45.95-1.6,0-3.2,0-4.8,0h-9.11c-.68,0-1.36.07-2,.13-5.78.51-6.69,6.66-4.86,10.33a4.51,4.51,0,0,0,3,2.41,16.56,16.56,0,0,0,4.26.57c3.68,0,7.36,0,11,0,1.36,0,1.55.29,1.34,1.56a12.2,12.2,0,0,1-1.72,1.95c-.92,1.13-.86,1.63.33,2.5.23.17.47.3.56.59a26.08,26.08,0,0,1-.67,5.21c-.47,3.32-1,6.62-1.56,9.93-.29,1.82-.5,2-2.31,2h-14a12.17,12.17,0,0,0-1.91.1c-3.46.56-5.17,2.5-5.32,6,0,.66.17,1.38-.39,1.93h-1.87c-.39-.42-.22-.91-.11-1.36a6.75,6.75,0,0,0-.9-4.84c-1-1.86-2.81-2.51-4.8-2.75a15.4,15.4,0,0,0-1.8,0H75c-4.15.07-6.83,2.8-6.24,7.74C68.82,191.66,69,192.1,68.63,192.48Z" transform="translate(-14.45 -33.41)"/><path class="cls-2" d="M55,114.91a10.49,10.49,0,0,1-1.14-4.85c0-2.6,0-5.2,0-7.8,0-1-.32-1.19-1.22-1.17-2.84,0-5.68.06-8.52,0-2.13,0-4.14-.5-5.58-2.4a2,2,0,0,0-.16,1.24c-.14,3.15.2,6.3-.43,9.45-.86,4.29-3.43,6.64-8,7.29-2.87.41-5.54-.45-8.23-1.16a11.06,11.06,0,0,1-3.14-1.14c-3.48-2.14-3.78-6.17-1.88-9.46a6,6,0,0,1,7-2.73,9.59,9.59,0,0,0,1.21.24V92.61l-2.59.61a6.21,6.21,0,0,1-7.51-4.45,6.91,6.91,0,0,1,4.8-8.92c1.57-.47,3.08-1.1,4.63-1.63a.93.93,0,0,0,.73-1c0-4.56,0-9.12,0-13.68,0-.79-.3-.9-1-.9a23.45,23.45,0,0,1-4.65-.25c-3.79-.75-5-4.08-4.81-7.23a6,6,0,0,1,2.91-5.22,8.88,8.88,0,0,1,4.38-1c1,0,2.31.32,2.89-.18s.18-2,.24-3c.14-2.71-.36-5.44.47-8.11a5.28,5.28,0,0,1,3.65-3.62,7.88,7.88,0,0,1,6.38.5c2.24,1.18,2.83,3.37,2.92,5.68s0,4.88,0,7.32c0,.45-.26,1.19.23,1.29.73.15,1.66.47,2.29-.11,1.73-1.59,3.81-1.89,6-1.9,2,0,4,0,6,0,.74,0,.94-.22,1-1,.06-2.51-.23-5,.33-7.52.81-3.6,3.8-5.07,7-4.92a6.33,6.33,0,0,1,5.57,3c.34.59.4,1.28.81,2a6,6,0,0,1,2.18-3.59,7.38,7.38,0,0,1,7.71-.76c2.66,1.1,3.48,3.49,3.67,6.12a40.59,40.59,0,0,1,0,4.68c0,.87.17,1.16,1.1,1.14q4.38-.11,8.76,0a7.45,7.45,0,0,1,4.62,1.37A6.55,6.55,0,0,1,98,54c-.61,4.34-3.48,5.62-7.15,5.77-2.88.12-5.76.06-8.64,0-.88,0-1.24.2-1.13,1.12a17.31,17.31,0,0,1,.06,2,3.29,3.29,0,0,1,.28,2c0,1.44.07,1.5,1.48,1.51h6.35a14.47,14.47,0,0,1,4.14.63,5.27,5.27,0,0,1,3.73,3.73,8.56,8.56,0,0,1,.33,4.71c-.82,3.41-2.87,5.2-6.42,5.29-2.68.07-5.36,0-8,0-1.47,0-1.55.09-1.56,1.56q0,1.56,0,3.12c0,1.5.07,1.58,1.54,1.58h8.27a12.33,12.33,0,0,1,2.5.25,6.2,6.2,0,0,1,5.43,6.32c.23,4.66-2.56,7.69-7.27,7.79-3,.07-5.92,0-8.87,0-1.54,0-1.6.06-1.6,1.64,0,2.48,0,5,0,7.43a8.36,8.36,0,0,1-.95,4.17A6.86,6.86,0,0,1,73.93,118a6.55,6.55,0,0,1-6.42-4.3c-1.27,2.93-3.69,4.05-6.63,4.38a12,12,0,0,1-3.74-.91C56.25,116.6,55.26,116.1,55,114.91Z" transform="translate(-14.45 -33.41)"/><path class="cls-2" d="M168.44,57.6c0-5.71,0-11.43.06-17.14,0-2.4.66-4.59,2.92-5.93,3.19-1.9,7.84-1.21,9.59,1.8a8,8,0,0,1,1,4.14c0,5.27,0,10.54,0,15.82,0,.43,0,.87.08,1.31a3.16,3.16,0,0,1,.2,1.52c0,15.27,0,30.53,0,45.79a11.13,11.13,0,0,1-5,9.72,11.36,11.36,0,0,1-5.94,1.64c-4,.22-7.78-.65-11.59-1.57a14.59,14.59,0,0,1-3.3-1,6.79,6.79,0,0,1-3.63-7.83,8.73,8.73,0,0,1,1.76-3.89,1,1,0,0,0,.06-1.39,8.09,8.09,0,0,1-1.13-3.75c0-8.7,0-17.4,0-26.11,0-2.79.28-5.57.25-8.36a40.45,40.45,0,0,1-.25-4.53c0-1.56,0-3.11,0-4.67,0-.64-.21-1-.93-.83-2.68.6-5.4.33-8.11.29-3.95-.07-7.9,0-11.85,0,3.8,0,7.6,0,11.4,0a9.34,9.34,0,0,1,8.82,4.92c1.07,2.41.95,5,.86,7.49,0,.35-.07.7-.07,1.06a81.19,81.19,0,0,1-2.82,14.57,50.71,50.71,0,0,1-10.25,19.74,45.89,45.89,0,0,1-13.22,10.57,75.48,75.48,0,0,1-8.25,3.86,63.87,63.87,0,0,1-7,2.21,8.8,8.8,0,0,1-3,.17c-5.91-.68-7.34-6.91-5.4-10.74,1.16-2.28,3.47-3.09,5.77-3.72a67.32,67.32,0,0,0,7.72-2.6l1.53-.68A30.91,30.91,0,0,0,126,95.07c.72-.58.71-1,.17-1.66-1.58-1.85-3.12-3.74-4.77-5.52a32.8,32.8,0,0,0-2.57-2.83c-.61-.68-1-.28-1.45.23a19.2,19.2,0,0,1-3.68,3.58c-4.87,3.68-10.68.65-11.4-5a6.58,6.58,0,0,1,.76-3.59A11.12,11.12,0,0,1,105.38,77a34.58,34.58,0,0,0,7.87-12.18,4.84,4.84,0,0,1,1-1.9,50.36,50.36,0,0,0,2.57-10c.12-.72-.26-.7-.73-.7-1.6,0-3.2.06-4.8,0-2.44-.11-4.71-.67-6-3-1.84-3.26-1.24-7.67,2-9.67a7.33,7.33,0,0,1,3.9-1q19.62,0,39.23,0c2.43,0,4.57.73,5.93,2.94.32.52.65.52,1.2.35a9,9,0,0,1,4.24-.53c4,.68,5.71,2.69,5.77,6.8,0,3.15,0,6.31,0,9.47a2.27,2.27,0,0,1,.36,1.6q0,18.17,0,36.33a10.28,10.28,0,0,1-1.15,4.85c-.16.3-.49.62-.13,1a1.07,1.07,0,0,0,1,.21c.46-.11.42-.52.45-.87s0-.88,0-1.32V59.69A3.23,3.23,0,0,1,168.44,57.6Z" transform="translate(-14.45 -33.41)"/><path class="cls-3" d="M92.62,167.53c0,2.83,0,5.67,0,8.5,0,1.11-.53,1.1-1.32,1.1H56.85c-.64,0-1.27,0-1.91,0-2.92,0-5.83-.05-8.75,0-.81,0-1.09-.18-1.09-1q0-22.69,0-45.41c0-.93.29-1.17,1.15-1.1a17.3,17.3,0,0,0,2.16,0,1.76,1.76,0,0,1,1.32-.31c1.76,0,3.52-.06,5.28,0,5.15-.08,10.3,0,15.46,0a2.49,2.49,0,0,1,1.17.21,1,1,0,0,1,.39.93,4,4,0,0,1,0,.6c-.53,5,2,7.82,7,7.87,4,0,8,0,11.95,0,.58,0,1.21-.13,1.68.38V152.9a2.16,2.16,0,0,1-1.6.31c-2.56,0-5.11,0-7.67,0a20.2,20.2,0,0,0-3.55.39c-3.9.66-5.14,4.24-4.73,7.18.48,3.41,2,4.85,5.34,5.56a8.83,8.83,0,0,1,1.52.28c.42.24.51.7.68,1.09a5.18,5.18,0,0,0,9.18.56C92,168,92.09,167.49,92.62,167.53Z" transform="translate(-14.45 -33.41)"/><path class="cls-1" d="M71.83,129.62l-16.89-.05c-.62-1-.26-2.06-.34-3.1a9.43,9.43,0,0,1,0-1.76c.11-1,1-1.53,1.52-2.21a46.75,46.75,0,0,1,4.58-4.65c1.25-.38,2.62-.38,3.77-1.11a6.29,6.29,0,0,0,3-4.06,6,6,0,0,0,3.9,4.51,7.5,7.5,0,0,0,7.37-1c1.86-1.37,2.28-3.42,2.35-5.52.1-2.83.07-5.68,0-8.51,0-.92.25-1.14,1.14-1.12,3.16,0,6.32,0,9.48,0a8.41,8.41,0,0,0,4.13-1c2.62-1.5,3.39-4.6,3-7.18-.72-4.14-3.12-5.25-6.74-5.43-3.28-.17-6.56-.08-9.84,0-.92,0-1.15-.26-1.11-1.14a45.66,45.66,0,0,0,0-4.68c0-.94.31-1.12,1.16-1.1,2.76.05,5.52.07,8.28,0,2.25-.07,4.41-.56,5.71-2.67,1.84-3,1.4-8.21-1.75-10a9.41,9.41,0,0,0-4.51-1c-2.64,0-5.27,0-7.91,0-.72,0-1-.18-1-.94.07-1,0-2,.06-3h33a35.42,35.42,0,0,1-8.46,14.16,10.26,10.26,0,0,0-3.09,5.55A7,7,0,0,0,107,89.8c2.89,1,5.26,0,7.37-1.88a24.33,24.33,0,0,0,2.9-3c.73-.91,1.2-1,1.75,0a3.38,3.38,0,0,1,.37,1.74V97.85a2.8,2.8,0,0,1-.38,1.72,50.23,50.23,0,0,1-9.44,3.42c-1.94.53-3.86,1.15-5.13,2.85a7.45,7.45,0,0,0-.19,8,6.88,6.88,0,0,0,7.2,2.92c2.58-.55,5-1.54,7.54-2.31a1.48,1.48,0,0,1,.38,1.22c0,2.8,0,5.59,0,8.39a2.1,2.1,0,0,1-.26,1.15c-.65.57-1.44.4-2.18.4H79.82a14.88,14.88,0,0,0-3.33.34,5.79,5.79,0,0,0-3.81,2.69C72.46,129,72.32,129.5,71.83,129.62Z" transform="translate(-14.45 -33.41)"/><path class="cls-4" d="M150.93,192.48a9.55,9.55,0,0,1,1.15-5.76c1.32-2.05,3.39-2.6,5.6-2.63,5.19-.06,10.39,0,15.58,0,.75,0,1.05-.22,1.17-1,.79-5.16,1.62-10.32,2.43-15.49a5.76,5.76,0,0,0,0-.59,9.23,9.23,0,0,1,.7-4.64c.46-1.47.46-1.47-1-1.47-4,0-7.92,0-11.88,0A9.53,9.53,0,0,1,160,160c-2.22-1.23-2.93-3.42-2.94-5.69,0-2.46.51-4.89,2.91-6.34a8.1,8.1,0,0,1,4.25-1q7.38,0,14.76,0c.82,0,1.17-.16,1.29-1.07.36-2.77.83-5.53,1.33-8.28.16-.88-.07-1.09-.93-1.08-6.52,0-13,0-19.56,0a8,8,0,0,1-4.26-1c-2.46-1.48-2.71-4-2.68-6.5a8.12,8.12,0,0,1,.17-1.19,4.89,4.89,0,0,1,3.48-4.85,9.28,9.28,0,0,1,3.06-.52h26.38a2.54,2.54,0,0,1,1.62.31l16.9,0c6.31,0,12.62,0,18.94,0,2.24,0,4.37.53,5.68,2.67,1.78,2.91,1.49,8.3-1.62,10a9.23,9.23,0,0,1-4.5,1c-9.07,0-18.14,0-27.21,0-1.06,0-1.35.35-1.47,1.28-.27,2.14-.62,4.27-.94,6.39a.88.88,0,0,1,.19.43c.11.57-.41,1.36.19,1.68a5.24,5.24,0,0,0,2.49.72c4.71,0,9.43,0,14.14,0a2.34,2.34,0,0,1,.95.07c3.57.25,6.94,1,9,4.27a13.4,13.4,0,0,1,1.76,7.24q.09,12.12,0,24.22c0,1.1.3,1.31,1.32,1.29a26,26,0,0,1,4.66.12c3.35.54,4.76,2.49,5.29,5.61.5,2.93-.58,5.9-2.75,7.16a9.1,9.1,0,0,1-4.63,1H158.25a9.3,9.3,0,0,1-4.63-1C151.88,196,151.34,194.27,150.93,192.48Z" transform="translate(-14.45 -33.41)"/><path class="cls-5" d="M188.89,122.82l-21.07,0c-2.44,0-4.88-.06-7.31,0a6.1,6.1,0,0,0-5.33,2.65,17.67,17.67,0,0,0-.83,2.34c-.13-.57-.59-.44-1-.44l-8.74,0a.66.66,0,0,1-.46-.08c-2.4-1.67-5.12-1.77-7.91-1.74-5.14,0-10.28,0-15.42,0-.62,0-1.3.14-1.81-.38q0-5.39,0-10.77a73.55,73.55,0,0,0,11.21-5.65c10.47-6.77,16.91-16.41,20.23-28.29a114.33,114.33,0,0,0,2.92-14.3c.65.27.31.83.31,1.23q0,14.08,0,28.16a4.11,4.11,0,0,0,.07,1.31c.36,1.43.54,2.92,1.59,4.07.49.54-.11.67-.34.9-2.19,2.27-2.91,7-.75,9.6a5.94,5.94,0,0,0,3,2.12c4.58,1.27,9.17,2.48,14,2.31,6.59-.22,10-4.46,10.65-10.3a15.18,15.18,0,0,0,.06-1.91q0-22.3,0-44.6c0-.51,0-1,.08-1.54,1.88,0,3.76,0,5.63,0,.94,0,1.2.23,1.2,1.19q0,16.6,0,33.22Q188.88,107.41,188.89,122.82Z" transform="translate(-14.45 -33.41)"/><path class="cls-6" d="M68.63,192.48a11,11,0,0,1-.22-4.13c.78-3.57,2.94-4.86,6.11-5.25a9.66,9.66,0,0,1,1.08,0h66.46a9,9,0,0,1,4.18.91c2.51,1.29,3.41,4.37,3.13,6.87-.07.55-.2,1.1-.31,1.64-1,2.89-3.19,4-6,4.33a7.87,7.87,0,0,1-.84,0H83.54a.21.21,0,0,1-.28,0c-2.67,0-5.35.07-8,0C72.16,196.76,69.74,195.58,68.63,192.48Z" transform="translate(-14.45 -33.41)"/><path class="cls-7" d="M111.06,201.36a5.52,5.52,0,1,1-5.46,5.52A5.54,5.54,0,0,1,111.06,201.36Z" transform="translate(-14.45 -33.41)"/><path class="cls-7" d="M204.26,92.16a5.52,5.52,0,1,1-5.54,5.44A5.54,5.54,0,0,1,204.26,92.16Z" transform="translate(-14.45 -33.41)"/><path class="cls-8" d="M83.26,196.84h.28c1.83,1.26,1.9,1.86.38,3.47q-8.86,9.45-17.74,18.88c-.53.56-1.08,1.12-2,.8-1.2-.43-1.44-1.65-.48-2.71,1.74-1.92,3.53-3.81,5.31-5.7,4.19-4.45,8.4-8.89,12.58-13.35A9.43,9.43,0,0,1,83.26,196.84Z" transform="translate(-14.45 -33.41)"/><path class="cls-8" d="M218.62,59.67a2.58,2.58,0,0,1-.76,1.16q-9,9.61-18.06,19.22c-.93,1-1.7,1.09-2.47.37s-.73-1.48.21-2.49q7.5-8,15-16c1.12-1.19,2.23-2.4,3.38-3.57a1.37,1.37,0,0,1,1.84-.33A1.55,1.55,0,0,1,218.62,59.67Z" transform="translate(-14.45 -33.41)"/><path class="cls-8" d="M60.74,117.85c-1.74,2.31-4,4.14-5.8,6.42-1.55,1.94-2.92,4-5.19,5.29H48.41c-1.25-1.18-1.24-1.79,0-3.08,2.22-2.38,4.42-4.77,6.63-7.16a6.57,6.57,0,0,1,2.14-2.42A17.85,17.85,0,0,0,60.74,117.85Z" transform="translate(-14.45 -33.41)"/><path class="cls-5" d="M168.44,57.6c0,1.2,0,2.4,0,3.6,0,13.24,0,26.48,0,39.71,0,1.18-.31,1.48-1.38,1.09a5.19,5.19,0,0,0-1-.25c-.52-.1-.56-.33-.25-.73,1.44-1.79,1.67-3.92,1.67-6.11V59c0-.48,0-1,0-1.44Z" transform="translate(-14.45 -33.41)"/><path class="cls-7" d="M27.44,159.6a3.72,3.72,0,1,1,3.76-3.71A3.76,3.76,0,0,1,27.44,159.6Z" transform="translate(-14.45 -33.41)"/><path class="cls-8" d="M212.63,147.08c-5.29,0-10.58,0-15.87,0-.67,0-1.34-.15-2-.2-.41,0-.54-.18-.45-.61.16-.69.25-1.4.37-2.11a1.61,1.61,0,0,1,1.89,2.55,2.33,2.33,0,0,0,1.35.16c4.28,0,8.55,0,12.83,0A4.33,4.33,0,0,1,212.63,147.08Z" transform="translate(-14.45 -33.41)"/><path class="cls-9" d="M57.14,116.9A9.5,9.5,0,0,1,55,119.32v-4.41A8.44,8.44,0,0,0,57.14,116.9Z" transform="translate(-14.45 -33.41)"/><path class="cls-4" d="M119,125.26c6.57,0,13.14,0,19.71.06a8,8,0,0,1,5.89,2.14,7.8,7.8,0,0,1,1.46,6.11c-.69,3.77-3.11,5.61-7.3,5.61H105.71q-6.54,0-13.07,0c-4.63,0-9.27,0-13.9-.06-2.46,0-4.79-.61-6.18-3a7.54,7.54,0,0,1-1-5.29l.24-1.3c1.13-2.92,3.36-4.31,7-4.31h28.67C111.36,125.3,115.2,125.27,119,125.26Z" transform="translate(-14.45 -33.41)"/><path class="cls-4" d="M82,166.86c-2.47-.21-4.84-.62-6.3-3-1.85-3-1.34-8.13,1.89-9.87A9.7,9.7,0,0,1,82.24,153c3.46,0,6.93,0,10.4,0,.48,0,1,0,1.43,0H135a17.42,17.42,0,0,1,3,.33c3.23.57,4.7,2.73,5,5.72.31,2.72-.4,5.19-2.9,6.74a8.31,8.31,0,0,1-4.48,1.07H92.89a3.2,3.2,0,0,1-1.61.36H83.53A2.5,2.5,0,0,1,82,166.86Z" transform="translate(-14.45 -33.41)"/><path class="cls-7" d="M162.14,180a3.72,3.72,0,1,1,3.7-3.76A3.76,3.76,0,0,1,162.14,180Z" transform="translate(-14.45 -33.41)"/><path class="cls-10" d="M82,166.86l10.85,0-.27.7A5.83,5.83,0,0,1,88,171.09,5.37,5.37,0,0,1,82,166.86Z" transform="translate(-14.45 -33.41)"/><path class="cls-11" d="M177.57,162.42a25.13,25.13,0,0,1-.7,4.64c-1.76-.42-2.17-1.55-1-2.88C176.39,163.56,177,163,177.57,162.42Z" transform="translate(-14.45 -33.41)"/><path class="cls-12" d="M71.1,75.48V40.92c0-2.07.54-3.08,1.87-3.51,2.39-.79,4.29.51,4.32,3,0,2.8,0,5.6,0,8.4,0,.85.24,1.07,1.07,1.06q6.48-.06,13,0c2,0,3,1.06,3,3.06s-1,2.91-3.15,2.93c-4.24,0-8.48,0-12.72,0-1,0-1.19.27-1.18,1.2q.07,6.24,0,12.48c0,.84.23,1.09,1.07,1.08,3.72,0,7.44,0,11.16,0,.32,0,.64,0,1,0a3.16,3.16,0,0,1,2.65,5,2,2,0,0,1-1.57,1,33.94,33.94,0,0,1-5,.12q-4.12,0-8.27,0c-.73,0-1,.21-1,1,0,4.2,0,8.4,0,12.6,0,.83.29,1,1,1q6.9,0,13.8,0c2.26,0,3.12,1,3,3.2-.1,1.84-1.07,2.77-3.05,2.78-4.44,0-8.88.08-13.32,0-1.26,0-1.49.36-1.47,1.52.07,4,0,8,0,12,0,2.52-1.91,3.83-4.29,3.06a2.3,2.3,0,0,1-1.74-1.94,11.88,11.88,0,0,1-.15-1.78Q71.1,92.76,71.1,75.48Z" transform="translate(-14.45 -33.41)"/><path class="cls-12" d="M63.88,75.61v33.83c0,.4,0,.8,0,1.2,0,2.19-1.06,3.26-3.09,3.31s-3.06-1-3.09-3.28c0-3.64,0-7.27,0-10.91,0-2.47,0-2.47-2.41-2.47H44.34c-2.81,0-4.08-2.15-2.86-4.74.57-1.19,1.65-1.29,2.75-1.3,4,0,8.08,0,12.11,0,1.15,0,1.37-.36,1.36-1.41-.06-4-.07-8.08,0-12.12,0-1.15-.2-1.59-1.48-1.54-3,.11-6.08.06-9.11,0-2.68,0-3.65-1.28-3.24-3.93a2.18,2.18,0,0,1,2-2.06,44.15,44.15,0,0,1,5.27-.1q2.76-.06,5.52,0c.74,0,1.05-.15,1-1q-.06-5.76,0-11.52c0-.83-.3-1-1-1-3.48,0-7,0-10.44,0-2.76,0-4.06-2.08-2.94-4.63.52-1.19,1.57-1.38,2.69-1.39,3.52,0,7,0,10.56,0,1,0,1.19-.3,1.17-1.21,0-3,0-5.92,0-8.88,0-2.66,1.62-3.83,4.19-3.23a2.32,2.32,0,0,1,1.94,2.14,15.34,15.34,0,0,1,.07,1.92Z" transform="translate(-14.45 -33.41)"/><path class="cls-12" d="M34.55,77.46,38,75.11c.43-.3.83-.63,1.28-.89,1.6-.93,2.88-.73,3.81.56A2.84,2.84,0,0,1,42.61,79a43.87,43.87,0,0,1-7,4.63,1.77,1.77,0,0,0-1.09,1.84c0,6.68,0,13.36,0,20a13.32,13.32,0,0,1-.39,3.56c-.69,2.52-2.12,3.68-5.11,3.85a18.82,18.82,0,0,1-8.47-1.85c-1.33-.57-1.61-1.94-1-3.52s1.59-2.18,3-1.8,2.58.84,3.89,1.18c1.73.43,2.24,0,2.25-1.71,0-5.76,0-11.52,0-17.27,0-.88-.24-.89-.94-.61-1.82.7-3.65,1.39-5.51,2-2.15.69-3.27.16-3.92-1.69s0-3.25,1.94-4c2.44-1,4.92-1.86,7.41-2.73a1.33,1.33,0,0,0,1-1.47q-.06-9.76,0-19.55c0-.91-.24-1.15-1.13-1.12-2.16.06-4.32,0-6.48,0s-2.93-.91-2.92-3.06.84-2.91,2.92-2.95,4.4,0,6.6,0c.78,0,1-.22,1-1,0-3.8,0-7.6,0-11.4,0-1,0-2.08,1.11-2.58a3.87,3.87,0,0,1,3.69.09,2.38,2.38,0,0,1,1,2.32c0,3.8,0,7.6,0,11.4,0,1,.26,1.23,1.2,1.18,1.36-.08,2.72-.05,4.08,0,1.9.07,2.74,1,2.72,3s-.86,2.92-2.79,3c-1.44,0-2.88,0-4.32,0-.67,0-.88.18-.88.87C34.57,65.48,34.55,71.32,34.55,77.46Z" transform="translate(-14.45 -33.41)"/><path class="cls-12" d="M49.29,60.51c1.2,0,2.4,0,3.6,0,.69,0,1,.14,1,.92,0,1.32,0,2.64,0,4,0,.71-.19,1-.94,1-1.76,0-3.52,0-5.28,0-2.77.05-5.34.48-6.88,3.22-.41.74-1.36.55-2.07.75-.34.09-.3-.29-.3-.5,0-2.2,0-4.4,0-6.6,0-.52.27-.56.68-.57a7.75,7.75,0,0,0,5.6-2c.24-.25.52-.15.78-.15h3.84Z" transform="translate(-14.45 -33.41)"/><path class="cls-12" d="M38.39,90.19c0-1.28,0-2.23,0-3.18,0-.5.28-.67.62-.89,1.79-1.2,3.57-2.4,5.35-3.62a3.3,3.3,0,0,0,1.09-.92c.85-1.56,2.22-1.63,3.74-1.53,1.24.07,2.48,0,3.71,0,.71,0,1,.18,1,.93,0,1.84,0,3.68,0,5.51,0,.74-.23,1-.95,1-2.84,0-5.67-.06-8.5,0a7.89,7.89,0,0,0-4.74,1.37A7.09,7.09,0,0,0,38.39,90.19Z" transform="translate(-14.45 -33.41)"/><path class="cls-12" d="M126.36,56.55a2.61,2.61,0,0,0,1.25.1l16.08,0c3.93,0,6.27,2.06,6,5.94-.88,13.5-4.09,26.21-13.59,36.51-5.1,5.53-11.49,9.1-18.42,11.78-1.89.74-3.85,1.32-5.77,2a5.51,5.51,0,0,1-2,.29,2.69,2.69,0,0,1-2.79-2.31c-.37-1.82.08-2.84,1.64-3.52,2-.87,4.12-1.25,6.16-1.94,6.22-2.07,11.92-5,16.6-9.72.72-.73.8-1.18.11-2a184.81,184.81,0,0,0-12.88-14.54c-.69-.68-1-.82-1.66.08a38.57,38.57,0,0,1-4.62,5.35,10.83,10.83,0,0,1-1.56,1.31,2.49,2.49,0,0,1-3.3,0,2.89,2.89,0,0,1-1-3.53,6.06,6.06,0,0,1,1.33-2c6.47-6.37,9.92-14.28,11.8-23,.57-2.62,1-5.26,1.37-7.91.11-.75,0-1-.82-1-3,0-6.07,0-9.11,0-2.31,0-3.36-1.19-3.2-3.48a2.54,2.54,0,0,1,2.3-2.5,8.17,8.17,0,0,1,1.31-.1H150c2.46,0,3.66,1.06,3.62,3.14a2.73,2.73,0,0,1-2.92,2.94c-1.16.05-2.32,0-3.48,0-6.24,0-12.48,0-18.71,0-.8,0-1.08.18-1.17,1C127.08,51.8,126.69,54.16,126.36,56.55Z" transform="translate(-14.45 -33.41)"/><path class="cls-12" d="M178.17,72.69q0,15.72,0,31.43a8.71,8.71,0,0,1-1.76,5.72,5.64,5.64,0,0,1-4.09,2.21,34.08,34.08,0,0,1-13.55-1.93,3.28,3.28,0,0,1-1.11-5.42,1.94,1.94,0,0,1,1.52-.54,26.35,26.35,0,0,1,5.51,1.08,19.84,19.84,0,0,0,5.3.86c1.69-.08,2.31-.67,2.31-2.37,0-4.52,0-9,0-13.56V40.5c0-2.56,1.82-3.87,4.22-3.07a2,2,0,0,1,1.55,1.79,15.44,15.44,0,0,1,.08,1.67Z" transform="translate(-14.45 -33.41)"/><path class="cls-12" d="M157.62,72.05q0-11.62,0-23.26c0-.56,0-1.12.05-1.68a1.88,1.88,0,0,1,1.56-1.87,6,6,0,0,1,2.85,0,1.81,1.81,0,0,1,1.43,1.44,8.68,8.68,0,0,1,.14,2V96c0,2.37-1,3.44-3,3.46s-3-1-3-3.4Q157.62,84,157.62,72.05Z" transform="translate(-14.45 -33.41)"/><path class="cls-5" d="M119.05,99.57q0-7.3,0-14.62c2.79,2.76,5.22,5.83,7.77,8.79.45.53.25.79-.17,1.15A29,29,0,0,1,119.05,99.57Z" transform="translate(-14.45 -33.41)"/><path class="cls-13" d="M152.54,57.64c-2.12-3.66-5.46-4.9-9.49-4.85-3.72,0-7.43,0-11.15,0-.35,0-1,.25-1-.24s.62-.31,1-.31c5.79,0,11.59,0,17.39,0a17.78,17.78,0,0,0,4.49-.62v6C153.36,58,153,57.85,152.54,57.64Z" transform="translate(-14.45 -33.41)"/><path class="cls-14" d="M152.54,57.64l1.21,0a3.56,3.56,0,0,1,.05.47q0,19.44,0,38.88c-.34-.42-.18-.92-.19-1.39q0-14,0-27.93c0-.46.17-1-.2-1.38A16.42,16.42,0,0,0,152.54,57.64Z" transform="translate(-14.45 -33.41)"/><path class="cls-12" d="M49.75,129.56l5.19-5.29v5.3Z" transform="translate(-14.45 -33.41)"/><path class="cls-12" d="M186.18,132.71H161c-2.59,0-3.19-.64-3.08-3.22.1-2.17.74-2.79,3-2.8h63.11c.52,0,1,0,1.56,0a2,2,0,0,1,1.92,1.67,8.09,8.09,0,0,1,.18,1.54c0,2.06-.68,2.76-2.73,2.76-6.32,0-12.64,0-19,0-4.08,0-8.16,0-12.24,0-.87,0-1.21.18-1.35,1.13q-1.19,7.93-2.53,15.85c-.16,1,.11,1.12,1,1.12,6.52,0,13,0,19.56,0a20.87,20.87,0,0,1,4.53.41,5.18,5.18,0,0,1,4.34,4.51,24.67,24.67,0,0,1,.3,4.78c0,8.76,0,17.52,0,26.28,0,1,.29,1.19,1.21,1.17,2.48-.06,5,0,7.44,0,1.8,0,2.52.71,2.68,2.51a7.88,7.88,0,0,1,0,1.19c-.11,1.84-.65,2.37-2.51,2.48-.4,0-.8,0-1.2,0H158.12c-3,0-3.64-.75-3.38-3.67.17-1.85.89-2.53,2.79-2.53,6.24,0,12.48,0,18.72,0,.92,0,1.27-.18,1.42-1.19,1.44-9.4,3-18.78,4.45-28.17.23-1.45.24-1.45-1.18-1.45-5.52,0-11-.09-16.56,0-3.52.08-3.88-2-3.35-4.38.34-1.5,1.05-2,2.82-2,4.16,0,8.32,0,12.48,0h6.12c.5,0,.87,0,1-.68C184.31,144.34,185.24,138.59,186.18,132.71Z" transform="translate(-14.45 -33.41)"/><path class="cls-12" d="M108.71,193H76.32c-.36,0-.72,0-1.08,0-2.69-.11-4-2.31-2.88-4.78A2.15,2.15,0,0,1,74.12,187a17.15,17.15,0,0,1,2-.12h65.26c.36,0,.73,0,1.08,0,2.58.15,3.68,1.74,3,4.24a2.3,2.3,0,0,1-2,1.82,12.24,12.24,0,0,1-1.91.11Z" transform="translate(-14.45 -33.41)"/><path class="cls-12" d="M108.71,135.35H78.61c-2.51,0-3.59-1.23-3.31-3.69a2.39,2.39,0,0,1,2.32-2.45,11.42,11.42,0,0,1,1.55-.06h60.07c2.66.09,4,2.21,2.92,4.68a2.29,2.29,0,0,1-1.46,1.31,6.73,6.73,0,0,1-2.14.22Z" transform="translate(-14.45 -33.41)"/><path class="cls-12" d="M108.71,163H81.6a3.18,3.18,0,0,1-2.78-4.91A2,2,0,0,1,80.2,157a11.35,11.35,0,0,1,2-.21h53.14a7.84,7.84,0,0,1,1.19.06c2,.27,2.74,1.17,2.66,3.37-.07,1.81-1,2.73-2.91,2.74-7.12,0-14.24,0-21.35,0Z" transform="translate(-14.45 -33.41)"/><path class="cls-2" d="M136.21,89.43c-1.29-1.49-2.52-3-3.78-4.38-3.4-3.83-7-7.45-10.74-11a1.33,1.33,0,0,1-.37-1.91,42.74,42.74,0,0,0,3.35-8.45,1,1,0,0,1,1.22-.94c5.36,0,10.71,0,16.07,0,1.54,0,1.6.15,1.45,1.7a69.69,69.69,0,0,1-3.77,17.87A37.59,37.59,0,0,1,136.21,89.43Z" transform="translate(-14.45 -33.41)"/><path class="cls-4" d="M213.13,173.14c0,4.59,0,9.19,0,13.78,0,.78-.19,1-1,1q-13.6,0-27.21,0c-1,0-1-.35-.87-1.1,1.09-6.78,2.15-13.56,3.23-20.34.44-2.79.92-5.59,1.31-8.39.1-.76.36-1,1.12-1,7.07,0,14.15,0,21.22,0,1.78,0,2.14.33,2.15,2.22,0,4.59,0,9.19,0,13.79Z" transform="translate(-14.45 -33.41)"/><path class="cls-5" d="M139.24,67.52a53.1,53.1,0,0,1-3.44,14.26c-.24.61-.42.87-1,.23C132,78.82,129,75.86,126,72.9a.86.86,0,0,1-.22-1.13c.61-1.43,1.19-2.87,1.69-4.34a1,1,0,0,1,1.22-.81c3.2,0,6.39,0,9.59,0C139,66.61,139.55,66.69,139.24,67.52Z" transform="translate(-14.45 -33.41)"/><path class="cls-12" d="M209.29,172.56c0,3.48,0,7,0,10.44,0,.78-.11,1.1-1,1.09q-9.47-.06-18.94,0c-.8,0-1-.17-.88-1q1.69-10.46,3.31-20.93c.13-.89.39-1.27,1.39-1.25q7.44.08,14.87,0c1,0,1.3.19,1.27,1.22C209.24,165.61,209.29,169.09,209.29,172.56Z" transform="translate(-14.45 -33.41)"/></svg>