<svg id="圖層_1" data-name="圖層 1" xmlns="http://www.w3.org/2000/svg" viewBox="0 0 232.74 197.16"><defs><style>.cls-1{fill:#f5517c;}.cls-2{fill:#fcd893;}.cls-3{fill:#eca887;}.cls-4{fill:#f6864b;}.cls-5{fill:#7cdd9c;}.cls-6{fill:#fefefe;}.cls-7{fill:#faa9bd;}.cls-8{fill:#f66d81;}.cls-9{fill:#faa88a;}.cls-10{fill:#fab58d;}.cls-11{fill:#fbce92;}.cls-12{fill:#fcd694;}.cls-13{fill:#eda788;}.cls-14{fill:#ef8e84;}.cls-15{fill:#f66c80;}.cls-16{fill:#f66a80;}.cls-17{fill:#f77782;}.cls-18{fill:#f77181;}</style></defs><title>QQFFC</title><path class="cls-1" d="M122.84,62.59q0-9.3,0-18.6c0-6.48,0-13,0-19.43,0-.88.21-1.16,1.12-1.16q38.94,0,77.86,0c1,0,1.26.32,1.18,1.23s0,1.6,0,2.4c0,.58-.16,1.26.82,1.22.28,0,.37.26.37.51s0,.64,0,1v68a18.94,18.94,0,0,1-3,10.8,20.62,20.62,0,0,1-5.1,5.19,4.19,4.19,0,0,1-2.09,1.54,17,17,0,0,1-5.36,1.64c-1.22.17-1.25.23-.56,1.28s1.51,2.36,2.25,3.55c.34.53.72,1.15-.17,1.6-.5.25-.25.58-.07.89.41.73.9,1.42,1.34,2.14.81,1.33.58,1.8-1,1.85-1.2,0-2.4,0-3.6,0-6.2,0-12.4-.05-18.6,0a3.62,3.62,0,0,1-3.56-2c-1.6-2.72-3.44-5.3-5.08-8a2.49,2.49,0,0,0-2.48-1.06H126.84c-3.07,0-3.07,0-3.08-3,0-.81,0-1.56-.8-2.1-.47-.31-.39-.94-.4-1.46,0-2.24,0-4.47,0-6.71q0-19.68,0-39.36A3.38,3.38,0,0,1,122.84,62.59Z" transform="translate(-6.9 -23.39)"/><path class="cls-1" d="M47.05,116.86c-3.51,0-7-.08-10.55,0-1,0-1.34-.3-1.24-1.28a19.26,19.26,0,0,0,0-2.28c0-.6.23-1.36-.84-1.3-.31,0-.34-.28-.35-.53s0-.64,0-1q0-42.75,0-85.52c0-1.73-.18-1.53,1.53-1.53q38.57,0,77.13,0c1.24,0,1.64.34,1.49,1.53-.09.71,0,1.45,0,2.16-.12.92.32,1.21,1.12,1.23.11,1.72,0,3.43,0,5.15,0,9.48-.2,19,.06,28.44.34,12.31.12,24.62.16,36.92,0,7.92-4,13.32-11,16.74a15.22,15.22,0,0,1-4.82,1.37c-1.15.15-1.18.21-.52,1.21.8,1.2,1.55,2.43,2.32,3.65.34.54.71,1.18-.24,1.55-.5.2-.29.47-.12.76.5.86,1.1,1.67,1.59,2.54.59,1,.36,1.46-.8,1.58a7.85,7.85,0,0,1-.84,0c-7.36,0-14.72,0-22.08,0a2.94,2.94,0,0,1-2.84-1.56c-1.69-2.81-3.59-5.49-5.28-8.3a2.49,2.49,0,0,0-2.41-1.21q-9.83,0-19.67,0C48.26,117.19,47.6,117.34,47.05,116.86Z" transform="translate(-6.9 -23.39)"/><path class="cls-2" d="M47.05,116.86c7.52,0,15,0,22.56-.06a1.43,1.43,0,0,1,1.29.87c2,3.1,4,6.18,5.95,9.29a1.79,1.79,0,0,0,1.74.93c7.76,0,15.52,0,23.27,0,.34,0,.8.18,1-.16s-.19-.64-.37-.93c-.74-1.18-1.49-2.35-2.24-3.52.13-.09.18-.15.25-.17.39-.12,1,.24,1.18-.23s-.33-.77-.56-1.13c-.83-1.31-1.65-2.64-2.54-3.92-.55-.79-.54-1.12.53-1.19a16.16,16.16,0,0,0,8.82-3.38,17.56,17.56,0,0,0,7.37-14.61q0-34.38,0-68.75c0-.52,0-1,0-1.56.31.43.16.93.16,1.39q0,15.86,0,31.71c0,1.12.21,1.57,1.42,1.46,2-.18,4-.2,6-.28,0,.51,0,1,.06,1.55q0,23.16,0,46.31c0,.68-.36,1.59.91,1.65.39,0,.27.52.27.82,0,1,0,2.08,0,3.12,0,.56.2.81.77.78.32,0,.64,0,1,0,10.68,0,21.36,0,32,0a2.09,2.09,0,0,1,2,1.11c1.9,3.06,3.88,6.06,5.79,9.1a1.71,1.71,0,0,0,1.65.89c7.76,0,15.52,0,23.27,0,.38,0,.9.22,1.09-.2s-.28-.7-.48-1l-2.22-3.5,1.73-.16c-1.33-2.09-2.58-4-4-6.22a19,19,0,0,0,9.36-3,81.7,81.7,0,0,1,4,14.72c.25,1.49.46,3,.57,4.49.08,1.19.34,2,1.76,2.06a6,6,0,0,1,2.58.29c-.27.33-.65.32-1,.37-2.91,0-5.83,0-8.74,0a2.5,2.5,0,0,0-2.62,1.63c-1.13,2.56-2.33,5.08-3.65,7.55a2.1,2.1,0,0,1-2.41,1.35c-.58-.08-1-.33-1.06-.95a9.32,9.32,0,0,1,0-2.74,15.32,15.32,0,0,0,0-5.36,1,1,0,0,0-1.11-1H158.81c-2,0-2.2.16-2.16,2.19.06,2.4.42,4.77.57,7.16.12,2.07.17,4.15.32,6.21.14,1.75.32,3.5.39,5.25,0,.49-.47.66-.76.94a2.65,2.65,0,0,0-.55,2c0,.66.16,1.37-.4,1.93a5.47,5.47,0,0,1-3.18,0c-.78-1.22-.51-2.6-.52-3.92,0-.58.65-.59,1.13-.66,1.27-.18,1.3-.26,1.19-1.52a10,10,0,0,0-.8-3c-2.23-5.35-4.51-10.68-6.7-16a1.91,1.91,0,0,0-2-1.35c-3.28,0-6.56,0-9.84,0-1.24,0-1.34.19-1.27,1.41a10.73,10.73,0,0,0,1.07,3.78c1.95,4.56,3.85,9.14,5.76,13.72a9.11,9.11,0,0,1,.46,1.23c.18.7-.1,1.08-.8,1.17a9.75,9.75,0,0,1-1.08,0H122.73c-1.74,0-2-.44-1.35-2,2.12-5.09,4.2-10.21,6.44-15.25.54-1.23.19-2.34.12-3.51,0-.49-.53-.55-.94-.55-3.56,0-7.12,0-10.67,0-.88,0-1.21.64-1.51,1.33-1.49,3.54-2.94,7.09-4.43,10.63-.7,1.66-1.28,3.37-2.11,5a6.83,6.83,0,0,0-.35,5,41.82,41.82,0,0,1,.33,4.17.64.64,0,0,1-.32.61,11.3,11.3,0,0,1-4.56,0c-.44-.27-.43-.73-.46-1.16s0-.88,0-1.32c-.13-1.91-.13-1.91,1.65-2.42.44-.12.75-.34.69-.82a10.42,10.42,0,0,0-.48-2.71c-2.36-5.68-4.77-11.35-7.12-17a1.84,1.84,0,0,0-1.93-1.27c-3.27,0-6.55,0-9.83,0-1.3,0-1.37.18-1.31,1.51a10.86,10.86,0,0,0,1.06,3.66q2.91,6.84,5.75,13.71a8.79,8.79,0,0,1,.39,1c.31,1,.1,1.33-.91,1.44a5.9,5.9,0,0,1-.84,0H72.73c-1.35-.07-1.65-.48-1.13-1.76q1.23-3.06,2.53-6.09c1.4-3.23,2.64-6.52,4.12-9.71.53-1.15,0-2.2,0-3.29,0-.39-.5-.48-.87-.48q-5.33-.06-10.67,0c-.86,0-1.24.58-1.54,1.29-1.48,3.49-2.91,7-4.38,10.51-.73,1.73-1.34,3.52-2.21,5.18a7.17,7.17,0,0,0-.31,5,3.17,3.17,0,0,1-.19,2.75,39.82,39.82,0,0,1-6.55-.3c-2.14-.19-4.28-.44-6.43-.52-.36,0-.73,0-.94-.38a3.37,3.37,0,0,0,.07-2,64.77,64.77,0,0,1-1.33-11.52c0-.95-.22-1.67-1.35-1.7a.69.69,0,0,1-.5-.29c.18-.62.73-.56,1.17-.56.9,0,1.17-.44,1.15-1.26,0-2.19.09-4.38-.11-6.56.31-2.19.6-4.39.94-6.57A69.53,69.53,0,0,1,47.05,116.86Z" transform="translate(-6.9 -23.39)"/><path class="cls-2" d="M187.74,185.48a46,46,0,0,1-4.72,6.45,78.93,78.93,0,0,1-47.49,27.44,79.08,79.08,0,0,1-82.12-38.72,92.8,92.8,0,0,1-6.12-13.38,1,1,0,0,1,.89-.2l13.71,1.06a1.49,1.49,0,0,1,.45.15c.57.51.26,1.12.13,1.67-.87,3.58-1.73,7.15-2.7,10.7a9.64,9.64,0,0,0,0,3.43c0,.6.55.77,1,.78,3.32.07,6.63.07,9.95,0,1,0,1.38-.77,1.6-1.64,1-4,2-8.07,3-12.1a3.22,3.22,0,0,1,.75-1.73,5.66,5.66,0,0,1,3.51-.32,56.69,56.69,0,0,0,6,.18,24.44,24.44,0,0,1,3,.25c.86.09,1.31.48,1.29,1.38,0,2.19.09,4.38-.06,6.57-.22.75-.83.9-1.5.93-1.08,0-2.16,0-3.23,0s-1.37.45-1.42,1.39A21.12,21.12,0,0,0,84,183.6c.15,1.09,1,1.27,1.86,1.28h7.66a22.73,22.73,0,0,0,4-.19,6.11,6.11,0,0,0,5.44-6.27c0-2.23,0-4.47,0-6.71a2.24,2.24,0,0,1,.37-1.7,1,1,0,0,1,.67-.21c2.37.31,4.75.09,7.12.24a1.18,1.18,0,0,1,.45.14c.62.49.31,1.1.18,1.65-.72,2.95-1.41,5.91-2.24,8.83a9.63,9.63,0,0,0,0,3.43c.05.61.56.76,1.05.77,3.32.07,6.63.07,9.95,0,1,0,1.38-.78,1.59-1.65q1.4-5.58,2.8-11.16a3,3,0,0,1,.77-1.72,2.6,2.6,0,0,1,1.61-.35c3.51,0,7,0,10.53,0,1.58,0,1.82.25,1.81,1.81,0,1.88.08,3.75,0,5.62-.21.76-.8.94-1.48,1-1,0-2,0-3,0-1.4,0-1.62.29-1.68,1.72a18.35,18.35,0,0,0,.25,3.23c.15,1.14.52,1.48,1.75,1.51,2.32.06,4.64,0,7,0a28.28,28.28,0,0,0,4.78-.19,6.11,6.11,0,0,0,5.45-6.28c0-2.31,0-4.63,0-6.95a2.18,2.18,0,0,1,.38-1.71,7.76,7.76,0,0,1,3.39-.18c.65,0,.95.47,1,1.1a68,68,0,0,1-.35,7.41,29.33,29.33,0,0,0,.05,5.85c.08.56.26,1.08.88,1.1,2.42.07,4.86.39,7.26-.24a1.29,1.29,0,0,1,.82-.11,5.46,5.46,0,0,0,2.43.46c2,0,4.05,0,6.08,0a2.81,2.81,0,0,0,2.35-.88.43.43,0,0,1,.4,0,2.45,2.45,0,0,0,2,.85c2.06-.07,4.13.09,6.2-.13A3.11,3.11,0,0,1,187.74,185.48Z" transform="translate(-6.9 -23.39)"/><path class="cls-1" d="M187.74,185.48c-3-.26-6,.08-9,0-.79,0-1.56-.08-1.59-1.15-.17-.33,0-.68-.09-1a2.71,2.71,0,0,1-.09,1c-.14.87-.69,1.16-1.53,1.16-2.71,0-5.42,0-8.13,0a1.43,1.43,0,0,1-1.43-.67,2.72,2.72,0,0,1-.06-1.33c-.08.53,0,1.14-.4,1.56a1.8,1.8,0,0,1-1.33.43c-2,0-4,0-6,0-1,0-1.36-.38-1.47-1.5-.45-4.39.46-8.71.4-13.07.29-1-.28-1.86-.15-2.82.1-.66,0-1.35.14-2a1.79,1.79,0,0,0-.3-1.47,3.4,3.4,0,0,1-.44-2.84c0-.91,0-1.82,0-2.73,0-.52,0-1.14.66-1.36,2.68-.25,5.35,0,8-.11h-6.3c-.34,0-.74.11-.92-.35a8.86,8.86,0,0,1-.49-3c-.26-3.54-.37-7.09-.55-10.64-.09-2-.54-3.95-.45-5.95.06-1.56.21-1.76,1.71-1.76,8.76,0,17.52,0,26.28,0,1.11,0,1.49.3,1.58,1.48a36.35,36.35,0,0,1,.17,4.17c0,1-.47,2.05-.2,3.11.12.47-.41,1.26.48,1.34s1.69.33,2.18-.73c.87-1.89,1.82-3.74,2.73-5.61.47-1,1-1.93,1.36-2.93a1.84,1.84,0,0,1,2-1.23c3.16,0,6.32,0,9.48,0,.27.14.75.15.73.51-.08,1.2.67,2.36,0,3.59s-1.31,2.55-1.91,3.86-1.14,2.42-1.71,3.63c-.76,1.37-1.31,2.86-2.18,4.13.55-.37,1.2-.14,1.81-.22.91,0,1.82-.05,2.73,0s1.21.59,1.44,1.53c.62,2.49-1,4.18-1.82,6.18-1.08,2.33-2.22,4.64-3.36,6.94a4.16,4.16,0,0,1-1.67,1.94.82.82,0,0,0,0,.19,5.35,5.35,0,0,0,.7.07c1.52,0,3,0,4.55,0,1.2,0,1.43.32,1.19,1.43,0,.15-.17.38-.12.44,1.11,1.1.08,2-.34,2.87-1.46,3.14-3,6.22-4.49,9.37a5.69,5.69,0,0,1-5.58,3.55Z" transform="translate(-6.9 -23.39)"/><path class="cls-3" d="M62.43,168.44c-5.06-.2-10.11-.61-15.14-1.17-5.28-.44-10.53-1.08-15.77-1.86a88.5,88.5,0,0,1-14.93-3.24c-2.33-.77-4.74-1.39-6.57-3.25a10.6,10.6,0,0,1-2.87-5.64c-1.16-6,1.93-11,7-12.66a97.08,97.08,0,0,1,16.36-3.89c4.26-.63,8.52-1.2,12.79-1.65.66.13.46.66.46,1.06,0,2-.05,3.91,0,5.86,0,1-.3,1.35-1.28,1.26-.45,0-1-.19-1.37.21A1.33,1.33,0,0,1,40,144c-4.53.46-9,1.16-13.52,1.93a53.72,53.72,0,0,0-10.31,2.68,8.25,8.25,0,0,0-2,1.07c-1.17.89-1.17,1.66,0,2.58a8,8,0,0,0,1.89,1,59.64,59.64,0,0,0,12.2,3c4.93.83,9.87,1.5,14.85,2a1.34,1.34,0,0,1,1.13.56c.63.56,1.37.09,2,.14,3.37.24,6.71.81,10.1.82a15.11,15.11,0,0,1,1.76.22,2.12,2.12,0,0,1,.58,1.65c0,1,.57,1.39,1.53,1.37a23.79,23.79,0,0,1,2.39,0c1.13.07,1.44.43,1.26,1.52a28.06,28.06,0,0,1-.78,3.13C63,168,62.93,168.46,62.43,168.44Z" transform="translate(-6.9 -23.39)"/><path class="cls-3" d="M202.59,143.21c.63-1.33,1.28-2.64,1.89-4,.28-.59.71-1.2,0-1.82-.24-.19-.05-.45,0-.65a1,1,0,0,0-.47-1.42l1,0c5,.5,9.89,1.15,14.8,2a67.49,67.49,0,0,1,13.24,3.58,9.8,9.8,0,0,1,6.48,8.33c.77,6-2.24,10.47-7.41,12.24a102.59,102.59,0,0,1-19.71,4.3c-4.46.61-8.93,1.2-13.43,1.49a7.67,7.67,0,0,0-.93.19c1.83-2.24,2.75-5,4-7.51a5.61,5.61,0,0,1,.71-1.35c1-.59,2.18-.42,3.27-.56,7-.9,14.12-1.73,21-3.59a23.93,23.93,0,0,0,4.49-1.65,4.54,4.54,0,0,0,1.18-.82c.75-.74.75-1.34,0-2a7,7,0,0,0-2.17-1.26,58.51,58.51,0,0,0-11.72-2.95c-4.93-.8-9.87-1.56-14.85-2A1.83,1.83,0,0,1,202.59,143.21Z" transform="translate(-6.9 -23.39)"/><path class="cls-4" d="M30.35,192.65a8.51,8.51,0,0,1,8.51,8.44,8.6,8.6,0,0,1-17.2-.19A8.47,8.47,0,0,1,30.35,192.65Z" transform="translate(-6.9 -23.39)"/><path class="cls-5" d="M219.66,187.69a8.43,8.43,0,0,1-8.58-8.31,8.6,8.6,0,0,1,17.19.06A8.39,8.39,0,0,1,219.66,187.69Z" transform="translate(-6.9 -23.39)"/><path class="cls-6" d="M146.67,35.57c.84,0,1.67-.06,2.51-.06q15,0,30,0c.72,0,1.15,0,1.15,1q0,25.61,0,51.19c0,.12,0,.24,0,.36-.76.07-1.12-.54-1.54-1a78,78,0,0,0-30.78-19.7,1.74,1.74,0,0,1-1.39-2c.06-9.51,0-19,0-28.52A2.69,2.69,0,0,1,146.67,35.57Z" transform="translate(-6.9 -23.39)"/><path class="cls-2" d="M146.67,35.57q0,15,0,30a1.2,1.2,0,0,0,1,1.36,78.52,78.52,0,0,1,24,13.16,77.56,77.56,0,0,1,7.65,7.07c.3.31.64.59,1,.89,0,3.19.42,6.42-.19,9.56a8.86,8.86,0,0,1-8.81,7.22c-7.88,0-15.76,0-23.64,0-.92,0-1.14-.34-1.14-1.2q0-33.6,0-67.18C146.46,36.15,146.33,35.79,146.67,35.57Z" transform="translate(-6.9 -23.39)"/><path class="cls-6" d="M145.41,34.65a.8.8,0,0,1-.09-.22c0-1.19-.5-2.69.19-3.48s2.19-.24,3.33-.24c10,0,20.08,0,30.11,0,1,0,1.42.13,1.36,1.28-.1,2.1,0,2.1-2.18,2.1H148.38A4.36,4.36,0,0,0,145.41,34.65Z" transform="translate(-6.9 -23.39)"/><path class="cls-6" d="M160.31,115.76a5.79,5.79,0,0,0-2.73-.39q-15.35,0-30.7,0c-1.08,0-1.44-.25-1.39-1.37.09-2,0-2,2-2,9.67,0,19.34,0,29,0a2.1,2.1,0,0,1,2.18,1.23C159.14,114,159.67,114.74,160.31,115.76Z" transform="translate(-6.9 -23.39)"/><path class="cls-6" d="M189.37,126.42H188c-6.55,0-13.11,0-19.66,0a1.94,1.94,0,0,1-2.09-1.15,21.88,21.88,0,0,0-1.26-2c.38-.36.8-.2,1.16-.2,6.64,0,13.27,0,19.91,0a1.74,1.74,0,0,1,1.8,1C188.28,124.82,188.8,125.53,189.37,126.42Z" transform="translate(-6.9 -23.39)"/><path class="cls-6" d="M183.9,112a18.56,18.56,0,0,0,18.76-14.36,16.71,16.71,0,0,1-13.36,17.39l-.59.1C185.68,115.5,185.13,115.15,183.9,112Z" transform="translate(-6.9 -23.39)"/><path class="cls-7" d="M162.85,119.62c.21.22.4.37.31.65a.29.29,0,0,1-.18,0A.52.52,0,0,1,162.85,119.62Z" transform="translate(-6.9 -23.39)"/><path class="cls-6" d="M57.87,35.57c.8,0,1.59-.06,2.39-.06H90.35c.6,0,1.15-.14,1.15.86q-.06,16.24,0,32.48c-.8,1-2,1.27-3.07,1.77A79.85,79.85,0,0,0,70,82.72a81.82,81.82,0,0,0-11.11,12,2.48,2.48,0,0,1-.48.54c-.37.26-.67.32-.68-.29V94.3q0-28.78,0-57.56A2.33,2.33,0,0,1,57.87,35.57Z" transform="translate(-6.9 -23.39)"/><path class="cls-2" d="M57.87,35.57v60A79.84,79.84,0,0,1,91.45,68.84c0,9.2.06,18.39,0,27.59,0,3.8-3.49,7.58-7.25,8.16a18.61,18.61,0,0,1-3,.23c-7.4,0-14.79,0-22.19,0-1,0-1.38-.25-1.38-1.33q0-33.47,0-66.93C57.67,36.23,57.5,35.84,57.87,35.57Z" transform="translate(-6.9 -23.39)"/><path class="cls-6" d="M56.59,34.61c0-.11-.07-.14-.07-.18,0-1.19-.49-2.69.19-3.48s2.19-.24,3.33-.24c10,0,20.07,0,30.11,0,1,0,1.42.13,1.36,1.27-.1,2.11,0,2.11-2.18,2.11H59.58A5.23,5.23,0,0,0,56.59,34.61Z" transform="translate(-6.9 -23.39)"/><path class="cls-6" d="M71.51,115.76a5.79,5.79,0,0,0-2.73-.39q-15.35,0-30.7,0c-1.08,0-1.44-.25-1.39-1.37.09-2,0-2,2-2,9.67,0,19.34,0,29,0a2.1,2.1,0,0,1,2.18,1.23C70.34,114,70.87,114.74,71.51,115.76Z" transform="translate(-6.9 -23.39)"/><path class="cls-6" d="M100.58,126.42c-7.39,0-14.54,0-21.69,0-.31,0-.65.06-.86-.28-.6-1-1.22-1.93-1.84-2.91a2.13,2.13,0,0,1,1.26-.16c6.55,0,13.1,0,19.66,0a1.9,1.9,0,0,1,2,1.08A23.14,23.14,0,0,0,100.58,126.42Z" transform="translate(-6.9 -23.39)"/><path class="cls-6" d="M113.92,97.55a16.87,16.87,0,0,1-15.79,17.82,1.64,1.64,0,0,1-1.77-1.06c-.37-.74-1.39-1.45-1.11-2.11s1.45-.2,2.22-.3q12.59-1.58,16.15-13.71A4.69,4.69,0,0,1,113.92,97.55Z" transform="translate(-6.9 -23.39)"/><path class="cls-7" d="M74.05,119.62c.21.22.4.37.31.65a.29.29,0,0,1-.18,0A.52.52,0,0,1,74.05,119.62Z" transform="translate(-6.9 -23.39)"/><path class="cls-1" d="M62.43,168.44a30.56,30.56,0,0,0,1.18-4.21c.19-.65-.2-.84-.8-.82-1.07,0-2.15,0-3.23,0-.71,0-1.21-.3-1.18-1s-.28-1.56-.3-2.36a19.08,19.08,0,0,0-.31-3,5.9,5.9,0,0,1,.05-3.8c2.47-5.57,4.75-11.24,7.08-16.89a1.76,1.76,0,0,1,1.89-1.28c3.51,0,7,0,10.55,0,1.27,0,1.26.3,1.37,1.35.42,4.07-2.32,7.06-3.47,10.58-.92,2.8-2.24,5.46-3.42,8.17-.39.9-.3,1.25.81,1.24,6-.05,12,0,18,0,.94,0,1.21-.15.79-1.12-2.24-5.25-4.38-10.54-6.65-15.77a18,18,0,0,1-.72-3.48c-.2-.9.63-1,1.29-1,3.2,0,6.39,0,9.59,0,2.74,0,2.35,0,3.28,2.21l7,16.55a13.24,13.24,0,0,1,.45,2.93c.13.81-.68.89-1.28.84-1.18-.1-1.57.2-1.21,1.48a11.78,11.78,0,0,1,.11,2.86,18.51,18.51,0,0,1,0,8.18c0,2.6,0,5.19,0,7.79,0,4.56-2.61,7.23-7.17,7.27-3.55,0-7.1,0-10.66,0-1.43,0-1.66-.32-1.82-1.77a32.25,32.25,0,0,1-.23-3.93c0-1,.38-1.56,1.51-1.49s2.39,0,3.59,0c.43,0,.9.07,1.14-.44a49.9,49.9,0,0,0-.1-8.2c-.16-1.31,0-2.63-.06-3.94,0-1.53-.14-1.66-1.62-1.67-2.79,0-5.58,0-8.37,0-1,0-1.64.32-1.83,1.39s-.46,1.86-.68,2.79a4.2,4.2,0,0,1-.8,1.71c-1.19,4.72-2.41,9.43-3.55,14.16a1.57,1.57,0,0,1-1.75,1.4c-3.36,0-6.72,0-10.08,0-1.26,0-1.35-.32-1.4-1.49-.21-5.07,2.14-9.59,2.95-14.44C62.35,169,62.39,168.72,62.43,168.44Z" transform="translate(-6.9 -23.39)"/><path class="cls-1" d="M152.94,169.89c0,2.68,0,5.35,0,8,0,4.56-2.61,7.23-7.17,7.27-3.55,0-7.1,0-10.66,0-1.43,0-1.66-.32-1.82-1.77a32.25,32.25,0,0,1-.23-3.93c0-1,.38-1.56,1.51-1.49s2.39,0,3.59,0c.43,0,.9.07,1.14-.44a48.67,48.67,0,0,0-.09-7.73c-.19-1.51,0-3-.07-4.55s-.17-1.52-1.52-1.53c-2.87,0-5.74,0-8.61,0a1.44,1.44,0,0,0-1.66,1.3c-.28,1.29-.64,2.56-.95,3.84a4.2,4.2,0,0,1-.8,1.71c-1.11,4.4-2.25,8.79-3.31,13.2a1.57,1.57,0,0,1-1.75,1.4c-3.35,0-6.7,0-10.05,0-1.28,0-1.36-.34-1.44-1.46-.35-4.43,1.82-8.34,2.48-12.55,0-.28.09-.55.14-.82a5.35,5.35,0,0,1,.41-2.68c.26-1,.5-1.92.74-2.88.19-.73-.08-1.05-.82-1.06a21,21,0,0,1-2.86-.06c-1.06-.15-1.37-.68-1.07-1.72-.22-1.3.06-2.71-.32-3.9-.32-1,0-2.05-.61-2.95-.23-.33,0-.77.19-1.14q3.72-9,7.44-17.91a1.48,1.48,0,0,1,1.59-1h10.8c1,0,1.6.29,1.2,1.44,0,.11-.13.27-.09.33,1.12,1.6-.24,2.8-.74,4.06-1.89,4.75-3.93,9.43-5.91,14.15-.54,1.28-.51,1.33.84,1.34h17.76c1.34,0,1.36,0,.86-1.2-2.18-5.23-4.33-10.48-6.59-15.67a17.8,17.8,0,0,1-.72-3.48c-.21-.9.62-1,1.28-1,3,0,6,0,9,0,3.47,0,2.78-.4,4.14,2.86,2.18,5.19,4.34,10.39,6.57,15.56a14.13,14.13,0,0,1,.58,3.26c.14.81-.68.89-1.28.84-1.18-.1-1.59.21-1.21,1.48a9.89,9.89,0,0,1,.11,2.62A18.66,18.66,0,0,1,152.94,169.89Z" transform="translate(-6.9 -23.39)"/><path class="cls-6" d="M44.21,158.85c-2.61-.33-5.22-.62-7.82-1-7-1-14-1.76-20.67-4.33a9.34,9.34,0,0,1-1.89-1c-1.41-1-1.4-2,0-3a15.39,15.39,0,0,1,4.93-2.11,103.2,103.2,0,0,1,15.49-2.94c2.29-.3,4.57-.64,6.86-1,2.1,0,2.09,0,2.14,2.18a71.22,71.22,0,0,0,1.52,12.26C44.87,158.48,45,158.85,44.21,158.85Z" transform="translate(-6.9 -23.39)"/><path class="cls-3" d="M108,162c-.06,1.08.44,1.52,1.51,1.47s2,0,3,0c.66,0,.89.28.73.87-.53,2-1.09,4.05-1.64,6.08a80.86,80.86,0,0,1-8.38-.23q0-4.08,0-8.18Z" transform="translate(-6.9 -23.39)"/><path class="cls-3" d="M152.94,169.89q0-4.08,0-8.18h3.34c.09.26.27.54.23.78-.15,1.05.9,1.86.85,2.56-.13,1.93.15,3.89-.33,5.8.07-.76-.26-1-1-1C155,169.93,154,169.89,152.94,169.89Z" transform="translate(-6.9 -23.39)"/><path class="cls-8" d="M157.79,157.16a4,4,0,0,0,2.22.23,47.89,47.89,0,0,1,5.35.24H157Z" transform="translate(-6.9 -23.39)"/><path class="cls-3" d="M125.57,170.6c.51-2,1-4.08,1.5-6.13.17-.76.45-1.1,1.33-1.08,3.31.06,6.62,0,9.93,0,.69,0,1.15.1,1.15,1,0,4.18,0,8.37,0,12.55a.79.79,0,0,1-.21.66c0-2.07,0-4.15,0-6.22,0-.67-.13-1-.91-1-4,0-7.9,0-11.85,0A1.83,1.83,0,0,0,125.57,170.6Z" transform="translate(-6.9 -23.39)"/><path class="cls-3" d="M76.13,169.64c.45-1.77.91-3.54,1.32-5.33.14-.63.36-.92,1.09-.92,3.4.05,6.79,0,10.19,0,.66,0,1.06.15,1.06.92,0,4.24,0,8.48,0,12.71a1.69,1.69,0,0,1-.2.54c0-2.22,0-4.45,0-6.68,0-.65-.1-1-.88-1.05-3.72-.36-7.46-.12-11.17-.45A2.05,2.05,0,0,0,76.13,169.64Z" transform="translate(-6.9 -23.39)"/><path class="cls-9" d="M165.4,185a7.41,7.41,0,0,0,.31-1.69,2.83,2.83,0,0,1,.15,1.46Z" transform="translate(-6.9 -23.39)"/><path class="cls-10" d="M177,184.29a1.6,1.6,0,0,1,.09-1,1.6,1.6,0,0,1,.09,1H177Z" transform="translate(-6.9 -23.39)"/><path class="cls-6" d="M202.59,143.21c6,.66,12,1.4,18,2.48a48.83,48.83,0,0,1,10.48,2.85,8.29,8.29,0,0,1,1.66,1c1.41,1,1.43,2,0,3a19.06,19.06,0,0,1-6.32,2.49,129.47,129.47,0,0,1-16.71,2.91,53.24,53.24,0,0,1-6.9.7c.57-1.19,1.14-2.36,1.68-3.56.27-.58.76-1.2,0-1.8-.19-.15-.05-.35,0-.54.25-1.29.07-1.5-1.28-1.53l-2.51,0c-.67-.92-.17-1.9-.1-2.85a4.82,4.82,0,0,1,.34-1.48Z" transform="translate(-6.9 -23.39)"/><path class="cls-6" d="M175.24,172c0,3,0,5.92,0,8.87,0,1-.3,1.28-1.28,1.24-1.87-.07-3.75-.08-5.63,0-1,.05-1.35-.22-1.34-1.31.06-5.83,0-11.67,0-17.5,0-1.8-.18-2-2-2-2.12,0-4.24-.05-6.35,0-1,0-1-.54-.94-1.21s-.16-1.25.91-1.22c2.27.08,4.55,0,6.83,0,1.07,0,1.6-.36,1.53-1.43-.05-.63.19-.84.81-.83,2.2,0,4.4,0,6.6,0,.63,0,.87.2.8.82-.11,1.11.45,1.47,1.51,1.44,2.24,0,4.48,0,6.71,0,1,0,.93.57.93,1.22s.1,1.24-.93,1.21c-2.11-.08-4.23,0-6.35,0-1.72,0-1.87.15-1.87,1.82Z" transform="translate(-6.9 -23.39)"/><path class="cls-6" d="M202.89,136.8c-.84,1.77-1.6,3.38-2.38,5-.86,1.8-1.75,3.59-2.61,5.39a4.08,4.08,0,0,1-4,2.51c-2.08,0-4.16,0-6.24,0-.75,0-1-.26-.92-1,.11-.55-.47-1.46.79-1.43a2.45,2.45,0,0,0,2.34-1.73c1.24-2.64,2.55-5.24,3.76-7.89a1.3,1.3,0,0,1,1.44-.89C197.61,136.83,200.16,136.8,202.89,136.8Z" transform="translate(-6.9 -23.39)"/><path class="cls-6" d="M202.92,169.19c-1.83,3.77-3.51,7.34-5.28,10.87a3.8,3.8,0,0,1-3.6,2c-2.16,0-4.32,0-6.47,0-.74,0-.94-.32-.82-.93s-.48-1.46.78-1.44a2.38,2.38,0,0,0,2.28-1.62c1.27-2.72,2.59-5.4,3.89-8.1.18-.38.28-.8.88-.8C197.29,169.2,200,169.19,202.92,169.19Z" transform="translate(-6.9 -23.39)"/><path class="cls-6" d="M202.94,152.62c-1.88,3.84-3.62,7.5-5.49,11.1a3.07,3.07,0,0,1-2.77,1.63c-2.4,0-4.79,0-7.19,0-.69,0-.85-.34-.74-.89s-.48-1.38.69-1.39a2.61,2.61,0,0,0,2.44-1.78c1.22-2.64,2.54-5.24,3.77-7.88a1.26,1.26,0,0,1,1.35-.84C197.56,152.65,200.11,152.62,202.94,152.62Z" transform="translate(-6.9 -23.39)"/><path class="cls-6" d="M180.46,164.58a15.27,15.27,0,0,0,1.79,0c1-.11,1.32.24,1.36,1.24q.3,7.53.74,15.07c.06,1-.21,1.26-1.17,1.2-1.31-.08-2.63,0-4,0-.65,0-.91-.16-.95-.86-.18-3.71-.41-7.41-.62-11.12-.08-1.47-.12-3-.25-4.42-.07-.81.11-1.19,1-1.1A19.81,19.81,0,0,0,180.46,164.58Z" transform="translate(-6.9 -23.39)"/><path class="cls-6" d="M160.94,182.05c-3.09,0-3.12,0-2.94-3,.27-4.5.59-9,.85-13.5,0-.7.2-1,1-1,1.44.06,2.88,0,4.32,0,.63,0,.83.2.79.83q-.49,8-.94,16c0,.56-.3.65-.77.64C162.46,182,161.7,182.05,160.94,182.05Z" transform="translate(-6.9 -23.39)"/><path class="cls-6" d="M161.3,142.54h1.08c2.12,0,2.13,0,2.25,2.16.16,2.87.29,5.74.46,8.61,0,.55-.09.82-.69.81-1.64,0-3.28,0-4.92,0-.55,0-.77-.18-.79-.76-.15-3.27-.31-6.53-.51-9.8-.05-.77.15-1.1,1-1S160.58,142.54,161.3,142.54Z" transform="translate(-6.9 -23.39)"/><path class="cls-6" d="M171.12,154.11c-.84-.09-2.12.43-2.83-.2S168.05,152,168,151c-.17-2.51-.27-5-.44-7.53,0-.71.14-1,.9-1,1.52.05,3,0,4.56,0,.63,0,.8.22.84.83.19,3.26.4,6.53.65,9.8,0,.72-.15,1-.91,1S172.07,154.11,171.12,154.11Z" transform="translate(-6.9 -23.39)"/><path class="cls-6" d="M180.35,154.11c-.72,0-1.44,0-2.16,0s-1-.18-1-1c.25-3.14.47-6.29.62-9.44,0-.85.2-1.2,1.14-1.15,1.47.09,3,0,4.43,0,.57,0,.78.18.75.76q-.28,5.08-.52,10.17c0,.56-.31.65-.77.64C182,154.1,181.19,154.11,180.35,154.11Z" transform="translate(-6.9 -23.39)"/><path class="cls-6" d="M171,139.43c-4,0-8.08,0-12.12,0-.89,0-1.18-.22-1.16-1.13s.18-1.18,1.13-1.17q12.22.06,24.47,0c1,0,1.07.4,1.08,1.2s-.17,1.11-1,1.1C179.24,139.41,175.12,139.43,171,139.43Z" transform="translate(-6.9 -23.39)"/><path class="cls-2" d="M185.58,168.41a1.94,1.94,0,0,0,1.37.3h4.79c.62,0,.94.11.59.82-1.3,2.65-2.6,5.3-3.85,8-.5,1.06-1.39.77-2.18.74s-.49-.77-.53-1.21c-.26-2.85-.43-5.72-.45-8.59C185.4,168.33,185.48,168.31,185.58,168.41Z" transform="translate(-6.9 -23.39)"/><path class="cls-2" d="M185,157.16c.51-1.16.23-2.38.32-3.57.23-.29,0-.7.22-1a4,4,0,0,0,2.54.44h4.19c-1.18,2.42-2.29,4.7-3.41,7-.94.37-1.87.83-2.82,0a2.25,2.25,0,0,1-.24-1.37c0-.51-.06-1-.69-1C184.92,157.5,185,157.33,185,157.16Z" transform="translate(-6.9 -23.39)"/><path class="cls-11" d="M175.83,150.15c-.1-2.27-.24-4.53-.53-6.77-.06-.42.09-.58.5-.6.57,0,.68.29.63.75A61.43,61.43,0,0,1,175.83,150.15Z" transform="translate(-6.9 -23.39)"/><path class="cls-12" d="M200.91,146.82c.17,1.46-.31,2.88-.24,4.33h-2C199.42,149.65,200.16,148.23,200.91,146.82Z" transform="translate(-6.9 -23.39)"/><path class="cls-13" d="M186.06,160c.94.28,1.88-.13,2.82,0-.24.57-.39,1.24-1,1.57C186.75,162.22,186,161.61,186.06,160Z" transform="translate(-6.9 -23.39)"/><path class="cls-8" d="M185,157.16c0,.15.08.3.11.45H177v-.21c1.94,0,3.87,0,5.81,0A4,4,0,0,0,185,157.16Z" transform="translate(-6.9 -23.39)"/><path class="cls-14" d="M185.58,168.41l-.26,0-.42-3.68.34,0Z" transform="translate(-6.9 -23.39)"/><path class="cls-15" d="M166.15,147.24v-2.48h.12v2.54Z" transform="translate(-6.9 -23.39)"/><path class="cls-16" d="M166.54,149.31v2.56h-.12V149.3Z" transform="translate(-6.9 -23.39)"/><path class="cls-17" d="M185.56,152.61c0,.33.06.7-.22,1v-2C185.68,151.94,185.5,152.3,185.56,152.61Z" transform="translate(-6.9 -23.39)"/><path class="cls-18" d="M166.73,153.73a1.8,1.8,0,0,1,0,1.35A1.8,1.8,0,0,1,166.73,153.73Z" transform="translate(-6.9 -23.39)"/><path class="cls-6" d="M60.59,181.81c.76-3,1.49-5.87,2.22-8.77.95-3.75,1.91-7.5,2.85-11.25.34-1.34.09-1.68-1.28-1.7s-2.64-.05-4,0c-.87,0-.87-.47-.82-1.06s-.26-1.28.78-1.23c.84.05,1.68,0,2.52,0,12.43,0,24.86,0,37.3,0,1.13,0,1.37.33,1.36,1.4,0,5.72,0,11.43,0,17.15,0,3.24-1.75,5.27-5,5.4-3.67.15-7.35,0-11,.07-.88,0-.74-.56-.68-1s-.42-1.32.65-1.32,2.16,0,3.24,0a2.17,2.17,0,0,0,2.43-2.35c0-5.2,0-10.39,0-15.59,0-1-.51-1.43-1.49-1.43-4.07,0-8.15,0-12.23,0-1.17,0-1.34.8-1.54,1.63-1.56,6.19-3.13,12.37-4.62,18.57-.28,1.15-.68,1.63-2,1.58C66.49,181.73,63.61,181.81,60.59,181.81Z" transform="translate(-6.9 -23.39)"/><path class="cls-6" d="M103.6,154.25h-10a.68.68,0,0,1-.69-.52q-3.52-8.5-7.08-17s0-.08.06-.2h10a.68.68,0,0,1,.7.51q3.51,8.44,7,16.89C103.66,154,103.62,154.07,103.6,154.25Z" transform="translate(-6.9 -23.39)"/><path class="cls-6" d="M59,154.26,64,142.38c.7-1.69,1.42-3.37,2.1-5.08a1,1,0,0,1,1.12-.79c3.24,0,6.48,0,9.91,0-.7,1.69-1.34,3.28-2,4.87-1.65,3.93-3.33,7.86-5,11.81a1.42,1.42,0,0,1-1.57,1.07C65.46,154.22,62.34,154.26,59,154.26Z" transform="translate(-6.9 -23.39)"/><path class="cls-6" d="M110.27,181.81l2.46-9.71q1.32-5.17,2.62-10.33c.33-1.32.07-1.66-1.31-1.68s-2.64-.05-4,0c-.9,0-.83-.51-.81-1.08s-.21-1.24.81-1.21c2,.05,4.08,0,6.11,0,11.24,0,22.47,0,33.71,0,1,0,1.36.2,1.34,1.3-.06,5.76,0,11.51,0,17.27,0,3.23-1.76,5.26-5,5.39-3.67.14-7.35,0-11,.06-.9,0-.7-.6-.66-1.06s-.4-1.31.67-1.3,2.08,0,3.12,0c1.65,0,2.52-.76,2.54-2.37,0-5.2,0-10.39,0-15.59a1.21,1.21,0,0,0-1.38-1.4c-4.11,0-8.23,0-12.35,0-1,0-1.26.61-1.46,1.41-1.56,6.23-3.17,12.44-4.66,18.69-.3,1.29-.79,1.72-2.12,1.66C116.07,181.73,113.24,181.81,110.27,181.81Z" transform="translate(-6.9 -23.39)"/><path class="cls-6" d="M135.5,136.53c3.35,0,6.62,0,9.9,0a.91.91,0,0,1,.95.7q3.36,8.06,6.76,16.1c.26.61.37,1-.58,1-3-.06-5.92,0-8.87,0a1.06,1.06,0,0,1-1.19-.72q-3.47-8.34-7-16.67A1.86,1.86,0,0,1,135.5,136.53Z" transform="translate(-6.9 -23.39)"/><path class="cls-6" d="M108.71,154.26c1-2.49,2-4.84,3-7.19,1.34-3.23,2.7-6.47,4-9.7.18-.45.29-.86,1-.86,3.32,0,6.63,0,10.1,0l-3.19,7.68c-1.26,3-2.56,6-3.79,9a1.35,1.35,0,0,1-1.48,1C115.17,154.22,112,154.26,108.71,154.26Z" transform="translate(-6.9 -23.39)"/></svg>