<svg id="圖層_1" data-name="圖層 1" xmlns="http://www.w3.org/2000/svg" viewBox="0 0 211.79 181.09"><defs><style>.cls-1{fill:#175da4;}.cls-2{fill:#d1d3d1;}.cls-3{fill:#9dd8e1;}.cls-4{fill:#dfedf3;}.cls-5{fill:#e7ecf1;}.cls-6{fill:#e0f3f8;}.cls-7{fill:#fdfefe;}.cls-8{fill:#fefefe;}.cls-9{fill:#d0d2d1;}.cls-10{fill:#cfd2d1;}.cls-11{fill:#fafbfd;}.cls-12{fill:#ced1d1;}.cls-13{fill:#fbfcfd;}.cls-14{fill:#fdfdfd;}.cls-15{fill:#f8e93f;}.cls-16{fill:#a0e168;}</style></defs><title>17</title><path class="cls-1" d="M68.87,143.05a42.54,42.54,0,0,0,5,0,16.66,16.66,0,0,1,8.24.16,2.36,2.36,0,0,1,1.44,2.43c.05,1.12,0,2.24,0,3.36,0,.71.24,1.14,1,1.25a4.76,4.76,0,0,1,1.12.42,1.21,1.21,0,0,0,1.26,0c.46-.34.23-.8.11-1.21-.6-2.16-1.11-4.34-1.65-6.51-.65-2.63.39-4,3.09-4.07q5.1-.06,10.2,0c2.23,0,3.06.71,3.67,2.85.17.62.39,1.23.51,1.85a2,2,0,0,0,1.3,1.58,2.47,2.47,0,0,1,1.72,2.71c0,.35-.31.89.29,1s.83-.39,1-.85c.71-1.92,1.2-3.9,1.85-5.83a3,3,0,0,1,2.19-2.32,13.4,13.4,0,0,1,3,.17c3.27.18,6.53-.44,9.8-.24a1.39,1.39,0,0,0,1.09-.41,4.21,4.21,0,0,1,3-1c3.56,0,7.11-.05,10.67,0,2.58,0,3.64,1.13,3.67,3.69,0,2.39-.1,2.29,2.3,2.29,3,0,6,0,9,0,2.22,0,3.18.94,3.33,3.18a12.19,12.19,0,0,1,0,1.91c-.13,1.3,0,2.38,1.54,2.74.37.38.78.78.71,1.33-.46,3.84,1.06,7.55.72,11.37,0,.44-.16.92.64,1s1.12-.15,1.12-1.06c0-6.16,0-12.32,0-18.48,0-2.51.77-3.28,3.29-3.28h43.19c2.46,0,3.21.75,3.21,3.22,0,1.12,0,2.24,0,3.36,0,.56.06.85.76.88,1.58.06,1.88.41,1.89,1.94q0,3.18,0,6.36c0,1.54-.43,2-2,2h-18c-3,0-5.92,0-8.88,0-.83,0-1.1.2-1.08,1.05,0,2.07,0,2.07,2.11,2.07h22.07c2.51,0,3.14.63,3.15,3.1,0,1.16,0,2.32,0,3.48,0,.57.09.85.77.88,1.74.08,1.88.26,1.88,2,0,7.44,0,14.87,0,22.31a2.72,2.72,0,0,1-1.13,2.46c-1.4,1-2.68,2.27-4,3.42a1.93,1.93,0,0,1-1.16.58c-3.74.17-7.5-.1-11.24.1-9.13.49-18.27.07-27.4.22-.36,0-.72,0-1.08,0a2,2,0,0,1-2.13-2.08,15.41,15.41,0,0,1,0-2.15c0-.93-.38-1.32-1.29-1.28a2.6,2.6,0,0,1-1.3-.14c-1.06-.55-1.67-.12-2.2.82s-1,1.62-1.53,2.43a2.74,2.74,0,0,1-1.47,1.33,5.26,5.26,0,0,1-1.89.24H115.2c-.47,0-1,0-1.43,0-2,.82-2.83.37-5-2.55-.25.23-.12.53-.15.78a2,2,0,0,1-2.17,2.08c-1.2.07-2.4,0-3.6,0-3.59,0-7.19,0-10.79,0-2.29,0-2.85-.58-2.86-2.83,0-.52,0-1,0-1.56,0-.74-.29-1.06-1.05-1.14-1.82-.18-1.81-.21-1.82,1.68,0,.88,0,1.75,0,2.63s-.54,1.65-1.54,1.65a104.13,104.13,0,0,1-10.89-.14,20.61,20.61,0,0,0-4.9.06,4.28,4.28,0,0,1-1.07.06c-1-.26-1.32-1.06-1.45-2a17.49,17.49,0,0,1-.06-2.4.93.93,0,0,0-1-1.07c-2.84-.34-3.57-1.13-3.58-4,0-4.95,0-9.9,0-14.85,0-1.4,0-2.8,0-4.21v-11c0-1.66,0-1.69-1.65-1.71-3,0-3.52-.88-2.18-3.56,1.05-2.11,1.15-2-1.17-2a13.53,13.53,0,0,1-1.8,0,2.39,2.39,0,0,1-2-3.42c1.2-2.74,2.59-5.4,4-8a2.65,2.65,0,0,1,2.3-1.33c3-.21,5.9-.1,8.86-.06A1.09,1.09,0,0,1,68.87,143.05Z" transform="translate(-15.52 -35.2)"/><path class="cls-1" d="M121.65,49.9c0-1.24,0-2.47.07-3.71.08-2.51,1.31-3.76,3.81-3.77,4,0,7.94-.24,11.87.07,2.9.22,4.76-.59,5.83-3.29,1.26-3.21,3.67-4.15,7.05-4,5.1.26,10.23.06,15.35.07,2.28,0,3.52.9,3.94,2.73a3,3,0,0,1-.43,2.16c-.39.69-.81,1.37-1.33,2.23h55.12a9.72,9.72,0,0,1,1.43.07,3,3,0,0,1,2.91,3.2q.09,4.5,0,9a2.89,2.89,0,0,1-2.83,3.13c-1,.12-1.17.54-1.1,1.38,0,.51,0,1,0,1.56,0,2.12,0,2.12-2.06,2.12h-19c-4.6,0-9.2,0-13.79,0-1.11,0-1.38.32-1.29,1.34s0,1.84,0,2.76c0,1.67,0,1.67,1.61,1.67H220c2.67,0,3.93,1.28,3.94,4q0,3.78,0,7.56c0,2.58-.77,3.59-3.26,4-.65.12-.76.36-.74.91,0,1,0,2,0,3,0,.32,0,.81-.29.85-1.48.17-.83,1.16-.72,1.85.54,3.43,1.14,6.85,1.7,10.28.1.62.36.9,1,.84a12.18,12.18,0,0,1,1.91,0c2.66.25,3.94,2.18,2.92,4.64a34.25,34.25,0,0,1-3.42,7,44.29,44.29,0,0,0-3.39,6,1.2,1.2,0,0,1-1.23.73c-5.56,0-11.12,0-16.68,0-.93,0-1.13-.53-1.26-1.25q-1.36-7.78-2.72-15.58c-.5-2.87-1.08-5.73-1.47-8.62-.21-1.61-.4-3.22-.65-4.83-.11-.67-.37-.86-1-.85-2,0-4.09.06-6.12,0-1,0-1.28.24-1.27,1.25,0,7.12,0,14.24,0,21.36,0,.32,0,.64,0,1-.12,2.18-.9,3.12-3.05,3.45-.71.11-.94.34-.89,1,.06.91,0,1.84,0,2.76s-.32,1.23-1.2,1.23H162a1.4,1.4,0,0,1-1.41-.88c-.56-1.15-1.16-2.28-1.74-3.42-1.18-1.1-1.6-2.62-2.22-4a.85.85,0,0,1,.61-1.14c.79-.28.69-.69.37-1.27-.51-.94-1-1.91-1.45-2.88a6.28,6.28,0,0,1-.63-1.92,3.25,3.25,0,0,1,2.8-3.89,24.7,24.7,0,0,1,3.1-.09c.42,0,.91.14,1.11-.44.13-3.56,0-7.11.06-10.66,0-.89-.41-1.19-1.25-1.18-2,0-4,0-6,0-1.36,0-1.46.11-1.73,1.44-.07.39-.14.79-.23,1.18-.92,5.51-1.91,11-2.82,16.54-.22,1.3-.46,2.59-.71,3.89a3.53,3.53,0,0,1-2.26,2.87,1.66,1.66,0,0,0-1.14,1.52c-.08.64-.19,1.27-.32,1.89-.31,1.44-.73,1.82-2.21,1.83-4.16,0-8.31,0-12.47,0-1.12,0-2.24,0-3.36,0a2.1,2.1,0,0,1-2.11-1.29c-.9-1.91-1.83-3.82-2.7-5.75-.36-.8-.46-1.55.58-2,.59-.24.33-.64.15-1-.59-1.14-1.06-2.33-1.59-3.49-1.41-3.07.06-5.38,3.44-5.44,2.15,0,2.11.2,2.52-2.2s.68-4.58,1.11-6.86a17,17,0,0,1,.32-2c.19-.92-.19-1.25-1.06-1.21-.32,0-.63,0-1,0-1.47,0-1.74-.3-1.92-1.82,0-.8,0-1.6,0-2.4a5,5,0,0,0-.55-2.65,5,5,0,0,1-.42-2.46c0-2.71.11-5.43,0-8.14a10,10,0,0,1,1.88-6.52c.41-.59,1.29-1.25.88-1.93s-1.34-.21-2-.21c-3,0-3.09,0-3.08-3.08a10.45,10.45,0,0,0-.72-4.18A9.14,9.14,0,0,1,121.65,49.9Z" transform="translate(-15.52 -35.2)"/><path class="cls-1" d="M93.56,49.42c.2-2-.18-4.06.23-6.08a3,3,0,0,1,2.64-2.53,7.15,7.15,0,0,1,1.31-.09h16.77c2.59,0,3.5.73,4.09,3.21a2.33,2.33,0,0,1,.08.83c.31,12.76.2,25.52.22,38.28,0,9.39,0,18.77,0,28.16a2.71,2.71,0,0,1-.3,1.85,3.31,3.31,0,0,1-3.21,3c-.63.07-.78.35-.76.92,0,1,0,1.91,0,2.87,0,.63-.15,1.1-.86,1.19a2.47,2.47,0,0,1-1.61.33c-5.16,0-10.31,0-15.46,0-2,0-2.25-.33-2.29-2.34a11.47,11.47,0,0,0-.14-2.75,8.79,8.79,0,0,0-1.4,2.93c-.73,1.84-1.12,2.15-3.1,2.16q-7.08,0-14.15,0a2.36,2.36,0,0,1-1.71-.37,42.54,42.54,0,0,0-5,0,2.12,2.12,0,0,1-1.58.4q-18.33,0-36.66,0A2.16,2.16,0,0,1,29,121l-10.91-.06c-1.47,0-1.55-.08-1.55-1.56q0-1.14,0-2.28a4.31,4.31,0,0,0-.63-2.84,3.74,3.74,0,0,1-.43-2.2q0-33.66,0-67.31c0-2.83,1.17-4,4-4h16.8c2.93,0,4.11,1.21,4.13,4.18l.06,4.31a1.84,1.84,0,0,1,.39,1.35c0,12.24.06,24.49,0,36.73,0,1.7,0,3.39,0,5.09s0,3.67,0,5.51c0,1,.3,1.37,1.3,1.35q4.92,0,9.82,0c1,0,1.36-.35,1.34-1.33,0-1.83,0-3.67,0-5.51,0-1.69,0-3.39,0-5.08-.08-3.51,0-7,0-10.54q0-12.75,0-25.5a3,3,0,0,1,.38-2.07c0-3.08,0-6.16,0-9.24a7.55,7.55,0,0,1,.27-2c.37-1.48,1.52-2.35,3.47-2.36,6.28,0,12.56-.07,18.84,0,2.54,0,3.69,1.37,3.72,4,0,3.27,0,6.55.07,9.83a1.87,1.87,0,0,1,.38,1.35c0,12.24.06,24.49,0,36.73,0,1.7,0,3.39,0,5.09s0,3.51,0,5.27c0,1,.3,1.36,1.3,1.35q5,0,10.06,0c1,0,1.36-.35,1.34-1.33,0-1.75,0-3.51,0-5.27s0-3.39,0-5.08c-.08-3.44,0-6.87,0-10.3q0-12.87,0-25.75A3.21,3.21,0,0,1,93.56,49.42Z" transform="translate(-15.52 -35.2)"/><path class="cls-2" d="M62.18,178.09q0,7.47,0,14.95c0,2.9.6,3.56,3.47,3.54.93,0,1.17.32,1.11,1.18a21,21,0,0,0,0,2.63c0,.78.21,1.52,1.14,1.75.38.19.85-.1,1.21.2l0,8.76A4.79,4.79,0,0,1,64,216.24H34.43a4.77,4.77,0,0,1-5.15-5.14q0-7.74,0-15.48a16.53,16.53,0,0,0,3.49.65c.69,0,.9.57,1,1.18.06.8,0,1.6,0,2.4.09,1.48.43,1.84,1.9,1.84,4.92,0,9.83,0,14.75,0,1.56,0,1.76-.22,1.77-1.85,0-2.88,0-5.75,0-8.63,0-3.8,0-7.59,0-11.39a2.7,2.7,0,0,1,.35-1.84,1.77,1.77,0,0,1,1-.28c2.5,0,5,0,7.51,0A1.62,1.62,0,0,1,62.18,178.09Z" transform="translate(-15.52 -35.2)"/><path class="cls-2" d="M129.8,92.63c-.45,2.87-.93,5.74-1.36,8.62-.08.61-.37.68-.87.68a10.32,10.32,0,0,0-3.32.26,2.89,2.89,0,0,0-1.94,3.49,22.88,22.88,0,0,0,1.62,3.85c.31.73.68,1.44,1,2.13-.31.26-.6.16-.87.19-.76.08-1,.49-.66,1.15q1.55,3.31,3.11,6.61a1.12,1.12,0,0,0,1.17.65q8.38,0,16.78,0c.71,0,1.15-.23,1.23-1,0-.44.15-.87.22-1.3.22-1.36.13-2.81,2.08-3.2,1-.18,1.34-1.27,1.51-2.27q1.44-8.31,2.89-16.62c.22-1.25.46-2.5.69-3.74a11.35,11.35,0,0,1,1.42.23A5.42,5.42,0,0,1,159,97.46c0,.67,0,1.35,0,2,0,1.92,0,1.91,1.89,1.94.7,0,1.44-.18,2.07.33-1.27.46-2.59.1-3.88.2-2,.15-3.08,1-3.28,2.81a4.26,4.26,0,0,0,.57,2.41c.74,1.49,1.5,3,2.24,4.45-.13.29-.35.2-.52.21-1.4.09-1.54.34-.91,1.62s1.12,2.29,1.69,3.43c-.38.36-.21.83-.21,1.25,0,2.48,0,5,0,7.43a4.94,4.94,0,0,1-5.26,5.23H123.89c-3.16,0-5.09-1.92-5.09-5.05q0-6.34,0-12.7a3,3,0,0,1-.09-1.3q0-7,0-14.08a7.22,7.22,0,0,1,.11-1.54,4.47,4.47,0,0,1,3.82-3.72,42.23,42.23,0,0,1,6.56-.07A.91.91,0,0,1,129.8,92.63Z" transform="translate(-15.52 -35.2)"/><path class="cls-2" d="M69.15,202.34c-.4-.08-.85.12-1.21-.2H83.88c1.87,0,2.05-.2,2.06-2.07,0-1.16,0-2.32,0-3.48,0-.56,0-1,.75-.66a4.17,4.17,0,0,0,1.89.14c.77-.06,1,.26.93,1,0,.95,0,1.91,0,2.87a1.43,1.43,0,0,0,1.57,1.68q7.78,0,15.58,0a1.47,1.47,0,0,0,1.6-1.67c0-.67,0-1.34,0-2.18a5.93,5.93,0,0,1,1.44,2,3,3,0,0,0,3.38,1.85,3.5,3.5,0,0,1,.72,0c0,3.12-.07,6.23,0,9.35a5.05,5.05,0,0,1-5.28,5.31c-9.78-.11-19.57,0-29.35,0-3.33,0-5.22-1.88-5.22-5.17,0-2.6,0-5.19,0-7.79,0-.71-.19-1-.94-1C71.71,202.37,70.43,202.33,69.15,202.34Z" transform="translate(-15.52 -35.2)"/><path class="cls-1" d="M52.62,178.06q0,10.92,0,21.83c0,2.1-.14,2.24-2.27,2.24H35.56c-1.75,0-2.1-.36-2.13-2.1v-.36c0-.92.25-2-.12-2.71s-1.6-.19-2.42-.39a3,3,0,0,1-1.62-.95,6.61,6.61,0,0,1-.39-2.46c0-10.36,0-20.71,0-31.07,0-1.08-.3-1.42-1.33-1.29a10.46,10.46,0,0,1-1.68,0c-1.6,0-2-.78-1.34-2.25.47-1,1-1.93,1.44-2.9a2.07,2.07,0,0,0,.09-.37c-1.29,0-2.54,0-3.79,0-2.28,0-3.22-1.45-2.24-3.5,1.17-2.45,2.45-4.84,3.65-7.28a2.7,2.7,0,0,1,2.58-1.4c.92-.05,1.84,0,2.75-.06a2.16,2.16,0,0,1,1.59-.39H46.35a6.6,6.6,0,0,1,1.54.16,2.76,2.76,0,0,1,2.38,2.76c.08,1.07,0,2.16,0,3.23a1.27,1.27,0,0,0,1,1.42c1.46.49,1.52.86,1.57,2.39q.12,4,.1,7.91c0,4.48,0,9,0,13.43C52.84,175.33,53.23,176.73,52.62,178.06Z" transform="translate(-15.52 -35.2)"/><path class="cls-3" d="M93.56,49.42q0,6.59,0,13.17,0,12.51,0,25a1.92,1.92,0,0,1-1.46.37H81.61a2,2,0,0,1-1.46-.39c0-3.86,0-7.73,0-11.6V50.87c0-.48,0-.95,0-1.43Z" transform="translate(-15.52 -35.2)"/><path class="cls-2" d="M53.75,49.2c0,2.19,0,4.38,0,6.57q0,15.09,0,30.16c0,.48,0,1,0,1.44a2.2,2.2,0,0,1-1.59.37q-5,0-10,0a2.15,2.15,0,0,1-1.58-.38c0-.48-.05-1-.06-1.43V50.63c0-.47,0-1,0-1.43Z" transform="translate(-15.52 -35.2)"/><path class="cls-3" d="M52.6,174l0-21.32c0-1.77-.13-2-1.94-2.14-.61-.06-.71-.33-.7-.84,0-1.19,0-2.39,0-3.59,0-2.2-.81-3-3-3H33.83c-1.6,0-3.19,0-4.79,0v-2.4a4.87,4.87,0,0,1,4.88-5q15-.06,30.08,0a4.87,4.87,0,0,1,4.87,5c0,.8,0,1.6,0,2.4-2.87,0-5.74.06-8.62,0a3.38,3.38,0,0,0-3.58,2.16c-1,2.19-2.14,4.28-3.19,6.43s-.16,3.6,2.29,3.62c1.19,0,2.38,0,3.67,0a24.5,24.5,0,0,1-1.54,3.3q-1,2.19,1.38,2.22h.24c2.7,0,2.71,0,2.7,2.66,0,3.43,0,6.87-.06,10.3a1.61,1.61,0,0,1-1.11.35c-2.67,0-5.33,0-8,0A1.09,1.09,0,0,1,52.6,174Z" transform="translate(-15.52 -35.2)"/><path class="cls-3" d="M73.92,121c5.44,0,10.88-.07,16.31,0a1.91,1.91,0,0,0,2.18-1.53c.29-1,.76-1.93,1.11-2.91.17-.48.39-1,.9-1s.28.71.3,1.09c0,.83,0,1.67,0,2.51,0,1.83,0,1.82,1.77,1.83l17.27,0c-.18,2,.23,4.08-.24,6.09a4.6,4.6,0,0,1-4.65,3.71H78.8a4.72,4.72,0,0,1-4.88-4.93C73.91,124.23,73.92,122.59,73.92,121Z" transform="translate(-15.52 -35.2)"/><path class="cls-2" d="M29,121c.44,0,.88,0,1.31,0H67.56c.44,0,.88,0,1.31,0,0,1.6,0,3.2,0,4.8A4.72,4.72,0,0,1,64,130.56H33.89A4.66,4.66,0,0,1,29,125.75C29,124.15,29,122.55,29,121Z" transform="translate(-15.52 -35.2)"/><path class="cls-3" d="M158.17,201.36c1.33-1.6,2.28-3.46,3.46-5.17.36-.5.51-.67,1-.15.75.78,1.79.57,2.73.54.72,0,1,.19,1,.95s0,1.6,0,2.4c0,1.81.37,2.19,2.16,2.19l30.47,0c3,0,5.91,0,8.87,0-.38.33-.84.18-1.26.18-3.16,0-6.32,0-9.47,0a1.88,1.88,0,0,0-1.91,1.07c-1.9,3.37-3.85,6.71-5.76,10.08-1.47,2.57-4.2,3.53-6.71,2.1C174.52,210.86,166.35,206.1,158.17,201.36Z" transform="translate(-15.52 -35.2)"/><path class="cls-2" d="M111.12,140.16a3.16,3.16,0,0,0-1.75,2.14c-.56,2-1.32,3.94-1.81,5.95-.29,1.23-1.19,1-1.93,1.06-.47.06-.24-.39-.2-.62.37-2.35.21-2.69-2-3.43-.5-.17-.57-.49-.68-.86-.27-1-.52-1.92-.78-2.88-.45-1.66-1.08-2.26-2.76-2.28-3.75-.05-7.51-.06-11.26,0-1.92,0-2.78,1.28-2.32,3.14.61,2.44,1.26,4.86,1.84,7.31.09.4.6,1,.05,1.24s-1.29.78-2,.08a1.34,1.34,0,0,0-1.08-.44c-1.23.17-1.24-.55-1.2-1.43s0-2.07,0-3.11c0-2.07-.81-2.89-2.9-2.93s-4.31,0-6.47-.06c.09-1.65-.31-3.34.68-4.89a4.68,4.68,0,0,1,4.1-2.29q15.12,0,30.23,0a4.79,4.79,0,0,1,4.65,4C112.8,140.33,111.9,139.74,111.12,140.16Z" transform="translate(-15.52 -35.2)"/><path class="cls-2" d="M111.12,140.16c.76-.65,1.66,0,2.46-.27,1.44,0,2.88,0,4.31,0a1,1,0,0,0,1.15-.78,4.74,4.74,0,0,1,4.88-3.3H153.3a5,5,0,0,1,5.33,5.31c0,3.67,0,7.35,0,11-1.91-.18-1.91-.18-1.91-2.07,0-.84,0-1.68,0-2.51,0-2.07-.86-2.93-2.9-2.93-3.51,0-7,0-10.54,0-.91,0-1.33-.18-1.21-1.17a11.58,11.58,0,0,0,0-2c-.07-1.72-.87-2.65-2.56-2.68-4-.06-8.06,0-12.1,0a2.07,2.07,0,0,0-1.84.68c-.54.85-1.21.68-2,.68C119.42,140.11,115.27,140.15,111.12,140.16Z" transform="translate(-15.52 -35.2)"/><path class="cls-3" d="M121.65,49.9c.23,1.82-.45,3.79.33,5.45,1,2.11.86,4.23.86,6.39,0,.81.34,1.16,1.16,1.14,1.5,0,3,0,4.76,0-.89,1.45-1.64,2.75-2.46,4a6.43,6.43,0,0,0-1.06,3.72c.05,3.24,0,6.47,0,9.7A3.93,3.93,0,0,0,126,83a1.55,1.55,0,0,1,.26,1c0,1.2,0,2.39,0,3.59a5.58,5.58,0,0,1-7.55-3.46c0-.44,0-.88,0-1.31q0-14.31,0-28.62c0-.49-.18-1.05.32-1.44A4.08,4.08,0,0,1,121.65,49.9Z" transform="translate(-15.52 -35.2)"/><path class="cls-4" d="M119,52.77a4.61,4.61,0,0,0-.21,1.88q0,14.21,0,28.39-.09.17-.18,0c0-7.22,0-14.44,0-21.65,0-5.82,0-11.65,0-17.47.4.63.17,1.32.18,2,0,1.91,0,3.83,0,5.74C118.81,52,118.66,52.45,119,52.77Z" transform="translate(-15.52 -35.2)"/><path class="cls-5" d="M118.6,83h.18c0,.4,0,.79,0,1.18a6.68,6.68,0,0,1,.39,2.46c-.06,3.1.12,6.21-.16,9.3a7.23,7.23,0,0,0-.24,2.12q0,7.49,0,15h-.19Z" transform="translate(-15.52 -35.2)"/><path class="cls-6" d="M186.63,145.21c7.19,0,14.39,0,21.59,0,.87,0,1.18.18,1.14,1.11-.08,1.88-.08,3.76,0,5.63,0,1-.26,1.2-1.2,1.19-9.12,0-18.23,0-27.35,0-1,0-1.44.19-1.41,1.34.08,3.48.07,7,0,10.44,0,1,.31,1.18,1.22,1.18,9.12,0,18.23,0,27.35,0,1.09,0,1.39.26,1.38,1.37q-.08,10.8,0,21.59a2.18,2.18,0,0,1-.9,1.92c-1.45,1.14-2.66,2.81-4.28,3.41s-3.62.18-5.46.18c-11.16,0-22.31,0-33.47,0-1,0-1.4-.2-1.34-1.3a51.19,51.19,0,0,0,0-5.4c0-1,.28-1.26,1.27-1.25,8.56,0,17.11,0,25.67,0,1.54,0,1.55,0,1.55-1.54,0-3.28,0-6.56,0-9.84,0-1-.27-1.19-1.2-1.18-8.64,0-17.28,0-25.91,0-1,0-1.42-.18-1.41-1.34q.08-13.14,0-26.27c0-1,.23-1.27,1.23-1.26C172.31,145.23,179.47,145.21,186.63,145.21Z" transform="translate(-15.52 -35.2)"/><path class="cls-6" d="M157,178.1c-.83,2.12-1.61,4.11-2.38,6.11-.17.46-.54.41-.89.41-5.72,0-11.44,0-17.16,0-.93,0-.91-.47-.91-1.12,0-5,0-10.08,0-15.12,0-1.1-.33-1.36-1.36-1.31-1.67.09-3.36.06-5,0-.74,0-1,.21-1.22,1-1.24,5.16-2.55,10.3-3.78,15.47-.21.86-.55,1.13-1.43,1.12q-5.88-.07-11.76,0a1.2,1.2,0,0,1-1.4-1.06c-.5-1.8-1.08-3.58-1.66-5.48,1.17,0,2.2,0,3.24,0,.59,0,.91-.1,1.07-.78.75-3.15,1.55-6.28,2.38-9.41.18-.65.08-.83-.61-.82-1.68,0-3.36,0-5,0-.72,0-1-.18-1-.94,0-1.56.06-3.12,0-4.68,0-.84.31-1,1-1,5.52,0,11,0,16.56,0,1,0,1.27-.3,1.22-1.27-.08-1.56-.07-3.12,0-4.68,0-.9-.15-1.3-1.16-1.23a32.51,32.51,0,0,1-4.07,0c-.85,0-1.19.27-1.41,1.05-.62,2.21-.65,2.2-2.88,2.2-2.84,0-5.68,0-8.52,0a1,1,0,0,1-1.19-.86c-.35-1.22-.75-2.44-1.2-3.64-.25-.67-.17-1,.6-.88,1.44.28,1.91-.47,2.24-1.72.56-2.16,1.32-4.27,1.94-6.42.19-.63.42-.92,1.13-.91q5.28,0,10.56,0c.83,0,1,.24.68,1-.33.9-.52,1.84-.83,2.75-.2.59-.2.89.56.85a25.23,25.23,0,0,1,2.75,0c.67,0,.81-.26.8-.86,0-1.36,0-2.72,0-4.08,0-.69.15-1,.92-1q5.58.06,11.16,0c.76,0,1,.25.92,1-.05,1.32,0,2.64,0,4,0,.83.27,1,1,1,4.16,0,8.33,0,12.48,0,1,0,1.22.3,1.17,1.21-.07,1.44-.07,2.89,0,4.32.05.89-.19,1.16-1.11,1.15-4.12-.06-8.24,0-12.36-.05-.93,0-1.25.22-1.2,1.19.08,1.63.07,3.28,0,4.91,0,.84.2,1.08,1,1.07,5.24,0,10.48,0,15.72,0,1,0,1.31.25,1.25,1.25-.09,1.43-.06,2.88,0,4.32,0,.77-.2,1-1,1-2.39,0-4.8,0-7.19,0-.72,0-1,.18-1,.94,0,3,0,6.08,0,9.12,0,.85.34,1,1.05,1C152.14,178.08,154.49,178.1,157,178.1Z" transform="translate(-15.52 -35.2)"/><path class="cls-6" d="M55.13,153.15c1.3-2.59,2.54-5,3.76-7.49.2-.4.53-.42.9-.42,6.84,0,13.68,0,20.52,0,1.12,0,.83.71.83,1.28q0,18.66,0,37.31c0,3.2,0,6.4,0,9.6,0,.83-.22,1.08-1.07,1.07-4.84,0-9.68-.05-14.51,0-1.06,0-1.23-.35-1.23-1.3,0-12.88,0-25.76,0-38.63,0-1.15-.26-1.5-1.44-1.45C60.42,153.21,57.87,153.15,55.13,153.15Z" transform="translate(-15.52 -35.2)"/><path class="cls-6" d="M103.43,173.65c0,6.35,0,12.71,0,19.07,0,.88-.13,1.23-1.14,1.22-4.72-.06-9.44-.05-14.16,0-.92,0-1.15-.27-1.11-1.15.07-1.55.06-3.12,0-4.68,0-.75.22-1,1-.93.91,0,2.12.31,2.66-.16s.21-1.8.21-2.75c0-7.64,0-15.27,0-22.91,0-1-.18-1.39-1.29-1.36-2.55.09-2.56,0-2.56-2.52,0-1.16,0-2.32,0-3.48,0-.61.18-.85.82-.84,4.92,0,9.83,0,14.75,0,.9,0,.82.48.82,1.06Q103.43,163.93,103.43,173.65Z" transform="translate(-15.52 -35.2)"/><path class="cls-6" d="M158.18,187.29c-1.38,2.13-2.69,4.13-4,6.16-.37.59-.87.46-1.37.46h-21.1c-7.6,0-15.2,0-22.79,0a1.65,1.65,0,0,1-1.63-.88c-1.16-1.91-2.39-3.77-3.68-5.76Z" transform="translate(-15.52 -35.2)"/><path class="cls-6" d="M96.31,151.89c-1.72,0-3.44,0-5.16,0a1,1,0,0,1-1.16-.86c-.71-3-1.45-5.89-2.24-8.82-.21-.76,0-.87.69-.86q5.28,0,10.56,0a.85.85,0,0,1,1,.75c.35,1.4.81,2.76,1.1,4.17.19.89.6,1.22,1.46,1.08s1.08.21.82,1c-.38,1.13-.18,2.73-1,3.34s-2.23.17-3.38.19C98.07,151.9,97.19,151.89,96.31,151.89Z" transform="translate(-15.52 -35.2)"/><path class="cls-3" d="M164.86,176.21c1.21-.27,1.67.19,1.5,1.43a13.66,13.66,0,0,0,0,1.92c0,1.73.4,2.13,2.09,2.13,6.8,0,13.6,0,20.4,0,.47,0,1.21-.33,1.37.31a5,5,0,0,1,0,2.25c-.09.43-.7.22-1.07.22H164.63c-2,0-2.81.85-2.84,2.87,0,1.36-.06,2.72,0,4.08,0,.87-.27,1.11-1.09,1s-1.72,0-2.59-.08a2.51,2.51,0,0,0,1.34-1.56c.63-1.72,1.34-3.41,2-5.13.53-1.37.38-1.71-.92-2.32,1.12-2.27,2.53-4.38,3.74-6.6A2,2,0,0,1,164.86,176.21Z" transform="translate(-15.52 -35.2)"/><path class="cls-7" d="M164.86,176.21q-1.89,3.38-3.79,6.73c-.11.19-.35.3-.53.46h-3.27c.54-1.39,1-2.63,1.49-3.9.78-2.16-.15-3.5-2.47-3.55-.72,0-1.44,0-2.16,0-.36,0-.6-.07-.6-.52s.12-.66.61-.66q3.71,0,7.43-.05a.61.61,0,0,1,.58.31A2.8,2.8,0,0,0,164.86,176.21Z" transform="translate(-15.52 -35.2)"/><path class="cls-8" d="M52.6,174a2.26,2.26,0,0,1,1.4-.22l8.16,0a26,26,0,0,1,0,4.32l-9.56,0Z" transform="translate(-15.52 -35.2)"/><path class="cls-9" d="M86,174.24v-12.3l2.6.33a22.71,22.71,0,0,1,.11,4c0,2.51,0,5,0,7.54C87.86,174.67,86.9,174.35,86,174.24Z" transform="translate(-15.52 -35.2)"/><path class="cls-10" d="M88.53,174.05l0-11.78c.34.28.19.66.19,1,0,6.87,0,13.74,0,20.61,0,1-.27,1.26-1.21,1.18a7.91,7.91,0,0,0-1.59.21v-7.2a1.15,1.15,0,0,1,.75-.31c1.47-.22,1.45-.22,1.49-1.76C88.23,175.34,88.06,174.64,88.53,174.05Z" transform="translate(-15.52 -35.2)"/><path class="cls-11" d="M133.6,180v4.44c0,.22.16.58-.16.6a25,25,0,0,1-2.87,0c-.36,0-.14-.38-.09-.57.74-3,1.49-6.05,2.23-9.07.07-.28.1-.58.48-.56s.4.42.4.73c0,1.47,0,2.95,0,4.43Z" transform="translate(-15.52 -35.2)"/><path class="cls-12" d="M108.28,174c0-1.31,0-2.63-.06-3.94,0-.88.46-.88,1-.82s1.37-.3,1.33.81,0,2.48,0,3.71A1.73,1.73,0,0,1,108.28,174Z" transform="translate(-15.52 -35.2)"/><path class="cls-13" d="M88.53,174.05c0,.95,0,1.9,0,2.84s-.2,1.34-1.17,1.21a9.62,9.62,0,0,0-1.42,0c0-1.28,0-2.56,0-3.83A5.22,5.22,0,0,1,88.53,174.05Z" transform="translate(-15.52 -35.2)"/><path class="cls-14" d="M108.28,174a6.49,6.49,0,0,0,2.32-.24,1.62,1.62,0,0,1-.07,2c-.43.46-1.28.14-1.94.16-.33,0-.36-.24-.35-.49C108.25,175,108.26,174.49,108.28,174Z" transform="translate(-15.52 -35.2)"/><path class="cls-8" d="M128.35,71.72a6.17,6.17,0,0,1,1.2-4.24c2.42-3.81,4.73-7.68,7.08-11.54.18-.29.34-.61.6-1.07h-7c-1.52,0-3,0-4.56,0-.66,0-.91-.19-.9-.89,0-2.47,0-5,0-7.43,0-.84.23-1.08,1.07-1.08,5.28,0,10.56,0,15.84,0a1.85,1.85,0,0,0,1.89-1.07c1-1.8,2.18-3.54,3.26-5.31.26-.42.49-.75,1.09-.75,6.08,0,12.16,0,18.24,0,.06,0,.13,0,.3.14l-4.06,6.73a2.19,2.19,0,0,0,1.46.2q29.44,0,58.9,0c1,0,1.46.18,1.4,1.34-.1,2.31-.08,4.64,0,7,0,.94-.29,1.11-1.15,1.1-5.72,0-11.44,0-17.16,0q-24,0-48,0A2.08,2.08,0,0,0,155.84,56c-3.09,5.23-6.23,10.42-9.36,15.62-.38.56-1,.49-1.51.49q-7.59,0-15.18,0A1.71,1.71,0,0,1,128.35,71.72Z" transform="translate(-15.52 -35.2)"/><path class="cls-8" d="M166.06,71.72c0-3.48.06-7,0-10.43,0-.81.16-1.11,1-1.1q8,.06,16.08,0c.82,0,1,.28,1,1,0,3,0,6.08,0,9.12,0,1.06.22,1.41,1.36,1.4,11.28,0,22.56,0,33.84,0,1.1,0,1.52.18,1.46,1.4-.11,2.28-.09,4.56,0,6.84,0,1-.32,1.21-1.28,1.21-11.31,0-22.63,0-33.95,0-1.16,0-1.44.28-1.44,1.43,0,9.76,0,19.52.06,29.28,0,1.14-.34,1.37-1.4,1.37-6.28,0-12.56,0-18.84,0a1.55,1.55,0,0,1-1.66-1c-1-2.06-2-4.09-3.07-6.1-.44-.83-.46-1.17.64-1.11,1.6.07,3.21-.06,4.8,0,1.12.07,1.48-.21,1.47-1.41-.06-7.4,0-14.8,0-22.2A9.72,9.72,0,0,1,166,78.3,62.81,62.81,0,0,1,166.06,71.72Z" transform="translate(-15.52 -35.2)"/><path class="cls-15" d="M211.51,112.31c-2.64,0-5.27,0-7.91,0-.84,0-1.09-.33-1.21-1q-1.35-7.75-2.71-15.51c-.48-2.78-.94-5.56-1.46-8.33-.14-.76.06-.94.81-.93,5.07,0,10.14,0,15.22,0,.69,0,.94.2,1.06.92.91,5.57,1.89,11.12,2.8,16.69.1.64.33.78.9.76,1.32,0,2.63,0,4,0,.61,0,.93.06.58.79-1,2-1.93,4-2.84,6.06-.26.57-.66.57-1.16.57Z" transform="translate(-15.52 -35.2)"/><path class="cls-8" d="M125.21,105c1.68,0,3.14,0,4.61,0,.81,0,1.16-.13,1.3-1,.82-5.37,1.74-10.72,2.58-16.08.15-1,.45-1.3,1.49-1.28,4.84.07,9.68.06,14.51,0,1,0,1.19.19,1,1.17q-2.1,11.85-4.08,23.72c-.12.69-.44.8-1,.8-5.4,0-10.8,0-16.2,0a1,1,0,0,1-1.08-.69C127.34,109.45,126.32,107.33,125.21,105Z" transform="translate(-15.52 -35.2)"/><path class="cls-16" d="M166.06,71.72c.27.13.26.38.26.61v8.54a.57.57,0,0,1-.2.52l-29.23,0c-2.68,0-5.36,0-8,0-.72,0-1-.17-1-.93,0-2.59,0-5.19,0-7.78,0-.35-.21-.85.43-.94q8.76,0,17.54,0a2.83,2.83,0,0,0,.58-.11c3.86,0,7.72.06,11.58.07Z" transform="translate(-15.52 -35.2)"/><path class="cls-8" d="M162.94,101.76c-1.12,0-2.24-.05-3.36,0-.72,0-1-.22-1-1a18.6,18.6,0,0,0-.16-4.28A4.9,4.9,0,0,0,154,92.65c-.4,0-.83,0-.92-.51.26-3,.26-3,3.21-3h5.86c.46,0,.87,0,.86.65Q163,95.79,162.94,101.76Z" transform="translate(-15.52 -35.2)"/><path class="cls-8" d="M119,96c-.37-.31-.23-.74-.23-1.12V84.22c1.1,2,2.54,3.47,5,3.38.8,0,1.6,0,2.4,0-.1,1.28.56,1.6,1.75,1.57,2.45-.06,2.45,0,2,2.41-.06.36-.16.7-.24,1h-6.09A4.65,4.65,0,0,0,119,96Z" transform="translate(-15.52 -35.2)"/><path class="cls-3" d="M163,68.42c-.93.51-1.93.2-2.9.22-2.59.06-5.19,0-8.09,0,1.21-2,2.28-3.8,3.38-5.57.22-.37.66-.21,1-.21.76,0,1.52,0,2.28,0,.49.58.33,1.28.35,1.94s0,1.35,0,2c0,.89.37,1.17,1.21,1.19S162.13,67.77,163,68.42Z" transform="translate(-15.52 -35.2)"/><path class="cls-8" d="M163,68.42c-1.11,0-2.23,0-3.34,0-.77,0-1.06-.22-1-1,.06-1.51,0-3,0-4.53,1.19,0,2.38,0,3.57,0,.62,0,.82.18.8.81C163,65.25,163,66.84,163,68.42Z" transform="translate(-15.52 -35.2)"/><path class="cls-8" d="M96.67,103.26c-1.11,2.81-2.26,5.61-3.33,8.44a1.47,1.47,0,0,1-1.61,1.15q-35.94,0-71.86,0c-.42,0-.88.15-1.26-.18q0-26.4,0-52.79c0-1.53.1-1.67,1.6-1.67,5.24,0,10.48,0,15.72,0a1.75,1.75,0,0,1,1.45.41q0,21.28,0,42.58c0,1.85-.26,1.59,1.56,1.59,5.56,0,11.12,0,16.67,0,1.08,0,1.3-.28,1.3-1.32q0-30.65,0-61.29c0-1.74-.21-1.51,1.55-1.51H75.37c1.87,0,1.62-.25,1.62,1.68q0,30.47,0,60.93c0,1.19.26,1.53,1.49,1.51,6.07-.07,12.15,0,18.23,0A.3.3,0,0,1,96.67,103.26Z" transform="translate(-15.52 -35.2)"/><path class="cls-15" d="M96.67,103.26c0-.16,0-.33,0-.49,0-.48,0-1,0-1.44q0-28.18,0-56.37c0-1,.23-1.32,1.3-1.31,5.28.06,10.56,0,15.83,0,.4,0,.79.07,1.18.11a2.26,2.26,0,0,1,.19,1.4q0,33.19,0,66.39A2.26,2.26,0,0,1,115,113c0,.6-.42.54-.82.54-5.56,0-11.11,0-16.66,0-.77,0-.81-.34-.81-.93C96.72,109.49,96.69,106.37,96.67,103.26Z" transform="translate(-15.52 -35.2)"/><path class="cls-16" d="M37.37,58.59c-5.92,0-11.84,0-17.76-.05-1,0-.94.53-.94,1.2q0,17.82,0,35.63,0,8,0,16c0,.44,0,.87-.06,1.31,0-.4-.07-.8-.07-1.19V45.33c0-1.65,0-1.65,1.6-1.65,5.4,0,10.8,0,16.2,0,.91,0,1.13.24,1.12,1.13C37.39,49.39,37.39,54,37.37,58.59Z" transform="translate(-15.52 -35.2)"/><path class="cls-2" d="M53.75,92.4c0,2.15,0,4.31,0,6.46,0,.64-.24.81-.84.81q-5.8,0-11.61,0c-.59,0-.87-.15-.86-.8,0-2.16,0-4.31.06-6.46a2.24,2.24,0,0,1,1.58-.4h10A2.13,2.13,0,0,1,53.75,92.4Z" transform="translate(-15.52 -35.2)"/><path class="cls-3" d="M93.57,92.63c0,2.07,0,4.14.05,6.21,0,.62-.22.82-.83.82-3.94,0-7.89,0-11.83,0-.71,0-.87-.29-.86-.93,0-2,0-4.06.05-6.09a2.09,2.09,0,0,1,1.47-.38q5.23,0,10.49,0A1.92,1.92,0,0,1,93.57,92.63Z" transform="translate(-15.52 -35.2)"/><path class="cls-8" d="M93.57,92.63H80.15a44.78,44.78,0,0,1,0-5l13.42,0Z" transform="translate(-15.52 -35.2)"/><path class="cls-8" d="M53.75,92.4H40.55a42.54,42.54,0,0,1,0-5H53.75Z" transform="translate(-15.52 -35.2)"/><path class="cls-8" d="M115,113c0-.36,0-.72,0-1.08v-67c0-.36,0-.72,0-1.08.21,0,.42,0,.44.29s0,.64,0,1q0,33.34,0,66.68C115.43,112.13,115.86,112.81,115,113Z" transform="translate(-15.52 -35.2)"/><path class="cls-6" d="M21.76,153.15c1.32-2.61,2.54-5,3.74-7.44.23-.46.59-.47,1-.47,6.8,0,13.59,0,20.39,0,1,0,.9.48.9,1.12,0,5.44,0,10.87,0,16.31,0,10.2,0,20.4,0,30.6,0,1-.26,1.26-1.25,1.25q-7.08-.09-14.16,0c-1.06,0-1.41-.23-1.41-1.37,0-12.88,0-25.75.05-38.63,0-1.09-.27-1.42-1.37-1.38C27.11,153.21,24.55,153.15,21.76,153.15Z" transform="translate(-15.52 -35.2)"/></svg>