<svg id="圖層_1" data-name="圖層 1" xmlns="http://www.w3.org/2000/svg" viewBox="0 0 212.9 181"><defs><style>.cls-1{fill:#651b07;}.cls-2{fill:#d1d3d1;}.cls-3{fill:#d98080;}.cls-4{fill:#d97f7f;}.cls-5{fill:#d1d2d0;}.cls-6{fill:#d1d3d0;}.cls-7{fill:#fbdcd9;}.cls-8{fill:#fefefd;}.cls-9{fill:#fefefe;}.cls-10{fill:#d0d2d0;}.cls-11{fill:#d0d1cf;}.cls-12{fill:#fcfbfa;}.cls-13{fill:#cfd0ce;}.cls-14{fill:#fdfdfd;}.cls-15{fill:#43d8fe;}.cls-16{fill:#fedd43;}.cls-17{fill:#fcfbfb;}</style></defs><title>18</title><path class="cls-1" d="M68.87,143.05a40.52,40.52,0,0,0,5,0,16.73,16.73,0,0,1,8.23.16,2.34,2.34,0,0,1,1.45,2.42c.05,1.11,0,2.23,0,3.35,0,.69.21,1.15,1,1.27a9.36,9.36,0,0,1,1.34.49c1,.31,1.49-.12,1.21-1.14-.63-2.27-1.18-4.57-1.74-6.85s.45-3.79,2.86-3.85q5.39-.12,10.78,0c2,.05,2.77.78,3.32,2.67a13.22,13.22,0,0,1,.42,1.49,2.66,2.66,0,0,0,1.8,2.3,2.28,2.28,0,0,1,1.37,2.44c0,.37-.37,1,.31,1.09s.81-.42,1-.89c.7-1.91,1.2-3.89,1.85-5.82a3.19,3.19,0,0,1,2-2.26c1.75-.31,3.48.23,5.24.16a66.93,66.93,0,0,1,7.76-.27,1.37,1.37,0,0,0,1.09-.41,4.14,4.14,0,0,1,3-1c3.56,0,7.12-.05,10.68,0,2.58,0,3.63,1.13,3.66,3.69,0,2.39-.1,2.29,2.31,2.29,3,0,6,0,9,0,2.22,0,3.18.94,3.33,3.18a12.31,12.31,0,0,1,0,1.92c-.13,1.29.06,2.37,1.54,2.73.37.38.78.78.71,1.33-.46,3.8,1.06,7.47.7,11.25-.07.78.1,1.11,1,1.11.69,0,.77-.21.77-.78,0-2.4,0-4.8,0-7.2,0-3.92,0-7.84,0-11.76,0-2.27.82-3.09,3.11-3.09h43.55c2.2,0,3,.83,3,3,0,1.2,0,2.4,0,3.59,0,.64.19.8.81.82,1.51,0,1.83.43,1.84,2q0,3.12,0,6.24c0,1.63-.41,2-2.06,2-8.84,0-17.68,0-26.52,0-1,0-1.59.18-1.37,1.34a1.73,1.73,0,0,1,0,.6c-.13.9.16,1.26,1.16,1.21,1.95-.08,3.91,0,5.87,0h17.16c2.49,0,3.12.63,3.12,3.13,0,1.16,0,2.32,0,3.47,0,.6.12.84.79.86,1.71.06,1.86.25,1.86,2,0,7.48,0,15,0,22.44a2.51,2.51,0,0,1-1,2.24c-1.36,1.05-2.62,2.22-3.91,3.35a2.1,2.1,0,0,1-1.34.72c-1.63.19-3.27,0-4.91.09-11.14.34-22.29.23-33.44.25-.48,0-1,0-1.44,0a1.94,1.94,0,0,1-2-1.93A23.55,23.55,0,0,1,166,198c0-.68-.32-1-1-1a5.48,5.48,0,0,1-2.23-.37c-.58-.26-.89.11-1.17.53-.64.92-1.24,1.87-1.83,2.82a2.84,2.84,0,0,1-1.53,1.44,5,5,0,0,1-1.89.24h-41.2c-.44,0-.87,0-1.31,0-2,.82-2.83.37-5-2.55-.24.23-.12.53-.15.78a2,2,0,0,1-2.17,2.08c-1.2.07-2.4,0-3.6,0-3.6,0-7.19,0-10.79,0-2.29,0-2.85-.58-2.86-2.83,0-.52,0-1,0-1.56,0-.74-.29-1.06-1.05-1.14-1.82-.18-1.81-.21-1.82,1.68,0,.87,0,1.75,0,2.63s-.54,1.65-1.54,1.65a104.13,104.13,0,0,1-10.89-.14,20.61,20.61,0,0,0-4.9.06,4.28,4.28,0,0,1-1.07.06c-1-.25-1.32-1.06-1.45-2a17.31,17.31,0,0,1-.06-2.39.93.93,0,0,0-1-1.08c-2.85-.34-3.58-1.14-3.59-4,0-5,0-9.89,0-14.84,0-1.32,0-2.63,0-4,0-.14,0-.28,0-.42,0-3.68,0-7.35,0-11,0-1.48-.09-1.55-1.55-1.57-.36,0-.72,0-1.08,0-1.65-.09-2.26-1-1.65-2.6.3-.74.7-1.44,1-2.15.25-.5.13-.76-.45-.76-.88,0-1.76,0-2.64,0-2.32-.11-3.36-1.79-2.36-3.9,1.15-2.42,2.39-4.79,3.58-7.19a3.09,3.09,0,0,1,2.78-1.78c2.83-.14,5.67-.06,8.51,0A1.31,1.31,0,0,1,68.87,143.05Z" transform="translate(-9.14 -35.29)"/><path class="cls-1" d="M123.56,92.4l.81-4.32a16.78,16.78,0,0,1,.64-4.93,4.48,4.48,0,0,0-.18-2.56c-1.39-3.78-2.85-7.53-4.07-11.36a39.38,39.38,0,0,1-1.92-6.38,5.71,5.71,0,0,1,0-3.54,2.43,2.43,0,0,1,2.09-1.7,5.69,5.69,0,0,1,1.3-.09c2.18,0,2.18,0,1.37-2.11-.56-1.44-1-2.93-1.59-4.35a4.79,4.79,0,0,1-.25-1.63c-.93-2.8-1.88-5.59-2.81-8.39a4.79,4.79,0,0,1-.41-2.09,3,3,0,0,1,3.14-3c5.68-.06,11.36,0,17,0a3.25,3.25,0,0,1,3.2,2.43c.81,2.3,1.71,4.57,2.51,6.87.24.7.55,1.08,1.32,1a.9.9,0,0,1,.59.1c1.49,1,2-.1,2.54-1.15,1.37-2.44,2.84-4.81,4.17-7.27a3.58,3.58,0,0,1,3.4-2c6,0,11.92,0,17.87,0,2.56,0,4.57,1.79,2.85,5.58h39.7a8.2,8.2,0,0,1,1.78.17,2.7,2.7,0,0,1,2.43,2.43,46,46,0,0,1,0,9.67,2.59,2.59,0,0,1-2,2.3c-.51.15-.6.38-.63.83-.3,5.07-.2,10.14-.25,15.21,0,.7.29.86.85,1,2.25.53,3,1.43,3,3.79,0,2.64,0,5.28,0,7.92,0,1.68-.45,3.09-2.29,3.61-.4.11-.44.38-.44.72,0,.6,0,1.2,0,1.8,0,1-.23,2,1.28,2.46,1.18.34,1.41,1.67,1.43,2.81q.08,3.78,0,7.56a3.1,3.1,0,0,1-2.19,3.21c-.47.15-.53.39-.53.78,0,.76,0,1.52,0,2.28s.25,1.64-.86,2c-.35.1-.21.57-.25.87a3,3,0,0,1-2.18,2.72c-.47.15-.51.38-.51.77,0,1,0,2.08,0,3.12,0,.71-.34,1-1,1-.2,0-.4,0-.6,0-8.84,0-17.68,0-26.51,0a1.7,1.7,0,0,1-1.95-1.29,35.2,35.2,0,0,0-2-4.75c-.41-.81.16-1.78-.61-2.44-.36-.25-.77-.13-1.16-.13-7.28,0-14.56-.16-21.84.08-2.43.08-4.89.39-7.34.4a6.93,6.93,0,0,1-1.44-.09,1.57,1.57,0,0,1-1.4-1.55,8,8,0,0,1,0-1.2,3.41,3.41,0,0,0-1.2-3.18c-1.07-.9-1.19-2.31-1.2-3.66,0-2.75,0-5.51-.1-8.29a1.79,1.79,0,0,0-.32.93c-1.07,5.7-2.26,11.37-3.32,17.07a5.36,5.36,0,0,1-1.62,3.26c-.65.58-.63,1.44-.78,2.22-.6,3.12-.6,3.13-3.8,3.13-4.32,0-8.64,0-13,0-1.94,0-2.33-.28-3-2.13-.51-1.51-1-3-1.59-4.53a19.46,19.46,0,0,1-1-4c-.51-1.58-1-3.15-1.52-4.74-.61-2-.21-3.16,1.49-4.4a2.11,2.11,0,0,1,1.76-.52c.84,0,1.21-.37,1.36-1.17.35-1.87.68-3.75,1-5.62A4.05,4.05,0,0,1,123.56,92.4Z" transform="translate(-9.14 -35.29)"/><path class="cls-1" d="M29,119.81l-15.91,0c-1.6,0-1.63,0-1.64-1.58,0-.48,0-1,0-1.44.07-1,.06-2-1.14-2.53a2.59,2.59,0,0,1-1.12-2.4c-.08-2.87-.12-5.74,0-8.61a3.18,3.18,0,0,1,3-3.16,10,10,0,0,1,2.38-.08c3.59,0,7.19.13,10.78,0,5-.23,10-.21,15.05-.25,1.25,0,1.37-.14,1.4-1.38,0-1.43,0-2.87,0-4.31a2.33,2.33,0,0,1,.35-1.6v-5a2.33,2.33,0,0,1-.36-1.6q0-17.49,0-35a2.33,2.33,0,0,1,.36-1.6c0-3.24,0-6.47,0-9.71a5.9,5.9,0,0,1,.42-2.34,3.16,3.16,0,0,1,3.14-1.81c5.8,0,11.6-.06,17.4,0,2.27,0,3.5,1.39,3.51,3.67,0,3.64,0,7.28,0,10.92.24.95.35,2,1.64,2.14h6a3,3,0,0,1,1.73-.37h29.62a7.35,7.35,0,0,1,2.14.27,3.35,3.35,0,0,1,2.6,3.22c.12,3.19.1,6.39,0,9.59a3.32,3.32,0,0,1-1.61,2.93,1.84,1.84,0,0,0-1,1.87,13.52,13.52,0,0,1,0,1.8,1.6,1.6,0,0,1-1.66,1.69,7.7,7.7,0,0,1-1,0H75.75a2.66,2.66,0,0,1-1.84-.37h-5c-1.76.28-1.86,1.48-1.81,3,.09,3,0,6.06,0,9.09a3.81,3.81,0,0,1-.34,1.86c0,2.24,0,4.48,0,6.71.58,1.35.28,2.77.31,4.15,0,2.23.12,2.38,2.34,2.45,1.51,0,3,.07,4.55,0a3.08,3.08,0,0,1,1.53-.23q17.63,0,35.25,0c1.11,0,2.29,0,3,1.1a4.34,4.34,0,0,1,1.07,3.08c0,2.43,0,4.87,0,7.3a4.17,4.17,0,0,1-1,3.07c-1.3,1-1.34,2.39-1.32,3.86,0,1.63-.41,2-2.1,2-4.07,0-8.14,0-12.21,0q-11.13,0-22.27,0a3.07,3.07,0,0,1-2-.34h-5a2.46,2.46,0,0,1-1.61.34H30.64A2.46,2.46,0,0,1,29,119.81Z" transform="translate(-9.14 -35.29)"/><path class="cls-2" d="M62.18,173.77a.16.16,0,0,1,0,.22,2.18,2.18,0,0,1-1.58.38c-2,0-4,0-6,0-1.33,0-1.43.12-1.45,1.42,0,1.85,0,1.9,1.81,1.9h5.6a2.19,2.19,0,0,1,1.59.38l.06,13.17c0,.83,0,1.67,0,2.51.06,2,.83,2.81,2.86,2.84,1.69,0,1.69,0,1.7,1.74,0,.72,0,1.44,0,2.15s.24,1.43,1.11,1.64c.39.19.87-.11,1.24.21q0,4.38,0,8.75a4.8,4.8,0,0,1-5.18,5.14H34.43a4.77,4.77,0,0,1-5.15-5.14q0-7.74,0-15.48a16.41,16.41,0,0,0,3.49.65c.69,0,.9.57,1,1.18.06.84,0,1.68.06,2.51.11,1.36.45,1.72,1.77,1.73q7.56,0,15.1,0c1.25,0,1.48-.26,1.52-1.49s0-2.63,0-3.95q0-10.31,0-20.61a2.9,2.9,0,0,1,.35-2,.59.59,0,0,1,.2-.12,54.22,54.22,0,0,1,8.92-.06A1,1,0,0,1,62.18,173.77Z" transform="translate(-9.14 -35.29)"/><path class="cls-3" d="M73.91,72.73l20,0h11.88c1.58,0,1.66-.1,1.67-1.72,0-.44,0-.88,0-1.32-.08-1,0-1.84,1.25-2.27s1.41-1.61,1.43-2.71c.06-3.07.08-6.16,0-9.23,0-2.19-1.47-3.33-4-3.34H79.32l-4.92,0A4.81,4.81,0,0,1,79,49.42c9.87,0,19.75,0,29.62,0a4.8,4.8,0,0,1,5.1,5.11q0,14,0,27.94a4.85,4.85,0,0,1-5.14,5.11H79a4.77,4.77,0,0,1-5-5Q73.91,77.65,73.91,72.73Z" transform="translate(-9.14 -35.29)"/><path class="cls-2" d="M118.82,110.37c1,3,2.1,6,3.08,9a1.58,1.58,0,0,0,1.79,1.3q7.56-.06,15.11,0c1,0,1.56-.25,1.64-1.36a25.11,25.11,0,0,1,.5-2.7,1.7,1.7,0,0,1,.84-1.35,2.71,2.71,0,0,0,1.21-2.1q1.71-8.69,3.4-17.38c.12-.59.2-1.19.34-1.77.08-.32.07-.78.62-.67s.31.5.31.78q0,4.44,0,8.87c0,1.64.3,3.13,2,3.9.4.19.35.48.35.8,0,.92.07,1.84,0,2.75-.11,1.11.34,1.52,1.42,1.5,2.2,0,4.4,0,6.59,0l24.11-.06c.26,0,.56-.11.76.18-7.59,0-15.19,0-22.79,0-1.16,0-1.48.29-1.46,1.45.08,3.92,0,7.84,0,11.76,0,3.51-2,5.5-5.48,5.5H123.87a4.68,4.68,0,0,1-5.07-5.08Q118.8,118,118.82,110.37Z" transform="translate(-9.14 -35.29)"/><path class="cls-2" d="M69.17,202.35c-.41-.1-.87.11-1.24-.21H83.87c1.86,0,2.06-.21,2.07-2.06,0-1.36,0-2.72,0-4.08a1.1,1.1,0,0,1,.08-.19,11.17,11.17,0,0,0,1.33.26c2.12.21,2.12.2,2.12,2.37,0,3.16,0,3.16,3.2,3.16h13.18c2.06,0,2.37-.31,2.37-2.33v-1.57a7.76,7.76,0,0,1,1.58,2.26,2.73,2.73,0,0,0,3,1.65,6.16,6.16,0,0,1,1,0c0,3.12-.06,6.24,0,9.36a5.05,5.05,0,0,1-5.31,5.3c-9.79-.11-19.59,0-29.39,0-3.25,0-5.15-1.9-5.15-5.13,0-2.52,0-5,0-7.56,0-1-.32-1.31-1.29-1.24C71.49,202.4,70.33,202.34,69.17,202.35Z" transform="translate(-9.14 -35.29)"/><path class="cls-1" d="M52.61,173.8c0,3,0,6.07,0,9.11,0,5.75,0,11.51,0,17.27,0,1.7-.25,1.95-1.95,1.95H35.41c-1.57,0-1.94-.39-2-2a23.34,23.34,0,0,1,0-2.51c.06-.82-.25-1.05-1-1-1.16.07-2.34.09-3.17-1a6.61,6.61,0,0,1-.39-2.46c0-10.35,0-20.7,0-31,0-1-.18-1.5-1.29-1.31a8.17,8.17,0,0,1-1.31,0c-2.16,0-2.55-.66-1.56-2.63l1.45-2.89c-1.45,0-2.75,0-4.05,0-2.11,0-3-1.5-2.14-3.42,1.2-2.51,2.49-5,3.76-7.47a2.67,2.67,0,0,1,2.52-1.29c.92,0,1.84,0,2.75-.07a2.2,2.2,0,0,1,1.59-.38H46.35a6.75,6.75,0,0,1,1.55.16,2.75,2.75,0,0,1,2.37,2.76c.08,1.08,0,2.16,0,3.24a1.28,1.28,0,0,0,1,1.42c1.45.49,1.49.85,1.56,2.4.15,3.55.08,7.11.1,10.67,0,2.91,0,5.83,0,8.75A2.78,2.78,0,0,1,52.61,173.8Z" transform="translate(-9.14 -35.29)"/><path class="cls-2" d="M42.21,49.19c0,3.15,0,6.3,0,9.45q0,13.71,0,27.41c0,.44,0,.88,0,1.32h-8.4A4.72,4.72,0,0,1,29,82.56q0-14.2,0-28.43a4.72,4.72,0,0,1,4.89-4.93C36.69,49.18,39.45,49.19,42.21,49.19Z" transform="translate(-9.14 -35.29)"/><path class="cls-3" d="M52.61,173.8q0-10.55,0-21.09c0-1.79-.14-2-1.92-2.16-.6-.06-.73-.3-.72-.82,0-1.2,0-2.4,0-3.6,0-2.21-.8-3-3-3-4.12,0-8.23,0-12.35,0-1.83,0-3.67,0-5.51-.05v-2.27a4.86,4.86,0,0,1,5.11-5.13c5.79,0,11.59,0,17.38,0h12c3.37,0,5.35,2,5.36,5.38v2c-2.87,0-5.75.06-8.62,0a3.39,3.39,0,0,0-3.58,2.16c-1,2.19-2.14,4.28-3.19,6.43s-.16,3.6,2.29,3.62c1.19,0,2.38,0,3.67,0a24.5,24.5,0,0,1-1.54,3.3q-1,2.19,1.38,2.22c2.94.05,2.95.05,2.94,3q0,5,0,9.94Z" transform="translate(-9.14 -35.29)"/><path class="cls-4" d="M73.89,119.8l24.58,0c4,0,8.07,0,12.1,0,1.16,0,1.65-.37,1.51-1.52,0-.32,0-.65,0-1-.22-1.46,0-2.65,1.69-3.06l0,11.15c0,3.47-1.94,5.41-5.41,5.41H79.2c-3.34,0-5.28-1.93-5.29-5.25C73.91,123.64,73.9,121.72,73.89,119.8Z" transform="translate(-9.14 -35.29)"/><path class="cls-2" d="M29,119.81c3.71,0,7.42,0,11.13,0l28.73,0c0,1.88,0,3.76,0,5.63a4.78,4.78,0,0,1-5.07,5.13H34.07a4.69,4.69,0,0,1-5-5C29,123.65,29,121.73,29,119.81Z" transform="translate(-9.14 -35.29)"/><path class="cls-4" d="M158.17,201.36c1.34-1.6,2.28-3.46,3.46-5.17.36-.51.51-.68,1-.15.75.78,1.79.57,2.73.55.71,0,1,.17,1,.93,0,1,0,2,0,3a1.48,1.48,0,0,0,1.66,1.61q14.1-.06,28.19-.07c3.88,0,7.75,0,11.63.05a7.5,7.5,0,0,1-2.71.15c-2.64,0-5.28.07-7.91,0a2,2,0,0,0-2.06,1.21c-1.89,3.38-3.84,6.73-5.78,10.07-1.48,2.56-4.16,3.45-6.64,2C174.52,210.86,166.35,206.1,158.17,201.36Z" transform="translate(-9.14 -35.29)"/><path class="cls-4" d="M113.74,100.8a5.43,5.43,0,0,0-3.08-.75q-18.37,0-36.76,0c-.07-.05-.1-.09-.08-.14s0-.08.05-.08l0-2.39a4.71,4.71,0,0,1,4.79-4.78q15,0,30.08,0a4.82,4.82,0,0,1,4.94,4.8C113.77,98.57,113.74,99.68,113.74,100.8Z" transform="translate(-9.14 -35.29)"/><path class="cls-2" d="M110.9,140.22a3.58,3.58,0,0,0-1.56,2.17c-.57,2-1.23,4-1.86,6.06a2,2,0,0,1-1.94.89c-.37-.17-.14-.48-.1-.73.41-2.14.11-2.73-1.94-3.34a1,1,0,0,1-.71-.81c-.28-1-.54-2-.81-3-.45-1.62-1.1-2.2-2.81-2.22-3.71,0-7.43-.05-11.14,0-2,0-2.84,1.26-2.36,3.2.61,2.48,1.27,4.95,1.87,7.43.08.34.49.92.08,1-.6.2-1.3.71-2,.14a1.55,1.55,0,0,0-1.07-.47c-1.34.18-1.35-.61-1.29-1.57s0-2,0-3c0-2.08-.81-2.89-2.91-2.92s-4.31,0-6.47-.07c.09-1.68-.32-3.41.75-5a4.67,4.67,0,0,1,4-2.19c10.08,0,20.15,0,30.22,0a4.8,4.8,0,0,1,4.67,4,2.09,2.09,0,0,1-1.68,0C111.48,139.79,111.14,139.8,110.9,140.22Z" transform="translate(-9.14 -35.29)"/><path class="cls-2" d="M110.9,140.22c0-.68.37-1,1-.57a2.59,2.59,0,0,0,1.7.23c1.44,0,2.88,0,4.31,0a1,1,0,0,0,1.14-.78,4.75,4.75,0,0,1,4.89-3.29H153.3a5,5,0,0,1,5.33,5.31c0,3.68,0,7.35,0,11-1.91-.2-1.91-.2-1.91-2.17,0-.88,0-1.76,0-2.64-.06-1.83-.92-2.7-2.76-2.71-3.56,0-7.11,0-10.67,0-1,0-1.33-.3-1.21-1.27a12.63,12.63,0,0,0,0-2c-.1-1.66-.9-2.55-2.54-2.57-4.07-.06-8.15,0-12.22,0-.54,0-1.24,0-1.55.5-.68,1.06-1.64.83-2.64.83C119.05,140.13,115,140.19,110.9,140.22Z" transform="translate(-9.14 -35.29)"/><path class="cls-2" d="M42.21,92.39c0,2.28,0,4.56.06,6.83,0,.59-.12.85-.79.84q-14.62,0-29.24,0c.37-.34.84-.2,1.26-.2,4.78,0,9.57,0,14.35,0,1,0,1.27-.26,1.21-1.21a5.8,5.8,0,0,1,1-4.3A4.87,4.87,0,0,1,34,92.41C36.71,92.38,39.46,92.4,42.21,92.39Z" transform="translate(-9.14 -35.29)"/><path class="cls-4" d="M118.84,62.85a67.23,67.23,0,0,1,2.6,7.42c1.22,3.38,2.4,6.77,3.66,10.13a4.42,4.42,0,0,1,.22,2.78c-.39,1.62-.64,3.27-.95,4.9-.1-.68-.63-.46-1-.49a4.65,4.65,0,0,1-4.52-4.3C118.76,76.48,118.82,69.66,118.84,62.85Z" transform="translate(-9.14 -35.29)"/><path class="cls-4" d="M121.75,49.43c.88,2.43,1.72,4.87,2.65,7.27.35.93,0,1.12-.81,1.09a19.16,19.16,0,0,0-2.27.05,3.47,3.47,0,0,0-2.49,1.47c0-1.84-.08-3.68,0-5.51a4.49,4.49,0,0,1,2.1-3.6C121.22,50,121.67,49.91,121.75,49.43Z" transform="translate(-9.14 -35.29)"/><path class="cls-2" d="M123.56,92.4c-.47,2.57-1,5.14-1.41,7.72-.11.63-.36.91-1,.84a7.76,7.76,0,0,0-2.35.27V97.79a4.8,4.8,0,0,1,4-5.13C123.05,92.59,123.3,92.48,123.56,92.4Z" transform="translate(-9.14 -35.29)"/><path class="cls-2" d="M66.76,86.64c0-4.36,0-8.73,0-13.1,0-.66.17-1,.86-.86.43,0,.87,0,1.3,0,0,3.07,0,6.14,0,9.22A5.51,5.51,0,0,1,66.76,86.64Z" transform="translate(-9.14 -35.29)"/><path class="cls-5" d="M73.87,99.82a.78.78,0,0,1,0,.22c-2.15,0-4.29,0-6.44,0-.58,0-.75-.18-.74-.75,0-2,0-4,0-6a5.21,5.21,0,0,1,2.09,5.16c-.09,1,.19,1.45,1.3,1.36S72.63,99.83,73.87,99.82Z" transform="translate(-9.14 -35.29)"/><path class="cls-6" d="M68.4,52.06c-1.9,0-1.69.53-1.64-2.14A6.87,6.87,0,0,1,68.4,52.06Z" transform="translate(-9.14 -35.29)"/><path class="cls-7" d="M186.68,145.21c7.12,0,14.23,0,21.35,0,1.16,0,1.39.36,1.34,1.4a49.84,49.84,0,0,0,0,5c.07,1.15-.18,1.54-1.46,1.53-9.08-.07-18.16,0-27.24-.06-.95,0-1.29.17-1.27,1.22q.1,5.28,0,10.56c0,1,.31,1.17,1.22,1.17,9.16,0,18.32,0,27.48,0,1,0,1.28.19,1.27,1.23-.05,7.27,0,14.55,0,21.83a1.94,1.94,0,0,1-.78,1.74c-1.47,1.16-2.7,2.88-4.36,3.49s-3.78.2-5.7.2c-11.12,0-22.23,0-33.35,0-1,0-1.3-.24-1.26-1.25.09-1.84.08-3.68,0-5.52,0-1,.26-1.19,1.19-1.19,8.44,0,16.88,0,25.32,0,2,0,2,0,2-1.95,0-3.16,0-6.32,0-9.48,0-.89-.23-1.13-1.13-1.13-8.68,0-17.36,0-26,0-1,0-1.34-.16-1.33-1.27q.08-13.2,0-26.4c0-.91.18-1.21,1.16-1.2C172.28,145.23,179.48,145.21,186.68,145.21Z" transform="translate(-9.14 -35.29)"/><path class="cls-7" d="M157,178.1c-.82,2.1-1.59,4.06-2.33,6-.18.49-.54.5-.95.5-5.72,0-11.44,0-17.16,0-.94,0-.89-.49-.89-1.12,0-5,0-10.08,0-15.12,0-1.09-.31-1.36-1.34-1.31-1.64.09-3.28.07-4.92,0-.81,0-1.17.18-1.37,1-1.22,5.17-2.54,10.31-3.78,15.47-.18.74-.45,1-1.26,1-4-.05-8,0-12,0-.7,0-1.06-.15-1.26-.89-.44-1.62-1-3.21-1.49-4.8-.23-.68-.07-.88.66-.87,1.07,0,2.43.47,3.12-.21s.67-2,.93-3c.65-2.51,1.27-5,1.95-7.72-1.94,0-3.79-.06-5.64,0-1,0-1.24-.26-1.19-1.2a36.46,36.46,0,0,0,0-4.31c-.06-.95.29-1.11,1.14-1.1,5.52,0,11,0,16.56,0,.87,0,1.18-.16,1.14-1.1-.09-1.71,0-3.44,0-5.16,0-.67-.18-.91-.87-.89-1.56,0-3.12,0-4.68,0-.59,0-.81.21-1,.77-.78,2.46-.81,2.45-3.42,2.45s-5.36,0-8,0a1.06,1.06,0,0,1-1.25-.91c-.33-1.23-.75-2.44-1.19-3.64-.22-.6-.2-1,.53-.83,1.5.32,2-.47,2.32-1.76.57-2.15,1.33-4.26,1.95-6.41.18-.64.44-.9,1.14-.89q5.28,0,10.56,0c.84,0,.93.24.67,1-.34.93-.54,1.92-.87,2.86-.23.64,0,.79.57.72h.12c1.11-.07,2.53.47,3.24-.22s.17-2,.19-3.11c0-2.53,0-2.53,2.56-2.53,3.12,0,6.24,0,9.36,0,.81,0,1.14.16,1.08,1-.08,1.19.05,2.4,0,3.6-.07,1,.19,1.28,1.22,1.27,4.08-.07,8.16,0,12.24,0,1,0,1.27.3,1.22,1.27a43.83,43.83,0,0,0,0,4.44c0,.81-.24,1-1,1-4.16,0-8.32,0-12.47,0-.94,0-1.24.22-1.19,1.18.08,1.64.07,3.28,0,4.92,0,.84.2,1.06,1,1.05,5.28,0,10.56,0,15.84,0,.88,0,1.18.19,1.13,1.11-.09,1.51-.07,3,0,4.56,0,.75-.24.94-1,.93-2.4,0-4.8,0-7.2,0-.76,0-1,.18-1,1q.08,4.5,0,9c0,.76.17,1,1,1C152.1,178.06,154.49,178.1,157,178.1Z" transform="translate(-9.14 -35.29)"/><path class="cls-7" d="M55.12,153.15c1.31-2.59,2.53-5,3.73-7.43.25-.52.66-.48,1.1-.48,6.76,0,13.51,0,20.27,0,.74,0,1,.2,1,.94,0,2.8,0,5.6,0,8.4q0,19.31,0,38.63c0,1-.23,1.33-1.3,1.32-4.76-.07-9.52-.06-14.28,0-1,0-1.25-.3-1.24-1.28,0-12.91,0-25.83,0-38.75,0-1.12-.32-1.39-1.39-1.35C60.46,153.21,57.9,153.15,55.12,153.15Z" transform="translate(-9.14 -35.29)"/><path class="cls-7" d="M103.43,173.55c0,6.43,0,12.87,0,19.31,0,.8-.15,1.09-1,1.08-4.79-.05-9.59,0-14.39,0-.79,0-1-.21-1-1,0-1.64,0-3.28,0-4.92,0-.6.14-.91.79-.81a2.16,2.16,0,0,0,.36,0c2.68,0,2.68,0,2.68-2.64,0-7.8,0-15.6,0-23.39,0-.87-.17-1.18-1.11-1.16-2.73,0-2.73,0-2.73-2.71,0-1,.06-2,0-3s.16-1.17,1.1-1.16q7.14.08,14.27,0c.88,0,1,.28,1,1.08C103.42,160.67,103.43,167.11,103.43,173.55Z" transform="translate(-9.14 -35.29)"/><path class="cls-7" d="M103.63,187.25h54.58c-1.41,2.18-2.75,4.24-4.07,6.31-.35.55-.85.34-1.29.35H119.4c-3.52,0-7,0-10.55,0a1.46,1.46,0,0,1-1.44-.78C106.22,191.22,105,189.32,103.63,187.25Z" transform="translate(-9.14 -35.29)"/><path class="cls-7" d="M87.55,141.38c4,0,7.77,0,11.6,0,.62,0,.72.35.84.78.35,1.3.77,2.6,1,3.92.22,1,.66,1.55,1.76,1.31a3.62,3.62,0,0,1,.77,0c-.31,1.33-.62,2.61-.9,3.88-.11.49-.39.6-.85.6q-5.46,0-10.9,0c-.38,0-.71,0-.82-.48C89.25,148.11,88.41,144.79,87.55,141.38Z" transform="translate(-9.14 -35.29)"/><path class="cls-4" d="M164.86,176.21c1.2-.27,1.67.18,1.5,1.43a13.23,13.23,0,0,0,0,2.27c0,1.33.5,1.78,1.84,1.78,6.88,0,13.75,0,20.63,0,.47,0,1.21-.32,1.38.3a5.18,5.18,0,0,1,0,2.25c-.09.44-.71.23-1.08.23H164.52c-1.84.05-2.68.86-2.73,2.74,0,1.44,0,2.88,0,4.32,0,.75-.23,1-1,.93-.9-.05-1.8,0-2.75-.09a2.32,2.32,0,0,0,1.41-1.65c.64-1.72,1.34-3.41,2-5.13.49-1.29.32-1.64-.94-2.21A46.81,46.81,0,0,1,164.86,176.21Z" transform="translate(-9.14 -35.29)"/><path class="cls-8" d="M164.86,176.21a51.35,51.35,0,0,1-4.31,7.2h-3.28c.53-1.38,1-2.64,1.49-3.87,1-2.24-.49-3.65-2.54-3.6-.71,0-1.43,0-2.15,0-.42,0-.56-.16-.54-.56s.06-.62.51-.62c2.55,0,5.11,0,7.66-.06a.52.52,0,0,1,.45.33C162.77,176.09,163.79,176.19,164.86,176.21Z" transform="translate(-9.14 -35.29)"/><path class="cls-9" d="M62.18,178.09c-2.76,0-5.51,0-8.27,0-.91,0-1.15-.28-1.14-1.16,0-2.94,0-2.94,2.94-2.94h6.47A24.41,24.41,0,0,1,62.18,178.09Z" transform="translate(-9.14 -35.29)"/><path class="cls-10" d="M86,178.08V161.92l2.6.35a22.71,22.71,0,0,1,.11,4c0,2.51,0,5,0,7.53-.21.51-.69.49-1.1.49-.82,0-1.06.43-1.07,1.19a5.91,5.91,0,0,1-.19,2.44A.26.26,0,0,1,86,178.08Z" transform="translate(-9.14 -35.29)"/><path class="cls-11" d="M86,178.08h.2a1.42,1.42,0,0,1,.63-.3c1.41-.29,1.39-.29,1.42-1.79,0-.65-.15-1.34.31-1.93,0-3.93,0-7.86,0-11.79.37.32.18.75.18,1.12,0,6.8,0,13.59,0,20.39,0,.94-.14,1.41-1.21,1.28a6.93,6.93,0,0,0-1.6.23Z" transform="translate(-9.14 -35.29)"/><path class="cls-12" d="M133.6,180.12v4.31c0,.22.17.56-.16.58a25,25,0,0,1-2.87,0c-.37,0-.14-.36-.09-.56.74-3.05,1.5-6.1,2.24-9.15.07-.31.17-.55.53-.49s.34.38.34.66v4.66Z" transform="translate(-9.14 -35.29)"/><path class="cls-13" d="M108.28,174c0-1.36,0-2.72-.06-4.07,0-.9.59-.72,1-.67s1.32-.4,1.32.66c0,1.28,0,2.56,0,3.84A1.73,1.73,0,0,1,108.28,174Z" transform="translate(-9.14 -35.29)"/><path class="cls-14" d="M108.28,174a6.73,6.73,0,0,0,2.32-.24,1.59,1.59,0,0,1-.07,2c-.42.47-1.28.14-2,.16-.34,0-.35-.24-.35-.49C108.25,175,108.26,174.49,108.28,174Z" transform="translate(-9.14 -35.29)"/><path class="cls-9" d="M183,56.35q15.42,0,30.84,0c1,0,1.35.18,1.33,1.28-.06,5.8,0,11.6-.05,17.4,0,.88.19,1.15,1.11,1.13,2.68,0,2.68,0,2.68,2.62,0,2,0,3.92,0,5.88,0,.69-.1,1-.9,1s-2.09-.41-2.66.15-.19,1.82-.2,2.76c0,2.16,0,4.32,0,6.48,0,.73.2,1,.95,1,.9,0,2.1-.41,2.64.16s.16,1.83.18,2.77c0,1.48,0,3,0,4.44,0,.59-.1.93-.77.82h-.12c-.94.08-2.24-.43-2.74.22s-.14,1.84-.14,2.8c0,1.6,0,3.2,0,4.8,0,.6-.15.82-.8.82q-13.56,0-27.11,0a.87.87,0,0,1-.95-.67c-.66-1.67-1.3-3.35-2-5-.38-.82-.3-1.06.67-1,4,0,8.08,0,12.12,0,.68,0,1.16.06,1.18-.94s-.46-1-1.21-1q-22.5,0-45,0c-1.05,0-1.33-.23-1.31-1.3.06-5.4,0-10.8,0-16.2,0-.92-.25-1.12-1.13-1.11-2.69,0-2.69,0-2.69-2.64,0-2,0-3.92,0-5.88,0-.7.15-1,.93-1s2.15.32,2.65-.15c.66-.61.21-1.88.21-2.86,0-5.16.05-10.32,0-15.48,0-1.1.32-1.29,1.33-1.28Q167.55,56.38,183,56.35Z" transform="translate(-9.14 -35.29)"/><path class="cls-9" d="M147.77,53.27c2.71-4.68,5.31-9.17,7.89-13.66a1,1,0,0,1,.93-.59l17.88,0c.06,0,.13.07.28.16-1,1.77-1.92,3.53-3,5.44h1.55q21.78,0,43.55,0c1.07,0,1.34.26,1.3,1.3-.1,2-.09,4.09,0,6.12,0,1-.18,1.27-1.21,1.26-6,0-12.08,0-18.12,0H147.77Z" transform="translate(-9.14 -35.29)"/><path class="cls-9" d="M145.82,82.89q-1.56,8-3.14,16.07c-.84,4.3-1.71,8.6-2.51,12.91-.15.79-.42,1-1.22,1-5,0-10,0-15,0a1.12,1.12,0,0,1-1.29-.88c-.75-2.35-1.54-4.69-2.39-7-.33-.92,0-1.08.79-1s1.61,0,2.4,0,1.08-.2,1.22-1c1.14-6.24,2.36-12.46,3.47-18.7.21-1.24.6-1.66,1.93-1.63,4.79.1,9.59,0,14.38,0A2.66,2.66,0,0,1,145.82,82.89Z" transform="translate(-9.14 -35.29)"/><path class="cls-15" d="M146,71.05c-1.15,2.15-2.21,4.1-3.24,6.06-.21.4-.52.41-.89.41-4.55,0-9.11,0-13.66,0a.86.86,0,0,1-1-.66q-2.74-7.66-5.53-15.29c-.26-.71-.09-.86.63-.85,5.23,0,10.47,0,15.7,0a1.08,1.08,0,0,1,1.18.87c1,2.75,2.08,5.48,3,8.25.32,1,.74,1.35,1.74,1.22A18.94,18.94,0,0,1,146,71.05Z" transform="translate(-9.14 -35.29)"/><path class="cls-9" d="M130.2,39c2.55,0,5.11,0,7.66,0a1.19,1.19,0,0,1,1.35,1c.93,2.67,2,5.3,2.89,8a1.71,1.71,0,0,0,2,1.38c1.73-.1,1.74,0,.93,1.5-.73,1.37-1.49,2.73-2.18,4.12a1.3,1.3,0,0,1-1.36.86q-6.54,0-13.06,0a1.13,1.13,0,0,1-1.29-.88Q124.54,47.46,121.8,40c-.31-.85-.09-1,.73-1C125.08,39.05,127.64,39,130.2,39Z" transform="translate(-9.14 -35.29)"/><path class="cls-4" d="M146,55.82c.54.39,1.53,0,1.62.76a4.74,4.74,0,0,1-.22,3c-.28.49-.54.92.06,1.33.28.2.23.5.23.77V68.5c-.9-.19-1.73-.37-2.56-.52-.4-.08-.47-.4-.57-.68-.47-1.23-.91-2.47-1.38-3.7a1.63,1.63,0,0,1,.16-1.47c.81-1.51,1.6-3,2.41-4.54A1.86,1.86,0,0,0,146,55.82Z" transform="translate(-9.14 -35.29)"/><path class="cls-9" d="M107.13,64.64c-.39.43-.91.22-1.36.22q-20.44,0-40.9,0c-1,0-1.28.19-1.28,1.22q.06,17.93,0,35.87c0,1,.27,1.23,1.26,1.23,15.19,0,30.39,0,45.58,0,1,0,1.4.17,1.35,1.28-.1,2.2-.06,4.4,0,6.6,0,.76-.16,1.15-1,1a4.31,4.31,0,0,0-.72,0H46.35l-1.44,0a1.45,1.45,0,0,1-.4-1.2q0-3.22,0-6.45a1.39,1.39,0,0,1,.42-1.2c.68,0,.42-.56.43-.89,0-1.48,0-3,0-4.44q0-29,0-58c0-1.05.2-1.4,1.34-1.38,5.27.07,10.55,0,15.83,0,.89,0,1.13.2,1.12,1.11,0,4.83,0,9.67,0,14.51,0,.41-.22.88.21,1.23a2,2,0,0,1,.38,1.58c0,1.92,0,3.83,0,5.75,0,1.47.11,1.58,1.56,1.59,3.68,0,7.35,0,11,0H105C105.72,64.18,106.52,64,107.13,64.64Z" transform="translate(-9.14 -35.29)"/><path class="cls-16" d="M107.13,64.64c-.52,0-1-.08-1.55-.08q-20.22,0-40.43,0c-1,0-1.38-.2-1.34-1.3.09-2.67,0-5.35,0-8,.36,0,.72,0,1.07,0q20.58,0,41.14,0c1,0,1.29.22,1.26,1.23-.08,2.4,0,4.8,0,7.2C107.27,64,107.41,64.33,107.13,64.64Z" transform="translate(-9.14 -35.29)"/><path class="cls-15" d="M44.93,103.15c0,2.95,0,5.9,0,8.85-.4,0-.79.08-1.19.08-10.08,0-20.16,0-30.24,0-1.11,0-1.29-.33-1.26-1.33.07-2.32,0-4.64,0-7,0-.53,0-.88.73-.88,10.52,0,21,0,31.56,0C44.65,103,44.79,103.09,44.93,103.15Z" transform="translate(-9.14 -35.29)"/><path class="cls-7" d="M21.76,153.15c1.3-2.58,2.51-5,3.69-7.35a.9.9,0,0,1,.93-.56c6.88,0,13.76,0,20.64,0,.93,0,.77.56.77,1.1v18.83c0,9.32,0,18.64,0,28,0,1-.17,1.43-1.33,1.41-4.72-.08-9.44-.06-14.16,0-1,0-1.33-.24-1.33-1.31,0-12.88,0-25.75.06-38.63,0-1.14-.25-1.5-1.43-1.45C27.07,153.22,24.51,153.15,21.76,153.15Z" transform="translate(-9.14 -35.29)"/><path class="cls-17" d="M88.52,174.06a25.35,25.35,0,0,0,0,2.62c.13,1.17-.32,1.59-1.46,1.41a7.51,7.51,0,0,0-1,0c0-.92.06-1.84,0-2.75s.25-1.5,1.32-1.33C87.8,174.05,88.16,174,88.52,174.06Z" transform="translate(-9.14 -35.29)"/><path class="cls-1" d="M183,76.12c-4.35,0-8.71,0-13.06,0-.92,0-1.12-.26-1.1-1.13.05-3,0-6,0-9,0-.84.13-1.18,1.09-1.17q13.13.06,26.24,0c.73,0,1.06.11,1,1,0,3.12,0,6.23,0,9.35,0,.85-.31,1-1,1C191.8,76.1,187.4,76.12,183,76.12Z" transform="translate(-9.14 -35.29)"/><path class="cls-1" d="M183.05,96c-4.36,0-8.72,0-13.08,0-.91,0-1.14-.25-1.12-1.14q.08-4.08,0-8.16c0-.8.16-1.09,1-1.08q13.14,0,26.28,0c.83,0,1.08.22,1.07,1.07,0,2.75-.06,5.51,0,8.27,0,.89-.31,1-1.1,1C191.77,95.93,187.41,96,183.05,96Z" transform="translate(-9.14 -35.29)"/><path class="cls-16" d="M193.31,74.62h-6c-3.76,0-7.51,0-11.27,0a1.28,1.28,0,0,1-1.41-.93c-.88-2.2-1.85-4.37-2.83-6.53-.33-.73-.26-1,.6-1,5.48,0,11,0,16.44,0,.42,0,.79-.06,1,.53C191,69.32,192.1,71.85,193.31,74.62Z" transform="translate(-9.14 -35.29)"/><path class="cls-9" d="M186,94.71c-2.67,0-5.35,0-8,0a1.17,1.17,0,0,1-1.32-.87c-.87-2.19-1.79-4.35-2.72-6.51-.27-.62-.21-.84.52-.83h16.41a.9.9,0,0,1,1,.65q1.4,3.36,2.89,6.69c.34.74.13.87-.59.87C191.4,94.69,188.69,94.71,186,94.71Z" transform="translate(-9.14 -35.29)"/></svg>