<svg id="圖層_1" data-name="圖層 1" xmlns="http://www.w3.org/2000/svg" viewBox="0 0 226.27 226.4"><defs><style>.cls-1{fill:#199698;}.cls-2{fill:#fefefe;}.cls-3{fill:#dce9a1;}.cls-4{fill:#c1f0ec;}.cls-5{fill:#d6ed7c;}.cls-6{fill:#dbe9a1;}.cls-7{fill:#bfdda0;}.cls-8{fill:#b6d99f;}.cls-9{fill:#d6e6a1;}.cls-10{fill:#d7e7a1;}.cls-11{fill:#c9e1a1;}.cls-12{fill:#7ec19d;}</style></defs><title>29</title><path class="cls-1" d="M205.49,53.88c5.9,7.71,13,14,19.56,20.93C230,80,235,85,239.91,90.14a4.49,4.49,0,0,1,1.17,4.71Q236,112.9,231,131,221,167.13,210.9,203.29a4.19,4.19,0,0,1-3.31,3.2q-45.65,11.7-91.27,23.46c-5.72,1.47-11.45,2.93-17.16,4.44a4.44,4.44,0,0,1-4.66-1.29q-7.57-7.78-15.16-15.55T64.47,202.22c-5.93-6.11-11.89-12.2-17.8-18.33a1.16,1.16,0,0,0-1.53-.3,15.2,15.2,0,0,1-19.76-7.76,14.92,14.92,0,0,1,0-12.55,1.24,1.24,0,0,0-.32-1.64c-2.84-2.87-5.62-5.8-8.46-8.67a4.7,4.7,0,0,1-1.36-5c3.13-11.11,6.18-22.23,9.28-33.35Q35,77,45.54,39.32a3.76,3.76,0,0,1,2.91-2.84c3.68-.94,7.34-1.91,11-2.83.61-.15.94-.35,1.09-1,1.18-5,4-6.05,7.82-6.41a12.08,12.08,0,0,1,8.83,2.29,1.56,1.56,0,0,0,1.57.16l32.47-8.35q22.32-5.73,44.65-11.46c1-.26,1.9-.91,3.11-.59a6.47,6.47,0,0,1,3.13,1.83q12,12.42,24.06,24.8a2.09,2.09,0,0,0,1.68.67c5.68,0,11.36.11,17,0,4.65-.13,7.74,2.3,8.6,6.88.57,3.05-.32,8.31-3.73,10.19A18.87,18.87,0,0,1,205.49,53.88Z" transform="translate(-15.04 -8.19)"/><path class="cls-2" d="M159.22,55h38.05a12.29,12.29,0,0,1,1.92.09c3.56.55,5.33,2.53,5.76,6.44.51,4.63.14,9.27.24,13.9,0,1.86,0,1.84,1.82,1.93,2,.11,3.83.59,4.74,2.63a6.19,6.19,0,0,1-.54,6.28,4.19,4.19,0,0,1-3.69,1.62c-.87,0-2-.37-2.56.15s-.23,1.66-.29,2.53c-.18,2.43-.27,4.87-.5,7.3-.09,1,.27,1.17,1.12,1.11a13.38,13.38,0,0,1,2.28,0c3,.31,4.56,2.11,4.49,5.14-.07,3.32-1.89,5.18-5.22,5.3a24.86,24.86,0,0,1-3,0c-.83-.06-1,.27-1,1a20.57,20.57,0,0,1-.7,4.61c-1.25,4.94-3.4,6.75-8.47,7.08A53.29,53.29,0,0,1,180.41,121c-3-.57-4.88-3-3.52-6.37.22-.55.47-1.1.73-1.64a2.69,2.69,0,0,1,2.67-1.65c2.33,0,4.61.42,6.92.62.92.08,1.84.11,2.76.13a1,1,0,0,0,1.14-.83c.46-1.62.33-1.83-1.35-1.83H156.52a11.78,11.78,0,0,1-3.44-.4,5.53,5.53,0,0,1-4.3-5.28,19.9,19.9,0,0,1,.88-6.5c.64-2.6,1.09-5.23,1.52-7.88.16-1,0-1.4-1.15-1.37a5,5,0,0,1-5-2.42l-2,7.08c-2.45,8.53-5.16,17-9.39,24.82-.47.88-.95,1.75-1.47,2.61a5,5,0,0,1-5.73,2.45,7.67,7.67,0,0,1-2.83-1.26c-2.42-1.76-3.06-3.82-1.66-6.48,5.76-11,9.18-22.78,12.48-34.63.57-2,1.2-2.67,3.34-2.73,2.57-.07,5.17,0,7.06,2.26,1.16-2.06,3.07-2.27,5.1-2.25,2.79,0,2.76,0,3-2.76.25-3.55.78-7.08.72-10.64-.1,0-.21-.07-.24,0-3.17,3.17-8.21.16-9.46-3.08a3.56,3.56,0,0,1,0-2.12,7.53,7.53,0,0,1,1.18-2.74c4.92-6.92,8.31-14.65,11.86-22.29.84-1.79,1.83-3.41,4.08-3.26,2.86.19,5.47,1,6.87,3.83a3,3,0,0,1-.21,2.66c-.38.74-.8,1.46-1.22,2.21a2.09,2.09,0,0,0,1.31.15h37.92a3.75,3.75,0,0,1,4,3.16,8.22,8.22,0,0,1-.09,4.15,3.93,3.93,0,0,1-4.17,3.22H188c-8.32,0-16.64,0-25,0a1.49,1.49,0,0,0-1.59.91C160.83,52.16,160.05,53.45,159.22,55Z" transform="translate(-15.04 -8.19)"/><path class="cls-3" d="M145.23,99.64a14.51,14.51,0,0,0,.2,6.52,8.57,8.57,0,0,0,5.53,6.15,15.93,15.93,0,0,0,5.4,1c5.32,0,10.64,0,16,0,.44,0,1.17-.25.83.73-2,5.83,2.36,10.31,7.48,10.92A96.12,96.12,0,0,0,191.47,126a23.91,23.91,0,0,0,7.19-1.13c3.8-1.17,5.66-4.1,6.74-7.66a21.14,21.14,0,0,0,.71-3c.11-.67.36-.9,1-1a11.92,11.92,0,0,0,4.79-1.39c3.23-1.94,4.28-6.4,3.72-9.49a8.09,8.09,0,0,0-3.87-6A10.12,10.12,0,0,0,209,95.4c-.58-.14-.89-.29-.76-1s-.11-1.91.29-2.58,1.6-.51,2.42-.78a6.74,6.74,0,0,0,3.51-2.76,10.23,10.23,0,0,0-.24-11.58A6.89,6.89,0,0,0,209.91,74c-.69-.13-.9-.41-.89-1.11,0-2.55,0-5.11,0-7.67.45-.16.59.22.78.42a63.7,63.7,0,0,1,18.43,35.71c3.07,19.09-1.28,36.4-13,51.8a62.78,62.78,0,0,1-10.42,10.57c-.57.45-1,.53-1.55,0a6.39,6.39,0,0,0-4.16-1.26q-24.9,0-49.8,0a7.5,7.5,0,0,0-6.67,3.34c-.32.5-.61.7-1.08.21a1,1,0,0,0-.39-.28c-1.82-.48-1.72-1.85-1.7-3.32.06-4.24,0-8.48,0-12.72a9.34,9.34,0,0,0-1.18-4.94c-1.62-2.69-4.31-3.25-7.13-3.42-1.79-.1-3.6,0-5.4,0-.77,0-1.13-.18-1.24-1-.59-4.58-4.3-6.34-7.65-6.59-3.67-.28-6.77,2-8,5.77-.4-.26-.47-.72-.63-1.1a68.92,68.92,0,0,1-4-13c-.2-1-.18-1.46,1.1-1.41,2.75.11,5.51,0,8.27,0a8.57,8.57,0,0,0,5.25-1.32c.45-.31.67-.12,1,.21a10.75,10.75,0,0,0,7.06,3.46,8.07,8.07,0,0,0,7.79-3.3,63.6,63.6,0,0,0,7.19-14.58c1.13-3,2.1-6.11,3.15-9.17C145.21,99.33,145.34,99.38,145.23,99.64Z" transform="translate(-15.04 -8.19)"/><path class="cls-4" d="M96.36,229.52,85.23,218.07q-17.64-18.15-35.29-36.29c-.5-.52-.64-.76,0-1.37a15.19,15.19,0,0,0-4.5-24.72c-6-2.62-11.66-1.53-16.6,2.79-.71.62-1,.53-1.59-.08-2.62-2.76-5.28-5.47-7.93-8.19a1.09,1.09,0,0,1-.4-1.23q4-14.29,8-28.6c0-.07.08-.12.18-.26a15.05,15.05,0,0,0,2,2.18A8,8,0,0,0,34.45,124q32.16,0,64.31,0c1.11,0,1.43.32,1.65,1.41a70,70,0,0,0,4.94,15.94c-1.66.36-3.34.41-4.63,1.54-.09.08-.24.12-.29.21-1,1.83-2.49.93-3.87.78-.66-.07-.56-.55-.56-1a12.5,12.5,0,0,0-.42-4,6.43,6.43,0,0,0-4.46-4.45,8.71,8.71,0,0,0-7.69.92c-2.15,1.39-2.93,3.6-3,6.08,0,.91.29,2-.11,2.71s-1.57.13-2.41.26c-4.41.69-6.07,3.28-5.95,7.64a97.75,97.75,0,0,1-1.25,17.67c-.51,3.23.06,6.19,3,8.14A6.77,6.77,0,0,0,79.28,179c1-.26,1.14,0,1.14.89,0,6.6,0,13.2,0,19.8,0,5.73,4.65,8.54,9.63,7.6a7.36,7.36,0,0,0,4.67-2.66c.34-.42.55-.28.86,0a8.06,8.06,0,0,0,6.45,2.27c1-.09.34.6.27.88-1.11,4.16-2.25,8.32-3.38,12.48C98.07,223.24,97.25,226.27,96.36,229.52Z" transform="translate(-15.04 -8.19)"/><path class="cls-2" d="M74.2,120.18q-20,0-39.95,0a4.47,4.47,0,0,1-3.48-1.53c-2.25-2.4-2.22-6.72,0-8.84a4.16,4.16,0,0,1,3.05-1.12c9.64,0,19.28,0,28.91,0,1.09,0,1.37-.27,1.37-1.37q0-36.22,0-72.46a5.77,5.77,0,0,1,.41-2.46,3.56,3.56,0,0,1,2.72-2.26,10.89,10.89,0,0,1,6.24.47,4.2,4.2,0,0,1,2.87,4.25c-.06,5.28,0,10.56,0,15.84,0,.92.26,1.1,1.13,1.1q16,0,32,0A4.2,4.2,0,0,1,114,55.55a9.93,9.93,0,0,1,0,4.63,3.94,3.94,0,0,1-4.21,3.18c-10.71,0-21.43,0-32.15,0-1.1,0-1.36.29-1.36,1.37q.06,21.36,0,42.71c0,1.15.36,1.33,1.39,1.33,12,0,24,.09,36-.08,4-.06,5.61,2.88,5.51,5.85-.05,1.69-.31,3.36-1.75,4.56a4.5,4.5,0,0,1-3,1.18q-20.08,0-40.19,0Z" transform="translate(-15.04 -8.19)"/><path class="cls-2" d="M110.42,177.36H102a3.35,3.35,0,0,1-3.56-2.42c-1.19-3,.4-5.83,3.56-6,3-.2,6-.13,9-.09,1,0,1.3-.27,1.37-1.25.32-4.27.19-8.56.43-12.83,0-.73-.16-1-.92-1-2.12,0-4.24,0-6.36,0-3.13,0-4.71-1.9-4.16-5a3.88,3.88,0,0,1,4.06-3.47c2.08,0,4.16,0,6.24.11.74,0,1-.19.93-.94-.07-1,0-2,0-3a4,4,0,0,1,4.78-3.84,4,4,0,0,1,3.6,4.11,11.92,11.92,0,0,1-.06,2.39c-.18,1,.22,1.12,1.07,1.1,3,0,6,0,9,0a8.14,8.14,0,0,1,1.91.18,3.14,3.14,0,0,1,2.77,3.25c.09,2.4.05,4.8.06,7.2,0,3.84,0,7.68,0,11.52,0,.86.17,1.27,1.11,1.15a3.12,3.12,0,0,1,3.59,2.15c.74,1.88.85,3.77-.49,5.45a3.64,3.64,0,0,1-3.06,1.09H124.18a1.82,1.82,0,0,0,.08.43,65.93,65.93,0,0,0,14.63,18.09,3.92,3.92,0,0,1,.94,5.32,4.18,4.18,0,0,1-5.3,2,9.44,9.44,0,0,1-3.53-2.63,81.12,81.12,0,0,1-12.11-16.63l-.92-1.66a5,5,0,0,0-.31.51c-2.84,7.76-8,13.89-13.9,19.41a3.54,3.54,0,0,1-4.13.67,4.8,4.8,0,0,1-3.11-4.07,3.35,3.35,0,0,1,1.29-2.48,80.16,80.16,0,0,0,7.59-9A33.54,33.54,0,0,0,110.42,177.36Z" transform="translate(-15.04 -8.19)"/><path class="cls-4" d="M155.33,12.87c-2.66,9.77-5.26,19.31-7.91,29.07a36.22,36.22,0,0,0-5.39-5.1,81.64,81.64,0,0,0-9.31-6.34c-7.17-4.2-13.27.18-15,6.51-.79,3,.69,7,3.33,8.39a39.52,39.52,0,0,1,6.28,4.6c.26.22.63.36.69.81-4.62-.47-7.57,2-10,5.81a19.11,19.11,0,0,1-.59-2.47c-.26-3.29-4.18-6.15-7.81-6.15-9.4,0-18.8,0-28.2,0-1,0-1.36-.18-1.34-1.29.08-3.84,0-7.68,0-11.52a9.51,9.51,0,0,0,0-1.07C80,32.28,80,32.27,81.7,31.82l64.82-16.69Z" transform="translate(-15.04 -8.19)"/><path class="cls-4" d="M60.27,71.14q0,16.26,0,32.51c0,1-.25,1.26-1.25,1.25-8.28,0-16.55,0-24.83,0a6.28,6.28,0,0,0-2,.19c-.79.26-1.15.21-.84-.84,1.24-4.25,2.39-8.53,3.58-12.79q7-25.14,14-50.29a1.5,1.5,0,0,1,1.2-1.25c3-.74,6.05-1.48,9.05-2.32,1-.28,1.12.06,1.12.93Q60.25,54.83,60.27,71.14Z" transform="translate(-15.04 -8.19)"/><path class="cls-4" d="M100.35,230.2c.79-2.93,1.53-5.69,2.28-8.44q2.31-8.5,4.62-17a3.12,3.12,0,0,1,.86-1.53,59.25,59.25,0,0,0,9.72-12.14c.57-.95.79-.33,1.09.13a83.47,83.47,0,0,0,9.39,12,11.6,11.6,0,0,0,5.89,3.71,7.7,7.7,0,0,0,7-1.57,1.32,1.32,0,0,1,1.56-.31,8.44,8.44,0,0,0,3.28.58q23.76,0,47.52,0h1.4l0,.25Z" transform="translate(-15.04 -8.19)"/><path class="cls-4" d="M221.33,151.73c-3.88,13.92-7.74,27.77-11.65,41.82-1.91-3.35-4.93-4-8.21-4q-28,0-56,0a7.42,7.42,0,0,0-4.71,1.5.89.89,0,0,1-1.41,0,64.89,64.89,0,0,1-8.53-10c.82,0,1.47,0,2.11,0,2.19-.08,4.39.22,6.56-.38a6,6,0,0,0,3.57-2.44,1.35,1.35,0,0,1,1.88-.57,63.41,63.41,0,0,0,37.95,1.3,10.89,10.89,0,0,1,2.83-.37c4.68,0,9.36.06,14,0,2.63,0,4.89-1,6-3.55a8.8,8.8,0,0,0,.7-5.84,2.23,2.23,0,0,1,.93-2.69,64.1,64.1,0,0,0,13.06-14c.16-.23.32-.45.5-.67C221,151.79,221.12,151.79,221.33,151.73Z" transform="translate(-15.04 -8.19)"/><path class="cls-4" d="M116.84,63.29c1,1.22.53,2-.28,2.92a68.82,68.82,0,0,0-16.4,34.36,31,31,0,0,0-.51,3.44c-.05.77-.38.88-1,.88-5.8,0-11.6,0-17.4,0-.83,0-1.07-.21-1.07-1.06q0-17.82,0-35.63c0-.9.32-1,1.11-1,8.87,0,17.75,0,26.63,0C111.47,67.25,114.76,66.79,116.84,63.29Z" transform="translate(-15.04 -8.19)"/><path class="cls-3" d="M121,108.05c-2.2-2.66-5-3.28-8.07-3.19-2.84.08-5.68,0-8.52,0-.91,0-1-.3-.94-1.11a66.14,66.14,0,0,1,16.06-35.24c.57-.66.9-.78,1.67-.15,3.35,2.73,6.4,5.79,9.65,8.62a.78.78,0,0,1,.32.91C128.34,88.08,125.45,98.21,121,108.05Z" transform="translate(-15.04 -8.19)"/><path class="cls-2" d="M174.1,193.44h28.31c1.44,0,2.88.15,3.63,1.58a5.16,5.16,0,0,1,0,5.27,3.58,3.58,0,0,1-3.25,1.47c-1.4,0-2.8,0-4.2,0q-26.33,0-52.66,0c-1.67,0-3-.55-3.61-2a5.23,5.23,0,0,1,.24-5.16,3.26,3.26,0,0,1,2.88-1.19H174.1Z" transform="translate(-15.04 -8.19)"/><path class="cls-2" d="M92.16,171.12c0,9.8,0,19.6,0,29.4a2.7,2.7,0,0,1-1.54,2.6c-2,1.16-5,.46-6-1.4a3.82,3.82,0,0,1-.38-1.85q0-29.16,0-58.31c0-2.48,1.4-3.78,4.06-3.78s3.86,1.32,3.86,3.83Z" transform="translate(-15.04 -8.19)"/><path class="cls-2" d="M174.42,174.72H149.36c-2.71,0-4.17-1.6-4.16-4.57,0-2.39,1.52-3.8,4.1-3.8h49.77a3.56,3.56,0,0,1,3.72,3.42,11.78,11.78,0,0,1,0,1.68c-.13,2.38-1.08,3.27-3.46,3.27Z" transform="translate(-15.04 -8.19)"/><path class="cls-5" d="M39.24,181a11.4,11.4,0,1,1,11.4-11.34A11.41,11.41,0,0,1,39.24,181Z" transform="translate(-15.04 -8.19)"/><path class="cls-2" d="M126.82,32.63a6.83,6.83,0,0,1,3.7,1,68.87,68.87,0,0,1,11.85,8.5,17.61,17.61,0,0,1,2.16,2.4c2.37,3.28,0,8.86-4,9.44a3.61,3.61,0,0,1-2.09-.31,17,17,0,0,1-4.15-2.82,98,98,0,0,0-11.52-9,3.3,3.3,0,0,1-1.47-3,7.29,7.29,0,0,1,4.67-6.14A3.78,3.78,0,0,1,126.82,32.63Z" transform="translate(-15.04 -8.19)"/><path class="cls-2" d="M136.65,75.36A4.93,4.93,0,0,1,133.17,74c-3.8-3.6-7.8-7-11.74-10.42a2.76,2.76,0,0,1-.81-2.84,8.55,8.55,0,0,1,3.9-5.52,3.54,3.54,0,0,1,4.26,0,77.08,77.08,0,0,1,12.1,10.14c2.7,2.89,2.33,5.24-.56,8.19A5,5,0,0,1,136.65,75.36Z" transform="translate(-15.04 -8.19)"/><path class="cls-4" d="M181.51,35.55h-9.09c-.53,0-.51-.39-.57-.74-.65-4.17-3.42-6.33-7.21-7.43a10.79,10.79,0,0,0-4.7-.61,10.08,10.08,0,0,0-4.88,2.36c.72-2.64,1.43-5.29,2.15-7.94s1.47-5.38,2.27-8.32Z" transform="translate(-15.04 -8.19)"/><path class="cls-2" d="M82.51,156.32a100.53,100.53,0,0,1-1.43,16.15,3.25,3.25,0,0,1-3.37,2.91,3.37,3.37,0,0,1-3.37-3.25c-.16-1.86.42-3.65.62-5.47a90.27,90.27,0,0,0,.73-15.06c-.14-2.28.78-3.3,3-3.44a3.18,3.18,0,0,1,3.59,3.18C82.42,153.29,82.46,155.25,82.51,156.32Z" transform="translate(-15.04 -8.19)"/><path class="cls-2" d="M97.48,166.56a2.65,2.65,0,0,1-2.94-2.39c-.46-3-.78-6.09-1.16-9.13-.16-1.27-.38-2.53-.51-3.8-.2-2,.79-3.2,2.88-3.51,1.82-.27,3,.57,3.43,2.48a123,123,0,0,1,2,13.25C101.33,165.13,99.59,166.56,97.48,166.56Z" transform="translate(-15.04 -8.19)"/><path class="cls-4" d="M233.22,109A80.24,80.24,0,0,0,226.14,82c1.76,1.65,3.66,3.37,5.49,5.18s3.57,3.65,5.35,5.49c.32.34.67.59.49,1.21C236,98.9,234.63,104,233.22,109Z" transform="translate(-15.04 -8.19)"/><path class="cls-4" d="M96.07,178.56c2.34,2.72,5.33,2.79,8.61,2.59-2.24,4.34-5.35,7.76-8.61,11.35Z" transform="translate(-15.04 -8.19)"/><path class="cls-4" d="M108.74,161.21c0,.32,0,.64,0,1,0,3.14,0,3.14-3.21,2.79-.32,0-.67,0-.64-.49a32.56,32.56,0,0,0-.51-5.83c-.09-.79.14-1.07.94-1a25.41,25.41,0,0,0,2.76,0c.65,0,.8.2.75.84-.08.91,0,1.83,0,2.75Z" transform="translate(-15.04 -8.19)"/><path class="cls-6" d="M144.41,74.66a10.77,10.77,0,0,0,2.17-6.14c1,.19,2.44.1,2.78.82.54,1.13-.15,2.54-.15,3.85a.46.46,0,0,1-.46.46A22.3,22.3,0,0,0,144.41,74.66Z" transform="translate(-15.04 -8.19)"/><path class="cls-7" d="M138.46,57.68c.57.32,1.4-.23,1.73.53.07.17,0,.73-.23.69C139.27,58.81,138.91,58.17,138.46,57.68Z" transform="translate(-15.04 -8.19)"/><path class="cls-8" d="M145.23,99.64l-.24-.26.32-1.18A1.55,1.55,0,0,1,145.23,99.64Z" transform="translate(-15.04 -8.19)"/><path class="cls-1" d="M184.93,77.52c1.38-3,.23-5.39-1.44-7.67a36.16,36.16,0,0,1-3.24-4.64H185c2.23,0,4.47,0,6.7,0,1.28,0,2,.6,2,1.87.05,3.27,0,6.54,0,9.82,0,.35-.05.61-.5.61Z" transform="translate(-15.04 -8.19)"/><path class="cls-1" d="M168.12,98.91c-1.79,0-3.59,0-5.39,0-1,0-1.48-.36-1.29-1.44q.75-4.36,1.42-8.74c.1-.63.31-.86,1-.85,1.75.05,3.51,0,5.27,0,.48,0,.85,0,.81.69a8.79,8.79,0,0,0,1.7,5.13c.8,1.33,1.69,2.61,2.37,4,.4.82.47,1.26-.72,1.2C171.56,98.84,169.84,98.91,168.12,98.91Z" transform="translate(-15.04 -8.19)"/><path class="cls-1" d="M184,98.91a5.48,5.48,0,0,0,.39-6.49c-.7-1.25-1.44-2.48-2.19-3.71-.33-.53-.45-.83.39-.82,3.28,0,6.55,0,9.83,0,.65,0,.83.22.78.84q-.37,4.77-.71,9.56c0,.44-.17.63-.63.62Z" transform="translate(-15.04 -8.19)"/><path class="cls-1" d="M170.33,65.22c-1.49,2.37-.59,4.35.52,6.31l3.42,6h-3.76c-1.72,0-3.45-.09-5.15,0-1.2.09-1.28-.4-1.17-1.36a72.64,72.64,0,0,0,.68-9.32c0-1.09.49-1.64,1.57-1.65Z" transform="translate(-15.04 -8.19)"/><path class="cls-1" d="M174.38,151.44c-9,0-18-.05-27,0-5.52,0-8.46-4.73-7.78-9.52.64-4.5,4-6.46,7.77-6.47,18.15-.06,36.3-.1,54.44,0,5.79,0,8,4.35,7.35,9.39-.62,4.7-4,6.57-8.17,6.56Z" transform="translate(-15.04 -8.19)"/><path class="cls-1" d="M120.76,161.16c0-2.12.06-4.24,0-6.36,0-1,.33-1.29,1.29-1.22,1.15.08,2.32,0,3.48,0,1.53,0,1.92.36,1.92,1.9,0,3.44,0,6.87,0,10.31,0,2.88,0,2.88-2.93,2.88-1,0-2,0-3,0-.73,0-1-.18-.91-.95.09-1.11.06-2.23.07-3.35s0-2.16,0-3.24Z" transform="translate(-15.04 -8.19)"/><path class="cls-9" d="M187.52,69c2.33-.1,2.33-.1,2.33,2,0,.67,0,1.35,0,2,0,.22.08.52-.25.57s-.41-.19-.45-.44A11,11,0,0,0,187.52,69Z" transform="translate(-15.04 -8.19)"/><path class="cls-10" d="M167.86,95c-2.31.25-2.31.25-1.91-1.84.09-.45.17-.9.33-1.73Z" transform="translate(-15.04 -8.19)"/><path class="cls-11" d="M188.68,93.1c.08-.45-.48-.86-.1-1.33a.32.32,0,0,1,.33,0c.44.38.13.89.19,1.33a1.93,1.93,0,0,1,0,.24C188.82,93.49,188.77,93.26,188.68,93.1Z" transform="translate(-15.04 -8.19)"/><path class="cls-12" d="M188.68,93.1l.41.23a1.71,1.71,0,0,1-.12,1.11Z" transform="translate(-15.04 -8.19)"/><path class="cls-2" d="M174.36,147.6H147.48c-2.64,0-4.19-1.58-4.19-4.26s1.42-4.06,4.21-4.06h54.11c2.63,0,3.92,1.4,3.91,4.21,0,2.6-1.43,4.12-3.92,4.12Z" transform="translate(-15.04 -8.19)"/></svg>