<?xml version="1.0" encoding="utf-8"?>
<!-- Generator: Adobe Illustrator 22.1.0, SVG Export Plug-In . SVG Version: 6.00 Build 0)  -->
<svg version="1.1" id="圖層_1" xmlns="http://www.w3.org/2000/svg" xmlns:xlink="http://www.w3.org/1999/xlink" x="0px" y="0px"
	 viewBox="0 0 245.8 245.8" style="enable-background:new 0 0 245.8 245.8;" xml:space="preserve">
<style type="text/css">
	.st0{fill:#38322F;}
	.st1{fill:#F1E1A8;}
	.st2{fill:#F0E0A8;}
	.st3{fill:#F1E1AA;}
	.st4{fill:#F3ECD2;}
	.st5{fill:#FEFEFE;}
	.st6{fill:#FEFEFD;}
	.st7{fill:#FDFDFC;}
	.st8{fill:#FAFAFA;}
	.st9{fill:#EDECEA;}
	.st10{fill:#FDFBF5;}
	.st11{fill:#F6CB35;}
	.st12{fill:#FDFDFD;}
	.st13{fill:#EFE0A9;}
	.st14{fill:#FEFDFC;}
	.st15{fill:#F8F7F5;}
</style>
<g>
	<path class="st0" d="M130.6,34.8c0.7-0.7,1.4-1.4,2.1-2.1c2.5-2.5,5.7-2.5,8.2,0c1.9,1.9,3.8,3.8,5.7,5.7c0.6,0,0.9,0.9,1.4,0.7
		c0.5-0.2,0.5-0.9,0.8-1.4c0.8-1.2,2-1.8,3.4-2.1c2-0.3,4-0.4,5.9,0c4,0,7.9,0,11.9,0.1c0.7,0,0.8-0.3,0.9-0.8
		c0.2-1.6,0.8-3,2.2-3.9c1.1-0.6,2.2-0.9,3.4-0.9c3.1,0,6.2-0.1,9.2,0c2.9,0.1,5.2,1.1,5.7,4.6c0.1,0.8,0.5,1,1.2,1
		c6.2,0,12.3,0,18.5,0c2,0,3.8,0.5,4.9,2.3c0.6,1,0.8,2.2,0.8,3.3c0,3.1,0,6.2,0,9.2c0,0.5-0.1,0.9,0.6,1.1c3.2,0.6,4,3.1,4.1,5.8
		c0.1,4.4,0,8.8,0,13.2c0,0.2,0,0.4,0.1,0.6c0.5,2.7-1.2,5.1-3.1,5.6c-1.1,0.3-1.4,0.9-1.4,2c0.1,0.8,0.1,1.7-0.3,2.5
		c0,0.4,0,0.9,0,1.3c-0.1,1.1,0,2,0.9,2.8c0.9,0.8,1,2,1.3,3.1c0.2,3.3,0.1,6.6,0.1,9.8c0,0.9,0.2,1.5,0.9,2.1
		c1.6,1.4,1.9,3.3,2,5.2c0.1,4.4,0,8.8,0,13.2c0,0.9-0.2,1.7-0.5,2.6c-0.4,1.8-1.6,3-3.4,3.6c-0.9,0.3-1.9,0.3-2.8,0.3
		c-7.1,0-14.3,0-21.4,0c-1.9,0-1.9,0-1.9,1.9c0,1,0.1,1.9-0.3,2.8c-0.4,2.2-1.5,3.9-3.7,4.6c-0.7,0.2-1.5,0.3-2.2,0.3
		c-3.1,0-6.1,0-9.2,0c-0.8,0-1.6-0.1-2.3-0.3c-2.6-0.7-3.7-2.6-3.8-5.2c-0.1-0.9,0-1.8,0-2.8c0-1.3-0.1-1.4-1.4-1.4
		c-2.6,0-5.1,0-7.7,0c-3.4,0-6.7,0-10.1,0c-0.4,0-0.8,0.1-1.2,0c-1.7-0.6-2.7,0.3-3.8,1.4c-1.8,2-3.8,3.8-5.7,5.7
		c-0.5,0.5-1,1-1.6,1.2c-2.2,0.9-4.3,0.6-6.2-0.9c-1.7-1.7-3.5-3.4-5.2-5.2c-0.6-0.6-1.1-0.6-1.7,0c-1.9,1.8-3.9,3.6-5.8,5.3
		c-2.9,2.7-6.7,2.4-9.2-0.8c-1.1-1.3-2.3-2.5-3.5-3.8c-1.6-1.7-3-3.5-4.8-5c-0.7-0.8-1.3-1.7-2.2-2.5c-1.3-1.2-2.3-2.7-3.6-3.8
		c-1.4-1.4-2.6-3-4.1-4.3c-3.8-4.3-7.8-8.5-11.7-12.6c-0.3-0.4-0.7-0.7-1-1.1c-0.4-0.8-0.9-0.8-1.5-0.1c-1,1.2-2.1,2.4-3.3,3.5
		c-0.9,0.9-1.7,2-2.7,2.9c-1.6,1.6-3.1,3.4-4.8,5c-1.5,1.8-3.2,3.3-4.6,5.1c-4,4.2-7.9,8.5-11.9,12.8c-1.8,1.9-3.4,4.1-5.6,5.7
		c-2.1,1.5-6,1.1-7.2-1.2c-2-2.2-4.3-4.1-6.5-6.1c-1.2-1.1-2.4-2.4-2.1-3.9c0.5-2.4-0.5-4.8,0.2-7.1c0.3-0.9,0.9-1.6,1.5-2.3
		c2.1-2.4,4.3-4.7,6.4-7.1c0.3-0.7,0.7-1.3,1.2-1.8c3.7-3.8,7.2-7.8,10.9-11.6c0.7-0.7,1.2-1.5,1.9-2.2c-0.4-0.3-0.8-0.2-1.2-0.2
		c-4.9,0-9.8,0-14.7,0c-0.9,0-1.8-0.1-2.7-0.3c-2.9-0.7-4.4-2.5-4.5-5.4c-0.1-5.1,0.3-10.1,0.2-15.2c0.3-1.7,0.7-3.3,2.4-4.3
		c1.1-0.6,2.3-0.8,3.5-0.9c0.8-0.1,1.7-0.1,2.5-0.1c0.5-0.5,1.2-0.4,1.8-0.4c4.6,0,9.3,0,13.9,0c1,0,2,0,3,0c3.5,0,7,0,10.5,0
		c1.4,0,1.6-0.1,1.6-1.6c0-1,0-1.9,0-2.9c0-0.7-0.3-1-1-1c-1.1,0-2.2,0-3.2,0c-6.4,0-12.9,0.1-19.3,0c-1.5,0.1-2.9,0-4.4,0
		c-0.5,0-1.1,0-1.5-0.5c-3.7-0.7-4.6-3-4.7-6.1c-0.1-4.5-0.1-9,0-13.5c0-2,0.5-4,2.5-5.1c1.1-0.7,2.4-0.8,3.7-0.8
		c17.1,0,34.2,0,51.3,0c8.7,0,17.4,0,26.1,0c2.2,0,4.1,0.6,5.2,2.7c0.7,1.3,0.8,2.8,0.8,4.3c0.3,0.3,0.1,0.7,0.4,1
		c1.5-1.6,3.1-3.1,4.6-4.7C129.7,35.4,130.1,35,130.6,34.8z"/>
	<path class="st0" d="M38.4,201.6c-2.2,0.6-4.1,0.1-5.8-1.3c-0.4-0.3-0.7-0.5-1.2,0.1c-0.9,1-2.1,1.4-3.4,1.5
		c-2.3,0.2-4.6,0.3-6.9-0.1c-3.6-0.5-4.7-2.8-4.7-5.9c-0.1-7.8-0.1-15.7,0-23.5c0-1-0.3-1.5-1-2.2c-1.8-1.5-3.4-3.2-4.9-5
		c-1-1.2-1.3-2.5-1.1-4c0.1-1-0.3-1.9,0-2.9c0.3-1.1,0.8-2.2,1.7-2.9c1.6-1.5,3.1-3.1,4.8-4.5c0.4-0.3,0.4-0.7,0.4-1.2
		c0-2.8-0.1-5.6,0-8.4c0.1-2.1,0.7-3.9,2.6-5c0.9-0.5,1.9-0.7,2.8-0.8c2.6,0,5.2-0.4,7.7,0.4c1.6,0.5,2.7,1.6,3.2,3.2
		c0.4,1.5,0.4,3,0.5,4.6c1.9-0.4,3.8-0.2,5.6-0.3c0.4,0,1,0.2,0.9-0.6c0.2-0.7,0.1-1.4,0.1-2c-0.1-2.5,1.2-4.5,3.6-5.2
		c0.7-0.2,1.4-0.3,2.1-0.3c1.7,0,3.4,0,5,0c3.8,0.1,5.9,2.1,6.2,5.9c0.1,1.8,0.1,1.8,2,1.8c2.7,0,5.4-0.3,7.9,0.8
		c0.6,0.3,0.7-0.1,0.7-0.6c0-0.8,0.2-1.7,0.5-2.5c0.6-1.7,1.7-2.9,3.6-3.4c1.2-0.3,2.3-0.4,3.6-0.4c7.2,0,14.4,0,21.6,0
		c0.9,0,1.9,0,2.8,0c3.5,0,7,0,10.4,0c1.7,0,3.3-0.2,4.8-0.9c0.6-0.3,1.4-0.5,2.1-0.6c2.7-0.5,5,0.6,6.2,3c0.9,1.9,1.7,4,2.3,6
		c0.6,1.8,0.4,3.6,0.1,5.5c-0.2,1.7-1.2,3-2.7,3.7c-3.5,1.6-6.9,3.3-11,2.9c-1.5-0.1-3,0-4.4,0c-0.5,0-1,0-1,0.7
		c0,0.7,0.5,0.7,1,0.7c4.1,0,8.2,0,12.2,0c0.5,0,0.9-0.2,1.3-0.6c1.4-2,3.6-2.5,5.8-2.5c4.7,0,9.4,0,14,0c0.4,0,0.8,0,1.2,0
		c1.7,0,1.7,0,1.6-1.7c0-2.6,0-5.3,0-7.9c0.1-1.8-0.2-3.7,0.3-5.5c0.8-2.9,2.7-4.4,5.8-4.5c0.7,0,1.4,0,2,0c1.2,0,2.4,0,3.6,0
		c2.2,0.1,4,0.9,5.1,2.9c0.5,1.3,0.8,2.6,0.8,4c0,3.8,0,7.5,0,11.3c0,1.5,0.1,1.6,1.5,1.6c5.5,0,11-0.1,16.5,0.1
		c0.8,0,1.2-0.4,1.6-0.9c1.9-2.2,3.7-4.4,5.5-6.6c1.7-1.8,3.2-3.7,4.8-5.6c1.4-1.6,2.7-3.4,4.3-4.9c0.6-0.6,1.3-1.1,2.2-1.4
		c2.3-0.7,4.2-0.1,6,1.4c1,0.8,2,1.6,2.9,2.5c1.5,1.6,1.7,1.6,3.2,0c1-0.8,1.9-1.5,2.8-2.4c1.8-1.6,3.9-2.3,6.3-1.4
		c1.6,0.6,2.6,2,3.7,3.3c1.1,1.3,2.2,2.5,3,3.9c1.4,2,3,3.7,4.5,5.5c2.9,3.6,5.9,7.1,8.8,10.7c0.9,1.1,1.2,2.4,0.9,3.9
		c-0.2,0.9,0.2,1.9-0.2,2.9c-0.3,1-0.8,1.9-1.6,2.6c-1.7,1.4-3.4,2.8-5.1,4.1c-0.6,0.4-0.6,0.9-0.6,1.4c0,6.4,0,12.8,0,19.2
		c0,1.4,0,2.7-0.3,4.1c-0.7,2.9-2.2,4.3-5.2,4.3c-3.9,0.1-7.8,0.1-11.8,0c-3.3-0.1-5.3-2.3-5.3-5.7c0-2.4,0-4.8,0-7.2
		c0.1-3.5,1.3-5.5,5-6c0.6-0.1,0.8-0.2,0.8-0.8c0-1.2,0-2.4,0-3.6c0-0.6-0.2-0.7-0.8-0.7c-2.6,0-5.1,0-7.7,0c-0.7,0-0.8,0.2-0.8,0.8
		c0,2.4,0.1,4.9,0,7.3c-0.1,1.6,0,3.2-0.4,4.8c-0.3,1.2-0.9,2.2-1.9,2.9c-3.6,2.5-7.1,5-10.7,7.5c-2.5,1.7-5.6,1.2-7.4-1.3
		c-1.1-1.5-2.1-3-3.2-4.5c-0.9-1.3-1.5-2.6-1.1-4.2c0.1-0.4-0.2-0.8-0.3-1.1c-0.5-1.5,0.3-3.4,1.8-4.6c1.3-1,2.6-1.9,3.9-2.9
		c0.3-0.2,0.6-0.5,1-0.7c1.1-0.8,1.5-1.7,1.2-3c-0.1-0.5-0.4-0.6-0.8-0.7c-0.6-0.2-1.3-0.3-1.9-0.5c-1.3-0.6-2.2-1.6-2.7-2.9
		c-0.3-0.9-0.8-1-1.6-0.6c-1.4,0.8-3,1.1-4.6,1.1c-4.9,0-9.8,0-14.7,0c-1.5,0-1.6,0.1-1.6,1.6c0,3.5,0,7,0,10.5c0,0.6,0,1.3-0.3,1.9
		c0,2.4,0,4.7-0.1,7.1c-0.1,2-0.5,3.9-2.4,5.1c-0.7,0.5-1.5,0.6-2.2,0.7c-2.4,0.2-4.9,0.3-7.3,0c-3.5-0.4-4.5-2.7-4.7-5.8
		c-0.3-6.8-0.1-13.6-0.1-20.4c0-1-0.2-1.3-1.2-1.2c-3.3,0.1-6.5,0.1-9.8,0.1c-0.7,0.6-1.6,0.4-2.4,0.3c-1.1,0-2.2,0.1-3.1,0.9
		c-1.5,1.5-3.3,1.7-5.4,1.7c1.7,3.1,3.4,6.1,5,9c0.8,1.4,1.5,2.7,1.8,4.4c0.7,3.8-0.5,6.4-3.9,8.2c-1.9,1-3.6,2.3-5.8,2.8
		c-1.8,0.4-3.9-0.3-5-1.9c-1.6-2.3-2.8-4.9-4.1-7.3c-1.3-2.3-2.6-4.7-4.1-7c0,2.4,0,4.8,0,7.2c0,1.6,0,3.1-0.3,4.7
		c-0.6,3.3-2.6,4.4-5.4,4.4c-4.8,0.1-9.5,0-14.3,0c-1.9,0.1-3.6-1.1-4.3-3.1c-0.2-0.5-0.4-1.1-0.4-1.7c-0.6,1.4-1.3,2.7-2.4,3.7
		c-2.1,1.6-4.3,1.7-6.6,0.5c-0.9-0.5-1.9-0.9-2.7-1.5c-1.1-0.8-2-0.7-3,0.2c-0.7,0.6-1.5,1.2-2.4,1.6c-2.6,1.1-5.4,0.4-7-1.9
		c-2.6-3.5-5.1-7.1-7.7-10.6c-0.2-0.3-0.3-0.8-0.8-0.7c-1.1,1.4-1.9,3-3,4.5c-0.7,1.1-1.4,2.2-2,3.3c-0.8,1-1.3,2.3-2.1,3.3
		C40.5,200.6,39.8,201.6,38.4,201.6z"/>
	<path class="st1" d="M96.5,137.5c-7.6,0-15.1,0-22.7,0.1c-2.3,0-4.4,0.6-5.5,2.9c-0.7,1.4-0.8,2.9-0.7,4.6
		c-3.2-2.1-6.7-1.3-10.1-1.4c-1,0-1.3-0.2-1.3-1.3c0.1-2.2-0.3-4.2-2.3-5.6c-0.8-0.6-1.7-0.8-2.6-0.9c-2.4-0.1-4.7-0.3-7.1,0
		c-3.1,0.4-4.6,2.4-4.7,5.6c0,0.5-0.1,1-0.1,1.5c0-0.3-0.1-0.6-0.1-0.9c0.2-1-0.2-1.6-1-2.2c-3.2-2.4-3.1-4.9,0.2-7.2
		c0.9,0.5,1.6,1.3,2.7,1.5c2.2,0.6,4.1,0,5.6-1.7c5.1-5.5,10.2-11,15.4-16.5c0.3-0.3,0.6-0.6,0.9-0.9c0.9-0.1,1.3,0.7,1.9,1.1
		c1.4,1,1.3,1.1,2.6-0.1c2.3-2.1,4.7-4.1,7.4-5.6c1.2-0.7,2.6-1.3,4-1.5c1.7-0.3,3,0.4,3.8,1.9c1.3,2.4,1.2,4.9,1,7.5
		c-0.2,2.4-0.5,4.8-1.1,7.1c-0.2,0.9,0.1,1.2,0.9,1.5c2.5,0.8,5,1.7,7.4,2.9c1.9,0.9,3.7,1.9,5,3.6c0.7,0.8,1.1,1.7,1,2.8
		C97.2,136.8,97,137.2,96.5,137.5z"/>
	<path class="st1" d="M78.5,200.9c1-1.1,1.7-2.5,2.6-4.1c0.4,3,1.8,4.8,4.6,5.3c1.5,2.5,3.1,4.9,3.6,7.9c0.5,2.9-0.9,4.7-3.9,4.8
		c-3.9,0.2-7.6-0.7-11.3-1.8c-2.5-0.7-2.5-0.8-3.5,1.6c-1.4,3.3-3,6.4-5.4,9.1c-2.1,2.3-4.7,3.5-7.1,0c-1.9-2.8-2.8-6-3.7-9.1
		c-0.3-1-0.5-2.1-0.7-3.1c-0.1-0.7-0.4-0.9-1.2-0.8c-4.2,0.4-8.4,0.8-12.6-0.1c-0.8-0.2-1.5-0.5-2.2-0.9c-1.3-0.9-1.7-2.1-1.4-3.6
		c0.4-1.6,1.4-2.9,2.1-4.3c1.9-0.7,2.8-2.4,3.8-3.9c0.3-0.5,0.6-0.9,0.9-1.4c0.8-0.6,1.2-1.5,2-2c0.5-0.4,0.2-0.9,0.1-1.3
		c1-1.5,2-3.1,3-4.6c3.2,2.7,4.1,6.7,1.2,9.6c-2.1,2.1-4.3,4-6.1,6.3c-0.3,0.4-0.6,0.7-0.8,1.1c0.2,0.4,0.6,0.2,0.9,0.2
		c3.2,0,6.3-0.1,9.5-0.3c2.7-0.2,5.2,1.2,5.8,4.2c0.6,2.9,1.4,5.8,2.6,8.6c0.2,0.4,0.3,0.8,0.7,1.2c0.9-1.1,1.6-2.3,2.2-3.5
		c1-1.9,1.8-3.8,2.8-5.7c1.2-2.4,3.4-3.4,6.1-2.9c1.5,0.3,3,0.8,4.5,1.3c1.5,0.4,3,0.7,4.5,0.9c0.4,0.1,1,0.3,1.3-0.2
		c0.2-0.4-0.1-0.8-0.3-1.2c-1.1-2.1-2.5-4.1-3.9-6.1C78.9,201.6,78.5,201.3,78.5,200.9z"/>
	<path class="st1" d="M160.4,189.1c0-4.5,0-9.1-0.1-13.6c0-0.9,0.4-0.8,1-0.8c5.5,0,10.9,0,16.4,0c1.6,0,3.1-0.3,4.4-1.3
		c0.7-0.6,1.1-0.4,1.3,0.4c0.3,1.7,1.4,2.8,2.9,3.6c0.8,1.7,1.1,3.5,0.5,5.3c-1,1-2.1,1.6-3.3,2.4c-1.8,1.2-2.5,2.8-2.6,4.8
		c-3.4-1.2-6.1-3.4-8.8-5.6c-0.2-0.2-0.4-0.4-0.6-0.6c-2.1-1.7-2.1-1.7-4.2,0.2C165.2,185.9,162.9,187.6,160.4,189.1z"/>
	<path class="st1" d="M225.1,143.1c-1.4-1.4-2.6-3-3.8-4.5c-0.8-1-1.7-1.8-2.8-2.5c-0.2-2.8,1.2-5.1,3.9-6c2.5-0.8,5-1.8,7.4-3
		c0.6-0.3,1.5-0.5,1.5-1.2c0-0.6-0.9-0.8-1.5-1c-2.3-1.1-4.7-1.9-7.2-2.7c-0.5-0.2-1-0.2-1.3-0.8c0.7-4.1,0.3-8.2,0.4-12.3
		c0-2,0.2-4.1-0.4-6.1c-0.3-0.9-0.6-1.7-1.3-2.2c-0.8-0.6-0.9-1.2-0.9-2c0-3.4,0-6.9,0-10.3c0.4,0.7,0.2,1.5,0.2,2.2
		c0,2.6,0,5.3,0,7.9c0,0.4-0.1,0.9,0.7,0.8c2.9-0.2,4.2,0.9,4.6,3.8c0.6,4-0.2,7.9-0.9,11.8c0,0.3,0,0.6-0.1,0.8
		c-0.3,0.7,0,1,0.7,1.2c2.7,0.8,5.3,1.8,7.8,3c1.7,0.8,3.3,1.7,4.6,3c2,2,1.8,4.1-0.3,5.9c-2.5,2.1-5.4,3.3-8.4,4.5
		c-1.1,0.5-2.3,0.9-3.5,1.3c-0.6,0.2-0.8,0.3-0.6,1.1C224.3,138.4,224.7,140.7,225.1,143.1z"/>
	<path class="st1" d="M29.5,69.6c0,4.9,0,9.8,0,14.7c0,2,0.5,3.8,2.4,4.9c1.1,0.7,2.4,0.9,3.7,0.9c5.4,0,10.9,0,16.3,0
		c0.4,0,0.9,0,1.6,0c-5.2,5.6-10.2,10.9-15.1,16.2c-0.6-2.3-0.1-4.7,0.1-7c0.2-1.7,0.5-3.4,0.9-5c0.2-1-0.1-1.4-1-1.6
		c-2.9-0.9-5.8-1.9-8.6-3.4c-1.4-0.8-2.8-1.6-3.9-2.9c-1.3-1.7-1.3-3.2,0.2-4.8c0.7-0.8,1.5-1.5,2.4-2c0.7-0.4,0.8-0.9,0.8-1.5
		c0-2.4,0-4.8,0-7.2C29.3,70.4,29.2,70,29.5,69.6z"/>
	<path class="st1" d="M39.4,57.9c1.9,0.3,3.9,0,5.8,0.2c2.6,0.8,4.6,2.6,6.6,4.2c0.8,0.6,1.7,1,2,2.1c-5.3,0.1-10.6,0.1-15.9,0
		C37.7,62,37.9,59.8,39.4,57.9z"/>
	<path class="st1" d="M217,81.4c0-1.2,0-2.4,0-3.6c0-0.4,0-0.8,0.5-0.9c2.9-0.5,3.8-2.6,4.2-5.1c0-0.2,0-0.3,0.1-0.5
		c0.3,0.3,0.7,0.5,1,0.9c2,2,1.8,4.1-0.3,5.9C220.8,79.5,218.9,80.4,217,81.4z"/>
	<path class="st1" d="M130.6,34.8c-1.9,2.1-3.9,4.1-6,6c-0.2-0.5-0.2-1,0-1.5c0.1-2.9,1.1-4.4,3.1-4.9
		C128.7,34.2,129.6,34.6,130.6,34.8z"/>
	<path class="st2" d="M158.1,35.7c-1.7,0-3.4-0.1-5,0.1c-2.5,0.3-4.4,1.5-4.9,4.4c-0.6-0.7-1.1-1.2-1.6-1.7c2.1-1.4,4.1-3,6.5-3.9
		C155.4,33.7,156.6,34,158.1,35.7z"/>
	<path class="st3" d="M127,175.9c0.4-1,1.2-1.4,2.3-1.3c1,0.1,2.1,0.1,3.2,0.1c-0.6,1.3-2,1.9-3.5,1.6
		C128.3,176.2,127.7,176,127,175.9z"/>
	<path class="st4" d="M124.5,39.3c0,0.5,0,1,0,1.5c-0.6-0.4-0.1-1-0.2-1.5C124.4,39.4,124.5,39.4,124.5,39.3z"/>
	<path class="st1" d="M201.7,104.4c4.6,0,9.2,0,13.8,0c1,0,1.2,0.3,1.2,1.2c-0.1,2.8-0.1,5.6,0,8.4c0,1.1-0.4,1.3-1.4,1.3
		c-9.1,0-18.2,0-27.4,0c-1,0-1.4,0.2-1.3,1.3c0.1,2.4,0,4.9,0,7.3c0,0.8-0.2,1-1,1c-3,0-5.9-0.1-8.9,0c-0.9,0-1-0.4-1-1.1
		c0-2.4,0-4.9,0-7.3c0-1-0.3-1.2-1.2-1.2c-7.8,0-15.6,0-23.4,0c-1.1,0-1.3-0.3-1.3-1.3c0.1-2.7,0.1-5.4,0-8.2c0-1.1,0.2-1.4,1.4-1.4
		c7.8,0.1,15.5,0,23.3,0.1c1,0,1.4-0.2,1.3-1.2c-0.1-0.7,0-1.5,0-2.3c0-1.8,0.2-1.6-1.5-1.6c-6.6,0-13.2,0-19.8,0
		c-1.1,0-1.4-0.2-1.4-1.4c0.1-2.8,0.1-5.6,0-8.4c0-0.9,0.2-1.1,1.1-1.1c6.8,0,13.6,0,20.4,0c1,0,1.2-0.3,1.2-1.2
		c-0.1-1-0.1-2.1,0-3.1c0.1-0.9-0.2-1.2-1.2-1.2c-6.7,0-13.4,0-20.2,0.1c-1.1,0-1.4-0.3-1.4-1.4c0.1-2.8,0.1-5.6,0-8.4
		c0-0.9,0.3-1.1,1.1-1.1c6.7,0,13.4,0,20.2,0c1,0,1.6-0.2,1.4-1.3c-0.2-1.2,0.5-2.7-0.3-3.4c-0.7-0.7-2.2-0.2-3.4-0.2
		c-7,0-14,0-21,0c-1,0-1.3-0.3-1.3-1.3c0.1-2.8,0.1-5.6,0-8.4c0-1,0.3-1.2,1.3-1.2c7.8,0,15.5,0,23.3,0.1c1.1,0,1.4-0.4,1.3-1.4
		c-0.1-1.1,0.4-2.6-0.2-3.2c-0.7-0.7-2.1-0.2-3.2-0.2c-6,0-12.1,0-18.1,0c-0.9,0-1.2-0.2-1.1-1.1c0.1-2.9,0.1-5.8,0-8.6
		c0-0.9,0.2-1.1,1.1-1.1c6.8,0,13.5,0,20.3,0.1c1.1,0,1.4-0.3,1.3-1.3c-0.1-1.1,0-2.2,0-3.4c0-0.7,0.2-1,0.9-1c3,0,6.1,0,9.1,0
		c0.7,0,0.9,0.3,0.9,0.9c0,1.1,0.1,2.2,0,3.4c-0.1,1,0.2,1.4,1.3,1.4c7.6-0.1,15.1,0,22.7-0.1c1.1,0,1.3,0.3,1.3,1.3
		c-0.1,4.4,0,8.9,0,13.3c0,0.8,0.2,1.1,1.1,1.1c1-0.1,2,0,3,0c0.5,0,0.7,0.2,0.7,0.7c0,3.2,0,6.3,0,9.5c0,0.5-0.2,0.7-0.7,0.7
		c-0.8,0-1.7,0.1-2.5,0c-1.2-0.1-1.6,0.2-1.5,1.5c0.1,4.4,0,8.8,0.1,13.2c0,1-0.3,1.2-1.2,1.2c-7.6,0-15.3,0-22.9,0
		c-1,0-1.3,0.3-1.2,1.2c0.1,1,0.1,2,0,3c-0.1,1,0.2,1.3,1.3,1.3c8.2-0.1,16.5,0,24.7-0.1c1.2,0,1.6,0.2,1.5,1.5
		c-0.1,2.8-0.1,5.5,0,8.3c0,0.9-0.3,1.1-1.1,1.1c-8.4,0-16.7,0-25.1,0c-1,0-1.4,0.2-1.3,1.2c0.1,1,0.1,1.9,0,2.9c-0.1,0.8,0.3,1,1,1
		C192.4,104.4,197,104.4,201.7,104.4z"/>
	<path class="st1" d="M69.4,80.3c-0.7,0-1.1,0-1.6,0c-10.6,0-21.2,0-31.8,0c-1.7,0-1.5,0.2-1.5-1.6c0-2.7,0-5.4,0-8
		c0-1,0.2-1.3,1.3-1.3c12.3,0,24.6,0,36.8,0.1c1.2,0,1.5-0.3,1.5-1.5c-0.1-6.1-0.1-12.2,0-18.2c0-1.3-0.4-1.5-1.6-1.5
		c-10.5,0-21,0-31.6,0c-1,0-1.4-0.2-1.4-1.3c0.1-2.8,0.1-5.7,0-8.5c0-0.8,0.3-1.1,1.1-1.1c25.8,0,51.7,0,77.5,0c0.9,0,1,0.3,1,1.1
		c0,2.8-0.1,5.7,0,8.5c0,1-0.2,1.3-1.2,1.3c-10.6,0-21.2,0-31.8,0c-1,0-1.3,0.2-1.3,1.3c0.1,6.2,0.1,12.5,0,18.7
		c0,1,0.3,1.2,1.3,1.2c12.3,0,24.6,0,36.8,0c1.1,0,1.5,0.2,1.5,1.4c-0.1,2.8-0.1,5.5,0,8.3c0,1-0.3,1.3-1.3,1.3c-10.7,0-21.4,0-32,0
		c-0.4,0-0.9,0-1.4,0c0.3,0.7,0.8,1,1.1,1.5c10.8,11.6,21.6,23.2,32.4,34.8c0.8,0.8,0.6,1.1-0.1,1.8c-2.1,1.9-4.2,3.8-6.3,5.7
		c-0.6,0.6-0.9,0.6-1.6,0c-8.8-9.5-17.7-19.1-26.5-28.6c-2.8-3-5.7-6.1-8.5-9.2c-0.6-0.7-0.9-0.6-1.5,0
		c-11.6,12.5-23.3,25-34.9,37.5c-0.7,0.7-1.1,0.9-1.9,0.1c-1.9-1.9-3.9-3.6-5.8-5.4c-1.2-1.1-1.2-1.1,0-2.3
		c10.7-11.6,21.5-23.2,32.2-34.7C68.6,81.2,68.9,80.9,69.4,80.3z"/>
	<path class="st1" d="M143.5,145.4c0,2.7,0,5.5,0,8.2c-0.7,1.2-1.9,1.5-3.1,1.9c-4.8,0-9.6,0-14.4,0.1c-2.2,0-4.2,0.5-5.4,2.6
		c-0.3,0.4-0.6,0.5-1,0.5c-4.4,0-8.8,0-13.2,0c-1,0-0.9-0.5-0.9-1.1c0-0.7,0.1-1.1,1-1.1c2,0.1,4,0,6,0c1.9,0.1,3.7-0.3,5.5-1.1
		c1.7-0.7,3.5-1.1,5-2.3c1.6-1.2,1.9-2.8,2.1-4.6c0.3-3.3-1.3-6-2.3-8.9c-0.9-2.6-3.5-4.8-6.7-3.5c-4.1,1.7-8.2,1.2-12.3,1.3
		c-1.5,0-3,0-4.4,0c-0.9-1.4-0.8-3-1-4.5c-0.2-1.9-0.3-3.8-0.1-5.7c0.3-2.3,1.3-3.8,3.2-4.3c0.5-0.1,1-0.2,1.5,0.2
		c1.7,1.4,3,3.1,4.5,4.6c1.9,1.9,3.5,4.2,5.7,5.8c1.6,1.2,4.2,1.2,5.8,0c2.4-1.8,4.4-3.9,6.6-5.9c1.4-1.3,1.4-1.3,2.7,0
		c1.6,1.6,3.1,3.2,4.7,4.8c0.4,0.6,0.3,1.2,0.2,1.9c-0.2,1.6-0.4,3.2-0.8,4.7c-0.2,0.9,0.1,1.3,0.9,1.6c3.1,1,6.2,2.2,9.1,3.8
		C142.8,144.6,143.3,144.9,143.5,145.4z"/>
	<path class="st5" d="M221.3,121.5c3.1,1.1,6.2,2,9.1,3.5c0.3,0.1,0.6,0.3,0.8,0.4c0.7,0.4,0.9,0.7,0,1.2c-2.7,1.5-5.5,2.7-8.4,3.6
		c-2.6,0.8-4,2.5-4.2,5.3c0,0.2,0,0.5-0.2,0.6c-1-0.1-2-0.4-3.1-0.2c-1.9,0.4-3,1.8-4.4,2.8c-0.5,0.4-1.1,0.8-1.6,1.3
		c-1.1,0-2.3,0.4-3.4,0c-0.9-0.7-1.8-1.3-2.6-2.1c-1.8-1.8-3.8-2.5-6.3-1.8c-0.5-0.4-0.5-1-0.6-1.5c-0.4-1.8-1.6-3-3.4-3.5
		c-0.5-0.2-1.1-0.2-1.5-0.7c0.2-1.3,0.2-2.6,0.1-3.9c-0.1-1,0.2-1.3,1.2-1.3c7.6,0,15.2,0,22.8,0
		C218.7,125.1,220.5,123.9,221.3,121.5z"/>
	<path class="st1" d="M151.2,135.8c-1,0-1.9,0-2.9,0.1c-2.4,0.4-4,1.6-4.6,4c-0.9,0.6-1.8,0.3-2.7-0.2c-1.7-1-2.9-4.5-2.1-6.3
		c2.2-1.4,3.7-3.4,5.5-5.1c1.1-1.1,2.1-2.4,3.3-3.2c1.3-0.9,3,0.1,4.5,0c5.8-0.1,11.6,0,17.4-0.1c1,0,1.2,0.3,1.2,1.2
		c0,1.5-0.1,2.9,0.2,4.4c0.4,1.9,1.5,3,3.2,3.7c-0.5,0.7-0.4,1.5-0.7,2.3c-0.8,2.8-2.6,3.8-5.3,3c-1.1-0.3-2.2-0.8-3.2-1.3
		c-2.8-1.6-5.3-3.6-7.8-5.8c-0.7-0.6-1.1-0.6-1.8,0c-0.9,0.8-1.8,1.6-2.7,2.4C152.3,135.3,151.8,135.6,151.2,135.8z"/>
	<path class="st5" d="M103,123.1c-2.8,0-4.1,1.6-4.4,4.6c-0.2,3.3,0.3,6.5,0.7,9.8c-1,0-1.9,0-2.9,0c0.8-1.7,0.6-2.8-0.7-4.1
		c-2.2-2.4-5.2-3.5-8.1-4.7c-1.4-0.6-2.9-1.1-4.4-1.5c-0.7-0.2-1-0.5-0.8-1.3c0.7-3.5,1.4-7,1.2-10.6c0-1.3-0.2-2.6-0.8-3.8
		c-1-2.1-2.7-2.6-5.1-1.7c-2.9,1.1-5.3,3-7.7,4.9c-1.1,0.9-2.1,1.8-3.2,2.7c-0.5,0.5-0.7,0.3-1.2-0.1c-0.8-0.7-1.6-1.4-2.5-2.1
		c1.5-1.7,3.1-3.3,4.6-5c3-0.1,3.9-0.8,4.5-4.3c0-0.3,0.1-0.5,0.3-0.8c0.9-1,1.8-1.9,2.7-2.9c0.4-0.2,0.8,0,1.1,0.2
		c3.2,2.4,7,3.7,10.7,4.9c0.2,0.1,0.5,0.2,0.7,0.2c0.9,0.3,1.2,0.8,1,1.7c-0.5,2.4-0.9,4.9-1.1,7.3c-0.2,1.9-0.2,3.7,0.2,5.6
		c0.1,0.4,0.2,0.8,0.4,1.1c0.8,1.7,2,2.4,3.9,1.9c2.7-0.6,4.8-2.3,7-3.8c0.5-0.3,0.9-0.9,1.6-0.8C101.6,121.5,102.4,122.2,103,123.1
		z"/>
	<path class="st1" d="M113.3,58.1c1.7,0,3.4,0,5-0.1c2-0.1,3.9-0.5,5.1-2.4c0.3-0.5,0.4-0.9,0.5-1.4c2.2,2.2,4.4,4.4,6.7,6.6
		c0.7,0.7,1.3,1.4,2,2c2.5,2.5,5.6,2.5,8.1,0c1.3-1.3,2.6-2.6,4.1-3.9c-0.2,4.1,0.1,8.2,0.1,12.7c-1.5-1.5-2.7-2.7-4-4
		c-1.6-1.7-3.5-2.2-5.8-1.6c-1,0.3-1.8,0.9-2.5,1.6c-1,1-2,2.1-3.1,3.3c-0.2-1.6-0.2-2.9-0.9-4c-1.2-2.1-3.2-2.5-5.4-2.5
		c-10.6,0-21.3,0-31.9,0c-0.4,0-0.9,0.1-1.3-0.1c0.5-0.5,1.2-0.4,1.8-0.4c6.2,0,12.4,0,18.6,0c0.3,0,0.6,0,0.8,0
		c0.8,0,0.9-0.2,0.5-0.9c-0.9-1.4-0.7-2.7,0.2-4C112.4,58.6,112.8,58.3,113.3,58.1z"/>
	<path class="st1" d="M136.7,55c-0.2-0.2-0.4-0.3-0.5-0.5c-2.8-2.8-5.6-5.7-8.4-8.5c-0.4-0.4-0.4-0.7,0-1.1c2.8-2.8,5.7-5.6,8.5-8.5
		c0.5-0.5,0.7-0.5,1.2,0c2.8,2.8,5.5,5.6,8.3,8.4c0.4,0.4,0.6,0.7,0.1,1.1c-2.9,2.9-5.8,5.8-8.7,8.6C137,54.7,136.9,54.8,136.7,55z"
		/>
	<path class="st5" d="M151.2,135.8c1.5-1.3,3.1-2.6,4.6-4c0.6-0.5,0.9-0.1,1.3,0.2c2.6,2.3,5.3,4.5,8.4,6.2c1.2,0.7,2.5,1.1,3.8,1.4
		c2.2,0.4,3.9-1.4,4.2-4.2c0.1-0.5-0.1-1.1,0.7-1.1c4.7,0.6,9.4,0.5,14.1,0c1.2-0.2,2.2,0.3,3.2,0.8c0.5,0.2,0.7,0.6,0.6,1.1
		c-0.4,2.1-0.5,4.2-1.3,6.2c-1.5,1.8-2.9,3.7-4.6,5.4c-0.4-0.4-0.3-0.9-0.3-1.3c0.3-1.9,0.2-3.7-0.1-5.6c-0.1-0.8-0.5-1.6-0.9-2.3
		c-0.7-1-1.7-1.4-2.9-1.2c-1.9,0.3-3.6,1.2-5.2,2.3c-2.1,1.4-4.1,3-5.9,4.7c-0.4,0.4-0.8,0.7-1.2,1c-0.5,0.4-0.9,0.4-1.4-0.1
		c-2.6-2.3-5.3-4.4-8.2-6.2c-0.2-0.1-0.4-0.3-0.5-0.5c-1.4-2.1-3.4-2.7-5.8-2.6C153,135.9,152.1,135.8,151.2,135.8z"/>
	<path class="st1" d="M146.3,114.7c-0.2,0.2-0.3,0.3-0.5,0.5c-2.8,2.8-5.6,5.6-8.4,8.4c-0.5,0.5-0.8,0.5-1.3,0
		c-2.7-2.8-5.5-5.6-8.3-8.3c-0.5-0.5-0.5-0.7,0-1.2c2.8-2.8,5.6-5.6,8.4-8.4c0.5-0.5,0.8-0.5,1.3,0c2.7,2.8,5.5,5.6,8.3,8.3
		C146,114.2,146.2,114.3,146.3,114.7z"/>
	<path class="st1" d="M136.8,70.7c0.2,0.1,0.3,0.3,0.5,0.4c2.9,2.8,5.7,5.7,8.6,8.5c0.4,0.4,0.4,0.7,0,1.1c-2.9,2.9-5.8,5.7-8.6,8.6
		c-0.4,0.4-0.6,0.4-0.9,0c-2.9-2.9-5.7-5.8-8.6-8.6c-0.3-0.3-0.3-0.5,0-0.9c2.9-2.9,5.8-5.8,8.7-8.7C136.5,71,136.6,70.9,136.8,70.7
		z"/>
	<path class="st1" d="M100.8,120.7c-2,1.5-4,3.1-6.3,4.1c-0.7,0.3-1.4,0.6-2.1,0.8c-2.2,0.5-3.7-0.3-4.5-2.5c-0.7-2-0.7-4.2-0.5-6.3
		c0.2-2.7,0.6-5.4,1.2-8c0.2-0.8-0.3-0.8-0.7-0.9c-3-1-6-2-8.9-3.5c-1.3-0.6-2.3-1.8-3.6-2.2c1.2-1.3,2.4-2.7,3.7-4
		c0.9-0.9,1,0.4,1.4,0.6c0,0.6,0.6,0.7,0.9,1c1.1,0.7,1.8,1.8,2.7,2.7c3.1,3.3,6.1,6.6,9.2,9.9c0,1.9-0.4,3.8-0.4,5.7
		c0,0.4-0.3,1.1,0.2,1.3c0.4,0.2,0.8-0.3,1.1-0.5c1.1-0.6,2-1.6,3.1-2.1C98.4,118.1,99.6,119.4,100.8,120.7z"/>
	<path class="st1" d="M134.4,100.6c-1,0.9-2.1,1.9-3.1,2.8c-2.1,1.6-4.6,2.5-7,3.5c-0.8,0.3-1.5,0.7-2.3,0.9
		c-1.4-1.4-2.7-2.7-3.9-4.2c0.2-0.6,0.9-0.7,1.4-0.8c2.4-0.8,4.8-1.7,7.1-2.8c0.6-0.3,1.5-0.5,1.5-1.1c0-0.7-1-0.8-1.6-1.1
		c-2.5-1.2-5-2-7.6-2.9c-1.5-0.5-2.7-1.4-3.3-2.9c-0.2-0.5-0.5-1-0.1-1.6c3-0.1,6-0.1,9.1-0.2c-0.4,0.8-0.9,0.4-1.4,0.3
		c1.2,0.3,2.4,0.6,3.4,1.4c1.4,1,2.5,2.4,3.7,3.5c1.1,1.1,2.1,2.3,3.4,3.2c0.5,0.4,1,0.6,1.6,0.8C135,99.8,134.8,100.2,134.4,100.6z
		"/>
	<path class="st5" d="M113.3,58.1c-0.3,0.4-0.6,0.7-0.9,1.1c-1.1,1.5-1,2.7,0.1,4.2c0.2,0.2,0.5,0.4,0.4,1c-7.6,0-15.2,0-22.8,0
		c0-1.9-0.1-3.8-0.1-5.7c0-0.9,0.6-0.5,1-0.5c5.4,0,10.9,0,16.3,0C109.3,58,111.3,58.1,113.3,58.1z"/>
	<path class="st5" d="M115.5,90.2c0.3,2.4,1.7,3.7,4,4.4c2.9,0.9,5.7,1.9,8.3,3.3c0.4,0.2,0.9,0.4,1,0.8c0.1,0.5-0.6,0.6-0.9,0.8
		c-2.6,1.6-5.5,2.5-8.4,3.5c-0.5,0.2-1,0.4-1.4,0.6c-2.8-3-5.6-6-8.5-9c-1.3-1.4-2.6-2.8-4-4.3C109,90.2,112.2,90.2,115.5,90.2z"/>
	<path class="st5" d="M139,133.5c0,1.3,0.2,2.6,0.6,3.9c0.7,2,1.7,2.6,4.2,2.6c-0.4,1.8-0.1,3.7-0.3,5.5c-3.2-2.1-6.8-3.4-10.5-4.5
		c-1-0.3-1.3-0.7-1-1.8c0.5-2.2,0.9-4.4,1-6.7C134.8,133.9,136.8,134.2,139,133.5z"/>
	<path class="st1" d="M139,99.1c3.3-2.5,5.9-5.8,9-8.5c0.2,0.6,0.1,1.2,0.1,1.7c0,2.2,0,4.5,0,6.7c0,0.4,0.2,0.8-0.3,1.1
		c-2.3,1.2-2.8,3.3-2.9,5.8c-2.1-1.7-3.6-3.8-5.7-5.2C139.1,100.1,138.9,99.6,139,99.1z"/>
	<path class="st5" d="M53.8,64.3c-2.6-2.4-5.5-4.5-8.6-6.2c6.5,0,13,0,19.4,0c0.1,0.5-0.3,0.6-0.6,0.8c-2.4,1.4-4.5,3.2-6.5,4.9
		c-0.2,0.2-0.6,0.3-0.8,0.5C55.7,64.5,54.7,64.4,53.8,64.3z"/>
	<path class="st1" d="M56.6,64.3c1.9-2.1,4.3-3.8,6.7-5.4c0.4-0.3,0.9-0.6,1.3-0.9c1.2,0,2.5,0,3.7-0.1c0.6,0,0.8,0.2,0.8,0.8
		c0,1.6,0,3.2,0,4.8c0,0.6-0.2,0.8-0.8,0.8C64.4,64.4,60.5,64.4,56.6,64.3z"/>
	<path class="st1" d="M190.8,142.3c0.3-2,0.6-4.1,1-6.1c0.1-0.6,0-0.8-0.6-0.9c-1-0.3-2-0.6-2.9-1c1.8-0.8,2.8-2.2,3.2-4.1
		c3.7,0.7,4.9,2,5.5,5.8c-2,0.8-3,2.6-4.4,4.1C192,140.9,191.4,141.6,190.8,142.3z"/>
	<path class="st6" d="M97.3,116.8c-1.2,1.4-2.8,2.2-4.3,3.2c-0.3,0.2-0.5,0.2-0.5-0.3c0-2.5,0.1-4.9,0.8-7.3
		C94.5,113.9,95.9,115.4,97.3,116.8z"/>
	<path class="st7" d="M121.9,107.7c0.1-0.1,0.1-0.3,0.2-0.4c3.2-1,6.1-2.5,9.1-3.9c-2.2,2.2-4.3,4.3-6.4,6.5c-0.4,0.4-0.6,0.4-0.9,0
		C123.2,109.2,122.6,108.5,121.9,107.7z"/>
	<path class="st2" d="M72.7,105.1c0.1,1.2-0.2,2.4-0.7,3.4c-0.8,1.6-2.3,2.2-4.1,1.6C69.5,108.5,71.1,106.8,72.7,105.1z"/>
	<path class="st8" d="M139,99.1c0.3,0.5,0.7,0.9,0.2,1.5c-1.6-0.6-3.2-0.5-4.8,0c0.1-0.5,0.1-1.1,0.8-1.3
		C136.5,99.8,137.7,99.4,139,99.1z"/>
	<path class="st9" d="M126.5,91.7c-1.2-0.4-2.4-0.8-3.8-1.3c0.7-0.4,1.3,0.1,1.8-0.4C125.6,90.1,126,91,126.5,91.7z"/>
	<path class="st10" d="M81.4,99.9c-1.1-0.4-1.1-0.4-0.9-1C80.8,99.1,81.2,99.4,81.4,99.9z"/>
	<path class="st11" d="M93.1,142.6c6.1,0,12.2-0.1,18.2,0c2,0,3.6-0.8,5.3-1.5c0.9-0.4,1.3-0.2,1.6,0.7c0.5,1.4,1.1,2.8,1.6,4.2
		c0.2,0.6,0.2,0.9-0.5,1.1c-1.6,0.6-3.1,1.2-4.7,1.8c-0.5,0.2-1.1,0.2-1.7,0.2c-10.8,0-21.7,0-32.5,0c-1,0-1.4,0.2-1.4,1.3
		c0.1,4,0.1,7.9,0,11.9c0,0.9,0.1,1.3,1.1,1.2c4.1-0.1,8.2-0.1,12.4,0c0.9,0,1.1-0.3,1.1-1.1c-0.1-3.4,0-6.8,0-10.2
		c0-0.9,0.2-1.2,1.1-1.1c1.5,0.1,3,0.1,4.6,0c0.9,0,1.1,0.3,1,1.1c0,3.4,0,6.8,0,10.2c0,1,0.3,1.2,1.2,1.2c6.7,0,13.4,0,20.2-0.1
		c1.3,0,1.6,0.4,1.5,1.6c-0.1,1.3-0.1,2.6,0,3.8c0.1,0.9-0.2,1.2-1.2,1.2c-6.8,0-13.5,0-20.3-0.1c-1.2,0-1.4,0.3-1.4,1.5
		c0.1,7.3,0,14.6,0.1,22c0,1-0.3,1.3-1.3,1.3c-4-0.1-8.1,0-12.1,0c-0.8,0-1.1-0.2-1.1-1.1c0.1-1.6,0.1-3.1,0-4.7c0-0.8,0.3-1,1-1
		c1.9,0,3.8,0,5.8,0c0.7,0,1-0.2,1-0.9c0-5.4,0-10.7,0-16.1c0-0.9-0.4-0.9-1.1-0.9c-6.3,0-12.6,0-18.8,0c-1,0-1.3-0.2-1.3-1.2
		c0-8.4,0.1-16.8,0-25.2c0-1.1,0.4-1.3,1.4-1.3C80.4,142.6,86.8,142.6,93.1,142.6z"/>
	<path class="st11" d="M64.3,157.8c0,2.7,0,5.4,0,8.2c0,0.7,0.2,1,1,0.9c0.9,0,2.1-0.4,2.6,0.2c0.6,0.6,0.1,1.8,0.2,2.8
		c0,0.9,0,1.8,0,2.8c0.1,0.9-0.3,1.1-1.1,1.1c-3.7,0-7.4,0-11.2,0c-0.4,0-0.9-0.2-1.1,0.2c-0.2,0.4,0.3,0.6,0.5,0.9
		c3.7,5.1,7.3,10.2,11.1,15.2c0.6,0.8,0.5,1.2-0.2,1.6c-1.3,0.9-2.6,1.7-3.8,2.7c-0.8,0.6-1.2,0.3-1.6-0.3c-1.8-2.6-3.7-5.1-5.5-7.6
		c-2.1-2.9-4.2-5.8-6.3-8.7c-0.6-0.8-0.8-0.7-1.3,0c-2.7,4.2-5.3,8.4-8,12.6c-0.8,1.2-1.6,2.5-2.3,3.7c-0.4,0.6-0.7,0.7-1.4,0.3
		c-1.3-0.9-2.6-1.7-3.9-2.5c-0.9-0.5-0.8-1-0.3-1.7c2.3-3.5,4.5-7.1,6.8-10.7c1-1.6,2-3.2,3.1-4.8c0.5-0.8,0.3-1-0.6-1
		c-2.5,0-5,0-7.6,0c-1,0-1.3-0.3-1.2-1.3c0.1-1.4,0.1-2.8,0-4.2c-0.1-1.2,0.4-1.4,1.4-1.3c3.4,0.1,6.7,0,10.1,0
		c0.8,0,1.1-0.2,1.1-1.1c0-3.2,0-6.3,0-9.5c0-0.7-0.2-1-1-1c-2.9,0-5.8,0-8.6,0c-0.8,0-1-0.2-1-1c0.1-1.6,0.1-3.3,0-4.9
		c0-0.7,0.2-1,1-0.9c2.8,0,5.7,0,8.5,0c0.9,0,1.2-0.2,1.1-1.1c-0.1-2,0-3.9,0-5.9c0-0.7,0.2-0.9,0.9-0.9c1.7,0,3.4,0,5,0
		c0.6,0,0.8,0.2,0.8,0.8c0,2,0,4,0,6c0,0.9,0.3,1.1,1.1,1.1c3.6,0,7.2,0,10.8,0c0.8,0,1.1,0.2,1.1,1.1
		C64.3,152.4,64.3,155.1,64.3,157.8z"/>
	<path class="st1" d="M155.4,181c0,4.2,0,8.4,0,12.6c0,0.9-0.2,1.2-1.1,1.1c-1.5-0.1-3-0.1-4.6,0c-0.9,0-1.2-0.2-1.2-1.2
		c0-7.8,0-15.5,0-23.3c0-0.6-0.1-1.3,0-1.9c0.1-0.9-0.3-1-1.1-1c-7.1,0-14.2,0-21.2,0c-1.1,0-1.4-0.3-1.4-1.4c0.1-1.3,0-2.6,0-4
		c0-1.5,0-1.5,1.6-1.5c6.9,0,13.8,0,20.6,0c1.3,0,1.5-0.4,1.5-1.5c-0.1-5.6,0-11.3-0.1-16.9c0-1.1,0.3-1.4,1.3-1.3
		c1.5,0.1,3,0.1,4.4,0c0.9,0,1.1,0.2,1.1,1.1c0,5.8,0,11.6,0,17.4c0,0.9,0.2,1.2,1.2,1.2c7.1,0,14.2,0,21.2,0c1,0,1.4,0.2,1.3,1.2
		c-0.1,1.5-0.1,3,0,4.4c0,0.9-0.2,1.2-1.2,1.2c-7,0-13.9,0-20.9,0c-1.6,0-1.6,0-1.6,1.7C155.4,173,155.4,177,155.4,181z"/>
	<path class="st11" d="M226.8,163.9c0,2.5,0,5,0,7.6c0,7.3,0,14.6,0,22c0,0.9-0.2,1.2-1.2,1.2c-3.5-0.1-7,0-10.4,0
		c-0.7,0-1-0.1-1-0.9c0.1-1.7,0-3.4,0-5c0-0.6,0.2-0.8,0.8-0.8c1.4,0,2.8,0,4.2,0c0.6,0,0.8-0.2,0.8-0.8c0-5.3,0-10.6,0-15.8
		c0-0.6-0.2-0.8-0.8-0.8c-5.8,0-11.7,0-17.5,0c-1,0-0.9,0.5-0.9,1.1c0,4.8,0,9.7,0,14.5c0,0.8-0.3,1.2-0.9,1.7
		c-3.2,2.2-6.4,4.5-9.6,6.7c-0.5,0.3-0.8,0.5-1.2-0.2c-0.9-1.4-1.9-2.7-2.9-4c-0.5-0.6-0.3-1,0.3-1.4c2.3-1.6,4.5-3.2,6.8-4.7
		c0.5-0.4,0.8-0.7,0.8-1.3c0-3.8,0-7.6,0-11.4c0-0.7-0.2-1-0.9-0.9c-1.4,0.1-2.8,0-4.2,0c-0.7,0-0.9-0.2-0.9-0.9
		c0.1-1.8,0-3.6,0-5.4c0.1-0.7,0.7-0.4,1.1-0.4c5.6,0,11.3,0,16.9,0c6.5,0,12.9,0,19.4,0C225.9,163.8,226.4,163.7,226.8,163.9z"/>
	<path class="st11" d="M21.3,157.5c0-5.3,0-10.5,0-15.6c0-1,0.2-1.3,1.3-1.3c1.4,0.1,2.8,0.1,4.2,0c1-0.1,1.4,0.2,1.4,1.3
		c-0.1,4.6,0,9.3,0,13.9c0,0.4,0,0.9,0,1.6c0.8-0.8,1.4-1.3,2-1.9c0.4-0.4,0.7-0.5,1.2,0c1.2,1.3,2.3,2.5,3.6,3.7
		c0.5,0.5,0.5,0.9,0,1.4c-1.2,1.1-2.4,2.2-3.6,3.4c-0.4,0.4-0.7,0.5-1.2,0c-0.5-0.6-1.1-1.2-2-2c0,0.7,0,1.1,0,1.6
		c0,10,0,19.9,0,29.9c0,1-0.2,1.5-1.4,1.4c-1.4-0.1-2.8-0.1-4.2,0c-1,0.1-1.2-0.3-1.2-1.3c0-10,0-20,0-30c0-0.4,0-0.8,0-1.4
		c-0.8,0.7-1.5,1.3-2.1,1.9c-0.4,0.4-0.7,0.4-1.1,0c-1.2-1.3-2.4-2.6-3.6-3.8c-0.4-0.4-0.4-0.7,0-1c1.3-1.2,2.5-2.5,3.8-3.7
		c0.4-0.4,0.7-0.3,1.1,0.1C19.9,156.1,20.5,156.7,21.3,157.5z"/>
	<path class="st1" d="M159.6,138.5c2.2,0.8,3.9,2.4,5.7,3.7c1.1,0.9,2.2,1.8,3.3,2.8c0.5,0.4,0.7,0.3,1.1,0c2.1-1.8,4-3.6,6.3-5.2
		c1.5-1,2.9-1.9,4.6-2.5c3.1-1.1,5.2,0.2,5.7,3.5c0.4,2.3,0.1,4.6,0,6.9c-1.8,2.2-3.7,4.4-5.4,6.7c-0.8,1-1.6,1.3-2.9,1.3
		c-5.5-0.2-10.9-0.1-16.4,0c-0.9,0-1.2-0.2-1.2-1.2c0.1-3.9,0-7.8,0-11.7C160.3,141.2,160,139.8,159.6,138.5z"/>
	<path class="st5" d="M78.5,200.9c1.6,1.6,2.7,3.6,3.9,5.6c0.5,0.8,0.9,1.7,1.3,2.5c0.4,0.7,0.1,0.8-0.6,0.8c-2.1,0-4-0.5-6-1
		c-1.4-0.4-2.7-0.9-4.1-1.2c-2.5-0.6-5.1,0.7-6,2.9c-1.4,3.2-2.8,6.4-5,9.3c0,0.1-0.1,0.1-0.3,0.2c-1.2-2.1-1.8-4.3-2.5-6.5
		c-0.4-1.4-0.7-2.9-1-4.3c-0.5-2.2-3.3-4-5.5-3.6c-3.6,0.6-7.2,0.4-10.9,0.4c0.6-1.4,1.6-2.4,2.5-3.4c1.5-1.6,3.2-3.2,4.7-4.8
		c2-2,2.3-4.7,0.7-7.1c-0.5-0.8-1.1-1.6-1.7-2.3c0.4-0.9,0.7-0.1,0.8,0.1c1.5,2.1,3,4.1,4.5,6.2c1.2,1.7,2.5,3.4,3.7,5.2
		c1.7,2.3,4.9,2.9,7.3,1.2c0.8-0.6,1.6-1.1,2.4-1.8c0.5-0.4,1-0.4,1.5-0.1c1.1,0.6,2.2,1.2,3.3,1.9
		C74.1,202.4,76.3,202.4,78.5,200.9z"/>
	<path class="st11" d="M226.8,163.9c-12.4,0-24.8,0-37.2,0c-0.5,0-1-0.2-1.5,0.3c-0.8,0.3-1.2,1.1-1.7,1.7c-0.5,0.7-1,0.7-1.6,0.2
		c-1.3-1.1-2.5-2.2-3.8-3.2c-0.4-0.4-0.5-0.6-0.1-1c3.4-4,6.8-8.1,10.2-12.1c2.3-2.7,4.6-5.5,6.9-8.3c0.5-0.6,0.9-1,1.7-0.4
		c1.2,1,2.4,2.1,3.6,3.1c0.6,0.5,0.6,1,0.1,1.6c-1.8,2.1-3.6,4.3-5.4,6.5c-3.1,3.7-6.3,7.5-9.5,11.2c0.2,0.4,0.6,0.3,0.9,0.3
		c12.2,0,24.3,0,36.5,0c0.4,0,0.8,0.2,1.1-0.2c0.8,0.1,1.3,0.5,1.2,1.4C227.5,164.6,227.4,164,226.8,163.9z"/>
	<path class="st11" d="M228,164.8c-0.1-0.7-0.7-1-1.2-1.4c-1.8-1.8-3.3-3.9-5-5.8c-2.4-2.7-4.6-5.5-6.9-8.2c-1-1.3-2-2.5-3.1-3.8
		c-0.5-0.6-0.5-1,0.1-1.5c1.3-1,2.5-2.1,3.7-3.2c0.5-0.4,1-0.4,1.4,0.2c2.6,3.2,5.2,6.3,7.8,9.4c2.3,2.8,4.7,5.5,7,8.3
		c0.8,1,1.6,2,2.5,2.9c0.3,0.4,0.3,0.6-0.1,0.9c-1.2,1-2.4,2-3.6,3c-0.8,0.8-1.5,0.9-2.2-0.2C228.3,165.4,228,165.2,228,164.8z"/>
	<path class="st11" d="M75,194.9c-0.2-0.1-0.5-0.2-0.7-0.3c-1.4-0.7-2.7-1.5-4.1-2.2c-0.8-0.4-1-0.8-0.5-1.7
		c2.3-4.1,4.6-8.3,6.9-12.4c1.1-2,2.2-4,3.3-6c0.4-0.7,0.7-0.8,1.4-0.5c1.4,0.8,2.7,1.5,4.1,2.2c0.8,0.4,0.9,0.8,0.5,1.6
		c-1.5,2.7-3,5.5-4.5,8.3c-1.8,3.2-3.6,6.5-5.4,9.7C75.7,194.1,75.6,194.7,75,194.9z"/>
	<path class="st11" d="M123.5,191.3c0.1,0.6-0.3,0.7-0.5,0.8c-1.5,0.8-3.1,1.7-4.6,2.5c-0.6,0.3-0.8,0.1-1.1-0.4
		c-1.5-2.7-2.9-5.3-4.4-7.9c-1.9-3.5-3.8-7-5.7-10.5c-0.5-0.9-0.5-1.5,0.6-1.9c1.3-0.6,2.6-1.4,3.9-2.1c0.6-0.3,1-0.3,1.3,0.4
		c3.4,6.1,6.8,12.2,10.2,18.4C123.3,190.9,123.5,191.2,123.5,191.3z"/>
	<path class="st5" d="M214.4,158.7c-4.6,0-9,0-13.5,0c0.3-0.8,0.9-1.2,1.3-1.8c1.6-2,3.3-3.9,4.9-5.9c0.3-0.3,0.4-0.5,0.8-0.1
		C210,153.5,212.1,156,214.4,158.7z"/>
	<path class="st5" d="M186.7,182.7c0.1-1.8-0.3-3.5-0.5-5.3c0.8,0.1,1.6,0.3,2.5,0.4c0.1,0,0.3,0,0.3,0.1c0.3,0.3,0,3.3-0.3,3.5
		C188.1,181.8,187.4,182.2,186.7,182.7z"/>
	<path class="st8" d="M86.5,158.6c-0.4,0-0.7,0-1.1,0c-1,0.2-1.3-0.3-1.2-1.2c0-0.7,0.2-0.9,0.9-0.9c1,0.1,2,0,3,0
		c1,0,0.6,0.7,0.7,1.1c0,0.5,0.2,1.1-0.7,1C87.6,158.6,87.1,158.6,86.5,158.6z"/>
	<path class="st12" d="M67.8,184c-0.8-1.1-1.4-2-2.2-3.1c1.5,0.2,2.7-0.2,4.1-0.4C69.1,181.7,68.5,182.7,67.8,184z"/>
	<path class="st13" d="M205.9,140c1.1-0.1,2.3-0.6,3.4,0C207.2,141.8,208,141.8,205.9,140z"/>
	<path class="st14" d="M140.4,155.5c1-0.6,2-1.2,3.1-1.9c0.1,1.9,0.1,1.9-1.8,1.9C141.3,155.5,140.9,155.5,140.4,155.5z"/>
	<path class="st15" d="M45.2,193c0.8,0.6,0.8,1.1,0,1.6c-0.8,0.5-1.2,1.4-2.1,1.7C43.8,195.2,44.5,194.1,45.2,193z"/>
	<path class="st0" d="M193.9,67.3c2.1,0,4.2,0,6.2,0c0.7,0,1,0.1,1,0.9c-0.1,1.1,0,2.2,0,3.2c0,0.6-0.1,0.8-0.8,0.8
		c-4.3,0-8.6,0-12.9,0c-0.6,0-0.8-0.2-0.7-0.8c0-1.1,0-2.2,0-3.4c0-0.7,0.3-0.9,0.9-0.9C189.7,67.3,191.8,67.3,193.9,67.3z"/>
	<path class="st0" d="M193.9,56.4c-2.1,0-4.2,0-6.3,0c-0.8,0-1-0.2-0.9-1c0.1-1.1,0-2.2,0-3.2c0-0.5,0.2-0.7,0.7-0.7
		c4.3,0,8.7,0,13,0c0.6,0,0.8,0.2,0.7,0.8c0,0,0,0.1,0,0.1c0,1.3,0.4,2.9-0.2,3.7c-0.7,0.8-2.4,0.2-3.6,0.3
		C196.2,56.5,195,56.4,193.9,56.4z"/>
	<path class="st0" d="M57.6,161.2c0,1.6,0,3.2,0,4.8c0,0.6-0.1,1-0.8,0.9c-1.5,0-3,0-4.6,0c-0.6,0-0.8-0.2-0.8-0.8
		c0-3.3,0-6.6,0-9.8c0-0.6,0.2-0.8,0.8-0.8c1.5,0,3,0,4.6,0c0.6,0,0.8,0.2,0.8,0.8C57.6,157.9,57.6,159.5,57.6,161.2z"/>
</g>
</svg>
