<svg id="圖層_1" data-name="圖層 1" xmlns="http://www.w3.org/2000/svg" viewBox="0 0 232.75 190.96"><defs><style>.cls-1{fill:#e95d26;}.cls-2{fill:#ebc5b1;}.cls-3{fill:#f1625b;}.cls-4{fill:#f17d7d;}.cls-5{fill:#8ccad1;}.cls-6{fill:#fce3e2;}.cls-7{fill:#fefefe;}.cls-8{fill:#fefefd;}.cls-9{fill:#fefdfd;}.cls-10{fill:#fefcfb;}.cls-11{fill:#e97343;}.cls-12{fill:#f16259;}.cls-13{fill:#f16258;}.cls-14{fill:#eaa080;}.cls-15{fill:#ebaa8d;}.cls-16{fill:#ebc3ae;}.cls-17{fill:#ebbea7;}.cls-18{fill:#f06a5f;}.cls-19{fill:#ee6149;}.cls-20{fill:#e97040;}.cls-21{fill:#e97140;}.cls-22{fill:#f07b71;}.cls-23{fill:#ea7d51;}.cls-24{fill:#e97547;}.cls-25{fill:#ee9387;}.cls-26{fill:#f59590;}.cls-27{fill:#ebc5b0;}.cls-28{fill:#e95e28;}.cls-29{fill:#ebbba3;}.cls-30{fill:#f06155;}.cls-31{fill:#ebb9a2;}.cls-32{fill:#ebb9a1;}</style></defs><title>8</title><path class="cls-1" d="M44.17,128.38l-14.27-.07c-2.27,0-2.25,0-2.28-2.25,0-3.15-.33-6.29-.26-9.44,0-.88.22-1.31,1.13-1.12,2.42.5,3.73-.67,5.05-2.64,7-10.48,14.14-20.84,21.23-31.25l.94-1.39H54.26c-8.48,0-17,0-25.44,0-.91,0-1.25-.19-1.22-1.17.13-3.39-.31-6.77-.26-10.16,0-1.28.39-1.47,1.54-1.47,10.76,0,21.52,0,32.28,0,1.08,0,1.31-.28,1.31-1.32q-.07-10,0-19.92c0-1-.2-1.34-1.3-1.34-9.16.05-18.32,0-27.48.05-1,0-1.35-.22-1.31-1.3.11-3.47-.34-6.92-.25-10.4,0-.91.27-1.11,1.15-1.11q40.92,0,81.84,0c.64,0,1.13-.06,1.1.89-.13,3.55.35,7.08.25,10.64,0,1-.22,1.27-1.24,1.26-9.28,0-18.56,0-27.84-.05-1,0-1.25.29-1.24,1.27q.06,10.08,0,20.16c0,.85.14,1.18,1.09,1.15,2.76-.09,5.52-.06,8.28-.08a14.86,14.86,0,0,1,3.33-.31h20.39c1.9,0,2.06.15,2.06,2,0,3.11.38,6.22.25,9.34-.07,1.82-.18,2-2,2q-11.94,0-23.87,0c-.32,0-.64,0-1,0-1,0-1.06.21-.49,1,7.22,10.61,14.46,21.21,21.61,31.87a3.08,3.08,0,0,0,3.25,1.69,5.14,5.14,0,0,1,1,0c.76,0,1.22.37,1.22,1.16,0,3.68.43,7.35.25,11,0,1.17-.29,1.4-1.57,1.41-3.24,0-6.48,0-9.72,0-4.32,0-8.64,0-13,0a3.31,3.31,0,0,1-3.09-1.61q-9.42-13.89-18.83-27.81c-.07-.09-.13-.2-.2-.29-.7-1-.83-1-1.49,0l-4.73,7.08C64.31,113.08,59.54,120,55,127a3.44,3.44,0,0,1-3.35,1.8c-2-.11-4.08,0-6.12,0A1.7,1.7,0,0,1,44.17,128.38Z" transform="translate(-6.87 -29.6)"/><path class="cls-1" d="M157.69,71.26c4.4,0,8.79,0,13.19.07.67,0,.81-.27.78-.85a21.18,21.18,0,0,1,0-2.52c.08-.89-.28-1-1.09-1-5.08,0-10.16,0-15.24,0-1,0-1.39-.17-1.35-1.29.12-3.47-.34-6.92-.24-10.4,0-.9.27-1.13,1.15-1.12,5.16,0,10.32,0,15.48,0,1,0,1.41-.17,1.29-1.23s.32-2.4-.2-3-2-.23-3.09-.24c-3.72,0-7.44,0-11.16,0-.68,0-1-.09-1-.89.12-3.55-.36-7.09-.26-10.64,0-1,.21-1.28,1.24-1.27,4.44.07,8.88,0,13.32.05.89,0,1.18-.21,1.14-1.12-.08-1.76,0-3.52,0-5.28,0-.74.23-1,1-1q10.56,0,21.12,0c.74,0,1,.21.94.95a40,40,0,0,0,.19,5.36c.09.83.26,1.05,1.09,1.05,5.88,0,11.76,0,17.64,0,1.2,0,2.4,0,3.6,0,.72,0,.93.18,1,.93.17,5,.29,10,.2,15,0,1,.1,1.57,1.26,1.35.61-.11.73.26.71.79-.09,3.63.39,7.24.26,10.88,0,.76-.11,1.26-1,1.09s-1.25.31-1.21,1.26c.07,2,0,3.92,0,5.88a9.92,9.92,0,0,1-8.59,10,52.29,52.29,0,0,1-7.19.19q-3.24.06-6.48,0c-.84,0-1.27.07-1.26,1.12s.42,1.06,1.21,1.06c5.32,0,10.64,0,16,0,1.52,0,3,0,4.56,0,.62,0,1,.08.93.83-.11,3.55.36,7.09.26,10.64,0,1-.21,1.34-1.3,1.33-6.8-.06-13.6,0-20.4,0-.92,0-1.23.2-1.2,1.17.07,2.27,0,2.27,2.25,2.27,7.16,0,14.32,0,21.48,0,1,0,1.26.29,1.25,1.27-.07,3.78.39,7.56.21,11.36-.39.31-.85.15-1.27.15H198a3.66,3.66,0,0,0-1.19.07c-1.48.52-1.56.63-1.56,2.25,0,3.2,0,6.4,0,9.6,0,1.76-.25,2-2,2q-9.84,0-19.68,0c-1.83,0-2.08-.27-2.1-2.08,0-3.28-.37-6.55-.26-9.83,0-1.37-.14-1.51-1.52-1.52-4.4,0-8.8,0-13.2,0-.48,0-1,0-1.44,0-.8,0-1.29-.44-1.3-1.26-.05-3.64-.46-7.27-.26-10.91.06-1.23.38-1.51,1.79-1.52,3.36,0,6.72,0,10.08,0h4c1.69,0,1.87-.13,1.89-1.27s-.15-1.31-1.83-1.31c-3.92,0-7.83,0-11.75,0l-1.32,0c-.86,0-1.37-.43-1.37-1.31,0-3.52-.45-7-.26-10.55.07-1.3.37-1.59,1.84-1.6,4.16,0,8.32,0,12.48,0a11.63,11.63,0,0,0,1.32,0c.42,0,.81-.14.79-.69s-.36-.57-.74-.62a9.63,9.63,0,0,0-1.2,0c-3.72,0-7.44,0-11.16,0-1.89,0-2.14-.26-2.14-2.16,0-2.92-.4-5.83-.25-8.75,0-.32,0-.64,0-1C155.68,71.06,156,70.83,157.69,71.26Z" transform="translate(-6.87 -29.6)"/><path class="cls-2" d="M157.69,71.26c-1.68.1-1.62.11-1.69,1.8-.14,3.43.37,6.85.23,10.28,0,1,.48.9,1.12.9,4.36,0,8.72,0,13.08,0,.75,0,1.24,0,1.25,1s-.45,1.14-1.29,1.13c-4.72,0-9.44,0-14.16,0-.88,0-1.13.23-1.16,1.13-.11,3.6.36,7.17.25,10.76,0,1,.52.89,1.15.88,4.6,0,9.2,0,13.79,0,1.08,0,1.45.24,1.4,1.37-.09,2,0,2-2,2-4.88,0-9.75,0-14.63,0-.93,0-1.21.23-1.23,1.19-.11,3.6.35,7.17.25,10.76,0,.9.42.94,1.11.94,5,0,10,0,15,0,1.15,0,1.63.19,1.54,1.48-.25,3.71.28,7.41.2,11.12,0,.76.27.93,1,.93,7,0,14.07,0,21.11,0,.88,0,1-.38,1-1.08,0-3.76,0-7.51,0-11.27,0-.83.13-1.16,1.09-1.2,7.51-.28,15,0,22.54-.12.52,0,1,0,1.55-.08-.32.55-.86.29-1.29.29q-10.42,0-20.84,0c-1,0-1.19.25-.86,1.21a70,70,0,0,1,3.6,16.75c.07.88.45,1.4,1.38,1.44.34,0,.73-.07,1,.26a.81.81,0,0,1-.74.3c-1-.11-1,.29-1,1.18a33.7,33.7,0,0,1,.27,6.51c-.23,3.1-.39,6.21-.81,9.3a2.07,2.07,0,0,1-.53,1.42c-.79.11-1-.43-.95-1,.09-1-.47-1.23-1.3-1.25-1.08,0-2.16,0-3.24,0s-1.35-.34-.8-1.41c1.74-3.38,3.25-6.87,5-10.22.67-1.25.31-2.38.24-3.58,0-.48-.52-.58-.92-.58-2.92,0-5.84-.08-8.76,0-.88,0-1.31.64-1.66,1.36-1.21,2.52-2.35,5.08-3.66,7.56-.71,1.35-1.45,1.76-2.65,1.53-.48-.09-.84-.3-.9-.81a8,8,0,0,1-.08-2.63,16.15,16.15,0,0,0,0-5.59,1,1,0,0,0-1.11-1H154c-2,0-2.21.16-2.17,2.18,0,2.4.41,4.77.56,7.17.12,2.07.17,4.14.33,6.21.14,1.75.31,3.5.4,5.26,0,.45-.39.64-.72.84a1.28,1.28,0,0,0-.54.73,13.29,13.29,0,0,0-.06,1.78c0,1.51-.46,1.89-1.94,1.74a1.48,1.48,0,0,1-.88-.32,2.53,2.53,0,0,1-.28-1.5c0-3.2,0-6.4,0-9.6,0-.94.13-1.75,1.1-2.19.52-.23.54-.75.57-1.24a17.92,17.92,0,0,0-.24-3.94c-.07-.36-.11-.75-.46-.94-.94-.51-1-1.37-1-2.27a22.63,22.63,0,0,0-.22-3.59,1.24,1.24,0,0,0-1.35-1.22c-3-.06-6,0-9,0a1.25,1.25,0,0,0-1.4,1.41c0,1.28,0,2.56,0,3.84s-.33,1.65-1.64,1.67c-3.36.05-6.72,0-10.08,0-.89,0-1.19-.41-1.25-1.23-.29-3.94-.09-3.31-3.67-3.33-5.16,0-10.32,0-15.48,0-1.86,0-1.94.08-1.94,2,0,6.8,0,13.6,0,20.4a3.38,3.38,0,0,1-.29,2,2.67,2.67,0,0,1-3.08-.22,2.93,2.93,0,0,1-.25-1.52c0-3.2,0-6.39,0-9.59,0-.93.12-1.75,1.09-2.19.47-.21.54-.66.57-1.11a17.71,17.71,0,0,0-.25-4.18,1.05,1.05,0,0,0-.43-.83c-1-.49-1-1.36-1-2.27a21.85,21.85,0,0,0-.25-3.7,1.13,1.13,0,0,0-1.18-1.1c-3.12-.09-6.23-.09-9.35,0-.85,0-1.16.56-1.18,1.36,0,1.32,0,2.64,0,4s-.34,1.56-1.6,1.59c-3.4.05-6.8,0-10.2,0a1,1,0,0,1-1.15-1c0-.6,0-1.2-.13-1.8-.24-1.65-.3-1.71-1.93-1.73H54.72c-1.66,0-1.78.12-1.78,1.77,0,6.07,0,12.15,0,18.22a3.92,3.92,0,0,1-.23,1.89,1.38,1.38,0,0,1-1.33.33c-2.29-.24-4.59-.41-6.89-.55-.56,0-1.23.06-1.57-.61,1.42-.84,1.39-.84,1.07-2.71a60.48,60.48,0,0,1-1.1-9.95c0-1.16-.15-2.13-1.4-2.55.08-.47.48-.52.82-.54.85,0,1-.55,1-1.29,0-2.19.12-4.38-.13-6.57l1-6.72c2.72,0,5.44-.07,8.16,0a2.13,2.13,0,0,0,2.05-1.08q9.6-14.41,19.25-28.8c.75-1.12.75-1.12,1.5,0q9.74,14.32,19.44,28.68a2.36,2.36,0,0,0,2.22,1.22c7.72-.05,15.43,0,23.15,0,1,0,1.27-.21,1.3-1.24.09-3.59-.36-7.17-.26-10.76,0-.68-.22-1-.89-.87-2.59.57-3.88-.86-5.2-2.85-6.94-10.4-14-20.72-21-31.06a4.68,4.68,0,0,1-.27-.4c-.14-.27-.52-.51-.32-.83s.59-.14.89-.14c8.52,0,17,0,25.55,0,1.17,0,1.53-.23,1.55-1.49,0-3.47-.4-6.93-.27-10.39,0-1-.49-.9-1.12-.9h-23c-.43,0-.87,0-1.31,0a60.2,60.2,0,0,1,11.7-3.29,83.92,83.92,0,0,1,11.85-1.32c2.48-.12,4.93,0,7.4.06.41,0,.89.19,1.23-.23.55.07.52.54.61.9q1.72,7.48,3.41,15a12.11,12.11,0,0,1-.18,3.94q-1.16,11-2.32,21.94-.9,8.4-1.8,16.8a4,4,0,0,0,.26,2.1,5.92,5.92,0,0,1,0,3.07c-.21,1.8-.11,1.93,1.7,1.93h14.76c1.78,0,1.77,0,2-1.73,1.23-10.85,2.29-21.7,3.5-32.55.27-2.38.5-4.77.75-7.15a4.37,4.37,0,0,0-.24-2.23,6.05,6.05,0,0,1,.09-3.55,7.83,7.83,0,0,0-.24-3.54c-.27-1.06-.7-2.14.06-3.22.23-.33,0-.78-.09-1.17-.36-1.39-.64-2.8-.95-4.21-.11-.49-.31-1,.08-1.49A55.59,55.59,0,0,1,157.69,71.26Z" transform="translate(-6.87 -29.6)"/><path class="cls-2" d="M187.68,185.52a41.19,41.19,0,0,1-4.54,6.27,79.21,79.21,0,0,1-42,26.46,81.3,81.3,0,0,1-13.9,2.11A78.59,78.59,0,0,1,73.1,203.57a76,76,0,0,1-17.3-19c-.63-1-1.52-.79-2.3-1.13.51-.55,1.19-.39,1.81-.4H68a6.81,6.81,0,0,0,2.92-.55A4.78,4.78,0,0,0,74,177.88c0-2.16,0-4.31,0-6.47a5.53,5.53,0,0,1,.14-1.67c.77-1.06,1.21-1.08,2.07-.1a20.38,20.38,0,0,1,.42,2.46,1.09,1.09,0,0,0,1.2,1.05c2.15,0,4.3.06,6.45,0,1.11,0,1.22-.27,1.25-2.07a4.36,4.36,0,0,1,.07-.81c.18-.72.53-.94,1.12-.36.46,1.24.18,2.53.23,3.8q.08,1.5,0,3c-.06,1.22-.45,1.62-1.69,1.71-.92.08-1.84,0-2.76,0s-1.31.39-1.3,1.3a24.72,24.72,0,0,0,.21,3.94c.13.75.48,1.2,1.23,1.2,4,0,8,.33,12-.21A4.85,4.85,0,0,0,99,179.72c.06-2.64,0-5.28,0-7.92a2.51,2.51,0,0,1,.34-1.73,3.61,3.61,0,0,1,2.9,0,2.35,2.35,0,0,1,.36,1.71c0,2.64-.11,5.28,0,7.91.22,4.11.14,3.27,3.28,3.31,4,.05,7.91,0,11.86,0a7,7,0,0,0,2.69-.48,4.91,4.91,0,0,0,3.25-4.71c0-1.84,0-3.67,0-5.51a3.73,3.73,0,0,1,.21-1.65,1.36,1.36,0,0,1,1.82-.36,2.87,2.87,0,0,1,.59,1.76,1.15,1.15,0,0,0,1.28,1.11c2.1,0,4.2,0,6.3,0,.88,0,1.34-.39,1.32-1.29a5.84,5.84,0,0,1,0-.83c.13-.59.37-1,1.07-.7a1.63,1.63,0,0,1,.32,1.13c0,1.72,0,3.44,0,5.15,0,1.3-.45,1.7-1.74,1.8-1,.07-1.92,0-2.88,0-.73,0-1.11.35-1.11,1.09a21.76,21.76,0,0,0,.2,4.19c.13.7.47,1.13,1.17,1.13,4,0,8,.33,12-.19a4.85,4.85,0,0,0,4.38-5c.05-2.59,0-5.19,0-7.79a2.8,2.8,0,0,1,.3-1.75,5,5,0,0,1,2.66-.37c1,0,.79.9.87,1.53,0,3.46-.58,6.9-.49,10.36.11,4,.14,3.54,3.34,3.53,1.66,0,3.35.29,5-.32a1.3,1.3,0,0,1,.82-.11,5.29,5.29,0,0,0,2.32.46c2,0,4.07,0,6.1,0a2.91,2.91,0,0,0,2.47-.9.46.46,0,0,1,.41.06,2.71,2.71,0,0,0,2.28.82c3.75,0,7.5-.12,11.25,0C186.56,185.18,187.19,185.05,187.68,185.52Z" transform="translate(-6.87 -29.6)"/><path class="cls-1" d="M149,67.44c.46,2.06.94,4.12,1.34,6.19.09.44.7,1.21-.43,1.33-.06,0-.11.26-.13.4a.39.39,0,0,0,.05.23,15,15,0,0,1,.41,7.7c-.11.56-.36,1.28.47,1.66.24.11.07.44.05.67q-1.22,11.35-2.42,22.72c-.6,5.63-1.17,11.27-1.75,16.9,0,.44-.14.87-.19,1.3-.22,2.08-.21,2.08-2.34,2.08-5.28,0-10.56,0-15.83,0-.91,0-1.25-.24-1.09-1.15a12.36,12.36,0,0,0,.22-2.26c0-.73.56-1.56-.42-2.21-.23-.15,0-1,0-1.5q1.07-10.18,2.16-20.35c.68-6.34,1.28-12.7,2.13-19,.42-3.18-.55-6.07-1.19-9-.76-3.5-1.6-7-2.4-10.48-.11-.55-.22-1.09-.32-1.64s-.58-1.13.42-1.36c.29-.07.1-.5,0-.76-.24-1.09-.42-2.2-.76-3.26s0-1.23,1-1.17,2.06,0,3.19,0l-3-13.67c-.29-1.32-.61-2.64-.85-4-.1-.59-.76-1.35.38-1.74.22-.07,0-.51,0-.77-.26-1.17-.5-2.34-.78-3.51-.14-.6,0-.86.68-.86q8.8,0,17.62,0c.61,0,.79.25.91.82,1.33,6.2,2.7,12.39,4,18.58.09.4.54,1-.44,1.11-.34,0-.11.39-.07.6.24,1.13.46,2.27.75,3.39.23.89.2,1.41-1,1.24-.78-.1-1.59,0-2.39,0-.57,0-.81.12-.67.74Q147.76,61.91,149,67.44Z" transform="translate(-6.87 -29.6)"/><path class="cls-1" d="M160.56,185a1.91,1.91,0,0,1-1.45.42h-5.75c-1.1,0-1.46-.39-1.58-1.63-.41-4.2.38-8.33.43-12.49.29-1.24-.33-2.42-.19-3.66s.38-2.69-.55-3.89a1.19,1.19,0,0,1-.13-.93c.39-1.55.09-3.15.32-4.72a.47.47,0,0,1,.48-.48c2.68-.25,5.36,0,8-.11h-6.42c-.31,0-.65,0-.79-.35a9.31,9.31,0,0,1-.5-3.17c-.26-3.58-.36-7.17-.56-10.76-.11-2-.51-3.87-.43-5.83.06-1.46.22-1.65,1.68-1.65,8.76,0,17.51,0,26.26,0,1.18,0,1.53.35,1.63,1.56a32.31,32.31,0,0,1,.16,4.17,11.12,11.12,0,0,0-.19,3.1c.1.45-.41,1.2.39,1.28s1.77.39,2.28-.75c.89-2,1.87-3.88,2.8-5.82.45-.94.94-1.86,1.34-2.82a1.6,1.6,0,0,1,1.66-1.08c3,0,6,0,9,0,1.18,0,1.39.31,1.17,1.46,0,.16-.16.39-.11.44,1.05,1,.14,1.85-.26,2.68-1.76,3.71-3.56,7.39-5.43,11.24h4.4c1.44,0,1.62.19,1.33,1.57-.13.62.44.69.56,1.07.31.35.07.67,0,1-.73,1.43-1.46,2.87-2.15,4.32-.95,2.22-2.08,4.35-3.15,6.52a6.64,6.64,0,0,1-1.11,1.65,4.85,4.85,0,0,0,1.74.09c.41,0,.82,0,1.23,0a6.84,6.84,0,0,1,.91-.06c.47.11,1,0,1.39.38.74.24,1,.69.71,1.45-.06.14-.19.38-.14.43,1.17,1.2,0,2.14-.41,3.07-1.35,3-2.9,5.84-4.2,8.82a5.94,5.94,0,0,1-6.17,3.92,9.63,9.63,0,0,0-1.07.08L174,185.46c-.81,0-1.66,0-1.72-1.13a3.89,3.89,0,0,1-.08-1.13,3.89,3.89,0,0,1-.08,1.13c-.15.88-.7,1.15-1.54,1.14-2.71,0-5.42,0-8.13,0-.56,0-1.13,0-1.43-.65-.22-.44-.05-.87-.07-1.33C160.88,184,161,184.61,160.56,185Z" transform="translate(-6.87 -29.6)"/><path class="cls-3" d="M43.19,135.1c.64.14.47.64.47,1.05,0,1.94,0,3.88.05,5.82,0,1-.23,1.49-1.3,1.34a.94.94,0,0,0-.89.2,2.73,2.73,0,0,1-1.78.57A154.56,154.56,0,0,0,21,147.15,28.8,28.8,0,0,0,15.4,149c-.92.44-2.12.84-2.15,2s1.24,1.65,2.18,2.12A48.9,48.9,0,0,0,21,155a7,7,0,0,0,3.18.66c3.3.52,6.58,1.15,9.9,1.58,2.56.33,5.13.64,7.69,1,.42.06.89,0,1.2.42a6.32,6.32,0,0,0,2.76.35c2.27.21,4.55.37,6.83.55a1.12,1.12,0,0,1,.38.95c.05,2.17.07,4.34,0,6.51a1.38,1.38,0,0,1-.2.68c-.62.6-1.4.43-2.12.36a14.17,14.17,0,0,1-4-.77q-7.16-.66-14.26-1.69a90.23,90.23,0,0,1-15.77-3.39c-2.45-.83-5-1.48-6.83-3.52a11.1,11.1,0,0,1-2.76-8.94,10.26,10.26,0,0,1,3.41-7,15.75,15.75,0,0,1,5.8-2.75c6.67-2.19,13.58-3.19,20.51-4.08Z" transform="translate(-6.87 -29.6)"/><path class="cls-3" d="M193.21,167.53c1.8-2.29,2.79-5,4.08-7.59.14-.28.29-.55.44-.82a3.76,3.76,0,0,1,2-.32,14.28,14.28,0,0,0,3.8-.4c7-.87,14-1.65,20.84-3.21a36,36,0,0,0,6.42-2,7,7,0,0,0,1.76-1c1-.83,1-1.55,0-2.36a7.81,7.81,0,0,0-2.31-1.24,62.48,62.48,0,0,0-11.51-2.85c-5.36-.9-10.75-1.59-16.16-2.16-.46,0-1,0-1.18-.61a57.73,57.73,0,0,0-.55-7.31c-.1-.71,0-.82.68-.66a7.77,7.77,0,0,0,1.53.08c8.65,1,17.31,1.91,25.7,4.36a31.79,31.79,0,0,1,5,1.77,9.78,9.78,0,0,1,5.62,7.12,12.15,12.15,0,0,1-1,8.12,10.07,10.07,0,0,1-6,5,93.92,93.92,0,0,1-19.59,4.37l-5.58.76a80.51,80.51,0,0,1-9.68.95.73.73,0,0,1-.58.27c-.51-.29-1.06-.08-1.59-.14A8.36,8.36,0,0,1,193.21,167.53Z" transform="translate(-6.87 -29.6)"/><path class="cls-1" d="M52.52,167.81q0-4.12,0-8.25,0-10.38,0-20.75c0-1.52,0-1.56,1.54-1.56,6.2,0,12.4,0,18.59,0,1.13,0,1.64.31,1.55,1.49a7.34,7.34,0,0,0,.2,1.29c.17,1.84.16,1.84,1.95,1.84,3.08,0,6.16,0,9.24,0,.77,0,1-.19,1-1,0-1.52,0-3,0-4.56,0-.92.38-1.35,1.25-1.36q5,0,10.07,0c.79,0,1.19.37,1.24,1.26.08,1.35.26,2.69.22,4,0,.74-.27,1.63,1,1.76.31,0,.45.41.48.76a41.92,41.92,0,0,1,.25,5c0,.61-.21,1.08-.82,1.11-.87,0-.88.55-.88,1.2,0,3.88,0,7.76,0,11.64a3.08,3.08,0,0,1,.37,1.49c0,1.87,0,3.74,0,5.62a2.18,2.18,0,0,1-.34,1.36c0,3,0,5.91,0,8.87,0,3.85-2.07,6-5.93,6.13-3.64.08-7.27,0-10.91,0-1,0-1.42-.39-1.52-1.49-.14-1.43-.15-2.86-.21-4.29,0-1,.3-1.48,1.37-1.41s2.08,0,3.12,0,1.37-.29,1.34-1.31c0-2.28,0-4.55,0-6.83a2.83,2.83,0,0,1-.36-1.48c0-2.29,0-4.59,0-6.89,0-3.39,0-6.78,0-10.18,0-2,0-2-2-2-2.47,0-4.95,0-7.42,0a2.78,2.78,0,0,1-2.07-.52c0,4,0,8,0,11.94,0,2.3,0,4.6,0,6.9a6.36,6.36,0,0,1-.36,2c0,2.55-.1,5.11,0,7.66a5.77,5.77,0,0,1-6,6l-13.77,0c-.4,0-.8,0-1.2,0a.77.77,0,0,1-.71-.8c-.07-1.18-.18-2.37-.27-3.55a17.12,17.12,0,0,1-.34-5.1c0-1.55,0-3.11,0-4.66A2.11,2.11,0,0,1,52.52,167.81Z" transform="translate(-6.87 -29.6)"/><path class="cls-4" d="M30.22,192.7a8.52,8.52,0,0,1,8.61,8.43A8.61,8.61,0,0,1,21.62,201,8.44,8.44,0,0,1,30.22,192.7Z" transform="translate(-6.87 -29.6)"/><path class="cls-5" d="M219.61,187.72a8.26,8.26,0,0,1-8.54-8.31c0-4.8,3.5-8.37,8.62-8.41a8.36,8.36,0,1,1-.08,16.72Z" transform="translate(-6.87 -29.6)"/><path class="cls-2" d="M52.52,167.81v11.24a67.72,67.72,0,0,1-4.71-10.33,2.07,2.07,0,0,0-1.25-1.43Z" transform="translate(-6.87 -29.6)"/><path class="cls-6" d="M197.44,167.51l9.68-.95a1.92,1.92,0,0,1-1.42.47c-2.1-.16-4.11.66-6.21.51-.17,0-.35.14-.53.21C198.45,167.74,197.89,168,197.44,167.51Z" transform="translate(-6.87 -29.6)"/><path class="cls-7" d="M74.14,92.1c1.84,2.69,3.56,5.24,5.29,7.78Q87,111,94.5,122.11a1.83,1.83,0,0,0,1.74.93c7.44,0,14.88,0,22.32,0,1,0,1.25.3,1.23,1.27-.06,2.62,0,2.62-2.62,2.62-6.6,0-13.2,0-19.79,0a2.1,2.1,0,0,1-2-1.09q-9.63-14.26-19.3-28.48c-1.24-1.83-2.19-1.81-3.41,0Q63.1,111.66,53.56,126a1.82,1.82,0,0,1-1.71,1q-10.79-.06-21.59,0c-1,0-1.25-.31-1.23-1.28.06-2.61,0-2.61,2.64-2.61,6.84,0,13.68,0,20.51,0a2,2,0,0,0,2-1q9.59-14.43,19.25-28.8Z" transform="translate(-6.87 -29.6)"/><path class="cls-7" d="M89.36,74.94h1.33c9.27,0,18.54,0,27.81,0,1.09,0,1.32.31,1.29,1.34-.07,2.55,0,2.55-2.55,2.55-8,0-16.06,0-24.09,0a1.85,1.85,0,0,1-1.85-1C90.77,76.92,90.12,76.06,89.36,74.94Z" transform="translate(-6.87 -29.6)"/><path class="cls-7" d="M100.29,43.52c-4.52,0-9,0-13.56,0-.55,0-.81,0-.83-.71-.1-3.17-.12-3.17,3-3.17,8.28,0,16.56,0,24.84,0,1,0,1.28.25,1.26,1.25-.06,2.63,0,2.63-2.61,2.63Z" transform="translate(-6.87 -29.6)"/><path class="cls-7" d="M59.3,74.94c-.9,1.32-1.66,2.43-2.41,3.55-.25.36-.62.31-1,.31-8.68,0-17.35,0-26,0-.71,0-.83-.28-.85-.92-.06-3-.08-3,2.88-3Z" transform="translate(-6.87 -29.6)"/><path class="cls-7" d="M48.13,43.52c-4.43,0-8.87,0-13.3,0-.77,0-1-.19-1-1,0-2.89,0-2.89,2.82-2.89,8.19,0,16.38,0,24.56,0,1,0,1.3.23,1.28,1.24-.06,2.64,0,2.64-2.6,2.64Z" transform="translate(-6.87 -29.6)"/><path class="cls-8" d="M206.55,114c-3.64,0-7.27,0-10.91,0-.74,0-1-.14-1-1,0-2.92,0-2.92,2.91-2.92,6.63,0,13.27,0,19.9,0,.89,0,1.24.17,1.22,1.16-.05,2.72,0,2.72-2.75,2.72Z" transform="translate(-6.87 -29.6)"/><path class="cls-7" d="M216.87,73.94a8.4,8.4,0,0,1-7,8.64,21.12,21.12,0,0,1-4,.21c-3.4,0-6.79,0-10.18,0-.72,0-1-.1-1-1,0-2.91,0-2.91,2.9-2.91s5.91-.06,8.86,0C210.65,79.05,214.21,77.7,216.87,73.94Z" transform="translate(-6.87 -29.6)"/><path class="cls-7" d="M205.36,97.7c-3.28,0-6.55,0-9.83,0-.64,0-.89-.11-.9-.83-.07-3-.1-3,2.9-3,5.84,0,11.67,0,17.51,0,.94,0,1.32.15,1.29,1.21-.06,2.65,0,2.66-2.7,2.66Z" transform="translate(-6.87 -29.6)"/><path class="cls-7" d="M183.42,127.46c-3,0-6.08,0-9.12,0-.79,0-1-.22-1-1,0-2.86,0-2.86,2.86-2.86,5.4,0,10.8,0,16.2,0,.92,0,1.12.26,1.11,1.14,0,2.73,0,2.73-2.73,2.73Z" transform="translate(-6.87 -29.6)"/><path class="cls-7" d="M163.43,65.5c-2.35,0-4.71,0-7.06,0-.74,0-.94-.22-1-1,0-2.92-.07-2.92,2.79-2.92,4.12,0,8.23,0,12.34,0,.9,0,1.14.24,1.13,1.13,0,2.74,0,2.74-2.73,2.74Z" transform="translate(-6.87 -29.6)"/><path class="cls-9" d="M163.5,114c-2.39,0-4.79,0-7.18,0-.68,0-.88-.2-.9-.88-.09-3-.11-3,2.85-3,4.11,0,8.22,0,12.33,0,.83,0,1.08.22,1.08,1.06,0,2.82,0,2.82-2.79,2.82Z" transform="translate(-6.87 -29.6)"/><path class="cls-7" d="M164.21,93.85c2.16,0,4.32,0,6.48,0,.69,0,1,.12,1,.9,0,3,.08,3-2.88,3-3.64,0-7.28,0-10.92,0-.93,0-1.13-.28-1.11-1.15,0-2.72,0-2.72,2.76-2.72Z" transform="translate(-6.87 -29.6)"/><path class="cls-7" d="M164.64,44.42c2,0,4.07,0,6.1,0,.75,0,.92.25.93,1,.05,2.91.07,2.91-2.79,2.91-3.39,0-6.78,0-10.17,0-.86,0-1.05-.26-1-1.08,0-2.79,0-2.79,2.78-2.79Z" transform="translate(-6.87 -29.6)"/><path class="cls-7" d="M164.67,79c2,0,4.07,0,6.11,0,.66,0,.88.17.89.87.08,3,.11,3-2.82,3-3.39,0-6.79,0-10.18,0-.77,0-1-.19-1-1,0-2.87,0-2.87,2.81-2.87Z" transform="translate(-6.87 -29.6)"/><path class="cls-9" d="M199,52c0,2.17,0,2.17-2,2.17s-2.11,0-2.11-2.14c0-2.33,0-2.33,2-2.33S199,49.7,199,52Z" transform="translate(-6.87 -29.6)"/><path class="cls-8" d="M196.76,48.27c-2.11,0-2.11,0-2.11-1.84,0-2,0-2,2.08-2,2.26,0,2.26,0,2.26,2.21,0,1.64,0,1.64-1.63,1.64Z" transform="translate(-6.87 -29.6)"/><path class="cls-7" d="M196.72,65.5c-2.07,0-2.07,0-2.07-2.12a5.73,5.73,0,0,0,0-.83c-.12-.77.25-.95,1-.91a17.38,17.38,0,0,0,2.5,0c.77-.06,1,.25.9,1a4,4,0,0,0,0,.6C199,65.5,199,65.5,196.72,65.5Z" transform="translate(-6.87 -29.6)"/><path class="cls-7" d="M194.89,69.14c0-2.21,0-2.21,2.26-2.21h.12c1.75,0,2.23.78,1.53,2.49a3.35,3.35,0,0,1-3.42,1.91c-.45-.06-.5-.28-.49-.63Z" transform="translate(-6.87 -29.6)"/><path class="cls-10" d="M219.11,63.59V65c0,.36-.15.48-.51.49s-.48-.17-.48-.5V62.26c0-.35,0-.61.51-.61s.49.29.48.63Z" transform="translate(-6.87 -29.6)"/><path class="cls-1" d="M124.12,170.68c0,2.31,0,4.63,0,6.95a5.47,5.47,0,0,1-5.4,5.71c-5.07.13-10.15,0-15.22.06-.78,0-1-.38-1-1.11-.46-4-.07-8.06-.25-12.08a1.9,1.9,0,0,1-.33-1.11c0-2,0-4,0-6a1.9,1.9,0,0,1,.33-1.11l0-23c0-1.66,0-1.67,1.66-1.67,6.12,0,12.24,0,18.35,0,1.11,0,1.8.17,1.67,1.49a7.34,7.34,0,0,0,.2,1.29c.17,1.84.16,1.84,2.07,1.84,3,0,6.07,0,9.11,0,.77,0,1.06-.18,1-1,0-1.51,0-3,0-4.55,0-.93.37-1.36,1.24-1.37q5,0,10.08,0c.78,0,1.16.37,1.24,1.25a38.69,38.69,0,0,1,.21,4.17c0,.72-.22,1.55,1,1.65.3,0,.45.4.48.75a41.92,41.92,0,0,1,.25,5c0,.6-.2,1.09-.81,1.12-.86,0-.89.53-.89,1.19,0,3.88,0,7.76,0,11.64a20.66,20.66,0,0,1,0,8.47c0,3,0,5.91,0,8.86,0,3.86-2.06,6.06-5.91,6.15-3.64.08-7.27,0-10.9,0-1,0-1.45-.35-1.55-1.46-.15-1.52-.17-3-.2-4.53,0-.88.35-1.22,1.22-1.19,1.15,0,2.31,0,3.47,0,.81,0,1.14-.33,1.13-1.15,0-2.16,0-4.31,0-6.47a2.27,2.27,0,0,1-.35-1.48c0-2.3,0-4.61,0-6.91-.05-3.64,0-7.28,0-10.92,0-1.63-.07-1.7-1.67-1.71-2.6,0-5.2,0-7.8,0a2.53,2.53,0,0,1-2-.54c0,4.36,0,8.76,0,13.16,0,2.3,0,4.61,0,6.91A3.85,3.85,0,0,1,124.12,170.68Z" transform="translate(-6.87 -29.6)"/><path class="cls-7" d="M201.38,143a39,39,0,0,0,5.8.77c7.2,1,14.43,1.77,21.42,3.9a14.68,14.68,0,0,1,3.63,1.54c2.06,1.31,2.06,2.41-.06,3.69a20.73,20.73,0,0,1-5.7,2.12,126.88,126.88,0,0,1-16.63,2.91l-6.31.74c-1.17.08-2.32.34-3.51.35-.92,0-1.09-.35-.93-1.15.21-1,.51-2.06.82-3.08l.23-.93a61.74,61.74,0,0,0,.77-6.2C201.11,146.11,200.86,144.52,201.38,143Z" transform="translate(-6.87 -29.6)"/><path class="cls-7" d="M20.88,155.26a30.4,30.4,0,0,1-6.09-2.08c-.91-.48-2-1-2-2.14s1.13-1.69,2-2.14a34.24,34.24,0,0,1,8.66-2.68c6-1.23,12-2,18.08-2.71,1.11-.13,1.68.25,1.67,1.48a58.64,58.64,0,0,0,1.45,12.38c.23,1,0,1.48-1.11,1.26a2.39,2.39,0,0,0-.59,0c-4.64-.42-9.26-1.06-13.86-1.8-1.69-.27-3.37-.59-5.06-.88A28.51,28.51,0,0,1,20.88,155.26Z" transform="translate(-6.87 -29.6)"/><path class="cls-3" d="M149.07,170.2v-8.47c2.38.18,2.37.18,2.39-2.2,0-.47-.16-1,.2-1.38,0,1.55,0,3.1,0,4.65,0,.31-.09.76.07.93,1.47,1.45.48,3.21.61,4.81a5.6,5.6,0,0,1-.16,2.81c.08-1-.12-1.61-1.36-1.25A8,8,0,0,1,149.07,170.2Z" transform="translate(-6.87 -29.6)"/><path class="cls-3" d="M102.2,162v8.26H99.4c0-2.82,0-5.65,0-8.47A6.28,6.28,0,0,0,102.2,162Z" transform="translate(-6.87 -29.6)"/><path class="cls-11" d="M153,157.2a3.93,3.93,0,0,0,2.22.23,47.89,47.89,0,0,1,5.35.24h-8.39Z" transform="translate(-6.87 -29.6)"/><path class="cls-1" d="M85.87,171.11l.06,1.19a1,1,0,0,1-1.1,1.21c-2.47,0-4.93,0-7.4,0a1,1,0,0,1-1.12-1c-.09-1-.17-1.9-.26-2.84-.91-1.65-.54-3.5-.77-5.25-.15-1.13-.1-2.3-.26-3.45-.12-2.79-.35-5.57-.37-8.36,0-1.64.37-2,2-2.06,1.92,0,3.84,0,5.75,0s2.36.46,2.58,2.26a78,78,0,0,1,.55,8.36c.33,1.84.1,3.72.44,5.55C86.29,168.22,85.66,169.65,85.87,171.11Z" transform="translate(-6.87 -29.6)"/><path class="cls-1" d="M135.55,171.11l.06,1.2a1,1,0,0,1-1.12,1.2q-3.72,0-7.44,0a1,1,0,0,1-1.07-1c-.06-.67-.17-1.34-.26-2a3.58,3.58,0,0,1-.54-2.06c0-2.15-.44-4.29-.24-6.45a3.19,3.19,0,0,0-.17-1.18c-.29-2.77-.4-5.55-.44-8.34,0-1.31.39-1.77,1.66-1.81,2.23-.08,4.46,0,6.69,0a1.78,1.78,0,0,1,1.91,1.61,28.67,28.67,0,0,1,.44,3.92c.09,2,.19,4.05.39,6.07,0,2.19.28,4.37.33,6.56A12.43,12.43,0,0,0,135.55,171.11Z" transform="translate(-6.87 -29.6)"/><path class="cls-12" d="M125.09,160.8c0,.1.15.2.15.31,0,3.12.3,6.23.48,9.35-.55,0-1.11-.19-1.6.22V162C124.81,161.88,124.66,161.1,125.09,160.8Z" transform="translate(-6.87 -29.6)"/><path class="cls-13" d="M75.36,161c.38,2.05.25,4.14.45,6.22.08.81.19,1.63.24,2.45-.54-.67-1.08-.73-1.62,0,0-3,0-6,0-8.94A.87.87,0,0,1,75.36,161Z" transform="translate(-6.87 -29.6)"/><path class="cls-12" d="M85.87,171.11a2,2,0,0,1-.18-.54c.06-3.12-.23-6.22-.46-9.31a1.49,1.49,0,0,1,1.37.22q0,4.22,0,8.45C85.27,169.62,86.23,170.78,85.87,171.11Z" transform="translate(-6.87 -29.6)"/><path class="cls-12" d="M135.55,171.11a1.54,1.54,0,0,1-.17-.43c-.09-2.82-.17-5.65-.25-8.47a1.14,1.14,0,0,1,1.17-.23c0,2.82,0,5.64,0,8.46C135.69,170.27,135.6,170.66,135.55,171.11Z" transform="translate(-6.87 -29.6)"/><path class="cls-14" d="M160.56,185l.36-1.77a3.91,3.91,0,0,1,.1,1.54Z" transform="translate(-6.87 -29.6)"/><path class="cls-15" d="M172.12,184.33v-1.16a1.62,1.62,0,0,1,.16,1.16h-.16Z" transform="translate(-6.87 -29.6)"/><path class="cls-7" d="M136.68,127.18c-2.4,0-4.8,0-7.2,0-.7,0-.95-.21-.77-.89,0-.19.07-.39.1-.59.31-2.39.31-2.39,2.67-2.39,4.23,0,8.47,0,12.7,0,.84,0,1.28,0,1.11,1.13-.42,2.72-.34,2.73-3.1,2.73Z" transform="translate(-6.87 -29.6)"/><path class="cls-7" d="M149,54.22H133.31c-.27,0-.63.07-.72-.27a25,25,0,0,1-.69-3.27c-.06-.51.54-.29.84-.29,3,0,6,0,9,0,1.88,0,3.75,0,5.63,0,.48,0,.85,0,.95.63C148.48,52.05,148.72,53.09,149,54.22Z" transform="translate(-6.87 -29.6)"/><path class="cls-7" d="M141,78.73c-2.4,0-4.8,0-7.2,0-.68,0-1-.11-1.21-.89-.71-3-.75-3,2.27-3,4.16,0,8.32,0,12.47,0a1,1,0,0,1,1.19.94c.69,2.92.71,2.92-2.24,2.92Z" transform="translate(-6.87 -29.6)"/><path class="cls-7" d="M170.4,171.92c0,3.08,0,6.16,0,9.23,0,.75-.23,1-.95.94-2.08,0-4.16-.05-6.24,0-.85,0-1.06-.26-1.06-1.09,0-5.87,0-11.75,0-17.62,0-1.95-.13-2.07-2.13-2.07s-4.16-.06-6.23,0c-1.2,0-.85-.74-.9-1.35s0-1.1.91-1.07c2.28.07,4.56,0,6.83,0,1.08,0,1.6-.38,1.51-1.45-.05-.62.16-.83.8-.82q3.3.06,6.59,0c.73,0,.9.25.84.9-.1,1,.45,1.39,1.45,1.37,2.24,0,4.48,0,6.71,0,1.12,0,1,.59,1,1.27s0,1.19-1,1.15c-2.19-.07-4.39,0-6.59,0-1.37,0-1.58.21-1.59,1.61C170.39,165.93,170.4,168.93,170.4,171.92Z" transform="translate(-6.87 -29.6)"/><path class="cls-7" d="M198,136.85c-.57,1.21-1.07,2.28-1.58,3.35-1.11,2.29-2.24,4.58-3.33,6.89a4.19,4.19,0,0,1-4.16,2.63c-2.08,0-4.16,0-6.23,0-.73,0-1-.29-.83-.91s-.57-1.49.71-1.47a2.46,2.46,0,0,0,2.38-1.67c1.26-2.67,2.57-5.31,3.81-8a1.23,1.23,0,0,1,1.32-.87C192.71,136.88,195.29,136.85,198,136.85Z" transform="translate(-6.87 -29.6)"/><path class="cls-7" d="M198.06,169.23c-.68,1.4-1.29,2.68-1.9,4-1,2.09-2,4.16-3,6.26a4.18,4.18,0,0,1-4,2.63c-2.12,0-4.24,0-6.35,0-.68,0-1-.21-.86-.88s-.56-1.48.71-1.47a2.46,2.46,0,0,0,2.37-1.67c1.25-2.67,2.57-5.31,3.81-8a1.24,1.24,0,0,1,1.32-.88C192.71,169.26,195.29,169.23,198.06,169.23Z" transform="translate(-6.87 -29.6)"/><path class="cls-7" d="M198.09,152.67c-1.86,3.8-3.59,7.46-5.45,11.06a3.26,3.26,0,0,1-3,1.68c-2.32,0-4.63,0-6.95,0-.63,0-.93-.22-.78-.82s-.56-1.47.71-1.48a2.51,2.51,0,0,0,2.38-1.68c1.25-2.67,2.57-5.3,3.82-8a1.24,1.24,0,0,1,1.34-.84C192.72,152.69,195.27,152.67,198.09,152.67Z" transform="translate(-6.87 -29.6)"/><path class="cls-7" d="M175.64,164.61h.48c2.6,0,2.56,0,2.68,2.55q.3,6.9.71,13.78c.05.86-.11,1.22-1.07,1.16-1.35-.09-2.72,0-4.08,0-.67,0-.89-.2-.93-.87-.18-3.91-.41-7.82-.62-11.73-.08-1.36-.13-2.72-.24-4.07,0-.64.16-.86.79-.82S174.88,164.61,175.64,164.61Z" transform="translate(-6.87 -29.6)"/><path class="cls-7" d="M156.14,182.08c-3.15,0-3.16,0-3-3.1.27-4.46.58-8.93.83-13.4,0-.77.27-1,1-1,1.4.06,2.8.05,4.2,0,.71,0,.88.22.84.89-.3,4.75-.54,9.5-.86,14.24-.16,2.35-.22,2.35-2.6,2.35Z" transform="translate(-6.87 -29.6)"/><path class="cls-7" d="M160.17,151.16c0,1,.37,2.21-.1,2.77s-1.86.2-2.84.22-2.41.44-3.14-.18-.25-2-.32-3c-.17-2.51-.27-5-.43-7.52-.05-.68.14-.92.84-.9,1.52.05,3,.06,4.55,0,.76,0,.93.26,1,1,.11,2.55.28,5.1.43,7.64Z" transform="translate(-6.87 -29.6)"/><path class="cls-7" d="M166.35,154.21c-1-.05-2.25.26-2.89-.24s-.25-1.87-.32-2.86c-.18-2.54-.28-5.09-.44-7.64,0-.67.13-.92.84-.9,1.55.05,3.11,0,4.66,0,.56,0,.76.15.8.73.19,3.34.41,6.69.65,10,0,.62-.13.87-.78.83-.84,0-1.68,0-2.51,0Z" transform="translate(-6.87 -29.6)"/><path class="cls-7" d="M175.36,154.16c-.82-.1-2.14.45-2.8-.21s0-1.89,0-2.87c.11-2.59.32-5.17.45-7.76,0-.58.21-.75.78-.74,1.59,0,3.19,0,4.79,0,.57,0,.76.17.73.75q-.28,5.08-.52,10.17c0,.53-.24.68-.73.67C177.24,154.15,176.4,154.16,175.36,154.16Z" transform="translate(-6.87 -29.6)"/><path class="cls-7" d="M166.33,139.48c-4.12,0-8.24,0-12.35,0-.85,0-1.12-.24-1.07-1.08s0-1.25,1-1.25q12.3.08,24.58,0c1,0,1,.44,1.06,1.21s-.25,1.13-1.13,1.12C174.4,139.45,170.36,139.48,166.33,139.48Z" transform="translate(-6.87 -29.6)"/><path class="cls-2" d="M181,168.7a50.45,50.45,0,0,0,5.36.06c1.57,0,1.56,0,.86,1.46-1.15,2.36-2.28,4.74-3.44,7.1a2.08,2.08,0,0,1-2.49,1c-.36-.15-.3-.43-.32-.69q-.21-4.42-.43-8.83C180.63,168.56,180.79,168.59,181,168.7Z" transform="translate(-6.87 -29.6)"/><path class="cls-2" d="M180.17,157.2c.52-1.15.23-2.38.34-3.57.21-.29,0-.69.21-1a3.64,3.64,0,0,0,2.31.43h4.38c-1.21,2.52-2.21,5-3.56,7.26-.88.36-1.77,1-2.63,0a5.33,5.33,0,0,1-.25-1.73c0-.49-.12-.86-.67-.94C180.07,157.55,180.13,157.37,180.17,157.2Z" transform="translate(-6.87 -29.6)"/><path class="cls-16" d="M199.91,154.79a9.66,9.66,0,0,1-.51,3.25c-.19.76.06.85.73.86,1.14,0,2.25-.47,3.4-.23a17.17,17.17,0,0,1-5.8.45A31.9,31.9,0,0,1,199.91,154.79Z" transform="translate(-6.87 -29.6)"/><path class="cls-17" d="M171,150.21c-.17-2.28-.2-4.57-.55-6.83,0-.34.06-.55.43-.55s.66-.06.71.41a2.16,2.16,0,0,1,0,.36A63.63,63.63,0,0,1,171,150.21Z" transform="translate(-6.87 -29.6)"/><path class="cls-18" d="M181.22,160.31c.87.58,1.76-.17,2.63,0a6.24,6.24,0,0,1-.36.88c-.44.73-1.2.62-1.83.49C180.87,161.54,181.31,160.8,181.22,160.31Z" transform="translate(-6.87 -29.6)"/><path class="cls-11" d="M180.17,157.2c.05.15.09.29.13.44h-8.2v-.2h6.69A2.14,2.14,0,0,0,180.17,157.2Z" transform="translate(-6.87 -29.6)"/><path class="cls-19" d="M181,168.7l-.46.07c-.14-1.32-.29-2.65-.44-4l.25,0C180.53,166.08,180.75,167.39,181,168.7Z" transform="translate(-6.87 -29.6)"/><path class="cls-20" d="M161.59,151.85V149.3h.12v2.58Z" transform="translate(-6.87 -29.6)"/><path class="cls-21" d="M161.34,147.35v-2.58A5,5,0,0,1,161.34,147.35Z" transform="translate(-6.87 -29.6)"/><path class="cls-22" d="M193.21,167.53h2.16c.07.05.1.1.07.15s-.05.08-.08.08l-2.13,0s-.06-.05-.06-.08A.36.36,0,0,1,193.21,167.53Z" transform="translate(-6.87 -29.6)"/><path class="cls-23" d="M180.72,152.66c0,.33,0,.69-.21,1v-2C180.85,152,180.67,152.33,180.72,152.66Z" transform="translate(-6.87 -29.6)"/><path class="cls-24" d="M161.79,155.3c0-.72-.12-1.1.11-1.52A2,2,0,0,1,161.79,155.3Z" transform="translate(-6.87 -29.6)"/><path class="cls-25" d="M195.36,167.76a1.69,1.69,0,0,1,0-.23c.49.07,1-.22,1.48.25Z" transform="translate(-6.87 -29.6)"/><path class="cls-26" d="M20.88,155.26A11.21,11.21,0,0,1,24,156,5.66,5.66,0,0,1,20.88,155.26Z" transform="translate(-6.87 -29.6)"/><path class="cls-7" d="M54,159.33c0-6.51,0-13,0-19.54,0-.89.21-1.14,1.12-1.13,5.52,0,11,.05,16.55,0,1,0,1.17.31,1.16,1.21q0,17.81,0,35.62A4.19,4.19,0,0,1,68.46,180c-4.56.07-9.12,0-13.67,0-.93,0-.8-.52-.8-1.07Z" transform="translate(-6.87 -29.6)"/><path class="cls-7" d="M97.71,162.6c0,5,0,9.92,0,14.87,0,2.67-1.51,4.29-4.19,4.34-3.48.08-7,0-10.43,0-1.12,0-.79-.71-.84-1.29s0-1.18.91-1.08a19.11,19.11,0,0,0,2.51,0,2.21,2.21,0,0,0,2.4-2.4q0-15,0-30.1c0-1-.42-1.42-1.45-1.41-3.31,0-6.63,0-10,0-1,0-1.08-.37-1.08-1.18s.08-1.2,1.07-1.18c3.28.07,6.56,0,9.84,0,1.41,0,1.56-.16,1.56-1.61s0-2.88,0-4.32c0-.7.13-1,.91-1,2.6.05,5.2.06,7.8,0,.86,0,1,.34,1,1.06,0,1.52,0,3,0,4.56,0,.59.09,1.26.8,1.24.94,0,.91.48.88,1.12s.21,1.26-.86,1.3-.82.93-.82,1.59C97.7,152.37,97.71,157.48,97.71,162.6Z" transform="translate(-6.87 -29.6)"/><path class="cls-2" d="M86.6,161.48a1.7,1.7,0,0,1-1.37-.22c-.14-3-.25-6-.66-9.06A1.22,1.22,0,0,0,83.16,151c-2.32,0-4.63,0-6.94,0-1,0-1.42.47-1.35,1.48.19,2.86.33,5.72.49,8.59a1.1,1.1,0,0,1-.92-.27V148.54a3.55,3.55,0,0,0,2,.45c3,0,6,0,9,0,.87,0,1.19.17,1.18,1.11C86.59,153.88,86.61,157.68,86.6,161.48Z" transform="translate(-6.87 -29.6)"/><path class="cls-7" d="M103.67,159.37c0-6.48,0-13,0-19.43,0-.94.15-1.3,1.21-1.29,5.51.06,11,0,16.55,0,.82,0,1.08.21,1.07,1.06q0,18,0,36.09a4.08,4.08,0,0,1-4,4.18c-4.68.1-9.35,0-14,.07-.87,0-.71-.54-.71-1Z" transform="translate(-6.87 -29.6)"/><path class="cls-7" d="M138,181.84c-1.72,0-3.44-.06-5.16,0-1.06,0-.89-.58-.92-1.22s0-1.28,1-1.16a15.42,15.42,0,0,0,2,0c2.07,0,2.83-.75,2.83-2.8q0-13.5,0-27c0-.92,0-1.84,0-2.75s-.39-1.37-1.37-1.36c-3.32,0-6.64,0-9.95,0-1,0-1.15-.35-1.17-1.23s.22-1.14,1.13-1.13c3.27.06,6.55,0,9.83.05,1.16,0,1.58-.42,1.54-1.55-.06-1.48,0-3,0-4.44,0-.62.1-.94.84-.93,2.68,0,5.35,0,8,0,.66,0,.81.26.8.85,0,1.56,0,3.12,0,4.68,0,.76.15,1.4,1.09,1.36.62,0,.67.35.58.76s.44,1.42-.41,1.51c-1.33.13-1.25,1-1.25,1.86,0,9.84-.08,19.67,0,29.5,0,3.14-1.77,5.12-5,4.94C141,181.77,139.47,181.84,138,181.84Z" transform="translate(-6.87 -29.6)"/><path class="cls-27" d="M136.3,162a1.91,1.91,0,0,1-1.17.23,40.53,40.53,0,0,1-.46-5.82c-.11-1.39-.28-2.78-.42-4.16a1.2,1.2,0,0,0-1.39-1.26c-2.32,0-4.63,0-7,0-1,0-1.43.45-1.36,1.47.2,2.78.36,5.57.54,8.36-.35.37.65,1.85-1,1.17V148.53a3.38,3.38,0,0,0,2,.46c3,0,5.91,0,8.86,0,1,0,1.38.2,1.36,1.3C136.26,154.17,136.3,158.08,136.3,162Z" transform="translate(-6.87 -29.6)"/><path class="cls-7" d="M80.77,170.15c-.76,0-1.52,0-2.27,0s-1.07-.11-1.12-.93c-.31-5.34-.67-10.68-1-16,0-.66.18-.82.8-.81,1.75,0,3.51,0,5.27,0,.65,0,.8.26.83.84q.47,8,1,16c0,.66-.11.94-.82.9C82.53,170.11,81.65,170.15,80.77,170.15Z" transform="translate(-6.87 -29.6)"/><path class="cls-7" d="M129.45,152.43c.84,0,1.68,0,2.51,0s.93.27,1,1q.45,7.83,1,15.66c.06.86-.1,1.2-1.06,1.15a45.47,45.47,0,0,0-4.67,0c-.85,0-1.08-.28-1.12-1q-.39-6.41-.82-12.79c-.06-1-.1-2-.22-3-.1-.76.18-1,.91-.93S128.61,152.43,129.45,152.43Z" transform="translate(-6.87 -29.6)"/><path class="cls-28" d="M65.46,149.63c0,2.36,0,4.72,0,7.07,0,1-.34,1.53-1.47,1.48-2.52-.1-2.71.57-2.69-2.63,0-4.23,0-8.47,0-12.7,0-1.76.15-1.89,2.05-1.89s2.1.14,2.1,1.85C65.46,145.08,65.46,147.36,65.46,149.63Z" transform="translate(-6.87 -29.6)"/><path class="cls-28" d="M61.3,169.12c0-2.31,0-4.63,0-6.94,0-1.53.14-1.65,1.63-1.66,2.53,0,2.53,0,2.53,2.57,0,3.95,0,7.91,0,11.86,0,1.84-.84,2.64-2.58,2.74-1.13.07-1.6-.36-1.58-1.5C61.33,173.84,61.3,171.48,61.3,169.12Z" transform="translate(-6.87 -29.6)"/><path class="cls-28" d="M111,149.64c0-2.35,0-4.71,0-7.06,0-1.38.23-1.59,1.6-1.62h.12c2.36,0,2.43,0,2.43,2.36q0,6.52,0,13.06c0,1.67-.12,1.79-1.74,1.79-2.41,0-2.41,0-2.41-2.42Z" transform="translate(-6.87 -29.6)"/><path class="cls-28" d="M111,169.13c0-2.32,0-4.64,0-6.95,0-1.53.14-1.65,1.62-1.66,2.54,0,2.54,0,2.54,2.56,0,4,0,7.91,0,11.87,0,1.84-.83,2.64-2.58,2.74-1.12.07-1.6-.35-1.58-1.49C111,173.84,111,171.48,111,169.13Z" transform="translate(-6.87 -29.6)"/><path class="cls-29" d="M64.05,150.53v5.37c0,.4,0,.84-.57.83s-.55-.46-.55-.85V145.13c0-.37-.12-.86.53-.83s.59.43.59.85Z" transform="translate(-6.87 -29.6)"/><path class="cls-30" d="M63.37,176.23c-.57.23-.49-.21-.49-.49q0-5.52,0-11c0-.44,0-.81.63-.78s.55.46.55.85c0,1.4,0,2.8,0,4.2-.66.21-.57.77-.59,1.28C63.4,172.25,63.58,174.24,63.37,176.23Z" transform="translate(-6.87 -29.6)"/><path class="cls-31" d="M63.37,176.23a.68.68,0,0,1-.29-.62q0-3.18,0-6.36c0-.27-.05-.59.31-.69s.45.25.65.42v5.87C64.05,175.42,64,176,63.37,176.23Z" transform="translate(-6.87 -29.6)"/><path class="cls-29" d="M112.61,150.43c0-1.75,0-3.5,0-5.25,0-.35-.19-.88.47-.88s.64.47.64.92q0,5.33,0,10.63c0,.38.12.85-.51.87s-.59-.49-.6-.91Z" transform="translate(-6.87 -29.6)"/><path class="cls-30" d="M113.05,176.23c-.57.23-.49-.21-.49-.49q0-5.52,0-11c0-.45.06-.81.63-.78s.55.46.55.86c0,2,0,3.91,0,5.87-.65.28-.57.88-.59,1.42A38.33,38.33,0,0,1,113.05,176.23Z" transform="translate(-6.87 -29.6)"/><path class="cls-32" d="M113.05,176.23c-.56-.62-.24-1.36-.27-2-.06-1,0-2.06,0-3.09,0-.83.4-.84,1-.44v4.19C113.73,175.42,113.71,176,113.05,176.23Z" transform="translate(-6.87 -29.6)"/></svg>