<svg id="圖層_1" data-name="圖層 1" xmlns="http://www.w3.org/2000/svg" viewBox="0 0 232.75 190.97"><defs><style>.cls-1{fill:#daf3c4;}.cls-2{fill:#0d9a64;}.cls-3{fill:#a0c77e;}.cls-4{fill:#f6864b;}.cls-5{fill:#d6f1c2;}.cls-6{fill:#e4f1e2;}.cls-7{fill:#fefefe;}.cls-8{fill:#38ad78;}.cls-9{fill:#fcfdfd;}.cls-10{fill:#fdfefd;}.cls-11{fill:#fdfdfd;}.cls-12{fill:#91d3a2;}.cls-13{fill:#a5dcab;}.cls-14{fill:#d9f2c4;}.cls-15{fill:#fbfdfc;}.cls-16{fill:#fcfdfc;}.cls-17{fill:#f8fbfa;}.cls-18{fill:#eff6f3;}.cls-19{fill:#f2f9f6;}.cls-20{fill:#cbe3d8;}.cls-21{fill:#97cab2;}.cls-22{fill:#fdfefe;}.cls-23{fill:#d7f2c3;}.cls-24{fill:#ceeebe;}.cls-25{fill:#9ec881;}.cls-26{fill:#36ac77;}.cls-27{fill:#92d4a2;}.cls-28{fill:#64b573;}.cls-29{fill:#6cc390;}.cls-30{fill:#3daf7a;}.cls-31{fill:#83bf78;}.cls-32{fill:#8cc27c;}.cls-33{fill:#61bf8b;}</style></defs><title>13</title><path class="cls-1" d="M66,85.91c1.3-1,2.31-2.39,3.64-3.59-.61,0-1.21,0-1.82,0-.26,0-.73.1-.47-.47,3.28-.55,3.88,0,3.45,3.32a12.39,12.39,0,0,0-.13,1.92c.11,5.27-.24,10.55.23,15.82a11.48,11.48,0,0,1,0,1.55c0,.68-.32,1.18-1.05,1.23-.91.06-1.06.61-1.09,1.38-.13,3.21.29,6.39.26,9.59,0,1,.61,1.06,1.36,1.06H81.77c2.52,0,2.63.08,2.59,2.65,0,2.32.39,4.62.25,6.94-.06,1.09.62,1.22,1.47,1.22h13.8c3.56,0,7.12-.11,10.67,0a8.76,8.76,0,0,0,9-8.74q.14-9.54,0-19.07c0-1.59-.24-3.18-.2-4.78,0-.83-.27-1.3-1.17-1.26-2.91.14-2.66-.48-2.67-2.8,0-2.76,0-5.52,0-8.28,0-1.61.28-1.86,1.9-1.89.71,0,1.43,0,2.15,0,1.19,0,1.31-.2.84-1.26-.38-.84-.74-1.68-1.11-2.52-.3-.68-.3-1.25.58-1.47.7-.18.58-.65.36-1.13-.51-1.13-1-2.25-1.5-3.4-.55-1.34-.36-1.6,1.07-1.73s1.45-.18,1.46-1.6c0-1.64,0-3.28,0-4.91a1.43,1.43,0,0,1,.15-1,26.26,26.26,0,0,1,3.42.2c1.57.25,1.61.15,1.64-1.4.71.18.56.79.6,1.27.06.88,0,1.76,0,2.64a.87.87,0,0,0,1,1c.68,0,1.36,0,2,.06a1.24,1.24,0,0,1,1.28,1.29c0,.56,0,1.12,0,1.68q0,25.68,0,51.35c0,2.16.39,4.3.25,6.47-.06,1,.37,1.35,1.34,1.34,2.32,0,4.64,0,7,0h13.92c1.59,0,1.66-.12,1.73-1.7.13-3.08-.31-6.15-.26-9.23,0-.84-.38-1.19-1.23-1.25-2-.16-2.11-.28-2.11-2.32q0-21.76,0-43.55c0-.62-.13-1.29.42-1.8l5.26,2.52c.46-.38,0-1,.45-1.31a2.34,2.34,0,0,1,.39,1.83c-.14,3.08.3,6.14.24,9.22,0,.92.37,1.3,1.28,1.28,1.2,0,2.4-.05,3.6,0s1.52.36,1.59,1.61c0,.48,0,1,0,1.44q0,17.63,0,35.26c0,2.21.38,4.39.26,6.59-.07,1.14.69,1.16,1.5,1.16h14.76c1.2,0,2.4,0,3.6,0s1.42-.13,1.43-1.47c0-4.4,0-8.8,0-13.19q0-7.32,0-14.64a3.58,3.58,0,0,1,.25-1.88c.72-.38.91.31,1.15.67a78.78,78.78,0,0,1,5.47,9.57c.36.76.71,1.52,1.06,2.35q0-31.75,0-63.4c0-.73-.24-1.54.44-2.15.51.22.49.69.52,1.12a15.7,15.7,0,0,1,0,1.68q0,36.15,0,72.29c0,2.68.33,5.35.26,8,0,.93.42,1.3,1.31,1.27.64,0,1.28,0,1.92,0h19.06c1.54,0,1.63-.11,1.65-1.63,0-1.32,0-2.64,0-4a1.81,1.81,0,0,1,.39-1.45c.51.63.21,1.38.23,2.07.05,1.47,0,3,0,4.43.05,1-.3,1.21-1.23,1.2-6,0-11.9,0-17.85,0-1.08,0-1.61.14-1.16,1.37a12,12,0,0,1,.22,1.53c.18.83-.25,2,.52,2.47a6.46,6.46,0,0,0,3.12.61,14.24,14.24,0,0,1,3.62.5,2.15,2.15,0,0,1-1.82.29,10.6,10.6,0,0,0-2-.17c-2.68,0-5.36.12-8,0a3.32,3.32,0,0,0-3.75,2.38,68.41,68.41,0,0,1-3.26,6.8,2.15,2.15,0,0,1-2.52,1.37,1,1,0,0,1-1-.91,8.23,8.23,0,0,1-.07-2.62,16,16,0,0,0,0-5.48,1,1,0,0,0-1.09-1c-.28,0-.56,0-.84,0h-24.7c-2,0-2.21.17-2.17,2.19.06,2.4.42,4.77.56,7.16.13,2.07.17,4.15.33,6.22.14,1.75.32,3.5.39,5.25,0,.49-.47.66-.76.94-.59.56-.51,1.3-.56,2s.17,1.37-.39,1.93a5.47,5.47,0,0,1-3.18,0c-.77-1.22-.5-2.6-.52-3.92,0-.58.65-.59,1.13-.66,1.27-.18,1.3-.26,1.19-1.51a9.73,9.73,0,0,0-.8-3c-2.22-5.35-4.5-10.67-6.7-16a1.9,1.9,0,0,0-2-1.35c-3.24,0-6.48,0-9.71,0-1.41,0-1.48.16-1.41,1.53a11.32,11.32,0,0,0,1.12,3.77q2.92,6.88,5.79,13.82a7.17,7.17,0,0,1,.37,1c.19.68-.06,1.09-.77,1.18a7.8,7.8,0,0,1-1.08,0H123a6.73,6.73,0,0,1-1.19-.06.79.79,0,0,1-.72-1,5.7,5.7,0,0,1,.43-1.24c2.13-5.09,4.22-10.19,6.42-15.25.51-1.14,0-2.19,0-3.28,0-.39-.51-.47-.88-.47-3.56,0-7.11,0-10.67,0-.87,0-1.24.6-1.53,1.3-1.49,3.54-3,7.09-4.43,10.62-.72,1.7-1.31,3.45-2.16,5.08a6.69,6.69,0,0,0-.32,4.87c.32,1.38.12,2.78.33,4.17a.67.67,0,0,1-.39.69,4.8,4.8,0,0,1-1.77.18c-5.34.14-10.66-.39-16-.25a1.94,1.94,0,0,1-1.75-.56c.28-.95,1.09-.64,1.69-.65,4.31,0,8.63,0,13,0l1.32,0a1.1,1.1,0,0,0,1.18-1.21,21.16,21.16,0,0,0-.26-4.06,1.19,1.19,0,0,0-1.21-1.1c-.48,0-1,0-1.44,0-4.2,0-8.4,0-12.6,0-1.76,0-2-.24-2-2q0-6.24,0-12.48a29.21,29.21,0,0,0-.25-3.1,1.26,1.26,0,0,0-1.38-1.32c-3.28,0-6.56,0-9.84,0-1.16,0-1.22.78-1.22,1.64v14.27c0,3,0,3-3.05,3-4.11,0-8.23,0-12.35,0-2.08,0-2.32.31-2.38,2.37,0,1,.41,2,0,3-1,.73-2.15.44-3.22.35-3.25-.28-6.49-.63-9.74-.81-.57,0-1.23,0-1.61-.58,1.66-.46,1.3-1.6,1.07-2.84a54.32,54.32,0,0,1-1.1-10.33,2.05,2.05,0,0,0-1.4-2.08c.08-.47.48-.52.82-.54.85,0,1-.55,1-1.28,0-2.19.12-4.39-.13-6.57.32-2.19.62-4.38,1-6.57a36.35,36.35,0,0,1,.71-3.6,24.26,24.26,0,0,0,.72-7.2c0-.37-.16-.8.24-1.1a1.89,1.89,0,0,1,.37,1.58c-.13,3,.29,6,.24,9,0,1,.42,1.32,1.37,1.31,3.24,0,6.48,0,9.71,0a8.36,8.36,0,0,0,7.67-6.37,13.32,13.32,0,0,0,.45-3.56q0-15.28,0-30.59C65.64,87.27,65.45,86.52,66,85.91Z" transform="translate(-6.87 -29.6)"/><path class="cls-2" d="M187.21,97c0,3.84,0,7.67,0,11.51,0,6.35,0,12.71,0,19.06,0,.8-.16,1.11-1,1.1q-10,0-20,0c-.88,0-1-.3-1-1.09-.45-14.53-.13-29.07-.19-43.61,0-1.19-.33-1.49-1.46-1.41-1.39.1-2.79,0-4.19,0-.69,0-.89-.21-.88-.89,0-3.94-.41-7.88-.21-11.82,1.88,0,3.76-.09,5.63,0,.81,0,1.1-.16,1.1-1q0-11.82,0-23.63c0-.85-.24-1.1-1.07-1.07-1.56.06-3.12,0-4.68,0-.56,0-.78-.17-.77-.75.11-3.63-.36-7.25-.26-10.88,0-1,.29-1.18,1.21-1.18q24,0,48,0c3,0,6,0,9,0,.89,0,1.21.17,1.22,1.17.51,27.37.08,54.75.22,82.13,0,1.55,0,1.59,1.56,1.59.69,0,.87.23.88.89a19,19,0,0,0,.16,4.39c0,2.19,0,4.39,0,6.59,0,.67-.19.89-.88.89q-11.51,0-23,0c-.85,0-.94-.35-1-1.06-.3-7.22-.2-14.45-.19-21.67q0-30.35,0-60.68c0-.45.2-.95-.18-1.36a2.38,2.38,0,0,1-1.6.35c-1.52,0-3,0-4.56,0-.94,0-1.38.3-1.38,1.3q0,11.16,0,22.31c0,1,.44,1.33,1.38,1.31s2.15,0,3.23,0c1.26.06,1.6.35,1.61,1.59,0,3.27.4,6.54.27,9.82-.07,1.82-.25,2-2.11,2.06-1,0-2,0-3,0-1.25,0-1.36.13-1.37,1.39,0,3.6,0,7.19,0,10.79C187.57,95.76,187.7,96.42,187.21,97Z" transform="translate(-6.87 -29.6)"/><path class="cls-1" d="M187.68,185.51a30.85,30.85,0,0,1-3.63,5.15,74.12,74.12,0,0,1-7.14,7.89A83.12,83.12,0,0,1,159.85,211a78.44,78.44,0,0,1-18.67,7.26,80.24,80.24,0,0,1-13.89,2.13,77.07,77.07,0,0,1-7.89.16A79.54,79.54,0,0,1,99,217.13a78.38,78.38,0,0,1-25-12.85,79.18,79.18,0,0,1-19.69-22,75,75,0,0,1-6.57-13.81,2.15,2.15,0,0,0-1.19-1.21,1.15,1.15,0,0,1,1.11-.3c3.93.5,7.88.68,11.82,1,2.91.23,5.82.45,8.73.57,1.8.07,3.58.35,5.39.29,1,0,1.37.56,1.37,1.52q0,5.28,0,10.56a4.26,4.26,0,0,0,.19,1.66c.58,2.32.58,2.32,3.06,2.32,2.64,0,5.28,0,7.92,0,1.58,0,1.78-.22,1.79-1.82,0-3.8,0-7.6,0-11.4a2.75,2.75,0,0,1,.34-1.84,2.79,2.79,0,0,1,1.74-.3c5.42.21,10.85.1,16.26.46,1.71.11,3.43-.19,5.12.19.7.51.35,1.16.21,1.75-.73,3-1.47,6.07-2.29,9.07a8,8,0,0,0,.13,3.2c.09.77.87.71,1.46.72,2.28,0,4.56,0,6.84,0,.72,0,1.44,0,2.16,0,1.38,0,1.73-.3,2.08-1.67q1.43-5.58,2.81-11.17a3,3,0,0,1,.77-1.72,2.6,2.6,0,0,1,1.61-.35c3.51,0,7,0,10.53,0,1.58,0,1.82.25,1.81,1.81,0,1.88.08,3.75-.05,5.62-.21.76-.8.93-1.48,1-1,0-1.92,0-2.88,0-1.55,0-1.76.26-1.81,1.84a18.66,18.66,0,0,0,.25,3c.16,1.26.49,1.6,1.76,1.63,2.32.06,4.64,0,7,0a28.33,28.33,0,0,0,4.78-.19,6.11,6.11,0,0,0,5.45-6.27c.05-2.32,0-4.64,0-7a2.24,2.24,0,0,1,.38-1.7,7.73,7.73,0,0,1,3.38-.19c.66,0,1,.47,1,1.1a70.36,70.36,0,0,1-.35,7.4,32.25,32.25,0,0,0,0,5.73c.12.89.53,1.29,1.38,1.31,1.8,0,3.59,0,5.39,0a3.79,3.79,0,0,0,1.75-.7.71.71,0,0,1,.41,0,3.33,3.33,0,0,0,2.22.7q3.24,0,6.46,0a2.74,2.74,0,0,0,2.24-.88.43.43,0,0,1,.4,0,2.43,2.43,0,0,0,2,.85c2.06-.07,4.12.1,6.19-.12A3.1,3.1,0,0,1,187.68,185.51Z" transform="translate(-6.87 -29.6)"/><path class="cls-2" d="M121.43,62.64c.41,2.42.1,4.86.18,7.29,0,.51-.34.56-.73.56h-2.32l2.21,5.05c.56,1.26.56,1.26-.85,1.3-.16,0-.32,0-.63,0,.65,1.47,1.25,2.89,1.9,4.29.32.7.28,1-.6.95-1.28-.06-2.56,0-3.84,0-.63,0-.83.2-.82.83q0,5.28,0,10.56c0,.64.23.87.84.8a.24.24,0,0,1,.12,0c.91,0,2.09-.39,2.66.16s.16,1.82.22,2.77c.48,7.46.19,14.93.23,22.39a9.09,9.09,0,0,1-7.56,9.18,8.45,8.45,0,0,1-1.43.1c-8.52,0-17,0-25.56,0-.91,0-1.27-.19-1.2-1.17.2-2.87-.41-5.73-.21-8.6.06-.85-.24-1.07-1.07-1.06-4.36,0-8.72,0-13.08,0-.94,0-1.23-.24-1.2-1.19.1-3.51-.36-7-.24-10.53,0-.82.23-1.2,1.07-1.05s1.15-.29,1.09-1.14c-.43-5.78-.18-11.57-.26-17.36,0-1.28.35-2.51.28-3.8,0-.71-.22-1-1-1s-1.58.28-2.3-.22l2.07-4.65c0-.37-.17-.34-.28-.34-2.11-.08-2.11-.08-1.23-2.08.58-1.31,1.15-2.63,1.72-4a.59.59,0,0,0,0-.23s-.08-.06-.11-.06c-2.32-.24-2.25-.24-2.34-2.6-.11-3.06-.26-6.12-.24-9.19,0-.85.24-1.1,1.08-1.08,2,.06,4-.06,6,.05,1.27.07,2-.34,2.12-1.78-1.92,0-3.85,0-5.78,0-.84,0-1.08-.2-1.06-1.05.1-3.59-.39-7.16-.22-10.75,0-.51-.13-1.07.73-1s.47-.48.41-.83c-.21-1.18-.5-2.35-.65-3.53-.08-.59-.83-1.38.33-1.78,0,0,0-.44-.08-.68-.22-1.17-.44-2.35-.69-3.52-.12-.61-.09-.94.7-.94q6,.06,12,0c.69,0,.87.27,1,.88.34,1.84.75,3.67,1.21,5.84,1.2-2.67,2.3-5,3.31-7.42A1.67,1.67,0,0,1,89.17,30c5.6.06,11.19,0,16.93,0-.66,1.49-1.3,2.86-1.86,4.25-.11.28-.78.86,0,1,.55.07,1.48.59,1.81-.48a10.33,10.33,0,0,0,.45-2c.08-.74.46-.88,1.12-.87q5.88,0,11.76,0c.67,0,.93.09.71.85-.3,1-.43,2.12-.68,3.16-.22.85-.4,1.6,1.09,1.21-.39,1.86-.74,3.55-1.1,5.25-.08.39-.29.8.4.83.5,0,.38.43.38.72-.07,3.67.39,7.33.27,11,0,.87-.29,1-1.09,1-6.92,0-13.84,0-20.76-.05-1.28,0-1.94.37-2,1.65a2.29,2.29,0,0,0,1.27.13c7.44,0,14.88,0,22.32,0,1,0,1.31.28,1.25,1.27C121.32,60.16,121.41,61.41,121.43,62.64Z" transform="translate(-6.87 -29.6)"/><path class="cls-2" d="M66,85.91q0,8,0,16.06c0,5.75,0,11.51,0,17.26a9.74,9.74,0,0,1-3,7.33,8,8,0,0,1-5.61,2.32c-3.47,0-7,0-10.42,0-.57,0-1,0-1-.79.08-3.83-.41-7.64-.15-11.47h0c2.24-.33,3-1.39,3.25-3.73.4-4.11.13-8.23.22-12.34a2,2,0,0,0-.12-1.17c-1.48,0-3,0-4.44-.07-.92-.06-1.1.26-1.1,1.13,0,8.52,0,17,0,25.56,0,2.88,0,2.88-2.91,2.88-4,0-7.92,0-11.88,0-.8,0-1.06-.16-1.08-1-.48-18.94-.12-37.89-.21-56.83-.05-12.8,0-25.6,0-38.4,0-1,.19-1.27,1.22-1.26q17.82.06,35.64,0c1,0,1.3.2,1.33,1.29.46,17.46.09,34.93.21,52.4C66,85.36,66,85.63,66,85.91Z" transform="translate(-6.87 -29.6)"/><path class="cls-2" d="M152.44,68.64q0,12.9,0,25.79c0,6.8,0,13.59,0,20.39,0,1,.26,1.22,1.2,1.19,2.15-.05,2.14,0,2.16,2.12,0,3.19.34,6.36.26,9.56,0,.9-.27,1.14-1.16,1.14q-11.21-.06-22.43,0c-.89,0-1.12-.23-1.14-1.13-.48-19.82-.1-39.64-.18-59.46,0-1.28-.35-1.58-1.58-1.54-2.83.09-2.8,0-2.84-2.84,0-.8.3-1.64-.18-2.42,0-2.28,0-4.55-.06-6.83,0-.65.24-.82.85-.8,1,0,2-.05,3,0s1.08-.26,1-1.08c-.39-7.29-.21-14.59-.28-21.89,0-1,.23-1.28,1.24-1.27,6.28,0,12.55,0,18.83,0,.8,0,1.06.16,1.09,1,.29,7.34.21,14.68.2,22,0,1.19-.29,2.38-.2,3.55C152.5,60.35,152.34,64.5,152.44,68.64Z" transform="translate(-6.87 -29.6)"/><path class="cls-2" d="M176.92,184.33a1.21,1.21,0,0,1-1.41,1.12c-2.79,0-5.58,0-8.37,0-.6,0-1.24,0-1.35-.86a2.52,2.52,0,0,1,0-1.22c-.23.34.13.82-.21,1.17a1.35,1.35,0,0,1-1.47.92H158c-1,0-1.32-.39-1.42-1.43-.42-4.4.42-8.75.43-13.13.09-1.22-.29-2.42-.14-3.65a4.36,4.36,0,0,0-.5-3.29,2.55,2.55,0,0,1-.13-2.19c0-.91,0-1.82.07-2.72,0-.53-.08-1.15.64-1.37,2.67-.25,5.35,0,7.88-.1h-6.27c-.31,0-.66.06-.79-.35a9.56,9.56,0,0,1-.5-3.17c-.31-4.3-.44-8.61-.77-12.9-.1-1.31-.18-2.62-.21-3.93,0-1,.35-1.45,1.41-1.45q13.37,0,26.72,0c1,0,1.32.37,1.42,1.4a36.2,36.2,0,0,1,.19,4.16c0,1.11-.53,2.2-.2,3.33.13.42-.43,1.18.41,1.23s1.7.43,2.2-.64c.92-1.95,1.87-3.88,2.81-5.82.46-1,1-1.93,1.37-2.92a1.61,1.61,0,0,1,1.66-1.09c3.24,0,6.47,0,9.7,0,.27.15.76.13.74.5-.06,1.2.68,2.37,0,3.59s-1.31,2.56-1.91,3.87-1.14,2.42-1.71,3.63c-.76,1.37-1.31,2.85-2.18,4.13.55-.37,1.2-.14,1.81-.22.88,0,1.76,0,2.64,0,1.11.1,1.23.54,1.51,1.59.67,2.47-1,4.14-1.79,6.12-1.09,2.34-2.21,4.66-3.39,6.95a5.55,5.55,0,0,1-1.1,1.68c-.26.27.05.35.17.49,1.52,0,3,0,4.56,0,1.2,0,1.43.33,1.17,1.44,0,.15-.18.38-.13.43,1.15,1.1.09,2-.32,2.86-1.47,3.14-3,6.23-4.5,9.38a5.67,5.67,0,0,1-5.59,3.54c-2.08,0-4.16.05-6.24.07-3-.29-6,.05-9-.06-.79,0-1.57,0-1.6-1.12a3.76,3.76,0,0,1-.08-1.1A3.76,3.76,0,0,1,176.92,184.33Z" transform="translate(-6.87 -29.6)"/><path class="cls-3" d="M74.81,182.65c-.29-.4-.16-.85-.16-1.28,0-3.67,0-7.34,0-11,0-.86-.21-1.15-1.13-1.18-5.87-.22-11.73-.67-17.6-1.11-3.12-.24-6.24-.56-9.37-.78-4.81-.45-9.6-1-14.38-1.71a89.26,89.26,0,0,1-15.65-3.37c-2.21-.75-4.53-1.32-6.3-3-2.95-2.84-3.77-6.31-3.18-10.27.77-5.25,4.4-7.52,9-8.94a119.4,119.4,0,0,1,21.11-4.13l6-.73c.64.12.47.63.48,1,0,1.94-.05,3.88,0,5.82,0,1-.22,1.49-1.3,1.33a.88.88,0,0,0-.88.22,2.72,2.72,0,0,1-1.78.56A157.05,157.05,0,0,0,21,147.16a36,36,0,0,0-5.25,1.67A6.59,6.59,0,0,0,13.78,150a1.18,1.18,0,0,0,0,2,6.41,6.41,0,0,0,2.15,1.27,60.68,60.68,0,0,0,12.3,3.07c4.48.78,9,1.29,13.52,1.88.42.05.89,0,1.21.4a6.22,6.22,0,0,0,3,.39c3.81.18,7.59.89,11.42.81a3.16,3.16,0,0,0,2.77,1c4.28,0,8.55,0,12.82,0,2.08,0,2.3.21,2.3,2.23q0,8.87,0,17.73C75.26,181.48,75.4,182.16,74.81,182.65Z" transform="translate(-6.87 -29.6)"/><path class="cls-3" d="M202.55,143.25c.62-1.29,1.25-2.58,1.85-3.88.28-.62.8-1.26,0-1.93-.24-.2,0-.45.05-.65a1,1,0,0,0-.5-1.41c1.3-.15,2.56.43,3.87.22,5.44.78,10.92,1.41,16.28,2.66a48,48,0,0,1,9.69,3,9.7,9.7,0,0,1,5.66,7.78c.86,5.72-1.95,10.59-7.3,12.42a103.52,103.52,0,0,1-19.72,4.33l-5.57.74c-2.65.38-5.3.7-8,.84-.24,0-.48.05-.67-.14,1.65-2.22,2.57-4.84,3.83-7.27l.71-1.35c1-.59,2.17-.42,3.26-.56,7.06-.9,14.13-1.72,21-3.59a24,24,0,0,0,4.5-1.65,4.33,4.33,0,0,0,1.17-.82c.75-.73.75-1.34,0-2a7,7,0,0,0-2.17-1.26,57.35,57.35,0,0,0-11.6-2.93c-5-.82-10-1.58-15-2A1.85,1.85,0,0,1,202.55,143.25Z" transform="translate(-6.87 -29.6)"/><path class="cls-3" d="M30.16,209.49a8.62,8.62,0,0,1-8.54-8.42,8.44,8.44,0,0,1,8.53-8.37,8.53,8.53,0,0,1,8.69,8.36A8.66,8.66,0,0,1,30.16,209.49Z" transform="translate(-6.87 -29.6)"/><path class="cls-4" d="M219.61,187.75a8.46,8.46,0,0,1-8.56-8.37,8.59,8.59,0,0,1,17.18.08A8.43,8.43,0,0,1,219.61,187.75Z" transform="translate(-6.87 -29.6)"/><path class="cls-5" d="M49.2,99.39c.48.32.22.8.22,1.19,0,4.19,0,8.37,0,12.55,0,2.54-1,3.55-3.56,3.5,1.24,0,1.54-1,1.95-1.93a16.29,16.29,0,0,0,1.44-7.29C49.09,104.75,49.2,102.07,49.2,99.39Z" transform="translate(-6.87 -29.6)"/><path class="cls-6" d="M198.24,167.27a61,61,0,0,0,6.87-.58,13,13,0,0,1,1.77-.12c-1.47.76-3.12.36-4.65.71-1.15.26-2.36.09-3.5.46-.27.06-.59.16-.77-.06S198,167.34,198.24,167.27Z" transform="translate(-6.87 -29.6)"/><path class="cls-2" d="M125.54,170.63c-1.12,4.4-2.27,8.8-3.33,13.22a1.51,1.51,0,0,1-1.74,1.36c-3.36,0-6.71,0-10.07,0-1.33,0-1.36-.27-1.43-1.43-.28-4.42,1.79-8.34,2.5-12.55,0-.27.09-.55.13-.82a5.67,5.67,0,0,1,.45-2.79c.24-.92.47-1.85.71-2.77.18-.72-.08-1.05-.82-1.06a20.94,20.94,0,0,1-2.86-.06c-1.06-.14-1.38-.67-1.08-1.71a19.48,19.48,0,0,0-.31-3.89c-.33-1,0-2.1-.65-3-.2-.29,0-.69.18-1,2.49-6,5-12,7.48-18a1.42,1.42,0,0,1,1.47-1h11c.94,0,1.48.36,1.11,1.41-.05.15-.16.38-.1.44,1,1.1.08,2-.3,2.93q-3.16,7.69-6.43,15.33c-.41,1-.27,1.2.8,1.2q9-.06,18,0c1,0,1.21-.21.79-1.19-2.23-5.2-4.36-10.44-6.63-15.63a26.45,26.45,0,0,1-.77-3.57c-.19-.64.43-.91,1-.91,3.84,0,7.68,0,11.51,0a1.29,1.29,0,0,1,1.22,1q3.72,8.94,7.48,17.87c.38.9.14,1.87.45,2.79.21.64-.48.81-1,.88-1.58.19-1.56.19-1.44,1.83.05.75,0,1.52.05,2.27.06.15,0-.05.06.1a20.4,20.4,0,0,1-.05,8.09q0,4.14,0,8.28c0,4.2-2.51,6.86-6.71,7-3.79.09-7.59,0-11.39,0-1,0-1.42-.4-1.5-1.41a40.76,40.76,0,0,1-.23-4.42c0-.93.38-1.39,1.38-1.34,1.24.06,2.48,0,3.72,0,.42,0,.9.11,1.13-.43a54.29,54.29,0,0,0-.13-7.86,40.71,40.71,0,0,1-.06-4.42c0-1.37-.17-1.52-1.52-1.53-2.87,0-5.74,0-8.6,0a1.44,1.44,0,0,0-1.67,1.29c-.28,1.29-.64,2.55-1,3.83A4.22,4.22,0,0,1,125.54,170.63Z" transform="translate(-6.87 -29.6)"/><path class="cls-7" d="M187.21,97c0-4.55,0-9.11-.05-13.66,0-.69.28-.77.85-.76,1.56,0,3.12,0,4.67,0,.75,0,1-.15,1-1,.12-3.7-.35-7.39-.25-11.1,0-.61-.24-.73-.78-.72-1.52,0-3,0-4.55,0-.71,0-1-.14-1-.91,0-8,0-16,0-24,0-.38-.12-.85.54-.83,2.47.06,4.94-.13,7.41.11q0,29.09,0,58.19c0,2.82,0,5.65-.09,8.5A81.85,81.85,0,0,0,187.21,97Z" transform="translate(-6.87 -29.6)"/><path class="cls-2" d="M74.81,182.65q0-9.59,0-19.16c0-2.22,0-2.22-2.18-2.22-4.51,0-9,0-13.54,0-1,0-1.74-.24-1.74-1.42a32.23,32.23,0,0,1-.21-4.05c.06-1.4.28-1.66,1.71-1.66,4.92,0,9.83,0,14.75,0,.95,0,1.21-.25,1.2-1.2,0-5.35,0-10.71,0-16.07,0-1.58.15-1.73,1.7-1.73h9.83c1.46,0,1.59.2,1.72,1.64.51,5.38.12,10.78.21,16.17,0,.93.25,1.2,1.2,1.19,4.79,0,9.59,0,14.39,0,1.52,0,1.59.19,1.78,1.71a28.43,28.43,0,0,1,.21,3.69c0,1.58-.14,1.72-1.69,1.72-4.88,0-9.76,0-14.64,0-.39,0-.88-.25-1.19.25a1.58,1.58,0,0,1,.37,1.1q0,3.09,0,6.18a1.62,1.62,0,0,1-.37,1.11q0,6.81,0,13.64c0,1.62-.12,1.74-1.79,1.74-3.23,0-6.47-.05-9.7,0-1.23,0-1.92-.23-1.77-1.63A3.32,3.32,0,0,0,74.81,182.65Z" transform="translate(-6.87 -29.6)"/><path class="cls-7" d="M42.94,158.66c-4.64-.41-9.25-1.06-13.85-1.8a75.33,75.33,0,0,1-11.42-2.53,13.49,13.49,0,0,1-3.9-1.77c-1.38-1-1.4-2.08,0-3,2.43-1.65,5.26-2.26,8-2.91a150.46,150.46,0,0,1,18-2.86l1.65-.23c1.53,0,1.65.12,1.66,1.59a64.38,64.38,0,0,0,1.42,12.14C44.88,158.58,44.87,158.58,42.94,158.66Z" transform="translate(-6.87 -29.6)"/><path class="cls-3" d="M88.32,169.92v-8.39a9.63,9.63,0,0,0,1.29.21L108,162c0,1.14.51,1.56,1.63,1.48,1-.07,1.92,0,2.88,0,.63,0,.91.21.73.85q-.81,3-1.64,6.09c-5.21-.09-10.43-.08-15.64-.31C93.41,170,90.87,170,88.32,169.92Z" transform="translate(-6.87 -29.6)"/><path class="cls-3" d="M152.91,169.94c0-2.73,0-5.46,0-8.19h3.33a2.77,2.77,0,0,1,.29,1.39,1.54,1.54,0,0,0,.11.81c1.47,2.25.28,4.62.37,6.93,0-.78-.34-1-1.09-1C154.91,170,153.91,169.94,152.91,169.94Z" transform="translate(-6.87 -29.6)"/><path class="cls-8" d="M157.76,157.2a3.37,3.37,0,0,0,2,.23,55.19,55.19,0,0,1,5.6.23h-8.4C157.14,157.38,157.62,157.58,157.76,157.2Z" transform="translate(-6.87 -29.6)"/><path class="cls-9" d="M208,123.67c3.31,0,6.63,0,9.95,0,.78,0,1.12.14,1.12,1,0,2.88.05,2.88-2.81,2.88-6.07,0-12.15,0-18.23,0-.88,0-1.14-.19-1.13-1.11,0-2.81,0-2.81,2.82-2.81Z" transform="translate(-6.87 -29.6)"/><path class="cls-7" d="M176.17,123.33c2.84,0,5.67,0,8.5,0,.79,0,1.1.14,1.1,1,0,2.84,0,2.84-2.84,2.84-5.07,0-10.13,0-15.2,0-.87,0-1.25-.12-1.23-1.14.07-2.73,0-2.73,2.73-2.73Z" transform="translate(-6.87 -29.6)"/><path class="cls-10" d="M190.94,42.67c-1.08,0-2.16-.05-3.24,0-.68,0-.76-.23-.78-.82-.1-3.07-.11-3.07,3-3.07,1.52,0,3,0,4.55,0,.63,0,.81.2.84.82.15,3.06.17,3.06-2.91,3.06Z" transform="translate(-6.87 -29.6)"/><path class="cls-7" d="M189.51,81.11c-2.59,0-2.52,0-2.61-2.59,0-1.11.32-1.36,1.33-1.27a26.78,26.78,0,0,0,3.23,0c.64,0,.88.2.79.82a1.76,1.76,0,0,0,0,.23C192.27,81.11,192.27,81.11,189.51,81.11Z" transform="translate(-6.87 -29.6)"/><path class="cls-7" d="M162.26,81.11c-2.46,0-2.39,0-2.49-2.47-.05-1.19.31-1.51,1.44-1.4a21.16,21.16,0,0,0,3,0c.52,0,.73.17.67.69a5.8,5.8,0,0,0,0,.59C164.87,81.11,164.87,81.11,162.26,81.11Z" transform="translate(-6.87 -29.6)"/><path class="cls-11" d="M162.36,42.67c-2.56,0-2.5,0-2.59-2.54,0-1.12.31-1.45,1.39-1.35a29.68,29.68,0,0,1,3,0c1.57.32.43,1.63.66,2.45.11.41.54,1.4-.65,1.39C163.56,42.66,163,42.67,162.36,42.67Z" transform="translate(-6.87 -29.6)"/><path class="cls-3" d="M125.54,170.63c.52-2.09,1.06-4.17,1.55-6.26.14-.64.36-.93,1.09-.92,3.39.05,6.79,0,10.18,0,.56,0,1,0,1,.77q0,6.54,0,13.07c0,.1-.11.2-.16.31,0-2.08,0-4.15,0-6.23,0-.56,0-1-.79-1-4.07,0-8.14,0-12.21,0A2.54,2.54,0,0,0,125.54,170.63Z" transform="translate(-6.87 -29.6)"/><path class="cls-12" d="M165.57,184.53c.06-.4-.1-.83.18-1.23a2.54,2.54,0,0,1,0,1.28A.42.42,0,0,1,165.57,184.53Z" transform="translate(-6.87 -29.6)"/><path class="cls-13" d="M176.92,184.33a1.53,1.53,0,0,1,.08-1,1.53,1.53,0,0,1,.08,1h-.16Z" transform="translate(-6.87 -29.6)"/><path class="cls-7" d="M118.45,119.24c.47,4.09-2.88,8.15-6.76,8.18-8.39.07-16.78,0-25.18,0-.74,0-.82-.29-.83-.91,0-3-.06-3,2.87-3,7.16,0,14.31-.06,21.47,0A9.22,9.22,0,0,0,118.45,119.24Z" transform="translate(-6.87 -29.6)"/><path class="cls-7" d="M86.85,101.77c4.63,0,9.27,0,13.91,0,.73,0,1,.12,1,1,0,2.9,0,3-2.9,2.88-8.62-.41-17.24-.17-25.85-.22-.77,0-1-.19-1-1,0-2.61,0-2.61,2.61-2.61Z" transform="translate(-6.87 -29.6)"/><path class="cls-7" d="M93.91,57.52c.92-2.12,1.87-4.23,2.76-6.35.21-.48.53-.52,1-.52,6.88,0,13.75,0,20.63,0,.55,0,.74.15.78.74.18,3.12.2,3.12-2.94,3.12-5.76,0-11.52.06-17.27,0-1.86,0-3.09.44-3.6,2.32C95.07,57.36,94.82,58,93.91,57.52Z" transform="translate(-6.87 -29.6)"/><path class="cls-7" d="M84.91,82c4,0,7.91,0,11.87,0,.83,0,1.09.23,1.08,1.07,0,2.82,0,2.82-2.8,2.82a28.76,28.76,0,0,1-3.83,0c-6.14-.79-12.3-.54-18.45-.57-.57,0-.74-.19-.77-.76C71.88,82,71.86,82,74.35,82Z" transform="translate(-6.87 -29.6)"/><path class="cls-7" d="M82.31,112.82c3.63,0,7.27,0,10.9,0,.9,0,1.25.17,1.22,1.16-.06,2.17,0,2.17-2.23,2.17-2.48,0-5-.39-7.41.09-4.49.9-9,.11-13.43.46-1,.08-1.28-.24-1.25-1.24.06-2.62,0-2.62,2.62-2.62Z" transform="translate(-6.87 -29.6)"/><path class="cls-1" d="M92.77,87.29c1.4,0,2.8,0,4.2,0,.68,0,.91.21.89.89,0,1.76,0,3.52,0,5.28,0,.61-.19.85-.83.85-2.75,0-5.51,0-8.27,0-.59,0-.93-.14-.86-.79a44,44,0,0,0-.27-5c0-.91.19-1.3,1.19-1.23C90.13,87.35,91.45,87.29,92.77,87.29Z" transform="translate(-6.87 -29.6)"/><path class="cls-1" d="M101.76,110.67c0,.87,0,1.75,0,2.63A2.72,2.72,0,0,1,99.53,116a24.49,24.49,0,0,1-3.21.1c-.45,0-.52-.3-.5-.65.16-2.54-.25-5.07-.26-7.61,0-.6.16-.85.81-.84,1.55,0,3.11,0,4.66,0,.59,0,.76.21.74.77C101.73,108.75,101.76,109.71,101.76,110.67Z" transform="translate(-6.87 -29.6)"/><path class="cls-10" d="M101.48,74.34c-.5-1.15-1.09-2.27-1.49-3.46A2.46,2.46,0,0,0,97.19,69c-2,.1-4,0-6,0a1.85,1.85,0,0,0-2,1.34c-.39,1.09-.94,2.12-1.4,3.18-.21.47-.49,1-1,.69s0-.69.13-1c1-2.38,2.12-4.73,3.13-7.12a1.36,1.36,0,0,1,1.53-1c1.88.06,3.76,0,5.64,0,.44,0,.83,0,1.06.52,1.16,2.76,2.37,5.5,3.55,8.24,0,.06,0,.15,0,.22Z" transform="translate(-6.87 -29.6)"/><path class="cls-14" d="M89,74.33c.54-1.21,1-2.21,1.43-3.24a.94.94,0,0,1,1-.61c2,0,4.08,0,6.11,0a.84.84,0,0,1,.94.55c.35.89.73,1.77,1.14,2.63.27.59,0,.68-.49.68Z" transform="translate(-6.87 -29.6)"/><path class="cls-7" d="M78.7,50.65c-.56,1.25-1.08,2.36-1.57,3.48-.16.38-.47.37-.79.37-1.59,0-3.19,0-4.78,0-.65,0-.78-.21-.8-.82-.09-3-.11-3,2.88-3Z" transform="translate(-6.87 -29.6)"/><path class="cls-15" d="M120.2,67.19a1.93,1.93,0,0,1,0,.48c-.14.46.38,1.28-.43,1.35s-1.86.5-2.26-.84a17.71,17.71,0,0,0-1-2.28c-.25-.54-.07-.73.48-.71s.8,0,1.2,0C120.2,65.2,120.2,65.2,120.2,67.19Z" transform="translate(-6.87 -29.6)"/><path class="cls-16" d="M115.7,78.77a4.6,4.6,0,0,1,0-.83c.07-.4-.32-1.09.48-1.08.64,0,1.45-.4,1.81.61a23.19,23.19,0,0,0,1.11,2.5c.31.63.07.76-.51.73-.32,0-.64,0-.95,0C115.7,80.69,115.7,80.69,115.7,78.77Z" transform="translate(-6.87 -29.6)"/><path class="cls-15" d="M68.66,67.09c0-1.89,0-1.89,1.86-1.89,1.65,0,1.65,0,1,1.54-.25.58-.51,1.16-.77,1.74a.86.86,0,0,1-.78.6c-.89.08-1.5,0-1.29-1.16A4.59,4.59,0,0,0,68.66,67.09Z" transform="translate(-6.87 -29.6)"/><path class="cls-17" d="M100.29,43.09c.9-2,1.76-3.88,2.56-5.78.27-.64.65-.7,1.26-.47-.85,1.94-1.72,3.85-2.54,5.78C101.32,43.22,100.93,43.23,100.29,43.09Z" transform="translate(-6.87 -29.6)"/><path class="cls-18" d="M104.91,39.65c-.2,1-.42,1.92-.59,2.89a.73.73,0,0,1-1,.62c-.68-.22-.13-.65,0-.9.42-1.06.93-2.09,1.4-3.13C105.12,39.12,105,39.4,104.91,39.65Z" transform="translate(-6.87 -29.6)"/><path class="cls-19" d="M70.34,78.84c0,.8.25,1.35-.19,1.81a.56.56,0,0,1-.43,0C69.56,80,69.9,79.57,70.34,78.84Z" transform="translate(-6.87 -29.6)"/><path class="cls-20" d="M104.91,39.65l-.25-.52.25-.71c.22,0,.35,0,.25.26A1.59,1.59,0,0,1,104.91,39.65Z" transform="translate(-6.87 -29.6)"/><path class="cls-21" d="M105.16,38.68l-.25-.26.27-.64C105.53,38.14,105.35,38.41,105.16,38.68Z" transform="translate(-6.87 -29.6)"/><path class="cls-7" d="M43.68,51.24c0-2.2,0-4.4,0-6.6,0-.68.08-1,.89-1,1.31.07,2.64,0,3.95,0,.65,0,.91.14.91.85q0,6.72,0,13.44c0,.64-.12.94-.85.92-1.31-.05-2.64-.06-4,0-.73,0-1-.17-1-.93C43.71,55.71,43.68,53.47,43.68,51.24Z" transform="translate(-6.87 -29.6)"/><path class="cls-7" d="M49.4,79.19c0,2.2,0,4.4,0,6.59,0,.69-.21.9-.88.87q-2-.06-4.08,0c-.65,0-.8-.2-.79-.81q0-6.72,0-13.43c0-.67.16-.91.86-.89,1.36.06,2.72,0,4.07,0,.64,0,.82.21.82.83C49.39,74.63,49.4,76.91,49.4,79.19Z" transform="translate(-6.87 -29.6)"/><path class="cls-7" d="M64.47,119.14c.38,4.23-3.15,8.61-7.6,8.35-2.83-.17-5.67-.06-8.51,0-.79,0-1-.21-1-1,0-2.86,0-2.86,2.85-2.86,1.92,0,3.84-.07,5.75,0A9,9,0,0,0,64.47,119.14Z" transform="translate(-6.87 -29.6)"/><path class="cls-7" d="M35.76,127.46c-1.87,0-3.75,0-5.62,0-.65,0-.87-.16-.89-.85-.06-3-.08-3,2.91-3s6.06,0,9.09,0c.77,0,1,.18,1,1,0,2.89,0,2.89-2.79,2.89Z" transform="translate(-6.87 -29.6)"/><path class="cls-10" d="M46.39,66.26h.24c3.08,0,3.16.1,2.79,3.25-.06.48-.24.6-.67.6-1.59,0-3.18,0-4.78,0-.43,0-.56-.17-.53-.56v-.12C43.22,66.26,43.22,66.26,46.39,66.26Z" transform="translate(-6.87 -29.6)"/><path class="cls-7" d="M46.35,97.91c-3.18,0-3.16,0-2.93-3.19,0-.54.22-.67.71-.66,1.52,0,3,0,4.54,0,.59,0,.72.21.75.76C49.58,97.91,49.59,97.91,46.35,97.91Z" transform="translate(-6.87 -29.6)"/><path class="cls-7" d="M46.35,42.25c-3.18,0-3.17,0-2.93-3.2,0-.54.23-.66.72-.65,1.51,0,3,0,4.54,0,.59,0,.71.21.74.76C49.57,42.25,49.59,42.25,46.35,42.25Z" transform="translate(-6.87 -29.6)"/><path class="cls-22" d="M143.52,127.39c-3.24,0-6.47,0-9.71,0-.78,0-1.11-.11-1.11-1,0-2.87,0-2.87,2.84-2.87,5.91,0,11.83,0,17.74,0,.94,0,1.32.15,1.29,1.21-.07,2.68,0,2.68-2.66,2.68Z" transform="translate(-6.87 -29.6)"/><path class="cls-11" d="M141.91,49.05c2.71,0,5.43,0,8.14,0,.75,0,.93.22.94,1,0,3,0,3-2.86,3-4.79,0-9.58,0-14.37,0-.85,0-1.06-.24-1-1.07,0-2.85,0-2.85,2.85-2.85Z" transform="translate(-6.87 -29.6)"/><path class="cls-7" d="M131.05,63.34c0,1.94-.61,2.4-2.52,2-.38-.08-.42-.28-.42-.58V63c0-1.59,0-1.59,1.57-1.58C131.05,61.45,131.05,61.45,131.05,63.34Z" transform="translate(-6.87 -29.6)"/><path class="cls-7" d="M202.55,143.25c6,.66,12,1.4,18,2.48a51.86,51.86,0,0,1,10.38,2.79,8.78,8.78,0,0,1,1.77,1c1.4,1,1.42,2,0,3a18.89,18.89,0,0,1-6.32,2.49A127.49,127.49,0,0,1,209.67,158a53.08,53.08,0,0,1-6.89.7c.57-1.23,1.16-2.45,1.72-3.67.26-.57.68-1.15-.07-1.69-.2-.14-.06-.34,0-.53.27-1.31.1-1.5-1.27-1.53l-2.51,0c-.64-.84-.22-1.74-.15-2.62a6.72,6.72,0,0,1,.38-1.71Z" transform="translate(-6.87 -29.6)"/><path class="cls-7" d="M175.2,172.08c0,3,0,6,0,9,0,.78-.2,1-1,1-2-.05-4.08-.06-6.12,0-.89,0-1.15-.2-1.15-1.12,0-5.88,0-11.75,0-17.63,0-1.88-.15-2-2.06-2-2.12,0-4.24,0-6.36,0-1.12,0-.81-.71-.83-1.28s-.19-1.17.83-1.14c2.32.08,4.64,0,7,0,1,0,1.53-.37,1.45-1.38,0-.66.14-.91.84-.89q3.3.06,6.6,0c.65,0,.85.2.79.82-.12,1.1.41,1.48,1.49,1.45,2.12-.05,4.24,0,6.35,0,.9,0,1.36.07,1.34,1.18s-.29,1.27-1.27,1.23c-2.12-.08-4.24,0-6.36,0-1.14,0-1.59.41-1.57,1.54C175.22,165.92,175.2,169,175.2,172.08Z" transform="translate(-6.87 -29.6)"/><path class="cls-7" d="M202.84,136.85c-.57,1.2-1.06,2.28-1.58,3.34-1.1,2.3-2.23,4.59-3.32,6.89a4.2,4.2,0,0,1-4.18,2.64q-3.1-.06-6.23,0c-.73,0-1-.29-.82-.9s-.58-1.49.71-1.47a2.46,2.46,0,0,0,2.38-1.66c1.26-2.67,2.57-5.31,3.81-8a1.22,1.22,0,0,1,1.31-.87C197.51,136.88,200.09,136.85,202.84,136.85Z" transform="translate(-6.87 -29.6)"/><path class="cls-7" d="M202.87,169.23c-1.8,3.73-3.47,7.3-5.24,10.82a3.66,3.66,0,0,1-3.45,2c-2.24,0-4.48,0-6.72,0-.8,0-.87-.44-.75-1s-.54-1.4.68-1.37a2.45,2.45,0,0,0,2.39-1.64c1.27-2.71,2.59-5.39,3.87-8.09.21-.44.36-.81,1-.8C197.33,169.25,200,169.23,202.87,169.23Z" transform="translate(-6.87 -29.6)"/><path class="cls-7" d="M202.89,152.67c-1.83,3.74-3.52,7.29-5.3,10.81a3.36,3.36,0,0,1-3.1,1.92c-2.36,0-4.71,0-7.07,0-.73,0-.84-.38-.71-.88s-.54-1.41.65-1.41a2.65,2.65,0,0,0,2.51-1.85c1.22-2.64,2.53-5.24,3.79-7.86.21-.44.36-.8,1-.79C197.33,152.69,200,152.67,202.89,152.67Z" transform="translate(-6.87 -29.6)"/><path class="cls-7" d="M180.44,164.61h.72c2.35,0,2.32,0,2.43,2.3q.32,7,.71,14c.06.93-.15,1.27-1.13,1.21a34.69,34.69,0,0,0-3.95,0c-.72,0-1-.19-1-.92-.18-4-.41-8-.62-11.95-.07-1.24-.1-2.48-.23-3.71-.08-.78.21-1,.92-.91S179.73,164.61,180.44,164.61Z" transform="translate(-6.87 -29.6)"/><path class="cls-7" d="M158.31,173.43c.17-2.63.36-5.25.49-7.88,0-.68.17-1,.95-1,1.43.07,2.87.06,4.31,0,.71,0,.86.24.82.89-.33,5.3-.65,10.59-.93,15.89,0,.62-.31.71-.82.7-1.48,0-3,0-4.43,0-.69,0-.89-.21-.84-.89C158,178.61,158.17,176,158.31,173.43Z" transform="translate(-6.87 -29.6)"/><path class="cls-7" d="M164.76,148.51c.09,1.64.16,3.27.29,4.9,0,.59-.15.77-.72.77-1.64,0-3.28,0-4.91,0-.58,0-.75-.21-.77-.77q-.22-5-.51-9.92c0-.64.07-.94.81-.92,1.56.05,3.12,0,4.67,0,.62,0,.83.18.86.8C164.54,145.09,164.66,146.8,164.76,148.51Z" transform="translate(-6.87 -29.6)"/><path class="cls-7" d="M167.76,148.32c-.08-1.59-.14-3.19-.26-4.78-.06-.71.1-1,.88-1,1.52.06,3,0,4.56,0,.59,0,.83.12.86.77.18,3.31.4,6.62.64,9.93.05.66-.1.92-.82.9-1.59,0-3.19,0-4.79,0-.63,0-.81-.23-.83-.83-.05-1.68-.16-3.35-.25-5Z" transform="translate(-6.87 -29.6)"/><path class="cls-7" d="M183.83,149.1c-.05,1-.16,2.64-.22,4.32,0,.55-.18.77-.76.76-1.64,0-3.28,0-4.92,0-.53,0-.8-.09-.76-.72.25-3.39.46-6.78.65-10.17,0-.49.14-.71.69-.7,1.63,0,3.27,0,4.91,0,.62,0,.74.24.7.78C184,145,184,146.71,183.83,149.1Z" transform="translate(-6.87 -29.6)"/><path class="cls-7" d="M171.12,137.19c4.08,0,8.16,0,12.24,0,1.09,0,1,.55,1,1.25s-.16,1.09-1,1.09q-12.3,0-24.6,0c-.9,0-1-.33-1-1.11s0-1.24,1-1.22C162.88,137.23,167,137.19,171.12,137.19Z" transform="translate(-6.87 -29.6)"/><path class="cls-1" d="M185.55,168.45a2,2,0,0,0,1.47.33h4.79c.6,0,.8.13.49.76-1.31,2.67-2.62,5.36-3.88,8.06-.51,1.08-1.43.67-2.19.68s-.5-.78-.52-1.19c-.17-2.87-.29-5.73-.42-8.6A.15.15,0,0,1,185.55,168.45Z" transform="translate(-6.87 -29.6)"/><path class="cls-1" d="M185,157.2c.5-1,.22-2.07.35-3.1.31-.37-.31-1.08.47-1.28,1.15.5,2.36.18,3.54.24.91.05,1.82,0,2.94,0l-3.44,7a1.71,1.71,0,0,1-3-1.47c0-.48-.12-.86-.67-1C184.86,157.56,184.93,157.37,185,157.2Z" transform="translate(-6.87 -29.6)"/><path class="cls-23" d="M200.87,146.86c.19,1.45-.33,2.87-.23,4.33h-2C199.38,149.7,200.12,148.28,200.87,146.86Z" transform="translate(-6.87 -29.6)"/><path class="cls-24" d="M175.73,149c-.16-1.86-.31-3.72-.49-5.58,0-.42.09-.58.51-.6s.68.1.65.6c-.1,1.47-.19,2.94-.28,4.41C175.83,148.17,176.36,148.78,175.73,149Z" transform="translate(-6.87 -29.6)"/><path class="cls-25" d="M186,160.08l2.8,0c-.25.61-.37,1.33-1.07,1.61C186.54,162.16,186,161.67,186,160.08Z" transform="translate(-6.87 -29.6)"/><path class="cls-8" d="M185,157.2l.15.43h-8.2v-.19h6.56A2.37,2.37,0,0,0,185,157.2Z" transform="translate(-6.87 -29.6)"/><path class="cls-26" d="M166.14,147.3v-2.57h.12v2.58Z" transform="translate(-6.87 -29.6)"/><path class="cls-26" d="M166.5,149.33v2.58h-.12v-2.57Z" transform="translate(-6.87 -29.6)"/><path class="cls-27" d="M175.73,149l.39-1.17a6.32,6.32,0,0,1-.2,2.41c-.08.11-.15.11-.21,0Z" transform="translate(-6.87 -29.6)"/><path class="cls-28" d="M185.25,165.83l.24,1c-.24.37.08.84-.23,1.2a4.45,4.45,0,0,1-.19-2.2Q185.16,165.68,185.25,165.83Z" transform="translate(-6.87 -29.6)"/><path class="cls-29" d="M185.79,152.82c-.51.3-.11.93-.47,1.28v-1.68C185.62,152.37,185.65,152.66,185.79,152.82Z" transform="translate(-6.87 -29.6)"/><path class="cls-30" d="M166.73,155a1.57,1.57,0,0,1-.1-1.19C167,154.25,166.69,154.65,166.73,155Z" transform="translate(-6.87 -29.6)"/><path class="cls-31" d="M185.25,165.83h-.18c.06-.36-.33-.71,0-1.15C185.4,165.07,185.25,165.46,185.25,165.83Z" transform="translate(-6.87 -29.6)"/><path class="cls-32" d="M185.26,168c.12-.4-.14-.86.23-1.2l.06,1.62-.26,0Z" transform="translate(-6.87 -29.6)"/><path class="cls-33" d="M175.71,150.23h.21v1.12A1.47,1.47,0,0,1,175.71,150.23Z" transform="translate(-6.87 -29.6)"/><path class="cls-7" d="M110.24,181.83l2.42-9.58q1.32-5.22,2.65-10.44c.34-1.34.1-1.65-1.29-1.67-1.24,0-2.49-.08-3.72,0-1,.07-1.08-.36-1.09-1.18s.19-1.16,1.12-1.15c9.27,0,18.55,0,27.82,0,4,0,7.92,0,11.88,0,.83,0,1.18.12,1.17,1.09,0,5.92,0,11.83,0,17.75a4.77,4.77,0,0,1-4.77,5.1c-3.75.14-7.51,0-11.27.07-1,0-.6-.75-.62-1.19s-.32-1.2.68-1.17,2.07,0,3.11,0c1.69,0,2.51-.8,2.52-2.51,0-5.12,0-10.23,0-15.35,0-1.07-.45-1.51-1.51-1.51-4,0-8.07,0-12.11,0-1.23,0-1.42.77-1.64,1.65-1.6,6.34-3.21,12.68-4.76,19-.21.84-.52,1.08-1.36,1.06C116.42,181.8,113.39,181.83,110.24,181.83Z" transform="translate(-6.87 -29.6)"/><path class="cls-7" d="M135.35,136.57H145.5a.66.66,0,0,1,.71.48c2.38,5.69,4.77,11.38,7.24,17.25-2.21,0-4.27,0-6.32,0-1.43,0-3.13.43-4.23-.19s-1.26-2.46-1.82-3.77c-1.79-4.22-3.55-8.45-5.32-12.68C135.62,137.33,135.51,137,135.35,136.57Z" transform="translate(-6.87 -29.6)"/><path class="cls-7" d="M126.76,136.57c-2.44,5.82-4.82,11.46-7.18,17.12a.91.91,0,0,1-1,.61h-9.89l2.2-5.32q2.43-5.85,4.84-11.69a1,1,0,0,1,1-.73C120,136.58,123.31,136.57,126.76,136.57Z" transform="translate(-6.87 -29.6)"/><path class="cls-7" d="M86.6,170c0,3.64,0,7.28,0,10.92,0,.79-.22,1-1,1-2.75,0-5.51,0-8.27,0-.9,0-1.13-.22-1.13-1.12,0-7,0-14,0-21,0-1.92,0-1.95-1.94-1.95-4.87,0-9.75,0-14.63,0-1,0-1.08-.37-1.07-1.18s0-1.2,1-1.19c5,.06,9.92,0,14.88,0,1.59,0,1.71-.12,1.71-1.7,0-5.36,0-10.72,0-16.07,0-1,.28-1.27,1.27-1.25,2.71.08,5.43.06,8.15,0,.8,0,1,.22,1,1,0,5.44,0,10.87,0,16.31,0,1.65,0,1.7,1.66,1.7,4.92,0,9.84,0,14.75,0,1,0,1.16.3,1.19,1.21s-.32,1.16-1.22,1.15c-5,0-9.91,0-14.87,0-1.14,0-1.55.31-1.53,1.49C86.64,162.92,86.6,166.48,86.6,170Z" transform="translate(-6.87 -29.6)"/></svg>