<svg id="圖層_1" data-name="圖層 1" xmlns="http://www.w3.org/2000/svg" viewBox="0 0 232.77 191.04"><defs><style>.cls-1{fill:#6270d8;}.cls-2{fill:#c4e2f3;}.cls-3{fill:#6293d8;}.cls-4{fill:#f6bf4b;}.cls-5{fill:#c2dff2;}.cls-6{fill:#bedcf1;}.cls-7{fill:#fefefe;}.cls-8{fill:#fdfdfe;}.cls-9{fill:#6294d8;}.cls-10{fill:#7788de;}.cls-11{fill:#a1b9ea;}.cls-12{fill:#abc5ec;}.cls-13{fill:#c4e1f3;}.cls-14{fill:#fcfcfd;}.cls-15{fill:#fcfcfe;}.cls-16{fill:#fafafd;}.cls-17{fill:#f3f4fb;}.cls-18{fill:#f6f7fc;}.cls-19{fill:#d7daf3;}.cls-20{fill:#b1b7e9;}.cls-21{fill:#fdfefe;}.cls-22{fill:#bfdcf2;}.cls-23{fill:#6289d8;}.cls-24{fill:#6c99db;}.cls-25{fill:#99b0e7;}.cls-26{fill:#7687dd;}.cls-27{fill:#7485dd;}.cls-28{fill:#7d8fe0;}.cls-29{fill:#798bdf;}</style></defs><title>12</title><path class="cls-1" d="M158.16,69.84c1.92,0,3.84-.07,5.75,0,.72,0,1-.2,1-1q0-11.92,0-23.87c0-.69-.22-.9-.89-.89-1.56,0-3.12,0-4.68,0-.62,0-1-.1-.94-.84.1-3.63-.37-7.25-.25-10.88,0-.9.25-1.14,1.14-1.14q28.56,0,57.1,0c1,0,1.14.39,1.15,1.25.52,27.34.09,54.68.22,82,0,1.59,0,1.63,1.54,1.64.67,0,.89.21.91.89a17.91,17.91,0,0,0,.16,4.39c.24,2.31,0,4.63.11,6.94,0,.47-.21.62-.65.62h-2.64c-5,0-10.08,0-15.11,0-1.72,0-3.4.43-5.13.3s-1.86-.32-1.94-1.9c-.23-4.59-.36-9.19-.23-13.78.64-22.34.1-44.68.27-67,0-.62.2-1.3-.35-1.82-2.1-.46-4.21-.16-6.32-.16-.47,0-.68.35-.72.8s0,.72,0,1.08q0,10.56,0,21.11c0,1.81,0,1.85,1.9,1.87,1,0,1.92,0,2.88,0a1.28,1.28,0,0,1,1.43,1.4c0,3.47.42,6.94.25,10.42-.06,1.32-.32,1.58-1.67,1.63-1.12,0-2.24,0-3.36,0-1.32,0-1.43.11-1.43,1.45,0,3.92,0,7.83,0,11.75a5.9,5.9,0,0,1,0,.84c.06,9.76,0,19.51,0,29.26,0,2.7-.07,2.78-2.73,2.78H167.48c-.4,0-.8,0-1.2,0-1.17-.09-1.53-.37-1.51-1.55,0-2.29-.29-4.55-.29-6.83q0-17.5,0-35V84.54c0-1.48-.11-1.57-1.56-1.59-1.16,0-2.32,0-3.48,0-.92,0-1.43-.47-1.41-1.4.05-3-.44-6.07-.25-9.1C157.84,71.56,158.05,70.71,158.16,69.84Z" transform="translate(-6.84 -29.57)"/><path class="cls-2" d="M195.11,44.18c.38.32.21.75.21,1.13,0,21.78.05,43.57,0,65.36,0,3.75-.15,7.51-.08,11.26,0,2.07.25,4.13.2,6.21,0,.65.29.8.88.8,7.71,0,15.43,0,23.14,0,.78,0,.93-.32.92-1,0-2.16,0-4.32,0-6.48.38.31.23.74.23,1.12,0,1.68,0,3.36,0,5s0,1.53-1.59,1.53c-5.84,0-11.68,0-17.52,0-1,0-1.56.13-1.1,1.31a3.16,3.16,0,0,1,.14,1.3c-.15,2,.62,3.27,2.78,3.4a1,1,0,0,1-1,.31c-1.12-.17-1,.42-1,1.26a36.81,36.81,0,0,1,.29,6.38c-.26,3.22-.39,6.45-.87,9.64a37.06,37.06,0,0,1-1.12,5.81c1.24.26,2.62-.73,3.95.13-.05.42-.38.5-.69.54-3,.39-6,.5-9,.73a1,1,0,0,1-.56-.18c-.46-.44-.17-.9,0-1.32a10.94,10.94,0,0,1,1.13-2.24c.9-1.23.66-2.56.55-3.89-.06-.65-.59-.7-1.08-.72-1.07-.06-2.16,0-3.23,0-1.44,0-1.62-.31-1-1.55,1.75-3.37,3.25-6.87,5-10.22.65-1.22.2-2.32.18-3.48,0-.46-.54-.55-.94-.56-2.88,0-5.76,0-8.64,0a2,2,0,0,0-1.77,1.39c-1.23,2.6-2.41,5.23-3.77,7.77a2.14,2.14,0,0,1-2.54,1.31c-.49-.1-.84-.33-.89-.83a8.61,8.61,0,0,1-.08-2.63,16,16,0,0,0,0-5.48c-.09-.73-.41-1.09-1.14-1.08H149.63c-2,0-2.2.14-2.16,2.19.05,2.4.42,4.77.57,7.17.12,2.07.17,4.14.33,6.22.13,1.74.31,3.49.4,5.25,0,.45-.39.63-.73.83a1.34,1.34,0,0,0-.53.73,20.7,20.7,0,0,0-.06,2.49,1.14,1.14,0,0,1-1.23,1.27,6,6,0,0,1-2.35-.17c-.53-.4-.41-1-.44-1.54,0-.36,0-.72,0-1.08-.16-1.83-.16-1.84,1.58-2.24.57-.13.85-.42.76-1a12,12,0,0,0-.61-2.92c-2.3-5.49-4.64-11-6.89-16.49a2.06,2.06,0,0,0-2.18-1.46c-3.19,0-6.39,0-9.59,0-1.39,0-1.46.16-1.38,1.55a10.81,10.81,0,0,0,1.07,3.66q2.88,6.79,5.71,13.6a11.73,11.73,0,0,1,.43,1.12c.29,1,.06,1.31-1,1.41-.28,0-.56,0-.84,0h-17c-1.58,0-1.86-.45-1.25-1.93,2.09-5,4.14-10.06,6.34-15a6.71,6.71,0,0,0,.28-3.72c-.07-.72-.71-.66-1.22-.66-1.92,0-3.84,0-5.76,0-1.44,0-2.87,0-4.31,0a1.7,1.7,0,0,0-1.76,1.16q-3.57,8.52-7.11,17c-.53,1.27,0,2.5.13,3.75a12.13,12.13,0,0,1,.07,4.69,3.12,3.12,0,0,1-2.5-.42,13.76,13.76,0,0,1-.49-3.06,1.27,1.27,0,0,0-1.33-1.25c-.48,0-1,0-1.44,0H72.93c-.48,0-1,0-1.44,0A1.19,1.19,0,0,1,70.21,156c-.06-3.83,0-7.67,0-11.51a1.25,1.25,0,0,1,1.33-1.37c.48,0,1,0,1.44,0h22A1,1,0,0,0,96.07,142a17.78,17.78,0,0,0-.26-4.18,1,1,0,0,0-1-.86,13.85,13.85,0,0,0-1.44,0h-33C58,137,58,137,58,139.35c0,6.24,0,12.48,0,18.71a4.18,4.18,0,0,1-.22,1.89c-1.09.6-2.26.28-3.37.18-3.37-.28-6.74-.59-10.12-.87-.49,0-1.07.05-1.36-.53,1.41-.9,1.38-.89,1.07-2.72a61,61,0,0,1-1.11-10.35,2.26,2.26,0,0,0-1.15-2.17c0-.17.09-.34.25-.36,1.39-.15,1.4-1.12,1.36-2.17-.07-2,.1-3.91-.14-5.86.32-2.24.6-4.48,1-6.71a29,29,0,0,1,1.44-6.23,6.67,6.67,0,0,1,.6,3.6c0,3-.35,2.74,2.78,2.75,2.43,0,4.88-.14,7.3,0,5.41.38,9.26-4,9.33-9.19,0-3.44,0-6.87,0-10.3q0-10.6,0-21.2c0-.66-.16-1.38.38-1.94,1.3-1,2.31-2.39,3.64-3.59-.6,0-1.21,0-1.81,0-.28,0-.73.08-.47-.48,3.29-.52,3.88,0,3.43,3.34a19.94,19.94,0,0,0-.12,3c.1,4.91-.24,9.83.22,14.74a10.16,10.16,0,0,1,0,1.56c0,.67-.32,1.18-1.05,1.22-.91.06-1.06.62-1.09,1.39-.13,3.2.29,6.38.26,9.58,0,1,.61,1.06,1.36,1.06H81.05c.52,0,1,0,1.56,0,1.46,0,1.78.31,1.74,1.8-.07,2.56.38,5.1.26,7.66,0,1,.38,1.34,1.35,1.34,8.55,0,17.11,0,25.66,0,4.22,0,7.9-3.9,8-8.39.11-6.44.08-12.87,0-19.31,0-1.63-.24-3.26-.2-4.9,0-.89-.39-1.22-1.23-1.19-2.76.1-2.61-.36-2.61-2.74,0-2.8,0-5.6,0-8.4,0-1.54.29-1.79,1.84-1.83.8,0,1.59,0,2.39,0s1.11-.3.75-1.1-.72-1.61-1.06-2.41-.59-1.47.55-1.79c.64-.18.42-.67.26-1.08-.47-1.19-1.07-2.32-1.53-3.52s-.32-1.48,1-1.61c1.56-.15,1.58-.16,1.58-1.72s0-3.28,0-4.92a1.26,1.26,0,0,1,.16-.91,24.65,24.65,0,0,1,3.43.19c1.53.25,1.61.12,1.63-1.41.65.15.56.71.59,1.16.07.87,0,1.75,0,2.63s.33,1.1,1.08,1.1,1.36,0,2,.06a1.17,1.17,0,0,1,1.15,1.16c.06.6.05,1.2.05,1.8q0,24.94,0,49.9c0,2.68.36,5.35.26,8,0,.84.34,1.27,1.21,1.22.16,0,.32,0,.48,0H154c1.55,0,1.57-.07,1.63-1.63.13-3.13-.29-6.23-.25-9.35,0-.87-.42-1.16-1.25-1.21-2-.11-2.1-.26-2.1-2.19q0-21.9,0-43.79c0-.59-.1-1.22.41-1.69l5.27,2.53c.46-.38,0-1,.46-1.32,0,.84,0,1.69,0,2.52-.16,3.12.4,6.21.24,9.32,0,.69.24.9.9.88,1.4,0,2.81.08,4.2,0,1.21-.1,1.42.35,1.42,1.47,0,12.56-.06,25.11,0,37.67,0,2.06.25,4.13.2,6.2,0,.93.6.75,1.13.75h16.2c1.2,0,2.4-.07,3.59,0,1,.07,1.19-.32,1.18-1.23q0-14.57,0-29.14c0-.44,0-.88,0-1.32.72.05.95.68,1.26,1.16a74.36,74.36,0,0,1,6.27,11.57q0-31.75,0-63.31A3.2,3.2,0,0,1,195.11,44.18Z" transform="translate(-6.84 -29.57)"/><path class="cls-2" d="M188.39,184.54a79,79,0,0,1-27,25.58,79.52,79.52,0,0,1-42.86,10.4A79.32,79.32,0,0,1,74,204.29a82.61,82.61,0,0,1-11.4-10.72A76.29,76.29,0,0,1,50.4,174.92q-1.15-2.43-2.1-4.95c-.47-1.26-.75-2.6-2.45-2.7a2.34,2.34,0,0,1,1.94-.28c4.76.53,9.53.77,14.3,1.15,6.79.54,13.6.72,20.39,1.18a1.94,1.94,0,0,1,1,.25,9.34,9.34,0,0,1-.44,7,3.65,3.65,0,0,1-2.29,1.64,8.22,8.22,0,0,1-2.61.29H60c-1.85,0-2,.13-2,2a24.79,24.79,0,0,0,.26,3,1.25,1.25,0,0,0,1.43,1.26h.59c8.6,0,17.19,0,25.79,0,4.18,0,7.38-1.8,9.24-5.69a9.06,9.06,0,0,0,.84-3.83c0-1.2,0-2.4,0-3.6a2.05,2.05,0,0,1,.36-1.48,16.16,16.16,0,0,1,5.55-.16.72.72,0,0,1,.63.49,3.07,3.07,0,0,1-.17,1.64c-.63,2.55-1.27,5.11-1.93,7.66a9.41,9.41,0,0,0-.34,4c.14.86.48,1.2,1.27,1.24l.71,0h8.26c1.78,0,2.06-.23,2.49-1.92.94-3.71,1.86-7.43,2.79-11.14.16-.61.2-1.29.81-1.68A3.59,3.59,0,0,1,118,170q5.3,0,10.6,0a2.3,2.3,0,0,1,1.79.45,3.13,3.13,0,0,1,.32,2c0,1.36.05,2.72,0,4.07s-.54,1.85-1.92,1.91c-1,.05-2.08,0-3.12,0s-1.36.47-1.41,1.39a20.35,20.35,0,0,0,.28,3.82,1.29,1.29,0,0,0,1.38,1.23c4,0,8.07.34,12.08-.19,3.38-.44,5.36-2.81,5.44-6.24.05-2.23,0-4.47,0-6.7a2.27,2.27,0,0,1,.37-1.71,7.08,7.08,0,0,1,3.51-.16c.91.1.86.88.89,1.55,0,3.36-.54,6.69-.48,10,.09,4.34.17,3.67,3.56,3.68,1.59,0,3.2.27,4.75-.32a1.29,1.29,0,0,1,.82-.11,5.29,5.29,0,0,0,2.32.46c2.07,0,4.13,0,6.2,0a2.85,2.85,0,0,0,2.36-.89.41.41,0,0,1,.4,0,2.54,2.54,0,0,0,2.14.83c4.61-.07,9.23,0,13.84,0a9.45,9.45,0,0,0,3.16-.53C187.62,184.49,188,184.28,188.39,184.54Z" transform="translate(-6.84 -29.57)"/><path class="cls-1" d="M121.43,62.65c.46,2.41.13,4.85.2,7.28,0,.56-.42.59-.84.59h-2.2c.75,1.71,1.43,3.27,2.12,4.83s.63,1.41-.89,1.48c-.12,0-.23,0-.49.1.62,1.42,1.21,2.81,1.84,4.17.36.78.21,1.06-.68,1-1.24-.06-2.48,0-3.72,0-.6,0-.85.18-.84.82,0,3.52,0,7,0,10.55,0,.63.22.89.83.82h.12c.91.07,2.08-.39,2.67.2s.16,1.82.22,2.76c.47,7.5.18,15,.22,22.52a9.08,9.08,0,0,1-7.2,9,7.7,7.7,0,0,1-1.66.14c-8.56,0-17.12,0-25.67,0-.91,0-1.29-.19-1.22-1.18.18-2.91-.41-5.81-.21-8.72.06-.91-.44-.92-1.11-.92H69.73c-.61,0-1.09,0-1.07-.85.11-3.59-.37-7.16-.25-10.76,0-.87.21-1.29,1.13-1.14s1.11-.28,1-1.09c-.4-5.38-.17-10.77-.27-16.15,0-1.69.3-3.33.28-5,0-.78-.25-1-1-1s-1.51.28-2.19-.23l2.1-4.78c-.14-.11-.19-.19-.25-.19-2.18-.1-2.17-.1-1.27-2.17l1.76-4c-.13-.08-.16-.11-.2-.11-2.3-.24-2.27-.24-2.31-2.62,0-2.9-.34-5.8-.24-8.72,0-1.56,0-1.56,1.52-1.56h5.64c1.5,0,1.5,0,2.06-1.72-1.94,0-3.83,0-5.72,0-.86,0-1.18-.17-1.15-1.11.11-3.5-.39-7-.22-10.51,0-.57-.18-1.23.82-1.19.59,0,.37-.49.31-.81-.2-1.1-.48-2.19-.62-3.29-.08-.68-.79-1.5.29-2.07.1-.06,0-.61-.1-.92-.2-1.06-.41-2.11-.64-3.17-.15-.68,0-1,.79-1,4,0,7.92,0,11.87,0,.66,0,.9.22,1,.86.33,1.84.75,3.67,1.2,5.83,1.2-2.68,2.31-5,3.32-7.44A1.61,1.61,0,0,1,89.12,30c5.6.06,11.19,0,17,0-.65,1.48-1.28,2.84-1.84,4.23-.12.3-.76.88,0,1,.55.08,1.48.6,1.8-.5,0-.11,0-.24.06-.35.61-2.46.61-2.46,3.11-2.46,3.36,0,6.72,0,10.07,0,.71,0,1,.07.78.92a34.18,34.18,0,0,0-.75,3.51c-.06.3-.28.85.3.83,1.1-.06.76.56.63,1.13-.25,1.13-.54,2.26-.7,3.4-.07.55-.8,1.44.51,1.63.07,0,.13.43.12.66-.07,3.59.38,7.17.28,10.76,0,1-.34,1.23-1.3,1.22-7,0-13.91,0-20.87,0-.39,0-.88-.18-1.14.17a2,2,0,0,0-.56,1.27c.09.55.73.26,1.12.26,7.44,0,14.87,0,22.31,0,1.14,0,1.45.34,1.38,1.42S121.42,61.45,121.43,62.65Z" transform="translate(-6.84 -29.57)"/><path class="cls-1" d="M66,85.91q0,16.47,0,32.94a13.22,13.22,0,0,1-.43,3.43A8.7,8.7,0,0,1,57,128.89c-3.32,0-6.63,0-9.94,0-.92,0-1.16-.28-1.14-1.16a24.93,24.93,0,0,0-.26-5.59l0-.68c.28-1.61-.1-3.24.2-4.84.49-.09,1,.12,1.47-.21,2.05-1.31,1.9-3.51,2-5.47.15-3.74,0-7.5,0-11.25a.61.61,0,0,0-.13-.32c-1.48,0-3,0-4.43-.06-1-.06-1.1.32-1.1,1.16,0,9,0,18,.05,27,0,1.16-.29,1.45-1.44,1.43-4.44-.07-8.88,0-13.32,0-.89,0-1.12-.21-1.14-1.12-.51-31.74-.07-63.48-.24-95.22,0-1,.3-1.18,1.21-1.18q17.88,0,35.76,0c1,0,1.2.34,1.22,1.29.48,17.42.1,34.85.22,52.27C66,85.27,66,85.59,66,85.91Z" transform="translate(-6.84 -29.57)"/><path class="cls-1" d="M152.43,68.63q0,10.86,0,21.71c0,8.16,0,16.31,0,24.47,0,.86.18,1.19,1.12,1.17,2.24,0,2.21,0,2.24,2.26,0,3.11.33,6.21.26,9.33,0,.94-.18,1.31-1.23,1.3q-11.16-.08-22.31,0c-1,0-1.18-.28-1.21-1.21-.48-19.82-.1-39.64-.18-59.46,0-1.23-.31-1.54-1.52-1.51-2.87.1-2.84,0-2.88-2.82,0-.81.31-1.66-.19-2.44,0-2.27,0-4.55-.06-6.83,0-.65.26-.83.86-.81,1,0,2.08,0,3.12,0,.67,0,.9-.18.89-.87,0-1.68-.19-3.34-.22-5-.09-5.71,0-11.43-.05-17.15,0-.93.22-1.22,1.19-1.21,6.28,0,12.56,0,18.83,0,.76,0,1.11.09,1.14,1,.29,7.31.21,14.61.2,21.92,0,1.23-.29,2.47-.2,3.68C152.49,60.34,152.34,64.48,152.43,68.63Z" transform="translate(-6.84 -29.57)"/><path class="cls-1" d="M188.39,184.54a9.93,9.93,0,0,1-4.86.94c-4.62,0-9.23,0-13.84,0-.82,0-1.67,0-1.73-1.14a3.89,3.89,0,0,1-.08-1.13,3.89,3.89,0,0,1-.08,1.13c-.15.87-.7,1.16-1.54,1.15-2.71,0-5.42,0-8.13,0a1.41,1.41,0,0,1-1.43-.66,2.72,2.72,0,0,1-.06-1.33c-.08.53,0,1.13-.4,1.56a2,2,0,0,1-1.45.43H149c-1.09,0-1.45-.39-1.58-1.63-.41-4.12.37-8.17.42-12.26a5.54,5.54,0,0,0-.14-2.22,15,15,0,0,1,.08-3.21,2.13,2.13,0,0,0-.31-1.59,3,3,0,0,1-.36-2.51c.3-1.27-.08-2.61.2-3.9a.45.45,0,0,1,.47-.48c2.68-.26,5.36,0,7.88-.11h-6.27c-.31,0-.66,0-.8-.35a9.82,9.82,0,0,1-.5-3.17c-.25-3.58-.35-7.18-.55-10.77-.1-1.9-.51-3.78-.44-5.71.06-1.56.21-1.75,1.71-1.76,8.76,0,17.52,0,26.28,0,1.11,0,1.5.29,1.58,1.47a41.54,41.54,0,0,1,.18,4.17c0,1-.51,2.05-.21,3.11.13.47-.42,1.25.47,1.35s1.74.3,2.25-.82c.85-1.89,1.8-3.74,2.71-5.61a25.67,25.67,0,0,0,1.21-2.61,2.06,2.06,0,0,1,2.29-1.46c2.8,0,5.6,0,8.4,0,1.35,0,1.49.2,1.28,1.55,0,.07-.1.18-.08.22,1.19,1.57-.25,2.67-.79,3.85-1.53,3.38-3.2,6.7-4.88,10.2h4.38c1.43,0,1.57.17,1.35,1.58,0,.21-.1.38.09.53.63.52.29,1.08,0,1.62l-2.2,4.65a1.81,1.81,0,0,1-.29,1.25c-1.11,2.15-2,4.39-3.39,6.5,1.87.33,3.76-.24,5.55.38a1.06,1.06,0,0,1,.58,1.3,2.61,2.61,0,0,0,.15,1.41c-1.82,4.3-3.93,8.46-6.06,12.6A7.31,7.31,0,0,1,188.39,184.54Z" transform="translate(-6.84 -29.57)"/><path class="cls-3" d="M83.5,169.72c-3.86-.18-7.73-.29-11.58-.55-5.28-.36-10.57-.68-15.84-1.07-3.41-.26-6.81-.71-10.23-.83-6-.72-12-1.32-17.91-2.37-5.55-1-11.09-2-16.16-4.61A9.05,9.05,0,0,1,7.21,154a12.36,12.36,0,0,1,.57-7.72c1.32-3.35,4.12-4.92,7.34-6a96.78,96.78,0,0,1,18.57-4l9.5-1.21c.63.13.47.64.47,1.05,0,1.94,0,3.88.05,5.82,0,1-.24,1.5-1.3,1.34a.74.74,0,0,0-.66.2,3.35,3.35,0,0,1-2,.57,161.22,161.22,0,0,0-18.66,3,36.3,36.3,0,0,0-5.36,1.71,6.86,6.86,0,0,0-1.84,1.1c-.89.75-.89,1.41,0,2.19a7.11,7.11,0,0,0,2.07,1.19,61.23,61.23,0,0,0,12.29,3.06c4.49.78,9,1.29,13.52,1.88a1.71,1.71,0,0,1,1.22.39,9.84,9.84,0,0,0,3.49.42c3.52.23,7,.8,10.54.81a2.34,2.34,0,0,1,.58.14c.57.56.5,1.32.61,2,.25,1.53.42,1.71,2,1.74s3.2,0,4.79,0h16.4a8.51,8.51,0,0,1,1.43.06c.41.06.88.18.93.62C83.92,166.22,84.26,168,83.5,169.72Z" transform="translate(-6.84 -29.57)"/><path class="cls-3" d="M195.11,168c-2.06-.53-4.18,0-6.32-.31,2-2.49,2.93-5.43,4.41-8.09l9.91-.76a1.22,1.22,0,0,0,.42-.19,5.3,5.3,0,0,1,2.53-.57c7.09-.89,14.19-1.73,21.11-3.61a24.19,24.19,0,0,0,4.38-1.61,4.33,4.33,0,0,0,1.17-.82,1.2,1.2,0,0,0,0-2,7,7,0,0,0-2.27-1.3,60.08,60.08,0,0,0-11.6-2.91c-5.39-.91-10.82-1.61-16.26-2.17-.46-.05-1,0-1.2-.6a66.16,66.16,0,0,0-.56-7.44c-.08-.6,0-.73.58-.58a5.73,5.73,0,0,0,1.89.12c8.6,1,17.21,1.92,25.55,4.38a33.09,33.09,0,0,1,4.94,1.79,9.7,9.7,0,0,1,5.7,7.86c.84,5.81-2,10.57-7.36,12.38a102.21,102.21,0,0,1-19.6,4.28c-4,.53-8.07,1-12.11,1.46C198.61,167.34,196.88,167.81,195.11,168Z" transform="translate(-6.84 -29.57)"/><path class="cls-3" d="M30.22,192.7a8.52,8.52,0,0,1,8.61,8.43A8.61,8.61,0,0,1,21.62,201,8.44,8.44,0,0,1,30.22,192.7Z" transform="translate(-6.84 -29.57)"/><path class="cls-4" d="M219.62,187.75a8.47,8.47,0,0,1-8.58-8.36,8.6,8.6,0,0,1,17.19.06A8.43,8.43,0,0,1,219.62,187.75Z" transform="translate(-6.84 -29.57)"/><path class="cls-5" d="M49.19,99.39c.45.27.24.72.24,1.08q0,6.47,0,12.94a2.71,2.71,0,0,1-2.11,3,23.44,23.44,0,0,1,1.62-4.69,4.6,4.6,0,0,0,.29-1.51C49.2,106.62,49.2,103,49.19,99.39Z" transform="translate(-6.84 -29.57)"/><path class="cls-6" d="M195.11,168a12.87,12.87,0,0,1,5.29-.73,4,4,0,0,1-2.3.4,1.8,1.8,0,0,0-2,1.63c-.1.38-.23.76-.34,1.14-.41-.44-.78-.86-.4-1.53A.65.65,0,0,0,195.11,168Z" transform="translate(-6.84 -29.57)"/><path class="cls-2" d="M45.83,116.64c-.15,1.61.2,3.24-.2,4.84C45.67,119.87,45.31,118.24,45.83,116.64Z" transform="translate(-6.84 -29.57)"/><path class="cls-7" d="M195.11,44.18v66.68A92.22,92.22,0,0,0,187.22,97c0-4.52,0-9-.05-13.55,0-.69.22-.89.89-.87,1.56,0,3.12,0,4.68,0,.7,0,.94-.15,1-.92.13-3.71-.34-7.4-.26-11.11,0-.58-.21-.76-.77-.75-1.52,0-3,0-4.55,0-.73,0-1-.21-1-1q0-11.92,0-23.86c0-.55.06-.91.76-.89C190.32,44.15,192.72,44.16,195.11,44.18Z" transform="translate(-6.84 -29.57)"/><path class="cls-8" d="M207.94,127.6c-3.35,0-6.7,0-10.05,0-.74,0-1-.13-1-1,0-3,0-3,2.91-3,6,0,12.06,0,18.08,0,1,0,1.23.27,1.22,1.22,0,2.73,0,2.73-2.73,2.73Z" transform="translate(-6.84 -29.57)"/><path class="cls-7" d="M176,127.18c-2.84,0-5.67,0-8.5,0-.79,0-1-.22-1-1,0-2.85-.05-2.85,2.86-2.85,5.06,0,10.13,0,15.2,0,.95,0,1.2.26,1.19,1.2-.05,2.66,0,2.66-2.68,2.66Z" transform="translate(-6.84 -29.57)"/><path class="cls-7" d="M191.16,38.83c1.08,0,2.16,0,3.23,0s.91.8.78,1.31c-.22.85.88,2.34-.76,2.49-2.25.21-4.54.05-6.81.06-.44,0-.7-.1-.66-.59a.48.48,0,0,0,0-.12c-.24-3.15-.24-3.15,2.91-3.15Z" transform="translate(-6.84 -29.57)"/><path class="cls-7" d="M189.59,81.11c-2.67,0-2.63,0-2.67-2.66,0-.93.22-1.27,1.18-1.2a28.79,28.79,0,0,0,3.35,0c.64,0,.88.21.8.83a2.16,2.16,0,0,0,0,.36C192.26,81.11,192.26,81.11,189.59,81.11Z" transform="translate(-6.84 -29.57)"/><path class="cls-7" d="M162.45,77.27c2.41,0,2.35,0,2.44,2.42,0,1.13-.23,1.58-1.42,1.44a19.5,19.5,0,0,0-2.86,0c-.63,0-.88-.21-.8-.82,0-.12,0-.24,0-.36C159.79,77.27,159.79,77.27,162.45,77.27Z" transform="translate(-6.84 -29.57)"/><path class="cls-8" d="M162.42,38.82c2.44,0,2.38,0,2.47,2.44.05,1.17-.29,1.62-1.45,1.42a5.89,5.89,0,0,0-.84,0c-2.84,0-2.81,0-2.81-2.8,0-.84.24-1.16,1.08-1.07A13.34,13.34,0,0,0,162.42,38.82Z" transform="translate(-6.84 -29.57)"/><path class="cls-1" d="M143.78,170.19c0,2.6,0,5.2,0,7.8,0,4.43-2.44,7.09-6.84,7.22-3.71.11-7.43,0-11.15,0-1.07,0-1.57-.47-1.64-1.58-.08-1.35-.26-2.69-.24-4,0-1.07.37-1.64,1.56-1.56s2.4,0,3.59,0c.95,0,1.29-.39,1.28-1.29,0-2,0-4.08,0-6.12a3.14,3.14,0,0,1-.34-1.73c0-1.32,0-2.63,0-4,0-.69-.23-1.16-1-1.16q-4.79,0-9.57,0c-.68,0-1,.42-1.13,1-.36,1.39-.7,2.79-1,4.18a2.46,2.46,0,0,1-.75,1.45c-1.13,4.52-2.28,9-3.38,13.58a1.41,1.41,0,0,1-1.55,1.19c-3.44,0-6.87,0-10.31,0-.94,0-1.3-.35-1.35-1.46-.23-4.63,1.9-8.74,2.67-13.14-.19-1.64.44-3.12.84-4.65.58-2.2.58-2.19-1.65-2.2a8.74,8.74,0,0,1-1.91-.08c-.94-.2-1.21-.72-.94-1.76-.44-1.62-.06-3.31-.58-5a5.8,5.8,0,0,1,.27-4.1c2.46-5.46,4.67-11,6.95-16.56a1.65,1.65,0,0,1,1.72-1.17c3.56,0,7.12,0,10.68,0,1.28,0,1.47.24,1.26,1.47,0,.19-.15.41,0,.56.7.61.28,1.25,0,1.85q-3.23,7.74-6.48,15.47c-.06.14-.13.29-.2.43-.66,1.53-.66,1.53,1,1.53,5.88,0,11.76,0,17.64,0,.94,0,1.2-.15.79-1.13-2.23-5.21-4.35-10.46-6.62-15.66a18,18,0,0,1-.76-3.58c-.2-.9.63-1,1.28-1h9.72c2.65,0,2.27.07,3.12,2.09,2.34,5.56,4.66,11.12,7,16.67a13.15,13.15,0,0,1,.45,2.92c.15.81-.68.89-1.27.85-1.16-.09-1.6.17-1.23,1.47a11.3,11.3,0,0,1,.12,2.86A18.65,18.65,0,0,1,143.78,170.19Z" transform="translate(-6.84 -29.57)"/><path class="cls-1" d="M83.5,169.72c0-1.44,0-2.88,0-4.32.06-1-.3-1.27-1.28-1.26-7.43,0-14.87,0-22.3,0-1.87,0-2-.09-2.13-2-.06-.71-.18-1.41-.27-2.12q0-10.78,0-21.58c0-1.8.07-1.87,1.91-1.87h34.9c1.7,0,1.63,0,1.86,1.7a27,27,0,0,1,.21,3.69c0,1.44-.16,1.6-1.57,1.6-7.67,0-15.35,0-23,0-1.06,0-1.35.27-1.33,1.33.07,3.67.06,7.35,0,11,0,.9.27,1.15,1.16,1.14,7.44,0,14.87,0,22.3,0,2,0,2,0,2.24,2a20.93,20.93,0,0,1,.22,2.73,19.25,19.25,0,0,1,0,8.41c-.11,2.27.23,4.56-.21,6.82a9.73,9.73,0,0,1-9.56,8c-9.11,0-18.22,0-27.33,0-1.05,0-1.48-.42-1.57-1.49-.1-1.34-.21-2.69-.23-4,0-1.08.41-1.47,1.5-1.47,6.56,0,13.11,0,19.66,0,3.31,0,4.77-1.45,4.77-4.73C83.51,172.12,83.5,170.92,83.5,169.72Z" transform="translate(-6.84 -29.57)"/><path class="cls-7" d="M201.37,143a45.33,45.33,0,0,0,5.8.75c7.62,1,15.28,1.82,22.62,4.31a10.76,10.76,0,0,1,2.59,1.22c1.85,1.22,1.85,2.29,0,3.5a20.63,20.63,0,0,1-6,2.26A131.1,131.1,0,0,1,209.71,158c-2.06.25-4.11.58-6.18.7a10.29,10.29,0,0,0-3.08.23c-1.07.18-1.17-.35-1-1.18a72.5,72.5,0,0,0,1.37-8.92c.18-1.62.19-3.25.27-4.88C201.13,143.59,201.08,143.26,201.37,143Z" transform="translate(-6.84 -29.57)"/><path class="cls-7" d="M43,158.65c-4.62-.38-9.2-1-13.77-1.77A68.88,68.88,0,0,1,16.83,154a12.08,12.08,0,0,1-3-1.44c-1.44-1-1.46-2.12,0-3.12a20.11,20.11,0,0,1,6.68-2.55,145.63,145.63,0,0,1,19.35-3.18l1.9-.24c1-.14,1.43.4,1.44,1.35a60.07,60.07,0,0,0,1.46,12.61C45.07,159.43,43.56,158.34,43,158.65Z" transform="translate(-6.84 -29.57)"/><path class="cls-3" d="M96.48,170.16c0-2.8,0-5.61,0-8.41l2.36.19c0,1.12.47,1.58,1.59,1.51,1,0,1.91,0,2.86,0,.8,0,1,.36.8,1l-1.59,6.16c-.09-.48-.46-.46-.82-.46Z" transform="translate(-6.84 -29.57)"/><path class="cls-9" d="M143.78,170.19c0-2.73,0-5.47,0-8.21,1,0,2.28.31,3-.16s.19-1.9.33-2.89c0-.28,0-.56.22-.78,0,1.27,0,2.55,0,3.82,0,1-.24,2.1.82,2.82.12.08.16.38.12.56-.41,2-.12,4-.25,5.93,0,.1-.11.2-.17.3.17-1.18-.33-1.6-1.51-1.44A22.35,22.35,0,0,1,143.78,170.19Z" transform="translate(-6.84 -29.57)"/><path class="cls-10" d="M148.63,157.2a3.93,3.93,0,0,0,2.22.23,48.06,48.06,0,0,1,5.36.24h-8.39Z" transform="translate(-6.84 -29.57)"/><path class="cls-3" d="M116.43,170.46c.51-2,1-4.07,1.54-6.11.15-.62.35-.94,1.08-.93,3.39.05,6.78,0,10.16,0,.84,0,1.13.32,1.12,1.14,0,2,0,4.06,0,6.09a1.26,1.26,0,0,0-.77-.26Z" transform="translate(-6.84 -29.57)"/><path class="cls-11" d="M156.24,185a7.41,7.41,0,0,0,.31-1.69,2.72,2.72,0,0,1,.15,1.46Z" transform="translate(-6.84 -29.57)"/><path class="cls-12" d="M167.8,184.33a1.53,1.53,0,0,1,.08-1,1.53,1.53,0,0,1,.08,1h-.16Z" transform="translate(-6.84 -29.57)"/><path class="cls-7" d="M118.52,119.31a7.53,7.53,0,0,1-7.52,8.14c-8,0-16.07,0-24.11,0-1,0-1.24-.34-1.22-1.29.06-2.58,0-2.58,2.55-2.58h21.11C114,123.61,115.43,123,118.52,119.31Z" transform="translate(-6.84 -29.57)"/><path class="cls-7" d="M87,101.77c4.56,0,9.12,0,13.68,0,.87,0,1.16.18,1.14,1.11,0,2.75,0,2.85-2.72,2.73-8.66-.41-17.32-.18-26-.22-.84,0-1.07-.25-1.07-1.08,0-2.52,0-2.52,2.49-2.52Z" transform="translate(-6.84 -29.57)"/><path class="cls-7" d="M93.93,57.49c.93-2.12,1.86-4.23,2.77-6.35.21-.48.56-.49,1-.49,6.84,0,13.67,0,20.5,0,.59,0,.83.14.86.8.16,3.06.18,3.05-2.9,3.05-5.79,0-11.59.07-17.38,0-1.82,0-3,.45-3.51,2.28C95.08,57.3,94.86,58,93.93,57.49Z" transform="translate(-6.84 -29.57)"/><path class="cls-7" d="M85,82c3.92,0,7.83,0,11.75,0,.88,0,1.17.21,1.16,1.13,0,2.74,0,2.74-2.67,2.74-1.12,0-2.24-.08-3.35,0-3.19.25-6.25-.94-9.47-.7s-6.39,0-9.58.06c-.55,0-.75-.17-.79-.75C71.85,82,71.83,82,74.29,82Z" transform="translate(-6.84 -29.57)"/><path class="cls-7" d="M82.33,112.82c3.63,0,7.26,0,10.9,0,1,0,1.2.3,1.18,1.22,0,2.11,0,2.11-2.07,2.11-2.51,0-5.1-.39-7.52.09-4.46.87-8.91.12-13.34.46-1.11.09-1.42-.28-1.38-1.38.08-2.48,0-2.48,2.53-2.48Z" transform="translate(-6.84 -29.57)"/><path class="cls-2" d="M92.79,87.32c1.36,0,2.72,0,4.08,0,.68,0,1,.13,1,.92,0,1.72,0,3.44,0,5.15,0,.67-.25.93-.92.92-2.72,0-5.44,0-8.16,0-.56,0-1-.13-.91-.79.15-1.76-.29-3.48-.27-5.24,0-.74.25-1,1-1C90,87.35,91.4,87.32,92.79,87.32Z" transform="translate(-6.84 -29.57)"/><path class="cls-2" d="M101.76,110.59c0,.92,0,1.83,0,2.75a2.84,2.84,0,0,1-2.51,2.76c-.91.1-1.83,0-2.75,0-.52,0-.71-.3-.68-.77.15-2.5-.26-5-.26-7.5,0-.61.19-.85.83-.84,1.51,0,3,0,4.54,0,.72,0,.88.29.85.93,0,.87,0,1.75,0,2.63Z" transform="translate(-6.84 -29.57)"/><path class="cls-7" d="M101.47,74.31c-.47-1.07-1-2.14-1.41-3.22-.81-1.93-.92-2-3-2s-3.92,0-5.87,0a1.85,1.85,0,0,0-2,1.35c-.4,1.12-1,2.19-1.45,3.28-.18.39-.43.78-.89.57s-.13-.62,0-.91C87.91,70.92,89,68.48,90.09,66a1.17,1.17,0,0,1,1.26-.82c2,0,3.92,0,5.87,0,.47,0,.83,0,1,.57,1.14,2.68,2.31,5.34,3.47,8a1,1,0,0,1,0,.34Z" transform="translate(-6.84 -29.57)"/><path class="cls-13" d="M94.45,74.35c-1.48,0-3,0-4.43,0-.74,0-1-.06-.66-.9,1.28-2.92,1.25-2.94,4.45-2.94,1.2,0,2.4,0,3.6,0a1.09,1.09,0,0,1,1.23.85,20.2,20.2,0,0,0,.94,2.2c.34.69.06.81-.58.8C97.49,74.33,96,74.35,94.45,74.35Z" transform="translate(-6.84 -29.57)"/><path class="cls-7" d="M74.76,50.65c1,0,2.07,0,3.11,0,.59,0,.85.12.5.72,0,.07-.07.14-.1.22C77,54.49,77,54.49,73.86,54.49h-.24c-3.06,0-3.05,0-2.86-3.08,0-.56.19-.78.76-.77C72.6,50.68,73.68,50.65,74.76,50.65Z" transform="translate(-6.84 -29.57)"/><path class="cls-14" d="M120.21,67.29a1.83,1.83,0,0,1,0,.47c-.12.44.37,1.22-.41,1.27s-1.82.53-2.21-.73c-.07-.23-.19-.44-.27-.66-.27-.77-1.19-1.92-.76-2.2.87-.58,2.14-.19,3.25-.19.37,0,.4.31.4.61v1.43Z" transform="translate(-6.84 -29.57)"/><path class="cls-15" d="M117.29,80.69a5,5,0,0,0-1,0c-.59.12-.67-.17-.65-.65s0-1.27,0-1.9c0-.46-.42-1.24.53-1.3.7,0,1.55-.3,1.82.79a7.46,7.46,0,0,0,.49,1.08C119.44,80.68,119.44,80.68,117.29,80.69Z" transform="translate(-6.84 -29.57)"/><path class="cls-14" d="M68.65,67.18c0-2,0-2,2.18-2,1.3,0,1.3,0,.79,1.2a12.36,12.36,0,0,0-.71,1.63,1.32,1.32,0,0,1-1.71,1c-1-.15-.36-.94-.54-1.42A1.47,1.47,0,0,1,68.65,67.18Z" transform="translate(-6.84 -29.57)"/><path class="cls-16" d="M100.81,43.17c-.44,0-.46-.19-.31-.53q1.25-2.78,2.47-5.56a.63.63,0,0,1,.9-.32c.42.18,0,.48,0,.68-.74,1.72-1.5,3.43-2.25,5.14C101.43,42.93,101.25,43.22,100.81,43.17Z" transform="translate(-6.84 -29.57)"/><path class="cls-17" d="M104.9,39.63c-.18.9-.38,1.78-.54,2.68s-.55,1.09-1.44.71l1.74-3.88C105.12,39.12,105,39.39,104.9,39.63Z" transform="translate(-6.84 -29.57)"/><path class="cls-18" d="M70.23,79.17c0,.49.42,1.07-.16,1.47-.07,0-.3,0-.32,0C69.49,80,70,79.63,70.23,79.17Z" transform="translate(-6.84 -29.57)"/><path class="cls-19" d="M104.9,39.63l-.24-.49.25-.72c.22-.05.33,0,.25.25A1.49,1.49,0,0,1,104.9,39.63Z" transform="translate(-6.84 -29.57)"/><path class="cls-20" d="M105.16,38.67l-.25-.25.3-.66A.68.68,0,0,1,105.16,38.67Z" transform="translate(-6.84 -29.57)"/><path class="cls-7" d="M49.4,79.2c0,2.12,0,4.24,0,6.36,0,.8-.16,1.15-1,1.1-1.28-.08-2.56,0-3.84,0-.56,0-.88-.07-.87-.76q0-6.78,0-13.56c0-.66.24-.82.84-.8,1.32,0,2.64,0,4,0,.74,0,1,.23,1,1C49.38,74.72,49.4,77,49.4,79.2Z" transform="translate(-6.84 -29.57)"/><path class="cls-7" d="M43.68,51.12c0-2.16,0-4.32,0-6.48,0-.69.12-1,.91-1,1.31.06,2.64,0,4,0,.56,0,.89.08.89.76,0,4.56,0,9.12,0,13.67,0,.61-.27.75-.8.74-1.36,0-2.72,0-4.08,0-.7,0-.87-.25-.86-.91C43.7,55.67,43.68,53.4,43.68,51.12Z" transform="translate(-6.84 -29.57)"/><path class="cls-7" d="M64.44,119.45c.42,4-3.14,8.07-6.93,8-3,0-6.08,0-9.12,0-.87,0-1.06-.28-1.06-1.09,0-2.77,0-2.77,2.75-2.77,2.16,0,4.32,0,6.48,0a8.54,8.54,0,0,0,7.4-3.7C64.09,119.74,64.13,119.46,64.44,119.45Z" transform="translate(-6.84 -29.57)"/><path class="cls-7" d="M35.76,123.61c1.83,0,3.67,0,5.5,0,.8,0,1,.25,1,1,0,2.84,0,2.84-2.86,2.84s-6.06,0-9.09,0c-.85,0-1.06-.24-1.06-1.07,0-2.79,0-2.79,2.8-2.79Z" transform="translate(-6.84 -29.57)"/><path class="cls-21" d="M46.32,70.1H46.2c-3,0-3.19-.21-2.77-3.26,0-.37.14-.58.56-.58h4.78c.46,0,.66.19.63.64V67C49.64,70.1,49.64,70.1,46.32,70.1Z" transform="translate(-6.84 -29.57)"/><path class="cls-7" d="M46.33,97.91h-.12c-3.05,0-3.17-.15-2.78-3.25.06-.48.25-.6.67-.59,1.56,0,3.11,0,4.67,0,.45,0,.67.17.63.63v.12C49.64,97.91,49.64,97.91,46.33,97.91Z" transform="translate(-6.84 -29.57)"/><path class="cls-7" d="M46.38,42.25h-.12c-3.18,0-3.17,0-2.83-3.21,0-.44.16-.64.62-.64,1.56,0,3.11,0,4.67,0,.52,0,.73.2.68.71v.12C49.56,42.25,49.56,42.25,46.38,42.25Z" transform="translate(-6.84 -29.57)"/><path class="cls-7" d="M143.62,127.4c-3.27,0-6.55,0-9.82,0-.82,0-1.1-.19-1.09-1,0-2.82,0-2.82,2.79-2.82,5.95,0,11.9,0,17.85,0,.93,0,1.24.21,1.22,1.18,0,2.69,0,2.69-2.68,2.69Z" transform="translate(-6.84 -29.57)"/><path class="cls-8" d="M141.82,53c-2.71,0-5.43,0-8.15,0-.73,0-.95-.2-1-1-.05-3-.08-3,2.87-3,4.76,0,9.52,0,14.28,0,.9,0,1.14.25,1.13,1.15,0,2.8,0,2.8-2.81,2.8Z" transform="translate(-6.84 -29.57)"/><path class="cls-7" d="M131.05,63.34c0,2-.43,2.34-2.43,2-.33-.07-.5-.18-.5-.52,0-.92,0-1.84,0-2.76,0-.4.17-.59.58-.56.12,0,.24,0,.36,0C131.53,61.48,131,61.16,131.05,63.34Z" transform="translate(-6.84 -29.57)"/><path class="cls-7" d="M166.08,172c0,3,0,6,0,9,0,.87-.17,1.2-1.11,1.16-2-.07-4-.06-6,0-.91,0-1.15-.24-1.14-1.14,0-5.88,0-11.75,0-17.63,0-1.87-.17-2-2.06-2-2.12,0-4.24,0-6.36,0-1.1,0-.83-.68-.85-1.27s-.16-1.18.85-1.15c2.31.08,4.63,0,6.95,0,1,0,1.52-.38,1.45-1.39,0-.7.24-.88.9-.87,2.16,0,4.31,0,6.47,0,.7,0,.92.24.86.9-.1,1,.46,1.38,1.46,1.36,2.23,0,4.47,0,6.71,0,1.12,0,.93.63,1,1.3s-.1,1.15-1,1.12c-2.23-.06-4.47,0-6.71,0-1,0-1.44.42-1.44,1.43C166.09,165.8,166.08,168.88,166.08,172Z" transform="translate(-6.84 -29.57)"/><path class="cls-7" d="M193.77,136.85c-1.84,3.77-3.56,7.32-5.32,10.85a3.6,3.6,0,0,1-3.32,2c-2.24.05-4.48,0-6.72,0-.74,0-.95-.32-.82-.93s-.52-1.48.75-1.46a2.46,2.46,0,0,0,2.36-1.7c1.26-2.68,2.55-5.33,3.83-8,.18-.38.26-.82.87-.82C188.11,136.86,190.82,136.85,193.77,136.85Z" transform="translate(-6.84 -29.57)"/><path class="cls-7" d="M193.76,169.22c-1.83,3.79-3.52,7.39-5.33,10.94a3.76,3.76,0,0,1-3.63,1.92c-2.11,0-4.23,0-6.35,0-.69,0-1-.23-.86-.89s-.53-1.48.74-1.47a2.4,2.4,0,0,0,2.3-1.6c1.27-2.71,2.59-5.39,3.88-8.09.23-.49.43-.86,1.11-.85C188.25,169.25,190.89,169.22,193.76,169.22Z" transform="translate(-6.84 -29.57)"/><path class="cls-7" d="M193.73,152.66c-.9,1.9-1.73,3.65-2.57,5.4s-1.66,3.36-2.48,5.05a3.74,3.74,0,0,1-3.6,2.31c-2.19,0-4.39,0-6.58,0-.63,0-1.06-.12-.92-.84.11-.55-.46-1.45.78-1.45a2.45,2.45,0,0,0,2.29-1.63c1.27-2.71,2.59-5.39,3.89-8.08.19-.39.31-.78.9-.78C188.15,152.68,190.85,152.66,193.73,152.66Z" transform="translate(-6.84 -29.57)"/><path class="cls-7" d="M171.32,164.62c3.09,0,3,0,3.17,3q.28,6.59.7,13.16c.06,1-.13,1.38-1.19,1.29a28.83,28.83,0,0,0-3.6,0c-.85,0-1.27-.12-1.31-1.13-.15-3.83-.39-7.66-.61-11.48-.07-1.36-.12-2.71-.23-4.07-.05-.63.16-.86.79-.82S170.56,164.62,171.32,164.62Z" transform="translate(-6.84 -29.57)"/><path class="cls-7" d="M151.77,182.09c-3.08,0-3.11,0-2.93-3,.27-4.46.59-8.92.84-13.38,0-.81.25-1.12,1.1-1.07,1.36.07,2.72,0,4.08,0,.62,0,.95.09.9.84q-.49,8-.94,16c0,.57-.33.64-.78.63Z" transform="translate(-6.84 -29.57)"/><path class="cls-7" d="M161.89,154.15c-.83-.07-2.07.41-2.75-.18s-.24-1.88-.31-2.87c-.18-2.51-.27-5-.45-7.53-.06-.82.22-1,1-1,1.48.05,3,0,4.44,0,.6,0,.83.16.87.8.18,3.26.39,6.53.65,9.79.06.83-.22,1.06-1,1S162.82,154.15,161.89,154.15Z" transform="translate(-6.84 -29.57)"/><path class="cls-7" d="M152.74,154.15c-.76,0-1.52,0-2.27,0s-.92-.14-.95-.85c-.13-3.19-.28-6.38-.5-9.57-.07-1,.26-1.22,1.18-1.18,1.4.08,2.8.05,4.2,0,.62,0,.92.13.95.84.16,3.35.37,6.69.59,10,0,.53-.17.72-.68.7C154.42,154.13,153.58,154.15,152.74,154.15Z" transform="translate(-6.84 -29.57)"/><path class="cls-7" d="M171.23,154.15c-.8,0-1.6,0-2.39,0s-.83-.22-.79-.85q.36-5,.65-9.92c0-.61.2-.83.83-.82q2.34.06,4.68,0c.64,0,.82.24.78.85q-.27,5-.51,10.05c0,.52-.24.7-.73.68C172.91,154.13,172.07,154.15,171.23,154.15Z" transform="translate(-6.84 -29.57)"/><path class="cls-7" d="M161.88,137.21c4.08,0,8.16,0,12.23,0,.91,0,1.15.26,1.15,1.15s-.19,1.16-1.13,1.16q-12.23-.06-24.47,0c-.83,0-1.11-.23-1.08-1.07s0-1.25,1.06-1.23C153.72,137.24,157.8,137.21,161.88,137.21Z" transform="translate(-6.84 -29.57)"/><path class="cls-2" d="M183.39,169.19c-1.3,2.66-2.66,5.28-3.85,8-.55,1.24-1.44,1.17-2.45,1.12-.47,0-.46-.35-.47-.68-.15-2.87-.29-5.74-.44-8.61.71-.4,1.47-.12,2.2-.15,1.38-.05,2.77,0,4.15,0C182.83,168.86,183.28,168.64,183.39,169.19Z" transform="translate(-6.84 -29.57)"/><path class="cls-2" d="M175.86,157.2c.51-1.15.23-2.38.32-3.57.23-.29,0-.69.22-1a4,4,0,0,0,2.53.44c1,0,2.07,0,3.11,0,.76,0,1.11,0,.65.93-1.11,2.16-2.12,4.36-3.18,6.54-.87.31-1.74.93-2.61,0a12.07,12.07,0,0,1-.26-2.08.7.7,0,0,0-.66-.82C175.75,157.55,175.8,157.37,175.86,157.2Z" transform="translate(-6.84 -29.57)"/><path class="cls-22" d="M166.59,149.48c-.13-2-.25-4-.42-5.93,0-.43-.08-.7.45-.73s.68.13.65.61c-.09,1.55-.17,3.09-.26,4.64C166.68,148.49,167.29,149.18,166.59,149.48Z" transform="translate(-6.84 -29.57)"/><path class="cls-23" d="M183.39,169.19c-.21-.34-.55-.27-.86-.27l-6.35.09c-.14-1.4-.28-2.8-.43-4.2l.27,0a16,16,0,0,1,.35,2.63c0,1.1.43,1.37,1.43,1.33,1.63-.06,3.26,0,4.9,0C183,168.74,183.6,168.4,183.39,169.19Z" transform="translate(-6.84 -29.57)"/><path class="cls-24" d="M176.9,160.54c.87.44,1.74-.13,2.61,0-.27.57-.49,1.16-1.28,1.21S176.72,161.62,176.9,160.54Z" transform="translate(-6.84 -29.57)"/><path class="cls-10" d="M175.86,157.2l.12.44h-8.2v-.2h6.69A2.16,2.16,0,0,0,175.86,157.2Z" transform="translate(-6.84 -29.57)"/><path class="cls-25" d="M166.59,149.48c.43-.38,0-1,.42-1.41a10.43,10.43,0,0,1-.31,3A3.63,3.63,0,0,1,166.59,149.48Z" transform="translate(-6.84 -29.57)"/><path class="cls-26" d="M157.15,144.76v2.58H157v-2.55Z" transform="translate(-6.84 -29.57)"/><path class="cls-27" d="M157.26,151.91v-2.57h.11v2.57Z" transform="translate(-6.84 -29.57)"/><path class="cls-28" d="M176.4,152.65c0,.34,0,.7-.22,1v-2C176.53,152,176.35,152.33,176.4,152.65Z" transform="translate(-6.84 -29.57)"/><path class="cls-29" d="M157.58,153.53a2.89,2.89,0,0,1,0,1.62A2.72,2.72,0,0,1,157.58,153.53Z" transform="translate(-6.84 -29.57)"/><path class="cls-7" d="M101.13,181.85c.64-2.59,1.26-5.1,1.89-7.6q1.58-6.21,3.16-12.41c.34-1.34.09-1.68-1.27-1.71q-1.68,0-3.36,0c-.83,0-1.49.12-1.49-1.16s.79-1.1,1.55-1.11h32.14c2.44,0,4.88,0,7.32,0,.81,0,1,.26,1,1,0,6,0,12,0,18a4.72,4.72,0,0,1-4.37,4.86c-3.9.33-7.83.08-11.74.12-1,0-.52-.8-.57-1.25s-.25-1.12.64-1.1,2,0,3,0c1.86,0,2.69-.76,2.7-2.58,0-5.08,0-10.16,0-15.23,0-1.13-.51-1.57-1.6-1.56-4,0-8,0-12,0-1.29,0-1.47.82-1.7,1.73-1.58,6.31-3.19,12.61-4.73,18.93-.22.91-.6,1.11-1.45,1.1C107.25,181.82,104.26,181.85,101.13,181.85Z" transform="translate(-6.84 -29.57)"/><path class="cls-7" d="M144.09,154.3c-3.27,0-6.5,0-9.74,0a.9.9,0,0,1-1-.62c-2.32-5.6-4.67-11.19-7-16.78,0-.06,0-.15,0-.33h10a.67.67,0,0,1,.71.49q3.53,8.5,7.08,17S144.15,154.13,144.09,154.3Z" transform="translate(-6.84 -29.57)"/><path class="cls-7" d="M99.54,154.3l5.5-13.21c.52-1.26,1-2.5,1.55-3.76.19-.48.39-.79,1-.78,3.28,0,6.55,0,10,0l-2,4.89c-1.65,3.93-3.33,7.85-4.94,11.8a1.43,1.43,0,0,1-1.58,1.06C106,154.27,102.85,154.3,99.54,154.3Z" transform="translate(-6.84 -29.57)"/><path class="cls-7" d="M77,138H93.42c.75,0,1.45-.17,1.43,1.08s-.53,1.15-1.38,1.15c-7.48,0-15,0-22.44,0-2,0-2.1.15-2.11,2.11v14c0,2.07,0,2.11,2,2.11,7.48,0,15,0,22.44,0,1.2,0,1.43.36,1.42,1.48-.07,4.35,0,8.71,0,13.07a8.35,8.35,0,0,1-8.63,8.63H60.26a1.22,1.22,0,0,1-1.19-1.85c.22-.53.68-.31,1-.32H72.58c2.2,0,4.4,0,6.6,0,3.56,0,5.76-2.25,5.76-5.79q0-5.64,0-11.28c0-1.48-.16-1.64-1.66-1.64-7.68,0-15.36,0-23,0-.9,0-1.23-.17-1.22-1.17,0-6.79,0-13.59,0-20.39,0-1.06.35-1.22,1.29-1.21C65.86,138,71.42,138,77,138Z" transform="translate(-6.84 -29.57)"/></svg>