<svg id="圖層_1" data-name="圖層 1" xmlns="http://www.w3.org/2000/svg" viewBox="0 0 232.75 190.98"><defs><style>.cls-1{fill:#d84da2;}.cls-2{fill:#ebc5b1;}.cls-3{fill:#e899b5;}.cls-4{fill:#f17d7d;}.cls-5{fill:#f2b165;}.cls-6{fill:#ebc3b2;}.cls-7{fill:#f7dde6;}.cls-8{fill:#fefefe;}.cls-9{fill:#fefdfd;}.cls-10{fill:#fefdfe;}.cls-11{fill:#f3c9d7;}.cls-12{fill:#dc66a5;}.cls-13{fill:#fdfbfd;}.cls-14{fill:#fefcfd;}.cls-15{fill:#fdfcfd;}.cls-16{fill:#fdf9fb;}.cls-17{fill:#fbf2f7;}.cls-18{fill:#fcf5f9;}.cls-19{fill:#f3d3e5;}.cls-20{fill:#e9a9ce;}.cls-21{fill:#e49aac;}.cls-22{fill:#e6a6ad;}.cls-23{fill:#eabeb0;}.cls-24{fill:#e89ab4;}.cls-25{fill:#e27aad;}.cls-26{fill:#df78a8;}.cls-27{fill:#dc63a5;}.cls-28{fill:#dc65a5;}.cls-29{fill:#e690b2;}.cls-30{fill:#dd69a6;}</style></defs><title>11</title><path class="cls-1" d="M158.1,71.25c-.18-1.2.31-1.59,1.52-1.49,1.43.12,2.88,0,4.32,0,.62,0,.94-.11.93-.85q0-12,0-24c0-.71-.27-.88-.91-.86-1.56,0-3.12,0-4.68,0-.65,0-.94-.17-.92-.87.1-3.59-.35-7.17-.26-10.76,0-1,.33-1.24,1.3-1.24q28.42,0,56.85,0c1,0,1.24.31,1.26,1.29.5,27.33.08,54.67.19,82,0,1.23.18,1.9,1.58,1.65.46-.08.88,0,.87.65-.09,4,.5,8,.16,12.07a5.9,5.9,0,0,1-1.78.08c-5.36,0-10.72,0-16.08,0-1.76,0-3.48.43-5.25.31s-1.91-.31-2-2c-.28-5.72-.22-11.43-.21-17.15q.08-31.86,0-63.71c0-.58.18-1.22-.35-1.69-2.1-.47-4.21-.17-6.32-.17-.47,0-.68.34-.72.8s0,.72,0,1.08q0,10.55,0,21.11c0,1.81,0,1.85,1.9,1.87,1,0,1.92,0,2.88,0s1.42.46,1.42,1.4c0,3.47.43,6.94.26,10.42-.06,1.32-.32,1.58-1.67,1.63-1.12,0-2.24,0-3.36,0-1.32,0-1.43.11-1.43,1.45,0,3.92,0,7.83,0,11.75a5.9,5.9,0,0,1,0,.84c.06,9.76,0,19.51,0,29.27,0,2.69-.07,2.77-2.73,2.77h-17.4c-.36,0-.72,0-1.08,0-1.26-.08-1.63-.35-1.61-1.58,0-2.36-.29-4.7-.29-7.06q0-17.64,0-35.27c0-2.16,0-2.15-2.19-2.16-1,0-2,0-3,0-.74,0-1.24-.41-1.24-1.18,0-3.16-.45-6.3-.27-9.46A1.85,1.85,0,0,1,158.1,71.25Z" transform="translate(-6.87 -29.58)"/><path class="cls-2" d="M195.13,44.17c.41.45.21,1,.21,1.49q0,38.19,0,76.39c0,2,.31,4,.22,6.08,0,.79.46.79,1,.79l6,0,17.74,0c-.37.35-.83.19-1.25.19-5.89,0-11.79,0-17.68,0-1,0-1.31.17-1.06,1.27a39.16,39.16,0,0,1,.56,4.48c.74,1.08.57,2.32.61,3.53,0,.43,0,.86,0,1.29,0,1.11,0,2.22,0,3.33a70.59,70.59,0,0,1-.72,9.74,1.62,1.62,0,0,1-.47,1.07c-.84.1-1-.45-1-1.1.07-.88-.41-1.12-1.15-1.15-1.08,0-2.16,0-3.24,0-1.35-.06-1.52-.32-.91-1.5,1.72-3.34,3.21-6.8,5-10.11.67-1.25.35-2.38.27-3.57,0-.5-.5-.61-.9-.62-2.92-.05-5.83-.07-8.75,0a1.93,1.93,0,0,0-1.68,1.34c-1.23,2.56-2.38,5.15-3.72,7.66-.67,1.28-1.39,1.67-2.57,1.47-.54-.09-.91-.34-.95-.9a8.16,8.16,0,0,1-.08-2.51,16.52,16.52,0,0,0,.05-5.48c-.1-.88-.53-1.15-1.34-1.14H153.89c-1.94,0-2.13.17-2.09,2.14,0,2.43.42,4.85.56,7.28.13,2.07.18,4.15.33,6.22.13,1.75.34,3.49.39,5.25-.06.46-.49.62-.77.89-.58.57-.49,1.3-.54,2s.17,1.37-.39,1.92a5.47,5.47,0,0,1-3.18,0c-.77-1.22-.5-2.6-.52-3.92,0-.58.65-.59,1.13-.66,1.27-.18,1.3-.26,1.19-1.52a9.74,9.74,0,0,0-.8-3c-2.23-5.35-4.51-10.68-6.7-16.05a1.9,1.9,0,0,0-2-1.34c-3.28,0-6.56,0-9.84,0-1.24,0-1.34.2-1.28,1.42a11,11,0,0,0,1.08,3.78c1.95,4.56,3.85,9.14,5.76,13.71a9.24,9.24,0,0,1,.46,1.24.82.82,0,0,1-.8,1.16,7.8,7.8,0,0,1-1.08,0H117.89c-1.74,0-2-.43-1.35-2,2.13-5.09,4.2-10.21,6.44-15.25.54-1.23.19-2.35.12-3.51,0-.49-.53-.55-.94-.55-3.56,0-7.12,0-10.67,0-.88,0-1.22.64-1.51,1.33-1.49,3.54-2.94,7.09-4.43,10.63-.7,1.66-1.28,3.37-2.11,5a6.83,6.83,0,0,0-.35,5c.33,1.38.13,2.79.33,4.17a.64.64,0,0,1-.32.61,11.25,11.25,0,0,1-4.55,0c-.45-.27-.44-.73-.47-1.16s0-.88,0-1.32c-.13-1.91-.13-1.92,1.65-2.41.44-.13.76-.35.69-.83a10.77,10.77,0,0,0-.47-2.7c-2.37-5.69-4.78-11.35-7.12-17a1.85,1.85,0,0,0-1.93-1.28c-3.27,0-6.55,0-9.83,0-1.31,0-1.39.18-1.32,1.5a10.86,10.86,0,0,0,1.06,3.66q2.9,6.84,5.75,13.71a10.69,10.69,0,0,1,.46,1.23c.22.76-.09,1.15-.85,1.22-.32,0-.64,0-1,0H68c-1.5-.05-1.8-.47-1.22-1.86,1.07-2.58,2.13-5.17,3.23-7.74s2.16-5.34,3.37-8c.54-1.14.1-2.2,0-3.28-.07-.63-.82-.51-1.32-.52-2.64,0-5.27,0-7.91,0-3.79,0-3.12-.33-4.56,3.07-2,4.63-3.8,9.33-5.86,13.92a7.58,7.58,0,0,0-.31,5,2.54,2.54,0,0,1-.17,2.29c-1.41.56-2.81,0-4.21-.08s-2.67-.22-4-.26c-.35,0-.72,0-.91-.39a3.29,3.29,0,0,0,.12-1.76,64,64,0,0,1-1.38-11.87c0-.84-.21-1.51-1.23-1.55a.8.8,0,0,1-.62-.31c.18-.62.73-.56,1.17-.56.9,0,1.17-.44,1.15-1.26,0-2.19.09-4.38-.11-6.56.31-2.2.61-4.41.95-6.6a31.44,31.44,0,0,1,.73-3.75,23.85,23.85,0,0,0,.72-7.23c0-.31-.11-.65.22-.88a2,2,0,0,1,.37,1.59c-.14,3,.29,6,.24,9,0,.92.34,1.29,1.27,1.29,3.32,0,6.64.06,9.95,0a8.32,8.32,0,0,0,7.47-6.14,13.43,13.43,0,0,0,.51-3.79q0-15.28,0-30.58c0-.7-.19-1.46.38-2.06,1.31-1,2.3-2.4,3.83-3.37-.86-.52-1.73.06-2.4-.45a3.43,3.43,0,0,1,2.66-.26.9.9,0,0,1,.74.84,5.37,5.37,0,0,1,.06,1.55c-.47,5.35-.12,10.71-.21,16.06,0,1.27.29,2.53.23,3.82,0,.91-.27,1.57-1.32,1.63-.68,0-.83.51-.83,1.08,0,1.72-.11,3.45,0,5.16.12,1.43.18,2.87.2,4.31,0,1.29.14,1.42,1.47,1.43,3.68,0,7.35,0,11,0,.44,0,.88,0,1.32,0,1.18.08,1.53.34,1.5,1.54-.07,2.52.32,5,.28,7.54,0,1.62.07,1.7,1.68,1.7,8.2,0,16.39-.08,24.59,0a8.65,8.65,0,0,0,8.69-8.44c.18-6.44.1-12.88,0-19.31,0-1.63-.25-3.27-.2-4.9,0-.88-.36-1.23-1.22-1.2-2.77.1-2.62-.37-2.62-2.73,0-2.8,0-5.6,0-8.39,0-1.56.28-1.81,1.82-1.85.64,0,1.28,0,1.92,0,1.6,0,1.67-.12,1-1.52-.32-.7-.62-1.39-.9-2.1s-.46-1.39.59-1.67c.65-.18.45-.66.27-1.07-.53-1.16-1.05-2.33-1.52-3.52s-.33-1.5.94-1.62c1.58-.16,1.6-.16,1.6-1.71s0-3.28,0-4.92a1.29,1.29,0,0,1,.16-.92,32.57,32.57,0,0,1,3.55.17c1.49.2,1.5.12,1.54-1.38.63.17.53.72.56,1.17.06.76,0,1.52,0,2.28,0,1.3.13,1.39,1.47,1.43.24,0,.48,0,.72,0,1.87,0,2.1.28,2.13,2.19v1.32q0,25.08,0,50.15c0,2.44.38,4.86.27,7.31,0,.87.39,1.24,1.23,1.19.12,0,.24,0,.36,0H154c1.49,0,1.53-.09,1.59-1.55.13-3.16-.28-6.31-.26-9.47,0-.79-.36-1.11-1.16-1.17-2.11-.15-2.18-.25-2.19-2.35q0-21.6,0-43.19c0-.66-.16-1.38.43-1.91a34.31,34.31,0,0,1,4.45,1.92c.39.19.8.32,1.2.48.1,3.43.21,6.85.27,10.28,0,.77.2,1.07,1,1,1.51,0,3,0,4.55,0,.75,0,1,.25.95,1,0,3.12,0,6.24,0,9.36,0,9.55,0,19.11,0,28.66,0,2.1.27,4.21.2,6.32,0,.92.58.78,1.13.78H179.3c2.24,0,4.48,0,6.72,0,1,0,1.19-.3,1.19-1.22,0-9.92,0-19.83,0-29.75,0-.24,0-.48,0-.72.73,0,1,.67,1.27,1.15a75.78,75.78,0,0,1,6.27,11.58c0-21.22,0-42.33,0-63.45A2.85,2.85,0,0,1,195.13,44.17Z" transform="translate(-6.87 -29.58)"/><path class="cls-1" d="M121.43,62.66c.48,2.41.14,4.85.2,7.28,0,.55-.44.59-.86.59h-2.18c.77,1.76,1.46,3.36,2.18,5,.38.83.66,1.53-.76,1.35-.84-.11-.56.44-.39.82.51,1.21,1,2.41,1.6,3.61.27.6.16.87-.56.85-1.28,0-2.56,0-3.84,0-.67,0-.91.21-.9.89q0,5.22,0,10.44c0,.68.23,1,.9.88h.36c2.59,0,2.48,0,2.61,2.55.39,7.66.17,15.33.2,23a9.15,9.15,0,0,1-7.14,8.9,7.25,7.25,0,0,1-1.67.14c-8.55,0-17.11,0-25.66,0-1.12,0-1.34-.37-1.28-1.37.16-2.87-.42-5.72-.22-8.6.06-.84-.43-.86-1-.86-4.36,0-8.72,0-13.07,0-.88,0-1.29-.15-1.25-1.17.11-3.51-.36-7-.25-10.52,0-.83.26-1.2,1.09-1.06s1.16-.34,1.09-1.18c-.43-5.74-.17-11.49-.26-17.23,0-1.28.33-2.52.29-3.81,0-.84-.3-1.14-1.12-1.08s-1.36,0-2,0c.18-1.37,1-2.48,1.48-3.75.16-.45.36-.87.54-1.28-.12-.11-.17-.2-.22-.2-2.19-.12-2.19-.11-1.29-2.16.56-1.28,1.12-2.56,1.67-3.85a.58.58,0,0,0,0-.23s-.08-.06-.11-.06c-2.31-.25-2.28-.25-2.32-2.61,0-2.87-.34-5.73-.24-8.61.07-1.93-.24-1.67,1.76-1.68,1.8,0,3.6,0,5.4,0,1.51,0,1.51,0,2.06-1.72-1.94,0-3.83,0-5.72,0-.88,0-1.18-.19-1.15-1.12.11-3.51-.39-7-.22-10.52,0-.59-.14-1.23.84-1.17.5,0,.37-.43.31-.72a27.28,27.28,0,0,1-.58-3.05c0-.79-.8-1.59.18-2.47.32-.3-.17-1.51-.32-2.29C69,31.9,69,31.9,71.79,31.9c3.28,0,6.56,0,9.84,0,.79,0,1.1.21,1.24,1,.3,1.79.74,3.57,1.18,5.66,1.2-2.69,2.31-5.07,3.33-7.49A1.54,1.54,0,0,1,89.06,30c5.28,0,10.56,0,15.84,0h1.19l-2.24,5.17c2.06.25,2.06.25,2.47-1.58s.38-1.69,2.16-1.69c3.6,0,7.2,0,10.8,0,.82,0,1,.17.79,1s-.4,1.87-.59,2.81c-.13.68-.7,1.54.73,1.52.41,0,.19.43.14.68-.3,1.49-.6,3-.93,4.46-.09.42-.22.77.42.83.47,0,.37.46.36.76-.06,3.63.38,7.24.28,10.88,0,.93-.3,1.11-1.17,1.11-7,0-14,0-21,0a2.3,2.3,0,0,0-1,.06,1.47,1.47,0,0,0-.75,1.39c0,.52.65.26,1,.26,7.36,0,14.72,0,22.08,0,1.93,0,1.69-.15,1.71,1.77Z" transform="translate(-6.87 -29.58)"/><path class="cls-2" d="M187.69,185.52a43.21,43.21,0,0,1-4.55,6.27,79.19,79.19,0,0,1-42,26.46,81.3,81.3,0,0,1-13.9,2.11,77.76,77.76,0,0,1-30-3.8,76.81,76.81,0,0,1-24.11-13A77.93,77.93,0,0,1,56.75,186a7.24,7.24,0,0,1-.38-.73c.45-.47,1-.36,1.58-.36,2.28,0,4.55,0,6.83,0s2.35-.14,2.87-2.2l3.06-12.21c.16-.6.2-1.29.93-1.57a12.17,12.17,0,0,1,3.46-.09c2.75.2,5.5.36,8.26.45,1.44,0,1.69.28,1.69,1.69,0,2.16.09,4.32-.06,6.48-.22.75-.82.91-1.49.94-1.08,0-2.16,0-3.24,0a1.26,1.26,0,0,0-1.42,1.38,21.23,21.23,0,0,0,.28,3.82c.14,1,.85,1.26,1.73,1.27,2.44,0,4.87,0,7.31,0a26.17,26.17,0,0,0,4.42-.19A6.11,6.11,0,0,0,98,178.47c0-2.24,0-4.48,0-6.71a2.3,2.3,0,0,1,.37-1.71,21.89,21.89,0,0,1,6.26-.17,5.85,5.85,0,0,1,2,.34c.62.49.31,1.1.18,1.65-.72,2.95-1.41,5.91-2.24,8.83a9.41,9.41,0,0,0,0,3.43c0,.61.56.76,1,.77,3.32.07,6.63.07,10,0,1,0,1.38-.77,1.59-1.65q1.4-5.58,2.8-11.16a3,3,0,0,1,.77-1.72,2.6,2.6,0,0,1,1.61-.35c3.51,0,7,0,10.53,0,1.58,0,1.82.25,1.81,1.81,0,1.87.08,3.75,0,5.62-.23.82-.89,1-1.6,1-1,0-2.07,0-3.11,0a1.26,1.26,0,0,0-1.45,1.35,19.27,19.27,0,0,0,.3,3.94c.14.94.86,1.17,1.68,1.18,2.08,0,4.15,0,6.23,0a34.89,34.89,0,0,0,5.5-.19,6.1,6.1,0,0,0,5.48-6.35c0-2.23,0-4.47,0-6.71a2.27,2.27,0,0,1,.33-1.6,10.75,10.75,0,0,1,3.7-.32c.59,0,.68.54.73,1,.12,2.51-.23,5-.36,7.51a27.25,27.25,0,0,0,.06,5.71c.09.57.29,1.07.9,1.08,2.42.06,4.85.39,7.24-.24a1.29,1.29,0,0,1,.82-.11,5.29,5.29,0,0,0,2.32.46c2,0,4.07,0,6.1,0a2.91,2.91,0,0,0,2.47-.9.46.46,0,0,1,.41.06,2.72,2.72,0,0,0,2.28.82c3.75,0,7.51-.12,11.26,0C186.57,185.18,187.2,185.05,187.69,185.52Z" transform="translate(-6.87 -29.58)"/><path class="cls-1" d="M66,85.91c0,11.15,0,22.3,0,33.45a9.48,9.48,0,0,1-4.5,8.37,6.9,6.9,0,0,1-3.73,1.14c-3.56,0-7.12,0-10.67,0-.76,0-1.06-.18-1-1,0-3.75-.38-7.49-.2-11.24l1.2-.08a4.83,4.83,0,0,0,2.11-4.11c.34-4.22.06-8.43.18-12.64a.72.72,0,0,0-.11-.45c-1.48,0-3,0-4.44,0-.93-.06-1.11.27-1.11,1.15,0,9,0,18,.05,27,0,1.14-.25,1.47-1.43,1.45-4.44-.07-8.88,0-13.32,0-.87,0-1.13-.19-1.15-1.11-.51-31.74-.07-63.48-.24-95.22,0-1,.29-1.19,1.21-1.19q17.88,0,35.75,0c1,0,1.21.34,1.23,1.29.48,17.42.1,34.85.22,52.27C66,85.27,66,85.59,66,85.91Z" transform="translate(-6.87 -29.58)"/><path class="cls-1" d="M152.45,68.85c0,.4,0,.79,0,1.19,0,14.83,0,29.66,0,44.49,0,1.17.32,1.6,1.47,1.43.35-.06.72,0,1.07,0,.63,0,.85.22.84.84-.09,3.67.38,7.33.25,11,0,.82-.24,1.09-1.08,1.09q-11.28,0-22.55,0c-.94,0-1.09-.33-1.11-1.18-.49-19.81-.1-39.63-.22-59.44,0-1.53,0-1.53-1.57-1.53-2.78,0-2.76,0-2.8-2.83,0-.81.3-1.66-.16-2.44,0-2.28,0-4.56-.08-6.83,0-.64.22-.85.84-.83.92,0,1.84,0,2.75,0s1.33-.21,1.28-1.24c-.39-6.66-.25-13.33-.26-20,0-3,0-3,2.95-3,5.68,0,11.36,0,17,0,.74,0,1.12.06,1.15,1,.28,7,.22,14,.2,21,0,1.87-.32,3.75-.19,5.6C152.48,61,152.31,64.94,152.45,68.85Z" transform="translate(-6.87 -29.58)"/><path class="cls-1" d="M172.11,184.33c-.14.87-.69,1.17-1.53,1.16h-8.13a1.41,1.41,0,0,1-1.42-.67,2.61,2.61,0,0,1-.07-1.33c-.08.53,0,1.13-.4,1.56a2,2,0,0,1-1.44.44c-1.92,0-3.84,0-5.75,0-1,0-1.47-.29-1.59-1.51-.45-4.39.47-8.71.4-13.07.29-1-.28-1.86-.14-2.82.09-.66,0-1.35.13-2a1.8,1.8,0,0,0-.3-1.47,3.35,3.35,0,0,1-.43-2.84c0-.91,0-1.82,0-2.73,0-.52,0-1.14.67-1.36,2.67-.25,5.35,0,8-.11h-6.31c-.34,0-.74.1-.92-.35a8.85,8.85,0,0,1-.48-3c-.27-3.58-.37-7.17-.55-10.75-.1-1.91-.52-3.78-.46-5.71.06-1.71.19-1.88,1.83-1.88,8.68,0,17.35,0,26,0,1.18,0,1.65.24,1.73,1.57s.18,2.78.16,4.17c0,1-.5,2-.21,3,.13.47-.39,1.25.47,1.36s1.75.29,2.25-.82c.82-1.82,1.75-3.59,2.62-5.39.49-1,1-2,1.41-3a1.84,1.84,0,0,1,1.94-1.25c2.88,0,5.76,0,8.63,0,1.34,0,1.51.22,1.3,1.55,0,.07-.1.18-.08.21,1.2,1.63-.29,2.75-.84,4-1.5,3.35-3.16,6.63-4.84,10.09H198c1.66,0,1.69,0,1.56,1.69,0,.5.44.61.59,1,.31.34.08.67,0,1-.73,1.44-1.47,2.89-2.16,4.36a84.21,84.21,0,0,1-4.11,8.16,22.25,22.25,0,0,0,3.16.05c.52,0,1.07-.09,1.5.31,1,.08,1.61.47,1.12,1.61,0,.07-.11.18-.09.21,1.22,1.57-.24,2.65-.76,3.83-1.22,2.77-2.68,5.43-3.89,8.2a5.94,5.94,0,0,1-6.1,3.87c-.36,0-.72,0-1.08.06l-13.69,0c-.81,0-1.66,0-1.71-1.15a2.85,2.85,0,0,1-.09-1A2.85,2.85,0,0,1,172.11,184.33Z" transform="translate(-6.87 -29.58)"/><path class="cls-3" d="M43.21,135.12c.66.13.46.66.46,1.06,0,1.95-.05,3.91,0,5.86,0,1-.31,1.35-1.29,1.26-.44,0-1-.19-1.36.21a1.35,1.35,0,0,1-1.14.56c-4.53.46-9,1.16-13.52,1.93a54.1,54.1,0,0,0-10.31,2.68,8.37,8.37,0,0,0-2,1.07c-1.18.89-1.17,1.66,0,2.58a7.84,7.84,0,0,0,1.89,1,58.5,58.5,0,0,0,12.08,3c5,.84,10,1.52,15,2a1.32,1.32,0,0,1,1.14.56c.62.58,1.34,0,2,.14,2.34.34,4.72.4,7.09.57a4.11,4.11,0,0,1,.57,2.27,1.18,1.18,0,0,0,1.31,1.21c.91,0,1.82,0,2.73,0,.55,0,1.19.17,1.12.8-.16,1.63-.23,3.32-1.37,4.67-3.07-.25-6.15-.45-9.22-.74a3.91,3.91,0,0,1-1.17-.54c-3.49-.27-7-.7-10.44-1.13-4.27-.53-8.52-1.18-12.74-2a58,58,0,0,1-11-3.22,9.61,9.61,0,0,1-6-7.64c-1.14-6.06,2-11,7-12.66a97.08,97.08,0,0,1,16.36-3.89C34.68,136.14,38.93,135.57,43.21,135.12Z" transform="translate(-6.87 -29.58)"/><path class="cls-3" d="M196.8,167.76h-3.72c2.08-2.68,3.08-5.82,4.67-8.64a4,4,0,0,1,1.63-.32c4.14-.43,8.27-.87,12.38-1.44a120.55,120.55,0,0,0,15.08-2.8,30.19,30.19,0,0,0,4.08-1.4,5.72,5.72,0,0,0,1.91-1.22,1.16,1.16,0,0,0-.05-1.88,7.09,7.09,0,0,0-2.15-1.28,58.31,58.31,0,0,0-11.48-2.95c-4.18-.72-8.38-1.23-12.58-1.84-1.36-.49-2.82-.28-4.22-.59a1.18,1.18,0,0,1-1.12-1.37,6.65,6.65,0,0,0-.11-2.35,28.91,28.91,0,0,0-.24-4.83,211.25,211.25,0,0,1,23.5,3.46,44.87,44.87,0,0,1,9.22,2.89,9.78,9.78,0,0,1,5.89,8c.8,5.87-2.12,10.54-7.43,12.34a103.13,103.13,0,0,1-19.69,4.29c-3.91.52-7.82,1-11.73,1.44A29.22,29.22,0,0,0,196.8,167.76Z" transform="translate(-6.87 -29.58)"/><path class="cls-1" d="M57.62,168.5c.38-1.37.77-2.74,1.13-4.11.17-.65,0-1-.77-.95-1.08,0-2.16,0-3.23,0-.71,0-1.14-.28-1.21-1-.1-.95-.18-1.9-.26-2.84s-.26-1.71-.34-2.5c-.12-1.25-.52-2.52.11-3.93,2.46-5.53,4.72-11.16,7-16.77A1.78,1.78,0,0,1,62,135.11c3.52,0,7,0,10.56,0,1.27,0,1.26.29,1.37,1.34.42,4.07-2.32,7.06-3.47,10.59-.92,2.79-2.24,5.45-3.41,8.16-.38.88-.34,1.26.8,1.25,6,0,12,0,18,0,.91,0,1.22-.12.8-1.12-2.25-5.24-4.39-10.53-6.66-15.76a18.57,18.57,0,0,1-.72-3.48c-.2-.91.62-1,1.28-1,2.92,0,5.84,0,8.75,0,3.77,0,3-.47,4.44,3q3.27,7.83,6.6,15.66a13,13,0,0,1,.49,3c.15.82-.66.91-1.26.86-1.16-.09-1.59.18-1.22,1.47a11.4,11.4,0,0,1,.12,2.87,1,1,0,0,1,.27.52,49.9,49.9,0,0,1,0,7.13,1,1,0,0,1-.27.52q0,3.9,0,7.79c0,4.47-2.49,7.15-6.92,7.28-3.67.1-7.35,0-11,0-1.13,0-1.64-.51-1.72-1.65-.09-1.35-.26-2.69-.22-4,0-1,.38-1.56,1.5-1.5s2.4,0,3.6,0c.43,0,.9.06,1.14-.45a51.82,51.82,0,0,0-.1-8.45c-.16-1.31,0-2.63-.06-3.95s-.2-1.39-1.41-1.4c-3,0-5.9,0-8.85,0a1.4,1.4,0,0,0-1.51,1.2c-.42,1.4-.44,2.93-1.32,4.18-1.21,4-2,8-3.1,12a21.13,21.13,0,0,0-.64,2.55c-.17,1.17-.86,1.5-1.92,1.5-3.16,0-6.31,0-9.47.05-.39-.05-.78-.08-1.16-.16s-.81-.23-.71-.64c.21-.91-.28-1.7-.3-2.56a2.61,2.61,0,0,1,.07-1.3c.92-3.67,1.85-7.34,2.76-11A1.68,1.68,0,0,1,57.62,168.5Z" transform="translate(-6.87 -29.58)"/><path class="cls-4" d="M30.19,192.7a8.52,8.52,0,0,1,8.64,8.4A8.61,8.61,0,0,1,21.62,201,8.44,8.44,0,0,1,30.19,192.7Z" transform="translate(-6.87 -29.58)"/><path class="cls-5" d="M219.7,187.74a8.46,8.46,0,0,1-8.66-8.39,8.6,8.6,0,0,1,17.19,0A8.4,8.4,0,0,1,219.7,187.74Z" transform="translate(-6.87 -29.58)"/><path class="cls-2" d="M57.62,168.5c-1.08,4.49-2.14,9-3.42,13.44a48.6,48.6,0,0,1-4.24-8c-1-2.17-1.81-4.42-2.71-6.63,2.62.34,5.24.6,7.88.69A5.48,5.48,0,0,1,57.62,168.5Z" transform="translate(-6.87 -29.58)"/><path class="cls-6" d="M49.21,99.38c.39.25.23.65.23,1q0,6.57,0,13.14A2.88,2.88,0,0,1,47,116.58c1.35-3.2,2.6-6.38,2.24-10C49,104.19,49.22,101.78,49.21,99.38Z" transform="translate(-6.87 -29.58)"/><path class="cls-7" d="M196.8,167.76c1.21-.71,2.54-.44,3.84-.49-.62.6-1.52-.08-2.15.47Z" transform="translate(-6.87 -29.58)"/><path class="cls-8" d="M195.13,44.17v66.69A92.87,92.87,0,0,0,187.21,97c0-4.51,0-9,0-13.54,0-.69.22-.9.89-.88,1.56,0,3.12,0,4.68,0,.71,0,.94-.17,1-.93.12-3.71-.34-7.41-.26-11.11,0-.6-.23-.76-.78-.75-1.52,0-3,0-4.56,0-.74,0-.94-.24-.94-1,0-7.91,0-15.83,0-23.74,0-.55,0-1,.77-1C190.34,44.15,192.74,44.15,195.13,44.17Z" transform="translate(-6.87 -29.58)"/><path class="cls-9" d="M208,127.6c-3.36,0-6.71,0-10.07,0-.85,0-1.06-.25-1.06-1.07,0-2.89,0-2.89,2.9-2.89,6,0,12.06,0,18.09,0,.92,0,1.25.22,1.24,1.2,0,2.75,0,2.75-2.72,2.75Z" transform="translate(-6.87 -29.58)"/><path class="cls-8" d="M176.16,127.19c-2.84,0-5.68,0-8.52,0-.92,0-1.13-.27-1.12-1.15,0-2.72,0-2.72,2.65-2.72,5.12,0,10.24,0,15.36,0,1,0,1.26.3,1.24,1.27-.06,2.59,0,2.6-2.65,2.6Z" transform="translate(-6.87 -29.58)"/><path class="cls-10" d="M191.15,38.83h3c.24,0,.57-.09.7,0,1,.9.24,2.07.43,3.11.1.58-.31.72-.83.71-2.27,0-4.54,0-6.82,0-.52,0-.73-.18-.68-.69v-.12c-.16-3.05-.16-3.05,2.89-3.05Z" transform="translate(-6.87 -29.58)"/><path class="cls-8" d="M189.6,77.27c2.66,0,2.62,0,2.67,2.67,0,.94-.24,1.26-1.19,1.19a24.82,24.82,0,0,0-3.34,0c-1,.06-.92-.7-.76-1.18.28-.89-.91-2.22.71-2.65A7.6,7.6,0,0,1,189.6,77.27Z" transform="translate(-6.87 -29.58)"/><path class="cls-8" d="M162.38,77.27c2.49,0,2.42,0,2.51,2.51,0,1.15-.34,1.45-1.4,1.35a18.16,18.16,0,0,0-2.76,0c-.76.05-1-.26-.92-1,0-.11,0-.24,0-.36C159.8,77.27,159.8,77.27,162.38,77.27Z" transform="translate(-6.87 -29.58)"/><path class="cls-9" d="M162.22,42.68c-2.42,0-2.35,0-2.44-2.46-.05-1.2.35-1.52,1.47-1.41.95.09,1.92,0,2.87,0,1.3,0,.76,1.1.69,1.61-.11.75.81,1.93-.67,2.22A10.25,10.25,0,0,1,162.22,42.68Z" transform="translate(-6.87 -29.58)"/><path class="cls-1" d="M148.09,170.16q0,3.9,0,7.79c0,4.47-2.49,7.15-6.92,7.28-3.67.1-7.35,0-11,0-1.13,0-1.64-.51-1.72-1.65-.09-1.35-.26-2.69-.22-4,0-1,.38-1.56,1.5-1.5s2.4,0,3.6,0c.43,0,.9.06,1.14-.45a47.51,47.51,0,0,0-.09-7.73c-.19-1.51,0-3-.07-4.55,0-1.37-.16-1.52-1.52-1.53-2.87,0-5.74,0-8.61,0a1.46,1.46,0,0,0-1.67,1.3c-.27,1.29-.63,2.56-.94,3.84a4.2,4.2,0,0,1-.8,1.71c-1.11,4.4-2.25,8.79-3.31,13.2a1.57,1.57,0,0,1-1.74,1.4c-3.36,0-6.71,0-10.06,0-1.26,0-1.36-.35-1.44-1.47-.33-4.47,1.83-8.42,2.52-12.67,0-.23.07-.47.11-.7a5.56,5.56,0,0,1,.44-2.79c.24-.92.47-1.85.71-2.78.18-.72-.1-1-.83-1.05a20.94,20.94,0,0,1-2.86-.06c-1.06-.15-1.37-.68-1.08-1.72-.51-1.62,0-3.32-.6-5a5.61,5.61,0,0,1,.23-4c2.45-5.5,4.69-11.1,7-16.67a1.71,1.71,0,0,1,1.82-1.2c3.48,0,7,0,10.44,0,1.44,0,1.54.1,1.37,1.55-.07.63.72,1,.33,1.77s-.68,1.62-1,2.42L116.8,155c-.6,1.41-.58,1.45.91,1.45h17.64c1.34,0,1.35,0,.86-1.2-2.21-5.31-4.4-10.62-6.68-15.89a16.62,16.62,0,0,1-.63-3.38c-.16-.8.67-.85,1.28-.85,2.92,0,5.84,0,8.76,0,3.76,0,3-.47,4.43,3q3.27,7.85,6.6,15.66a12.61,12.61,0,0,1,.49,3c.14.82-.67.9-1.27.85-1.18-.1-1.58.21-1.2,1.48a10,10,0,0,1,.09,2.63A19.2,19.2,0,0,1,148.09,170.16Z" transform="translate(-6.87 -29.58)"/><path class="cls-8" d="M206.65,143.75c3.56.34,7.1.88,10.64,1.44a69.6,69.6,0,0,1,12.43,2.87,10.87,10.87,0,0,1,3,1.47c1.36,1,1.37,2,0,3a16.8,16.8,0,0,1-5.4,2.22A125.19,125.19,0,0,1,209.55,158c-3.43.43-6.87.87-10.32,1.14-.44-.65,0-1.3.05-1.93a14.92,14.92,0,0,1,.64-2.38c.07-.31.15-.62.22-.93a31.79,31.79,0,0,0,.7-5.31c.21-1.82.21-3.66.29-5.49C203,143.44,204.83,143.37,206.65,143.75Z" transform="translate(-6.87 -29.58)"/><path class="cls-8" d="M44.17,158.89c-2.48-.32-5-.67-7.45-.95q-5.92-.69-11.79-1.82a49.67,49.67,0,0,1-9.2-2.5,9.57,9.57,0,0,1-1.89-1c-1.46-1-1.46-2.08,0-3.11a15.74,15.74,0,0,1,5-2.11,112.18,112.18,0,0,1,17.35-3.17c1.62-.2,3.23-.46,4.84-.7,2.11,0,2.1,0,2.14,2.19A71.22,71.22,0,0,0,44.71,158C44.83,158.53,44.91,158.9,44.17,158.89Z" transform="translate(-6.87 -29.58)"/><path class="cls-3" d="M103.19,162c0,1.06.44,1.52,1.52,1.46s2,0,3,0c.66,0,.9.28.74.88-.53,2-1.08,4.05-1.63,6.08a81.26,81.26,0,0,0-8.4-.24c0-2.72,0-5.45,0-8.17Z" transform="translate(-6.87 -29.58)"/><path class="cls-3" d="M148.09,170.16q0-4.2,0-8.4h3.36c.45.68,0,1.55.4,2.2,1.37,2.27.34,4.62.34,6.94,0-.76-.15-1-1-.82A15.58,15.58,0,0,1,148.09,170.16Z" transform="translate(-6.87 -29.58)"/><path class="cls-11" d="M206.65,143.75a21.86,21.86,0,0,1-5.52-.69c0-1.12,0-2.25,0-3.38.46.73.2,1.53.23,2.3a1,1,0,0,0,.92,1.1C203.71,143.42,205.27,143,206.65,143.75Z" transform="translate(-6.87 -29.58)"/><path class="cls-12" d="M152.94,157.2a4.8,4.8,0,0,0,2.46.23,46.18,46.18,0,0,1,5.12.24h-8.37Z" transform="translate(-6.87 -29.58)"/><path class="cls-8" d="M118.52,119.12c.18,4.81-3.13,8.32-7.54,8.33-8,0-16.06,0-24.1,0-.91,0-1.23-.2-1.21-1.17,0-2.69,0-2.69,2.68-2.69,6.92,0,13.83-.1,20.75,0C113,123.73,116.19,122.8,118.52,119.12Z" transform="translate(-6.87 -29.58)"/><path class="cls-8" d="M87,101.77c4.6,0,9.19,0,13.79,0,.74,0,1,.15,1,1,0,2.89,0,3-2.83,2.86-8.62-.4-17.24-.17-25.86-.21-.83,0-1.09-.22-1.09-1.07,0-2.53,0-2.53,2.48-2.53Z" transform="translate(-6.87 -29.58)"/><path class="cls-8" d="M93.93,57.48c.91-2.08,1.84-4.16,2.72-6.25.22-.51.56-.58,1-.58,6.83,0,13.66,0,20.5,0,.6,0,.81.17.84.81.15,3,.17,3-2.92,3-5.79,0-11.58.07-17.37,0-1.84,0-3,.49-3.51,2.29C95.07,57.32,94.84,58,93.93,57.48Z" transform="translate(-6.87 -29.58)"/><path class="cls-8" d="M84.93,82c3.95,0,7.91,0,11.86,0,.85,0,1.08.26,1.08,1.09,0,2.78,0,2.78-2.75,2.78h-.6c-7.23-.2-14.44-1-21.68-.63-.63,0-.81-.22-.83-.83C71.91,82,71.89,82,74.26,82Z" transform="translate(-6.87 -29.58)"/><path class="cls-8" d="M82.32,112.82c3.64,0,7.28,0,10.92,0,.86,0,1.19.18,1.17,1.12,0,2.21,0,2.21-2.22,2.21-2.48,0-5-.38-7.42.09-4.47.87-8.93.12-13.37.46-1.12.09-1.33-.32-1.3-1.34.06-2.52,0-2.52,2.5-2.52Z" transform="translate(-6.87 -29.58)"/><path class="cls-2" d="M92.76,87.33c1.36,0,2.72,0,4.08,0,.74,0,1.09.16,1.06,1q-.08,2.46,0,4.92c0,.87-.34,1.09-1.14,1.08-2.6,0-5.2,0-7.8,0-.54,0-1.13,0-1.08-.75.13-1.76-.28-3.49-.27-5.24,0-.84.33-1,1.07-1C90,87.36,91.4,87.33,92.76,87.33Z" transform="translate(-6.87 -29.58)"/><path class="cls-2" d="M101.76,110.67c0,.84,0,1.67,0,2.51a2.84,2.84,0,0,1-2.35,2.89,21.26,21.26,0,0,1-3,.06c-.53,0-.65-.39-.63-.82.16-2.43-.23-4.84-.26-7.27,0-.79.25-1,1-1,1.44,0,2.87,0,4.31,0,.67,0,.93.2.9.89C101.73,108.83,101.76,109.75,101.76,110.67Z" transform="translate(-6.87 -29.58)"/><path class="cls-10" d="M101.47,74.3c-.49-1.11-1-2.22-1.46-3.34-.75-1.76-.92-1.88-2.86-1.88s-4,0-6,0a1.86,1.86,0,0,0-2,1.35c-.41,1.13-1,2.19-1.46,3.28-.2.46-.52.83-1,.55s0-.64.12-.92C87.89,71,89,68.6,90,66.22a1.36,1.36,0,0,1,1.5-1c1.88.06,3.76,0,5.63,0,.5,0,.91,0,1.16.59,1.12,2.64,2.28,5.27,3.42,7.9a1.62,1.62,0,0,1,.07.44Z" transform="translate(-6.87 -29.58)"/><path class="cls-2" d="M94.39,74.37c-1.4,0-2.8,0-4.2,0-.89,0-1.09,0-.79-1.08.66-2.35,2-3.22,4.36-2.78a10.69,10.69,0,0,0,1.79,0c3,0,3.16.13,4.07,3.08.2.63,0,.77-.56.76C97.51,74.35,96,74.37,94.39,74.37Z" transform="translate(-6.87 -29.58)"/><path class="cls-8" d="M78.61,50.83l-1.46,3.23a.62.62,0,0,1-.63.43,33.73,33.73,0,0,1-5.13-.06c-1.25-.2-.48-1.5-.57-2.28-.06-.48-.5-1.44.56-1.47,2.07-.08,4.14,0,6.22,0A1.42,1.42,0,0,1,78.61,50.83Z" transform="translate(-6.87 -29.58)"/><path class="cls-13" d="M120.21,67.09a2.31,2.31,0,0,1,0,.59c-.12.47.39,1.27-.45,1.36s-1.87.44-2.25-.88a8.7,8.7,0,0,0-.82-1.85c-.5-.94-.16-1.19.77-1.09.28,0,.56,0,.84,0C120.51,65.26,120.17,64.93,120.21,67.09Z" transform="translate(-6.87 -29.58)"/><path class="cls-14" d="M115.7,78.77a5.75,5.75,0,0,1,0-.83c.07-.41-.27-1.09.52-1.08s1.44-.38,1.79.64a18.82,18.82,0,0,0,1,2.39c.35.69.08.84-.56.8-.31,0-.63,0-1,0C115.7,80.68,115.7,80.68,115.7,78.77Z" transform="translate(-6.87 -29.58)"/><path class="cls-15" d="M68.65,67.14c0-2,0-2,2.58-1.93.64,0,.9.15.56.82a11.73,11.73,0,0,0-.85,2,1.36,1.36,0,0,1-1.78,1.08c-1-.19-.32-1-.5-1.46A1.47,1.47,0,0,1,68.65,67.14Z" transform="translate(-6.87 -29.58)"/><path class="cls-16" d="M104.1,36.84c-.85,1.94-1.69,3.83-2.51,5.72-.2.48-.54.79-1,.56s0-.63.11-.89c.68-1.61,1.43-3.19,2.1-4.81C103,36.85,103.33,36.56,104.1,36.84Z" transform="translate(-6.87 -29.58)"/><path class="cls-17" d="M104.9,39.63c-.18.9-.37,1.79-.53,2.68s-.57,1.07-1.46.71l1.75-3.89C105.12,39.12,105,39.39,104.9,39.63Z" transform="translate(-6.87 -29.58)"/><path class="cls-18" d="M70.24,79.17c.05.51.31,1-.1,1.45a.54.54,0,0,1-.42,0C69.55,80,69.93,79.6,70.24,79.17Z" transform="translate(-6.87 -29.58)"/><path class="cls-19" d="M104.9,39.63l-.24-.5c.08-.23.17-.47.25-.71.22-.05.33,0,.25.25S105.17,39.36,104.9,39.63Z" transform="translate(-6.87 -29.58)"/><path class="cls-20" d="M105.16,38.67l-.25-.25.3-.66A.68.68,0,0,1,105.16,38.67Z" transform="translate(-6.87 -29.58)"/><path class="cls-3" d="M120.73,170.64c.52-2.08,1.06-4.15,1.54-6.24.15-.69.41-1,1.17-1,3.35,0,6.7,0,10.05,0,.69,0,1.15.11,1.15,1,0,4.18,0,8.37,0,12.55a.83.83,0,0,1-.21.66c0-2.07,0-4.15,0-6.22,0-.68-.14-1-.92-1-4,0-7.9,0-11.85,0A1.93,1.93,0,0,0,120.73,170.64Z" transform="translate(-6.87 -29.58)"/><path class="cls-3" d="M71.5,169.18c.24-1.77.84-3.47,1.21-5.22.11-.49.41-.51.79-.51,3.51,0,7,0,10.54,0,.57,0,.91.2.91.82,0,4.31,0,8.62,0,12.93,0,.14-.13.28-.19.42,0-2.32,0-4.64,0-7,0-.7-.17-1-.93-1C79.7,169.53,75.6,169.35,71.5,169.18Z" transform="translate(-6.87 -29.58)"/><path class="cls-21" d="M160.56,185a6.9,6.9,0,0,0,.31-1.69,3,3,0,0,1,.16,1.46Z" transform="translate(-6.87 -29.58)"/><path class="cls-22" d="M172.11,184.33a1.6,1.6,0,0,1,.09-1,1.6,1.6,0,0,1,.09,1h-.18Z" transform="translate(-6.87 -29.58)"/><path class="cls-8" d="M49.41,51.25c0,2.23,0,4.47,0,6.71,0,.68-.21.91-.9.89-1.31,0-2.63,0-4,0-.66,0-.91-.17-.9-.87q0-6.7,0-13.42c0-.68.19-.91.88-.89,1.31,0,2.63.06,4,0,.78,0,.93.29.92,1C49.38,46.85,49.41,49.05,49.41,51.25Z" transform="translate(-6.87 -29.58)"/><path class="cls-8" d="M43.68,79.08c0-2.2,0-4.4,0-6.6,0-.72.17-1,.93-1,1.28.06,2.56,0,3.84,0,.7,0,1,.15,1,.92q0,6.66,0,13.31c0,.68-.21.92-.89.89-1.32,0-2.64-.06-4,0-.79,0-.91-.3-.9-1C43.7,83.48,43.68,81.28,43.68,79.08Z" transform="translate(-6.87 -29.58)"/><path class="cls-8" d="M64.49,119.22c.23,4.39-3.28,8.52-7.62,8.27-2.82-.17-5.66-.06-8.5,0-.75,0-1-.16-1-1,0-2.88-.07-2.88,2.85-2.88,2.11,0,4.23,0,6.34,0A8.56,8.56,0,0,0,64,119.87Z" transform="translate(-6.87 -29.58)"/><path class="cls-8" d="M35.77,127.45c-1.88,0-3.75,0-5.62,0-.68,0-.87-.2-.89-.88-.09-3-.11-3,2.84-3s6.14,0,9.21,0c.73,0,.94.2.95.94,0,2.91.07,2.91-2.79,2.91Z" transform="translate(-6.87 -29.58)"/><path class="cls-8" d="M46.32,42.25H46.2c-3,0-3.19-.22-2.77-3.27.06-.37.15-.58.56-.57,1.6,0,3.19,0,4.78,0,.46,0,.67.19.63.64a.49.49,0,0,0,0,.12C49.64,42.25,49.64,42.25,46.32,42.25Z" transform="translate(-6.87 -29.58)"/><path class="cls-8" d="M46.36,97.91h-.12c-3.12,0-3.18-.08-2.81-3.22,0-.46.2-.63.65-.62,1.55,0,3.1,0,4.66,0,.53,0,.71.23.67.72a.24.24,0,0,0,0,.12C49.55,97.91,49.55,97.91,46.36,97.91Z" transform="translate(-6.87 -29.58)"/><path class="cls-10" d="M46.47,66.26h.24c2.95,0,3.1.2,2.71,3.23-.06.46-.24.62-.67.61-1.56,0-3.11,0-4.66,0-.44,0-.69-.12-.65-.6a.48.48,0,0,0,0-.12C43.2,66.26,43.2,66.26,46.47,66.26Z" transform="translate(-6.87 -29.58)"/><path class="cls-8" d="M143.67,123.55c3.27,0,6.55,0,9.82,0,.85,0,1.08.25,1.08,1.08,0,2.79,0,2.79-2.82,2.79-5.95,0-11.9,0-17.85,0-1,0-1.21-.25-1.2-1.2.05-2.67,0-2.67,2.7-2.67Z" transform="translate(-6.87 -29.58)"/><path class="cls-9" d="M141.76,53c-2.68,0-5.36,0-8,0-.78,0-1-.21-1-1,0-2.94-.05-2.94,2.94-2.94,4.72,0,9.44,0,14.15,0,1,0,1.2.3,1.19,1.22C151,53,151,53,148.24,53Z" transform="translate(-6.87 -29.58)"/><path class="cls-8" d="M131.05,63.36c0,2-.57,2.55-2.41,1.85-1.26-.49-.25-2-.51-3-.12-.5.08-.84.7-.8a11.45,11.45,0,0,0,1.55,0c.55,0,.7.23.67.72S131.05,63,131.05,63.36Z" transform="translate(-6.87 -29.58)"/><path class="cls-8" d="M170.4,172.08c0,3,0,5.91,0,8.87,0,.86-.17,1.2-1.11,1.17-2-.08-4-.07-6,0-.9,0-1.15-.24-1.14-1.14,0-5.87,0-11.75,0-17.62,0-1.87-.17-2-2-2-2.12,0-4.24,0-6.36,0-1.08,0-.86-.66-.87-1.26s-.17-1.19.85-1.16c2.31.07,4.63,0,6.95,0,1,0,1.53-.37,1.47-1.38-.05-.69.21-.89.89-.88q3.22.06,6.47,0c.69,0,.92.23.86.9-.1,1.06.46,1.38,1.46,1.36,2.23,0,4.47,0,6.71,0,1.12,0,.93.63,1,1.3s-.1,1.15-1,1.12c-2.24-.06-4.48,0-6.71,0-1,0-1.44.43-1.44,1.43C170.41,165.85,170.4,169,170.4,172.08Z" transform="translate(-6.87 -29.58)"/><path class="cls-8" d="M198.05,136.84c-.65,1.37-1.22,2.58-1.81,3.79-1.05,2.19-2.13,4.38-3.18,6.57a4.07,4.07,0,0,1-4,2.52c-2.08,0-4.16,0-6.24,0-.74,0-1.06-.23-.92-.95.1-.55-.48-1.47.78-1.44a2.45,2.45,0,0,0,2.34-1.73c1.26-2.67,2.55-5.33,3.83-8,.18-.38.28-.8.89-.79C192.45,136.86,195.16,136.84,198.05,136.84Z" transform="translate(-6.87 -29.58)"/><path class="cls-8" d="M198,169.22c-.88,1.87-1.68,3.6-2.5,5.31s-1.61,3.21-2.35,4.85a4.18,4.18,0,0,1-4,2.7c-2.16,0-4.31,0-6.47,0-.76,0-.93-.38-.8-1s-.51-1.41.68-1.41A2.54,2.54,0,0,0,185,178c1.24-2.68,2.55-5.33,3.83-8,.19-.39.31-.78.9-.78C192.47,169.24,195.17,169.22,198,169.22Z" transform="translate(-6.87 -29.58)"/><path class="cls-8" d="M198.05,152.66c-.89,1.87-1.7,3.6-2.52,5.31s-1.7,3.43-2.53,5.15a3.73,3.73,0,0,1-3.6,2.29q-3.3,0-6.59,0c-.63,0-1-.13-.91-.85.1-.55-.43-1.43.8-1.44A2.43,2.43,0,0,0,185,161.5c1.22-2.64,2.54-5.24,3.77-7.88a1.4,1.4,0,0,1,1.51-1C192.79,152.71,195.34,152.66,198.05,152.66Z" transform="translate(-6.87 -29.58)"/><path class="cls-8" d="M176.44,182.09c-3.06,0-3,0-3.16-3.1-.19-4.27-.45-8.53-.68-12.8-.08-1.57-.08-1.57,1.45-1.57,1.15,0,2.32,0,3.47,0,.88-.06,1.2.24,1.24,1.11.15,3.75.34,7.5.52,11.25.07,1.43.13,2.87.23,4.3,0,.62-.15.88-.8.84S177.2,182.09,176.44,182.09Z" transform="translate(-6.87 -29.58)"/><path class="cls-8" d="M156,182.09c-3,0-3,0-2.87-3,.26-4.5.59-9,.85-13.5,0-.75.24-1.05,1-1,1.4.06,2.8.05,4.19,0,.71,0,.89.24.85.91q-.5,7.94-.94,15.89c0,.5-.2.72-.71.7C157.63,182.08,156.83,182.09,156,182.09Z" transform="translate(-6.87 -29.58)"/><path class="cls-8" d="M166.43,154.15c-.76,0-1.52,0-2.28,0s-.93-.13-1-.84c-.13-3.19-.28-6.38-.5-9.57-.07-1,.26-1.22,1.18-1.18,1.44.07,2.88,0,4.32,0,.55,0,.76.17.79.75.2,3.3.41,6.61.66,9.91.06.78-.24,1-1,.93S167.19,154.15,166.43,154.15Z" transform="translate(-6.87 -29.58)"/><path class="cls-8" d="M157.14,154.19c-1-.05-2.31.26-3-.24s-.25-1.86-.32-2.84c-.18-2.51-.27-5-.45-7.53-.06-.8.2-1,1-1,1.43.05,2.87.05,4.31,0,.78,0,1,.24,1,1,.16,3.27.37,6.53.58,9.8,0,.56-.14.8-.72.78-.8,0-1.6,0-2.4,0Z" transform="translate(-6.87 -29.58)"/><path class="cls-8" d="M175.54,154.14c-.8,0-1.6,0-2.4,0s-.81-.25-.77-.86q.36-4.95.65-9.91c0-.63.23-.82.85-.81,1.51,0,3,0,4.55,0,.65,0,.94.15.9.87-.2,3.34-.36,6.69-.52,10,0,.54-.27.68-.75.67C177.21,154.13,176.37,154.14,175.54,154.14Z" transform="translate(-6.87 -29.58)"/><path class="cls-8" d="M166.19,139.47c-4.07,0-8.15,0-12.23,0-.86,0-1.07-.28-1.06-1.1s.11-1.2,1.09-1.2q12.22.06,24.46,0c.94,0,1.11.32,1.12,1.17s-.25,1.14-1.15,1.13C174.35,139.45,170.27,139.47,166.19,139.47Z" transform="translate(-6.87 -29.58)"/><path class="cls-2" d="M181,168.71c1.92,0,3.84,0,5.76,0,.82,0,1.12.15.69,1-1.25,2.5-2.5,5-3.64,7.56-.54,1.21-1.47,1-2.41,1-.45,0-.41-.4-.43-.71-.22-3-.43-5.89-.44-8.85A.32.32,0,0,1,181,168.71Z" transform="translate(-6.87 -29.58)"/><path class="cls-2" d="M181.23,160.31a4.42,4.42,0,0,1-.26-1.61c0-.51-.05-1-.68-1-.21-.11-.17-.28-.1-.45a8.75,8.75,0,0,0,.3-3.3c0-.76,0-1.11,1.14-.92a31.15,31.15,0,0,0,5.12.12c.15,0,.31,0,.62.06-1.18,2.44-2.15,4.9-3.51,7.17C183,160.7,182.1,161.32,181.23,160.31Z" transform="translate(-6.87 -29.58)"/><path class="cls-23" d="M170.9,149.73c-.11-2-.2-4-.32-5.95,0-.39-.44-.89.35-1s.68.5.66,1c-.07,1.5-.16,3-.25,4.52C171,148.72,171.63,149.44,170.9,149.73Z" transform="translate(-6.87 -29.58)"/><path class="cls-6" d="M199.92,154.79a25.29,25.29,0,0,1-.69,4.31c-.49-.14-1,.39-1.48,0A25.4,25.4,0,0,1,199.92,154.79Z" transform="translate(-6.87 -29.58)"/><path class="cls-24" d="M181.23,160.31c.87.62,1.75-.2,2.63,0a6.27,6.27,0,0,1-.37.88c-.43.74-1.19.62-1.82.5C180.86,161.54,181.31,160.81,181.23,160.31Z" transform="translate(-6.87 -29.58)"/><path class="cls-12" d="M180.19,157.2l.09.45h-8.13v-.21c2,0,4,0,6,0A3.39,3.39,0,0,0,180.19,157.2Z" transform="translate(-6.87 -29.58)"/><path class="cls-25" d="M180.47,167.77c-.53-1,.05-2-.37-3,.66.56.14,1.43.61,2C180.45,167.09,180.75,167.5,180.47,167.77Z" transform="translate(-6.87 -29.58)"/><path class="cls-26" d="M170.9,149.73c.46-.38,0-1,.44-1.42a8.15,8.15,0,0,1-.32,3A3.55,3.55,0,0,1,170.9,149.73Z" transform="translate(-6.87 -29.58)"/><path class="cls-27" d="M161.58,151.9v-2.57A5,5,0,0,1,161.58,151.9Z" transform="translate(-6.87 -29.58)"/><path class="cls-28" d="M161.33,147.34v-2.58A4.91,4.91,0,0,1,161.33,147.34Z" transform="translate(-6.87 -29.58)"/><path class="cls-29" d="M180.47,167.77c.06-.32-.11-.7.24-1,.06.64-.13,1.31.26,1.9l-.47,0Z" transform="translate(-6.87 -29.58)"/><path class="cls-30" d="M161.87,155.12a1.85,1.85,0,0,1,0-1.35A1.8,1.8,0,0,1,161.87,155.12Z" transform="translate(-6.87 -29.58)"/><path class="cls-8" d="M55.75,181.86c.9-3.55,1.76-7,2.64-10.42q1.23-4.86,2.47-9.74c.3-1.16,0-1.54-1.22-1.57s-2.72,0-4.08,0c-.89,0-.83-.51-.81-1.09s-.19-1.22.82-1.2c2.19.05,4.39,0,6.59,0,11.08,0,22.15,0,33.22,0,1,0,1.36.23,1.34,1.31,0,5.72,0,11.44,0,17.15,0,3.41-1.84,5.43-5.25,5.53s-7.11,0-10.67,0c-1,0-.78-.65-.79-1.19s-.2-1.25.81-1.2,2,0,3,0c1.64,0,2.52-.77,2.54-2.37,0-5.2,0-10.4,0-15.59A1.23,1.23,0,0,0,85,160.12c-4.12,0-8.24,0-12.35,0-1.09,0-1.3.73-1.5,1.54C69.57,167.83,68,174,66.5,180.22c-.3,1.29-.79,1.72-2.12,1.67C61.55,181.78,58.72,181.86,55.75,181.86Z" transform="translate(-6.87 -29.58)"/><path class="cls-8" d="M81,136.57c3.35,0,6.62,0,9.9,0a.91.91,0,0,1,1,.7q3.36,8.06,6.77,16.09c.35.84.1,1-.71,1-2.92,0-5.83,0-8.75,0a1.06,1.06,0,0,1-1.19-.72c-2.3-5.56-4.64-11.11-7-16.66A1.2,1.2,0,0,1,81,136.57Z" transform="translate(-6.87 -29.58)"/><path class="cls-8" d="M72.27,136.57c-1.38,3.28-2.69,6.44-4,9.59-1,2.35-2,4.69-2.94,7.06a1.41,1.41,0,0,1-1.55,1.1c-2.84-.07-5.68,0-8.51,0-.76,0-1.09-.05-.71-.95,2.27-5.35,4.49-10.73,6.72-16.1.16-.38.29-.71.82-.7C65.43,136.58,68.77,136.57,72.27,136.57Z" transform="translate(-6.87 -29.58)"/><path class="cls-8" d="M125.45,157.87c6.6,0,13.19,0,19.79,0,.87,0,1.17.19,1.16,1.12,0,5.92,0,11.83,0,17.75a4.73,4.73,0,0,1-4.46,5c-3.87.32-7.75.06-11.63.13-.91,0-.61-.69-.59-1.12s-.37-1.23.61-1.24,2.08,0,3.12,0c1.71,0,2.59-.77,2.6-2.43,0-5.16,0-10.31,0-15.47,0-1-.45-1.47-1.45-1.47-4.07,0-8.15,0-12.23,0-1,0-1.3.53-1.51,1.36q-2,8-4,15.9c-.31,1.24-.66,2.46-.92,3.71a.84.84,0,0,1-1,.78c-2.92,0-5.84,0-8.75,0-1.13,0-.61-.67-.51-1.09q2.14-8.52,4.32-17.05c.18-.69.38-1.38.54-2.08.25-1.09,0-1.48-1.18-1.52-1.32,0-2.64-.06-3.95,0-.94.06-1-.39-1-1.14s.08-1.16,1-1.15C112.1,157.88,118.77,157.87,125.45,157.87Z" transform="translate(-6.87 -29.58)"/><path class="cls-8" d="M130.49,136.57h10c.36,0,.68,0,.87.43,2.37,5.7,4.77,11.39,7.25,17.3h-9.81c-.48,0-.9,0-1.15-.58C135.34,148.06,133,142.41,130.49,136.57Z" transform="translate(-6.87 -29.58)"/><path class="cls-8" d="M122,136.57l-3.32,7.93c-1.21,2.9-2.46,5.8-3.64,8.72a1.42,1.42,0,0,1-1.55,1.1c-2.83-.07-5.67-.06-8.51,0-1,0-1-.27-.66-1.06,2.25-5.32,4.45-10.66,6.67-16,.15-.37.28-.71.82-.7C115.1,136.58,118.45,136.57,122,136.57Z" transform="translate(-6.87 -29.58)"/></svg>