<svg id="圖層_1" data-name="圖層 1" xmlns="http://www.w3.org/2000/svg" viewBox="0 0 192.78 189.83"><defs><style>.cls-1{fill:#38322f;}.cls-2{fill:#edcfa8;}.cls-3{fill:#edbd69;}.cls-4{fill:#ede7a1;}.cls-5{fill:#e4af8b;}.cls-6{fill:#d2d1d0;}.cls-7{fill:#fefefe;}.cls-8{fill:#83807e;}.cls-9{fill:#959291;}.cls-10{fill:#f57ab6;}.cls-11{fill:#e6af89;}</style></defs><title>39</title><path class="cls-1" d="M36.49,80.91a22,22,0,0,1-3.09-2.62c-4.57-5.68-2.56-13.84,2.74-17.59A196.42,196.42,0,0,0,57.08,43.93c2.4-2.24,4.73-4.55,7-6.9a22.88,22.88,0,0,1,3.47-3.12,10.67,10.67,0,0,1,10.67-1.24,9.41,9.41,0,0,1,5.3,5.57c.19.53.36.69.92.5,4.62-1.49,8.27.35,11.46,3.48q8.73,8.56,16.76,17.82c.26.3.41.78,1,.32,3.38-2.63,7-2.35,10.74-.9l.35.1a1.19,1.19,0,0,0,.53,0,1.42,1.42,0,0,1-.25-.3c-2.7-2.14-5.68-3.86-8.53-5.78a9.26,9.26,0,0,1-4.28-7.89,10.25,10.25,0,0,1,7.44-10.13A11.59,11.59,0,0,1,129,37.17c1.94,1.17,3.83,2.45,5.71,3.73.5.33.84.45,1.34,0,2-1.67,4.5-2,7-2.08,4.63-.11,9.27,0,13.91,0,.64,0,1.07-.07,1.18-.81.43-2.87,2.39-4.64,4.77-5.76a11.52,11.52,0,0,1,7.31-1.1c3.86.77,6.12,3.23,7.65,6.55a1.6,1.6,0,0,0,1.75,1.13c6.16,0,12.32-.08,18.48,0A10.66,10.66,0,0,1,205.15,41a7.81,7.81,0,0,1,2.71,4.11,13,13,0,0,1,.29,6.71,9.29,9.29,0,0,1-3.88,5.79c-.59.38-.8.68-.28,1.34,1.07,1.34,2,2.77,3,4.16a9.73,9.73,0,0,1,2.18,8c-.41,3.58-2.52,6-5.55,7.78a1.8,1.8,0,0,0-1,1.84,27.43,27.43,0,0,1-.94,9.37,6.05,6.05,0,0,1-.71,1.9,1.22,1.22,0,0,0,.22,1.79,12.65,12.65,0,0,1,3.72,9.36c-.31,7.37-1.65,14.58-7,20.31a18.9,18.9,0,0,1-9.16,5.65,44.05,44.05,0,0,1-10.62,1.68,73.25,73.25,0,0,1-10-.66,164.1,164.1,0,0,1-21.36-3.79,10.49,10.49,0,0,1-8.09-10.13,10.88,10.88,0,0,1,1.77-6.15c.21-.32.54-.66.19-1.08a.79.79,0,0,0-.86-.3c-.38.12-.5.5-.66.82a107,107,0,0,1-6.36,10.58c-1.38,2.06-2.84,4.06-4.35,6a10.8,10.8,0,0,1-8.11,4.57,10.09,10.09,0,0,1-7.47-2.73,2,2,0,0,0-2.63-.29,19.13,19.13,0,0,1-7.8,1.71q-25.68.07-51.35,0a5.38,5.38,0,0,1-3.55-.77c-1.66-.51-3.41-.67-5-1.64-3.38-2.1-4.81-5.27-5.4-9a26.28,26.28,0,0,1-.29-4.05c0-7.72,0-15.43,0-23.15a37.16,37.16,0,0,1,.57-5.58,4.71,4.71,0,0,1,.4-2.2c.31-.72.25-1.18-.56-1.43A1.48,1.48,0,0,1,36.49,80.91Z" transform="translate(-30.86 -30.95)"/><path class="cls-1" d="M209,138c.76.76,1.77,1.21,2.5,2,2.79,3.15,2.72,7.28.58,10.71a.86.86,0,0,1-.07.1c-.65.9-1.77,1.78-1.83,2.72s1.51,1.25,2.21,2c2.91,3.17,3.1,7,1,10.82a35.85,35.85,0,0,1-2.35,3.41,10.84,10.84,0,0,1,4.39,3.81,8.23,8.23,0,0,1,1.1,5.59,13.38,13.38,0,0,1-2.59,5.57,57.88,57.88,0,0,1-23.87,19.76,30.28,30.28,0,0,1-6.61,2,8.76,8.76,0,0,1-5.19-1c-.4-.18-.62-.32-1,0-3.56,2.35-7.15,2.25-10.75.07a3,3,0,0,1-1.92-1.49,7.59,7.59,0,0,1-1.24-2.71c-.24-.92-.37-1.87-.58-2.94a11.44,11.44,0,0,0-2,1.29,9.07,9.07,0,0,1-9.32.87,8.62,8.62,0,0,1-5.11-8.06c-.09-3.4,1.68-6,4.19-8.13a24,24,0,0,0,3-2.69,18.39,18.39,0,0,1-2.47-.79,8.25,8.25,0,0,1-3.75-4.05c-.32-.77-.62-.85-1.32-.43a8.81,8.81,0,0,1-4.71,1.13c-.8,0-1.12.29-1.08,1,.14,2.36-.21,4.7-.27,7a42.05,42.05,0,0,1-1.41,11.5,11.05,11.05,0,0,1-7.8,7.89,28.17,28.17,0,0,1-5.77,1c-.77.05-1.36-.43-2.08-.42a61.16,61.16,0,0,1-11.67-2.52,10.52,10.52,0,0,1-5.25-3.4c-.53-.66-.8-.17-1.13.1a46.84,46.84,0,0,1-8.23,5.53,10.14,10.14,0,0,1-8.77.65,7.83,7.83,0,0,1-4.3-4.46,8.83,8.83,0,0,1,1.37-9.42,13.12,13.12,0,0,1,3.71-2.79,33.89,33.89,0,0,0,4.77-3.19c3-2.53,4.5-5.92,5.59-9.57.15-.52.06-.73-.5-.74a3.83,3.83,0,0,1-.94-.19,5.25,5.25,0,0,0-4.23.43c-4.42,2.2-9.28,1.25-11.75-3.32-2-3.59-1.36-7.72,2.16-11.06.55-.52,1.15-1,1.73-1.47a1.57,1.57,0,0,1,.64-.84,46.63,46.63,0,0,0,12.64-17.26,8.76,8.76,0,0,1,8-5.82c3.51-.15,7.76,1.58,9.06,5.68a8.2,8.2,0,0,1,5.47-5.2,10.36,10.36,0,0,1,4.6-.51c3.61.56,5.7,2.83,7,6a61.68,61.68,0,0,0,3.31,6.79,35.93,35.93,0,0,0,9.2,10.62,14,14,0,0,1,4.61,5.09c.13.29.33.53.63.31.51-.37,1.44-.3,1.41-1.25a5.32,5.32,0,0,0-.31-1.41c-.46-1.48-1-3-1.3-4.49a3.22,3.22,0,0,0-.69-1.38,8.62,8.62,0,0,1-2.13-5.75c0-3.91,1.59-7.51,6-8.73a21.69,21.69,0,0,1,5.21-.66,124,124,0,0,0,24.15-2.58,9.18,9.18,0,0,1,7.5,1.61,7.34,7.34,0,0,1,3,4.81,31,31,0,0,0,3.62-4.09,10,10,0,0,1,7-4.37A6.88,6.88,0,0,1,209,138Z" transform="translate(-30.86 -30.95)"/><path class="cls-2" d="M209,138c-2-.52-3.88-1.24-6.06-.6a9.66,9.66,0,0,0-4.92,3.2,44.84,44.84,0,0,1-4.66,5.28,31.08,31.08,0,0,0-1-3c-1.69-3-6-4.46-9-3.78-8.58,1.94-17.3,2.47-26.06,2.7-3.23.09-6.32.91-8.07,4a8.58,8.58,0,0,0-1.18,5.61,9.43,9.43,0,0,0,2.35,5.39,1,1,0,0,1,.26.4c.61,2.27,1.21,4.54,1.83,6.81.13.47.13.75-.46.81-.75.08-1.24.69-1.88,1a9.46,9.46,0,0,0-3.37-4.69,41.11,41.11,0,0,1-14-18.58,9.09,9.09,0,0,0-3.93-5,8.16,8.16,0,0,0-5.4-1,9.14,9.14,0,0,0-6.61,4.07c-.44.7-.52,1.49-1,2.41a7.17,7.17,0,0,0-2.94-4.53c-5.06-3.54-11.31-2-13.83,3.75a51.56,51.56,0,0,1-3.7,7.11,44.32,44.32,0,0,1-9.85,10.86c-.63-.4-1.12.09-1.62.32a90.43,90.43,0,0,0-8.41,4.77c-1.09.64-2.39.91-3.27,1.9-.47,0-.7-.35-1-.65-4.15-4.94-9.73-6.74-15.9-7.19-1.83-.13-2-.26-1.69-2.09.38-2.44.38-2.44,2.86-2.44,3.55,0,7.11,0,10.67,0,2.61,0,4.85-.88,6.27-3.27,2.07-3.47,1.14-8.56-2-10.69a7.71,7.71,0,0,0-4.34-1.16c-6.27-.06-12.55-.15-18.81,0-3.76.1-6.58,1.43-7.76,5.82-.11.4-.12.9-.67,1a19.79,19.79,0,0,1,6.24-16.29c.53-.52,1.25-.9,1.42-1.72a23,23,0,0,0,4.75.46q24.34,0,48.7,0c3.62,0,7.17-.44,10.35-2.39.42-.25.56,0,.77.23a11.3,11.3,0,0,0,7.42,3.48,8.69,8.69,0,0,0,4.83-1.15,11.71,11.71,0,0,0,3.81-3.24A112.83,112.83,0,0,0,139,109.11c.46-.91.86-1.33,1.76-.5a4.18,4.18,0,0,0,1,.47c-1.51,1.5-1.92,3.4-2.45,5.3a8.65,8.65,0,0,0,.81,6.15,10.35,10.35,0,0,0,7,5.63c5.15,1.29,10.4,2.12,15.64,3,1.85.29,3.72.53,5.57.79,2.8.82,5.44,2.08,8.31,2.71a37.52,37.52,0,0,0,28.87-4.92,32.69,32.69,0,0,0,4.07-3c.34-.29.66-.76,1.24-.42,1.72,2.31,1.33,4.9.89,7.46A16.09,16.09,0,0,1,209,138Z" transform="translate(-30.86 -30.95)"/><path class="cls-1" d="M39.88,146.68a22.1,22.1,0,0,1,1.24-3.47,7.72,7.72,0,0,1,7-3.74c6.47-.12,13-.17,19.43,0,5.6.14,7.95,4.65,7.19,9.53a7,7,0,0,1-3.25,5.2A8.63,8.63,0,0,1,67,155.31q-5.82,0-11.64,0c-.78,0-1.15.15-1.2,1s-.62,1.92-.3,2.55,1.58.23,2.42.33c4.92.59,9.55,1.87,13.34,5.32a36.09,36.09,0,0,1,2.57,2.82c5.46,8.42,5.85,17.19,1.2,26-3.42,6.46-9.1,10.1-16.34,11.29a22,22,0,0,1-21.88-9.12c-1.73-2.59-1.49-5.5-.18-8.23a7.23,7.23,0,0,1,6.78-4.16,7.08,7.08,0,0,1,5.56,2.63,8.58,8.58,0,0,0,6,3.25,5.65,5.65,0,0,0,4.33-1.68,8.58,8.58,0,0,0,1.61-10,3.94,3.94,0,0,0-3.22-2.2,13.33,13.33,0,0,0-6,.51,22.79,22.79,0,0,1-3.8,1.06c-5.14.89-9.63-1.85-9.91-7.59-.11-2.3.61-4.65,1-7C38.16,156.91,39,151.8,39.88,146.68Z" transform="translate(-30.86 -30.95)"/><path class="cls-3" d="M210.73,124.32c-.84.11-1.23.86-1.81,1.31a38.37,38.37,0,0,1-40.5,4.43,1.29,1.29,0,0,1-.18-.16,63.94,63.94,0,0,0,12.67.42c5.82-.63,11.47-1.77,15.91-6a21.22,21.22,0,0,0,5.87-9.72c.64-2.34,1.07-4.75,1.62-7.11a17.28,17.28,0,0,0-.66-9.08,13.12,13.12,0,0,0-3.12-4.77c-.32-.35-.53-.54-.21-1.07a16.56,16.56,0,0,0,2-7.44c.13-1.67.05-3.36,0-5a1.07,1.07,0,0,1,.75-1.14,9.92,9.92,0,0,0,6-8.85,12.08,12.08,0,0,0-2-6.91,33.26,33.26,0,0,1,8.87,8.47,37.82,37.82,0,0,1,7.58,19.74c1,12.24-2.82,22.71-11.37,31.48A6.47,6.47,0,0,0,210.73,124.32Z" transform="translate(-30.86 -30.95)"/><path class="cls-4" d="M122.92,205.74a22.43,22.43,0,0,0,6.87-.68c4.78-1.14,7.49-4.17,8.71-8.83a51.7,51.7,0,0,0,1.17-10.57c.13-2.52.23-5,.32-7.55,0-.72.14-1,1-.83a8.23,8.23,0,0,0,5-1.1c.38-.2.65-.6,1.11-.65a7.88,7.88,0,0,0,7.06,6,22.38,22.38,0,0,1-3.5,3.22,10,10,0,0,0-4.08,7.3,8.46,8.46,0,0,0,2.94,7,8.79,8.79,0,0,0,5.46,2.18,8.31,8.31,0,0,0,5-1.34c1-.65,1.94-1.38,3-2.16.33,3,.76,6,3.46,7.89-.72.32-.72,1.1-1,1.68-3.62,7.59-9.52,12.14-17.89,13.24-7.5,1-13.89-1.43-19.17-6.79a20.27,20.27,0,0,1-4.31-6.41C123.91,206.72,123.72,206,122.92,205.74Z" transform="translate(-30.86 -30.95)"/><path class="cls-5" d="M36.49,80.91c.66.35,1.61.55,1.89,1.1s-.29,1.33-.53,2c-.15.41-.07.89-.41,1.23C36.75,83.87,36.78,82.36,36.49,80.91Z" transform="translate(-30.86 -30.95)"/><path class="cls-6" d="M125,59.31a1.91,1.91,0,0,1,1,.89,2.14,2.14,0,0,1-1.29-.64Z" transform="translate(-30.86 -30.95)"/><path class="cls-7" d="M192,53.56a56.45,56.45,0,0,1,7.71,9.17,33.51,33.51,0,0,1,3.06,4.58c1.5,3.07.13,6-3.19,6.73-1.83.4-3.16-.55-4.25-1.87-2-2.43-3.48-5.26-5.53-7.67-.9-1.07-1.77-2.17-2.65-3.25-2.11-2.61-1.71-5.28,1.07-7.16.19-.13.37-.28.63-.48-1.43,0-2.77.07-4.1,0-1.05-.07-1.23.33-1.22,1.29,0,3.95,0,7.91,0,11.87a6.92,6.92,0,0,1-1.24,4.73c2.35,0,4.54,0,6.73,0a15.05,15.05,0,0,1,2.5.2,5.46,5.46,0,0,1,4.8,5,37.38,37.38,0,0,1,0,10.51c-.45,3-2.21,4.61-5.28,5a21,21,0,0,1-2.86.18q-17.94,0-35.88,0c-1.14,0-1.5.3-1.57,1.42-.11,1.77-.2,1.76,1.63,1.76h38.16c3.15,0,5.7,1.11,7.34,3.9a8.06,8.06,0,0,1,1.11,4.95,36.48,36.48,0,0,1-2.09,9.68c-2.2,5.73-6.42,9-12.39,10.07a50.65,50.65,0,0,1-14.7.18A206,206,0,0,1,149.42,121a6.65,6.65,0,0,1-3.24-1.7,4.21,4.21,0,0,1-.94-5.25,4,4,0,0,1,4.24-2.47,58.19,58.19,0,0,1,7.24,1.62c7.12,1.55,14.27,2.83,21.6,2.51a21.67,21.67,0,0,0,6.47-1.13,5.49,5.49,0,0,0,3.51-3.32,21.86,21.86,0,0,0,1.3-5.69c.11-1-.24-1.16-1.15-1.16q-19.26,0-38.52,0a21.49,21.49,0,0,1-5.12-.44c-2.43-.6-3.64-1.84-3.66-4.35a54.5,54.5,0,0,1,1.34-12c.54-2.43,2.39-3.36,4.67-3.59a27.63,27.63,0,0,1,2.88-.13q18.06,0,36.11,0c1,0,1.3-.21,1.28-1.23-.07-2.76,0-2.76-2.83-2.76H147.4c-.36,0-.72,0-1.08,0-2.54,0-3.71-1-4.21-3.52-.09-.45,0-.8-.74-.63a4.37,4.37,0,0,1-4.65-6.39c1.07-2.24,2.93-3.88,4.41-5.8a38.68,38.68,0,0,0,3.88-6,15.85,15.85,0,0,1,2.77-3.93h-6.54a4.49,4.49,0,0,1-.55,4.76,4,4,0,0,1-5.37,1.34,18.09,18.09,0,0,1-3.24-2.26,120.42,120.42,0,0,0-11.18-7.83c-.3-.19-.6-.39-.89-.6-2-1.43-2.63-3.34-1.66-5.41A4.33,4.33,0,0,1,123.84,41a14.16,14.16,0,0,1,3.77,2,123.44,123.44,0,0,1,10.61,7.44,20.75,20.75,0,0,1,.19-3,3.31,3.31,0,0,1,3.2-2.89,13.25,13.25,0,0,1,1.67-.07c6.68,0,13.36,0,20,0,1,0,1.33-.22.75-1.15a3,3,0,0,1-.24-.55c-1-2.73-.39-4.62,1.85-5.66,2.73-1.27,5-.6,6.48,1.89a16.11,16.11,0,0,1,1.6,4,1.75,1.75,0,0,0,2.05,1.51c7.16-.08,14.32,0,21.48,0H198c4.07,0,6,2.89,4.41,6.71a3.46,3.46,0,0,1-3.36,2.26C196.7,53.6,194.34,53.56,192,53.56Z" transform="translate(-30.86 -30.95)"/><path class="cls-7" d="M76.63,123.36H52.29a25,25,0,0,1-3.35-.2c-4-.53-5.86-2.43-6.2-6.48-.07-.87-.09-1.76-.09-2.63V90.66a16.89,16.89,0,0,1,.52-4.75,5.84,5.84,0,0,1,4.49-4.33,18.6,18.6,0,0,1,4.4-.48h49.29a19.93,19.93,0,0,1,3,.19c4.32.67,6.22,2.67,6.54,7,.1,1.36.15,2.72.14,4.08-.06,8,.21,16-.14,24-.16,3.71-1.8,5.78-4.9,6.49a20.09,20.09,0,0,1-4.64.48Q89,123.35,76.63,123.36Z" transform="translate(-30.86 -30.95)"/><path class="cls-7" d="M53.17,67,97.6,65.34c-1.63-1.79-3.06-3.41-4.55-5-2.35-2.46-4.8-4.82-7.32-7.11a9.24,9.24,0,0,1-2.38-3A4.28,4.28,0,0,1,84.64,45a4.06,4.06,0,0,1,5.09-.44,10.83,10.83,0,0,1,2,1.65A274.48,274.48,0,0,1,115,71.93a10.46,10.46,0,0,1,2.16,3.95,3.9,3.9,0,0,1-1.43,4.27,4.26,4.26,0,0,1-4.91.57,10.15,10.15,0,0,1-3.24-3.15c-.83-1.06-1.44-2.57-2.54-3.1s-2.64-.1-4,0L57.43,76.49c-4.4.21-8.79.41-13.19.57a8.15,8.15,0,0,1-5.9-1.91c-2.09-1.83-2.36-5-.75-7.66a12.51,12.51,0,0,1,4-3.73A173.53,173.53,0,0,0,68,41.26,13.35,13.35,0,0,1,71.83,38a4.39,4.39,0,0,1,5.63,1.09,4.27,4.27,0,0,1,.22,5.43,31,31,0,0,1-4.88,5.1q-9.31,9-19.48,17S53.26,66.81,53.17,67Z" transform="translate(-30.86 -30.95)"/><path class="cls-7" d="M135.92,85.88c3.47,0,5.24,2.31,4.42,5.75a42.5,42.5,0,0,1-2.72,7.14,112,112,0,0,1-13.33,22.9,15.68,15.68,0,0,1-1.24,1.46c-1.21,1.26-2.63,2-4.4,1.37a5,5,0,0,1-3.57-3.84,5.09,5.09,0,0,1,1.36-4,101.49,101.49,0,0,0,6.71-9.62,114.71,114.71,0,0,0,8.62-17.86C132.67,86.88,133.94,85.86,135.92,85.88Z" transform="translate(-30.86 -30.95)"/><path class="cls-7" d="M119.39,64a8.58,8.58,0,0,1,4.38,1.71,114.54,114.54,0,0,1,12.5,8.83,25.55,25.55,0,0,1,2,1.87c1.88,2,1.94,4.16.23,6.36-1.36,1.74-3.56,2-5.82.7a40.9,40.9,0,0,1-4.23-3.32c-3.29-2.61-6.8-4.88-10.3-7.19a7.67,7.67,0,0,1-1.86-1.49,4,4,0,0,1-.69-4.56C116.4,65.31,117.5,64.07,119.39,64Z" transform="translate(-30.86 -30.95)"/><path class="cls-2" d="M116.8,106V92.6a27.72,27.72,0,0,0-.38-5.61c-.09-.43,0-.66.46-.89a9.56,9.56,0,0,0,4.24-3.41c.28-.45.51-.58,1-.18,1.36,1.11,2.76,2.18,4.15,3.26a.73.73,0,0,1,.33,1,110,110,0,0,1-9.43,19.06A2.3,2.3,0,0,1,116.8,106Z" transform="translate(-30.86 -30.95)"/><path class="cls-7" d="M84.31,60.08c-4.75.14-9.5.48-14.28.44a1,1,0,0,1,.51-.88c2.29-2.15,4.6-4.31,6.91-6.45.22-.2.45-.81.85-.09a24,24,0,0,0,5.62,6.31C84.09,59.56,84.33,59.68,84.31,60.08Z" transform="translate(-30.86 -30.95)"/><path class="cls-7" d="M175.69,169.18l9.48.06c2.47,0,3.45.79,4.06,3.24a38,38,0,0,0,6.7-5,60.5,60.5,0,0,0,6.78-7.43c1.73-2.32,3.76-2.71,5.66-1.26,1.62,1.23,1.93,3,.82,5a26.17,26.17,0,0,1-3.78,4.92A60.72,60.72,0,0,1,191.48,180a12.94,12.94,0,0,1-1.82.92c-2.82,1.1-5.08-.4-5.21-3.45,0-.23,0-.46,0-.68H178.8c1.62,2,3.18,3.9,4.7,5.82a38.43,38.43,0,0,1,2.39,3.3,3.68,3.68,0,0,1-1.27,5.46c-1.87,1.18-3.76.71-5.16-1.28-1.17-1.66-2.35-3.33-3.53-5,0-.05-.13-.05-.22-.08-.24.36-.11.76-.11,1.14,0,3.8,0,7.59,0,11.39a13.75,13.75,0,0,1-.06,1.44,3.72,3.72,0,0,1-5.87,2.76,3.62,3.62,0,0,1-1.46-3.35c0-4.48,0-9,0-13.67-1,1.2-1.79,2.27-2.65,3.31a49.3,49.3,0,0,1-6.81,6.74c-2.17,1.78-3.79,2-5.52.77a3.58,3.58,0,0,1-1.07-4.86c.87-1.5,2.31-2.41,3.57-3.51a47.12,47.12,0,0,0,8.84-10.44h-5.7c-1.28,0-2.57.05-3.84-.05a3.33,3.33,0,0,1-3.21-3.39,3.38,3.38,0,0,1,2.78-3.87,8.82,8.82,0,0,1,1.54-.14c3.64,0,7.28,0,10.92,0,1,0,1.27-.27,1.16-1.2a4.07,4.07,0,0,1,.38-2.22,1.42,1.42,0,0,0,.1-.93,67.51,67.51,0,0,0-1.8-8.54,3,3,0,0,1-.25-1.28c.21-1.41-.62-1.28-1.53-1.17s-1.83.14-2.82.22a60,60,0,0,1,2.74,9.93c.69,3.32-1.65,5.55-4.78,4.63a3.15,3.15,0,0,1-2.24-2.45,94.43,94.43,0,0,0-2.46-9.49c-.27-.81.16-1.72,0-2.45-.1-.54-1.33-.6-1.86-1.24a3.75,3.75,0,0,1,1.94-6,6.78,6.78,0,0,1,1.54-.2,141.45,141.45,0,0,0,19.72-1.47c2.32-.34,4.61-.92,6.93-1.32,3.93-.68,5.54,2.26,4.43,4.93a7.61,7.61,0,0,0-.58,3.85c.11,1.38-.6,2.67-1.1,4,.37.18.58-.14.83-.29A45.4,45.4,0,0,0,201.73,144c1.37-1.87,3.06-2.35,4.78-1.53a3.43,3.43,0,0,1,1.7,5,21.69,21.69,0,0,1-3.28,4.41,61.53,61.53,0,0,1-12.79,10.58c-.31.2-.62.37-.94.55-2.91,1.68-4.73,1.12-6.12-2-.68,1.26-1.31,2.5-2,3.69a19.09,19.09,0,0,1-1.65,2.35c-1.6,1.94-3.11,2.12-5.23.71a5.14,5.14,0,0,0-.51-.29A2.32,2.32,0,0,0,175.69,169.18Z" transform="translate(-30.86 -30.95)"/><path class="cls-7" d="M135.32,169.22q-.4,9.36-.81,18.7a34.39,34.39,0,0,1-.65,6.55c-.91,3.8-3,5.74-6.85,6.13a31.5,31.5,0,0,1-15.2-2.59c-2.59-1.06-3.22-2.94-2.13-5.31a3.18,3.18,0,0,1,3.57-2,20.79,20.79,0,0,1,3.88,1.21A18.08,18.08,0,0,0,125,193a1.71,1.71,0,0,0,1.72-1.78c.32-6.51.63-13,1-19.53,0-.64-.17-.81-.8-.81-4.48,0-9,0-13.44,0-.84,0-.83.44-.91,1a51.34,51.34,0,0,1-4,15c-3.15,6.73-8.51,11.17-15,14.38-2.28,1.13-4.27.51-5.28-1.4s-.54-4.08,1.64-5.42a67.42,67.42,0,0,0,5.85-3.74c4.83-3.66,7.21-8.72,8.34-14.5.27-1.41.46-2.84.72-4.25.15-.79,0-1.13-.94-1.1-1.71.07-3.44.06-5.15,0a3.73,3.73,0,0,1-3.59-2.19c-1,.83-2.07,1.67-3.12,2.45a4.85,4.85,0,0,1-3.45,1.13,3.62,3.62,0,0,1-2.3-5.87,17.21,17.21,0,0,1,3.1-2.81,49.67,49.67,0,0,0,14-18.84,6.52,6.52,0,0,1,1.07-1.86c1.27-1.41,2.89-1.64,4.78-.65,1.52.79,2.06,2,1.54,3.82a37.49,37.49,0,0,1-4.16,8.74c-.86,1.48-1.83,2.9-2.82,4.3s-2.07,2.73-3.2,4.2h29.59c.1-.45-.31-.67-.54-1a59.52,59.52,0,0,1-8.56-14.63,6.11,6.11,0,0,1-.59-2.91,3.61,3.61,0,0,1,3.34-3.23,3.1,3.1,0,0,1,3.67,2,69,69,0,0,0,5,9.81A43.42,43.42,0,0,0,143.51,165a4.15,4.15,0,0,1,2,3.74,3.75,3.75,0,0,1-5.43,3.13,27,27,0,0,1-4.45-3.23C135.1,168.63,135.24,168.94,135.32,169.22Z" transform="translate(-30.86 -30.95)"/><path class="cls-7" d="M182.65,201.68a3,3,0,0,1-3.12-2,3.63,3.63,0,0,1,.49-4.13,6.93,6.93,0,0,1,2.73-1.69,46.11,46.11,0,0,0,21.64-17.27c.11-.16.22-.32.35-.48,1.72-2.12,3.44-2.46,5.37-1s2.16,3.26.72,5.45a56.39,56.39,0,0,1-9.58,11A48,48,0,0,1,185.54,201a21.21,21.21,0,0,1-2.06.62A5,5,0,0,1,182.65,201.68Z" transform="translate(-30.86 -30.95)"/><path class="cls-2" d="M119.73,176c2.75,0,2.75,0,2.62,2.75s-.32,5.58-.4,8.36c0,.81-.31,1-1,.81-2-.54-4-1.49-6-1.86-.41-.07-.38-.27-.28-.59a80.71,80.71,0,0,0,2.22-8.92c.1-.47.32-.56.72-.55C118.29,176,119,176,119.73,176Z" transform="translate(-30.86 -30.95)"/><path class="cls-2" d="M120.8,158.33H110.56c2-3.65,4.24-7.09,5.22-11.15C116.73,151.17,118.76,154.65,120.8,158.33Z" transform="translate(-30.86 -30.95)"/><path class="cls-8" d="M175.69,169.18a2.39,2.39,0,0,1-.15-1.76h.08a.44.44,0,0,1,.06.1Z" transform="translate(-30.86 -30.95)"/><path class="cls-9" d="M135.32,169.22a.72.72,0,0,1-.09-.83c.08-.11.31.11.39.29C135.35,168.77,135.42,169,135.32,169.22Z" transform="translate(-30.86 -30.95)"/><path class="cls-10" d="M57.73,144.46c3.16,0,6.31,0,9.47,0,1.89,0,2.66.84,2.68,2.86s-.73,3-2.69,3c-5.28,0-10.56,0-15.84,0-1,0-1.28.33-1.43,1.23-.67,4.1-1.39,8.19-2.12,12.27-.15.87-.1,1.21,1,1a24.26,24.26,0,0,1,10.11-.16c5.94,1.3,10,4.81,11.68,10.65,2.18,7.53.86,14.38-5,19.92a17.78,17.78,0,0,1-25.82-1.73,3.24,3.24,0,0,1-.68-3.13,2.8,2.8,0,0,1,2.1-2.21,2.39,2.39,0,0,1,2.49,1.05,13.63,13.63,0,0,0,7.57,4.54,10.42,10.42,0,0,0,10.5-3.47c3.6-4,4.32-8.73,2.66-13.77-1.35-4.07-4.7-6.33-9.12-6.55a20.06,20.06,0,0,0-8,1.32,8.54,8.54,0,0,1-2.44.59c-2.6.14-4-1.41-3.52-4,.48-2.79.92-5.59,1.38-8.39.63-3.74,1.25-7.48,1.89-11.22a9.4,9.4,0,0,1,.34-1.39c.56-1.74,1.32-2.34,3.15-2.36,3.2,0,6.4,0,9.6,0Z" transform="translate(-30.86 -30.95)"/><path class="cls-1" d="M175.8,71.41a3.72,3.72,0,0,1-.38.07H165c1.33-1.88,1.09-4,1.09-6,0-3.6,0-7.19,0-10.78,0-.79.13-1.13,1-1.1,2.16.07,4.32.06,6.47,0,.81,0,1,.25,1,1,0,4.35,0,8.7,0,13A5,5,0,0,0,175.8,71.41Z" transform="translate(-30.86 -30.95)"/><path class="cls-1" d="M158.08,71.43h-11.5c.71-.9,1.34-1.65,1.93-2.43a61.84,61.84,0,0,0,5.32-8.51c1.25-2.38,1.48-4.71-1-6.88,1.36,0,2.46,0,3.55,0,.82,0,.62.55.62,1,0,4,0,8.07,0,12.1C157,68.34,157,70,158.08,71.43Z" transform="translate(-30.86 -30.95)"/><path class="cls-1" d="M76.8,90.33c7.88,0,15.76,0,23.64,0,1,0,1.36.2,1.35,1.3q-.09,10.56,0,21.12c0,1.15-.39,1.4-1.45,1.4q-23.64,0-47.28,0c-.9,0-1.22-.18-1.22-1.17q.07-10.74,0-21.48c0-1,.28-1.17,1.2-1.17C61,90.35,68.88,90.33,76.8,90.33Z" transform="translate(-30.86 -30.95)"/><path class="cls-1" d="M180.28,152.31c-1.15,3.57-2.17,6.93-4.51,9.92a71.56,71.56,0,0,0-2.17-9Z" transform="translate(-30.86 -30.95)"/><path class="cls-7" d="M87.83,108.26c-.4,0-.79.09-1.19.09-9.25,0-18.51,0-27.77,0-1,0-1.32-.17-1.27-1.21.11-1.87.06-3.75.07-5.62a1.68,1.68,0,0,1,1.34-.37A21.88,21.88,0,0,0,71.8,96.76a2.83,2.83,0,0,1,1.75-.64c5.23,0,10.45,0,15.67,0a1.11,1.11,0,0,1,.54.76c.76,3.37,1,6.71-.72,9.91A3.27,3.27,0,0,1,87.83,108.26Z" transform="translate(-30.86 -30.95)"/><path class="cls-2" d="M87.83,108.26A11.78,11.78,0,0,0,90,100.84a19.69,19.69,0,0,0-.71-4.57,33.79,33.79,0,0,1,6.67,0q0,5.69.07,11.37c0,.47-.08.75-.64.74C92.85,108.3,90.34,108.28,87.83,108.26Z" transform="translate(-30.86 -30.95)"/><path class="cls-11" d="M95.93,96.24l-6.67,0-15.58,0a1.67,1.67,0,0,0-1.12.35,22.22,22.22,0,0,1-14.89,5c0-1.56,0-3.12-.06-4.68,0-.66.26-.79.85-.79q15.42,0,30.83,0c1.84,0,3.68,0,5.51,0C95.18,96.07,95.6,95.88,95.93,96.24Z" transform="translate(-30.86 -30.95)"/></svg>