<svg id="圖層_1" data-name="圖層 1" xmlns="http://www.w3.org/2000/svg" viewBox="0 0 208.16 187.05"><defs><style>.cls-1{fill:#cf6337;}.cls-2{fill:#f6ea9a;}.cls-3{fill:#f3c352;}.cls-4{fill:#b06430;}.cls-5{fill:#fee13f;}.cls-6{fill:#d69c75;}.cls-7{fill:#edcfa8;}.cls-8{fill:#f4e496;}.cls-9{fill:#fefefe;}.cls-10{fill:#f1be50;}.cls-11{fill:#fefcfc;}.cls-12{fill:#f2c051;}.cls-13{fill:#f3e194;}.cls-14{fill:#e9a94a;}.cls-15{fill:#db8c56;}.cls-16{fill:#e6b271;}.cls-17{fill:#e6b170;}.cls-18{fill:#faf6f3;}.cls-19{fill:#c08664;}.cls-20{fill:#eed1ac;}</style></defs><title>37</title><path class="cls-1" d="M108.5,62.9l2.61-3.38c-3.6-.32-5.81-2.88-8.43-4.76s-5-3.56-7.63-5.17a7.21,7.21,0,0,1-3.73-5,7.21,7.21,0,0,1,4.39-7.44,7.7,7.7,0,0,1,6.74,1c2.34,1.46,4.61,3,6.92,4.52.34.23.62.62,1,0,1.34-2.09,3.49-2.56,5.74-2.59,4.75-.06,9.51,0,14.27,0,.8,0,1.1-.11,1.19-1.06.3-3.31,2.18-5.07,5.94-5.86,2.79-.58,5.43.73,7.08,3.58a11.94,11.94,0,0,1,1,2.41c.23.75.61.94,1.37.93,6.07,0,12.15,0,18.23,0,2.16,0,4.2.47,5.6,2.39a7,7,0,0,1-4.17,11.05l-.66.12,3.13,4a11.35,11.35,0,0,1,3.69,6.8,6.74,6.74,0,0,1-4.58,7.21,1.85,1.85,0,0,0-1.4,2.11c0,2.75.25,5.5-.46,8.23A8.19,8.19,0,0,1,164,86.16c0,.26.23.3.38.4,3.74,2.59,5.11,6.23,4.54,10.62a32.2,32.2,0,0,1-2.75,10.26A15.6,15.6,0,0,1,155.72,116a36.43,36.43,0,0,1-11.5,1.08c-7.25-.39-14.34-1.75-21.45-3.05a15.09,15.09,0,0,1-3.78-1.12,8.16,8.16,0,0,1-4-4.82c-.85-2.86,1.13-7.42,4.2-8.39a8.39,8.39,0,0,1,5-.13,109.93,109.93,0,0,0,14.94,3,43.19,43.19,0,0,0,11.47,0c1.47-.22,2.81-.67,3.31-2.34.23-.75.12-1.16-.74-1.17H121.18c-.64,0-1.28,0-1.91,0a20.66,20.66,0,0,1-3.72-.93,5.63,5.63,0,0,1-2.83-2.43,101.23,101.23,0,0,1-8,13.91c-1.06,1.55-2.2,3-3.35,4.54-3.45,4.51-9.13,3.57-11.83-.49-.58-.86-.83-.94-1.56-.2a7,7,0,0,1-3.22,1.77,23.82,23.82,0,0,1-6.16.84c-5.32,0-10.64,0-16,0-1.44,0-2.89,0-4.34,0-1.11-.12-2.29.33-3.34-.37l-18.46,0a23.72,23.72,0,0,1-5.82-.64,7.28,7.28,0,0,1-5.74-5.75,19,19,0,0,1-.53-4.5c0-7,0-14.08,0-21.12a19.92,19.92,0,0,1,.83-5.54,8.08,8.08,0,0,1,2.46-3.54c-1.9-.48-3.77-.69-5.41-1.84-3.63-2.56-4.13-7.33-1.89-11a11.32,11.32,0,0,1,3.42-3.47A152.23,152.23,0,0,0,48.56,37.09,11.17,11.17,0,0,1,53.45,34c4.08-1.22,9.45,2.65,8.12,7.9.33.22.41-.12.56-.26,2.93-2.75,6.25-2.91,9.37-.38S77.37,47,80.22,50c3.14,3.25,6.17,6.6,9,10.1.26.31.48.83.94.15,2.38-3.53,6.36-3.48,9.63-1.46,2.17,1.35,4.3,2.76,6.45,4.14C107,63.1,107.77,64,108.5,62.9Z" transform="translate(-19.04 -33.03)"/><path class="cls-2" d="M184.8,182.84c-.39.35-.23.82-.23,1.24,0,2.48,0,5,0,7.44,0,.72-.2,1.06-.95,1a5.77,5.77,0,0,0-.72,0H56.67c-1.94,0-1.69.22-1.71-1.75,0-1.64,0-3.28,0-4.92,0-.41.15-.92-.48-1.06.1-.56.59-.47,1-.52a19.56,19.56,0,0,0,10.12-4.87,12.12,12.12,0,0,0,1.38-1.49,2.53,2.53,0,0,1,1.3-1,48,48,0,0,1,7.58,0c.73.47.13.91-.07,1.31a6,6,0,0,0,.46,6.67,5.19,5.19,0,0,0,5.39,2.1c2.68-.43,4.88-2,7-3.45A28.66,28.66,0,0,0,95,178.1c.22-.27.5-.6.89-.49s.42.56.47.9a6,6,0,0,0,4.33,4.83c4.88,1.75,9.88,3,15.12,2.56,4.61-.39,7.92-2.51,9.12-7.41a43.16,43.16,0,0,0,.93-8.67c.17-4.07.46-8.13.54-12.2,0-1.29.33-1.43,1.56-.84,2.91,1.41,5.75.84,7.52-1.5a5.81,5.81,0,0,0-.38-7.58,28.21,28.21,0,0,0-3.29-2.79,42.77,42.77,0,0,1-11.93-16.28c-.2-.48-.61-1,.17-1.44a5.92,5.92,0,0,1,1.78-.13q11.21,0,22.41,0a4.13,4.13,0,0,1,2,.24c.45.64-.2.73-.5.91-.83.49-1.72.86-2.51,1.41a14.64,14.64,0,0,0-6.37,11.18,8.35,8.35,0,0,0,1.54,6.46,6.08,6.08,0,0,0,10.14-1.94,20.32,20.32,0,0,0,.61-3.54,3.47,3.47,0,0,1,2.61-3.23,4.61,4.61,0,0,1,4.85,1.28,4.05,4.05,0,0,1,.55,4.41,6.3,6.3,0,0,1-5.89,4.17c-3.05.17-5,1.62-5.66,4.11-.81,3.12.11,5.78,2.64,7.31a8.42,8.42,0,0,0,4.48,1.12,9.66,9.66,0,0,1,4.07.89c2.53,1.18,3.62,3.55,3,6.5a5.32,5.32,0,0,1-5.17,4,8.26,8.26,0,0,1-3.77-.44,4.94,4.94,0,0,1-2.92-3.69,8.83,8.83,0,0,0-1.33-3.81,6.11,6.11,0,0,0-6.25-2.43,5.71,5.71,0,0,0-4.81,4.71c-.77,3.26.18,6.27,1.7,9,3.34,5.93,8.76,8.49,15.4,8.79a22.09,22.09,0,0,0,8-1.14A16.37,16.37,0,0,0,171.77,172a17.28,17.28,0,0,0-.06-10.62,14.1,14.1,0,0,0-4.29-6.24c-.36-.31-.77-.57-1.15-.86-1-.76-1-1-.23-1.91a15.06,15.06,0,0,0,3.65-7.83c.91-6.66-1.51-12.92-7.9-16-.45-.22-1.39-.17-1.11-1.18a3.3,3.3,0,0,1,1.75-.26q10.17,0,20.34,0a3.3,3.3,0,0,1,1.75.26,1.36,1.36,0,0,1,.29,1.34c-1.71,2.47-1.82,5.29-1.81,8.15,0,6.08,0,12.15,0,18.23a8.14,8.14,0,0,1-.11,1.91,2.78,2.78,0,0,1-.91,1.23c-1.9,1.77-3.5,3.84-5.37,5.63a4.56,4.56,0,0,0-.75.94,1.11,1.11,0,0,0,.15,1.52,1.14,1.14,0,0,0,1.62,0,3.42,3.42,0,0,0,.43-.42c1.12-1.3,2.42-2.43,3.58-3.7.26-.28.53-.75,1-.55s.33.68.34,1.08,0,.64,0,1v13.17a5.85,5.85,0,0,0,.11,1.67A11.46,11.46,0,0,0,184.8,182.84Z" transform="translate(-19.04 -33.03)"/><path class="cls-3" d="M184.58,127.46l-23.12,0c-.31,0-.65-.07-.9.2a1.69,1.69,0,0,1-1.39-.08,19.11,19.11,0,0,0-11.4,0c-.44.14-.9.37-1.37.06-.31-.27-.69-.18-1-.18H119.78a2.38,2.38,0,0,1-1.1-2.25c0-3.64,0-7.28,0-10.92,0-.59-.11-1.21.37-1.7,3.49,1.31,7.2,1.67,10.83,2.37,3.79.72,7.61,1.24,11.45,1.6,5.35.51,10.69.47,15.82-1.38,5.45-2,8.54-6.09,10.09-11.49a33.27,33.27,0,0,0,1.44-7.37,10.07,10.07,0,0,0-5.36-10c2.51-1.89,3.08-4.6,3.23-7.43.11-2.07,0-4.15,0-6.23a.86.86,0,0,1,.74-1c5.52-1.47,6.61-6.91,3.79-11.1a18,18,0,0,1-1.91-2.88l19-.06c.55,0,.83.15.77.74,0,.32,0,.64,0,1q0,33.95,0,67.88a3.6,3.6,0,0,1-2.2.67C186,127.66,185.21,128,184.58,127.46Z" transform="translate(-19.04 -33.03)"/><path class="cls-4" d="M68,177.11a19.39,19.39,0,0,1-13.3,7.52c-.07,0-.13.08-.2.12-6.87.54-12.73-1.49-17.37-6.74a6.89,6.89,0,0,1,1.26-10.51,5.86,5.86,0,0,1,6.73.26c.8.19,1.18.91,1.74,1.39a8.47,8.47,0,0,0,5.21,2.39c2.23.12,3.69-1.06,5-2.62a8.2,8.2,0,0,0,.69-8.37,4,4,0,0,0-3.21-2.23,12,12,0,0,0-5.55.44,7.14,7.14,0,0,1-3.94.75c-4.31.43-7.26-1.87-7.69-6.13a17.17,17.17,0,0,1,.6-4.37c.85-5.12,1.6-10.25,2.62-15.33,1-4.77,2.4-5.92,7.22-6.49,1.45-.69,3-.24,4.49-.36.89,0,1.77,0,2.66,0,3,0,6.06-.06,9.09,0a7,7,0,0,1,5.73,2.48,8,8,0,0,1,.61,7.68c-1.1,2.48-3.26,3.42-5.84,3.46-3.4.05-6.8,0-10.19,0-1.71,0-1.73,0-2,1.66-.41,2.26-.41,2.29,1.84,2.56a33.46,33.46,0,0,1,5.07.91c6.68,1.88,10.72,6.28,12.49,12.94a22,22,0,0,1-2.22,16.89A3.59,3.59,0,0,1,68,177.11Z" transform="translate(-19.04 -33.03)"/><path class="cls-4" d="M186.7,127.65l2.19-.48c4.88,0,9.76-.07,14.64.06,6,.16,11.47,2,15.85,6.33A25,25,0,0,1,226,146c2,8.51,1.63,16.88-1.89,24.88-3.64,8.28-10.28,12.7-19.29,13.18-5.26.28-10.55.1-15.83.05a7,7,0,0,1-4.18-1.24c-1.41-1.1-1.7-2.71-2-4.31-.08-4.55-.11-9.09,0-13.63.06-2-.57-3.9-.56-5.88a2.94,2.94,0,0,1,.41-1.83c0-7.52,0-15,.06-22.55,0-2.19.27-4.32,1.84-6A1.9,1.9,0,0,1,186.7,127.65Z" transform="translate(-19.04 -33.03)"/><path class="cls-5" d="M45,159.51c1.55-.36,3.08-.77,4.59-1.28a11.24,11.24,0,0,1,5.22-.2,4.18,4.18,0,0,1,3.28,2.52,8.39,8.39,0,0,1-2.63,10.36c-2.33,1.64-5.91,1.16-8.36-1.11-.7-.65-1.34-1.36-2-2C45.08,165,45.24,162.26,45,159.51Z" transform="translate(-19.04 -33.03)"/><path class="cls-6" d="M111.15,201.36a5.52,5.52,0,1,1-5.55,5.43A5.54,5.54,0,0,1,111.15,201.36Z" transform="translate(-19.04 -33.03)"/><path class="cls-6" d="M32.4,127.42a5.52,5.52,0,1,1-5.48-5.5A5.52,5.52,0,0,1,32.4,127.42Z" transform="translate(-19.04 -33.03)"/><path class="cls-6" d="M209.76,97.65a5.52,5.52,0,1,1-5.49-5.49A5.53,5.53,0,0,1,209.76,97.65Z" transform="translate(-19.04 -33.03)"/><path class="cls-7" d="M64.87,220.07a1.68,1.68,0,0,1-1.57-.94,1.11,1.11,0,0,1,.13-1.44c1.28-1.42,2.54-2.86,3.85-4.26q7.34-7.81,14.7-15.61c.62-.64,1.35-1.21,2.29-.42s1,1.45.07,2.47c-1.21,1.38-2.49,2.7-3.75,4L66.14,219.26A2.33,2.33,0,0,1,64.87,220.07Z" transform="translate(-19.04 -33.03)"/><path class="cls-7" d="M198.55,80.87a1.68,1.68,0,0,1-1.57-.94,1.1,1.1,0,0,1,.13-1.43c1.28-1.43,2.54-2.87,3.85-4.27q7.33-7.82,14.7-15.61c.62-.64,1.35-1.21,2.29-.42s1,1.45.07,2.47c-1.21,1.38-2.49,2.7-3.75,4L199.82,80.06A2.33,2.33,0,0,1,198.55,80.87Z" transform="translate(-19.04 -33.03)"/><path class="cls-7" d="M52.31,127.21l-4.55,0L55,119.27a12.47,12.47,0,0,1,3.34-3.6h4.55c.17.44-.16.69-.4.92-1.38,1.27-2.45,2.84-3.85,4.09s-2.26,2.58-3.5,3.76C54.14,125.31,53.33,126.36,52.31,127.21Z" transform="translate(-19.04 -33.03)"/><path class="cls-6" d="M180.24,197.85a3.72,3.72,0,1,1-3.78-3.69A3.77,3.77,0,0,1,180.24,197.85Z" transform="translate(-19.04 -33.03)"/><path class="cls-6" d="M27.45,152.16a3.72,3.72,0,1,1-3.69,3.78A3.76,3.76,0,0,1,27.45,152.16Z" transform="translate(-19.04 -33.03)"/><path class="cls-2" d="M58.33,115.67a30.76,30.76,0,0,1-3.34,3.6l0-3.6Z" transform="translate(-19.04 -33.03)"/><path class="cls-8" d="M108.5,62.9c-.61,1.46-.33,1.53-2.23,0Z" transform="translate(-19.04 -33.03)"/><path class="cls-9" d="M138.41,67.74h18.84c3.89.08,5.45,1.64,5.48,5.51,0,2,0,4,0,6-.08,3.23-1.68,4.83-4.92,5-1.2,0-2.4,0-3.6,0H124c-1.58,0-1.65.08-1.81,1.68-.06.6-.16,1.19-.24,1.78-.13,1,.27,1.44,1.34,1.43,4.68,0,9.36,0,14,0q10.38,0,20.76,0c4.84,0,7.52,3.2,6.72,8a40.61,40.61,0,0,1-1.3,6.08c-1.78,5.51-5.58,8.55-11.26,9.42-5.09.78-10.13.29-15.17-.35-4.64-.59-9.24-1.42-13.83-2.31a6.88,6.88,0,0,1-3.27-1.36,2.71,2.71,0,0,1-.8-3.45,2.47,2.47,0,0,1,2.83-1.72c2.52.23,4.9,1.11,7.36,1.62a74.69,74.69,0,0,0,18.06,2,32.47,32.47,0,0,0,4.51-.54,7.09,7.09,0,0,0,6.19-5.83,22.87,22.87,0,0,0,.61-4.5c0-.8-.3-1.21-1.09-1.26q-.66,0-1.32,0H122a15.36,15.36,0,0,1-3.94-.32c-1.59-.4-2.31-1.11-2.35-2.74a47.85,47.85,0,0,1,1.11-10.46A3,3,0,0,1,119.61,79a29,29,0,0,1,3.23-.2q16.26,0,32.52,0c1.1,0,1.49-.28,1.39-1.39a15.83,15.83,0,0,1,0-3c.1-1-.33-1.24-1.29-1.24q-17.64,0-35.27,0h-1c-1.91,0-2.75-.88-2.79-2.82-.05-1.76.71-2.58,2.66-2.6,3.88-.05,7.76,0,11.64,0Z" transform="translate(-19.04 -33.03)"/><path class="cls-2" d="M55,124.32c1.11-1.28,2.21-2.57,3.4-3.79,1.55-1.57,3-3.23,4.52-4.86l15.84,0a25.44,25.44,0,0,0,4.52-.43,8.44,8.44,0,0,0,5.69-3.26,7.88,7.88,0,0,0,5,4.51c2.93.85,5.2-.21,7-2.39a78.27,78.27,0,0,0,6-8.53A107.84,107.84,0,0,0,112.68,95c1.38,2.67,3.9,3.08,6.36,3.61a1,1,0,0,1,0,1.39c-4.46,2-5.67,9-.77,12,.27.16.52.36.79.54,0,3.93,0,7.87,0,11.8,0,.38.13.8-.18,1.14-.49-.09-.69-.51-1-.84a5.66,5.66,0,0,0-7.08-1.26,5.51,5.51,0,0,0-3,5.9,30.19,30.19,0,0,0,3.49,8.5c1,1.8,2.08,3.51,3.21,5.21.77,1.18.59,1.52-.85,1.52q-8.82,0-17.64,0c-.46,0-1,.11-1.28-.41s.22-.9.49-1.27a63.37,63.37,0,0,0,5.75-10.1,9.73,9.73,0,0,0,1.19-5.42,4.6,4.6,0,0,0-2.72-3.71c-3.3-1.61-6.45-.76-8.19,2.44-.44.81-.74,1.68-1.15,2.5-.26.54-.51,1.1-1.17,1.29a6.16,6.16,0,0,1-1.54.12H71.55a3.63,3.63,0,0,1-2-.37,6.75,6.75,0,0,0-5.51-2.38c-3,0-6.08,0-9.12,0A2.84,2.84,0,0,1,55,124.32Z" transform="translate(-19.04 -33.03)"/><path class="cls-9" d="M57.44,76.33H78.79a21.23,21.23,0,0,1,3.47.23c2.61.42,4,1.75,4.35,4.36a23.14,23.14,0,0,1,.23,3.22q0,10,0,19.91a29.79,29.79,0,0,1-.17,3c-.31,2.88-1.63,4.22-4.49,4.54a28.8,28.8,0,0,1-3.34.21q-21.42,0-42.82,0a28.83,28.83,0,0,1-3.35-.21c-2.71-.31-4.07-1.7-4.32-4.42-.08-.88-.11-1.76-.11-2.64q0-10.31,0-20.63a15.28,15.28,0,0,1,.28-3.57,4.48,4.48,0,0,1,4-3.74A20.07,20.07,0,0,1,36,76.32Z" transform="translate(-19.04 -33.03)"/><path class="cls-9" d="M78.19,62.26c-3-3.5-5.89-6.62-9-9.58-1.41-1.36-2.9-2.65-4.21-4.1-1.57-1.74-1.31-3.61.5-4.82a2.36,2.36,0,0,1,2.7-.13,10.24,10.24,0,0,1,2.08,1.61A250.41,250.41,0,0,1,91,68.25a7.91,7.91,0,0,1,1.21,2.06,2.65,2.65,0,0,1-.88,3.41,2.71,2.71,0,0,1-3.63,0,19,19,0,0,1-3.49-4.24,2.72,2.72,0,0,0-2.67-1.28c-13.89.69-27.79,1.32-41.68,2-3.75.17-7.51.38-11.26.53a7.66,7.66,0,0,1-2-.2c-3.61-.84-4.82-4-2.72-7.07a8.19,8.19,0,0,1,2.27-2.12A154.71,154.71,0,0,0,51.14,39.92a8.14,8.14,0,0,1,2.52-2,2.93,2.93,0,0,1,3.6.71A2.63,2.63,0,0,1,57.59,42a5.83,5.83,0,0,1-1.24,1.6A242.18,242.18,0,0,1,34.8,62.61a3.73,3.73,0,0,0-1.13,1.33Z" transform="translate(-19.04 -33.03)"/><path class="cls-9" d="M137,43.9c-.5-1.25-1-2.33-1.36-3.46-.5-1.57-.18-2.37,1-3,1.59-.87,3.07-.75,4,.38a12.1,12.1,0,0,1,2.16,4.89c.29,1,.74,1.26,1.74,1.26,6.87-.05,13.75,0,20.62,0,2.51,0,3.3.89,3.09,3.39-.14,1.82-1,2.55-3,2.56-4.28,0-8.56,0-12.84,0-1,0-1.26.27-1.24,1.26.05,4.15,0,8.31,0,12.47,0,2.41-1.44,3.47-3.81,2.94a2.29,2.29,0,0,1-2-2,8.91,8.91,0,0,1-.14-1.54c0-4,0-8,0-12,0-.89-.24-1.15-1.14-1.13q-3.64.09-7.31,0c-.92,0-1.23.21-1.22,1.18q.07,6.48,0,13c0,1.87-1,2.75-2.86,2.77s-2.91-.86-2.93-2.81c0-4.2-.07-8.4,0-12.6,0-1.2-.27-1.54-1.5-1.51-4,.08-8.07.05-12.11,0-2.22,0-3.14-.91-3.15-3s.75-2.94,2.86-2.94c6.52,0,13,0,19.55,0Z" transform="translate(-19.04 -33.03)"/><path class="cls-2" d="M96.14,72.69A80.46,80.46,0,0,1,104.56,79a.41.41,0,0,1,.12.6c-1.65,3-2.64,6.25-4.14,9.29A80.17,80.17,0,0,1,91.35,104c-.14.18-.31.34-.66.72v-1.4q0-9.4,0-18.83a18.28,18.28,0,0,0-.63-5.21c-.24-.78-.16-1.19.8-1.38A6.4,6.4,0,0,0,96.14,72.69Z" transform="translate(-19.04 -33.03)"/><path class="cls-9" d="M113,83.73a8.3,8.3,0,0,1-.59,2.17A100,100,0,0,1,98.5,111.08c-1.78,2.31-3.36,2.52-5.18.72a2.37,2.37,0,0,1-.59-2.94,9,9,0,0,1,1-1.63,91.76,91.76,0,0,0,13.53-24.29c.86-2.21,1.92-2.76,4-2.16C112.51,81.18,113.07,82,113,83.73Z" transform="translate(-19.04 -33.03)"/><path class="cls-9" d="M69.83,58.74l-25.41,1C50,55,55.1,50.2,60.25,45.06c-.55,4.89,3,7.15,5.83,9.92C67.29,56.18,68.49,57.4,69.83,58.74Z" transform="translate(-19.04 -33.03)"/><path class="cls-9" d="M95.66,61.19a4.61,4.61,0,0,1,2.19.86A98.58,98.58,0,0,1,110,70.61,14,14,0,0,1,111.45,72a2.85,2.85,0,0,1,0,4.09,2.62,2.62,0,0,1-3.76.42,31.86,31.86,0,0,1-2.93-2.27A112.88,112.88,0,0,0,95,67.35a5.91,5.91,0,0,1-2-1.73,2.43,2.43,0,0,1,0-2.71A2.77,2.77,0,0,1,95.66,61.19Z" transform="translate(-19.04 -33.03)"/><path class="cls-9" d="M114,52.09c0,2.86-2.12,4.25-4.26,3.17a7.43,7.43,0,0,1-1.31-.83,131.23,131.23,0,0,0-11.72-8.3c-2-1.26-2.25-3.16-.67-4.79A2.78,2.78,0,0,1,99.68,41c1.54.83,3,1.8,4.49,2.76a95.69,95.69,0,0,1,8.13,5.91A3.86,3.86,0,0,1,114,52.09Z" transform="translate(-19.04 -33.03)"/><path class="cls-9" d="M114.47,69.59A2.91,2.91,0,0,1,111.36,66,7.58,7.58,0,0,1,113,63.24a41.13,41.13,0,0,0,6.34-9.12,7.28,7.28,0,0,1,1.46-2,2.52,2.52,0,0,1,3.17-.51,2.84,2.84,0,0,1,1.6,3.05,6.16,6.16,0,0,1-.66,1.92,54.29,54.29,0,0,1-7.86,11.26A4.48,4.48,0,0,1,114.47,69.59Z" transform="translate(-19.04 -33.03)"/><path class="cls-3" d="M119,100l0-1.39h34.38c1.27,0,1.24.08.91,1.31a3.63,3.63,0,0,1-3.15,2.82,35.48,35.48,0,0,1-9.65.31,107.71,107.71,0,0,1-18.39-3.42A7.29,7.29,0,0,0,119,100Z" transform="translate(-19.04 -33.03)"/><path class="cls-9" d="M168.79,65A2.82,2.82,0,0,1,167,67.76a2.33,2.33,0,0,1-2.77-.37,7.71,7.71,0,0,1-1.56-1.81A87.53,87.53,0,0,0,156.21,57c-1.1-1.32-1.2-2.26-.5-3.5a2.76,2.76,0,0,1,4.75-.52,80.28,80.28,0,0,1,6.18,7.93c.57.86,1.14,1.73,1.69,2.61A3,3,0,0,1,168.79,65Z" transform="translate(-19.04 -33.03)"/><path class="cls-10" d="M141.37,57.61c0,1.75,0,3.49,0,5.24,0,.76-.21,1-1,1s-1-.24-.95-1c.05-1.78,0-3.57.05-5.35A1.48,1.48,0,0,1,141.37,57.61Z" transform="translate(-19.04 -33.03)"/><path class="cls-11" d="M141.37,57.61l-1.88,0c0-1.27,0-2.55,0-3.82.07,0,.14-.09.21-.09,1.77-.14,1.78-.14,1.76,1.6a8.42,8.42,0,0,1-.1,2.35Z" transform="translate(-19.04 -33.03)"/><path class="cls-12" d="M155.16,61.73a8.73,8.73,0,0,1,1.45,1.92C155,64.13,154.86,63.92,155.16,61.73Z" transform="translate(-19.04 -33.03)"/><path class="cls-13" d="M80.61,72.51H76.48v-.2L80.72,72c.39,0,.72,0,.86.45A1.1,1.1,0,0,1,80.61,72.51Z" transform="translate(-19.04 -33.03)"/><path class="cls-10" d="M141.37,57.61a25.21,25.21,0,0,1,0-2.61c.12-1.08-.3-1.44-1.32-1.27a3.84,3.84,0,0,1-.59,0c1.74-.61,2.13-.38,2.08,1.34C141.55,55.93,141.84,56.8,141.37,57.61Z" transform="translate(-19.04 -33.03)"/><path class="cls-14" d="M124.87,64l.93-1.42C126.16,63.89,126.11,64,124.87,64Z" transform="translate(-19.04 -33.03)"/><path class="cls-15" d="M74.41,72.47H73v-.21h1.42c.07,0,.1.09.07.14S74.43,72.47,74.41,72.47Z" transform="translate(-19.04 -33.03)"/><path class="cls-16" d="M74.41,72.47a.74.74,0,0,1,0-.21c.34,0,.7-.12,1,.1C75.11,72.58,74.75,72.44,74.41,72.47Z" transform="translate(-19.04 -33.03)"/><path class="cls-17" d="M80.61,72.51l1,0C81.27,72.89,80.94,72.72,80.61,72.51Z" transform="translate(-19.04 -33.03)"/><path class="cls-4" d="M89.22,129.6c.61-1.25,1.18-2.53,1.82-3.77,2.45-4.68,8.41-4,10.73-.59a4.73,4.73,0,0,1,.78,3.63c-.82,4.34-3.19,8-5.39,11.67-.71,1.2-1.53,2.32-2.37,3.59h20.1a64.67,64.67,0,0,1-4-6.45c-1.41-2.68-2.9-5.35-3.38-8.4a5.61,5.61,0,0,1,3.32-6.26c3.2-1.33,6.3-.7,8,2.5l.93,1.93a41.82,41.82,0,0,0,13.82,18.46,7.57,7.57,0,0,1,3.27,4.4A6.16,6.16,0,0,1,128,157.2c-.39-.18-.7-.52-1.24-.54q-.15,3.17-.31,6.31c-.23,4.35-.21,8.71-.75,13-.41,3.35-1.32,6.5-4.4,8.54a11.18,11.18,0,0,1-5.43,1.67c-5.48.49-10.71-.84-15.77-2.75a6,6,0,0,1-4.17-6,31.86,31.86,0,0,1-5.67,5.24,36.24,36.24,0,0,1-6.22,3.83c-2.14,1-4.39,1.33-6.52,0a6.29,6.29,0,0,1-1.82-8.92,5.14,5.14,0,0,0,.29-.51,4.76,4.76,0,0,1,2.27-2A32.8,32.8,0,0,0,85,170.31a18,18,0,0,0,3.71-5.25,27.43,27.43,0,0,0,2.21-7.2c.13-.8-.09-1.12-.9-1.08a11.31,11.31,0,0,1-5.51-.86c-.67-.31-1.13.21-1.61.55a7.51,7.51,0,0,1-6.43,1.44,6.28,6.28,0,0,1-4.39-6.73,7.64,7.64,0,0,1,3-5A50.78,50.78,0,0,0,84,137.46a47.34,47.34,0,0,0,4.38-6.73A2.71,2.71,0,0,1,89.22,129.6Z" transform="translate(-19.04 -33.03)"/><path class="cls-4" d="M146.4,127.62a20.29,20.29,0,0,1,14.16,0c7.52,2.77,10.85,10.23,9.28,17.87a14.49,14.49,0,0,1-3.62,7.06c-.57.62-.59.91.15,1.41a14.24,14.24,0,0,1,6.54,12.42c0,9.11-5.29,16-14.42,17.88-6.68,1.35-12.91.43-18.2-4.2A15.31,15.31,0,0,1,135,168.66c-.08-3.49,1.56-6.46,5.75-7.08a6.51,6.51,0,0,1,7.07,4.49c.18.7.34,1.4.47,2.11a4.56,4.56,0,0,0,4.37,3.88,8.84,8.84,0,0,0,4.44-.61c3.18-1.54,3.49-6.84.65-8.7a9.48,9.48,0,0,0-5.09-1.49,8.69,8.69,0,0,1-5.28-1.63c-3.45-2.68-3.14-8.58.66-10.74a8.39,8.39,0,0,1,3.82-.86,5.79,5.79,0,0,0,5.33-6,3.51,3.51,0,0,0-3.68-3.34c-2.47-.06-3.76.95-4,3.12-.22,1.81-.25,3.67-1.42,5.23a6.17,6.17,0,0,1-6.12,2.43,5.63,5.63,0,0,1-5-4.47,15.08,15.08,0,0,1,7.35-16.4C144.93,128.26,145.67,128,146.4,127.62Z" transform="translate(-19.04 -33.03)"/><path class="cls-5" d="M89.22,129.6a46.81,46.81,0,0,1-13.73,16.7,7.43,7.43,0,0,0-3.09,4.94A6,6,0,0,0,76,157.47a6.8,6.8,0,0,0,6.54-1.15c.9-.67,1.59-1.11,2.8-.43a8.25,8.25,0,0,0,4.7.61c1.09-.08,1.41.12,1.19,1.36a26.63,26.63,0,0,1-3.49,9.62,21,21,0,0,1-7.69,6.9A20.71,20.71,0,0,0,76,177.13l-8,0a20.83,20.83,0,0,0,4.18-13,19.57,19.57,0,0,0-4.83-13.31A17.34,17.34,0,0,0,57,145.44a20.76,20.76,0,0,0-4.51-.42c-.88,0-1-.35-.9-1.08.16-.9.36-1.79.46-2.7s.4-1.08,1.22-1.07c3.75,0,7.51,0,11.26,0a5.8,5.8,0,0,0,5.57-3.41,8.26,8.26,0,0,0-.55-7.14Z" transform="translate(-19.04 -33.03)"/><path class="cls-7" d="M182.66,157.19c.24,7.11.16,14.22.14,21.34-.29-.4-.16-.86-.16-1.28,0-4.8,0-9.59,0-14.38v-1.36c-1.58,1.69-3,3.21-4.4,4.68-.6.61-1.29,1.29-2.26.54s-1.14-1.46-.21-2.42C178.05,161.93,180.1,159.31,182.66,157.19Z" transform="translate(-19.04 -33.03)"/><path class="cls-18" d="M186.7,127.65c-.84,0-1.43.62-2.14.95,0-.38,0-.76,0-1.14C185.29,127.51,186,127.21,186.7,127.65Z" transform="translate(-19.04 -33.03)"/><path class="cls-9" d="M56,131.07h8.28c1,0,1.89.08,2.34,1.08a3.51,3.51,0,0,1-.14,3.45c-.49.78-1.34.77-2.15.77-4.52,0-9,0-13.55,0-1.22,0-1.71.24-1.9,1.55-.5,3.6-1.18,7.17-1.84,10.74-.14.78,0,1,.79.79a22.21,22.21,0,0,1,9-.19c6.13,1.31,9.84,5.1,11.09,11.17,1.33,6.42-.16,12.11-5.08,16.6a16,16,0,0,1-23.09-1.8,3.24,3.24,0,0,1-.07-3.9,2.17,2.17,0,0,1,3.5-.05,13.42,13.42,0,0,0,5.56,3.83A9.77,9.77,0,0,0,60,171.93a12.05,12.05,0,0,0,1.8-12.54c-1.35-3.46-4.14-5-7.74-5.31a16.8,16.8,0,0,0-7.29,1.1,7.19,7.19,0,0,1-3,.57,2.6,2.6,0,0,1-2.55-3.1c1-6.11,2-12.22,3-18.31.47-2.7,1.24-3.27,4-3.27Z" transform="translate(-19.04 -33.03)"/><path class="cls-9" d="M55,124.32c0,1,0,1.91,0,2.87l-2.64,0A9.62,9.62,0,0,1,55,124.32Z" transform="translate(-19.04 -33.03)"/><path class="cls-9" d="M186.56,155.77q0-10.68,0-21.35c0-3.06.31-3.38,3.34-3.38,4.11,0,8.23.09,12.35,0,10.73-.28,17.78,6.07,20,15.67a36,36,0,0,1-1,21.1c-2.95,8-9.13,12.34-17.63,12.48-4.67.07-9.35,0-14,0-2.73,0-3.06-.39-3.06-3.17q0-10.14,0-20.27Z" transform="translate(-19.04 -33.03)"/><path class="cls-1" d="M57.48,82.47H78.6c1.88,0,2.09.21,2.09,2v19c0,1.78-.38,2.16-2.2,2.16H36.26c-1.72,0-1.94-.23-1.94-1.93q0-9.72,0-19.44c0-1.59.2-1.8,1.81-1.8Z" transform="translate(-19.04 -33.03)"/><path class="cls-9" d="M86.64,148.32a4.87,4.87,0,0,1,2-.3H117.8c4.24,0,5.43,1.1,5.27,5.35-.27,7.59-.45,15.19-1.18,22.75-.4,4.19-2.27,5.88-6.45,6.33a21.56,21.56,0,0,1-5.84-.32,27.56,27.56,0,0,1-8.48-2.46c-1.38-.73-1.64-1.68-1-3.11a1.93,1.93,0,0,1,2.31-1.24,27.63,27.63,0,0,1,3.64,1.19,19.52,19.52,0,0,0,8.12,1.14c2.11-.25,3.06-1.16,3.18-3.32.27-4.79.49-9.59.73-14.38.09-1.92.16-3.84.26-5.75a1.24,1.24,0,0,0-1.41-1.49c-5.2,0-10.4,0-15.6,0-.68,0-.74.36-.81.89a58.47,58.47,0,0,1-3.1,13.88c-2.83,7.41-8.26,12.3-15.18,15.75-1.6.8-2.76.49-3.46-.7a2.32,2.32,0,0,1,.48-3.13,9.29,9.29,0,0,1,1.81-1.16c8.29-4.24,12.7-11.15,14-20.24.21-1.46.41-2.92.66-4.38.12-.68,0-.92-.78-.91-2.08,0-4.16,0-6.24,0-2.63,0-3.26-.76-3-3.37C85.71,148.7,86.07,148.42,86.64,148.32Z" transform="translate(-19.04 -33.03)"/><path class="cls-2" d="M99.65,171.88a39.92,39.92,0,0,0,3.17-9.4c.37-1.71.73-3.43,1-5.15.1-.57.25-.83.88-.82,3,0,6,0,9,0,.6,0,.76.22.73.78-.26,5.1-.51,10.2-.72,15.3,0,1.15-.5,1.51-1.61,1.38a20.76,20.76,0,0,1-5.12-1.14c-1.16-.45-2.34-.8-3.53-1.13A8,8,0,0,0,99.65,171.88Z" transform="translate(-19.04 -33.03)"/><path class="cls-9" d="M113.73,126.11a2,2,0,0,1,1.88,1.44c.69,1.52,1.31,3.09,2,4.59A45.13,45.13,0,0,0,131.35,149a8.23,8.23,0,0,1,1.18,1,2.17,2.17,0,0,1,.25,3.12,2.15,2.15,0,0,1-3.16.59,35,35,0,0,1-7.46-6.54A57.68,57.68,0,0,1,112,131.06a11.72,11.72,0,0,1-.62-1.81A2.35,2.35,0,0,1,113.73,126.11Z" transform="translate(-19.04 -33.03)"/><path class="cls-9" d="M85.43,149c-1.43,1.22-2.85,2.45-4.28,3.65A6.19,6.19,0,0,1,78.88,154a2,2,0,0,1-2.24-.7,2,2,0,0,1-.24-2.45,5.34,5.34,0,0,1,1.46-1.57,52,52,0,0,0,16.23-21c.86-2,2-2.46,3.65-1.66a1.71,1.71,0,0,1,1,2.15,19.49,19.49,0,0,1-1.42,3.55,58.32,58.32,0,0,1-11,15.76A2.68,2.68,0,0,1,85.43,149Z" transform="translate(-19.04 -33.03)"/><path class="cls-19" d="M85.43,149a2.6,2.6,0,0,1,1-.94l.23.23-.91,1Z" transform="translate(-19.04 -33.03)"/><path class="cls-9" d="M157.65,154.34c.81.22,1.5.38,2.17.6,4.68,1.53,8.26,4.3,9.06,9.39.9,5.72-.75,10.8-5.8,14a16.83,16.83,0,0,1-18.39.3c-3.55-2-5.37-5.38-5.91-9.4a3.53,3.53,0,0,1,1.13-3.38,2.8,2.8,0,0,1,4.45,2.1c.69,8.36,10.4,9.53,15.08,6.54,3.3-2.12,4.41-5.29,4-9s-2.85-6-6.31-7.26a15.81,15.81,0,0,0-5.07-.79,3,3,0,0,1-3.07-1.86c-.74-1.89.23-3.57,2.24-3.65a9.94,9.94,0,0,0,6.39-2.35,9,9,0,0,0,3.21-8.9c-.71-3.78-4.7-6.36-8.86-5.7a7.07,7.07,0,0,0-6.32,7,15.48,15.48,0,0,1-.17,1.67,2.55,2.55,0,0,1-5,.18,10,10,0,0,1,.38-5.2c1.51-5,5.16-7.39,10-8.26a16.29,16.29,0,0,1,7,.42c9.57,2.46,10.48,13.22,6.13,18.59a14.23,14.23,0,0,1-2.83,2.76C160.07,152.86,158.94,153.52,157.65,154.34Z" transform="translate(-19.04 -33.03)"/><path class="cls-4" d="M192.23,155.63c0-6.2,0-12.39,0-18.58,0-.92.2-1.24,1.17-1.21,3.36.13,6.72-.19,10.06.17,7.6.81,11.61,4.3,13.33,11.74a33.53,33.53,0,0,1-.57,17.75c-1.5,4.82-4.44,8.36-9.61,9.57a19.14,19.14,0,0,1-4.53.38c-2.91,0-5.83,0-8.75,0-.93,0-1.1-.28-1.1-1.14C192.25,168.09,192.23,161.86,192.23,155.63Z" transform="translate(-19.04 -33.03)"/><path class="cls-2" d="M38.21,86.39c.31-.39.74-.2,1.11-.2q18.17,0,36.32,0c.92,0,1.24.21,1.23,1.19-.06,4.43,0,8.87,0,13.3,0,.67,0,1.13-.92,1.12-7,0-14,0-21,0a2.52,2.52,0,0,1-.38-1.83c0-3.84,0-7.67,0-11.51,0-1.56-.07-1.63-1.6-1.63H40A2.35,2.35,0,0,1,38.21,86.39Z" transform="translate(-19.04 -33.03)"/><path class="cls-9" d="M38.21,86.39c5.15,0,10.31,0,15.46,0,1.1,0,1.32.33,1.31,1.36,0,4.67,0,9.35,0,14l-16,0c-.52,0-.79-.09-.79-.71C38.18,96.2,38.19,91.3,38.21,86.39Z" transform="translate(-19.04 -33.03)"/><path class="cls-9" d="M196.12,144.22c0-1.27,0-2.55-.05-3.83,0-.5.14-.71.67-.7,2.16,0,4.33-.06,6.47.09,6.42.46,8.93,4.11,10,9.49a31.37,31.37,0,0,1-.16,13.33c-.82,3.59-2.35,6.81-6.07,8.37a7.56,7.56,0,0,1-2.91.62c-2.4,0-4.8,0-7.19,0-.69,0-.87-.21-.87-.88q0-11.81.05-23.61A2.29,2.29,0,0,0,196.12,144.22Z" transform="translate(-19.04 -33.03)"/><path class="cls-20" d="M196.12,144.22c1.26,1.07,1.26,1.71,0,2.91C196.11,146.16,196.12,145.19,196.12,144.22Z" transform="translate(-19.04 -33.03)"/></svg>