<svg id="圖層_1" data-name="圖層 1" xmlns="http://www.w3.org/2000/svg" viewBox="0 0 213.11 195.74"><defs><style>.cls-1{fill:#38322f;}.cls-2{fill:#f3c0b2;}.cls-3{fill:#f3c1b3;}.cls-4{fill:#f3c2b4;}.cls-5{fill:#f3b2b2;}.cls-6{fill:#fefefe;}.cls-7{fill:#fdfdfd;}.cls-8{fill:#fefdfd;}.cls-9{fill:#faf9f8;}.cls-10{fill:#f8f7f7;}.cls-11{fill:#fdf9f8;}.cls-12{fill:#e0dddb;}.cls-13{fill:#ec6969;}.cls-14{fill:#e2e1e1;}.cls-15{fill:#674a4c;}</style></defs><title>47</title><path class="cls-1" d="M72.48,63.85l8,.06c4.6,0,9.2,0,13.79,0,1,0,1.57-.12,1.06-1.27a.22.22,0,0,1,0-.11c.7-2.28-.29-4.63.26-6.91A5.06,5.06,0,0,1,97,53.34c2.19-2.33,4.39-4.65,6.64-6.93A5.18,5.18,0,0,1,111,46c2.59,2.31,5.07,4.76,7.6,7.14.43.41.89.79,1.33,1.19a2.09,2.09,0,0,1,1.21.73c.65.65,1.26,1.35,2,1.94a7.67,7.67,0,0,1,2.51,6c.07,2.35,0,4.71,0,7.07,0,1.13-.07,2.26,0,3.38,2.11-1.92,4-4,6.07-6a8,8,0,0,1,3.16-2.1,5.57,5.57,0,0,1,5.94,1.51c1.5,1.48,3,3,4.64,4.62a1.54,1.54,0,0,0-.59-1.25,5.57,5.57,0,0,1-1.29-5.46,2.62,2.62,0,0,0,0-1.66,4.91,4.91,0,0,1,0-3.21,35,35,0,0,0-2.7,2.61,5.85,5.85,0,0,1-8.61,0c-2.62-2.86-5.46-5.51-8.2-8.26-.36-.36-.82-.66-.9-1.23a5.58,5.58,0,0,1-.73-5,1.64,1.64,0,0,0,.07-1.14,5.63,5.63,0,0,1,1.73-6.32,5.32,5.32,0,0,0,.37-.46c.66-1.41,1.94-2.26,3-3.32.79-.8,1.41-1.83,2.57-2.2l2.4-2.33a5.41,5.41,0,0,1,8.14,0c1.14,1.12,2.25,2.26,3.39,3.37.24.24.43.68.87.5,2-.82,4.17-.47,6.25-.67a12.28,12.28,0,0,1,6.72,0c4.32,0,8.64,0,13,.08.6,0,.72-.25.79-.76A5,5,0,0,1,174,31a6.93,6.93,0,0,1,3.44-.84c3,0,6.08-.09,9.12,0s5.12,1,5.68,4.47c.13.84.51,1,1.27,1q11.14,0,22.31,0c2,0,4,.51,5.17,2.43a6.11,6.11,0,0,1,.82,3.2c0,4.52,0,9,0,13.55a5.41,5.41,0,0,1-1.5,4A.93.93,0,0,0,220,60a4.22,4.22,0,0,1,0,2.93,3,3,0,0,0,0,2,5.17,5.17,0,0,1-.73,4.43,4.39,4.39,0,0,0-.28,4c.47,1.48.15,3.08.18,4.63,0,.72.47,1.48-.09,2.19,0,3.55-.06,7.1-.07,10.65,0,2.12,0,4.24,0,6.35a6.52,6.52,0,0,0,.2,3.07,3.34,3.34,0,0,1,.17,1.18c0,7.39.13,14.78,0,22.16,0,2-.16,4.07-.25,6.11-.16,3.35-2.35,5.33-6,5.53-1.64.09-3.28,0-4.92,0h-18c-5.5,0-11,0-16.48,0-.76,0-1.52,0-2.28,0-5.32,0-7.46-2.18-7.47-7.53,0-1.8,0-3.6,0-5.4,0-1.41-.07-1.47-1.5-1.47-3.4,0-6.79,0-10.19,0a1.8,1.8,0,0,0-1.94,1,1.21,1.21,0,0,1-.2.3c-3.44,3.68-7,7.21-10.66,10.68a1.79,1.79,0,0,1-.52.31,5.71,5.71,0,0,1-5.93-.62c-2.41-2-4.41-4.37-6.76-6.51a34.13,34.13,0,0,1-.25,4.21c-.75,3.09-2.13,4.35-5.34,4.75h-.48q-40.49,0-81,0c-.9,0-1.87.2-2.59-.59-2.55-.81-3.77-2.68-3.78-5.83q0-18.28-.05-36.57c0-.43,0-.87,0-1.31a9.27,9.27,0,0,1-.28-4.7,74.87,74.87,0,0,0,.11-7.49c0-.43-.12-.87.21-1.25l0-7.07c0-2.95,0-5.91,0-8.87a6.41,6.41,0,0,1,2.27-4.94Q49.63,44.27,64,32.07c1.73-1.47,3.59-2.31,5.92-1.6A4.79,4.79,0,0,1,72.15,32q3.28,3.79,6.55,7.64a5.21,5.21,0,0,1,1.19,5.11,3.3,3.3,0,0,0,0,2,5.06,5.06,0,0,1-1.8,5.55c-2.25,2-4.54,3.9-6.82,5.85-.46,1-1.47,1.54-2.26,2.25-1.16,1-2.35,2-3.74,3.18,2,0,3.81,0,5.61,0C71.43,63.54,72,63.41,72.48,63.85Z" transform="translate(-24.96 -30.12)"/><path class="cls-1" d="M53.28,177.85l0-.23c.23-2.28.09-4.32-2.17-5.77a23.12,23.12,0,0,1-3.2-3.21,5.54,5.54,0,0,1-.57-7.28c.19-.25.43-.48.38-.85a5.79,5.79,0,0,1,1.7-4.76,4,4,0,0,1,1.25-1.59A5.5,5.5,0,0,0,53,148.64a8.14,8.14,0,0,1,.3-3.79c.7-1.87,1.18-3.79,1.7-5.71a4.15,4.15,0,0,1,2.91-2.95,17.74,17.74,0,0,1,10-.12c2.33.63,3.52,2.43,3.69,5.17.15,2.42.15,2.42,2.61,2.42h1.55c1.29,0,2.06-.57,2.08-1.83.08-4.38,3.1-6.27,7.21-6.09,1.32,0,2.64,0,4,0a5.72,5.72,0,0,1,5.81,4.43,9.85,9.85,0,0,1,.36,2.65c.1.77.68.79,1.26.79,1.39,0,2.79,0,4.19,0a10.78,10.78,0,0,1,3.91.47c.72.27,1.11.1,1.22-.73.54-4.11,2.18-5.84,7.35-5.95,5.84-.12,11.68,0,17.51,0a6.69,6.69,0,0,1,1.67.13,47.87,47.87,0,0,0,7.76,0,43.3,43.3,0,0,1,8.13,0,6.8,6.8,0,0,0,2.25,0c1.31-.34,2.51-1,3.82-1.36,3-.81,5.17,0,6.78,2.72a62,62,0,0,1,2.49,6.62,5.58,5.58,0,0,1-.67,4.49,3.79,3.79,0,0,0-.55,1.8,5.21,5.21,0,0,1-3.13,4.86,29.88,29.88,0,0,1-4.94,2,41.6,41.6,0,0,1,8.15.12,4.93,4.93,0,0,1,4.54,4.55c.36,2.86.63,5.78-.27,8.56-.55,1.71-1,3.42-1.48,5.15a4.45,4.45,0,0,1-2.46,2.8c-.84.42-.9.89-.46,1.61.64,1.06,1.19,2.18,1.82,3.24a3.66,3.66,0,0,1,.58,1.55c.68,1.61,1.81,3,2.12,4.78a5,5,0,0,1-.63,3.44,4.59,4.59,0,0,0-.76,2.37,4.42,4.42,0,0,1-2.19,4c-2.41,1.38-4.67,3.07-7.43,3.74a4.85,4.85,0,0,1-5-1.86c-1.59-2.3-2.75-4.85-4.14-7.27a46.09,46.09,0,0,0-2.74-4.48v1.78a9,9,0,0,1-1.23,5.39c-.38.57-.26,1.46-.4,2.2-.61,3.31-2.6,4.32-5.25,4.4-4.51.13-9,.09-13.55,0a5,5,0,0,1-5.19-4.34,6.58,6.58,0,0,0-.28-.87l-1.29,2.24a5.31,5.31,0,0,1-7.57,2.15c-1.2-.63-2.42-1.23-3.56-2a1.5,1.5,0,0,0-1.92.15c-1.32.94-2.45,2.13-4.19,2.44a5.2,5.2,0,0,1-5.26-2L87.28,193A3.33,3.33,0,0,1,86,191.71c-.41-.69-.73-.54-1.1.07-2,3.26-4.17,6.42-6.14,9.71a6.6,6.6,0,0,1-3.19,3,5.78,5.78,0,0,1-5.38-.65,1.68,1.68,0,0,0-2.34.1,4.91,4.91,0,0,1-2.78,1,25.46,25.46,0,0,1-6.81,0c-3.41-.52-5.1-1.95-5.31-6.49-.16-3.55,0-7.11,0-10.67,0-1.59,0-3.19,0-4.79-.07-1.26,0-2.52,0-3.78A1.78,1.78,0,0,1,53.28,177.85Z" transform="translate(-24.96 -30.12)"/><path class="cls-1" d="M213.56,149.53a74.73,74.73,0,0,1,.88,15,7.83,7.83,0,0,1-.83,3.45,1,1,0,0,0-.16.78c1.24,5.54,1,11.18,1,16.8a7.34,7.34,0,0,1-2.14,5.4c-2.32,2.38-4.55,4.83-6.78,7.29a6.17,6.17,0,0,1-4.76,2.13q-8.34.06-16.68,0a6.1,6.1,0,0,1-4.75-2.12q-3.43-3.85-7-7.61a6.64,6.64,0,0,1-1.85-4.66,14,14,0,0,0-.63-3.64,2.47,2.47,0,0,1-.55-1.78c0-3.16,0-6.31,0-9.47a5.69,5.69,0,0,1,.29-2c1.06-2.76.52-5.48-.1-8.21a2.17,2.17,0,0,1-.07-.35,64.54,64.54,0,0,1,.13-10.77,6.66,6.66,0,0,1,1.89-3.81c2.69-2.79,5.17-5.78,8-8.47a7.2,7.2,0,0,1,4.53-1.28c2.52-.06,5,0,7.55,0s4.88.1,7.32,0a8.56,8.56,0,0,1,7.22,3.3c1.7,2,3.51,3.93,5.36,5.81a14.1,14.1,0,0,1,1.52,1.85A2.9,2.9,0,0,1,213.56,149.53Z" transform="translate(-24.96 -30.12)"/><path class="cls-2" d="M213.56,149.53a7.69,7.69,0,0,0-2.43-4q-3.21-3.39-6.35-6.85a6.5,6.5,0,0,0-5-2.12c-2.68,0-5.35,0-8,0,0-.95-1.17-.9-1.46-1.62,6,0,11.92,0,17.87-.07a37.33,37.33,0,0,0,6.34-.18,4.89,4.89,0,0,0,4.4-5.15q.27-12.16.08-24.34a57.61,57.61,0,0,1,.08-8c0,.16.05.32.06.48.05.59-.24,1.3.14,1.75s1.11,0,1.69,0c1.88,0,3.31,1.58,3.69,4,.62,4-.18,7.85-.82,11.74a4.14,4.14,0,0,1-.18.93c-.29.72,0,1,.68,1.18a53.25,53.25,0,0,1,7.71,3,15.57,15.57,0,0,1,4.67,3.07c1.91,2,1.81,4-.32,5.87a29.25,29.25,0,0,1-8.37,4.56c-1.18.48-2.4.89-3.61,1.29-.52.18-.75.34-.59,1a55.77,55.77,0,0,1,1.47,9.79,10.11,10.11,0,0,1-.86,5.13,3.23,3.23,0,0,1-3.85,1.86,17.55,17.55,0,0,1-6-2.87C214.27,149.7,214.05,149.24,213.56,149.53Z" transform="translate(-24.96 -30.12)"/><path class="cls-2" d="M78.71,201.09c2.1-3.32,4.21-6.64,6.29-10,.4-.64.62-.54,1,0s.87,1.23,1.3,1.84c-.46,0-.67.4-1,.67a26.93,26.93,0,0,1-3,2.77c-.89.63-.95,1.18-.23,2.09a43,43,0,0,1,5.18,8.32,14.2,14.2,0,0,1,1.17,3.75c.39,2.37-1.32,4.11-4,4.27-3.9.23-7.6-.73-11.27-1.82-2.39-.71-2.41-.77-3.44,1.46a37.83,37.83,0,0,1-5.48,9.24,7.45,7.45,0,0,1-2.45,1.87,3.46,3.46,0,0,1-4.22-1.33c-2.2-2.85-3.14-6.25-4.1-9.62-.3-1.07-.5-2.17-.75-3.26-.11-.49-.24-1-.92-.83A50.9,50.9,0,0,1,43,211a11.61,11.61,0,0,1-4.42-.91,3.38,3.38,0,0,1-2.1-4.65c.86-2.67,2.69-4.7,4.5-6.71a33.16,33.16,0,0,1,4.29-4.17c.56-.43.58-.78.14-1.38a41.87,41.87,0,0,1-5.88-9.83,12.94,12.94,0,0,1-.64-2.18c-.49-2.73,1.1-4.57,4-4.73a30.78,30.78,0,0,1,9.2,1.25c.38.1.78.14,1.17.21,0,1.76,0,3.52,0,5.28-.44.31-.86.06-1.26-.06a31.63,31.63,0,0,0-5.62-1.22,2.41,2.41,0,0,0-1.58.08A34.16,34.16,0,0,0,49,189,9.5,9.5,0,0,1,51,192.43a5.48,5.48,0,0,1-1.41,5.31,88.62,88.62,0,0,0-6.22,6.49,3,3,0,0,0-.77,1.18c.31.32.69.19,1,.19,3.08,0,6.14-.09,9.22-.34a5.26,5.26,0,0,1,5.86,4.21,51.13,51.13,0,0,0,2.61,8.72,1.87,1.87,0,0,0,.67,1.09,19.66,19.66,0,0,0,2.19-3.37c1-1.8,1.75-3.69,2.65-5.51a5.33,5.33,0,0,1,6.52-3.11c2.69.6,5.25,1.71,8,2,.66.07,1.53.46,1.91-.1s-.3-1.23-.61-1.82a61.34,61.34,0,0,0-3.35-5.25A2.49,2.49,0,0,1,78.71,201.09Z" transform="translate(-24.96 -30.12)"/><path class="cls-2" d="M94.5,140.19a4.92,4.92,0,0,0-4.84-4,29.6,29.6,0,0,0-7.16.12c-2.74.44-4.16,2.56-4.3,5.25-.09,1.86-.67,2.4-2.55,2.43a13.82,13.82,0,0,0-3.69.17c-.66.2-.62-.22-.63-.64a19.35,19.35,0,0,0-.09-2.75c-.46-2.9-1.57-4.11-4.49-4.62a25.26,25.26,0,0,0-7.16,0,4.71,4.71,0,0,0-4.62,4.5,16.49,16.49,0,0,1-1.19,3.68c-.79,2.2-.41,4.51-.44,6.77a2.16,2.16,0,0,1-.76,1.77c-1.07.95-2.09,2-3.13,2.95a53.28,53.28,0,0,1,1.23-9.43c.18-.81-.07-1-.76-1.25-3.71-1.2-7.44-2.37-10.7-4.62a12,12,0,0,1-1.67-1.34,3.77,3.77,0,0,1-.82-4.68,13.2,13.2,0,0,0,3.2.28q27.69,0,55.37,0l25.89,0c-.35.77-1.07.57-1.65.57-4.54,0-9.08,0-13.61,0-2.23,0-4.46.06-6.68,0-.4,0-.79,0-1.19,0s-.72.16-.75.6C97.18,137.8,95.74,138.93,94.5,140.19Z" transform="translate(-24.96 -30.12)"/><path class="cls-2" d="M179.56,137.77c-2.74,3-5.46,5.94-8.21,8.89a6,6,0,0,0-1.55,4.05,85.46,85.46,0,0,0,0,9.47c.16,2,.64,3.91.86,5.89,0,.31.21.58,0,.91a9,9,0,0,0-.94,4.63c0,3,0,5.91,0,8.87,0,.64.08,1.27.12,1.9-.42-.33-.69-.08-1,.2-1.4,1.23-2.82,2.44-4.23,3.65-1.06-1.86-2.12-3.73-3.19-5.59-.23-.4-.23-.6.27-.75,2.58-.77,3.4-2.8,3.59-5.2a2.74,2.74,0,0,1,.56-1.65,4,4,0,0,0,.76-2.36,31.66,31.66,0,0,0,0-7.15c-.44-3.5-2.83-4.52-5.8-4.63-2.49-.09-5,0-7.81,0l5.28-2.11c2.31-.92,3.88-2.57,3.65-5.62a1,1,0,0,1,.23-.76c1.58-1.87,1.48-3.93.67-6.07l-2-5.35c.56-.17.89.26,1.27.5a66.79,66.79,0,0,1,6.07,4.65c1.06.88,1.1.9,2.23-.16a43,43,0,0,1,7.57-5.79C178.42,137.88,178.89,137.38,179.56,137.77Z" transform="translate(-24.96 -30.12)"/><path class="cls-2" d="M125.29,70.07c0-2.27-.1-4.54-.08-6.81a7.53,7.53,0,0,0-2.66-6.36,34,34,0,0,1-2.62-2.61L123.15,53c3.13,3.14,6.24,6.3,9.39,9.41a5.42,5.42,0,0,0,8,0c1.11-1.08,2.17-2.2,3.44-3.23-1.17,2.33.51,4.66-.32,7.06-.45,1.31.49,2.84,1.56,4,.2.2.38.42.6.6.41.32.2.59,0,.89-.39.49-.55,0-.71-.19-1.46-1.42-2.88-2.88-4.33-4.31-2.56-2.53-5.67-2.52-8.25,0-2.31,2.27-4.6,4.55-6.9,6.82a6.73,6.73,0,0,1,.08-2.41C125.73,71,125.84,70.47,125.29,70.07Z" transform="translate(-24.96 -30.12)"/><path class="cls-2" d="M32.9,77.28A56.61,56.61,0,0,1,33,85.72c-.12,1.66-.08,3.33-.11,5A25.63,25.63,0,0,1,27,87.47c-2.58-2-2.77-4.16-.45-6.42A18.24,18.24,0,0,1,32.9,77.28Z" transform="translate(-24.96 -30.12)"/><path class="cls-2" d="M219.12,80.18a32.67,32.67,0,0,1-.17-4.74,6.8,6.8,0,0,0-.93-4c-.28-.41-.08-.64.18-.92s.74-.81,1.11-1.21c.06.42.41.56.73.71a10.33,10.33,0,0,1,2.74,2.09c1.79,1.82,1.91,3.25.26,5.22A9.48,9.48,0,0,1,219.12,80.18Z" transform="translate(-24.96 -30.12)"/><path class="cls-2" d="M72.48,63.85H64.33l6.94-5.76A11.82,11.82,0,0,1,72.48,63.85Z" transform="translate(-24.96 -30.12)"/><path class="cls-3" d="M130.14,34.63c-1.8,1.89-3.6,3.77-5.55,5.52a6.6,6.6,0,0,1,.49-3.51c.83-1.87,2-2.48,4.11-2.12C129.51,34.58,129.83,34.6,130.14,34.63Z" transform="translate(-24.96 -30.12)"/><path class="cls-4" d="M157.91,35.54c-2.24.09-4.48.11-6.72,0a6.46,6.46,0,0,1,5-1.26A2.48,2.48,0,0,1,157.91,35.54Z" transform="translate(-24.96 -30.12)"/><path class="cls-5" d="M182,74.15c10.28,0,20.56,0,30.84,0,1,0,1.26.24,1.26,1.24q-.08,10.38,0,20.76c0,1-.22,1.34-1.31,1.34-17,0-34,0-51-.06-1.21,0-1.68.28-1.47,1.5a3.83,3.83,0,0,1,0,1.07c-.06.6.22.79.77.74.28,0,.56,0,.84,0q25.38,0,50.76,0c1.06,0,1.41.22,1.4,1.37-.05,7.24,0,14.47,0,21.71,0,1-.17,1.3-1.22,1.29q-21.1,0-42.23,0c-.92,0-1.23-.2-1.2-1.17.07-2.52.1-5,0-7.56,0-1.23.38-1.4,1.48-1.4,10.6,0,21.19,0,31.79,0,1,0,1.38-.16,1.34-1.28-.08-2.91,0-2.91-2.94-2.91H151.77c-1.53,0-1.53,0-1.53-1.56,0-6.88,0-13.76,0-20.64,0-1,.24-1.26,1.25-1.26q25.6.06,51.23,0c.42,0,1.14.3,1.23-.3a5,5,0,0,0-.1-2.7c-.14-.33-.74-.13-1.12-.13H151.59c-1.84,0-1.58.25-1.59-1.57,0-2.44,0-4.88,0-7.32,0-.94.22-1.19,1.18-1.19C161.43,74.17,171.7,74.15,182,74.15Z" transform="translate(-24.96 -30.12)"/><path class="cls-5" d="M79.41,85.2q20.16,0,40.31,0c1,0,1.27.19,1.27,1.22q-.06,18.72,0,37.43c0,.93-.23,1.2-1.19,1.19q-40.31,0-80.6,0c-1,0-1.29-.21-1.29-1.24q.06-18.7,0-37.42c0-1,.29-1.18,1.21-1.18Q59.26,85.23,79.41,85.2Z" transform="translate(-24.96 -30.12)"/><path class="cls-5" d="M79,79.72c-13.24,0-26.48,0-39.71,0-1.14,0-1.38-.34-1.38-1.39,0-5.56,0-11.12,0-16.68a2.09,2.09,0,0,1,.87-1.8Q53.12,47.78,67.39,35.61c.61-.51,1-.65,1.52,0,1.91,2.31,3.86,4.58,5.82,6.84.52.59.57.91-.12,1.49Q62,54.53,49.51,65.15a4.46,4.46,0,0,0-.69,3.45.46.46,0,0,0,.46.28h1q28.68,0,57.35,0c.59,0,1.33.33,1.77-.28s-.08-2.44-.64-3c-2.11-2-4.23-4-6.32-6.07-.76-.74-2.1-1.41-2.08-2.31s1.28-1.52,2-2.27c1.54-1.63,3.11-3.23,4.63-4.87.45-.48.74-.66,1.32-.09,3.75,3.66,7.54,7.27,11.34,10.88a2,2,0,0,1,.65,1.57c0,5.4,0,10.8,0,16.2,0,1-.33,1.08-1.17,1.08Q99.07,79.7,79,79.72Z" transform="translate(-24.96 -30.12)"/><path class="cls-5" d="M161.94,40.57c4.52,0,9,0,13.56,0,.89,0,1.19-.2,1.13-1.12-.08-1.2,0-2.4,0-3.6,0-.64.22-.81.84-.81q4.56,0,9.12,0c.69,0,.9.27.88.93,0,1.16.05,2.32,0,3.47-.06.9.21,1.14,1.11,1.13,5.92,0,11.84,0,17.76,0,3.16,0,6.32,0,9.48,0,.8,0,1,.24,1,1,0,2.67-.05,5.36,0,8,0,.86-.23,1.06-1.06,1.06-5.84,0-11.68,0-17.52,0-1,0-1.17.3-1.16,1.21,0,6.19,0,12.39,0,18.59,0,.94-.24,1.23-1.19,1.21-2.84-.06-5.68-.07-8.52,0-1,0-1.36-.21-1.35-1.3.06-6.16,0-12.32.06-18.48,0-1-.3-1.26-1.27-1.22-1.92.07-3.84.09-5.76,0-1.05,0-1.22.32-1.21,1.28,0,6.16,0,12.31,0,18.47,0,1-.28,1.28-1.26,1.26-2.88-.06-5.76-.05-8.64,0-.89,0-1.16-.22-1.15-1.14,0-6.11,0-12.23,0-18.35,0-1.15-.19-1.55-1.46-1.53-5.72.09-11.44,0-17.16.06-.88,0-1.16-.18-1.13-1.11q.09-3.9,0-7.79c0-.91.18-1.23,1.16-1.21C152.82,40.6,157.38,40.57,161.94,40.57Z" transform="translate(-24.96 -30.12)"/><path class="cls-2" d="M150.71,137.78c-.23.24-.53.16-.8.15-5.63-.2-11.27.06-16.91,0a4.53,4.53,0,0,1-.81-.12.59.59,0,0,1,.3-.26,41.83,41.83,0,0,1,5.37-.14c1.22,0,1.17,0,1.07-1.21s-.68-2.17,0-3.25c3.79-3.25,7-7,10.62-10.52,0,0,.07-.05.08-.09.7-1.91,2.22-1.92,3.92-1.86,3.11.1,6.23.08,9.34,0,1.15,0,1.59.18,1.53,1.46-.12,2.31-.08,4.64,0,6.95.09,2,.48,3.91,2.41,5a7.82,7.82,0,0,0,3.54.91c1,.07,2.08,0,3.11.07a4,4,0,0,1-4.5,5,18.14,18.14,0,0,1-6.84-3.35,50.9,50.9,0,0,1-4.95-4,1.11,1.11,0,0,0-1.74,0c-1.07.9-2.07,1.88-3.18,2.73a26.87,26.87,0,0,1-3.33,2.38A1.6,1.6,0,0,1,150.71,137.78Z" transform="translate(-24.96 -30.12)"/><path class="cls-2" d="M98.86,134.9l21,0c.46,0,1,.16,1.38-.19a5.43,5.43,0,0,0,3.79-2.23,7.33,7.33,0,0,0,1-3.63,20.31,20.31,0,0,1,.3-3.6l6.9,7a9.46,9.46,0,0,1-.84,5.44l-.14.12c-6.6,0-13.19,0-19.78.06-2.13,0-4.16.4-5.4,2.46a7.77,7.77,0,0,0-.88,3.19c-.16,1.47-.1,1.42-1.45,1a9.46,9.46,0,0,0-3.05-.55c-1.95,0-3.91,0-5.87,0-1,0-1.23-.31-1-1.19.72-1,1.89-1.11,2.91-1.48,2-.72,2-.68,1.62-2.78A9.51,9.51,0,0,1,98.86,134.9Z" transform="translate(-24.96 -30.12)"/><path class="cls-5" d="M146.13,113.86c0,.4-.24.56-.43.76-2.88,2.89-5.76,5.76-8.61,8.67-.51.52-.79.4-1.24-.05q-4.17-4.21-8.39-8.38c-.54-.54-.47-.85,0-1.35,2.85-2.8,5.67-5.63,8.48-8.46.4-.41.69-.7,1.25-.13,2.8,2.84,5.65,5.64,8.48,8.45C145.87,113.54,146,113.73,146.13,113.86Z" transform="translate(-24.96 -30.12)"/><path class="cls-5" d="M146.13,44.78c0,.4-.27.55-.46.75-2.82,2.82-5.66,5.64-8.47,8.48-.53.55-.85.47-1.35,0q-4.17-4.21-8.39-8.39c-.49-.48-.49-.76,0-1.23q4.31-4.26,8.56-8.56c.48-.49.76-.49,1.24,0,2.77,2.82,5.58,5.6,8.38,8.4A7.59,7.59,0,0,1,146.13,44.78Z" transform="translate(-24.96 -30.12)"/><path class="cls-5" d="M146.12,79.55c0,.41-.24.56-.43.75-2.82,2.83-5.66,5.65-8.47,8.49-.5.52-.82.55-1.35,0q-4.16-4.23-8.39-8.39c-.45-.45-.56-.73,0-1.23q4.32-4.25,8.57-8.56c.45-.46.73-.56,1.24,0,2.8,2.85,5.64,5.66,8.46,8.49C145.86,79.23,146,79.42,146.12,79.55Z" transform="translate(-24.96 -30.12)"/><path class="cls-6" d="M150.71,137.78h-2.29c1.6-1.18,3-2.09,4.19-3.19,1-.88,2-1.67,3-2.58.54-.51.9-.57,1.49,0a45.09,45.09,0,0,0,8.4,6.26,12.16,12.16,0,0,0,3.8,1.39c1.77.32,3.3-.75,3.92-2.73a5.37,5.37,0,0,0,.33-2H190.3a3.54,3.54,0,0,0,.85.37c.84.13.88.6.61,1.25l-7.78,0a7.92,7.92,0,0,0-4.42,1.2,18,18,0,0,0-5.36,3.3c-1.55,1.19-3,2.5-4.47,3.79-.47.43-.74.47-1.25,0a53.63,53.63,0,0,0-7.68-5.9,5.8,5.8,0,0,0-4-2.78,7.32,7.32,0,0,0-3.36.56C152.55,137,151.64,137.43,150.71,137.78Z" transform="translate(-24.96 -30.12)"/><path class="cls-5" d="M156.12,53.78a5.57,5.57,0,0,1,.56.48c2.21,2.2,4.4,4.41,6.62,6.6.48.46.52.78,0,1.26q-3.3,3.24-6.52,6.53c-.52.52-.87.5-1.38,0-2.14-2.15-4.31-4.28-6.48-6.4-.45-.44-.58-.77-.07-1.28,2.27-2.24,4.51-4.52,6.77-6.79C155.79,54,156,53.92,156.12,53.78Z" transform="translate(-24.96 -30.12)"/><path class="cls-5" d="M215.41,61.49a7,7,0,0,1-.55.68c-2.14,2.15-4.3,4.28-6.42,6.45-.56.57-.93.52-1.46,0-2.07-2.11-4.15-4.2-6.27-6.26-.57-.55-.55-.89,0-1.44,2.14-2.15,4.24-4.34,6.34-6.53.38-.39.66-.73,1.22-.14,2.2,2.26,4.45,4.47,6.68,6.7C215.11,61.09,215.24,61.28,215.41,61.49Z" transform="translate(-24.96 -30.12)"/><path class="cls-2" d="M126,105.84v-5.53a6.62,6.62,0,0,1,1.75-1.17c.64-.39.52-.64,0-1s-1.36-.46-1.71-1.17c0-1.77,0-3.54,0-5.31.32-.31.63,0,.94,0,1.69,1.67,3.39,3.34,5.06,5a6.52,6.52,0,0,0,3.34,2.09,1.82,1.82,0,0,0-.23,1c-1.82.56-2.95,2-4.25,3.28l-1.28,1.22C128.44,104.91,127.46,105.94,126,105.84Z" transform="translate(-24.96 -30.12)"/><path class="cls-2" d="M139.18,98.36c2.09-1.72,3.84-3.79,6-5.71v13.18l-5.72-5.42A1.6,1.6,0,0,1,139.18,98.36Z" transform="translate(-24.96 -30.12)"/><path class="cls-7" d="M132.33,137.69l.84-5.44a6.14,6.14,0,0,0,5.79.7,14,14,0,0,0,.5,4c.17.57.12.79-.53.78C136.73,137.7,134.53,137.7,132.33,137.69Z" transform="translate(-24.96 -30.12)"/><path class="cls-8" d="M126.05,97l2.31,1.23c.54.3.62.6,0,.9a10.05,10.05,0,0,1-2.33,1.19C126,99.2,126,98.1,126.05,97Z" transform="translate(-24.96 -30.12)"/><path class="cls-9" d="M139.18,98.36l.24,2a5.66,5.66,0,0,0-4.28-.52c-.94-.57-.24-.78.23-1C136.71,99.23,137.92,98.65,139.18,98.36Z" transform="translate(-24.96 -30.12)"/><path class="cls-10" d="M126,105.84c1.25-.34,2.25-1.32,3.58-1.45l-3.54,3.35A6.29,6.29,0,0,1,126,105.84Z" transform="translate(-24.96 -30.12)"/><path class="cls-11" d="M125.29,70.07c.73,0,1,.24.77,1a27.85,27.85,0,0,0-.49,2.9c-.54.22-.31-.25-.31-.39C125.25,72.43,125.28,71.25,125.29,70.07Z" transform="translate(-24.96 -30.12)"/><path class="cls-12" d="M127,91.71c-.33.4-.63-.09-.94,0,0-.27-.15-.54.13-.83Z" transform="translate(-24.96 -30.12)"/><path class="cls-13" d="M131.58,142.81c6.12,0,12.24-.05,18.36,0a12,12,0,0,0,5-1.43c1-.43,1.48-.27,1.82.8.44,1.41,1.05,2.76,1.6,4.12.2.51.22.83-.44,1.07-1.62.56-3.2,1.23-4.78,1.88a4.25,4.25,0,0,1-1.65.19q-16.26,0-32.52,0c-1,0-1.38.19-1.36,1.3.07,4,.06,8,0,12,0,1,.3,1.18,1.21,1.17q6.12-.06,12.24,0c.91,0,1.24-.18,1.22-1.17-.07-3.4,0-6.8-.05-10.2,0-.92.28-1.16,1.16-1.12,1.52.06,3,.05,4.56,0,.8,0,1,.24,1,1,0,3.36,0,6.72,0,10.08,0,1.05.21,1.41,1.35,1.4,6.72-.06,13.44,0,20.16-.06,1.15,0,1.41.36,1.35,1.41a30.78,30.78,0,0,0,0,4c.05.94-.24,1.21-1.2,1.2-6.75,0-13.51,0-20.27,0-1.09,0-1.4.26-1.39,1.37,0,7.32,0,14.64,0,22,0,1-.23,1.38-1.32,1.37-4-.07-8-.06-12,0-.93,0-1.16-.27-1.12-1.15.06-1.56,0-3.12,0-4.68,0-.69.21-.9.89-.88,2,0,3.92,0,5.88,0,.72,0,1-.19,1-.94,0-5.36,0-10.72,0-16.08,0-1-.46-1-1.17-1-6.2,0-12.4,0-18.6,0-1,0-1.43-.18-1.42-1.34q.09-12.48,0-25c0-1.15.36-1.37,1.41-1.36C118.86,142.84,125.22,142.81,131.58,142.81Z" transform="translate(-24.96 -30.12)"/><path class="cls-13" d="M80.45,173.79c-2.91,0-5.82,0-8.72,0-1,0-1.24-.28-1.19-1.21.08-1.48.06-3,0-4.44,0-.76.25-.94,1-.94,3.48,0,7,0,10.43,0,.89,0,1.18-.21,1.16-1.13q-.09-4.74,0-9.48c0-.93-.29-1.14-1.16-1.13-2.8.06-5.6,0-8.4,0-.77,0-1.06-.2-1-1,.06-1.56.06-3.13,0-4.68,0-.89.34-1.08,1.13-1.07,2.8,0,5.6,0,8.4,0,.86,0,1.09-.28,1.07-1.1-.06-1.88,0-3.76,0-5.64,0-.73.13-1.09,1-1.05,1.6.06,3.21.06,4.8,0,.78,0,.94.28.93,1,0,1.84.06,3.68,0,5.52-.07,1.11.33,1.31,1.35,1.29,3.43-.06,6.87,0,10.31-.05,1.1,0,1.33.35,1.32,1.37,0,5.28,0,10.56,0,15.84,0,1,.29,1.27,1.28,1.25,2.4-.06,2.4,0,2.4,2.45,0,1,0,1.92,0,2.88s-.2,1.23-1.18,1.22c-3.88-.06-7.76,0-11.64,0h-1c1.32,1.83,2.51,3.5,3.72,5.15,2.79,3.85,5.57,7.7,8.39,11.52.43.59.39.94-.21,1.35-1.31.9-2.65,1.79-3.88,2.8-.68.55-1,.34-1.38-.24Q93.91,187,88.58,179.6L87.38,178c-.74-1-.73-1-1.46.09-3.37,5.28-6.77,10.55-10.1,15.86-.57.9-1,1-1.84.41a31.82,31.82,0,0,0-3.53-2.24c-.9-.49-.81-.92-.33-1.66q4.95-7.71,9.82-15.47C80.15,174.61,80.48,174.34,80.45,173.79Z" transform="translate(-24.96 -30.12)"/><path class="cls-13" d="M66.7,157.77c.58-.64,1.14-1.2,1.62-1.81s.92-.57,1.45,0c1.06,1.19,2.2,2.32,3.32,3.46.46.47.61.8,0,1.33-1.24,1.06-2.43,2.2-3.59,3.35-.43.42-.69.37-1.06,0-.55-.63-1.15-1.22-1.77-1.88a1.79,1.79,0,0,0-.23,1.33c0,10,0,20,0,30,0,1.11-.3,1.46-1.4,1.38a34.46,34.46,0,0,0-4.19,0c-.91,0-1.13-.25-1.13-1.14q0-15,0-30.09v-1.5c-.85.75-1.55,1.32-2.19,2-.4.39-.65.42-1,0q-1.74-1.9-3.56-3.73c-.41-.41-.4-.67,0-1.06,1.25-1.17,2.5-2.36,3.71-3.57.43-.43.68-.37,1,0,.58.68,1.21,1.34,2,2.23V156.6c0-4.88,0-9.76,0-14.63,0-.83.21-1.13,1.07-1.09a43.63,43.63,0,0,0,4.43,0c1-.05,1.22.33,1.21,1.25,0,4.75,0,9.51,0,14.26A2,2,0,0,0,66.7,157.77Z" transform="translate(-24.96 -30.12)"/><path class="cls-6" d="M78.71,201.09a29.67,29.67,0,0,1,3.74,5.37c.5.81.87,1.71,1.31,2.55.31.6.11.77-.51.77a22.39,22.39,0,0,1-5.75-1c-1.42-.4-2.83-.85-4.25-1.22a5.22,5.22,0,0,0-6.38,3.22,39.25,39.25,0,0,1-4.75,8.84c-.07.1-.12.21-.26.44a30.22,30.22,0,0,1-2.53-6.57c-.43-1.41-.66-2.87-1-4.3a4.94,4.94,0,0,0-5.57-3.67,93.3,93.3,0,0,1-10.9.35,13.39,13.39,0,0,1,2.55-3.42c1.53-1.62,3.15-3.17,4.74-4.74a5.26,5.26,0,0,0,.71-7.06,52.57,52.57,0,0,1-5-8c-.17-.36-.33-.72-.57-1.25,3.24-.12,6.14.81,9.05,1.67,0,5.15,0,10.3.07,15.45,0,2.08.47,4,2.46,5.26a5.73,5.73,0,0,0,2.74.77,30.51,30.51,0,0,0,7.27-.17,4.47,4.47,0,0,0,2.5-1.31c.52-.58.87-.42,1.37-.06a5.89,5.89,0,0,0,5.47,1.19,4.88,4.88,0,0,0,2.43-1.63C78,202.14,78.33,201.61,78.71,201.09Z" transform="translate(-24.96 -30.12)"/><path class="cls-13" d="M150.68,171.89c.37,0,.45.29.59.53q5.23,9.42,10.48,18.83c.32.59.13.83-.39,1.1-1.49.78-3,1.58-4.41,2.42-.58.33-.86.27-1.19-.35-3.42-6.27-6.88-12.52-10.33-18.78-.19-.34-.47-.69.09-1,1.62-.86,3.23-1.75,4.84-2.62A2.84,2.84,0,0,1,150.68,171.89Z" transform="translate(-24.96 -30.12)"/><path class="cls-13" d="M124.57,175.16c-.09.18-.21.43-.35.68-3.37,6.11-6.75,12.22-10.09,18.36-.42.77-.73,1-1.52.47-1.36-.83-2.77-1.58-4.19-2.31-.62-.31-.69-.61-.36-1.2q5.23-9.34,10.41-18.73c.32-.58.61-.61,1.13-.31,1.5.84,3,1.65,4.52,2.47C124.32,174.7,124.57,174.78,124.57,175.16Z" transform="translate(-24.96 -30.12)"/><path class="cls-6" d="M98.86,134.9c.39,1.78.8,3.56,1.18,5.35.13.61-.36.72-.77.86a37.08,37.08,0,0,0-4.48,1.68c-.1-.86-.2-1.73-.29-2.59a1.74,1.74,0,0,1,.77-1.26A4,4,0,0,0,97,135.69c0-.65.24-.85.84-.81C98.14,134.91,98.5,134.9,98.86,134.9Z" transform="translate(-24.96 -30.12)"/><path class="cls-14" d="M106.79,183.17a1.64,1.64,0,0,1-.55,1c-.29-.21-.67-.49-.52-.8A.86.86,0,0,1,106.79,183.17Z" transform="translate(-24.96 -30.12)"/><path class="cls-15" d="M111.45,199.59c.37-.22.65-.1.66.1,0,.36-.22.1-.36.06Z" transform="translate(-24.96 -30.12)"/><path class="cls-5" d="M191.67,190.78c-2.68,0-5.36,0-8,0a1.77,1.77,0,0,1-1.53-.64c-2.23-2.5-4.53-4.94-6.83-7.38a2,2,0,0,1-.59-1.48q0-5.4,0-10.8a1.83,1.83,0,0,1,.6-1.48c1.08-1,2.09-2.09,3.16-3.12.38-.38.47-.64,0-1.07-1.09-1.11-2.11-2.29-3.2-3.39a1.9,1.9,0,0,1-.6-1.48c0-3,0-5.92,0-8.88a2.34,2.34,0,0,1,.65-1.73c2.24-2.39,4.48-4.77,6.68-7.19a2.14,2.14,0,0,1,1.77-.74c5,0,10.08.09,15.12,0a4,4,0,0,1,3.36,1.55c1.77,2,3.58,4,5.43,5.9a3.72,3.72,0,0,1,1.17,2.84c-.09,2.76,0,5.52,0,8.28a1.89,1.89,0,0,1-.6,1.48c-1.1,1.1-2.11,2.29-3.21,3.39-.43.44-.33.7.06,1.07,1.06,1,2.08,2.11,3.15,3.12a1.81,1.81,0,0,1,.6,1.48c0,3.6,0,7.2,0,10.8a1.72,1.72,0,0,1-.41,1.31q-3.55,3.74-7,7.52a1.89,1.89,0,0,1-1.55.68C197.11,190.77,194.39,190.78,191.67,190.78Z" transform="translate(-24.96 -30.12)"/><path class="cls-1" d="M79.57,114c-9.75,0-19.51,0-29.26,0-1.2,0-1.41-.34-1.4-1.45.06-5.16.05-10.32,0-15.47,0-.89.21-1.13,1.12-1.13q29.5,0,59,0c1,0,1.16.32,1.15,1.21,0,5.19-.05,10.39,0,15.58,0,1-.22,1.26-1.23,1.26C99.16,114,89.36,114,79.57,114Z" transform="translate(-24.96 -30.12)"/><path class="cls-1" d="M96,161.46c0,1.64,0,3.28,0,4.91,0,.68-.21.91-.89.89-1.51,0-3,0-4.55,0-.62,0-.83-.2-.83-.83,0-3.35,0-6.71,0-10.06,0-.63.21-.84.83-.83,1.52,0,3,0,4.55,0,.68,0,.91.21.89.89C96,158.1,96,159.78,96,161.46Z" transform="translate(-24.96 -30.12)"/><path class="cls-1" d="M191.64,182.9a14.78,14.78,0,0,0-2.4,0c-2,.34-3.29-.72-4.75-2-2.52-2.2-1.85-4.94-1.89-7.59,0-.5.6-.72.88-1.1a6.94,6.94,0,0,1,7.19-3.05,36.85,36.85,0,0,0,5.15,0h.48c1.16,0,4.6,3.53,4.61,4.69a25,25,0,0,0,0,2.87c.2,1.51-.56,2.49-1.41,3.6a5.83,5.83,0,0,1-6,2.52A12.3,12.3,0,0,0,191.64,182.9Z" transform="translate(-24.96 -30.12)"/><path class="cls-1" d="M191.76,161.3a6.15,6.15,0,0,0-1,0,7.12,7.12,0,0,1-7.55-3,3.59,3.59,0,0,1-.71-1.68c-.4-2.33.68-3.93,2.18-5.56a4.72,4.72,0,0,1,4.19-1.81c2.38.17,4.79.06,7.19,0a1.84,1.84,0,0,1,1.55.68c.92,1.05,1.88,2.06,2.85,3.07a1.43,1.43,0,0,1,.42.94c.19,2.26,0,4.22-2.06,5.82-1.22,1-2.24,1.75-3.86,1.55A26.93,26.93,0,0,0,191.76,161.3Z" transform="translate(-24.96 -30.12)"/><path class="cls-6" d="M72.73,105.88h9.59a41.12,41.12,0,0,1,5.75,1.78c.56.2,1.33.5.5,1.31H71.77A7.08,7.08,0,0,1,72.73,105.88Z" transform="translate(-24.96 -30.12)"/><path class="cls-6" d="M93.14,105.88c3.74,0,7.49,0,11.23-.06.53,0,.75.09.78.71.11,2.48.13,2.49-2.34,2.48L93.62,109C93.45,107.92,92.93,107,93.14,105.88Z" transform="translate(-24.96 -30.12)"/><path class="cls-2" d="M72.73,105.88a6.87,6.87,0,0,1-1,3.07q-3.6.15-7.22,0a11.79,11.79,0,0,1-3.82-2.21c-.28-.22-.58-.43-.51-.86Z" transform="translate(-24.96 -30.12)"/><path class="cls-6" d="M60.22,105.88c1.23,1.33,2.9,2,4.33,3.07-3.31,0-6.62,0-9.94.07-.53,0-.65-.19-.68-.69-.15-2.5-.17-2.5,2.34-2.49C57.59,105.84,58.91,105.87,60.22,105.88Z" transform="translate(-24.96 -30.12)"/><path class="cls-2" d="M93.14,105.88c.2,1,.87,2,.48,3.07H88.57c.39-.69,0-.84-.61-1a44.23,44.23,0,0,1-5.64-2Z" transform="translate(-24.96 -30.12)"/></svg>