<svg id="圖層_1" data-name="圖層 1" xmlns="http://www.w3.org/2000/svg" viewBox="0 0 211.21 202.02"><defs><style>.cls-1{fill:#863dac;}.cls-2{fill:#8dd1c5;}.cls-3{fill:#fe7e5b;}.cls-4{fill:#44b6cf;}.cls-5{fill:#7deecc;}.cls-6{fill:#2d95af;}.cls-7{fill:#873dac;}.cls-8{fill:#8ed1c5;}.cls-9{fill:#8ed0c5;}.cls-10{fill:#7eebcc;}.cls-11{fill:#fefefe;}.cls-12{fill:#f8d168;}.cls-13{fill:#4e9b8e;}.cls-14{fill:#fdfdfd;}.cls-15{fill:#2e95af;}.cls-16{fill:#8bc4c2;}.cls-17{fill:#fafbfc;}.cls-18{fill:#fbfafc;}.cls-19{fill:#8ecec5;}.cls-20{fill:#2d96af;}.cls-21{fill:#fdfefd;}.cls-22{fill:#539891;}.cls-23{fill:#fcfcfd;}.cls-24{fill:#8dcec5;}.cls-25{fill:#fdfdfe;}</style></defs><title>2</title><path class="cls-1" d="M43.85,181.46a7.53,7.53,0,0,0-1.9-.2q-5.14,0-10.31,0c-2.55,0-3.92-1.27-4.1-3.82,0-.51-.15-.79-.68-.94-3.08-.87-4.52-3.42-4.53-6.4q0-17.58,0-35.15c0-5.92,0-11.83,0-17.75a6.45,6.45,0,0,1,3.09-5.86,7,7,0,0,1,3.77-.93H57.62c.48,0,1,0,1.44,0a5.06,5.06,0,0,1,2.77-.35c1,0,2,0,3,0,3.64-.06,7.35-.49,10.9.09,4.8.79,9.52,0,14.27.06,11.8.19,23.6.06,35.39.06a13.53,13.53,0,0,1,3.11.26,3.43,3.43,0,0,0,1.77,0,15.44,15.44,0,0,1,4.64-.49q18.65,0,37.31,0a11.85,11.85,0,0,1,5.8,1.19,1.41,1.41,0,0,0,1.48-.08,6.9,6.9,0,0,1,3-.83c3.39,0,6.79-.12,10.18,0,11.21.39,22.42.12,33.63.28,4,.4,6.12,3.44,6.09,7.24-.06,6.75,0,13.51.06,20.27a1.85,1.85,0,0,0,.06.82c1.1,2.09.83,4.35.91,6.58.25,7.19.16,14.39.12,21.58a14.27,14.27,0,0,1-9.23,13.23,18,18,0,0,1-6.84,1,3.4,3.4,0,0,1-1.37.29c-2.25,0-4.5,0-6.75,0-2,0-4,.06-6,0-3.42.06-6.84,0-10.27,0-2.51,0-5,0-7.52,0a6.2,6.2,0,0,1-3.15-.54,3.85,3.85,0,0,1-1.79-2.1s-.21.16-.06.1.09,0,.07.09a3.34,3.34,0,0,1-3.42,2.41c-2,.06-4.07,0-6.11,0a13.54,13.54,0,0,0-1.56,0c-8.5,0-17-.09-25.52,0a2.34,2.34,0,0,1-.46,0c-2.59,0-5.19.16-7.77,0a63.52,63.52,0,0,0-6.76-.05c-5.62.19-11.25.16-16.87.08-1.61,0-3.21,0-4.81,0-3,0-6,0-8.92,0-4.16,0-8.32,0-12.48,0-2.8,0-4.09-1.07-4.62-3.81a1.29,1.29,0,0,0-.85-1A6.85,6.85,0,0,1,76,169.94c0-3.66,0-7.31,0-11,0-1.32,0-1.33-1.22-.73a15.2,15.2,0,0,1-2.57.95c-3.14.9-6.36.42-9.55.51-1.59,0-3.18,0-4.77,0s-3.44,0-5.16,0c-.35,0-.71,0-1.06,0-.76-.05-1.51,0-2.27,0S48,160,48.11,161q.06,2.22,0,4.44c0,4.13.06,8.25,0,12.38C47.85,180.2,46,181.8,43.85,181.46Z" transform="translate(-22.32 -24.68)"/><path class="cls-2" d="M112.14,181.26c5.59,0,11.17,0,16.75,0a4.42,4.42,0,0,0,3-.73.55.55,0,0,1,.83,0,3.77,3.77,0,0,0,2.7.75c2.71,0,5.42,0,8.13.06.05.43-.26.64-.55.85-3.27,2.35-6.45,4.83-9.7,7.22a1.45,1.45,0,0,1-.74.37c-1.45-.66-2.37-2-3.56-2.94s-1-1-2,.17q-5.36,6.38-10.67,12.78c-.28.34-.54.7-1,.75a2.17,2.17,0,0,1-1.28-.82c-1.43-1.56-3.14-2.82-4.59-4.35-.58-.62-.89-.56-1.29.2-1.64,3.19-2,2.2.69,4.89,1.2,1.21,2.7,2.11,3.63,3.59,0,.66-.56,1.05-.93,1.49-1.89,2.27-3.79,4.53-5.66,6.81-.69.84-1.25.77-2,.19-1.92-1.44-3.78-2.94-5.69-4.39-1-.77-1-.75-1.57.43-1.51,3.26-1.34,2.4,1.11,4.35a91,91,0,0,1,7.17,6.14c.35.35.86.63.78,1.26a114.65,114.65,0,0,1-15.19-3.55c-.37-.12-.77-.19-1.15-.28-.09-.65.38-1,.71-1.46,3.27-4.39,6.5-8.81,9.81-13.17.75-1,.74-1-.45-1.51C96.21,199,96.87,199,95,201.48c-3.22,4.22-6.31,8.55-9.54,12.77-.25.33-.36.85-.94.79-.17-.7-.86-.66-1.33-.85A88.4,88.4,0,0,1,64,204.11a63.48,63.48,0,0,1-8.88-7.48c-.33-.33-.58-.79-1.14-.81,0-.42.3-.54.56-.69,4.18-2.36,8.31-4.82,12.5-7.18a1.33,1.33,0,0,1,.33-.13c1.46.56,2.39,1.8,3.49,2.8,2.17,2,4.3,4,6.48,6,.64.59,1,.6,1.43-.2.16-.32.35-.62.52-.94,1-1.9,1-1.87-.71-3.31-2.08-1.8-4.07-3.69-6-5.61a1.59,1.59,0,0,1-.68-1.09c.71-1,1.9-1.42,2.91-2,2.09-1.23,2.12-1.19,1-3.28-.46-.84-1-1.61-1.45-2.48s-1-.9-1.71-.44c-1.62,1-3.3,1.94-5,2.89a2.57,2.57,0,0,1-1.09.46c-1.32-.56-2.11-1.78-3.23-2.59a7.49,7.49,0,0,1-1-1c-.46-.51-.84-.56-1.14.14-.07.15,0,0-.06.11-1.46,2.6-1.46,2.6.58,4.82.28.3.71.57.51,1.11-2.92,2-6.1,3.53-9.11,5.38a24.29,24.29,0,0,1-2.28,1.29c-.33.17-.65.51-1.08.21A12.49,12.49,0,0,1,48,187.44c3.16-3.47,6.07-7.16,9.11-10.74,2-2.39,4-4.82,6-7.24a1.56,1.56,0,0,1,1.3-.72c3.58.31,7.15.74,10.74.83a1.45,1.45,0,0,1,1.1.38,6.79,6.79,0,0,0,3.24,6,4.77,4.77,0,0,1,2.16,2.72,3.78,3.78,0,0,0,3.68,2.52c3.79,0,7.58,0,11.36,0,.48,0,1,0,1.43.05.27.47-.11.74-.35,1-4.39,5.27-8.83,10.5-13.19,15.79a2.61,2.61,0,0,1-1.38,1.08c-4-.4-8-1.15-12-1.72-3.2-.45-6.41-.93-9.6-1.44-.87-.13-1.21.13-1.1,1a5.91,5.91,0,0,1,0,.6c.1,2.2.18,2.28,2.36,2.61q10.42,1.56,20.85,3.15c1.89.29,1.89.27,2.13-1.49.36-.69.72-.2,1,0,1.82,1.24,1.8,1.23,3.25-.5,4.5-5.37,9-10.72,13.48-16.13a1.74,1.74,0,0,1,1.13-.81,2.64,2.64,0,0,1,1.23.69c2.18,1.62,4.36,3.23,6.5,4.89.69.54,1.14.52,1.65-.22.79-1.15,1.66-2.24,2.5-3.35a1,1,0,0,0-.26-1.59c-1.17-.83-2.31-1.7-3.45-2.58C112.65,182,112.13,181.85,112.14,181.26Z" transform="translate(-22.32 -24.68)"/><path class="cls-1" d="M61.49,104.14c-.79.07-1.09-.2-1.09-1.07q0-14.8,0-29.59c0-.87.28-1.06,1.09-1,6,0,12,0,18,0a6.78,6.78,0,0,1,3-.3c1.23,0,2.45,0,3.67,0,11.84-.07,23.68,0,35.52,0,1.53,0,1.81.29,1.81,1.85,0,7.24.07,14.48,0,21.72,0,5-3.53,8.5-8.62,8.84-.4,0-.8,0-1.2,0H68.19a7.71,7.71,0,0,1-1,0c-1.43,0-2.86,0-4.29,0A1.81,1.81,0,0,1,61.49,104.14Z" transform="translate(-22.32 -24.68)"/><path class="cls-1" d="M83.25,67.25l-22.66,0c-1.43,0-1.43,0-1-1.29,3.1-9.22,6.22-18.44,9.29-27.67A1.48,1.48,0,0,1,70.54,37q7.56.09,15.11,0c1.16,0,1.16.3.83,1.26-2.55,7.43-5,14.88-7.58,22.31-.35,1-.12,1.18.86,1.16,2.67-.08,5.35-.07,8-.09a2.49,2.49,0,0,1,1.59-.36h5c3.47.08,6.94,0,10.41,0,1.41,0,1.78-.56,1.35-1.92-.79-2.47-1.68-4.91-2.38-7.4-.4-1.37-.88-2.72-1.33-4.08a2.13,2.13,0,0,1-.19-1.38l-.43-1.72H104a12.73,12.73,0,0,1,4.35-.31c1.46,0,2.92,0,4.39,0s3.19,0,4.78,0a1.89,1.89,0,0,1,2,1.46c1.72,5.19,3.51,10.36,5.16,15.58,1,3.28-1,6-4.46,6q-15.27,0-30.54,0c-1.66,0-3.31,0-5,0A2.09,2.09,0,0,1,83.25,67.25Z" transform="translate(-22.32 -24.68)"/><path class="cls-3" d="M178.31,36.66A21.64,21.64,0,0,1,194.38,25a22.36,22.36,0,0,1,23,10.5c7.08,12,1,27.28-12.64,31.41A21.74,21.74,0,0,1,192,67c.32-.48.83-.42,1.3-.44.87,0,1.75,0,2.63,0,1.68,0,1.7,0,1.72-1.78,0-2.36-.19-4.71-.32-7.06s-.13-4.79-.38-7.17c-.09-.92-.39-1.27-1.3-1.25-1.68,0-3.36,0-5,0-1,0-1.4.37-1.34,1.35.13,2,.14,4,.31,6,.19,2.27.06,4.55.36,6.82a3.53,3.53,0,0,1-.33,2.78l-1.69-.72a2,2,0,0,1-.36-1.48q0-8.28,0-16.55c0-1.76.27-2,2-2,2.28,0,4.56,0,6.84,0,1.25,0,1.42-.16,1.42-1.37,0-3.66.3-3.1-3-3.13-3.68,0-7.36,0-11,0-1.9,0-2.2-.32-2.27-2.24-.06-1.54-.06-1.54-1.68-1.6C179.31,37.07,178.72,37.17,178.31,36.66Z" transform="translate(-22.32 -24.68)"/><path class="cls-1" d="M175.87,70.26c6.64,0,13.28,0,19.91,0,1.05,0,1.37.24,1.32,1.31-.09,2.12,0,4.24,0,6.36a6.74,6.74,0,0,1-6.77,6.79c-1.67,0-3.35,0-5,0a2.34,2.34,0,0,1-1.59.34c-1.46,0-2.92,0-4.38,0-3.59.07-7.18,0-10.77,0-.6,0-1.44-.28-1.69.47a3.86,3.86,0,0,0,0,2.7c.21.51.83.37,1.3.37,3.74,0,7.49,0,11.24,0l2.28,0c1.47-.05,3,0,4.42,0a2.35,2.35,0,0,1,1.37.33c3,0,6,.07,9,0,1,0,1.31.19,1.28,1.22-.08,2.35-.07,4.71,0,7.06a7.7,7.7,0,0,1-2.65,6.38,2,2,0,0,1-1.34,1.08,13.19,13.19,0,0,1-3.94.72c-6.87.06-13.75,0-20.63,0-1.6,0-2-.4-2-2,0-.64,0-1.28,0-1.92.06-1.3.35-1.59,1.68-1.64,1.12,0,2.24,0,3.36,0,2.51,0,5,0,7.55,0,1.51,0,1.93-.45,2-1.93.05-.87,0-1.75,0-2.63s-.32-1.12-1.07-1.12H152.5c-1.9,0-2.16-.27-2.16-2.15,0-3.6,0-7.2,0-10.79,0-1.42.32-1.74,1.69-1.74,7.88,0,15.75-.07,23.62,0,1.24,0,2.47,0,3.71,0a1.52,1.52,0,0,0,1.69-1.19,4.57,4.57,0,0,0,0-.83c0-2.13,0-2.13-2.22-2.06-2,0-4.09,0-6.14,0q-10.43,0-20.84,0c-1.76,0-2-.28-2.05-2,0-.76,0-1.52,0-2.28A1.2,1.2,0,0,1,151.17,70l.35,0c5.87,0,11.74-.06,17.61,0C171.38,70,173.65,69.64,175.87,70.26Z" transform="translate(-22.32 -24.68)"/><path class="cls-1" d="M178.31,36.66c.95,0,1.91.06,2.87,0,.56,0,.83.2.77.77a1.92,1.92,0,0,0,0,.24c.08,2.8.08,2.8,2.86,2.8,4,0,8.08,0,12.12,0,1.09,0,1.4.32,1.31,1.36a13.3,13.3,0,0,0,0,2.75c.12,1.12-.34,1.33-1.36,1.3-2.63-.06-5.27,0-7.91,0-.82,0-1.12.21-1.11,1.07,0,6.2,0,12.4,0,18.6-.2,2.41-.2,2.41-2.74,2.41-3.2,0-6.4,0-9.6,0-.89,0-1.14-.21-1.13-1.12,0-6.63,0-13.27,0-19.91,0-.71-.09-1.07-1-1.07s-.92.44-.92,1.11q0,7.49,0,15c0,1.36,0,2.72,0,4.07,0,.12.05.24.07.35.35,1.47,0,1.87-1.49,1.93-1.24,0-2.47,0-3.71,0-2.22,0-4.45,0-6.68,0-1.54,0-1.83-.29-1.84-1.82,0-2.7,0-5.41,0-8.11,0-2.55,0-5.1,0-7.64.05-1.15,0-2.3,0-3.45,0-.76-.33-1.08-1.08-1.07-1.3,0-2.61,0-3.93,0h-4.06c-1,0-1.52-.47-1.49-1.46s-.27-2.08.32-3c-.16-1.1.39-1.28,1.38-1.27,4.83,0,9.67,0,14.51,0,1,0,1.33-.2,1.31-1.24-.07-2.56,0-2.56,2.52-2.56Z" transform="translate(-22.32 -24.68)"/><path class="cls-2" d="M141.59,221.75c-3.14-.06-6.24.41-9.37.48-5.29.11-10.58-.1-15.85-.47-.41.29-.68,0-1-.23-1.66-1.31-3.32-2.63-5-3.9-.74-.55-.76-1.07-.16-1.79q2.86-3.37,5.67-6.8a1.73,1.73,0,0,1,1.14-.81c1.69,1.2,3,2.79,4.6,4.13,1,.85,1.87,1.83,2.89,2.67.58.48.85.34,1.2-.22.43-.72.75-1.49,1.2-2.2.34-.54,0-.92-.35-1.24-1.7-1.43-3.22-3.07-4.9-4.54-.71-.62-1.55-1.13-1.84-2.12a4.38,4.38,0,0,1,1.22-1.86c.92-1.15,1.89-2.25,2.81-3.4.3-.37.57-.77,1.1-.83,1.27,1.08,2.2.37,3.29-.44,5.89-4.38,11.73-8.82,17.64-13.15.71-.52.81-.93.1-1.47a1.69,1.69,0,0,1-.86-1.36c0-.75.43-.89,1.09-.89,2.33,0,4.67,0,7,0,.6,0,.65.46.55.84-.26,1.06.33,1.48,1.15,1.92q4.55,2.4,9.1,4.79c.54.28,1.38.38,1.29,1.32a3,3,0,0,1-1.53.61c-7,1.7-13.91,3.57-20.88,5.29-1.6.4-1.56.4-1.22,2,.27,1.24.88,2.41.69,3.72-.43.4-.9.18-1.35.05-1.42-.4-2.85-.76-4.24-1.25-.68-.25-1-.06-1.22.64-.39,1.34-.71,2.7-1.17,4-.31.88-.1,1.3.81,1.56,3.56,1,7.12,2.06,10.66,3.14a4.89,4.89,0,0,1,2.2.86c.21.49-.13.84-.34,1.2-1.81,3.08-3.68,6.12-5.5,9.19C142.11,221.47,142,221.87,141.59,221.75Z" transform="translate(-22.32 -24.68)"/><path class="cls-2" d="M201.37,196.81a52.54,52.54,0,0,1-9.34,7.81,84.21,84.21,0,0,1-17.55,9.22.7.7,0,0,1-.2-.55c.05-1.56.05-1.58-1.46-2q-6.88-2.06-13.78-4.07a12.77,12.77,0,0,1-2.48-.86c-.5-.54,0-1,.21-1.39.36-.61.24-.94-.44-1.12-.31-.08-.61-.2-.91-.31-1.88-.62-1.88-.62-3.1.87a1,1,0,0,1-.77.5c-2-.39-4-1.1-6-1.67-.33-.1-.69-.24-.73-.68.26-.65.89-.62,1.4-.75,4.34-1.1,8.67-2.2,13-3.26,5-1.23,10-2.66,15.09-3.81a3.18,3.18,0,0,1,2.1.8c.21.25.36.54.57.78a7.19,7.19,0,0,1,.88,2,1.52,1.52,0,0,0,2,1.16c6.07-.9,12.16-1.78,18.24-2.6C199.19,196.67,200.3,196.08,201.37,196.81Z" transform="translate(-22.32 -24.68)"/><path class="cls-4" d="M125,198.73a60,60,0,0,0-5,6,13.15,13.15,0,0,1-2.9,3.57c-1.76,1.67-3.12,3.69-4.73,5.49-.72.79-1.37,1.64-2.07,2.45-.26.3-.48.59-.06.89,2.09,1.49,4,3.27,6.14,4.64,1.41.77,1,1.77.47,2.92-1.18,2.52-1.14,2.54-3.33.86-1.64-1.27-3.37-2.43-4.88-3.84-.91-.85-2.07-.84-3-1.41a56.71,56.71,0,0,0-8.16-7.16c-2.45-1.82-2.46-1.8-1.19-4.63.74-1.64.73-1.64,2.12-.56,1.82,1.42,3.66,2.82,5.46,4.26.73.58,1.16.71,1.86-.19,2.13-2.73,4.39-5.35,6.61-8a10.5,10.5,0,0,1,2.9-3.58c1.66-1.61,3-3.49,4.51-5.25,2.55-3,5-6.06,7.54-9.11.49-.59.83-.52,1.34,0,1.26,1.22,2.58,2.37,3.87,3.56.14.31-.06.53-.24.74-2.27,2.71-4.51,5.44-6.8,8.13A.8.8,0,0,1,125,198.73Z" transform="translate(-22.32 -24.68)"/><path class="cls-5" d="M64,169c-1.8,2.11-3.61,4.2-5.39,6.33-2.3,2.73-4.56,5.48-6.85,8.22-1,1.15-2,2.28-2.92,3.44-.24.3-.46.54-.87.48a34.36,34.36,0,0,0-3.88-3.36c-.79-.64-1.33-1.17-.26-2,.24-.2.16-.41,0-.61,2-.37,3.55-1.21,4-3.4a3.47,3.47,0,0,1,.8-2.17c3.38-4.05,6.81-8.05,10.16-12.12,1.34-1.43,2.34-3.14,3.9-4.37,1.43,0,2.86-.08,4.29,0a23.76,23.76,0,0,0,5.32-.51c.12.51-.19.84-.48,1.17-2.27,2.68-4.49,5.41-6.79,8.07A3.33,3.33,0,0,1,64,169Z" transform="translate(-22.32 -24.68)"/><path class="cls-6" d="M185.27,181.27l7.67,0a5.74,5.74,0,0,1,1.44.83c3.68,2.72,7.28,5.55,11,8.21.38.26.84.49,1,1,3.32,2.49,6.62,5,10,7.47.69.5.72.84.2,1.49-1.07,1.34-2.09,2.73-3.08,4.13-.36.5-.6.59-1.12.19-3.47-2.63-7-5.22-10.45-7.83,0-.45.39-.48.67-.51,1.09-.14,1-.71.66-1.5-1.41-3.06-.61-2.53-3.73-2.19-1.13.12-2.24.56-3.4.22-3.82-2.76-7.6-5.58-11.35-8.42a1.23,1.23,0,0,1-.48-.53A3.56,3.56,0,0,1,185.27,181.27Z" transform="translate(-22.32 -24.68)"/><path class="cls-1" d="M139.67,36.67c1.14,0,2.29.09,3.42,0,.93-.06,1.37.24,1.44,1.19a8,8,0,0,0,.42,1.46,3.42,3.42,0,0,1,.61,1.65c.47,2,.9,3.95,1.36,5.93.28,1.16.55,2.33.8,3.51s0,1.48-1.07,1.5q-6.18.09-12.36,0a1.43,1.43,0,0,1-1.48-1.29c-.8-3.59-1.64-7.17-2.37-10.78-.19-.7-.35-1.4-.47-2.11-.16-1,.05-1.37,1.1-1.37C133.94,36.39,136.82,36.09,139.67,36.67Z" transform="translate(-22.32 -24.68)"/><path class="cls-6" d="M67.47,188l-12.78,7.43-.7.44c-3.77,2.17-7.55,4.32-11.3,6.54-.78.46-1.11.39-1.52-.42a42.7,42.7,0,0,0-2.33-4c-.54-.83-.47-1.22.42-1.72,3.11-1.72,6.17-3.53,9.24-5.31.41-.24.79-.52,1.19-.78q5.69-3.24,11.38-6.47c.34-.2.7-.36,1-.54.5-.17.84.14,1.15.42,1.28,1.16,2.42,2.48,3.8,3.55C67.33,187.25,67.62,187.53,67.47,188Z" transform="translate(-22.32 -24.68)"/><path class="cls-7" d="M189.59,66.24c-.22-4.66-.34-9.32-.67-14-.24-3.3-.36-3.29,3-3.29,1.51,0,3,0,4.55,0,.59,0,.83.16.86.81q.33,8,.74,16c.05.92-.18,1.27-1.16,1.23-1.63-.07-3.27,0-4.9,0a14.66,14.66,0,0,0-1.62,0C189.76,67,189.63,66.7,189.59,66.24Z" transform="translate(-22.32 -24.68)"/><path class="cls-5" d="M156.46,206.15c3.22.93,6.43,1.84,9.64,2.78,2.44.72,4.88,1.48,7.32,2.2,1.58.46,1.58.44,1.18,2-.06.23-.08.47-.12.71a17.87,17.87,0,0,0-1.13,3.5c-.21.75-.54.93-1.28.69-1.74-.55-3.5-1-5.25-1.54-1.77.09-3.33-.71-5-1.17-2.8-.79-5.58-1.64-8.37-2.44a2.47,2.47,0,0,1-.77-.32c-.3-.29-.15-.61,0-.87,1-1.73,2-3.44,3.08-5.13C155.94,206.34,156.12,206.09,156.46,206.15Z" transform="translate(-22.32 -24.68)"/><path class="cls-2" d="M139.67,36.67c-2.75,0-5.5.1-8.25,0-1.26,0-1.35.41-1,1.4a16.83,16.83,0,0,1,.38,1.74c-.29.32-.66.24-1,.19a19.52,19.52,0,0,0-5.61.3c-3.29.48-6.23,2-9.13,3.51a12.48,12.48,0,0,1-2.17,1H104a57.44,57.44,0,0,1,12.29-7.77,27.86,27.86,0,0,1,10.12-2.51A29,29,0,0,1,139.67,36.67Z" transform="translate(-22.32 -24.68)"/><path class="cls-4" d="M196.09,192.48c1.44.34,2.82-.17,4.2-.36,1.93-.26,1.92-.36,2.68,1.4.16.37.36.72.5,1.09.65,1.65.65,1.65-1.19,2a2.26,2.26,0,0,0-.42.19l-.49.05c-2.82.1-5.57.71-8.36,1.07-3.65.47-7.29,1-10.94,1.56a13,13,0,0,0-2.35.33c-1.14.38-1.68,0-2-1.07a7.42,7.42,0,0,0-1-2.38c-.44-1.11.39-1.2,1.1-1.31,3.38-.52,6.77-1,10.17-1.46C190.65,193.18,193.35,192.65,196.09,192.48Z" transform="translate(-22.32 -24.68)"/><path class="cls-4" d="M156.46,206.15c-1.4,2-2.57,4.14-3.8,6.24.14.41-.13.7-.3,1-1.29,2.21-2.64,4.38-3.94,6.58a4.41,4.41,0,0,1-.79.88c-1,1.59-2,3.17-2.9,4.78a.85.85,0,0,1-1.22.47,28.07,28.07,0,0,0-3-.91c-.81-.19-.69-.55-.36-1.08.48-.78.93-1.57,1.4-2.35q3.22-5.4,6.46-10.8c0-.12-.08-.25,0-.35a36.08,36.08,0,0,1,3.66-5.88c.12-.15.25-.3.36-.46,1.19-1.76,1.2-1.78,3.32-1,.73.25,1.88.21,2,.88S156.82,205.46,156.46,206.15Z" transform="translate(-22.32 -24.68)"/><path class="cls-6" d="M84.48,215C88.24,210,92,205,95.75,199.9c.59-.8,1.09-1.12,2-.57s2.61.72,2.87,1.44-1.07,1.76-1.73,2.64q-4.81,6.53-9.67,13.05c-1.1,1.45-2.22,2.9-3.29,4.37-.4.56-.76.83-1.45.44a26.34,26.34,0,0,1-3.39-1.62c.71-1,1.41-2,2.13-3C83.66,216.11,84.08,215.57,84.48,215Z" transform="translate(-22.32 -24.68)"/><path class="cls-8" d="M94.51,61.69l-6.72,0a32,32,0,0,1,3.92-4.76c3.34-3.61,6.49-7.43,10.5-10.36a44.13,44.13,0,0,1,1.72,5.29,1.23,1.23,0,0,1-.43.7c-2.89,2.84-5.7,5.75-8.4,8.77A3.35,3.35,0,0,1,94.51,61.69Z" transform="translate(-22.32 -24.68)"/><path class="cls-2" d="M206.34,191.31c-4.53-3.27-9-6.56-13.4-10.06H203.3a1.39,1.39,0,0,0,1.17,1.51c.15,0,0,0,.11,0,2.25.92,2.26.93,3.82-.92a2.2,2.2,0,0,1,.85-.63h8.17l-.21.2c-1.52.68-3.1.22-4.65.3-.3,0-.68-.4-.89.15A48,48,0,0,1,206.34,191.31Z" transform="translate(-22.32 -24.68)"/><path class="cls-2" d="M147.63,220.84l5-8.45c3.56.81,7,2,10.52,3,1.22.35,2.42.74,3.64,1.1A66.38,66.38,0,0,1,158,219,88.22,88.22,0,0,1,147.63,220.84Z" transform="translate(-22.32 -24.68)"/><path class="cls-8" d="M190.05,105.11a8.94,8.94,0,0,0,5-1.43c.75,1.93,1.54,3.85,2.23,5.8.31.87.87,1,1.66,1q13,0,26,0a2.25,2.25,0,0,1,1.28.13c-.28,0-.55.05-.83.06H183.31c-.28,0-.56,0-.84,0,.22-.69.82-.5,1.28-.51,2.15,0,4.29,0,6.44,0,1.31,0,1.4-.15.88-1.39-.32-.77-.65-1.54-1-2.3A1.22,1.22,0,0,1,190.05,105.11Z" transform="translate(-22.32 -24.68)"/><path class="cls-8" d="M146.57,46.79c-.57-2.48-1.26-4.93-1.62-7.45a32.37,32.37,0,0,1,3.8,2.39c0,1.06.07,2.13,0,3.19,0,.72.21,1,.94,1,1.46,0,2.93,0,4.39,0A14.6,14.6,0,0,1,157,48.06c.31.28.92.72.06,1.15a62.7,62.7,0,0,1-7,.07A10.9,10.9,0,0,1,146.57,46.79Z" transform="translate(-22.32 -24.68)"/><path class="cls-8" d="M61.49,104.14l5.73,0a.47.47,0,0,1,.11.45,35.51,35.51,0,0,1-2.54,5.75H59.06Z" transform="translate(-22.32 -24.68)"/><path class="cls-8" d="M83.25,67.25h6.5a.48.48,0,0,1,0,.45,45.65,45.65,0,0,1-3.57,4.72H79.46Z" transform="translate(-22.32 -24.68)"/><path class="cls-8" d="M179.23,84.77h6A44.78,44.78,0,0,1,187.49,89h-5.84C180.59,87.74,179.45,86.52,179.23,84.77Z" transform="translate(-22.32 -24.68)"/><path class="cls-9" d="M167.53,68c1.27,0,2.53-.08,3.79,0,1,0,1.43-.19,1.27-1.22a2.85,2.85,0,0,1,0-.71,34.27,34.27,0,0,0,3.25,4.24h-6.69A4,4,0,0,1,167.53,68Z" transform="translate(-22.32 -24.68)"/><path class="cls-10" d="M211.67,181.9l-.64-.45h6.18c-.68,2.23-.67,2.21-2.75,1.41A13.73,13.73,0,0,0,211.67,181.9Z" transform="translate(-22.32 -24.68)"/><path class="cls-11" d="M167.53,68a14.37,14.37,0,0,1,1.66,2.29c-5.87,0-11.73,0-17.6,0-1,0-1.46.22-1.31,1.31s-.49,2.61.26,3.32,2.14.18,3.24.19c6.35,0,12.69,0,19,0a9.28,9.28,0,0,1,3.12,4.76c-8,0-15.91,0-23.87,0-1,0-1.42.19-1.4,1.34.08,3.75.07,7.51,0,11.27,0,1,.23,1.34,1.3,1.33,9.6,0,19.19,0,28.79,0,1.13,0,1.45.33,1.36,1.4s0,2.16,0,3.24c0,1.39-.5,1.86-1.89,1.87-3.84,0-7.68,0-11.51,0-.91,0-1.23.23-1.13,1.14.11,1.14-.47,2.61.21,3.36s2.2.25,3.34.26c5.84,0,11.67,0,17.51,0,.48,0,.95,0,1.43.07a27.71,27.71,0,0,0,1.69,4.2c.42,1,.12,1.15-.81,1.14-2.43,0-4.87,0-7.3,0-.39,0-.8-.12-1.16.14a6.65,6.65,0,0,0-3.43,1.27c-.41.39-.72.14-1-.11a6.35,6.35,0,0,0-4.16-1.26q-20.57,0-41.13,0c-3.89,1-7.82,0-11.73.14s-8,.05-12,.05H97.13c-4.28,0-8.56,0-12.83,0a28.84,28.84,0,0,0-4.37.55c-1.39.2-2.66-.8-4.11-.79-3.67,0-7.35,0-11,0,.51-2.18,1.73-4.09,2.43-6.2.52,0,1-.06,1.56-.06q22.73,0,45.46,0c4.25,0,7.39-2.19,8.49-5.88a9.77,9.77,0,0,0,.38-2.84c0-7.24,0-14.48,0-21.71,0-1-.25-1.26-1.25-1.26-11.91,0-23.83,0-35.74,0a46,46,0,0,1,3.61-5.17l30.19,0a6.54,6.54,0,0,0,1.66-.14,4,4,0,0,0,2.81-5.16c-1.76-5.46-3.6-10.9-5.38-16.36a.91.91,0,0,0-1-.71c-1.72,0-3.44,0-5.15,0a28.93,28.93,0,0,1,6.29-3.33,21.4,21.4,0,0,1,11.63-1.66c.81,3.62,1.63,7.23,2.4,10.85.15.71.39,1,1.16,1q6.17-.06,12.34,0c.86,0,1-.22.76-1-.35-1.27-.57-2.57-.85-3.85,1.27.44,2.11,1.51,3.22,2.19a2.06,2.06,0,0,1,.29,1.6q-.45,6.45-.67,12.91c0,.68-.14,1.35-.19,2s.24,1.06.95,1.07c1.88,0,3.75,0,5.63,0,.7,0,1-.34,1.06-1a21.57,21.57,0,0,0,.21-3.11,50.08,50.08,0,0,1,.36-5.48c.2-.57.54-.42.89-.17a2.15,2.15,0,0,1,1,1.5c0,2.86,0,5.73,0,8.59,0,.84.24,1.07,1.07,1C162.76,67.91,165.15,68,167.53,68Z" transform="translate(-22.32 -24.68)"/><path class="cls-12" d="M223,141.09c1.47,0,2.58,0,3.68,0s1.62.45,1.61,1.56c0,5.88.06,11.76,0,17.64a11.57,11.57,0,0,1-11.48,11.49c-11.59.1-23.19,0-34.79,0a1.4,1.4,0,0,1-1.6-1.61c0-6,0-12.08,0-18.11a10.89,10.89,0,0,1,3.49-7.85c-.13-.32-.36-.21-.53-.22-1.57,0-1.9-.36-1.91-1.89V121.86c0-1.52,0-3,0-4.56,0-1.22.44-1.68,1.64-1.68q21.23,0,42.46,0c1.27,0,1.68.43,1.68,1.75,0,4.12-.1,8.24,0,12.35C227.44,134,226.47,137.8,223,141.09Z" transform="translate(-22.32 -24.68)"/><path class="cls-12" d="M27.37,143.57V117.41c0-1.63.33-2,1.94-2H75.49c1.63,0,2,.34,2,1.94q0,10.26,0,20.51a11.81,11.81,0,0,1-12.09,12c-7.12,0-14.23,0-21.35,0-1,0-1.35.21-1.34,1.3.05,6.24,0,12.48,0,18.72,0,1.52-.36,1.88-1.91,1.88H29.4c-1.73,0-2-.29-2-2Z" transform="translate(-22.32 -24.68)"/><path class="cls-12" d="M153.26,171.83H133.1c-1.73,0-2-.31-2-2V142.37c0-1.62.34-2,1.95-2,7,0,13.92-.11,20.88.05,3.38.08,6.32-1.85,6.37-6.15,0-3.92,0-7.83,0-11.75,0-1-.58-.93-1.24-.93H133.13c-1.77,0-2.08-.31-2.08-2.09,0-.88,0-1.76,0-2.64a1.31,1.31,0,0,1,1.41-1.42h41c1.83,0,2.15.33,2.15,2.18,0,5.68,0,11.36,0,17-.05,4-1.42,7.35-4.8,9.69a11.51,11.51,0,0,1-6.78,2c-5.44,0-10.88,0-16.31,0-1.07,0-1.34.27-1.33,1.33.06,5.64,0,11.28,0,16.92,0,.93.23,1.21,1.19,1.2,8.68,0,17.36,0,26,0,1.72,0,2,.3,2,2,0,.76,0,1.52,0,2.28,0,1.25-.46,1.7-1.75,1.7Z" transform="translate(-22.32 -24.68)"/><path class="cls-12" d="M81.37,143.7v-26c0-1.65.32-2,1.93-2h43.06c1.6,0,1.86.27,1.86,1.9v2.16c0,1.77-.2,2-2,2-9.36,0-18.72,0-28.07,0-1.17,0-1.45.3-1.44,1.45q.06,20.63,0,41.27c0,1,.22,1.41,1.36,1.41,9.4-.06,18.8,0,28.19,0,1.79,0,2,.19,2,2,0,.72,0,1.44,0,2.16,0,1.48-.37,1.85-1.82,1.85H83.45c-1.77,0-2.08-.32-2.08-2.08Z" transform="translate(-22.32 -24.68)"/><path class="cls-11" d="M101.84,145.93c0-4.44,0-8.88,0-13.32,0-1.06.22-1.41,1.36-1.41,8.64.06,17.28,0,25.92,0a3.78,3.78,0,0,0,2.89-.87c.31-.3.51-.24.8,0a3.86,3.86,0,0,0,2.6.71c6.2,0,12.39,0,18.59,0,1,0,1.29.24,1.27,1.25-.05,3.09,0,3.1-3.08,3.1H132.84a6.43,6.43,0,0,0-5.93,3.16,7,7,0,0,0-.89,3.67c0,5.8,0,11.59,0,17.39,0,.87-.18,1.16-1.11,1.16q-11-.06-22,0c-.9,0-1.16-.26-1.15-1.16C101.86,155.05,101.84,150.49,101.84,145.93Z" transform="translate(-22.32 -24.68)"/><path class="cls-4" d="M104.86,184.57a53.32,53.32,0,0,0-4.68,5.39c-2.75,3.18-5.41,6.45-8.11,9.68-.94,1.13-1.93,2.22-2.83,3.38-.45.58-.75.54-1.23.09s-1.23-1-1.85-1.5a6.43,6.43,0,0,1-2.64-2,.49.49,0,0,1,0-.65q7.22-8.58,14.41-17.17a2.15,2.15,0,0,0,.27-.52h9.11c.23.29.08.55-.11.75A17,17,0,0,1,104.86,184.57Z" transform="translate(-22.32 -24.68)"/><path class="cls-2" d="M196.09,192.48c-1.52.81-3.23.68-4.86.93-4.63.72-9.28,1.33-13.92,2-.58.08-.71.43-.64.94-.32-.16-.26-.45-.27-.72-.35-.47-.15-.88.16-1.27a21.08,21.08,0,0,1,4.22-1.23c1.22-.36,1.27-.4,1-1.65s-.74-2.52-1-3.81c-.16-.82-.59-1-1.37-.81-2.28.54-4.51,1.29-6.83,1.72a16.2,16.2,0,0,1-3.9-1.79c-2.6-1.38-5.23-2.73-7.82-4.14a7.59,7.59,0,0,0-3.79-.89c-1.13,0-2.31.32-3.4-.27-2.34,0-4.68,0-7,0-1,0-1.3.31-1.17,1.22a1.76,1.76,0,0,1-1.66-1.34c5.06,0,10.12-.06,15.18-.06,3.59,0,7.17,0,10.76.07a10.68,10.68,0,0,1,3.53,1.06q4.32,1.59,8.62,3.23c1.25.48,1.26.47,1.75-.73.16-.4.22-.87.71-1l10.33,7.6Z" transform="translate(-22.32 -24.68)"/><path class="cls-11" d="M175.37,153.1c0,2.53,0,4.83,0,7.13,0,.5-.24.57-.67.57q-11.16,0-22.32,0c-.57,0-.79-.19-.75-.76.08-1.31-.51-2.95.22-3.83s2.34-.22,3.56-.25c4.19-.11,8.39.18,12.58-.15A14.65,14.65,0,0,0,175.37,153.1Z" transform="translate(-22.32 -24.68)"/><path class="cls-6" d="M143.78,181.3l1.66,1.34c1.76,1.71,1.78,1.74-.26,3.26-6,4.5-12,9-18,13.49-1.19.89-1.46-.36-2.14-.66,1.25-1.95,2.9-3.57,4.32-5.38,1-1.28,2.08-2.5,3.12-3.74q5.22-3.88,10.41-7.76a6.57,6.57,0,0,0,.62-.55Z" transform="translate(-22.32 -24.68)"/><path class="cls-11" d="M64,169l7.4-8.94c.3-.36.57-.76.85-1.15a17.53,17.53,0,0,0,4-1.94v13A94.83,94.83,0,0,1,64,169Z" transform="translate(-22.32 -24.68)"/><path class="cls-2" d="M59,163.93c-3.54,4.22-7.06,8.45-10.64,12.63-.41.48-.22,1.08-.58,1.51q0-6.36,0-12.72c.43-.34.83-.06,1.23.07,1.32.46,2.63.92,4,1.25.67.17.89,0,.69-.68-.46-1.69-.86-3.4-1.28-5.1-.12-.49-.36-1,0-1.48h5.28A13.65,13.65,0,0,1,59,163.93Z" transform="translate(-22.32 -24.68)"/><path class="cls-6" d="M104.86,184.57c.35-1,1.23-1.53,1.77-2.34.21-.33.62-.52.65-1h4.86c1.62,1.23,3.2,2.49,4.86,3.66.63.45.62.79.21,1.33-1,1.33-2.08,2.63-3,4-.54.84-.94.68-1.57.19C110.07,188.49,107.46,186.54,104.86,184.57Z" transform="translate(-22.32 -24.68)"/><path class="cls-4" d="M184.33,183.83c-.4.81-.35,2-1.11,2.42s-1.67-.46-2.5-.77c-3.68-1.37-7.34-2.78-11-4.18,2.23,0,4.47-.1,6.71-.05a4,4,0,0,0,4.2-2.61,4.38,4.38,0,0,0,4.64,2.63C185,182.12,184.64,183,184.33,183.83Z" transform="translate(-22.32 -24.68)"/><path class="cls-13" d="M52.55,159.41c.39,2.36,1.07,4.64,1.69,6.94.19.71.3,1-.69.77-1.94-.46-3.78-1.21-5.68-1.77a28.93,28.93,0,0,1,0-4.56c1-1,2.37-1.18,3.7-1.38Z" transform="translate(-22.32 -24.68)"/><path class="cls-14" d="M59,163.93a14.49,14.49,0,0,1-1.21-4.52h4.85C61.62,161,60.21,162.4,59,163.93Z" transform="translate(-22.32 -24.68)"/><path class="cls-15" d="M209.25,181.26c-.48.64-1,1.24-1.43,1.92a1.22,1.22,0,0,1-1.86.55,13.26,13.26,0,0,0-2.09-.89c-.92-.3-1.21-.75-.57-1.58Z" transform="translate(-22.32 -24.68)"/><path class="cls-16" d="M51.56,159.41l-3.7,1.38c-.26-1,0-1.58,1.21-1.44C49.89,159.44,50.73,159.39,51.56,159.41Z" transform="translate(-22.32 -24.68)"/><path class="cls-4" d="M67.47,188c-1.82-1.58-3.32-3.52-5.35-4.87a16.44,16.44,0,0,0-2.32-2.4.94.94,0,0,1-.21-1.34c.54-.89,1-1.79,1.5-2.72.29-.62.52-.64,1-.17,1.44,1.38,2.93,2.7,4.39,4a16.17,16.17,0,0,1,3.08,2.57A30.58,30.58,0,0,1,72,185.5a66.27,66.27,0,0,0,6.47,6.18c2.15,1.92,2.27,1.8.92,4.33-.94,1.77-1,1.83-2.47.57-1.67-1.42-3.24-3-4.85-4.43Z" transform="translate(-22.32 -24.68)"/><path class="cls-5" d="M83.49,199c.51,1.27,1.88,1.67,2.67,2.65-.19.78.52,1.85-.18,2.28-.53.33-1.53,0-2.31-.15-6.58-1-13.16-2.06-19.74-3.07-.51-.08-1-.1-1.53-.21-2-.42-2.07-.45-2.16-2.56a8.43,8.43,0,0,0-.09-1.67c-.14-.65,0-.76.64-.66,2.51.39,5,.72,7.54,1.09q5.36.78,10.7,1.59C80.52,198.47,82,198.72,83.49,199Z" transform="translate(-22.32 -24.68)"/><path class="cls-6" d="M72,185.5a4,4,0,0,1-1.32-1l-4.15-4c2.14-1.23,4.29-2.44,6.41-3.72.73-.44,1.07-.28,1.46.45.74,1.41,1.56,2.77,2.39,4.13.41.68.53,1.1-.36,1.55C74.86,183.67,73.43,184.62,72,185.5Z" transform="translate(-22.32 -24.68)"/><path class="cls-5" d="M115.21,200.42a30.24,30.24,0,0,1-2.9,3.58c-1.84-1.72-3.66-3.45-5.51-5.15a.85.85,0,0,1-.17-1.25c.52-.89,1-1.79,1.48-2.73.35-.76.63-.57,1.1-.11C111.19,196.66,113.21,198.54,115.21,200.42Z" transform="translate(-22.32 -24.68)"/><path class="cls-5" d="M125.78,181.44c2.66,0,2.66,0,1.35,2.31s-1.32,2.31-4,1.4c-1.86-.62-1.68-.54-.86-2.35S124.47,181.53,125.78,181.44Z" transform="translate(-22.32 -24.68)"/><path class="cls-11" d="M106,78c0,2.43.06,4.87.07,7.3,0,3.4,0,6.8,0,10.19,0,2.15-1,3.15-3.14,3.15-8.07,0-16.15,0-24.22,0-.94,0-1.21-.23-1.19-1.18.06-4.24,0-8.47.07-12.71a27.09,27.09,0,0,1,3.77-6.37,1.31,1.31,0,0,1,1.15-.51h23.15A.83.83,0,0,1,106,78Z" transform="translate(-22.32 -24.68)"/><path class="cls-9" d="M106,78c-7.64,0-15.28,0-22.92,0a1.88,1.88,0,0,0-1.66.88C80,80.72,79,82.9,77.57,84.76c0-1.92,0-3.84-.07-5.76,0-.94.24-1.22,1.2-1.21,6.76,0,13.52,0,20.28,0,2,0,3.92,0,5.87,0C105.23,77.8,105.66,77.61,106,78Z" transform="translate(-22.32 -24.68)"/><path class="cls-11" d="M94.51,61.69a88.64,88.64,0,0,1,9.42-9.86c.91,2.71,1.84,5.42,2.72,8.14.32,1-.33,1.74-1.49,1.75C101.61,61.73,98.06,61.71,94.51,61.69Z" transform="translate(-22.32 -24.68)"/><path class="cls-11" d="M179.23,84.77,181.65,89q-7.26,0-14.51,0c-.65,0-.78-.23-.81-.84-.12-3.48-.14-3.49,3.31-3.48Z" transform="translate(-22.32 -24.68)"/><path class="cls-8" d="M175.93,79.88a41.46,41.46,0,0,0-3.12-4.76l6.26,0a7.29,7.29,0,0,1,2.32,3.33c0,1.07-.69,1.43-1.65,1.44C178.47,79.91,177.2,79.89,175.93,79.88Z" transform="translate(-22.32 -24.68)"/><path class="cls-17" d="M181.39,78.47l-2.32-3.33c2.36-.18,2.37-.18,2.36,2.14C181.43,77.68,181.41,78.07,181.39,78.47Z" transform="translate(-22.32 -24.68)"/><path class="cls-18" d="M157.43,49c-.87-1.28-2.43-1.8-3.32-3.05,1.47,0,2.94,0,4.41,0,.63,0,.85.21.82.83,0,1.31,0,2.63,0,3.94-.9,0-1.08-.85-1.57-1.35A1,1,0,0,1,157.43,49Z" transform="translate(-22.32 -24.68)"/><path class="cls-19" d="M157.93,49a3.62,3.62,0,0,0,1.37,1.6v7.68a6.56,6.56,0,0,0-1.57-1.67,1.17,1.17,0,0,1-.38-1.18,45.41,45.41,0,0,0,.21-5.34A1.38,1.38,0,0,1,157.93,49Z" transform="translate(-22.32 -24.68)"/><path class="cls-6" d="M174.57,194.88c-3.65,1-7.28,1.94-10.94,2.87-6,1.54-12.1,3.05-18.15,4.57a4.13,4.13,0,0,0-.53.24,2.16,2.16,0,0,1-2.64-.72c-.39-1.54-.76-3.09-1.17-4.62-.18-.69-.11-1,.72-1.22,7.5-1.85,15-3.77,22.46-5.67l1-.28c.41-.27.77,0,1.11.14,2.42,1.17,4.75,2.53,7.16,3.72C174,194.11,174.5,194.31,174.57,194.88Z" transform="translate(-22.32 -24.68)"/><path class="cls-5" d="M174.57,194.88a97.35,97.35,0,0,0-9.22-4.83c-2-1.44-4.27-2.24-6.34-3.49a47.52,47.52,0,0,0-4.53-2.37c-1-.45-1.39-1-.93-2a2.35,2.35,0,0,0,.08-.71c1.6,0,3.19,0,4.79,0a3.14,3.14,0,0,1,1.59.44l12.52,6.52a18.47,18.47,0,0,1,4.68,2.18.8.8,0,0,1,.4.81,5.22,5.22,0,0,1-1,3c-.08.4-.17.8-.25,1.21Z" transform="translate(-22.32 -24.68)"/><path class="cls-5" d="M142.31,201.84a7.36,7.36,0,0,0,2.64.72,53.46,53.46,0,0,0,6.07,1.92l.67.24c-1.06,2.17-2.44,4.15-3.64,6.23-4.34-1.28-8.67-2.58-13-3.82-1-.29-1.47-.59-1-1.76a33.87,33.87,0,0,0,1.33-4.44c.21-.86.64-.93,1.35-.69A54.19,54.19,0,0,0,142.31,201.84Z" transform="translate(-22.32 -24.68)"/><path class="cls-5" d="M117.09,208.29a19.53,19.53,0,0,1,2.9-3.57,54,54,0,0,0,5.56,5.25c2,1.73,2.16,1.68,1,4.05-1,2-1.14,2.14-2.69.72A70.67,70.67,0,0,1,117.09,208.29Z" transform="translate(-22.32 -24.68)"/><path class="cls-1" d="M157.93,49c.13,2.55-.15,5.08-.2,7.61-.16,3.15-.35,6.29-.47,9.43,0,.74-.25,1-1,.93-2.19,0-4.39,0-6.58,0-.77,0-.93-.24-.89-1,.34-5.69.65-11.38,1-17.07l7.64,0Z" transform="translate(-22.32 -24.68)"/><path class="cls-1" d="M137.17,105.11c-2.08,0-4.15,0-6.23,0-.69,0-.87-.16-.79-.88q1.57-14.22,3.07-28.45c.3-2.75.28-2.75,3.11-2.75,3.48,0,6.95,0,10.43,0,.75,0,1,.11.92,1-1.08,9.44-2.09,18.88-3.15,28.32-.3,2.76-.33,2.76-3,2.76Z" transform="translate(-22.32 -24.68)"/><path class="cls-1" d="M140.64,69.61c-2.08,0-4.15,0-6.23,0-.6,0-.9-.12-1-.79q-1.49-6.66-3.07-13.29c-.16-.67-.07-.9.68-.89,4.15,0,8.31,0,12.47,0a.9.9,0,0,1,1,.84c1,4.39,2,8.78,3.11,13.16.2.84-.06,1-.83,1C144.72,69.57,142.68,69.61,140.64,69.61Z" transform="translate(-22.32 -24.68)"/><path class="cls-1" d="M213.61,154.24c0,2.43,0,4.87,0,7.31s-1.18,3.92-3.7,4.09c-4.67.33-9.35.07-14,.14-.58,0-.75-.27-.75-.81,0-5.12,0-10.24.05-15.35,0-2.33,1.79-3.84,4.48-3.89,4.39-.08,8.79,0,13.18,0,.82,0,.77.45.77,1C213.6,149.2,213.61,151.72,213.61,154.24Z" transform="translate(-22.32 -24.68)"/><path class="cls-1" d="M204.43,121.67c2.36,0,4.72,0,7.08,0,.75,0,1,.24,1,1,0,4.36,0,8.72,0,13.08,0,2.48-1.37,3.9-3.86,3.94-3.8.07-7.6,0-11.4,0-.79,0-.91-.33-.9-1q0-8,0-16.08c0-.76.27-.94,1-.93C199.63,121.69,202,121.67,204.43,121.67Z" transform="translate(-22.32 -24.68)"/><path class="cls-1" d="M42.71,132.79c0-3.39,0-6.79,0-10.19,0-.81.18-1.11,1-1.1q8.7,0,17.39,0c.87,0,1,.3,1,1.1,0,5.48,0,11,0,16.43a4.73,4.73,0,0,1-5,4.94c-4.43,0-8.87,0-13.31,0-.88,0-1.16-.2-1.15-1.12C42.75,139.51,42.71,136.15,42.71,132.79Z" transform="translate(-22.32 -24.68)"/><path class="cls-20" d="M176.65,194.39c.84-3.38.84-3.38-2.24-5-.64-.33-1.26-.68-1.88-1,2.46-.92,5.05-1.35,7.56-2.07.57-.17.72.2.82.6.47,1.77.89,3.54,1.37,5.31.15.55,0,.82-.53.95Z" transform="translate(-22.32 -24.68)"/><path class="cls-2" d="M208.53,157.18c0,1.12,0,2.23,0,3.35a3.18,3.18,0,0,1-1.91-.43c-1-.38-2-.71-2.63.61-3.63.25-3.63.25-3.61-3.38,0-1.62.41-2,2-2.08.83,0,1.67,0,2.51,0a2.86,2.86,0,0,0,1.69,1A3.22,3.22,0,0,1,208.53,157.18Z" transform="translate(-22.32 -24.68)"/><path class="cls-21" d="M208.53,157.18c-.95-.28-1.89-.59-2.85-.82a.87.87,0,0,1-.76-1.1c.59,0,1.18,0,1.77,0C208.63,155.21,208.63,155.22,208.53,157.18Z" transform="translate(-22.32 -24.68)"/><path class="cls-22" d="M204,160.71c.09-1.39.79-1.65,2-1.12.83.37,1.7.63,2.55.94C207,161.06,205.49,160.71,204,160.71Z" transform="translate(-22.32 -24.68)"/><path class="cls-23" d="M207.32,131.2a1.87,1.87,0,0,1,.09.46c-.1,3.6.74,2.91-2.95,2.92-.93-.78-.79-1.9-.87-2.93,0-.47.41-.49.78-.49C205.35,131.18,206.34,131.12,207.32,131.2Z" transform="translate(-22.32 -24.68)"/><path class="cls-24" d="M207.32,131.2c-.91,0-1.82.05-2.73,0-.59,0-.91.1-.7.81s.38,1.69.57,2.53a3.73,3.73,0,0,1-.47,0c-2.87,0-2.92,0-2.63-2.86,0-.42.12-.7.61-.68A35.41,35.41,0,0,1,207.32,131.2Z" transform="translate(-22.32 -24.68)"/><path class="cls-8" d="M53,131.07c1.08,0,2.16,0,3.24,0,.59,0,.87.13.86.79,0,2.12,0,4.24,0,6.36,0,.56-.18.78-.76.77-1.51,0-3,0-4.55,0a1.16,1.16,0,0,1-.29-1,45.31,45.31,0,0,1,1-6A1.6,1.6,0,0,1,53,131.07Z" transform="translate(-22.32 -24.68)"/><path class="cls-25" d="M53,131.07a64.36,64.36,0,0,0-1.21,7.83c-1.27,0-2.86.52-3.71-.16s-.21-2.32-.27-3.54,0-2.23,0-3.34c0-.6.16-.86.8-.84C50.1,131.07,51.57,131.06,53,131.07Z" transform="translate(-22.32 -24.68)"/></svg>