<svg id="圖層_1" data-name="圖層 1" xmlns="http://www.w3.org/2000/svg" viewBox="0 0 203 193.68"><defs><style>.cls-1{fill:#f7e0a3;}.cls-2{fill:#21810e;}.cls-3{fill:#f7bfa3;}.cls-4{fill:#21820e;}.cls-5{fill:#f6e0a3;}.cls-6{fill:#f3dea1;}.cls-7{fill:#fefefe;}.cls-8{fill:#89d87b;}.cls-9{fill:#fdfdfd;}.cls-10{fill:#fcfdfc;}.cls-11{fill:#fcfdfb;}.cls-12{fill:#c7e3c3;}.cls-13{fill:#c3e0be;}.cls-14{fill:#e0eddf;}.cls-15{fill:#a3cf9d;}.cls-16{fill:#d6ecd3;}.cls-17{fill:#aad6a3;}.cls-18{fill:#89d87a;}.cls-19{fill:#fdfefd;}.cls-20{fill:#b1e4a8;}.cls-21{fill:#b9e6b2;}.cls-22{fill:#eff8ee;}.cls-23{fill:#c8ebc2;}.cls-24{fill:#539934;}.cls-25{fill:#318b1d;}.cls-26{fill:#549a34;}.cls-27{fill:#539a34;}.cls-28{fill:#529933;}.cls-29{fill:#559a35;}.cls-30{fill:#2b8819;}.cls-31{fill:#2b8717;}.cls-32{fill:#b2d9ac;}.cls-33{fill:#2d8717;}.cls-34{fill:#318a1c;}.cls-35{fill:#b1d4ac;}.cls-36{fill:#b3d6ae;}.cls-37{fill:#2d881b;}.cls-38{fill:#278615;}.cls-39{fill:#278616;}.cls-40{fill:#298718;}.cls-41{fill:#328c21;}.cls-42{fill:#318b20;}.cls-43{fill:#bbdfb6;}.cls-44{fill:#cfe1cc;}.cls-45{fill:#f6faf5;}</style></defs><title>25</title><path class="cls-1" d="M145.44,181a1.47,1.47,0,0,0-1,.51,46.25,46.25,0,0,1-13.52,9.84,2,2,0,0,0-.36.3c-.55,0-.85-.41-1.18-.74L120.51,182c-1.16-1.17-1.15-1.43,0-2.64q7-7.05,14.09-14.08a17,17,0,0,0,1.85-2.2,8,8,0,0,0-4.76-12.23,7.27,7.27,0,0,0-7.13,2.07q-8,8-16,15.95c-.43.43-.85,1.23-1.5,1s-.39-1.14-.39-1.75c0-3.4,0-6.8,0-10.2a7.08,7.08,0,0,0-5.13-7.14c-3.7-1.06-7.22.09-9.09,3a10.13,10.13,0,0,0-1.24,5c0,.54.21,1.31-.39,1.51s-.86-.58-1.16-1c-3.54-5.13-8.32-8.23-14.61-8.72a113.51,113.51,0,0,0-15.32,0c-2.6.14-5.2.05-7.8,0a.86.86,0,0,1-.84-.36,6.22,6.22,0,0,1,2.71-.18c1.76-.05,3.52,0,5.28,0,.68,0,1-.24.86-.9s.48-1.54-.48-2c.21-.64.82-.56,1.29-.67L85.42,141c5.74-1.25,11.47-2.55,17.22-3.75,8.59-1.79,14.25-9.29,13.9-18.29-.11-2.68-1-5.25-1.56-7.87-.8-3.88-1.71-7.73-2.52-11.6-.1-.46-.28-.94.13-1.36a36.36,36.36,0,0,1,8.74,1.3,6.27,6.27,0,0,0,1.28.18c.48.69.11,1.39,0,2.07-1.19,6.4-2.42,12.79-3.53,19.2-.83,4.76,1.77,8.55,6.48,9.62a8,8,0,0,0,9.47-5.74c1.24-5.08,2-10.27,2.93-15.41a4.6,4.6,0,0,1,.53-2.06c.76,0,1,.67,1.47,1a50.58,50.58,0,0,1,8.09,8.13c.19.85.24,1.72.42,2.58a8.05,8.05,0,0,0,4.1,5.46c.32.19.81.21.82.75.65,1.54,1.34,3.06,1.93,4.63a48.54,48.54,0,0,1,2.91,13,44.82,44.82,0,0,1,0,8.59.37.37,0,0,1-.22.38,15.93,15.93,0,0,0-4.79,3.92c-3.68,3.83-7.67,7.33-11.37,11.13a9.37,9.37,0,0,0-2.28,3.47c-1.48,4.34,1.16,8.35,5,10C144.87,180.51,145.41,180.35,145.44,181Z" transform="translate(-18.72 -19.63)"/><path class="cls-2" d="M138.71,107.32q-1.17,6.34-2.36,12.7c-.29,1.57-.62,3.13-.94,4.69-.89,4.41-5.79,6.92-9.93,6.2a8.78,8.78,0,0,1-6.75-10.33c1.46-6.94,2.6-14,3.88-20.94.34-1.81.7-3.61,1-5.42a10,10,0,0,1,2.61-5.58,10.33,10.33,0,0,1-3.69-.27,7.74,7.74,0,0,1-6.09-6.07c-1-4.27-2-8.55-2.83-12.86-.67-3.54.71-6.4,3.64-8.61a16.53,16.53,0,0,1-3-1.06,8.54,8.54,0,0,1-4-5.59c-.89-4.3-2-8.56-2.75-12.88a8.25,8.25,0,0,1,5.76-9.09c4.52-1.32,8.42.37,10.79,4.6.71-.54,1.07-1.36,1.75-1.94,2-1.71,4.55-1.87,6.93-2.41,5.95-1.36,11.93-2.62,17.9-3.89a1.14,1.14,0,0,0,1-1.19A8,8,0,0,1,155.58,21c4.15-2.4,9.48-1.58,12.06,2.76a1.34,1.34,0,0,0,1.78.71Q180,22.11,190.58,19.8a8.57,8.57,0,0,1,3.22,16.84l7,6.61c1.07,1,2.18,2,3.21,3a8.42,8.42,0,0,1-.64,12.44l-.9.72c2.8,2.76,3.09,6.5,3.88,10,1.23,5.46-.56,10-4.58,13.7-.26.25-.54.47-.85.75,5.35,1.46,9.12,4.56,10.79,9.91,1.35,4,2.63,8,1.25,12.37-1.64,5.17-5,8.67-10.26,9.88-11.17,2.56-22.38,4.93-33.58,7.37a10.6,10.6,0,0,1-4,.59c-2.13.45-4.3.78-6.39,1.38a11,11,0,0,1-5.39-.15c-3.83-1.7-5.5-4.76-5.53-8.84a6.73,6.73,0,0,1,2.34-5.46.65.65,0,0,1,.77-.14c.21.41-.11.67-.27,1a4.45,4.45,0,0,0,.5,5.19,6.34,6.34,0,0,1,1,1.59c1.26,2.57,2.93,3.44,5.75,2.83q14.34-3.12,28.68-6.27l14.16-3.1a10,10,0,0,0,8.35-8.87,6.43,6.43,0,0,0,0-1.91c-.32-2-.76-3.92-1.25-5.86a9.51,9.51,0,0,0-5.2-6.38c-.8-.52-1.49-1.2-2.28-1.75a9.67,9.67,0,0,0-8-1.45q-18.51,4-37,8.09a2.92,2.92,0,0,1-2,.07c-1.07-1.57-.69-2.57,1.21-3,7.15-1.54,14.28-3.12,21.42-4.68,6.17-1.34,12.34-2.65,18.49-4.06a10,10,0,0,0,8.12-8.69,5.66,5.66,0,0,0,0-1.79,48.36,48.36,0,0,0-1.21-5.74,9.35,9.35,0,0,0-6.32-6.79,15.2,15.2,0,0,0-3.76-1.82,9.72,9.72,0,0,0-4.26-.2c-1.84.39-3.68.77-5.51,1.17-.46.1-.93.29-1.39,0-.19-6.74-2.5-13.09-3.71-19.64-.43-2.38-.49-2.42,1.88-2.93a6.1,6.1,0,0,1,1.65-.25c1,.31.39.77.06,1.1a4.45,4.45,0,0,0-1.45,3.17,4.07,4.07,0,0,0,1.13,3c2.28,2.34,4.73,4.49,7.08,6.76.57.55,1.2,1,1.75,1.62,1.79,1.88,3.59,3.75,6.22,4.45,2.64,1.59,5.54,1.08,6.94-1.23a4.26,4.26,0,0,0-.53-5.09c-4.13-4.15-8.46-8.1-12.78-12.05a4.11,4.11,0,0,0-1.82-.87,15.69,15.69,0,0,1-3.07-.91c-.23-.07-.45-.18-.45-.48a2.2,2.2,0,0,1,1.4-.58c2.76-.62,5.55-1.17,8.3-1.83s4-2.42,3.67-5c-.25-2.15-1.64-3.28-3.6-3.85a17.32,17.32,0,0,0-6.73,0c-6.21,1.48-12.47,2.78-18.72,4.13a4.12,4.12,0,0,1-2.12.18c-.37-.16-.47-.52-.58-.86A4.74,4.74,0,0,0,161,23.74a9.83,9.83,0,0,0-3.54-.4,4.28,4.28,0,0,0-3.64,5.05c0,.2.07.39.11.59.32,1.56.21,1.76-1.38,2.13-1.79.42-3.59.81-5.38,1.19l-17.8,3.89a4.16,4.16,0,0,0-3.39,3A4.33,4.33,0,0,0,127,43.63,9.26,9.26,0,0,0,128.57,45a4.54,4.54,0,0,0,3.9.91,28.37,28.37,0,0,1,5-.91c.6.26.3.66.09,1a8.33,8.33,0,0,0-1.08,3.14,43.9,43.9,0,0,1-4.55,12.66,4.37,4.37,0,0,0,.58,5.42,9.17,9.17,0,0,1,.7.82,4.8,4.8,0,0,0,4,2.35.91.91,0,0,1,.66.23.93.93,0,0,1,.2.55A5.23,5.23,0,0,0,139.82,75a6,6,0,0,1,.66.85c1.33,1.85,3.2,2.14,5.24,1.7q11.7-2.52,23.39-5.11c6.39-1.41,12.79-2.77,19.18-4.19a3,3,0,0,1,1.07-.08,2.36,2.36,0,0,1,1.13,2.39c-.17.92-.94,1.12-1.69,1.28l-15.59,3.42c-7.69,1.68-15.38,3.38-23.09,5-5.05,1.08-8.22,5-8,9.67.17,3.67.71,7.44,3.29,10.46a2.89,2.89,0,0,1,.33.5,9.92,9.92,0,0,0,10.47,4.91c9.31-1.93,18.59-4,27.88-6,3.63-.79,7.26-1.62,10.9-2.37a1.58,1.58,0,0,1,1.17,0,2.12,2.12,0,0,1,.48,1.2c.22,1.27-.09,1.76-1.36,2.06-3.19.76-6.39,1.42-9.59,2.13-10.87,2.39-21.76,4.72-32.63,7.16a3,3,0,0,1-1.3.08c-5-.6-10.75-5.27-11.23-11.33-.45,2.57-.91,5.23-1.45,7.88A1,1,0,0,1,138.71,107.32Z" transform="translate(-18.72 -19.63)"/><path class="cls-2" d="M51.17,150.2c7.2,0,14.4,0,21.59-.08,7.54-.07,13.31,3.11,17.48,9.32l.54.79s.06,0,.3.17c0-.87,0-1.63,0-2.39,0-4.42,2.91-7.66,7.32-8s8.61,2.52,8.69,7.68c.06,4,0,8,0,12.07.53-.11.76-.51,1-.8q7.91-8,15.79-15.93c2.58-2.61,5.61-3.53,9-2.12a8.32,8.32,0,0,1,5.3,7.65,8,8,0,0,1-2.74,6.16c-5,5-10,10.06-15,15.06-.69.68-.77,1,0,1.75,3.36,3.3,6.65,6.68,10,10,2.4,2.45,4.72,5,7.23,7.32a8,8,0,0,1-1.22,12.82,7.61,7.61,0,0,1-8.26.08,15.79,15.79,0,0,1-3.44-2.77l-12.28-12.11c-.22-.22-.48-.4-.72-.6-1.66-.92-2.64-2.62-4.16-3.69-.39.24-.24.59-.27.88-.3,4.09-.21,8.18-.22,12.27a1.41,1.41,0,0,1-.07.58c-.36,2.24-1.07,4.29-3.14,5.53-3,1.81-7.41,2.05-10.37-.34-1.63-1.33-2.07-3.25-2.43-5.19-.15-4.12,0-8.24-.07-12.37a2.7,2.7,0,0,0-.11-1.29v0c-.45-.46-.34-1-.34-1.59,0-3.56,0-7.13,0-10.79,0-.06-.17.17,0,.12s.08,0,0,.1a12,12,0,0,1-2.81,4c-1.66,1.63-3.37,3.28-5.78,3.83a25,25,0,0,1-9.62,1.52c-4.24-.1-8.48,0-12.72,0-.82,0-1.07.2-1.06,1,0,4.52,0,9,0,13.55a9.51,9.51,0,0,1-1.36,5.38,8.41,8.41,0,0,1-8,3.19c-4.54-.74-6.56-4.15-6.57-8.26q-.07-22.31,0-44.61c0-3.55,1.23-6.64,4.45-8.65A12.9,12.9,0,0,1,51.17,150.2Z" transform="translate(-18.72 -19.63)"/><path class="cls-2" d="M112.59,98.16c.51,3.27,1.35,6.47,2,9.7.64,3,1.42,6.06,2,9.12a17.48,17.48,0,0,1-4,14.74c-3,3.67-7.08,5.34-11.64,6.3-13.46,2.84-26.88,5.84-40.31,8.79-.38.08-.82,0-1.14.28-4,.85-8,1.69-11.94,2.56-8.92,1.95-18.85-3.72-20.94-13.24-1.58-7.17-3.24-14.32-4.72-21.51a17.21,17.21,0,0,1,3.27-14c.38-.51.78-1,1.24-1.59a13.06,13.06,0,0,1-4-1.47,8.07,8.07,0,0,1-3.7-7.71c.6-6.92,1.35-13.84,2-20.76.42-4.17.81-8.35,1.28-12.52.53-4.57,3.11-7.25,7.66-7.85,3.65-.48,8,2,9.05,5.92a17.56,17.56,0,0,1,0,6.3c-.57,6-1.2,12-1.8,18a2.62,2.62,0,0,0,0,.43c4.81-1,9.59-2.07,14.37-3.12Q68.23,72.84,85,69.15c1.73-.38,1.84-.53,1.47-2.25-.61-2.85-1.16-5.71-1.86-8.54a8.6,8.6,0,0,1,6.19-10c3.57-.88,8,.61,9.78,4a17.92,17.92,0,0,1,1.34,4.7q.85,3.61,1.57,7.25C104.87,71.15,103,77,97.8,81.7a2.43,2.43,0,0,0-.19.28,19.14,19.14,0,0,1,6,2.15c4.54,2.88,7.57,6.8,8.49,12.19C112.21,96.94,112.42,97.55,112.59,98.16Z" transform="translate(-18.72 -19.63)"/><path class="cls-3" d="M165.16,124.05l19.25-4.26c6.23-1.37,12.49-2.6,18.68-4.14,5-1.24,8-4.62,9.59-9.47,1.2-3.65.18-7.09-.58-10.59l-.36-1.75a23.2,23.2,0,0,1,4,9.76c1.72,9.84-1,18.35-8.1,25.33a26.38,26.38,0,0,1-16,7.44A27.62,27.62,0,0,1,166,124.94,3.37,3.37,0,0,0,165.16,124.05Z" transform="translate(-18.72 -19.63)"/><path class="cls-4" d="M174.62,181.18A37,37,0,0,1,177,167c3.52-8.56,9.78-13.92,19.15-15a21.12,21.12,0,0,1,14.32,3.76c5.37,3.57,8.24,8.82,9.76,15,2.18,8.82,2.18,17.61-1.15,26.05-3.59,9.12-10.35,14.85-20.3,16.16-4.25.56-8.21-.71-11.91-2.82-6.32-3.59-9.33-9.37-10.89-16.17A58.69,58.69,0,0,1,174.62,181.18Z" transform="translate(-18.72 -19.63)"/><path class="cls-4" d="M145.44,181c-3.51-1.16-5.93-3.33-6.53-7.15a7.13,7.13,0,0,1,2.08-6.34c4.81-4.84,9.71-9.59,14.58-14.37a7.6,7.6,0,0,1,2.63-1.59,11.35,11.35,0,0,1,4.61-.06,8.72,8.72,0,0,1,7.23,8.87q.11,22.62,0,45.22c0,6-5.5,8.36-9.83,7.49-2.34-.47-4.35-1.38-5.57-3.52a10,10,0,0,1-1.12-5.08V177.8C151.27,180.38,148.74,181.78,145.44,181Z" transform="translate(-18.72 -19.63)"/><path class="cls-5" d="M82.09,188.37A20.59,20.59,0,0,0,91,179.62v13.12A41.51,41.51,0,0,1,83.25,189C82.88,188.74,82.48,188.57,82.09,188.37Z" transform="translate(-18.72 -19.63)"/><path class="cls-6" d="M107.11,206.38V191.69l4.72,4.65c-1.11,0-2.23,0-3.33,0-.93-.06-1.25.21-1.22,1.18.06,2.54,0,5.08,0,7.63C107.29,205.55,107.43,206,107.11,206.38Z" transform="translate(-18.72 -19.63)"/><path class="cls-5" d="M91,192.72a1.51,1.51,0,0,1,.16,1q0,6.31,0,12.62c-.26-.25-.2-.59-.2-.9Q91,199.11,91,192.72Z" transform="translate(-18.72 -19.63)"/><path class="cls-7" d="M151,110.81c-1.54.7-2.08,2.14-2.61,3.57a17.77,17.77,0,0,0-.53,2.06c-1.2-1.26-2.4-2.53-3.61-3.78a39.74,39.74,0,0,0-4.87-4.39,1.42,1.42,0,0,1-.66-1c.55-3.16,1.11-6.33,1.66-9.49,1.2,6.5,4.87,10.51,11.31,11.92C152,110.43,151.52,110.65,151,110.81Z" transform="translate(-18.72 -19.63)"/><path class="cls-8" d="M151,110.81c.18-.39.65-.59.69-1.06.74.24,1.39-.16,2.07-.31q19.11-4.17,38.21-8.37l3-.68c1.57-.34,1.63-.43,1.29-2-.07-.31-.13-.63-.19-.94a2.08,2.08,0,0,1-.6-1.14c-.36-1.29-.57-1.41-1.86-1.14-5,1-9.91,2.16-14.86,3.24C170.86,100.16,163,102,155,103.6c-3.5.72-6.85.2-9.53-2.51-2.88-3.16-3.55-7.18-3.72-11.12-.22-4.86,3-8.86,8.13-10q19.44-4.26,38.89-8.49c.54-.12,1.44-.09,1.4-.84s.13-1.78-.83-2.29c-.17-1.69-.49-1.93-2.13-1.57-14.38,3.18-28.78,6.28-43.17,9.47a5.79,5.79,0,0,1-3.95-.38c-.51-.59-1.06-1.15-1.52-1.78a5.1,5.1,0,0,1-.82-3.49,4.05,4.05,0,0,1,2.63-3.7,13.94,13.94,0,0,1,1.93-.6l12.14-2.65a5.53,5.53,0,0,1,.9-.11c.56-.06,1.1-.2,1.65-.31l.33-.09a7,7,0,0,0,1-.26c1.36-.37,2.76-.61,4.12-1,3.19-.69,6.38-1.35,9.54-2.13a1.1,1.1,0,0,1,.33-.12,4.4,4.4,0,0,0,2.27-.31c.35-.2.78-.06,1.12-.28,1.08-.26,2.18-.48,3.26-.73a1.74,1.74,0,0,1,1.29,0c2.29-.48,4.57-1,6.87-1.43a9.53,9.53,0,0,1,8,2.15A3.06,3.06,0,0,1,197,60.62c2.39,4.17,3.85,8.59,2.35,13.38a9.44,9.44,0,0,1-7.14,6.63c-7.7,1.84-15.46,3.43-23.19,5.13q-8,1.77-15.94,3.49c-1.53.33-1.65.52-1.37,2,.08.39.18.78.25,1.17a1.56,1.56,0,0,0,1.4,1.42,60.09,60.09,0,0,0,7.73-1.55C171.76,90,182.39,87.64,193,85.37c3.9-.83,7.08.77,9.81,3.48a4.18,4.18,0,0,1,1.57,2.07,27.42,27.42,0,0,1,1.84,8.52,9.92,9.92,0,0,1-7.84,10.14c-4.62,1.15-9.29,2.08-13.93,3.1-9.3,2-18.6,4-27.88,6.12a7.69,7.69,0,0,1-4.7-.21,6.58,6.58,0,0,0-.54-.89C149.3,115.24,149.2,113.53,151,110.81Z" transform="translate(-18.72 -19.63)"/><path class="cls-8" d="M175.46,59.32l-.71.22a7.54,7.54,0,0,1-2.36.22l-.08,0a4.15,4.15,0,0,1-3.81-3.24c-.71-2.33-1.13-4.72-1.64-7.1-.73-3.42-1.55-6.83-2.23-10.27-.06-.78-.47-1-1.22-.83-1.76.37-3.51.81-5.27,1.14-.91.17-1.17.58-1,1.5q1.64,7.5,3.28,15a9.88,9.88,0,0,1,.44,3.19A4.12,4.12,0,0,1,158.4,63a9.73,9.73,0,0,1-1.18.42h0a10.93,10.93,0,0,1-2.06.24h-.82a5,5,0,0,1-3.53-4.12c-1-4.23-1.86-8.48-2.8-12.71-.28-1.29-.55-2.57-.88-3.84-.08-1-.67-.88-1.37-.73-4.4,1-8.79,1.94-13.19,2.88-1.39.3-2.8.69-4.21,0C126,43.6,125,41.74,125.5,39.5a4.55,4.55,0,0,1,3.81-3.66l20-4.36c1.17-.25,2.33-.53,3.51-.74.79-.15,1.2-.39.86-1.32a5.17,5.17,0,0,1-.21-2.84A4.77,4.77,0,0,1,158.88,23c.74.14,1.46.34,2.19.51a5.53,5.53,0,0,1,2.06,3.5c.19,1.43,1.25.82,2,.86a33.84,33.84,0,0,0,5.74-1.11c5.54-1.18,11.08-2.38,16.59-3.66,1.92-.44,3.68.24,5.5.43-.26.33-.6.28-1,.19,2.73,1.57,2.69,6.22,0,8a8.32,8.32,0,0,1-2.79,1c-4.57,1-9.13,2-13.69,3-1.27.27-1.26.28-1,1.6,1.19,5.34,2.32,10.69,3.53,16a7.63,7.63,0,0,1,.12,2.38A4,4,0,0,1,175.46,59.32Z" transform="translate(-18.72 -19.63)"/><path class="cls-8" d="M122.39,123.39c-2-3.49-.75-7-.1-10.52,1.24-6.81,2.53-13.61,3.75-20.43.64-3.62,4-5.62,6.9-4.09a5.75,5.75,0,0,1,2.65,3.38,3.45,3.45,0,0,1,.06,2.33c-1.46,7.92-2.83,15.86-4.31,23.77a22.23,22.23,0,0,1-.58,2.81,5.06,5.06,0,0,1-7.13,3.1A2,2,0,0,0,122.39,123.39Z" transform="translate(-18.72 -19.63)"/><path class="cls-7" d="M151.91,118.59c.05-.3.18-.41.49-.25a5,5,0,0,0,3.5.26c14-3.09,28.06-6.11,42.08-9.24,5.83-1.3,8.9-6.21,7.73-12.1-.57-2.92-1-5.93-2.86-8.41a8.59,8.59,0,0,1,5.2,6,48.37,48.37,0,0,1,1.37,6.43c.72,4.87-2.82,9.82-8,11-14.62,3.26-29.27,6.43-43.91,9.62A4.66,4.66,0,0,1,151.91,118.59Z" transform="translate(-18.72 -19.63)"/><path class="cls-8" d="M133,68.2c-.23-.27-.46-.55-.7-.81a4.49,4.49,0,0,1-.76-5.6,44.15,44.15,0,0,0,4.83-13.92,21.72,21.72,0,0,1,1.16-2.76,4,4,0,0,1,3-1.47,5.34,5.34,0,0,1,1.91.06,6.12,6.12,0,0,1,2.94,1.89c1.2,2.23.68,4.47.15,6.75a64.42,64.42,0,0,1-5,13.58,5.56,5.56,0,0,1-2.41,2.59C136.4,69.43,134.64,69.59,133,68.2Z" transform="translate(-18.72 -19.63)"/><path class="cls-8" d="M183.14,35.09l3.61,1.14c.16,1.15,1.19,1.64,1.91,2.3,2.17,2,4.33,4,6.44,6.06,1.05,1,2.26,1.89,3.24,3a4.77,4.77,0,0,1-1.05,7.51,6.15,6.15,0,0,1-2.6.79c-2.32-.46-3.88-2-5.49-3.6-3-2.91-6.08-5.75-9.1-8.65-2.51-2.4-2.46-5,.08-7.44.13-.13.35-.24.08-.45A2.63,2.63,0,0,1,183.14,35.09Z" transform="translate(-18.72 -19.63)"/><path class="cls-7" d="M153.39,93.87c-.8.52-1.33.39-1.54-.61s-.37-1.71-.59-2.56.1-1.43,1.12-1.65c7.67-1.64,15.34-3.33,23-5,5.42-1.18,10.83-2.34,16.24-3.57a10,10,0,0,0,7.76-12.32c-.24-1.13-.53-2.25-.77-3.38a10.13,10.13,0,0,0-3.47-5.7,2.11,2.11,0,0,1,1.36.31,10.23,10.23,0,0,1,5.17,6.31,45.06,45.06,0,0,1,1.14,5.25,10.24,10.24,0,0,1-8.11,11.65l-39.62,8.65C152.9,91.71,152.89,91.7,153.39,93.87Z" transform="translate(-18.72 -19.63)"/><path class="cls-8" d="M120.23,81.87c-2-3.33-2.06-7.22-3.06-10.84-.34-1.23-.55-2.49-.79-3.74a4.52,4.52,0,0,1,2.41-5.11,4.72,4.72,0,0,1,5.79,1.06,5,5,0,0,1,1.23,2c1,3.08,1.45,6.29,2.19,9.42a20.71,20.71,0,0,1,.53,2.58,4.76,4.76,0,0,1-2.39,5.07,4.84,4.84,0,0,1-5.61-.24A1.89,1.89,0,0,0,120.23,81.87Z" transform="translate(-18.72 -19.63)"/><path class="cls-8" d="M114.64,55c-1.83-1.87-1.88-4.4-2.46-6.72-.62-2.51-1.12-5-1.66-7.58a4.66,4.66,0,0,1,2.72-5.61A4.91,4.91,0,0,1,119.3,37a5.16,5.16,0,0,1,1,2.27c.77,3.63,1.65,7.23,2.33,10.88a5.07,5.07,0,0,1-6.2,5.79A4.61,4.61,0,0,1,114.64,55Z" transform="translate(-18.72 -19.63)"/><path class="cls-7" d="M145.5,101.09c.11,0,.27,0,.34,0,3.36,2.79,7.11,2.65,11.11,1.75,12.41-2.8,24.84-5.46,37.26-8.2.86-.19,1.29.09,1.46.92.13.62.29,1.24.43,1.86L160,105.37c-1.33.29-2.65.61-4,.84A10.29,10.29,0,0,1,145.5,101.09Z" transform="translate(-18.72 -19.63)"/><path class="cls-7" d="M140.12,75.88c0-.06.13-.17.15-.16,2.64,1,5.11-.13,7.59-.66,13.28-2.85,26.55-5.81,39.82-8.71.54-.12,1.27-.47,1.63.19s.72,1.2.06,1.82L162.14,74.3c-5.57,1.21-11.13,2.46-16.7,3.65A4.7,4.7,0,0,1,140.12,75.88Z" transform="translate(-18.72 -19.63)"/><path class="cls-7" d="M183.14,35.09a13.66,13.66,0,0,0-2.88.66l-2.09.46c-1.78.39-1.76.38-1.36,2.2q1.81,8.28,3.63,16.54a6.4,6.4,0,0,1-.15,3.39,29.54,29.54,0,0,1-4.83,1c2.4-1.61,2.78-3.82,2.14-6.5-1.25-5.27-2.35-10.58-3.54-15.87-.21-.91-.06-1.28,1-1.49,4.77-1,9.51-2.06,14.26-3.07,2.06-.43,3.68-1.33,4.32-3.47.53-1.81-.11-3.59-1.94-5.33l1.31-.07a4.73,4.73,0,0,1,3.9,4.75A4.6,4.6,0,0,1,193,32.92C189.75,33.67,186.44,34.37,183.14,35.09Z" transform="translate(-18.72 -19.63)"/><path class="cls-7" d="M144.07,82a14.3,14.3,0,0,0-4.33,8.82c-2.24-3.29-5.12-4.69-8.8-4.28-.22-.41.15-.52.3-.7A8.54,8.54,0,0,0,133.08,78c-.43-1.69-.75-3.41-1.19-5.5a6.63,6.63,0,0,0,3.39,1.69c.44.06.45.43.5.71C136.66,79.3,139.59,81.37,144.07,82Z" transform="translate(-18.72 -19.63)"/><path class="cls-7" d="M122.39,123.39c.08-.31-.07-1,.6-.43,2.83,2.25,7.09.52,7.74-3.42,1.46-8.83,3.14-17.63,4.72-26.44.08-.45.09-.91.14-1.37a4.23,4.23,0,0,1,1.33,4.1Q134.48,109.41,132,123a4.82,4.82,0,0,1-4.6,4.25A4.68,4.68,0,0,1,122.39,123.39Z" transform="translate(-18.72 -19.63)"/><path class="cls-7" d="M123.34,59.58c3.77-2.84,4.66-6.37,3.34-10.72A15,15,0,0,0,130,50a5.37,5.37,0,0,0,2.95-.1c.93-.28,1.08-.07.86.84a46.84,46.84,0,0,1-3.57,9.61c-.4.8-.83,1.6-1.26,2.44A8.42,8.42,0,0,0,123.34,59.58Z" transform="translate(-18.72 -19.63)"/><path class="cls-7" d="M194.69,55.89c.11-.33.4-.34.67-.39a4.53,4.53,0,0,0,3.86-3.3,4.39,4.39,0,0,0-1.45-4.75c-3.6-3.39-7.22-6.76-10.82-10.15a4.71,4.71,0,0,1-.6-.58c-.55-.71.28-.31.4-.49a4.24,4.24,0,0,1,2.38,1.26l11.69,11c2.16,2,2.49,4.7.84,6.7A5,5,0,0,1,194.69,55.89Z" transform="translate(-18.72 -19.63)"/><path class="cls-7" d="M133,68.2c1.31.49,2.6,1,4,.46a5.26,5.26,0,0,0,3-2.55,62.48,62.48,0,0,0,5.62-16.23,5.25,5.25,0,0,0-.48-3.59c-.11-.21-.43-.45,0-.69.67-.16,1.05.28,1.39.72A5.66,5.66,0,0,1,147.85,51a61.26,61.26,0,0,1-4.68,14.46,2.89,2.89,0,0,1-.81,1l-1.56.55a5,5,0,0,0-3,3.54A5,5,0,0,1,133,68.2Z" transform="translate(-18.72 -19.63)"/><path class="cls-9" d="M120.23,81.87c.36-.39.55,0,.78.18a4.71,4.71,0,0,0,5.19-.14,4.3,4.3,0,0,0,2-4.75c-.72-3.58-1.54-7.14-2.3-10.72-.08-.38-.39-.79-.08-1.21.87.39.93,1.26,1.1,2,.86,3.84,1.68,7.7,2.51,11.56a4.78,4.78,0,0,1-3.1,5.83A4.72,4.72,0,0,1,120.23,81.87Z" transform="translate(-18.72 -19.63)"/><path class="cls-10" d="M114.64,55c1.47.51,2.9,1,4.51.46a4.58,4.58,0,0,0,3.14-5.34c-.83-3.93-1.69-7.86-2.55-11.78A13.28,13.28,0,0,0,119.3,37a3,3,0,0,1,1.45,2.21c.9,4.07,1.82,8.15,2.65,12.23a4.56,4.56,0,0,1-2.88,5.29A4.65,4.65,0,0,1,114.64,55Z" transform="translate(-18.72 -19.63)"/><path class="cls-10" d="M142.61,44a7.15,7.15,0,0,0-5.07,1.13c-1.75.37-3.49.77-5.24,1.11a4,4,0,0,1-3.93-1.08c3.53.23,6.82-1.08,10.21-1.7,2.51-.46,5-1.09,7.47-1.63,1.35-.3,1.35-.3,1.32,1.14A7.84,7.84,0,0,1,142.61,44Z" transform="translate(-18.72 -19.63)"/><path class="cls-10" d="M188.15,54.91c-1.21.28-2.2.49-3.19.75-.62.17-.62-.25-.71-.64-.31-1.42-.64-2.84-1.05-4.67Z" transform="translate(-18.72 -19.63)"/><path class="cls-11" d="M165.15,27.86c-1.71.86-2,.77-2.35-1a5,5,0,0,0-1.5-2.76c-.14-.13-.62-.23-.23-.6C163.53,23.93,164.75,25.51,165.15,27.86Z" transform="translate(-18.72 -19.63)"/><path class="cls-8" d="M103.27,182.84v1.28c0,7,0,14.08,0,21.11,0,1.47-.14,2.86-1.61,3.6a5.3,5.3,0,0,1-5.27.06,2.8,2.8,0,0,1-1.3-2.07,12.19,12.19,0,0,1-.22-2.26q0-23.2,0-46.42a4,4,0,0,1,2.6-4,4.55,4.55,0,0,1,4.77,1,3.57,3.57,0,0,1,1,2.82c0,6.55,0,13.11,0,19.67V179c.63,0,.87-.49,1.17-.8q11.13-11.17,22.22-22.39c1.27-1.28,2.67-2.11,4.49-1.47a4.86,4.86,0,0,1,3.34,4.16,4,4,0,0,1-1.53,3.47c-3.57,3.62-7.16,7.21-10.74,10.81-2.36,2.39-4.68,4.82-7.08,7.16-.72.7-.57,1.07,0,1.7,6.71,6.75,13.35,13.57,20.09,20.27a4,4,0,0,1,.27,5.69,3.94,3.94,0,0,1-5.64.8,13.51,13.51,0,0,1-1.93-1.61q-11.76-11.55-23.5-23.15a6.88,6.88,0,0,1-.76-1.07Z" transform="translate(-18.72 -19.63)"/><path class="cls-8" d="M46.58,182.39V160.32q0-6.39,6.43-6.41H73.16a15.94,15.94,0,0,1,16.18,14.55c.78,7.14-3.11,14-9.42,16.62a12.39,12.39,0,0,1-4.78.95c-6.32,0-12.63,0-19,0-1,0-1.29.22-1.28,1.25.05,5.55,0,11.11,0,16.67,0,.67-.08,1.35-.14,2a3.38,3.38,0,0,1-2.9,3.2,4,4,0,0,1-4.45-1.27,4.74,4.74,0,0,1-.85-3.06Q46.6,193.62,46.58,182.39Z" transform="translate(-18.72 -19.63)"/><path class="cls-8" d="M27.38,104.78a15.14,15.14,0,0,1,5.19-7.27c2.54-2,5.58-2.46,8.58-3.12Q59.09,90.45,77,86.55c5-1.09,10-2.35,15.09-3.21,5.45-.93,9.83,1.16,13.25,5.46,1.89,2.38,2.41,5.27,3.08,8.08,1.36,5.79,2.54,11.61,3.8,17.42a2.91,2.91,0,0,0,.2,1.57c0,.44.16.86.12,1.31a13.52,13.52,0,0,1-4.65,10.15,14.91,14.91,0,0,1-7.15,3.45l-52.5,11.48A14.08,14.08,0,0,1,31.45,132c-1.73-7.19-3.32-14.42-4.71-21.68A9.3,9.3,0,0,1,27.38,104.78Z" transform="translate(-18.72 -19.63)"/><path class="cls-8" d="M88.87,60.53l0-.76c-.21-.62-.1-1.31-.45-1.89l0-.24a10,10,0,0,0-.19-1.44,4.72,4.72,0,0,1,5.74-5.71A4.43,4.43,0,0,1,97.42,54c.87,3.28,1.55,6.61,2.22,9.94,0,.23.12.46.17.69-.14,1,.16,1.89,0,2.83A12,12,0,0,1,96.18,76a14.41,14.41,0,0,1-7.32,4.13Q63.41,85.77,37.92,91.32c-2.58.56-5.19,1-7.72,1.71a5.12,5.12,0,0,1-6.34-5.55c.69-6.31,1.28-12.63,1.91-19Q26.39,62.21,27,55.9a5.41,5.41,0,0,1,.6-2.17c.38-.41.74-.83,1.14-1.21A4.55,4.55,0,0,1,34,51.66a4.33,4.33,0,0,1,2.73,4.49c-.48,5.2-1,10.4-1.57,15.6-.32,3.22-.63,6.44-1,9.65-.11,1,.59.51.92.44,3.71-.78,7.41-1.59,11.11-2.4Q66.36,75,86.53,70.61A4.4,4.4,0,0,0,90,67.54c.43-1.27-.26-2.45-.44-3.66a10.69,10.69,0,0,1-.3-2C89.06,61.49,89.31,60.91,88.87,60.53Z" transform="translate(-18.72 -19.63)"/><path class="cls-7" d="M27.38,104.78c-1.32,5.31.84,10.24,1.77,15.29.71,3.88,1.63,7.73,2.54,11.57a13.81,13.81,0,0,0,16.49,10.29q26.59-5.82,53.2-11.6a14.06,14.06,0,0,0,11-13.18.24.24,0,0,1,.41,0,13.92,13.92,0,0,1-10.45,16.66C83.94,138,65.49,142,47,145.91a14,14,0,0,1-16.89-11c-1.59-6.92-3.07-13.87-4.53-20.82a13.55,13.55,0,0,1,1.18-8.64C26.93,105.21,27.05,104.9,27.38,104.78Z" transform="translate(-18.72 -19.63)"/><path class="cls-7" d="M27.62,53.73Q27,60,26.34,66.35c-.45,4.44-.91,8.89-1.35,13.34-.27,2.7-.52,5.4-.78,8.1a4.49,4.49,0,0,0,5.44,4.95Q46,89.2,62.39,85.61c9-2,17.94-3.87,26.88-5.92A13.59,13.59,0,0,0,99.66,67.48c.27-.26-.21-.85.41-1,.65,7.82-3.82,13.9-11.6,15.62-19.9,4.4-39.83,8.71-59.73,13.13a5,5,0,0,1-6.22-5.51c1.05-8.6,1.79-17.24,2.65-25.87.24-2.42.47-4.85.74-7.27A3.89,3.89,0,0,1,27.62,53.73Z" transform="translate(-18.72 -19.63)"/><path class="cls-12" d="M100.07,66.52c-.36.22-.09.72-.41,1a7.3,7.3,0,0,1,.15-2.87C99.83,65.25,100.22,65.85,100.07,66.52Z" transform="translate(-18.72 -19.63)"/><path class="cls-13" d="M88.38,57.88c.58.53.44,1.23.45,1.89A3.88,3.88,0,0,1,88.38,57.88Z" transform="translate(-18.72 -19.63)"/><path class="cls-14" d="M112.79,117.15h-.41c0-.48,0-1,0-1.44.06-.08.11-.08.17,0Z" transform="translate(-18.72 -19.63)"/><path class="cls-15" d="M88.14,56.2c.21.46.51.91.19,1.44C88,57.2,88.11,56.69,88.14,56.2Z" transform="translate(-18.72 -19.63)"/><path class="cls-16" d="M88.87,60.53c.8.27.27.94.43,1.4A3,3,0,0,1,88.87,60.53Z" transform="translate(-18.72 -19.63)"/><path class="cls-17" d="M112.54,115.72h-.17a1.12,1.12,0,0,1-.11-1.41C112.35,114.77,112.45,115.24,112.54,115.72Z" transform="translate(-18.72 -19.63)"/><path class="cls-8" d="M217.76,182.1c0,5.74-.72,11.33-3.67,16.39a21.52,21.52,0,0,1-12.22,10c-5.7,1.84-10.76.29-15.4-3.22-3.69-2.79-5.5-6.76-6.55-11-1.94-7.89-2.38-15.94-.08-23.8s7.43-13.41,15.91-14.55c7.08-1,12.93,1.73,17.18,7.57,2.76,3.78,3.87,8.18,4.52,12.73A39.55,39.55,0,0,1,217.76,182.1Z" transform="translate(-18.72 -19.63)"/><path class="cls-18" d="M157.28,168.7l-7.46,7.39c-1.76,1.75-3.61,1.75-5.57,0s-2.25-4-.64-5.81c.83-1,1.78-1.84,2.69-2.73,3.65-3.59,7.37-7.11,10.93-10.79a4.86,4.86,0,0,1,5.75-1.32,5,5,0,0,1,3.3,5.08c0,4,0,8.08,0,12.11q0,16.08,0,32.15c0,1.81-.36,3.39-2.15,4.18a5.37,5.37,0,0,1-5.46-.51,3,3,0,0,1-1.24-2.36c-.07-1.08-.16-2.16-.16-3.23q0-16.38,0-32.75Z" transform="translate(-18.72 -19.63)"/><path class="cls-4" d="M164.9,39.11q1.68,7.59,3.37,15.18c.11.5.21,1,.31,1.52a5.25,5.25,0,0,0,3.73,4,.47.47,0,0,1-.39.4l-9.46,2C162,55.3,159.81,48.76,158.57,42c-.3-1.67-.23-1.8,1.44-2.2,1.16-.28,2.33-.53,3.5-.78A1.61,1.61,0,0,1,164.9,39.11Z" transform="translate(-18.72 -19.63)"/><path class="cls-4" d="M142.61,44l4.76-1A54.48,54.48,0,0,1,149,49.87c.71,3,1.37,6.06,2,9.1a5.66,5.66,0,0,0,3.26,4.42c.2.1.47.16.32.49-4,1-8.1,2-12.22,2.64a63.27,63.27,0,0,0,4.9-14.3,7.85,7.85,0,0,0,.31-3.19,4.73,4.73,0,0,0-2.35-3.43Z" transform="translate(-18.72 -19.63)"/><path class="cls-19" d="M164.9,39.11c-1.78.39-3.56.83-5.36,1.15-.8.14-.93.38-.76,1.16,1.29,5.74,2.5,11.5,3.78,17.24a6.51,6.51,0,0,1-.1,3.53,28.25,28.25,0,0,1-4.28,1q-.1-.09-.06-.18c0-.05,0-.08.07-.08a4.61,4.61,0,0,0,2.22-5.44c-1.21-5.57-2.41-11.15-3.66-16.71-.2-.91-.13-1.33.92-1.51,2-.34,3.91-.79,5.84-1.29C164.64,37.67,165,38.11,164.9,39.11Z" transform="translate(-18.72 -19.63)"/><path class="cls-20" d="M172.39,59.76c.75-.44,1.57-.12,2.36-.22C174,59.84,173.23,60.33,172.39,59.76Z" transform="translate(-18.72 -19.63)"/><path class="cls-21" d="M155,63.41l2.19,0c-.51.38-1.15.28-1.71.47C155.4,63.66,155,63.83,155,63.41Z" transform="translate(-18.72 -19.63)"/><path class="cls-22" d="M155,63.41l.48.44-.94,0-.32-.49Z" transform="translate(-18.72 -19.63)"/><path class="cls-23" d="M158.19,62.91v.26c-.26.34-.64.17-1,.22C157.47,63.07,157.87,63.08,158.19,62.91Z" transform="translate(-18.72 -19.63)"/><path class="cls-4" d="M64.46,177.6c-2.84,0-5.67,0-8.51,0-.77,0-1-.21-1-1,0-4,0-7.92,0-11.88,0-1.71.79-2.48,2.5-2.49,5.36,0,10.72,0,16.08,0,3.83,0,6.52,2.46,7.25,6.48a7.3,7.3,0,0,1-4.66,8.14,10.42,10.42,0,0,1-3.86.73Z" transform="translate(-18.72 -19.63)"/><path class="cls-7" d="M45.17,132.55a2.06,2.06,0,0,1-1.92-.29,2.12,2.12,0,0,1-.68-1.36c-1.28-5.73-2.5-11.47-3.77-17.2l-.09-.47c-.34-1.87.1-2.56,2-3,2.72-.62,5.46-1.19,8.19-1.79Q70.6,103.72,92.31,99a8.94,8.94,0,0,1,1.53-.28c.72,0,1.36.12,1.6.93-.15.88-1,.87-1.56,1.08A49.25,49.25,0,0,0,64.29,127.8c-.12.28-.17.62-.48.79l-.94.35c-.46.21-1-.08-1.45.2l-.66.23c-.42,0-.84.14-1.26.17-.41.39-1,0-1.42.32l-.73.28c-.46.21-1-.08-1.43.2l-.73.28c-.46.21-1-.08-1.45.2l-.66.23c-.42,0-.84.14-1.26.17-.41.39-1,0-1.42.32l-.73.28c-.46.21-1-.08-1.43.2l-.73.28a4.06,4.06,0,0,1-1.1.09A1.43,1.43,0,0,1,45.17,132.55Z" transform="translate(-18.72 -19.63)"/><path class="cls-1" d="M63.81,128.59a22.86,22.86,0,0,1,2.87-6.15,49,49,0,0,1,22.7-20.32c1.93-.86,3.94-1.5,5.92-2.25.53.21.6.72.7,1.18,1.24,5.87,2.61,11.72,3.8,17.61.17.81.52,1.79-.68,2.22a3.88,3.88,0,0,1-1.71.31l-.38.25a9.44,9.44,0,0,1-1.76.24l-.4.24a18.65,18.65,0,0,1-2,.27l-1.41.46a9.39,9.39,0,0,0-1.5.25l-.64.22a9.44,9.44,0,0,1-1.76.24l-1.37.5a5.78,5.78,0,0,0-1.75.24l-.66.23c-.37,0-.72.17-1.09.14a5.34,5.34,0,0,1-1.12.25,4.28,4.28,0,0,1-1.69.33l-.72.28c-.53.1-1.08.18-1.62.24l-1.44.44c-.65,0-1.28.28-1.95.26h-.24a2.58,2.58,0,0,1-1.71.44l-.72.29c-.53.1-1.08.18-1.62.24l-1.44.44c-.37,0-.72.17-1.09.14a5.34,5.34,0,0,1-1.12.25,4.1,4.1,0,0,1-1.69.32A.83.83,0,0,1,63.81,128.59Z" transform="translate(-18.72 -19.63)"/><path class="cls-4" d="M98.93,120.81c.92-.36.78-1.12.63-1.82q-1.68-7.77-3.4-15.53c-.26-1.2-.57-2.39-.86-3.59s-.93-1-1.74-.84l-19.3,4.21-33.91,7.42c-1.41.31-1.71.71-1.41,2.08,1.42,6.51,2.87,13,4.31,19.52a3.42,3.42,0,0,1-2.33-2.53c-1.53-6.8-3-13.63-4.46-20.44a3.83,3.83,0,0,1,0-.83c.36-1.07,1.31-1.34,2.24-1.56,3.81-.93,7.65-1.71,11.47-2.54L93,95a4.92,4.92,0,0,1,5.49,2.17,3.79,3.79,0,0,1,.26.71c.17.33.36.65.15,1l.91,3.86a3.88,3.88,0,0,1,.29,1.16c0,.35-.1.71.19,1a3.88,3.88,0,0,1,.29,1.16,22.38,22.38,0,0,0,.91,4.36,3.88,3.88,0,0,1,.29,1.16,1.69,1.69,0,0,0,.25,1.24,9,9,0,0,1,.44,1.93c0,.35.07.71.14,1a4.08,4.08,0,0,1-3.48,5.2C98.93,121.12,98.89,121,98.93,120.81Z" transform="translate(-18.72 -19.63)"/><path class="cls-7" d="M98.48,97.44a5,5,0,0,0-5.65-2.1Q66,101.23,39.18,107.08a5.06,5.06,0,0,0-2.73,1.38,4.45,4.45,0,0,1,3.79-4.25c4-.89,8-1.76,12-2.64L88,93.78l4.66-1c3.23-.71,5.56.93,6,4.23C98.77,97.19,98.89,97.43,98.48,97.44Z" transform="translate(-18.72 -19.63)"/><path class="cls-24" d="M64.55,128.4a4.89,4.89,0,0,1,1.72-.43c.08.06.1.11.08.17s-.06.08-.08.08C65.71,128.4,65.18,128.86,64.55,128.4Z" transform="translate(-18.72 -19.63)"/><path class="cls-24" d="M72.23,126.72a5.39,5.39,0,0,1,1.71-.44A1.17,1.17,0,0,1,72.23,126.72Z" transform="translate(-18.72 -19.63)"/><path class="cls-25" d="M74.18,126.27a3.2,3.2,0,0,1,1.95-.26C75.5,126.24,74.9,126.65,74.18,126.27Z" transform="translate(-18.72 -19.63)"/><path class="cls-26" d="M79.91,125.05a4.7,4.7,0,0,1,1.72-.44c.08.06.1.11.08.17s0,.08-.08.08C81.07,125,80.54,125.51,79.91,125.05Z" transform="translate(-18.72 -19.63)"/><path class="cls-27" d="M87.59,123.36a2,2,0,0,1,1.76-.24C88.8,123.43,88.25,123.77,87.59,123.36Z" transform="translate(-18.72 -19.63)"/><path class="cls-28" d="M92.9,122.19a2.66,2.66,0,0,1,2-.27C94.24,122.21,93.63,122.6,92.9,122.19Z" transform="translate(-18.72 -19.63)"/><path class="cls-26" d="M95.27,121.68a2,2,0,0,1,1.76-.24C96.48,121.75,95.93,122.09,95.27,121.68Z" transform="translate(-18.72 -19.63)"/><path class="cls-29" d="M98.93,120.81l.23.21c-.57.22-1.12.64-1.75.17C97.86,120.85,98.44,121,98.93,120.81Z" transform="translate(-18.72 -19.63)"/><path class="cls-30" d="M84.47,124.1c.57-.23,1.09-.71,1.75-.24A3.18,3.18,0,0,1,84.47,124.1Z" transform="translate(-18.72 -19.63)"/><path class="cls-31" d="M77.57,125.57a2.29,2.29,0,0,1,1.62-.24C78.67,125.52,78.17,125.92,77.57,125.57Z" transform="translate(-18.72 -19.63)"/><path class="cls-31" d="M69.89,127.25a2.24,2.24,0,0,1,1.62-.24C71,127.2,70.49,127.6,69.89,127.25Z" transform="translate(-18.72 -19.63)"/><path class="cls-32" d="M102.5,114.77a4.77,4.77,0,0,1-.44-1.93C102.64,113.38,102.49,114.09,102.5,114.77Z" transform="translate(-18.72 -19.63)"/><path class="cls-33" d="M90,122.9c.47-.24.93-.54,1.5-.25A2,2,0,0,1,90,122.9Z" transform="translate(-18.72 -19.63)"/><path class="cls-34" d="M81.63,124.86v-.25l1.19-.23c.08,0,.11.09.08.13s-.05.07-.08.07A2.32,2.32,0,0,1,81.63,124.86Z" transform="translate(-18.72 -19.63)"/><path class="cls-34" d="M66.27,128.22V128l1.19-.23c.08,0,.11.09.08.13s-.05.07-.08.07A2.32,2.32,0,0,1,66.27,128.22Z" transform="translate(-18.72 -19.63)"/><path class="cls-35" d="M100.13,103.92a1.84,1.84,0,0,1-.29-1.16A.85.85,0,0,1,100.13,103.92Z" transform="translate(-18.72 -19.63)"/><path class="cls-36" d="M100.61,106.08a1.76,1.76,0,0,1-.29-1.16A.87.87,0,0,1,100.61,106.08Z" transform="translate(-18.72 -19.63)"/><path class="cls-35" d="M101.81,111.6a1.84,1.84,0,0,1-.29-1.16A.85.85,0,0,1,101.81,111.6Z" transform="translate(-18.72 -19.63)"/><path class="cls-37" d="M59.54,129.45c.42.11.78-.53,1.22-.08a1.29,1.29,0,0,1-1.23.21Z" transform="translate(-18.72 -19.63)"/><path class="cls-38" d="M59.54,129.45a.57.57,0,0,1,0,.13c-.4.5-1,.24-1.45.28C58.49,129.44,59.09,129.71,59.54,129.45Z" transform="translate(-18.72 -19.63)"/><path class="cls-39" d="M50.4,131.54c.41-.42,1-.15,1.46-.41v.13C51.45,131.76,50.89,131.5,50.4,131.54Z" transform="translate(-18.72 -19.63)"/><path class="cls-37" d="M51.85,131.26s0-.09,0-.13c.42.11.78-.53,1.22-.08A1.27,1.27,0,0,1,51.85,131.26Z" transform="translate(-18.72 -19.63)"/><path class="cls-40" d="M55.92,130.34c.43-.41.94-.23,1.43-.2C56.91,130.49,56.4,130.33,55.92,130.34Z" transform="translate(-18.72 -19.63)"/><path class="cls-41" d="M53.74,130.82c.43-.43,1-.19,1.45-.2C54.75,131,54.23,130.83,53.74,130.82Z" transform="translate(-18.72 -19.63)"/><path class="cls-41" d="M61.42,129.14c.44-.43,1-.19,1.45-.2C62.43,129.29,61.92,129.15,61.42,129.14Z" transform="translate(-18.72 -19.63)"/><path class="cls-42" d="M45.17,132.55l1.17-.23c.08,0,.11.08.08.12a.09.09,0,0,1-.08.06A.81.81,0,0,1,45.17,132.55Z" transform="translate(-18.72 -19.63)"/><path class="cls-40" d="M48.24,132c.43-.41.94-.23,1.43-.2C49.23,132.17,48.72,132,48.24,132Z" transform="translate(-18.72 -19.63)"/><path class="cls-33" d="M67.46,127.94v-.2c.34.07.64-.52,1,0A1.18,1.18,0,0,1,67.46,127.94Z" transform="translate(-18.72 -19.63)"/><path class="cls-33" d="M82.82,124.58v-.2c.34.07.64-.52,1,0A1.18,1.18,0,0,1,82.82,124.58Z" transform="translate(-18.72 -19.63)"/><path class="cls-41" d="M46.34,132.5v-.18l1.17,0C47.16,132.61,46.75,132.52,46.34,132.5Z" transform="translate(-18.72 -19.63)"/><path class="cls-43" d="M98.93,98.9l-.24-1c.08-.12.15-.12.22,0A.6.6,0,0,1,98.93,98.9Z" transform="translate(-18.72 -19.63)"/><path class="cls-44" d="M98.91,97.94h-.22l-.21-.5.21-.47C99,97.24,98.91,97.6,98.91,97.94Z" transform="translate(-18.72 -19.63)"/><path class="cls-4" d="M187,182.49c.18-3.86.13-7.76,1.68-11.42a13.1,13.1,0,0,1,6.25-6.7c3.17-1.63,6.08-.46,8.78,1.3,2.51,1.64,3.78,4.16,4.59,7,1.9,6.51,2.07,13-.39,19.39-1.61,4.16-4.3,7.33-8.9,8.26a7.42,7.42,0,0,1-7.93-3,23.48,23.48,0,0,1-3.83-10.35A24.18,24.18,0,0,1,187,182.49Z" transform="translate(-18.72 -19.63)"/><path class="cls-10" d="M163.12,43.73c-.18-.53.24-.44.52-.54.57-.19.57.23.65.57l1.5,6.76c.58,2.68,1.17,5.36,1.75,8,.08.38.39.84-.37,1s-.66-.27-.75-.65L163.18,44C163.17,43.89,163.14,43.81,163.12,43.73Z" transform="translate(-18.72 -19.63)"/><path class="cls-45" d="M147.84,63.52l1.24-3.31c.27,1.08.46,1.85.67,2.62.11.43-.09.55-.48.61S148.38,63.78,147.84,63.52Z" transform="translate(-18.72 -19.63)"/><path class="cls-1" d="M63.86,166.11c3.23,0,6.46-.05,9.7,0A3.41,3.41,0,0,1,77,168.75a3.64,3.64,0,0,1-1.51,4.2,4.59,4.59,0,0,1-2.47.8l-5.27,0a3.28,3.28,0,0,1-1-1.3c-1-1.7-1.83-3.54-2.74-5.32C63.77,166.8,63.58,166.46,63.86,166.11Z" transform="translate(-18.72 -19.63)"/><path class="cls-7" d="M63.86,166.11a50.8,50.8,0,0,0,3.54,7,6.27,6.27,0,0,1,.3.64c-2.75,0-5.5,0-8.25.05-.57,0-.76-.18-.75-.75,0-2.08,0-4.15,0-6.22,0-.55.14-.79.74-.77C60.91,166.09,62.38,166.09,63.86,166.11Z" transform="translate(-18.72 -19.63)"/><path class="cls-7" d="M205.86,181.43c0,4.1-.52,7.43-2.11,10.52a8.87,8.87,0,0,1-4,4.12c-2.47,1.2-4.7.63-6.07-1.74a19.8,19.8,0,0,1-2.8-9.42,48.43,48.43,0,0,1,.45-9.55,10.2,10.2,0,0,1,5-7.41,3.34,3.34,0,0,1,3-.27,7.53,7.53,0,0,1,4.83,4.47A25.75,25.75,0,0,1,205.86,181.43Z" transform="translate(-18.72 -19.63)"/></svg>