<svg id="圖層_1" data-name="圖層 1" xmlns="http://www.w3.org/2000/svg" viewBox="0 0 211.24 178.04"><defs><style>.cls-1{fill:#7d0a66;}.cls-2{fill:#d1d3d1;}.cls-3{fill:#e4abda;}.cls-4{fill:#d1d2d1;}.cls-5{fill:#bc81b0;}.cls-6{fill:#f7ecfe;}.cls-7{fill:#fefdfe;}.cls-8{fill:#fefefe;}.cls-9{fill:#d1d2d0;}.cls-10{fill:#d0d1d0;}.cls-11{fill:#fcfafc;}.cls-12{fill:#d0d0cf;}.cls-13{fill:#fcfbfc;}.cls-14{fill:#fdfdfd;}.cls-15{fill:#43d8fe;}.cls-16{fill:#fab862;}.cls-17{fill:#9c3c8a;}.cls-18{fill:#d5b8cc;}.cls-19{fill:#d999cd;}.cls-20{fill:#f8f3f7;}.cls-21{fill:#a66e9b;}.cls-22{fill:#651b07;}.cls-23{fill:#661c09;}.cls-24{fill:#651c08;}.cls-25{fill:#7c0a65;}.cls-26{fill:#a46897;}</style></defs><title>19</title><path class="cls-1" d="M158.17,201.36a5.26,5.26,0,0,1-1.89.24H115.2c-.47,0-1,0-1.43,0-2,.82-2.83.37-5-2.55-.24.23-.12.53-.15.78a2,2,0,0,1-2.17,2.08c-1.2.07-2.4,0-3.6,0-3.6,0-7.19,0-10.79,0-2.29,0-2.85-.58-2.86-2.83,0-.52,0-1,0-1.56,0-.74-.29-1.06-1.05-1.14-1.82-.18-1.81-.21-1.82,1.68,0,.88,0,1.76,0,2.63s-.54,1.65-1.54,1.65a104.13,104.13,0,0,1-10.89-.14,20.61,20.61,0,0,0-4.9.06,4.28,4.28,0,0,1-1.07.06c-1-.26-1.32-1.06-1.45-2a17.49,17.49,0,0,1-.06-2.4.93.93,0,0,0-1-1.07c-2.84-.34-3.57-1.13-3.58-4,0-4.95,0-9.9,0-14.85,0-1.4,0-2.8,0-4.21v-11c0-1.66,0-1.69-1.65-1.71-3,0-3.52-.88-2.18-3.56,1.05-2.11,1.15-2-1.17-2a13.53,13.53,0,0,1-1.8,0,2.39,2.39,0,0,1-2-3.42c1.21-2.74,2.59-5.4,4-8a2.66,2.66,0,0,1,2.3-1.33c3-.21,5.91-.1,8.86-.06a1.07,1.07,0,0,1,.75.32,42.54,42.54,0,0,0,5,0,16.62,16.62,0,0,1,8.23.16,2.34,2.34,0,0,1,1.45,2.42c.05,1.11,0,2.23,0,3.35,0,.69.21,1.15,1,1.27a9.36,9.36,0,0,1,1.34.49c1,.31,1.49-.12,1.21-1.14-.63-2.27-1.18-4.56-1.74-6.85s.45-3.79,2.86-3.85q5.39-.12,10.78,0c2,.05,2.77.78,3.32,2.67a13.22,13.22,0,0,1,.42,1.49,2.66,2.66,0,0,0,1.8,2.3,2.28,2.28,0,0,1,1.37,2.44c0,.37-.37,1,.31,1.09s.81-.42,1-.89c.7-1.91,1.2-3.89,1.85-5.82a3.19,3.19,0,0,1,2-2.26c1.75-.31,3.48.23,5.24.16a69.23,69.23,0,0,1,7.76-.27,1.4,1.4,0,0,0,1.09-.41,4.14,4.14,0,0,1,3-1c3.56,0,7.12-.05,10.68,0,2.57,0,3.63,1.13,3.66,3.69,0,2.39-.1,2.29,2.31,2.29,3,0,6,0,9,0,2.22,0,3.18.94,3.33,3.18a12.31,12.31,0,0,1,0,1.92c-.13,1.29,0,2.37,1.54,2.73.37.38.78.78.71,1.33-.46,3.8,1.06,7.47.7,11.25-.07.8.14,1.1,1,1.11s.75-.29.75-.82c0-2.72,0-5.44,0-8.16,0-3.6,0-7.2,0-10.8,0-2.2.84-3,3-3q21.84,0,43.67,0c2.14,0,3,.85,3,3,0,1.2,0,2.4,0,3.6,0,.55.05.85.75.88,1.62.06,1.9.4,1.9,2.05v6.12c0,1.71-.39,2.09-2.13,2.09-8.8,0-17.6,0-26.4,0-.46,0-1.22-.35-1.35.31a4.66,4.66,0,0,0,.07,2.59c.15.4.72.18,1.1.18h22.8c2.67,0,3.27.59,3.27,3.22,0,1.12,0,2.24,0,3.36,0,.56.08.85.77.88,1.74.07,1.88.25,1.88,2,0,7.44,0,14.88,0,22.32a2.72,2.72,0,0,1-1.14,2.45c-1.4,1.06-2.68,2.28-4,3.43a2.09,2.09,0,0,1-1.16.59c-3.75.15-7.52-.11-11.27.09-9.19.49-18.38.07-27.57.22-.32,0-.64,0-1,0a1.94,1.94,0,0,1-2-1.93A23.5,23.5,0,0,1,166,198c0-.68-.32-1-1-1a5.51,5.51,0,0,1-2.23-.37c-.58-.26-.89.11-1.17.53-.64.92-1.24,1.87-1.83,2.82A2.84,2.84,0,0,1,158.17,201.36Z" transform="translate(-11.04 -38.25)"/><path class="cls-1" d="M120.53,93.53a2.87,2.87,0,0,1-1.24-2.44c0-2,0-3.9,0-5.84-.14-1.65,1-2.18,2.27-2.53.05-.28-.14-.29-.27-.33a3,3,0,0,1-2.27-3.14c0-7,0-14,0-21,0-2,.86-2.87,2.72-3.16,6.25.5,12.5.06,18.75.23.16,0,0-.29,0-.14s0,0-.06,0a2,2,0,0,1-1.05.08H124.74a4.92,4.92,0,0,1-1.43-.12c-.81-.18-.77-.86-.74-1.43.06-1.09-.15-1.86-1.42-2a1.4,1.4,0,0,1-1.1-1.15,5.3,5.3,0,0,1-.5-2.32c0-2.08,0-4.16,0-6.24,0-2.41.93-3.37,3.32-3.37,11.92,0,23.84-.26,35.75.08,9.93.28,19.86.09,29.79.19s19.83,0,29.75,0c.32,0,.64,0,1,0,2.07.08,3.08,1,3.06,3,0,2.47.26,4.94-.31,7.4a16,16,0,0,0-.07,3.47c0,.5-.06,1.09-.66,1.09-.91,0-.78.57-.78,1.12q0,8.4,0,16.79c0,.4,0,.66.42.85a2.75,2.75,0,0,1,1.44,2.58c.3,3.8-.45,7.56-.41,11.35,0,.39-.12.76-.58.76-.9,0-.85.58-.85,1.21,0,5.44,0,10.88,0,16.32,0,.29-.15.61.28.81,1.35.6,1.48,1.83,1.57,3.1.27,3.56-.51,7.08-.41,10.63,0,.77-.4,1-1.14,1-1.2,0-2.4,0-3.6,0H163.81c-1.88,0-1.83,0-1.91-1.85,0-.53.5-1.55-.44-1.54-.69,0-.31,1-.33,1.53,0,1.78,0,1.78-2.48,1.9a2.4,2.4,0,0,1-1.61.33H128.42c-1.89,0-2.18-.22-2.66-2a2.7,2.7,0,0,0-1.33-1.88,3.41,3.41,0,0,1-1.67-2.37c-.51-2.09-1.07-4.18-1.55-6.28a1.83,1.83,0,0,0-1.15-1.52,2.06,2.06,0,0,1-1.24-1.89V98a2.18,2.18,0,0,1,2-2.06l.94-.22a.68.68,0,0,0,.56-.67.75.75,0,0,0-.53-.83C121.32,94,120.79,94,120.53,93.53Z" transform="translate(-11.04 -38.25)"/><path class="cls-1" d="M29,121c-3.31,0-6.63-.08-9.94,0a2,2,0,0,1-2-1.27c-1.72-3-4-5.7-5.26-9a6.42,6.42,0,0,1-.6-1.81,2.2,2.2,0,0,1,1.85-2.52c.85-.15,1-.55,1.1-1.34.26-4,.52-8,.92-12,.19-1.78-.48-3.46-.28-5.21.07-.54-.37-.49-.71-.57-1.92-.45-2.53-1.18-2.55-3.15,0-2.36,0-4.72,0-7.08,0-1.78.48-2.35,2.17-3,.24-.09.58-.1.58-.49,0-.54-.42-.35-.7-.41C11.7,72.8,11.06,72,11.05,70c0-2.2,0-4.4,0-6.6,0-2.58.86-3.44,3.44-3.46.28,0,.56,0,.83,0A25,25,0,0,1,18,59.88a25,25,0,0,1-2.68-.07c-1-.59-.44-1.53-.48-2.3s-.12-1.09-1-1.22c-1.63-.24-2.29-1.1-2.31-2.82,0-2.48-.05-5,0-7.44,0-1.89,1-2.83,3-2.84,4,0,7.92,0,11.88,0,1,0,1.3-.18,1.28-1.22-.07-2.89.81-3.74,3.66-3.74H48.85c2.68,0,3.55.83,3.47,3.52,0,1.12.21,1.47,1.4,1.45,3.84-.09,7.68,0,11.52,0,.74,0,1.66.41,2.15.09s.16-1.33.3-2q.38-2,2.91-2.1c1.36,0,2.72,0,4.08,0h36.48a6,6,0,0,1,1.78.2,2.32,2.32,0,0,1,1.65,2.89c-.31,1.11-.73,2.19-1.07,3.3-.08.24-.48.6.11.73,1,.22.71.87.5,1.48-.43,1.29-.86,2.57-1.3,3.85a7.63,7.63,0,0,1-1.15,3.86,1.73,1.73,0,0,1-1.74.83c-1.72,0-3.44,0-5.16,0h-14c-1.65,0-2.25.89-1.74,2.46a.74.74,0,0,0,.68.57,8.33,8.33,0,0,0,1.32.05h20.4c.87,0,1.79-.07,2.38.8a2.79,2.79,0,0,1,1,2.34c0,2.79.15,5.6-.06,8.38-.13,1.79-.25,3.57-.26,5.36a1,1,0,0,1-.67,1,2.73,2.73,0,0,1-1.83.38c-1.23.06-1.33.16-1.38,1.41,0,.44,0,.88,0,1.32,0,2.82-.26,5.66-.21,8.46.17,8.77.14,17.54.15,26.31a25.94,25.94,0,0,0-.2,3.94c0,1.69-.49,2.2-2.12,2.21q-7,.06-14,0c-1.66,0-2-.4-2.1-2.06a1.57,1.57,0,0,0-1.25-1.73c-1.48-.43-2-1.58-2-3,0-3.56,0-7.11,0-10.67V78.87c0,12.11,0,24.21,0,36.31,0,1.43-.06,2.87-.13,4.31-.06,1.28-.58,1.8-1.9,1.82-3.91.07-7.82,0-11.74,0a1.67,1.67,0,0,1-1.11-.37,42.37,42.37,0,0,0-5,0c-1.07,0-1-.86-1.07-1.55-.07-.48.23-1.25-.34-1.37s-.83.67-1,1.15c-.62,1.68-1.77,2.23-3.53,2.17-3-.12-5.91,0-8.87,0-1.85,0-2.23-.4-2.33-2.23a4,4,0,0,0-.09-.84.74.74,0,0,0-.83-.53c-.43,0-.49.35-.52.68s0,.8,0,1.2c-.08,1.23-.44,1.62-1.69,1.7-1.08.07-2.16,0-3.24,0-3.35,0-6.71-.07-10.06,0A2.93,2.93,0,0,1,32,119.2a2.12,2.12,0,0,0-.63-1.1c-.4.57-.22,1.22-.34,1.8C30.79,121,30.17,121.37,29,121Z" transform="translate(-11.04 -38.25)"/><path class="cls-2" d="M62.18,178.09l.06,14.59c0,.4,0,.8,0,1.2.11,2,.89,2.7,2.86,2.73s1.68-.32,1.7,1.74c0,.72,0,1.44,0,2.16s.26,1.43,1.13,1.63c.38.19.85-.1,1.22.2q0,4.38,0,8.76A4.79,4.79,0,0,1,64,216.24H34.43a4.77,4.77,0,0,1-5.15-5.14q0-7.74,0-15.48a16.65,16.65,0,0,0,3.49.65c.69,0,.9.58,1,1.19.06.83,0,1.68.06,2.51.11,1.36.44,1.71,1.78,1.72q7.5,0,15,0c1.42,0,1.62-.25,1.63-1.87,0-7.91,0-15.83,0-23.75a3.68,3.68,0,0,1,.26-2,.3.3,0,0,1,.4-.08,3.47,3.47,0,0,1,.32,2.1c0,1.52.09,1.59,1.66,1.6h5.76A2.21,2.21,0,0,1,62.18,178.09Z" transform="translate(-11.04 -38.25)"/><path class="cls-2" d="M69.16,202.34c-.41-.08-.86.12-1.22-.2H83.88c1.86,0,2.05-.21,2.06-2.08v-4.27a8.28,8.28,0,0,0,2.76.29c.67-.07.81.25.79.84,0,1,0,2,0,3a1.43,1.43,0,0,0,1.58,1.67q7.78,0,15.59,0a1.44,1.44,0,0,0,1.58-1.56c0-.71,0-1.42,0-2.29a6.28,6.28,0,0,1,1.51,2.11,2.86,2.86,0,0,0,3.19,1.75,4.76,4.76,0,0,1,.84,0c0,3.12-.07,6.23,0,9.35a5.05,5.05,0,0,1-5.28,5.31c-9.78-.11-19.57,0-29.35,0-3.37,0-5.22-1.88-5.22-5.29,0-2.51,0-5,0-7.54,0-.81-.2-1.16-1.07-1.11C71.64,202.38,70.4,202.34,69.16,202.34Z" transform="translate(-11.04 -38.25)"/><path class="cls-1" d="M52.58,174v25.78c0,2.24-.1,2.34-2.4,2.34H35.55c-1.74,0-2.09-.36-2.11-2.11,0-.12,0-.24,0-.36,0-.91.25-2-.13-2.71s-1.6-.18-2.43-.38a3,3,0,0,1-1.61-.95,6.64,6.64,0,0,1-.39-2.46c0-10.32,0-20.64,0-31,0-1.2-.34-1.56-1.47-1.39a9.68,9.68,0,0,1-1.32,0c-1.93,0-2.33-.69-1.45-2.47l1.51-3c-1.38,0-2.63,0-3.89,0-2.29,0-3.22-1.45-2.24-3.5,1.18-2.45,2.45-4.84,3.65-7.28a2.7,2.7,0,0,1,2.58-1.4c.92-.05,1.83,0,2.75-.06a2.16,2.16,0,0,1,1.59-.39H46.34a6.69,6.69,0,0,1,1.55.16,2.76,2.76,0,0,1,2.38,2.75c.08,1.08,0,2.16,0,3.24a1.27,1.27,0,0,0,1,1.42c1.46.5,1.5.86,1.57,2.39.13,3.36.08,6.71.1,10.07q0,4.8,0,9.59A2.51,2.51,0,0,1,52.58,174Z" transform="translate(-11.04 -38.25)"/><path class="cls-3" d="M73.92,121c4.35,0,8.7-.06,13.06,0,1,0,1.3-.35,1.35-1.33.49-8.57.26-17.15.3-25.72,0-5.07,0-10.14,0-15.21V77.39H89V87.62a27.83,27.83,0,0,0,0,5q0,10.66,0,21.31c0,2.31.44,2.89,2.73,3.43.58.14.52.49.55.87.15,2.67.15,2.67,2.86,2.67h13.17c1.45,0,1.51-.1,1.56-1.57s-.24-2.8.3-4.15c.14-1.79,0-3.59.06-5.38,0-5.24,0-10.47,0-15.7,0-.42-.14-.88.14-1.28C113,94,113.8,96,113.78,98.72q-.12,13.31,0,26.62a5.25,5.25,0,0,1-5.49,5.51q-14.5-.21-29,0a5.11,5.11,0,0,1-5.38-5.46C74,123.92,73.92,122.43,73.92,121Z" transform="translate(-11.04 -38.25)"/><path class="cls-3" d="M52.58,174q0-10.72,0-21.45c0-1.57-.26-1.92-1.83-2-.75,0-.83-.36-.81-1,0-1.16,0-2.32,0-3.48,0-2.2-.81-3-3-3H31.43c-.79,0-1.59,0-2.39,0v-2.4a4.87,4.87,0,0,1,4.88-5q15-.06,30.08,0a4.88,4.88,0,0,1,4.87,5c0,.8,0,1.6,0,2.4-2.87,0-5.75.07-8.62,0a3.38,3.38,0,0,0-3.58,2.17c-.93,2.11-2.07,4.14-3.1,6.21-1.19,2.4-.33,3.82,2.33,3.84h3.65c-.59,1.18-1.13,2.23-1.64,3.29-.7,1.45-.23,2.17,1.37,2.24.95,0,2.17-.44,2.77.21s.17,1.83.17,2.78c0,3.32,0,6.63-.06,9.94a1.17,1.17,0,0,1-.75.33,78,78,0,0,1-8.65-.09Z" transform="translate(-11.04 -38.25)"/><path class="cls-2" d="M118.82,104.85a2.64,2.64,0,0,0,2,1.82c.37,0,.44.3.52.65.58,2.49,1.2,5,1.82,7.45a2.46,2.46,0,0,0,1.91,2.07.87.87,0,0,1,.74.81c.1.5.31,1,.38,1.5.14,1,.69,1.35,1.72,1.34,9.79,0,19.59,0,29.39,0,.44,0,.88,0,1.32,0-.15,2.19.25,4.4-.24,6.57a4.75,4.75,0,0,1-4.67,3.72H123.51a4.61,4.61,0,0,1-4.7-4.48C118.78,119.16,118.81,112,118.82,104.85Z" transform="translate(-11.04 -38.25)"/><path class="cls-2" d="M29,121c1.63-.13,1.61-.14,1.72-1.86,0-.64-.16-1.7.4-1.8.71-.12.76,1,1,1.54,1.13,2.43.66,2,3.12,2.06,4.36,0,8.71,0,13.07,0,1.53,0,1.6-.08,1.6-1.65a2.8,2.8,0,0,1,0-.71c.14-.46-.4-1.32.42-1.32s1.74-.12,1.71,1.33c0,2.64-.1,2.34,2.46,2.35,3.12,0,6.23,0,9.35,0a1.64,1.64,0,0,0,1.83-1.15c.25-.66.65-1.27.94-1.93.21-.48.56-.49,1-.46s.43.48.44.81c0,.51,0,1,0,1.55a1.07,1.07,0,0,0,.76,1.21c0,1.6,0,3.2,0,4.79A4.72,4.72,0,0,1,64,130.56H33.89A4.66,4.66,0,0,1,29,125.75C29,124.15,29,122.55,29,121Z" transform="translate(-11.04 -38.25)"/><path class="cls-3" d="M158.17,201.36c1.33-1.6,2.27-3.46,3.46-5.16.31-.45.44-.79,1-.19.73.8,1.78.62,2.72.58.77,0,1.09.19,1,1s0,1.43,0,2.15c0,2.07.3,2.38,2.33,2.38l37.74,0c.48,0,1,0,1.43,0-.38.33-.84.18-1.26.18-3.2,0-6.4,0-9.59,0a1.71,1.71,0,0,0-1.72,1c-1.89,3.33-3.85,6.62-5.71,10-1.6,2.86-4.33,3.77-7.16,2.16-7.44-4.26-14.85-8.58-22.27-12.88Z" transform="translate(-11.04 -38.25)"/><path class="cls-2" d="M110.9,140.22a3.57,3.57,0,0,0-1.56,2.17c-.55,2-1.3,3.87-1.77,5.84-.29,1.23-1.19,1-1.93,1.08-.49.07-.25-.38-.22-.6.36-2.39.2-2.75-2-3.45-.51-.16-.59-.48-.69-.84-.29-1-.54-2-.81-3-.43-1.55-1.08-2.16-2.72-2.18-3.76-.05-7.52-.06-11.27,0-1.92,0-2.79,1.27-2.33,3.13.61,2.44,1.26,4.87,1.84,7.31.09.4.6,1,.05,1.24s-1.29.78-2,.08a1.3,1.3,0,0,0-1.08-.43c-1.23.17-1.24-.55-1.2-1.43,0-1,0-2.08,0-3.12,0-2.07-.81-2.89-2.91-2.93s-4.31,0-6.47-.06c.09-1.65-.31-3.34.68-4.89a4.68,4.68,0,0,1,4.1-2.29q15.12,0,30.23,0a4.79,4.79,0,0,1,4.65,4,2.67,2.67,0,0,1-1.72.09C111.48,139.92,111.15,139.88,110.9,140.22Z" transform="translate(-11.04 -38.25)"/><path class="cls-2" d="M110.9,140.22c.17-.35.29-.84.82-.52a3.31,3.31,0,0,0,1.86.18c1.44,0,2.88,0,4.32.05a1,1,0,0,0,1.14-.79,4.75,4.75,0,0,1,4.88-3.29H153.3a5,5,0,0,1,5.33,5.31c0,3.68,0,7.35,0,11-1.91-.19-1.91-.19-1.91-2.18,0-.88,0-1.76,0-2.64a2.43,2.43,0,0,0-2.77-2.69c-3.28,0-6.55,0-9.82,0-2,0-2,0-2-2a13.84,13.84,0,0,0,0-1.44c-.13-1.46-.79-2.36-2.18-2.39-4.31-.08-8.62,0-12.93,0a1.36,1.36,0,0,0-1.2.45c-.63,1-1.55.84-2.52.83C119.12,140.13,115,140.19,110.9,140.22Z" transform="translate(-11.04 -38.25)"/><path class="cls-3" d="M113.78,60.19a4.57,4.57,0,0,0-2.44-.49c-7.15,0-14.31,0-21.47,0-1,0-1.29-.22-1.26-1.24.06-2.53,0-2.54,2.51-2.54,6.23,0,12.47,0,18.71,0,1.06,0,1.61-.31,1.89-1.35a31.53,31.53,0,0,1,1.11-3,4.7,4.7,0,0,1,.92,3C113.77,56.46,113.77,58.32,113.78,60.19Z" transform="translate(-11.04 -38.25)"/><path class="cls-3" d="M110.43,92.82q0,10.49,0,21c0,.46.16,1-.17,1.39q0-11.39,0-22.78c0-4.72,0-9.43,0-14.15,0-.8.25-1,1-1s1.67,0,2.51,0c-.11,2.11.17,4.22-.15,6.32A4.54,4.54,0,0,1,111.17,87a1.27,1.27,0,0,0-.76,1.32C110.45,89.79,110.43,91.31,110.43,92.82Z" transform="translate(-11.04 -38.25)"/><path class="cls-3" d="M120.05,50.59a2.44,2.44,0,0,0,1.91,1c.75,0,.89.37.91,1s-.29,1.59.26,2.29c-.3.77-1,.11-1.48.46-1.71.34-2.31,1.16-2.31,3.33q0,10,0,20a5.15,5.15,0,0,0,.08,1c.3,1.61.78,2.08,2.38,2.39.32.06.79-.05.8.5s-.47.4-.78.44a2.63,2.63,0,0,0-2.49,2.19,8.77,8.77,0,0,1-.55-3.4q0-12.42,0-24.84C118.78,54.77,118.63,52.53,120.05,50.59Z" transform="translate(-11.04 -38.25)"/><path class="cls-4" d="M120.53,93.53c.31.1.61.21.92.28,1,.22,1.33.79,1.09,1.8-.12.54-.49.42-.83.44A2.92,2.92,0,0,0,118.83,98C118.55,96.16,119.41,94.8,120.53,93.53Z" transform="translate(-11.04 -38.25)"/><path class="cls-5" d="M15.32,59.81H18V60H15.32Z" transform="translate(-11.04 -38.25)"/><path class="cls-6" d="M186.67,145.21c7.12,0,14.24,0,21.36,0,1.15,0,1.38.36,1.33,1.4-.08,1.72-.08,3.45,0,5.16,0,1.06-.2,1.41-1.34,1.4-9.08,0-18.16,0-27.24,0-1.09,0-1.41.26-1.38,1.36q.1,5.1,0,10.2c0,1.07.23,1.41,1.37,1.41,9.08-.05,18.16,0,27.24-.06,1.13,0,1.36.32,1.36,1.39-.05,7.16,0,14.32,0,21.48a2.25,2.25,0,0,1-.91,2c-1.45,1.12-2.66,2.8-4.28,3.4s-3.63.18-5.47.18c-11.16,0-22.32,0-33.47,0-1.07,0-1.37-.26-1.32-1.32a53.49,53.49,0,0,0,0-5.52c0-.95.31-1.12,1.16-1.11,8.64,0,17.28,0,25.92,0,1.19,0,1.46-.32,1.44-1.46-.08-3.24-.09-6.49,0-9.72,0-1.21-.36-1.42-1.48-1.42-8.6.05-17.2,0-25.8.05-1,0-1.24-.26-1.24-1.25q.08-13.2,0-26.4c0-1,.32-1.22,1.28-1.22C172.35,145.22,179.51,145.21,186.67,145.21Z" transform="translate(-11.04 -38.25)"/><path class="cls-6" d="M157,178.1c-.82,2.1-1.59,4.06-2.33,6-.18.49-.54.5-.95.5-5.72,0-11.44,0-17.16,0-.94,0-.89-.49-.89-1.12,0-5,0-10.08,0-15.12,0-1.09-.31-1.36-1.35-1.3-1.63.08-3.27.06-4.91,0-.82,0-1.17.19-1.37,1.05-1.22,5.13-2.53,10.23-3.76,15.35-.2.84-.49,1.16-1.41,1.15-4-.06-7.91,0-11.87,0-.71,0-1.07-.18-1.26-.91-.42-1.58-.94-3.13-1.45-4.68-.21-.64-.27-1,.64-1s2.41.48,3.12-.21.64-1.91.89-2.92c.6-2.36,1.17-4.72,1.8-7.07.16-.61,0-.77-.57-.76-1.64,0-3.28,0-4.92,0-.85,0-1.22-.15-1.16-1.1a43.84,43.84,0,0,0,0-4.44c0-.84.22-1.06,1.06-1.06,5.48,0,11,0,16.43.05,1.16,0,1.39-.35,1.34-1.4-.09-1.51-.07-3,0-4.55,0-.9-.16-1.29-1.16-1.22a32.51,32.51,0,0,1-4.07,0c-.85,0-1.18.26-1.4,1.05-.62,2.2-.66,2.19-2.89,2.19-2.84,0-5.68,0-8.52,0-.66,0-1-.17-1.19-.84-.35-1.27-.78-2.52-1.22-3.76-.19-.53-.21-.92.48-.77,1.63.35,2.09-.61,2.44-1.93.55-2.08,1.28-4.12,1.87-6.19.19-.68.46-1,1.22-.95q5.22.06,10.43,0c.91,0,1,.27.72,1s-.49,1.77-.81,2.62,0,1,.72.91c1.07-.09,2.44.43,3.13-.2s.21-2,.22-3.1c0-2.58,0-2.58,2.64-2.58,3.12,0,6.24,0,9.36,0,.77,0,1,.19,1,1-.07,1.28,0,2.56,0,3.84,0,.83.2,1.09,1,1.08,4.16,0,8.32,0,12.48,0,.86,0,1.2.16,1.15,1.1a41.1,41.1,0,0,0,0,4.44c.05.87-.17,1.16-1.1,1.15-4.12-.06-8.24,0-12.36-.05-.89,0-1.27.15-1.22,1.16a40.38,40.38,0,0,1,0,4.92c0,1,.31,1.08,1.15,1.08,5.2,0,10.4,0,15.6-.05,1.11,0,1.33.33,1.27,1.34-.08,1.43,0,2.88,0,4.31,0,.74-.21,1-.95,1-2.39,0-4.79,0-7.19,0-.75,0-1.05.15-1,1,.06,3,.05,6.08,0,9.12,0,.79.29.91,1,.9C152.09,178.08,154.48,178.1,157,178.1Z" transform="translate(-11.04 -38.25)"/><path class="cls-6" d="M55.12,153.15c1.3-2.58,2.53-5,3.73-7.42a.91.91,0,0,1,1-.49c6.84,0,13.67,0,20.51,0,.75,0,.84.32.83.93,0,1.64,0,3.28,0,4.92q0,21,0,42.1c0,1-.18,1.35-1.28,1.33-4.76-.07-9.52-.06-14.27,0-1,0-1.27-.27-1.26-1.27,0-12.91,0-25.83,0-38.74,0-1.08-.25-1.42-1.37-1.38C60.48,153.21,57.92,153.15,55.12,153.15Z" transform="translate(-11.04 -38.25)"/><path class="cls-6" d="M103.43,173.62c0,6.39,0,12.79,0,19.18,0,.87-.18,1.15-1.11,1.14q-7.12-.08-14.26,0c-.86,0-1.08-.25-1-1.07.06-1.64,0-3.28,0-4.92,0-.56.16-.78.74-.75s1.44,0,2.16,0,1-.19.94-.93c0-2.44,0-4.88,0-7.32,0-5.91,0-11.83,0-17.74,0-.93-.21-1.23-1.18-1.21-2.66.05-2.66,0-2.66-2.66,0-1.12,0-2.24,0-3.36,0-.61.17-.84.81-.83,4.92,0,9.83,0,14.75,0,.89,0,.83.45.83,1Q103.43,163.91,103.43,173.62Z" transform="translate(-11.04 -38.25)"/><path class="cls-6" d="M103.62,187.23h54.6l-4.13,6.4c-.25.4-.63.28-1,.28H108.73c-.45,0-.82,0-1.12-.48C106.34,191.42,105,189.42,103.62,187.23Z" transform="translate(-11.04 -38.25)"/><path class="cls-6" d="M96.32,151.89c-1.76,0-3.51,0-5.27,0a.9.9,0,0,1-1-.83c-.71-3-1.45-5.89-2.24-8.81-.18-.68-.14-.91.63-.91q5.28.06,10.56,0a.92.92,0,0,1,1.06.82c.35,1.39.8,2.76,1.11,4.16.18.81.53,1.19,1.37,1,1-.21,1.13.27.85,1.1-.37,1.09-.17,2.66-1,3.22s-2.23.18-3.39.2C98.08,151.9,97.2,151.89,96.32,151.89Z" transform="translate(-11.04 -38.25)"/><path class="cls-3" d="M164.86,176.22c1.2-.28,1.67.16,1.5,1.41a13,13,0,0,0,0,2.16c0,1.47.46,1.9,2,1.9,6.83,0,13.66,0,20.5,0,.47,0,1.22-.32,1.39.28a5.18,5.18,0,0,1,0,2.25c-.09.46-.69.24-1.05.24H165.88c-3.66,0-4.1.44-4.1,4.14,0,1,0,2,0,3,0,.7-.23.9-.9.86-.91-.05-1.83,0-3.13,0a2.64,2.64,0,0,0,1.79-1.86c.6-1.64,1.28-3.26,1.9-4.9.52-1.37.37-1.71-.93-2.33,1.14-2.26,2.53-4.38,3.75-6.59A2,2,0,0,1,164.86,176.22Z" transform="translate(-11.04 -38.25)"/><path class="cls-7" d="M164.86,176.22c-1.24,2.2-2.47,4.42-3.72,6.62a2.71,2.71,0,0,1-.61.55h-3.26c.53-1.38,1-2.63,1.5-3.89.77-2.16-.17-3.5-2.48-3.55-.72,0-1.44,0-2.16,0-.37,0-.61-.07-.6-.52s.12-.66.61-.66c2.47,0,5,0,7.43,0,.21,0,.39,0,.51.21A2.85,2.85,0,0,0,164.86,176.22Z" transform="translate(-11.04 -38.25)"/><path class="cls-8" d="M52.76,174c.37-.35.84-.21,1.26-.22l8.14,0a25,25,0,0,1,0,4.33c-2.63,0-5.26-.06-7.88,0-1.16,0-1.7-.21-1.54-1.49A19.09,19.09,0,0,0,52.76,174Z" transform="translate(-11.04 -38.25)"/><path class="cls-9" d="M86,174.24V161.93l2.59.34a22.71,22.71,0,0,1,.11,4c0,2.51,0,5,0,7.54C87.87,174.67,86.9,174.35,86,174.24Z" transform="translate(-11.04 -38.25)"/><path class="cls-10" d="M88.53,174.05l0-11.78c.35.28.18.67.18,1,0,6.87,0,13.75,0,20.62,0,.82-.11,1.28-1.09,1.17a8.16,8.16,0,0,0-1.7.2v-7.19a1.15,1.15,0,0,1,.75-.31c1.47-.22,1.45-.22,1.49-1.76C88.23,175.34,88.06,174.64,88.53,174.05Z" transform="translate(-11.04 -38.25)"/><path class="cls-11" d="M130.31,185c.82-3.3,1.61-6.45,2.39-9.61.08-.31.08-.69.53-.63s.36.46.36.76c0,3,0,6,0,9,0,.47-.18.53-.54.52Z" transform="translate(-11.04 -38.25)"/><path class="cls-12" d="M108.28,174c0-1.31,0-2.63-.06-3.95,0-.88.47-.86,1-.81s1.37-.31,1.33.81,0,2.47,0,3.71A1.73,1.73,0,0,1,108.28,174Z" transform="translate(-11.04 -38.25)"/><path class="cls-13" d="M88.53,174.05c0,.95,0,1.9,0,2.84s-.21,1.34-1.17,1.21a9.62,9.62,0,0,0-1.42,0v-3.83A5.06,5.06,0,0,1,88.53,174.05Z" transform="translate(-11.04 -38.25)"/><path class="cls-14" d="M108.28,174a6.73,6.73,0,0,0,2.32-.24,1.61,1.61,0,0,1-.07,2c-.43.46-1.28.14-1.94.16-.33,0-.36-.24-.35-.49C108.25,175,108.26,174.49,108.28,174Z" transform="translate(-11.04 -38.25)"/><path class="cls-8" d="M143,58.31c-.81,2.12-1.65,4.23-2.41,6.37-.32.89-1,.68-1.59.61-1.08-.13-1.38.27-1.3,1.32a28.93,28.93,0,0,1,0,4c-.05.86.25,1,1.07,1,6.32,0,12.64,0,18.95,0,1,0,1.34.19,1.34,1.29q-.07,20.22,0,40.42c0,1-.25,1.26-1.25,1.26q-15.53-.06-31.06,0c-1,0-1.31-.28-1.5-1.18-.36-1.75-.79-3.5-1.31-5.22-.27-.92,0-1.07.85-1.06,5.68,0,11.35,0,17,0,1,0,1.27-.2,1.27-1.22q-.08-12.48,0-25c0-1-.25-1.26-1.25-1.25-6.28,0-12.55,0-18.83,0-.9,0-1.22-.16-1.21-1.15.05-6.6,0-13.2,0-19.8,0-.7.08-1.07,1-1.06,6.59,0,13.19,0,19.79,0a3.81,3.81,0,0,1,.47.07A.34.34,0,0,1,143,58.31Z" transform="translate(-11.04 -38.25)"/><path class="cls-8" d="M204,67.71c-1.41,1.34-2.63,2.47-3.8,3.64a2,2,0,0,1-1.58.63q-17.26,0-34.54,0c-.92,0-1.11-.26-1.11-1.14q.06-9.34,0-18.7c0-.86.25-1,1.07-1q26.44,0,52.89,0c.88,0,1,.29,1,1.09,0,6.23,0,12.47,0,18.7,0,.94-.28,1.12-1.15,1.11q-5.87-.08-11.75,0c-.81,0-1.15-.15-1.08-1S204,69,204,67.71Z" transform="translate(-11.04 -38.25)"/><path class="cls-8" d="M204,101c-1.37,1.32-2.53,2.39-3.63,3.52a2.33,2.33,0,0,1-1.8.73q-17.2,0-34.42,0c-1,0-1.18-.31-1.18-1.22q.06-9.24,0-18.47c0-.9.22-1.14,1.12-1.13q26.4,0,52.79,0c.8,0,1.08.15,1.08,1q-.06,9.36,0,18.71c0,.83-.2,1.08-1,1.07q-5.94-.06-11.87,0c-.86,0-1.11-.25-1.05-1.07S204,102.29,204,101Z" transform="translate(-11.04 -38.25)"/><path class="cls-8" d="M143,58.31v-.5c.5-.2.4-.63.4-1,0-2.16-.05-4.32,0-6.48,0-1-.31-1.11-1.17-1.1-6.32,0-12.64,0-19,0-1,0-1.41-.16-1.35-1.28.11-2,.06-4,0-6,0-.67.19-.89.89-.89q17.8,0,35.63,0c.72,0,.86.25.85.9q0,11.22,0,22.43c0,.79-.28.92-1,.92q-7,0-14,0c-.74,0-1-.2-.94-.94,0-1.72,0-3.44,0-5.16C143.42,58.91,143.73,58.38,143,58.31Z" transform="translate(-11.04 -38.25)"/><path class="cls-15" d="M190.38,81.6c-9.36,0-18.72,0-28.08,0-1.09,0-1.34-.3-1.28-1.33.08-1.63,0-3.27,0-4.91,0-.57.16-.83.74-.75.2,0,.4,0,.6,0q28.08,0,56.15,0c1.13,0,1.41.32,1.34,1.39a38.51,38.51,0,0,0,0,4.43c0,.93-.21,1.2-1.17,1.19C209.25,81.58,199.81,81.6,190.38,81.6Z" transform="translate(-11.04 -38.25)"/><path class="cls-16" d="M161.29,41.45c.4,0,.79-.09,1.19-.09h55.8c1.56,0,1.56,0,1.56,1.54,0,1.32-.09,2.65,0,4s-.36,1.43-1.47,1.41c-3.35-.08-6.72,0-10.08,0H162.61c-.46,0-1,.2-1.37-.2A43.79,43.79,0,0,1,161.29,41.45Z" transform="translate(-11.04 -38.25)"/><path class="cls-8" d="M190.31,114.51c-9.32,0-18.63,0-27.95,0-1.08,0-1.37-.29-1.29-1.33a25.77,25.77,0,0,0,0-3.83c-.09-1.13.21-1.48,1.41-1.47,9.71,0,19.43,0,29.14,0,9,0,17.92,0,26.87,0,1.09,0,1.37.3,1.3,1.34a29.07,29.07,0,0,0,0,4c.07,1-.2,1.34-1.29,1.33-7.36-.05-14.72,0-22.07,0Z" transform="translate(-11.04 -38.25)"/><path class="cls-8" d="M131.93,104.37c-3.2,0-6.4-.05-9.59,0-1,0-1.21-.31-1.16-1.21.07-1.27,0-2.56,0-3.84,0-.62.17-.84.8-.81,1.16,0,2.32,0,3.48,0,.61,0,.84-.17.83-.81,0-1.84,0-3.68,0-5.52,0-.66-.23-.82-.83-.79-.8,0-1.61-.07-2.4,0-1.22.16-1.48-.34-1.39-1.45a33,33,0,0,0,0-3.72c0-.61.15-.85.8-.82,1,0,2.08,0,3.12,0,.51,0,.74-.17.68-.69,0-.12,0-.24,0-.36,0-2.56,0-2.56,2.65-2.56s5.44,0,8.15,0c.81,0,1.11.17,1.1,1,0,2.53,0,2.56,2.61,2.56.81,0,1,.26,1,1-.05,1.39,0,2.79,0,4.19,0,.56-.16.84-.75.76a.24.24,0,0,0-.12,0c-.87,0-2-.38-2.54.17s-.16,1.74-.19,2.64c0,1.12,0,2.24,0,3.36,0,.76.26,1,1,.92a.48.48,0,0,1,.12,0c1.07,0,2.53-.36,3.12.18.76.7.23,2.19.25,3.33,0,2.32,0,2.32-2.29,2.32Z" transform="translate(-11.04 -38.25)"/><path class="cls-17" d="M121.65,55.41c.4-.47,1.11.08,1.48-.46a6,6,0,0,0,1.88.25c4.91,0,9.82,0,14.73,0a2,2,0,0,1,1.31.21Z" transform="translate(-11.04 -38.25)"/><path class="cls-18" d="M161.29,41.45c0,2.19,0,4.39,0,6.58A19.64,19.64,0,0,1,161.29,41.45Z" transform="translate(-11.04 -38.25)"/><path class="cls-19" d="M143.08,69.19c.27-.64.15-1.38.92-1.36.39,0,.24.52.22.8C144.19,69.5,143.59,69,143.08,69.19Z" transform="translate(-11.04 -38.25)"/><path class="cls-8" d="M32.13,76c0-1.24-.08-2.49,0-3.72s-.21-1.61-1.52-1.59c-5.32.09-10.64,0-16,.06-1,0-1.26-.3-1.22-1.27.08-2,.08-3.92,0-5.87,0-1,.18-1.32,1.22-1.28,2.35.09,4.71,0,7.24,0-1.09-2.77-2.14-5.43-3.18-8.09-.16-.42-.49-.34-.8-.34-1,0-2.08,0-3.12,0-.57,0-.86-.09-.85-.77,0-2.28,0-4.56,0-6.84,0-.81.43-.77,1-.77,4.68,0,9.36,0,14,0,.86,0,1.3-.17,1.13-1.1a1,1,0,0,1,0-.24c.09-1.15-.49-2.63.24-3.35s2.14-.18,3.25-.18c5.08,0,10.16,0,15.24,0,.88,0,1.21.19,1.12,1.11s.06,1.77,0,2.64.31,1.16,1.2,1.15c4.6,0,9.2,0,13.8,0,.89,0,1.16.21,1.13,1.12-.07,2.08-.05,4.16,0,6.24,0,.72-.09,1.07-1,1.05-1.27,0-2.82-.54-3.72.23s-1,2.21-1.41,3.36c-.59,1.56-1.18,3.12-1.83,4.82,2.54,0,4.93,0,7.31,0,.81,0,1.12.16,1.09,1q-.09,3.12,0,6.24c0,.89-.22,1.14-1.13,1.13-5.39-.05-10.79,0-16.19-.05-1.11,0-1.36.31-1.28,1.33a23.55,23.55,0,0,1,0,3.36c0,.82.27,1,1,1,5.28,0,10.56,0,15.84,0,1,0,1.29.26,1.25,1.25q-.12,3.06,0,6.12c0,.94-.28,1.11-1.15,1.1-5.23,0-10.47,0-15.71,0-1,0-1.26.27-1.25,1.26,0,9.24,0,18.47,0,27.71,0,.9-.16,1.23-1.16,1.22-4.56-.06-9.12,0-13.68,0a1.33,1.33,0,0,1-1.48-1c-.73-1.84-1.57-3.64-2.47-5.73a24,24,0,0,0-.43,5.19c0,1.19-.41,1.59-1.67,1.55-3.11-.11-6.23-.08-9.35,0a1.42,1.42,0,0,1-1.52-1c-.81-1.76-1.7-3.48-2.57-5.22a2.6,2.6,0,0,1,.35-.14c2.34-.18,2.35-.18,2.52-2.55.43-5.82.87-11.63,1.27-17.46,0-.79.27-1.08,1.12-1.07q5.22.08,10.44,0c1,0,1.21.24,1.13,1.19-.44,5.94-.82,11.88-1.28,17.82-.06.88,0,1.2,1,1.17,1.92-.06,1.93,0,1.93-1.88V85.72A91.93,91.93,0,0,1,32.13,76Z" transform="translate(-11.04 -38.25)"/><path class="cls-8" d="M91.43,71.48a25.89,25.89,0,0,0-4.74-.16c-.34,0-.5.19-.49.52s0,.64,0,1q0,20.46,0,40.92c0,1-.22,1.28-1.24,1.27-5.52-.06-11,0-16.56,0-.86,0-1.17-.16-1.15-1.1q.11-4.2,0-8.4c0-.93.28-1.14,1.15-1.1,1.61.06,1.61,0,1.61-1.66Q70,72.84,70,43c0-1,.2-1.41,1.35-1.41,13.24,0,26.48,0,39.72,0h1.23c-1,2.7-1.9,5.31-2.8,7.94-.23.67-.75.48-1.19.48-5.88,0-11.76,0-17.64,0-1.2,0-2.4,0-3.6,0-.65,0-.91.17-.9.88,0,3.4.06,6.8,0,10.2,0,1,.4,1.06,1.2,1.06,7.88,0,15.76,0,23.64,0,1.13,0,1.38.32,1.34,1.38-.08,2.32,0,4.64,0,7,0,.67-.16.9-.86.88-1.2,0-2.4,0-3.59,0-.37.57-1,.51-1.51.51-4.5,0-9,0-13.51,0C92.36,71.89,91.82,71.94,91.43,71.48Z" transform="translate(-11.04 -38.25)"/><path class="cls-16" d="M91.43,71.48c5.3,0,10.59,0,15.89,0a2.35,2.35,0,0,0,.57-.13,2.38,2.38,0,0,1,.11,1.18q0,20.57,0,41.14c0,1-.15,1.3-1.21,1.29-4.84-.06-9.68,0-14.51,0-.92,0-1.12-.26-1.12-1.14q0-20.64,0-41.26C91.21,72.22,91,71.78,91.43,71.48Z" transform="translate(-11.04 -38.25)"/><path class="cls-8" d="M66.47,108.64c-1,2.07-2,4-2.93,5.91-.2.41-.53.41-.9.41-3.52,0-7,0-10.56,0-.59,0-.71-.22-.74-.77q-.89-13-1.82-25.94c0-.58.16-.67.65-.67H61.45c.48,0,.69.11.73.66.38,5.22.79,10.43,1.19,15.65.09,1.24.23,2.47.24,3.71,0,.86.35,1.13,1.16,1C65.27,108.6,65.79,108.64,66.47,108.64Z" transform="translate(-11.04 -38.25)"/><path class="cls-15" d="M32.13,76c.27.12.27.37.27.6v8.48c0,.23,0,.48-.27.6-5.68,0-11.36,0-17,0-.9,0-1.23-.18-1.2-1.16.08-2.48.07-5,0-7.44,0-.87.26-1,1.07-1C20.69,76.08,26.41,76.05,32.13,76Z" transform="translate(-11.04 -38.25)"/><path class="cls-10" d="M64.85,91c.75-.54,1.58-.18,2.38-.23.47,0,.39.42.39.72l0,9.82c0,1.29-1.32.51-1.76,1.21-.35-3.34-.73-6.58-.79-9.85.78-.54,1.31.26,2,.39.25-1.58.21-1.63-1.27-1.77A1.27,1.27,0,0,1,64.85,91Z" transform="translate(-11.04 -38.25)"/><path class="cls-20" d="M64.85,91c3,0,2.6-.64,2.52,2.7-.79-.35-1.41-1.07-2.33-1A4,4,0,0,1,64.85,91Z" transform="translate(-11.04 -38.25)"/><path class="cls-21" d="M67.52,60.22c-1.38-.39-2.8-.11-4.19-.34h4.24Z" transform="translate(-11.04 -38.25)"/><path class="cls-8" d="M89,92.62a13.35,13.35,0,0,1,0-5Z" transform="translate(-11.04 -38.25)"/><path class="cls-6" d="M21.76,153.15c1.31-2.6,2.52-5,3.7-7.37a.9.9,0,0,1,.94-.54H47c.57,0,.83.17.76.75,0,.19,0,.4,0,.6q0,23.26,0,46.53c0,1.06-.22,1.41-1.35,1.39-4.75-.07-9.51-.06-14.27,0-1,0-1.19-.27-1.19-1.2,0-13,0-25.91.05-38.86,0-1.06-.25-1.35-1.32-1.32C27.14,153.21,24.54,153.15,21.76,153.15Z" transform="translate(-11.04 -38.25)"/><path class="cls-22" d="M200.76,55.68h.48c2.92,0,2.9,0,2.74,2.93,0,.47-.09.73-.65.72-1.76,0-3.51,0-5.27,0-.4,0-.59-.13-.55-.55a1.92,1.92,0,0,0,0-.24C197.39,55.68,197.39,55.68,200.76,55.68Z" transform="translate(-11.04 -38.25)"/><path class="cls-22" d="M200.74,67.73h-.47c-3.11,0-3.1,0-2.78-3.12,0-.5.23-.59.66-.58,1.71,0,3.42,0,5.13,0,.51,0,.76.15.69.68a.48.48,0,0,0,0,.12C204.1,67.73,204.1,67.73,200.74,67.73Z" transform="translate(-11.04 -38.25)"/><path class="cls-22" d="M180.24,59.33h-.48c-3,0-3,0-2.75-3.06.05-.47.19-.6.64-.6a36.64,36.64,0,0,1,5.14.07c1.48.23.35,1.62.61,2.45.12.39.37,1.2-.65,1.14C181.91,59.29,181.08,59.33,180.24,59.33Z" transform="translate(-11.04 -38.25)"/><path class="cls-22" d="M180.23,67.73h-.48c-3,0-3,0-2.74-3,0-.54.24-.66.72-.65q2.51,0,5,0c.5,0,.77.12.69.66v.12C183.57,67.73,183.57,67.73,180.23,67.73Z" transform="translate(-11.04 -38.25)"/><path class="cls-23" d="M200.76,101.05c-.2,0-.4,0-.6,0-.86-.07-2.17.39-2.48-.19-.44-.81-.14-2-.17-3,0-.46.27-.5.62-.49,1.72,0,3.44,0,5.15,0,.51,0,.76.17.69.69a.48.48,0,0,0,0,.12C204.1,101.05,204.1,101.05,200.76,101.05Z" transform="translate(-11.04 -38.25)"/><path class="cls-24" d="M180.25,101.05h-.47c-2.89,0-2.87,0-2.77-2.9,0-.6.15-.86.81-.85a42.3,42.3,0,0,1,4.78.06c1.75.25.5,1.77.81,2.67.21.62,0,1.15-.88,1A19.25,19.25,0,0,0,180.25,101.05Z" transform="translate(-11.04 -38.25)"/><path class="cls-22" d="M200.75,92.65h-.6c-2.89,0-3-.2-2.66-3.12.07-.54.34-.52.71-.52,1.67,0,3.35,0,5,0,.56,0,.74.16.76.74.15,2.91.16,2.91-2.76,2.91Z" transform="translate(-11.04 -38.25)"/><path class="cls-22" d="M180.24,92.65h-.48c-3.07,0-3,0-2.75-3,.05-.46.19-.61.64-.6a31.3,31.3,0,0,1,5.13.07c1.42.26.39,1.69.63,2.56.11.43.24,1.08-.66,1S181.08,92.65,180.24,92.65Z" transform="translate(-11.04 -38.25)"/><path class="cls-22" d="M34.12,54H45.89c-.74,2-1.47,3.89-2.19,5.8-1,2.54-1,2.54-3.72,2.54s-2.69,0-3.63-2.48C35.61,58,34.88,56,34.12,54Z" transform="translate(-11.04 -38.25)"/><path class="cls-25" d="M38.87,59.77a16.79,16.79,0,0,1-1.35-3.38c1.49,0,2.84,0,4.19,0,.79,0,.73.35.52.88-.34.84-.67,1.7-1,2.55A6.68,6.68,0,0,1,38.87,59.77Z" transform="translate(-11.04 -38.25)"/><path class="cls-26" d="M38.87,59.77l2.36,0A2.75,2.75,0,0,1,38.87,59.77Z" transform="translate(-11.04 -38.25)"/></svg>