<svg id="圖層_1" data-name="圖層 1" xmlns="http://www.w3.org/2000/svg" viewBox="0 0 232.75 190.84"><defs><style>.cls-1{fill:#8665c4;}.cls-2{fill:#f1bde7;}.cls-3{fill:#bb5ba8;}.cls-4{fill:#8765c4;}.cls-5{fill:#fbc255;}.cls-6{fill:#c7bbe2;}.cls-7{fill:#ebcfe5;}.cls-8{fill:#d497c8;}.cls-9{fill:#efecf7;}.cls-10{fill:#fefefe;}.cls-11{fill:#fdfdfd;}.cls-12{fill:#fcfcfd;}.cls-13{fill:#fefdfe;}.cls-14{fill:#bb5ba9;}.cls-15{fill:#b95baa;}.cls-16{fill:#ba5baa;}.cls-17{fill:#cb9edb;}.cls-18{fill:#d5a6de;}.cls-19{fill:#9d78cb;}.cls-20{fill:#fdfdfe;}.cls-21{fill:#f7f5fb;}.cls-22{fill:#fdfcfd;}.cls-23{fill:#f0bde7;}.cls-24{fill:#f6f3fa;}.cls-25{fill:#fcfbfd;}.cls-26{fill:#b88ed3;}.cls-27{fill:#efbde7;}.cls-28{fill:#ebb8e5;}.cls-29{fill:#bc64b0;}.cls-30{fill:#ac5eb1;}.cls-31{fill:#c599d9;}.cls-32{fill:#9b75cb;}.cls-33{fill:#9c76cb;}.cls-34{fill:#c672b7;}.cls-35{fill:#a780cf;}.cls-36{fill:#d58ac6;}.cls-37{fill:#8766c5;}.cls-38{fill:#e6b4e4;}.cls-39{fill:#e5b3e3;}.cls-40{fill:#b65dac;}.cls-41{fill:#b65cac;}.cls-42{fill:#e4b2e3;}</style></defs><title>7</title><path class="cls-1" d="M164.12,74.63c0-.53.08-1,.78-.87,1.08.19,1.2-.45,1.11-1.27-.45-4.46-.19-8.94-.23-13.41,0-5,0-10,0-15,0-.6.13-1.27-.84-1.17-.53.05-.55-.35-.54-.72.12-3.36-.4-6.69-.26-10,0-.75.2-1.05,1-1,1.87.05,3.76,0,5.64,0,15.95,0,31.91,0,47.87,0,1.21,0,1.59.29,1.52,1.52-.15,3,.37,6.05.23,9.09,0,.76,0,1.37-1.05,1.22-.72-.11-.78.37-.72.89a63.54,63.54,0,0,1,.23,7.17c0,4.68,0,9.36,0,14a10.87,10.87,0,0,1-3.09,8.28c-.08.07-.11.19-.24.45,1.34,0,2.56,0,3.78,0,.61,0,.86.21.83.84-.13,3.31.39,6.61.26,9.92,0,.77-.14,1.25-1,1.12-.71-.1-.73.35-.76.89-.07,1.4.29,2.75.28,4.16-.06,5.56-.08,11.12,0,16.68a11.47,11.47,0,0,1-3.46,9h2.68c2.05,0,2,0,2.06,2.1a8.79,8.79,0,0,0,.18,3.19c.21,2,0,4,.1,6,0,.49-.23.63-.66.62h-.84c-4.88,0-9.77-.27-14.63.05-12.35.8-24.71.3-37.07.45-3.22,0-3.19,0-3.24-3.24,0-2.47-.33-4.94-.24-7.42,0-1,.08-1.93,1.35-2.2.61-.12.57-.71.55-1.18-.47-9-.08-18.06-.21-27.09,0-.73,0-1.42-.84-1.79a1.19,1.19,0,0,1-.57-1.24c.07-2.88-.41-5.74-.27-8.62A2.2,2.2,0,0,1,164.12,74.63Z" transform="translate(-6.86 -29.72)"/><path class="cls-2" d="M187.69,185.52a32.63,32.63,0,0,1-3.65,5.15,72.45,72.45,0,0,1-7.06,7.8A82.83,82.83,0,0,1,159.83,211a77.91,77.91,0,0,1-32.58,9.38c-2.35.16-4.71.22-7,.17a78.93,78.93,0,0,1-46.34-16.36A77.35,77.35,0,0,1,56.5,185.67c-.75-1.13-1.38-2.32-3-2.26.51-.56,1.18-.4,1.8-.41h12.8a6.62,6.62,0,0,0,3-.63A4.74,4.74,0,0,0,74,177.93c0-2.27,0-4.54,0-6.81a3.85,3.85,0,0,1,.2-1.65,1.21,1.21,0,0,1,1.6-.41c.82.63.57,1.61.73,2.44.3,1.54.37,1.65,1.9,1.66,1.76,0,3.51,0,5.27,0s1.79-.17,1.83-1.76a4,4,0,0,1,.17-1.54.63.63,0,0,1,1-.22,1.69,1.69,0,0,1,.3,1.13c0,1.95,0,3.91,0,5.86,0,1.3-.45,1.7-1.75,1.79-.91.06-1.83,0-2.75,0s-1.25.35-1.24,1.22a23.91,23.91,0,0,0,.21,4.05,1.19,1.19,0,0,0,1.27,1.16c3.94,0,7.9.33,11.83-.2a4.85,4.85,0,0,0,4.42-5.1c0-2.59,0-5.19,0-7.78a2.53,2.53,0,0,1,.33-1.72,3.6,3.6,0,0,1,2.91,0,2.35,2.35,0,0,1,.36,1.71c0,2.64-.11,5.28,0,7.91.22,4.11.14,3.27,3.28,3.31,4,.05,8,0,12,0a6.25,6.25,0,0,0,3.73-1.11,4.59,4.59,0,0,0,2.09-3.84c0-1.92,0-3.83,0-5.75a3.71,3.71,0,0,1,.21-1.65,1.37,1.37,0,0,1,1.83-.36,2.62,2.62,0,0,1,.56,1.66,1.19,1.19,0,0,0,1.32,1.21H134c.9,0,1.3-.44,1.3-1.32a2.24,2.24,0,0,1,.31-1.49.71.71,0,0,1,.82,0,3.3,3.3,0,0,1,.3,2c0,1.39,0,2.79,0,4.19s-.44,1.82-1.88,1.9c-.88,0-1.76,0-2.64,0s-1.23.39-1.22,1.24a24.77,24.77,0,0,0,.19,3.94c.13.8.5,1.26,1.31,1.26,3.9,0,7.83.3,11.72-.19,2.9-.38,4.49-2.32,4.52-5.27,0-2.55,0-5.11,0-7.66a2.78,2.78,0,0,1,.28-1.63c1.11-.37,2.22-.76,3.35-.08a3.4,3.4,0,0,1,.2,1.64c0,3.31-.56,6.6-.49,9.9.1,4.09.19,3.56,3.33,3.55,1.66,0,3.35.28,5-.32a1.29,1.29,0,0,1,.82-.11,5.29,5.29,0,0,0,2.32.46c2.07,0,4.14,0,6.21,0a2.9,2.9,0,0,0,2.36-.91.46.46,0,0,1,.41.06,2.71,2.71,0,0,0,2.28.82c3.75,0,7.5-.12,11.25,0C186.56,185.18,187.19,185.05,187.69,185.52Z" transform="translate(-6.86 -29.72)"/><path class="cls-2" d="M164.12,74.63l.27,9.79c0,.64-.13,1.28.9,1.27.76,0,.49.7.49,1.12,0,3.87,0,7.75,0,11.63,0,4.55,0,9.11,0,13.66,0,1.11.13,2.22.23,3.33.06.69-.15,1.09-.92,1s-1,.29-1,1c-.14,3.39.38,6.77.26,10.16,0,.56.19.82.76.77a1.92,1.92,0,0,1,.24,0c11.23,0,22.46.13,33.68-.05,6.68-.1,13.34,0,20-.09,1,0,1.33-.24,1.28-1.26-.08-1.76,0-3.52,0-5.27.49,1.51.18,3.07.2,4.6,0,2.44.35,2.11-2,2.12h-17c-1.34,0-1.47.17-1.25,1.43a8.81,8.81,0,0,1,.28,1.88c-.12,2,.63,3.28,2.79,3.4a1.17,1.17,0,0,1-.87.32c-1.24.1-1.14.1-1.08,1.38a36.6,36.6,0,0,1,.27,6.28c-.24,3.1-.4,6.21-.82,9.3a2.07,2.07,0,0,1-.53,1.42c-.79.11-1-.43-.95-1,.09-1-.47-1.23-1.3-1.25-1.08,0-2.16,0-3.24,0s-1.35-.34-.8-1.41c1.74-3.37,3.25-6.86,5-10.21.67-1.25.32-2.38.26-3.58,0-.49-.52-.58-.92-.59-2.92-.05-5.83-.08-8.75,0-.88,0-1.32.64-1.67,1.36-1.21,2.52-2.35,5.07-3.66,7.55-.71,1.36-1.43,1.77-2.64,1.56a1,1,0,0,1-.94-.92,8.41,8.41,0,0,1-.07-2.5,16,16,0,0,0,0-5.6,1,1,0,0,0-1.08-1H153.88c-1.93,0-2.12.17-2.08,2.14,0,2.4.41,4.77.56,7.17.12,2.06.17,4.14.33,6.21.13,1.79.33,3.57.39,5.37-.06.46-.49.62-.77.89-.58.57-.49,1.31-.54,2s.17,1.38-.41,1.92a2.72,2.72,0,0,1-2.39-.11,2.22,2.22,0,0,1-.3-1.38c0-3.27,0-6.55,0-9.83a1.94,1.94,0,0,1,1.07-2.08,1,1,0,0,0,.58-1,17.27,17.27,0,0,0-.26-4.42,1,1,0,0,0-.48-.79,2,2,0,0,1-.9-2.06,25.44,25.44,0,0,0-.22-3.7c-.12-.81-.49-1.25-1.31-1.27-3-.06-6.07,0-9.11,0a1.19,1.19,0,0,0-1.32,1.34c0,1.32,0,2.64,0,4s-.33,1.58-1.58,1.6c-3.39.06-6.79,0-10.19,0a1,1,0,0,1-1.18-1.15c0-.72-.12-1.43-.19-2.15a1.24,1.24,0,0,0-1.5-1.27c-.64,0-1.28,0-1.92,0H104.66c-2,0-2,.06-2,2,0,6.79,0,13.59,0,20.38a3.38,3.38,0,0,1-.29,2,2.67,2.67,0,0,1-3.08-.22,2.93,2.93,0,0,1-.25-1.52c0-3.19,0-6.39,0-9.59,0-.93.12-1.75,1.09-2.19.47-.21.54-.66.57-1.11a17.71,17.71,0,0,0-.25-4.18,1.07,1.07,0,0,0-.43-.83c-1-.49-1-1.36-1-2.26a21.9,21.9,0,0,0-.25-3.71,1.13,1.13,0,0,0-1.18-1.1c-3.12-.09-6.23-.09-9.35,0-.85,0-1.16.56-1.18,1.36,0,1.32,0,2.64,0,4s-.34,1.56-1.6,1.59c-3.4.05-6.8,0-10.19,0-.76,0-1.11-.31-1.16-1a17.74,17.74,0,0,0-.13-1.79c-.24-1.66-.3-1.72-1.93-1.74H54.72c-1.66,0-1.78.12-1.78,1.76,0,6.08,0,12.15,0,18.23a3.88,3.88,0,0,1-.23,1.88,1.35,1.35,0,0,1-1.32.34c-2.38-.26-4.76-.4-7.13-.61-.49,0-1.08.06-1.34-.56,1.42-.83,1.4-.82,1.09-2.59a67,67,0,0,1-1.15-10.57c0-1.45-.15-1.54-1.58-1.48a1.41,1.41,0,0,1-1.23-.32c.46-.87,1.36-.69,2.08-.75.93-.09,1.23-.49,1.21-1.37-.07-2.17.11-4.35-.14-6.52a53.4,53.4,0,0,0,.72-6.18c.39-.46.94-.39,1.44-.4,1.48,0,3,0,4.44,0a10.87,10.87,0,0,0,11-11c0-7.67,0-15.34,0-23,0-.36,0-.72,0-1.08,0-1.55.29-1.83,1.83-1.84,3.11,0,6.23,0,9.35,0,1.69,0,1.71-.08,1.78-1.74.12-3-.3-5.9-.25-8.86,0-.91-.46-1.15-1.27-1.15-3.2,0-6.39,0-9.59,0-.51,0-1.23.24-1.43-.6,3.83,0,7.67,0,11.5,0a2.94,2.94,0,0,0,1.87-.64c1.06-.77,2.11-1.57,3.21-2.28a1.83,1.83,0,0,0,.91-1.76q0-20.39,0-40.75c0-.46-.21-1,.23-1.36a2.92,2.92,0,0,1,.37,2.08q0,17.27,0,34.55v51.83c0,2.16.37,4.31.25,6.47,0,.82.4,1.13,1.18,1.13H95.42c.8,0,1.18-.33,1.15-1.15,0-.43,0-.88,0-1.32V71.91c0-2.59.13-2.71,2.7-2.7,2.18,0,2.4.21,2.4,2.4v49.32c0,2.16.36,4.3.26,6.46,0,.76.37,1.08,1.1,1.08,4.52,0,9,0,13.56,0,.74,0,1.11-.33,1.09-1.09,0-.44,0-.88,0-1.32V71.36c0-1.82.16-2,1.94-2.14.86-.06,1.19-.43,1.18-1.27,0-1.52,0-3,0-4.56a1.88,1.88,0,0,1,.38-1.46c.3.27.33.79,1,.74,1.68-.14,3.33.37,5,.2.52.47.41,1.1.41,1.68,0,3.52.07,7,0,10.56-.07,3.21.27,6.39.26,9.59,0,.7.13,1.28,1,1.38a.42.42,0,0,1,.22.08c1.34,1.07.58,2.51.66,3.79.05.87-.66,1.06-1.4,1.14-1.39.14-1.37.16-1.42,1.62-.08,2.44.37,4.86.26,7.3,0,.74.31,1,1.06,1.15,1.37.17,1.51.37,1.56,1.75,0,.44,0,.88,0,1.32,0,1.92-.08,2-2,2.49a1.07,1.07,0,0,0-.9,1.2,30.8,30.8,0,0,0,.09,4c0,.24.08.47.09.71.13,4.63.8,9.22.77,13.85,0,1.47.11,1.58,1.57,1.58,7.08,0,14.16,0,21.24,0,3.6,0,6.66-1.2,8.68-4.41a8.88,8.88,0,0,0,1.34-4.79q0-19.2,0-38.4c0-1.63-.25-3.26-.23-4.91,0-1.29-.14-1.43-1.46-1.44-4.12,0-8.24,0-12.36,0-3.21,0-3.21,0-3.21-3.26,0-.88,0-1.76,0-2.64,0-.54.14-1.14.77-1.2,1.54-.14,3.09-.45,4.59.22a16.82,16.82,0,0,0,3.49,1.49,79.19,79.19,0,0,1,11,5.6A6.24,6.24,0,0,0,164.12,74.63Z" transform="translate(-6.86 -29.72)"/><path class="cls-1" d="M121.2,61.93c0,2.16,0,4.32.06,6.48,0,.9-.24,1.18-1.14,1.16-2.05,0-2.05,0-2.05,2.11q0,27.9,0,55.8c0,1.18-.33,1.45-1.47,1.44-4.64-.07-9.28,0-13.92,0-.92,0-1.2-.22-1.22-1.19-.48-18.86-.09-37.73-.21-56.6,0-1.57,0-1.57-1.53-1.57-2.79,0-2.79,0-2.79,2.83q0,27.54,0,55.07c0,1.14-.25,1.49-1.44,1.47-5.08-.07-10.16,0-15.23,0-.88,0-1.15-.22-1.17-1.13C78.63,96,79.1,64.21,79,32.42l23.51,0h15c.63,0,1.15-.06,1.12.89-.12,3.59.36,7.17.25,10.76,0,.89-.25,1.14-1.15,1.14-6.51,0-13,0-19.55,0-.91,0-1.24.19-1.21,1.17q.09,4.56,0,9.12c0,1,.22,1.28,1.24,1.27,7.15,0,14.31,0,21.47,0,1.09,0,1.45.26,1.41,1.38A11.93,11.93,0,0,0,121.2,61.93Z" transform="translate(-6.86 -29.72)"/><path class="cls-1" d="M61.26,79.19c.34.43.82.22,1.22.22q5.22,0,10.43,0c.61,0,1.09,0,1.07.85-.1,3.51.36,7,.25,10.52,0,1-.28,1.22-1.22,1.2-3.52,0-7,0-10.55,0-1,0-1.28.25-1.28,1.26,0,8,0,16,0,24,0,6.88-4.8,11.7-11.66,11.72l-5.63,0c-.84,0-1.68-.07-2.51,0s-1.1-.16-1.11-1c0-2.86-.16-5.72-.25-8.58a1,1,0,0,1-.09-1.15.88.88,0,0,1,.73-.34,2.34,2.34,0,0,0,2.33-2,4.46,4.46,0,0,0,.09-1.31V94c0-1.67-.05-1.72-1.77-1.72-3.16,0-6.31,0-9.47,0A9.31,9.31,0,0,1,29,91.93h0a35.43,35.43,0,0,1-.11-4.12c0-.38.14-.79-.15-1.14,0-2.08,0-4.16-.05-6.24,0-.85.26-1.08,1.09-1.07,4.08,0,8.16,0,12.24,0,1,0,1.47-.24,1.35-1.33a15.52,15.52,0,0,1,0-2.64c.06-.84-.23-1.09-1.08-1.09-4.48,0-9,0-13.43,0-1,0-1.39-.21-1.35-1.3.12-3.43-.36-6.85-.24-10.28,0-.87.19-1.28,1.12-1.15a11.52,11.52,0,0,0,1.44,0c2.16,0,2.15,0,1.71-2.16-.36-1.72-.68-3.45-1-5.17-.06-.32-.27-.71.3-.86s.21-.43.16-.68c-.1-.63-.25-1.26-.31-1.89s-.4-1.16-1.23-1c-.6.07-1.12,0-1.09-.83.1-3.63-.38-7.25-.26-10.89,0-.88.27-1.16,1.17-1.15,3.8.05,7.6,0,11.39.05,1.16,0,1.41-.36,1.36-1.42-.08-1.63,0-3.27,0-4.91,0-.71.16-1,.92-1,5.64,0,11.28,0,16.92,0,.66,0,.91.19.9.88A40,40,0,0,0,61,36c.09.84.31,1.06,1.12,1.06,3.76,0,7.52,0,11.27,0,.92,0,1.27.22,1.24,1.2-.11,3.47.36,6.93.25,10.4,0,1-.26,1.45-1.27,1.27s-1.39.23-1.48,1.17c0,.59-.22,1.18-.31,1.77,0,.25-.13.67.27.66,1.09,0,.72.68.63,1.2-.37,2-.73,4.08-1.18,6.11-.19.81.07.93.79.92,1,0,2.4-.46,3,.16s.13,2.13.25,3.23c.3,2.59.18,5.18.26,7.77,0,1.16-.21,1.58-1.49,1.56-4-.1-8,0-12-.06-.89,0-1.2.23-1.13,1.14C61.28,76.71,61.24,78,61.26,79.19Z" transform="translate(-6.86 -29.72)"/><path class="cls-1" d="M148.78,67.18c-1.36,0-2.72,0-4.08,0-.84,0-1,.34-1,1.07.05,1.4.07,2.8,0,4.2-.06,1,.21,1.3,1.24,1.29,4.88,0,9.76,0,14.64,0,.92,0,1.19.22,1.22,1.18.45,14.51.12,29,.21,43.53,0,5.84-4,9.93-9.8,10-7.56.05-15.12,0-22.68,0-1,0-1.2-.37-1.16-1.25a67,67,0,0,0-.32-9.08c-.3-3.44-.54-6.86-.6-10.3,0-1.06.35-1.49,1.35-1.42,1.27.09,1.76-.47,1.55-1.7a5.89,5.89,0,0,1,0-.84c0-2,0-2-2-2.22-.51,0-.68-.24-.69-.74-.07-3.07-.14-6.14-.25-9.2,0-.78.29-1,1-.92.27,0,.56,0,.83,0,.85.11,1.16-.23,1.08-1.08a7.77,7.77,0,0,1,0-1.67c.09-1,0-1.75-1.34-1.55-.68.1-.6-.48-.6-.91,0-4.11-.35-8.21-.26-12.33.08-3.43,0-6.87,0-10.31,0-2.4.08-4.8,0-7.2,0-1.05.2-1.43,1.35-1.41,4.72.07,9.44,0,14.15,0,2.14,0,2.94-.8,3-3,0-1.79,0-3.59,0-5.39,0-.87-.27-1.06-1.09-1.06-5.55,0-11.11,0-16.67,0-.94,0-1.22-.23-1.19-1.19.1-3.51-.37-7-.24-10.51,0-.81.18-1.1,1-1.1q16.74,0,33.47,0c.8,0,1,.27,1,1,.32,8.06.21,16.12.22,24.19a9.52,9.52,0,0,1-9.72,9.83Z" transform="translate(-6.86 -29.72)"/><path class="cls-1" d="M153,157.2a11.32,11.32,0,0,1-.51-3.41c-.23-3.58-.33-7.18-.55-10.76-.12-1.82-.49-3.63-.43-5.47,0-1.56.21-1.76,1.71-1.76,8.76,0,17.51,0,26.27,0,1.09,0,1.51.27,1.59,1.46.1,1.4.2,2.78.18,4.18,0,1-.52,2-.21,3.1.13.47-.41,1.26.46,1.36s1.75.3,2.25-.82c.84-1.86,1.78-3.66,2.67-5.5.47-1,1-1.93,1.36-2.93a1.84,1.84,0,0,1,1.94-1.25c2.88,0,5.76,0,8.64,0,1.35,0,1.5.22,1.29,1.55,0,.08-.1.19-.08.22,1.2,1.63-.29,2.75-.84,4-1.5,3.35-3.16,6.62-4.84,10.09h4.39c1.43,0,1.63.19,1.34,1.57-.13.61.42.7.56,1.07.3.35.07.67,0,1-.72,1.43-1.47,2.85-2.13,4.32-1,2.4-2.28,4.7-3.44,7a5.92,5.92,0,0,1-.84,1.13c.54.25,1.09,0,1.63.09h1.56c.63,0,1.3-.16,1.85.31.88.15,1.3.57.93,1.5-.06.14-.17.38-.12.43,1.09,1.05.11,1.91-.29,2.77-1.44,3.06-3,6.06-4.38,9.16a6,6,0,0,1-6.11,3.86c-.36,0-.72,0-1.07.06l-13.69,0c-.81,0-1.66,0-1.71-1.15a3.6,3.6,0,0,1-.09-1.13,3.6,3.6,0,0,1-.09,1.13c-.14.87-.69,1.16-1.53,1.16-2.71,0-5.42,0-8.13,0a1.4,1.4,0,0,1-1.43-.66,2.72,2.72,0,0,1-.06-1.33c-.08.53,0,1.13-.4,1.56a1.76,1.76,0,0,1-1.33.43c-2,0-4,0-6,0-1,0-1.34-.4-1.45-1.52-.45-4.64.5-9.21.45-13.82a9,9,0,0,1-.17-2.26c0-1.39.4-2.8-.56-4.12a2.21,2.21,0,0,1-.05-2c0-.91,0-1.83,0-2.74,0-.52,0-1.15.66-1.37,2.68-.26,5.36,0,7.88-.11h-6.15C153.53,157.55,153.13,157.66,153,157.2Z" transform="translate(-6.86 -29.72)"/><path class="cls-3" d="M193.21,167.52c2-2.54,3-5.6,4.52-8.39a3.33,3.33,0,0,1,1.86-.33,17.22,17.22,0,0,0,3.92-.4,209.74,209.74,0,0,0,20.84-3.21,35.73,35.73,0,0,0,6.3-1.91,8,8,0,0,0,1.68-.91c1.26-.94,1.26-1.73,0-2.65a10.6,10.6,0,0,0-3-1.43,66.3,66.3,0,0,0-10.48-2.5c-5.41-.91-10.83-1.61-16.28-2.17-.46-.05-1,0-1.2-.6a63.89,63.89,0,0,0-.56-7.44c-.08-.59,0-.73.58-.58a5.46,5.46,0,0,0,1.89.12c8.52,1,17.06,1.9,25.34,4.32a33.53,33.53,0,0,1,5.07,1.79,9.81,9.81,0,0,1,5.63,7.13,12.36,12.36,0,0,1-.73,7.58,9.72,9.72,0,0,1-6,5.37,80.77,80.77,0,0,1-17.08,4.06l-8.66,1.19c-3.33.49-6.68.75-10,1.08h-1.72A7.28,7.28,0,0,1,193.21,167.52Z" transform="translate(-6.86 -29.72)"/><path class="cls-3" d="M43.19,135.1c.56.11.48.54.48.93,0,2.11,0,4.22,0,6.33,0,.74-.26,1-1,.95a6.37,6.37,0,0,0-2.66.44,15.4,15.4,0,0,1-4.19.81,136.75,136.75,0,0,0-14.76,2.56,30.85,30.85,0,0,0-5.7,1.85c-.92.43-2.14.83-2.16,2s1.22,1.7,2.19,2.12c4.07,1.77,8.41,2.52,12.74,3.28,4.49.78,9,1.29,13.54,1.88.42.05.89,0,1.22.39.88.49,1.86.26,2.79.36,2.26.25,4.53.38,6.79.56a1.18,1.18,0,0,1,.39,1c0,2.17.06,4.34,0,6.5a1.39,1.39,0,0,1-.21.68c-.64.59-1.42.39-2.16.35a30.47,30.47,0,0,1-4.45-.78c-8.55-1-17.12-1.85-25.51-3.88a60.86,60.86,0,0,1-6.84-2.14,9.83,9.83,0,0,1-6.68-8.16,11,11,0,0,1,3.27-10.34c1.61-1.53,3.74-2.1,5.78-2.77a73.75,73.75,0,0,1,11.25-2.72c1-.16,1.94-.23,2.89-.47a.89.89,0,0,1,.23,0c2.8-.43,5.62-.74,8.41-1.18Z" transform="translate(-6.86 -29.72)"/><path class="cls-4" d="M52.53,167.81v-8.24l0-20.75c0-1.52,0-1.56,1.52-1.56,6.2,0,12.39,0,18.59,0,1.11,0,1.65.29,1.55,1.48a7.49,7.49,0,0,0,.2,1.29c.15,1.83.14,1.83,2,1.83,3,0,6,0,9,0,1,0,1.36-.2,1.29-1.24-.09-1.44,0-2.88,0-4.32,0-.92.37-1.37,1.23-1.38q5,0,10.08,0c.77,0,1.16.38,1.24,1.26.11,1.35.23,2.7.21,4.05,0,.75-.25,1.63,1,1.78.31,0,.44.41.47.76a39.94,39.94,0,0,1,.26,5c0,.61-.24,1.07-.83,1.11-.87.06-.87.57-.87,1.22,0,3.88,0,7.76,0,11.64a2.59,2.59,0,0,1,.36,1.36c0,1.94,0,3.88,0,5.83a2,2,0,0,1-.35,1.24c0,2.91-.11,5.84,0,8.75.14,3.2-1.69,6.21-6,6.27-3.64.06-7.28,0-10.92,0-.94,0-1.38-.35-1.49-1.41-.14-1.48-.14-3-.21-4.42,0-1.07.39-1.42,1.42-1.36s2.08,0,3.12,0c.89,0,1.31-.28,1.28-1.25,0-2.36,0-4.72,0-7.08a2.25,2.25,0,0,1-.34-1.36c0-2.27-.05-4.54,0-6.81,0-3.51,0-7,0-10.53,0-1.53-.1-1.61-1.64-1.62-2.6,0-5.19,0-7.78,0a3,3,0,0,1-2.09-.5c0,4,0,8,0,11.91,0,2.3,0,4.6,0,6.9a3.54,3.54,0,0,1-.35,1.73c0,2.68-.12,5.36,0,8a5.73,5.73,0,0,1-5.86,5.91c-4.51,0-9,0-13.53,0l-1.56,0c-.52-.09-.7-.41-.72-.93-.07-1.15-.18-2.29-.27-3.44a15.56,15.56,0,0,1-.34-4.86c0-1.63,0-3.26,0-4.9A2,2,0,0,1,52.53,167.81Z" transform="translate(-6.86 -29.72)"/><path class="cls-1" d="M39.64,122.39c-.1,1.6-.24,3.19-.3,4.78,0,.82-.27,1.2-1.2,1.19-3.11-.06-6.23-.05-9.34,0-.84,0-1-.3-.94-1a9.64,9.64,0,0,0,.19-3.44c-.76-2.62-.1-5.16.05-7.71.37-6.7.88-13.38,1.36-20.06a18.3,18.3,0,0,1,.29-3.7,1.25,1.25,0,0,1,.9-.23c3.25,0,6.51,0,9.76,0a1.46,1.46,0,0,1,.58.11,1.63,1.63,0,0,1,.36,1.56,13.12,13.12,0,0,0,.17,4.37,18.46,18.46,0,0,1-.21,4.62c-.22,3-.41,6-.61,9-.11,1.7-.27,3.41-.35,5.11a7.85,7.85,0,0,0-.47,2.3l-.06,1.38C39.57,121.23,39.84,121.83,39.64,122.39Z" transform="translate(-6.86 -29.72)"/><path class="cls-3" d="M30.3,192.7a8.52,8.52,0,0,1,8.53,8.42A8.61,8.61,0,0,1,21.62,201,8.45,8.45,0,0,1,30.3,192.7Z" transform="translate(-6.86 -29.72)"/><path class="cls-5" d="M219.71,187.74a8.45,8.45,0,0,1-8.67-8.38,8.6,8.6,0,0,1,17.19,0A8.4,8.4,0,0,1,219.71,187.74Z" transform="translate(-6.86 -29.72)"/><path class="cls-2" d="M52.53,167.81c0,3.74,0,7.49,0,11.23a61.79,61.79,0,0,1-4.43-9.64c-.36-1-.68-2-2-2.12Z" transform="translate(-6.86 -29.72)"/><path class="cls-6" d="M41,92.42l-11.26,0L29,91.93c4.44,0,8.88,0,13.31,0,.8,0,1.13.18,1.12,1.06,0,7.39,0,14.79,0,22.18,0,.36.06.73-.23,1-.53-.56-.38-1.27-.38-1.93,0-6.55,0-13.09,0-19.64C42.82,92.76,42.81,92.76,41,92.42Z" transform="translate(-6.86 -29.72)"/><path class="cls-7" d="M196.81,167.53l10.07-1c-1.55.81-3.27.36-4.89.72a30.08,30.08,0,0,0-3.26.46l-1.93,0c-.08-.06-.1-.11-.08-.16S196.78,167.53,196.81,167.53Z" transform="translate(-6.86 -29.72)"/><path class="cls-8" d="M38.88,135.61c-1.8.67-3.72.59-5.58.91a7.49,7.49,0,0,1-2.83.27c1.8-.65,3.72-.61,5.59-.91A8.11,8.11,0,0,1,38.88,135.61Z" transform="translate(-6.86 -29.72)"/><path class="cls-6" d="M28.77,86.67c.58.79.19,1.68.25,2.52s0,1.83,0,2.74c-.49-1.14-.12-2.33-.22-3.49C28.76,87.86,28.78,87.26,28.77,86.67Z" transform="translate(-6.86 -29.72)"/><path class="cls-8" d="M30.24,136.8a5.63,5.63,0,0,1-2.89.47A7.32,7.32,0,0,1,30.24,136.8Z" transform="translate(-6.86 -29.72)"/><path class="cls-9" d="M39.88,119.29a5.25,5.25,0,0,1,.17-2.23.78.78,0,0,1,0,1.08L40,119.29h-.16Z" transform="translate(-6.86 -29.72)"/><path class="cls-9" d="M39.64,122.39a3.16,3.16,0,0,1,.18-1.72C39.8,121.25,40,121.85,39.64,122.39Z" transform="translate(-6.86 -29.72)"/><path class="cls-10" d="M192.47,123.12c8.44,0,16.88,0,25.31,0,1,0,1.31.21,1.29,1.24-.06,2.57,0,2.57-2.56,2.57q-24.66,0-49.31,0c-1.06,0-1.45-.22-1.4-1.36.09-2.45,0-2.45,2.44-2.45Z" transform="translate(-6.86 -29.72)"/><path class="cls-11" d="M218.69,41.52c.09-1.25-.74-1-1.38-1q-24.94,0-49.89,0c-.51,0-1.29.35-1.5-.28a6.12,6.12,0,0,1,0-2.14c0-.3.31-.31.55-.32h.84q25.25,0,50.48,0c1,0,1.46.2,1.32,1.3a18.26,18.26,0,0,0,0,2.34Z" transform="translate(-6.86 -29.72)"/><path class="cls-12" d="M218.76,84.24c0-1.23-.75-1.18-1.57-1.18H167.3a1.52,1.52,0,0,1-1.44-2.31.49.49,0,0,1,.47-.29h1c16.79,0,33.58,0,50.37,0,1.21,0,1.53.36,1.4,1.47a17.91,17.91,0,0,0,0,2.2Z" transform="translate(-6.86 -29.72)"/><path class="cls-12" d="M217.3,65.77A8.25,8.25,0,0,1,213,73.58a2.91,2.91,0,0,1-1.29.17c-14.4,0-28.79,0-43.19,0-1.32,0-1.09-.73-1.15-1.52s.13-1.34,1.21-1.33c12.84,0,25.67,0,38.51,0a12,12,0,0,0,7.76-2.32A11.42,11.42,0,0,0,217.3,65.77Z" transform="translate(-6.86 -29.72)"/><path class="cls-10" d="M217.33,108.67a8.52,8.52,0,0,1-3.67,7.28,2.49,2.49,0,0,1-1.56.46q-21.82,0-43.65,0c-1.1,0-1.13-.48-1.1-1.29s-.16-1.42,1.1-1.42c12.71,0,25.41,0,38.12.06C211,113.8,214.74,112.56,217.33,108.67Z" transform="translate(-6.86 -29.72)"/><path class="cls-13" d="M201.77,51.41h-.24c-3.13,0-3.11,0-2.83-3.15,0-.5.19-.71.71-.7,1.72,0,3.44,0,5.16,0,.44,0,.67.17.65.63a1,1,0,0,0,0,.24C205.36,51.41,205.36,51.41,201.77,51.41Z" transform="translate(-6.86 -29.72)"/><path class="cls-13" d="M182.08,51.41h-.24c-3,0-3,0-2.83-3,0-.61.19-.85.83-.84,1.63,0,3.27,0,4.91,0,.55,0,.84.16.77.75v.12C185.65,51.41,185.65,51.41,182.08,51.41Z" transform="translate(-6.86 -29.72)"/><path class="cls-13" d="M182.28,101.76h.48c3,0,3,0,2.77,3,0,.57-.2.77-.76.77-1.68,0-3.36,0-5,0-.12,0-.3,0-.35,0-.78-1-.19-2.1-.36-3.15-.1-.68.41-.63.86-.63Z" transform="translate(-6.86 -29.72)"/><path class="cls-10" d="M182.28,94.07h-.48c-3,0-3.2-.21-2.79-3.25.07-.48.26-.6.68-.6,1.71,0,3.43,0,5.14,0,.51,0,.75.17.69.69V91C185.68,94.07,185.68,94.07,182.28,94.07Z" transform="translate(-6.86 -29.72)"/><path class="cls-10" d="M202,94.07c-.2,0-.4,0-.6,0-.86-.07-2.18.4-2.48-.2-.43-.86-.16-2.09-.18-3.16,0-.46.31-.48.65-.48a33.73,33.73,0,0,1,5.13.06c1.5.24.48,1.67.68,2.54.11.46.38,1.29-.69,1.25C203.65,94,202.81,94.06,202,94.07Z" transform="translate(-6.86 -29.72)"/><path class="cls-13" d="M201.94,101.76a11.76,11.76,0,0,1,1.68,0c.53.07,1.41-.4,1.53.37a3.81,3.81,0,0,1-.47,3.22c-.2.24-.51.18-.78.19-1.48,0-3,0-4.44,0-.57,0-.73-.18-.76-.75C198.52,101.76,198.51,101.76,201.94,101.76Z" transform="translate(-6.86 -29.72)"/><path class="cls-10" d="M182.28,59.21h.84c2.41,0,2.36,0,2.42,2.46,0,1-.24,1.31-1.25,1.25a41.1,41.1,0,0,0-4.3,0c-.81,0-1-.25-1-1s-.26-2,.19-2.53,1.62-.13,2.48-.16Z" transform="translate(-6.86 -29.72)"/><path class="cls-10" d="M202,59.21a8.3,8.3,0,0,1,1.32,0c.63.1,1.6-.42,1.83.31a3.92,3.92,0,0,1-.22,2.92.87.87,0,0,1-.9.44h-4.55s-.09,0-.12,0c-1.37-.77-.29-2-.6-3-.19-.59.17-.71.73-.67C200.29,59.26,201.14,59.21,202,59.21Z" transform="translate(-6.86 -29.72)"/><path class="cls-4" d="M102.21,162l0-23.14c0-1.53,0-1.56,1.52-1.56,6.2,0,12.39,0,18.59,0,1.11,0,1.65.29,1.55,1.47a7.45,7.45,0,0,0,.2,1.3c.15,1.83.15,1.83,1.94,1.83,3,0,5.92-.06,8.88,0,1.2,0,1.49-.36,1.41-1.49-.09-1.35,0-2.71,0-4.07,0-.92.36-1.38,1.23-1.39q5,0,10.07,0c.77,0,1.17.37,1.25,1.25.12,1.35.22,2.7.21,4.05,0,.75-.26,1.63.95,1.78.31,0,.45.41.48.76a44.07,44.07,0,0,1,.26,5c0,.69-.3,1.11-.94,1.16s-.76.49-.76,1.06c0,3.92,0,7.83,0,11.75a20.64,20.64,0,0,1,0,8.43c0,2.95,0,5.91,0,8.86,0,3.91-2.09,6.1-6,6.18-3.59.07-7.19,0-10.78,0-1,0-1.44-.36-1.55-1.47-.15-1.52-.15-3-.2-4.53,0-.88.35-1.22,1.22-1.19,1.07,0,2.16,0,3.23,0s1.4-.26,1.37-1.3c-.07-2.11,0-4.23,0-6.35a2.17,2.17,0,0,1-.35-1.47c0-2.3,0-4.6,0-6.9-.05-3.64,0-7.28,0-10.91,0-1.64-.08-1.71-1.67-1.72-2.6,0-5.2,0-7.79,0a2.51,2.51,0,0,1-2-.54c0,4.36,0,8.76,0,13.15,0,2.3,0,4.6,0,6.9a3.3,3.3,0,0,1-.36,1.72c0,2.32,0,4.64,0,7a5.53,5.53,0,0,1-5.61,5.76c-5,.07-9.92,0-14.87,0-.9,0-1.09-.4-1.18-1.23-.45-4-.07-8-.24-12a1.75,1.75,0,0,1-.34-1q-.06-3.12,0-6.23A1.75,1.75,0,0,1,102.21,162Z" transform="translate(-6.86 -29.72)"/><path class="cls-4" d="M135.6,170.39c0,3.21.64,3.16-3.16,3.13-1.68,0-3.36,0-5,0-.93,0-1.42-.3-1.43-1.3a13.46,13.46,0,0,0-.25-1.77,3.57,3.57,0,0,1-.54-2c0-2.11-.38-4.2-.3-6.31a25.3,25.3,0,0,1-.37-4.52,50.87,50.87,0,0,1-.18-5.25c0-1.2.42-1.66,1.65-1.7,2.23-.08,4.46,0,6.69,0a1.78,1.78,0,0,1,1.92,1.6A27,27,0,0,1,135,156c.09,2.07.21,4.13.39,6.19,0,2.43.35,4.85.36,7.28A1.34,1.34,0,0,1,135.6,170.39Z" transform="translate(-6.86 -29.72)"/><path class="cls-4" d="M85.84,169.88c.2,4.21.41,3.6-3.39,3.63-1.56,0-3.11,0-4.67,0-1,0-1.43-.32-1.51-1.36a10.4,10.4,0,0,0-.44-2.93,2.22,2.22,0,0,1-.36-1.35c-.12-2.28-.22-4.57-.45-6.85-.11-2.83-.36-5.65-.37-8.49,0-1.5.39-1.92,1.9-2,2,0,4,0,6,0,1.72,0,2.26.49,2.48,2.24a77.71,77.71,0,0,1,.55,8.36c.23,2.3.33,4.61.46,6.92A5.57,5.57,0,0,1,85.84,169.88Z" transform="translate(-6.86 -29.72)"/><path class="cls-14" d="M149.07,170.18v-8.43l2.38,0c.45.68,0,1.57.4,2.18,1.45,2,.26,4.11.38,6.17Z" transform="translate(-6.86 -29.72)"/><path class="cls-14" d="M102.21,162v8.24H99.39q0-4.22,0-8.43A7.29,7.29,0,0,0,102.21,162Z" transform="translate(-6.86 -29.72)"/><path class="cls-15" d="M125.23,162q.26,4.23.49,8.46a2.37,2.37,0,0,0-1.61.19q0-4.32,0-8.64A1.69,1.69,0,0,1,125.23,162Z" transform="translate(-6.86 -29.72)"/><path class="cls-15" d="M75.36,161a64.21,64.21,0,0,1,.47,8.2,2.09,2.09,0,0,0-1.39.21c0-2.88,0-5.77,0-8.65A.81.81,0,0,1,75.36,161Z" transform="translate(-6.86 -29.72)"/><path class="cls-16" d="M85.84,169.88c-.4-1.46-.08-3-.34-4.47-.25-1.34,0-2.76-.27-4.13a1.43,1.43,0,0,1,1.38.21c0,2.75,0,5.5,0,8.25A.9.9,0,0,0,85.84,169.88Z" transform="translate(-6.86 -29.72)"/><path class="cls-16" d="M135.6,170.39a59,59,0,0,1-.48-8.19,1.09,1.09,0,0,1,1.18-.19c0,2.8,0,5.61,0,8.41Z" transform="translate(-6.86 -29.72)"/><path class="cls-17" d="M160.56,185c.11-.56.23-1.12.36-1.76a3.86,3.86,0,0,1,.1,1.53Z" transform="translate(-6.86 -29.72)"/><path class="cls-18" d="M172.11,184.33a1.6,1.6,0,0,1,.09-1,1.6,1.6,0,0,1,.09,1h-.18Z" transform="translate(-6.86 -29.72)"/><path class="cls-1" d="M70.24,128.36c-1.6,0-3.2,0-4.8,0-.67,0-.87-.22-.91-.89q-.57-9-1.2-18c-.25-3.74-.54-7.47-.77-11.21-.11-1.75-.11-3.5-.23-5.24,0-.62.24-.65.69-.65,3.28,0,6.56,0,9.84,0,.91,0,.94.57,1,1.15.12,1.31.15,2.63.25,3.94.39,5.41.61,10.83,1.06,16.24.38,4.57.48,9.15.88,13.71.06.71-.12,1-.89,1C73.52,128.33,71.88,128.36,70.24,128.36Z" transform="translate(-6.86 -29.72)"/><path class="cls-10" d="M201.37,143a45.33,45.33,0,0,0,5.8.75c7.62,1,15.28,1.82,22.62,4.31a10.86,10.86,0,0,1,2.49,1.16c2,1.29,2,2.37-.06,3.62a21.12,21.12,0,0,1-5.92,2.2A131.1,131.1,0,0,1,209.71,158c-2.06.25-4.11.58-6.18.7-1.23.09-2.43.36-3.66.36-.68,0-.84-.28-.78-.86a19.16,19.16,0,0,1,.82-3.36c.08-.31.15-.62.23-.93a55.05,55.05,0,0,0,.76-6.14C201.1,146.15,200.89,144.55,201.37,143Z" transform="translate(-6.86 -29.72)"/><path class="cls-10" d="M43,158.65c-4.62-.38-9.2-1-13.77-1.76a70.74,70.74,0,0,1-12.34-2.84,12.13,12.13,0,0,1-2.91-1.38c-1.59-1.09-1.61-2.19,0-3.25a18.81,18.81,0,0,1,6-2.33,137.55,137.55,0,0,1,20.17-3.34,11.27,11.27,0,0,0,1.54-.07c1.34-.23,1.55-.12,1.57,1.28a65.38,65.38,0,0,0,1.44,12.39C44.87,158.57,44.85,158.58,43,158.65Z" transform="translate(-6.86 -29.72)"/><path class="cls-19" d="M153,157.2a4,4,0,0,0,2.22.23,48.06,48.06,0,0,1,5.36.24h-8.39Z" transform="translate(-6.86 -29.72)"/><path class="cls-10" d="M107,43.71c-3.11,0-6.23,0-9.34,0-.7,0-1-.15-1-.92,0-2.94-.08-2.94,2.89-2.94,5.55,0,11.1,0,16.65,0,.85,0,1.18.16,1.17,1.11,0,2.75,0,2.75-2.73,2.75Z" transform="translate(-6.86 -29.72)"/><path class="cls-10" d="M88.09,127.45c-2.2,0-4.4,0-6.59,0-.65,0-.9-.17-.92-.87-.1-3-.13-3,2.85-3,3.68,0,7.35,0,11,0,.82,0,1.1.19,1.09,1.06,0,2.8,0,2.8-2.78,2.8Z" transform="translate(-6.86 -29.72)"/><path class="cls-10" d="M109.8,127.45c-2,0-3.91,0-5.87,0-.67,0-1-.1-1-.9-.05-3-.09-3,2.89-3,3.23,0,6.47,0,9.71,0,.92,0,1.13.27,1.12,1.15,0,2.71,0,2.71-2.65,2.71Z" transform="translate(-6.86 -29.72)"/><path class="cls-20" d="M98.87,68.09c-2.15,0-2.16,0-2.15-2.2,0-1.86-.24-1.62,1.67-1.65h.12c2.82,0,2.78,0,2.79,2.83,0,.88-.31,1.12-1.11,1C99.75,68.06,99.31,68.09,98.87,68.09Z" transform="translate(-6.86 -29.72)"/><path class="cls-21" d="M117.82,66.17a7.85,7.85,0,0,0,0-.84c-.09-.8.07-1.23,1.06-1.21s1.13.45,1.07,1.24a10.35,10.35,0,0,0,0,1.67c.09.8-.15,1.1-1,1.11s-1.24-.25-1.1-1.14A5.75,5.75,0,0,0,117.82,66.17Z" transform="translate(-6.86 -29.72)"/><path class="cls-10" d="M51.64,44.58c6.83,0,13.66,0,20.49,0,1,0,1.36.29,1.26,1.29-.09.78.24,1.8-.15,2.32s-1.45,0-2.21,0c-4.16.05-8.32-.11-12.46.07-3.59.15-7.19.29-10.77.13-5.38-.24-10.77-.11-16.15-.17a3.62,3.62,0,0,0-1.19,0c-.67.22-.65-.15-.63-.59v-.12c-.1-3-.1-3,2.87-3Z" transform="translate(-6.86 -29.72)"/><path class="cls-10" d="M51.46,49.86c1.47,0,2.95,0,4.43,0,.64,0,.86.22.74.85q-1,5.16-2,10.32a.71.71,0,0,1-.83.65c-1.6,0-3.19,0-4.79,0-.53,0-.77-.15-.87-.7q-1-5.22-2-10.44c-.15-.72.3-.67.76-.67Z" transform="translate(-6.86 -29.72)"/><path class="cls-10" d="M59.72,117.74c.09,4.93-4,9.45-8.8,9.67-2.79.12-5.59,0-8.38.06-.65,0-.79-.25-.8-.85a2.73,2.73,0,0,1,2.88-3c2.16,0,4.33.12,6.46-.11C54.72,123.1,56.91,121.54,59.72,117.74Z" transform="translate(-6.86 -29.72)"/><path class="cls-20" d="M40.09,118.14c0-.36,0-.72,0-1.08.38-5.88.7-11.78,1.2-17.66.09-1.08-.54-1.91-.47-2.92.11-1.35.16-2.71.23-4.06,1.75-.69,2.2-.43,2.2,1.27v22.48C42.6,117.74,42,118.11,40.09,118.14Z" transform="translate(-6.86 -29.72)"/><path class="cls-10" d="M36.23,69.08c2,0,4,0,6,0,.85,0,1.2.15,1.19,1.11,0,2.76,0,2.76-2.78,2.76-3.51,0-7,0-10.55,0-.81,0-1.1-.18-1.1-1,0-2.81,0-2.81,2.81-2.81Z" transform="translate(-6.86 -29.72)"/><path class="cls-22" d="M36.73,90.64c-1.8,0-3.6,0-5.4,0-.76,0-1-.16-1-1,0-3-.05-3,2.93-3s5.91,0,8.87,0c1,0,1.33.22,1.31,1.25,0,2.7,0,2.7-2.73,2.7Z" transform="translate(-6.86 -29.72)"/><path class="cls-10" d="M67.68,72.93c-2,0-3.9,0-5.86,0-.69,0-.86-.2-.87-.87-.07-3-.09-3,2.84-3,3.15,0,6.31,0,9.45,0,.92,0,1.15.26,1.14,1.15,0,2.72,0,2.72-2.75,2.72Z" transform="translate(-6.86 -29.72)"/><path class="cls-11" d="M67,90.64c-1.64,0-3.28,0-4.91,0-.79,0-1.11-.12-1.11-1,0-2.93,0-2.93,2.92-2.93,2.64,0,5.28,0,7.91,0,.81,0,1.13.2,1.13,1.07,0,2.88.06,2.88-2.82,2.88Z" transform="translate(-6.86 -29.72)"/><path class="cls-10" d="M159.52,118.45a7.82,7.82,0,0,1-7.85,8.43c-7.32.09-14.63,0-21.95,0-.65,0-.9-.18-.92-.88-.11-3-.14-3,2.88-3h18.71C154.58,123.06,156.91,121.9,159.52,118.45Z" transform="translate(-6.86 -29.72)"/><path class="cls-10" d="M136.92,39.6c2.55,0,5.11,0,7.66,0,.8,0,1.1.18,1.1,1.05,0,2.81,0,2.81-2.79,2.81-4.55,0-9.1,0-13.65,0-.8,0-1.09-.18-1.09-1.05,0-2.81,0-2.81,2.78-2.81Z" transform="translate(-6.86 -29.72)"/><path class="cls-10" d="M160.67,57.28a7.76,7.76,0,0,1-6.1,8.2c-3.48.56-7,.14-10.53.24-.42,0-.57-.19-.56-.58,0-.12,0-.24,0-.36-.08-2.91-.08-2.91,2.81-2.91,2,0,4,0,6,0a9.45,9.45,0,0,0,7.85-3.9Z" transform="translate(-6.86 -29.72)"/><path class="cls-10" d="M136.45,85c-2.16,0-4.32,0-6.47,0-.93,0-1.13-.29-1.12-1.16,0-2.71,0-2.72,2.77-2.72,3.87,0,7.74,0,11.61,0,.85,0,1.08.26,1.08,1.09,0,2.78,0,2.78-2.72,2.78Z" transform="translate(-6.86 -29.72)"/><path class="cls-23" d="M143.41,114.79a5.84,5.84,0,0,1-.08-.8c.16-2.88-.41-5.74-.24-8.61.06-.95-.37-1.14-1.15-.88-1.11.39-1.45-.07-1.31-1.13a2.89,2.89,0,0,0,0-.72c-.1-.8.16-1.14,1-1.11,1.76,0,1.68.27,1.65-1.68,0-2.75-.19-5.5-.22-8.25,0-.78-.34-.92-1-.91-1.78,0-1.7.27-1.7-1.64,0-2.64,0-2.6,2.63-2.65,1,0,1.29.27,1.28,1.28,0,8.24,0,16.48,0,24.72A3,3,0,0,1,143.41,114.79Z" transform="translate(-6.86 -29.72)"/><path class="cls-10" d="M142,112.71c.28,1-.23,1.38-1.21,1.5-3.76.44-7.51,1-11.26,1.38-.46.06-1.16.44-1.32-.49-.26-1.47,0-2.07.94-2.21.82-.12,1.56-.24,1.94-1.13.15-.34.62-.31,1-.36,1.85-.25,3.71-.5,5.57-.72.79-.09,1.62-.35,2.29.46a1.08,1.08,0,0,0,.89.22C142,111.14,142.15,111.74,142,112.71Z" transform="translate(-6.86 -29.72)"/><path class="cls-24" d="M142,98.91c-.08.35.22.9-.24,1.14a1.81,1.81,0,0,1-1.15.1c-.42-.09-.19-.52-.23-.8s0-.63,0-.95c0-.51-.1-1,.74-1s1,.31.9,1A4.46,4.46,0,0,0,142,98.91Z" transform="translate(-6.86 -29.72)"/><path class="cls-25" d="M128.19,98.73c0-.31,0-.63,0-.94s.35-.35.62-.36.51,0,.52.33q0,1,0,2c0,.39-.34.36-.61.37s-.54-.1-.55-.46v-1Z" transform="translate(-6.86 -29.72)"/><path class="cls-26" d="M142.34,115.52a1.7,1.7,0,0,1-1.41,0Z" transform="translate(-6.86 -29.72)"/><path class="cls-10" d="M170.4,172c0,3,0,6.07,0,9.1,0,.78-.21,1-1,1-2-.05-4.08-.06-6.12,0-.92,0-1.13-.29-1.12-1.16,0-5.88,0-11.75,0-17.62,0-1.87-.17-2-2.07-2-2.08,0-4.16-.06-6.23,0-1.1,0-1-.6-1-1.29s.05-1.17,1-1.14c2.28.07,4.56,0,6.83,0,1,0,1.52-.39,1.46-1.39-.05-.71.25-.88.9-.87q3.18.06,6.35,0c.69,0,1.05.12,1,.91-.11,1.07.49,1.37,1.47,1.35,2.2,0,4.4,0,6.59,0,1,0,1.12.37,1.09,1.19s0,1.28-1,1.24c-2.19-.09-4.39,0-6.59,0-1.16,0-1.56.46-1.54,1.57C170.42,165.9,170.4,168.94,170.4,172Z" transform="translate(-6.86 -29.72)"/><path class="cls-10" d="M198.1,136.84c-1.86,3.79-3.57,7.34-5.34,10.87a3.57,3.57,0,0,1-3.32,2c-2.24.05-4.48,0-6.72,0-.75,0-.93-.34-.81-.94s-.5-1.48.77-1.45a2.46,2.46,0,0,0,2.35-1.72c1.25-2.67,2.54-5.33,3.82-8,.18-.38.28-.8.88-.8C192.44,136.86,195.15,136.84,198.1,136.84Z" transform="translate(-6.86 -29.72)"/><path class="cls-10" d="M198.08,169.22c-1.82,3.78-3.5,7.35-5.28,10.87a3.86,3.86,0,0,1-3.71,2c-2.12,0-4.23,0-6.35,0-.73,0-1-.31-.83-.93s-.5-1.47.77-1.45a2.37,2.37,0,0,0,2.28-1.62c1.27-2.71,2.59-5.4,3.89-8.09.18-.38.28-.81.88-.81C192.44,169.24,195.15,169.22,198.08,169.22Z" transform="translate(-6.86 -29.72)"/><path class="cls-10" d="M198.06,152.66c-1.39,2.9-2.69,5.62-4,8.33-2.17,4.43-2.17,4.42-7.07,4.42-1.4,0-2.8,0-4.19,0-.66,0-1-.18-.88-.87.1-.51-.47-1.38.69-1.4a2.6,2.6,0,0,0,2.44-1.78c1.22-2.64,2.54-5.24,3.77-7.87a1.26,1.26,0,0,1,1.35-.86C192.71,152.69,195.26,152.66,198.06,152.66Z" transform="translate(-6.86 -29.72)"/><path class="cls-10" d="M175.63,164.62h1.08c2,0,2,0,2.07,2,.22,4.74.44,9.49.73,14.23.07,1.09-.25,1.38-1.3,1.31a35,35,0,0,0-3.83,0c-.67,0-.91-.21-.93-.88-.08-1.87-.25-3.74-.35-5.62-.18-3.3-.32-6.61-.53-9.92,0-.82.14-1.18,1-1.09A19.81,19.81,0,0,0,175.63,164.62Z" transform="translate(-6.86 -29.72)"/><path class="cls-10" d="M156,182.09c-3,0-3,0-2.86-3,.26-4.54.59-9.07.86-13.61,0-.66.23-.91.91-.89,1.44.05,2.88.05,4.31,0,.72,0,.88.26.84.92q-.5,7.93-.94,15.89c0,.5-.21.7-.72.69C157.62,182.08,156.82,182.09,156,182.09Z" transform="translate(-6.86 -29.72)"/><path class="cls-10" d="M156.91,154.15c-.83-.1-2.12.43-2.82-.21s-.24-1.89-.3-2.87c-.18-2.51-.28-5-.45-7.53-.05-.71.14-1,.91-1,1.51.05,3,0,4.55,0,.6,0,.83.18.86.8.18,3.35.38,6.69.6,10,0,.6-.22.76-.76.74C158.7,154.13,157.9,154.15,156.91,154.15Z" transform="translate(-6.86 -29.72)"/><path class="cls-10" d="M166.29,154.15c-.84-.09-2.12.42-2.83-.2s-.24-1.89-.31-2.87c-.18-2.47-.27-4.94-.45-7.41,0-.8.12-1.15,1-1.11,1.48.07,3,.05,4.44,0,.62,0,.81.2.85.81.18,3.27.4,6.53.65,9.8,0,.7-.12,1-.9,1S167.24,154.15,166.29,154.15Z" transform="translate(-6.86 -29.72)"/><path class="cls-10" d="M175.55,154.14c-.84,0-1.68,0-2.52,0-.53,0-.69-.22-.66-.73q.34-5.07.66-10.15c0-.5.19-.7.71-.69,1.59,0,3.19,0,4.79,0,.65,0,.82.25.78.86q-.27,5-.51,10c0,.53-.25.69-.74.68C177.22,154.13,176.39,154.14,175.55,154.14Z" transform="translate(-6.86 -29.72)"/><path class="cls-10" d="M166.33,139.47c-4.12,0-8.24,0-12.35,0-.85,0-1.1-.25-1.08-1.08s.08-1.22,1.08-1.22q12.22.06,24.46,0c.92,0,1.13.28,1.13,1.16s-.22,1.16-1.13,1.14C174.4,139.44,170.36,139.47,166.33,139.47Z" transform="translate(-6.86 -29.72)"/><path class="cls-2" d="M181,168.71a50.27,50.27,0,0,0,5.49,0c1.41.07,1.41,0,.8,1.29-1.15,2.37-2.36,4.72-3.4,7.14-.54,1.25-1.44,1.18-2.45,1.13-.46,0-.46-.35-.47-.68-.15-3-.29-5.9-.44-8.85C180.63,168.56,180.8,168.59,181,168.71Z" transform="translate(-6.86 -29.72)"/><path class="cls-2" d="M180.72,152.65a4,4,0,0,0,2.54.44h4.14c-1.2,2.52-2.18,5-3.55,7.25-.85.37-1.69.8-2.61.17a8,8,0,0,1-.28-2.07.69.69,0,0,0-.67-.79c-.21-.11-.17-.28-.11-.45.51-1.16.23-2.38.32-3.57C180.73,153.34,180.47,152.94,180.72,152.65Z" transform="translate(-6.86 -29.72)"/><path class="cls-27" d="M199.91,154.79a9.79,9.79,0,0,1-.46,3c-.16.74-.06,1.18.89,1.06a11.37,11.37,0,0,1,3.19-.24,18.27,18.27,0,0,1-5.8.48A29.85,29.85,0,0,1,199.91,154.79Z" transform="translate(-6.86 -29.72)"/><path class="cls-28" d="M170.91,149.49c-.13-2-.25-4-.42-5.94,0-.43-.08-.71.45-.73s.68.14.65.61c-.08,1.47-.17,2.94-.25,4.41C171,148.32,171.68,149.1,170.91,149.49Z" transform="translate(-6.86 -29.72)"/><path class="cls-29" d="M181.24,160.51l2.61-.17c-.19.71-.43,1.34-1.32,1.42S181,161.65,181.24,160.51Z" transform="translate(-6.86 -29.72)"/><path class="cls-19" d="M180.18,157.2c0,.15.08.3.11.45h-8.13v-.21c1.86,0,3.71,0,5.56,0A4.82,4.82,0,0,0,180.18,157.2Z" transform="translate(-6.86 -29.72)"/><path class="cls-30" d="M181,168.71l-.47.06c-.14-1.32-.29-2.65-.43-4C180.68,166.06,180.52,167.44,181,168.71Z" transform="translate(-6.86 -29.72)"/><path class="cls-31" d="M170.91,149.49c.47-.47,0-1.19.43-1.65a15,15,0,0,1-.29,3.3A3.63,3.63,0,0,1,170.91,149.49Z" transform="translate(-6.86 -29.72)"/><path class="cls-32" d="M161.58,151.9v-2.57h.1v2.57Z" transform="translate(-6.86 -29.72)"/><path class="cls-33" d="M161.34,147.31v-2.58h.12v2.57Z" transform="translate(-6.86 -29.72)"/><path class="cls-34" d="M193.21,167.52h1.91c.08.06.11.11.08.16s0,.08-.08.08l-1.9,0s-.06-.06-.06-.09A.34.34,0,0,1,193.21,167.52Z" transform="translate(-6.86 -29.72)"/><path class="cls-35" d="M180.72,152.65c0,.34.06.7-.22,1v-2C180.85,152,180.67,152.33,180.72,152.65Z" transform="translate(-6.86 -29.72)"/><path class="cls-33" d="M161.94,155a1.48,1.48,0,0,1-.12-1.16C162.19,154.23,161.87,154.63,161.94,155Z" transform="translate(-6.86 -29.72)"/><path class="cls-36" d="M195.12,167.76v-.24h1.69a1.69,1.69,0,0,0,0,.23Z" transform="translate(-6.86 -29.72)"/><path class="cls-10" d="M54,159.42c0-6.52,0-13,0-19.55,0-.93.23-1.21,1.19-1.21q8.21.08,16.43,0c.94,0,1.21.24,1.2,1.19,0,12,0,23.91,0,35.86A4.1,4.1,0,0,1,68.7,180c-4.64.08-9.28,0-13.91.06-.92,0-.8-.54-.8-1.09Z" transform="translate(-6.86 -29.72)"/><path class="cls-10" d="M81.6,145.62c-1.67,0-3.36-.06-5,0-1,0-1-.48-1-1.18s-.09-1.22.94-1.2c3.32.07,6.64,0,9.95,0,1.41,0,1.57-.17,1.57-1.6s0-2.88,0-4.32c0-.83.29-1,1-1q3.82.06,7.67,0c.73,0,1,.21,1,.95,0,1.56,0,3.12,0,4.68,0,.55.09,1.19.7,1.22.88,0,1,.4,1,1.17s-.06,1.26-1,1.31c-.63,0-.67.7-.67,1.23,0,1.64,0,3.28,0,4.92q0,12.71,0,25.42c0,2.91-1.45,4.5-4.35,4.56-3.39.08-6.79,0-10.19,0-1,0-.91-.6-.91-1.24s-.09-1.22.87-1.15a21.19,21.19,0,0,0,2.52,0,2.23,2.23,0,0,0,2.42-2.38q0-15.11,0-30.22c0-.89-.38-1.3-1.31-1.28C85,145.64,83.32,145.62,81.6,145.62Z" transform="translate(-6.86 -29.72)"/><path class="cls-23" d="M86.61,161.49a2,2,0,0,1-1.38-.21c-.12-3-.24-6.05-.66-9.05-.13-1-.61-1.27-1.52-1.26-2.19,0-4.39,0-6.59,0-1.41,0-1.62.2-1.57,1.59.09,2.82.49,5.63.47,8.47a1.29,1.29,0,0,1-.93-.24V148.54a3.81,3.81,0,0,0,2.09.46c3,0,6.07,0,9.1,0,.78,0,1,.24,1,1C86.61,153.83,86.62,157.66,86.61,161.49Z" transform="translate(-6.86 -29.72)"/><path class="cls-20" d="M33.59,126.91H32.27c-3.12,0-3.1,0-2.74-3.11.07-.56.27-.75.82-.75q3.54,0,7.08,0c.61,0,.77.27.69.81a.49.49,0,0,0,0,.12c-.13,2.93-.13,2.93-3.08,2.93Z" transform="translate(-6.86 -29.72)"/><path class="cls-10" d="M103.67,159.37c0-6.52,0-13,0-19.55,0-.87.2-1.16,1.12-1.15q8.28.06,16.55,0c.88,0,1.16.21,1.15,1.13,0,12,0,24,0,36a4.08,4.08,0,0,1-4,4.22c-4.67.09-9.35,0-14,.06-1,0-.73-.62-.73-1.14Q103.67,169.15,103.67,159.37Z" transform="translate(-6.86 -29.72)"/><path class="cls-10" d="M137.75,162.06q0-7.38,0-14.75c0-1.57-.13-1.69-1.72-1.69-3.24,0-6.48-.05-9.71,0-1.07,0-1-.51-1-1.24s.08-1.15,1-1.14c3.28.06,6.56,0,9.84,0,1.47,0,1.62-.16,1.62-1.67s0-2.88,0-4.32c0-.64.13-.94.85-.93,2.64,0,5.28,0,7.91,0,.68,0,.91.21.9.9-.05,1.55,0,3.11,0,4.67,0,.78.2,1.36,1.12,1.35.74,0,.59.54.54.92s.39,1.3-.46,1.37c-1.26.1-1.2.92-1.2,1.78,0,9.95,0,19.9,0,29.85a4.16,4.16,0,0,1-4.55,4.63c-3.32,0-6.64,0-9.95,0-1,0-1-.49-1-1.19s-.07-1.31,1-1.21c.71.07,1.43,0,2.15,0,1.94,0,2.72-.82,2.72-2.81Q137.76,169.37,137.75,162.06Z" transform="translate(-6.86 -29.72)"/><path class="cls-23" d="M136.3,162a2,2,0,0,1-1.18.19,37.15,37.15,0,0,1-.44-5.58c-.12-1.51-.26-3-.45-4.52A1.12,1.12,0,0,0,133,151h-7.19c-.68,0-1.26.22-1.21,1,.19,3.33.44,6.67.66,10a.84.84,0,0,1-1.12,0c0-4.47,0-8.94,0-13.47a3.65,3.65,0,0,0,2.1.47c2.95,0,5.91,0,8.86,0,1,0,1.26.32,1.25,1.3C136.28,154.18,136.31,158.09,136.3,162Z" transform="translate(-6.86 -29.72)"/><path class="cls-10" d="M129.37,152.5c1.12,0,2.53-.42,3.26.11s.29,2.09.37,3.19c.32,4.41.58,8.83.91,13.24.07.9-.18,1.18-1.09,1.13-1.55-.07-3.11-.06-4.67,0-.78,0-1-.25-1.08-1-.16-2.66-.36-5.33-.54-8s-.31-5.18-.51-7.76c-.06-.78.14-1.09,1-1s1.59,0,2.39,0Z" transform="translate(-6.86 -29.72)"/><path class="cls-10" d="M79.79,152.42a19.07,19.07,0,0,0,2.27,0c1-.11,1.17.34,1.21,1.22.27,5,.6,9.95.92,14.92.11,1.61.13,1.61-1.51,1.61-1.39,0-2.79,0-4.19,0-.75,0-1.06-.2-1.1-1-.16-2.7-.37-5.41-.55-8.11-.16-2.51-.29-5-.5-7.52-.07-.85.09-1.27,1.06-1.16A23.8,23.8,0,0,0,79.79,152.42Z" transform="translate(-6.86 -29.72)"/><path class="cls-20" d="M70.12,126.91c-1.11,0-2.23,0-3.35,0-.67,0-.89-.26-1-.89-.36-3-.38-3,2.53-3,1.67,0,3.35,0,5,0,.7,0,1,.2,1,.93.22,2.94.24,2.94-2.7,2.94Z" transform="translate(-6.86 -29.72)"/><path class="cls-37" d="M65.47,149.62v6.82c0,1.57-.17,1.72-1.7,1.73-2.49,0-2.49,0-2.49-2.49,0-4.27,0-8.54,0-12.81,0-.64-.2-1.48.64-1.75a4.07,4.07,0,0,1,3.14.12c.47.24.4.91.4,1.43Z" transform="translate(-6.86 -29.72)"/><path class="cls-37" d="M61.28,169.1c0-2.28,0-4.55,0-6.83,0-1.59.15-1.73,1.67-1.74,2.52,0,2.52,0,2.52,2.47,0,3.95,0,7.9,0,11.85,0,1.93-.82,2.74-2.61,2.83-1.15.06-1.59-.42-1.58-1.52C61.29,173.81,61.28,171.45,61.28,169.1Z" transform="translate(-6.86 -29.72)"/><path class="cls-37" d="M111,149.63c0-2.32,0-4.63,0-6.95,0-1.46.28-1.71,1.77-1.73h1a1.25,1.25,0,0,1,1.47,1.43c0,4.83,0,9.66,0,14.49,0,.84-.32,1.3-1.28,1.31-2.9,0-2.9.09-2.9-2.81Z" transform="translate(-6.86 -29.72)"/><path class="cls-37" d="M111,169c0-2.24,0-4.47,0-6.7,0-1.58.16-1.73,1.69-1.73,2.5,0,2.5,0,2.5,2.49,0,3.95,0,7.9,0,11.85,0,1.92-.84,2.72-2.63,2.81-1.17.06-1.57-.45-1.56-1.54C111,173.75,111,171.35,111,169Z" transform="translate(-6.86 -29.72)"/><path class="cls-38" d="M62.92,150.46c0-1.79,0-3.58,0-5.38,0-.33-.11-.77.46-.79s.67.32.67.78v11c0,.43-.13.69-.61.66s-.52-.39-.52-.76Z" transform="translate(-6.86 -29.72)"/><path class="cls-39" d="M64,168.76c0,2,0,4,0,6a3.29,3.29,0,0,1-.07.83c-.09.31-.26.61-.65.58s-.41-.42-.41-.73c0-2.15,0-4.3,0-6.46C63.16,168.17,63.54,168.15,64,168.76Z" transform="translate(-6.86 -29.72)"/><path class="cls-40" d="M64,168.76c-.41-.16-.84-.36-1.13.2,0-1.39,0-2.78,0-4.18,0-.39,0-.83.55-.85s.64.44.63.89C64.07,166.13,64.05,167.45,64,168.76Z" transform="translate(-6.86 -29.72)"/><path class="cls-38" d="M113.73,150.61c0,1.75,0,3.5,0,5.25,0,.39.08.84-.53.86s-.6-.38-.6-.8V145c0-.35-.06-.76.5-.75s.63.37.63.82Z" transform="translate(-6.86 -29.72)"/><path class="cls-41" d="M112.6,170.65l0-5.86c0-.4-.06-.84.55-.86s.64.44.63.89l0,5.62A1.12,1.12,0,0,1,112.6,170.65Z" transform="translate(-6.86 -29.72)"/><path class="cls-42" d="M112.6,170.65a1.19,1.19,0,0,1,1.12-.21c0,1.47,0,2.95,0,4.42,0,.55,0,1.29-.72,1.26s-.39-.76-.4-1.17C112.57,173.51,112.6,172.08,112.6,170.65Z" transform="translate(-6.86 -29.72)"/></svg>