<svg id="圖層_1" data-name="圖層 1" xmlns="http://www.w3.org/2000/svg" viewBox="0 0 214.09 203.92"><defs><style>.cls-1{fill:#f7e0a3;}.cls-2{fill:#986a19;}.cls-3{fill:#f7bfa3;}.cls-4{fill:#fdfdfc;}.cls-5{fill:#f1e5d1;}.cls-6{fill:#fefefe;}.cls-7{fill:#f9f6ef;}.cls-8{fill:#fefdfd;}.cls-9{fill:#f2e6d3;}.cls-10{fill:#faf6ef;}.cls-11{fill:#f6dfa3;}.cls-12{fill:#ede4d8;}.cls-13{fill:#faf8f4;}.cls-14{fill:#f1e6d2;}.cls-15{fill:#fbfaf8;}.cls-16{fill:#f7efe4;}.cls-17{fill:#f9f3eb;}.cls-18{fill:#f8f4ec;}.cls-19{fill:#996a19;}</style></defs><title>26</title><path class="cls-1" d="M154.8,127.26c-.4.42-.08.85.07,1.21a48.55,48.55,0,0,1,3.59,15c.16,2,.11,3.89.18,5.83-.22.54-.73.6-1.19.68a6,6,0,0,0-3.16,1.58c-.88.81-1.28.69-1.53-.45-.91-4.08-3.8-5.32-7.13-5.54a7.35,7.35,0,0,0-7.46,4.9c-.17.45-.33.9-.47,1.36a3.36,3.36,0,0,1-2.38,2.53,6.61,6.61,0,0,0-4.07,4.44,12.31,12.31,0,0,0-.61,4c0,3.79.06,7.58,0,11.38a2.54,2.54,0,0,1-1.14,2.32,5.52,5.52,0,0,0-2.23,3.83c-.56,3.1,0,5.87,2.44,8.07,1.12,1,1.33,3.81.39,4.83l-.14-1.13a53.86,53.86,0,0,1-10.34,3.44c-.71.17-1.63-.1-2.08.8a.42.42,0,0,1-.42-.35,7.93,7.93,0,0,0-1.55-3.21c-.44-.56-.24-1.09,0-1.67a8.34,8.34,0,0,0,.84-6,7,7,0,0,0-3-4.16c-2.2-1.39-4.44-2.7-6.72-4-1.45-.8-1.5-1-.35-2.13a66.67,66.67,0,0,0,8.07-10.11,6.6,6.6,0,0,0-.22-8c-3.61-4.84-9.92-4.44-12.68-.1a34.36,34.36,0,0,1-2.45,3.1c-.27.35-.57.67-.87,1s-.42.45-.72.34-.32-.43-.34-.71c-.07-1-.05-2.08,0-3.12a12.84,12.84,0,0,0-.35-3.21,8.1,8.1,0,0,0-7.44-6.74,34.52,34.52,0,0,0-4.55-.27Q73.4,147,62,147c-.59,0-1.21.14-1.73-.29a49.76,49.76,0,0,1,2-13.44c.09-.33.35-.64.12-1,.58-.44.8-.43,1.12.12a4.27,4.27,0,0,1,.38,1.26c.43,2,.86,3.91,1.31,5.85a8,8,0,0,0,8,6.27,8.09,8.09,0,0,0,8.23-6.24,8.66,8.66,0,0,0,.06-4.26c-.45-1.82-.82-3.67-1.23-5.5-.37-1.61-.33-1.7,1.25-2l20.39-4.45c4.34-1,8.67-1.94,13-2.85s6.68-6.22,6-9.71c-1-5.16-6.5-7.59-10.64-6.61-10.62,2.52-21.32,4.72-32,7-.64.14-1.4.59-2-.2.53-1.18,1.75-1.62,2.61-2.45s2.19-1.41,3-2.44c2.28-.75,4.66-1.1,7-1.62,6-1.34,11.94-2.62,17.91-3.93A6.89,6.89,0,0,0,110,98.67c.38-.34.68-.81,1.29-.78a3.55,3.55,0,0,0,2.13.46,40.36,40.36,0,0,1,5.25.7c.31.06.62.14.86-.18.74.26.59,1,.71,1.5,1.16,5.27,2.18,10.57,3.52,15.79,1.72,6.64,6,10.76,12.61,12.66a19.78,19.78,0,0,0,10.63-.19c2.17-.55,4.38-.92,6.55-1.45C154,127.08,154.42,126.85,154.8,127.26Z" transform="translate(-7.62 -14.71)"/><path class="cls-2" d="M111.31,97.89a8.88,8.88,0,0,1-5,3c-8.07,1.69-16.11,3.47-24.17,5.23a1,1,0,0,0-.3.17c-1.13.79-2.49.78-3.76,1.09-1.51.36-2.24.28-1.57,2.21a1.14,1.14,0,0,1-.11,1c.14.79.65.36,1,.28q10.83-2.32,21.64-4.68c4.09-.89,8.16-1.91,12.28-2.67a8.77,8.77,0,0,1,9.68,6.2,9.07,9.07,0,0,1-4,10.15,16.27,16.27,0,0,1-4.34,1.28q-15.78,3.48-31.57,6.88c-.79.17-.84.45-.7,1.09q.77,3.32,1.47,6.66A8.64,8.64,0,0,1,77,145.26a8.77,8.77,0,0,1-11.19-3.44c-1.11-1.77-1.16-3.88-1.68-5.84-.29-1.08-.51-2.17-.72-3.27-.12-.63-.38-.86-1-.49-5.77,1.25-11.55,2.48-17.32,3.74-5.58,1.21-11.13,2.53-16.73,3.63a8.48,8.48,0,0,1-9.48-5.77,8.82,8.82,0,0,1,1.57-8.66,7.67,7.67,0,0,1,4.5-2.76l32.87-7.18c1.63-.36,1.64-.34,1.28-2-.43-2-.43-2-2.34-1.55q-14.51,3.18-29,6.34a8.64,8.64,0,0,1-9.41-4.61,8.84,8.84,0,0,1,4.1-12,23,23,0,0,1,4.28-1.1,9,9,0,0,1,1.17-.25c.58-.07.66-.31.34-.78-.49-.73-.91-1.51-1.43-2.21a11.38,11.38,0,0,1-2.24-5.73c-.06-.69-.33-.63-.84-.51-1.75.4-3.51.76-5.26,1.14A8.47,8.47,0,0,1,8.28,85.72a8.93,8.93,0,0,1,4-9.79,11.5,11.5,0,0,1,3.19-1q16-3.53,32.05-7a7.77,7.77,0,0,1,.93-.21c.42,0,.62-.13.53-.65s-.35-.47-.74-.38L37.61,69c-6.67,1.45-13.32,3-20,4.34a8.57,8.57,0,0,1-9.58-6,9,9,0,0,1,3.83-10.3c1.66-1,3.56-1.17,5.38-1.57,9-2,17.93-3.92,26.91-5.86.62-.13,1-.29,1-1.1C45.48,45.11,47,42.39,50.3,41A8.9,8.9,0,0,1,60,42.57a7.3,7.3,0,0,1,1.69,2.31,1,1,0,0,0,1.28.64q13.8-3.06,27.6-6.05c2-.45,4-.94,6.25-.41a8.85,8.85,0,0,1,6.34,10,8.24,8.24,0,0,1-7,7.09C86.48,58.29,76.74,60.45,67,62.59a2,2,0,0,1-.35.06c-.48.05-.74.25-.61.78s.52.33.86.26l9.71-2.12c8.15-1.78,16.28-3.65,24.45-5.31A8.45,8.45,0,0,1,110.47,62a8.71,8.71,0,0,1-3.83,10.46c-1.6.89-3.43,1-5.16,1.47-1,.28-2.44.17-3,.82s.34,1.92.44,3c.19,2.1-.4,4.12-.59,6.19,0,.23-.06.47-.11.86,1.69-.36,3.3-.73,4.91-1a8.67,8.67,0,0,1,9.57,5.83A9.19,9.19,0,0,1,111.31,97.89Z" transform="translate(-7.62 -14.71)"/><path class="cls-2" d="M154.8,127.26c-3.69.79-7.37,1.69-11.09,2.36a18.53,18.53,0,0,1-18.14-8.22c-1.86-3-2.41-6.38-3.17-9.71-1-4.27-1.9-8.55-2.85-12.82q-2-9.18-4-18.36c-1.3-6-2.63-11.92-3.93-17.89A8.16,8.16,0,0,1,113,56.24c.4-.62.38-.83-.27-1.23a8.39,8.39,0,0,1-4-5.72c-.77-3.75-1.63-7.49-2.44-11.23a8.35,8.35,0,0,1,4.6-9.36c4.37-1.94,9-.83,11.54,3.28,1.06,1.7,1.14,3.72,1.6,5.61.69,2.79,1.24,5.61,1.83,8.42a8.15,8.15,0,0,1-1.24,6.28c-.37.6-.53.89.22,1.34a8,8,0,0,1,3.92,5.61c.1.62.29,1.23.52,2.16A10,10,0,0,1,131,57.21a8.24,8.24,0,0,1,4.61-3q21.22-4.63,42.44-9.3l20.12-4.37a8.6,8.6,0,0,1,10.06,6.34,9.05,9.05,0,0,1-3.67,9.74,10.42,10.42,0,0,1-3.48,1.23Q182,62,162.83,66.14a1.31,1.31,0,0,0-1.24,1.38c-.4,5.3-.84,10.6-1.27,15.89-.21,2.67-.42,5.34-.68,8-.08.84,0,1.12,1,.89,2.44-.61,4.91-1.1,7.36-1.64a9,9,0,0,1,3.51-1.1l21.3-4.65c2.42-.53,2.42-.52,2.8-2.83-.21-1-.4-2-.63-3a8.46,8.46,0,0,1,3.76-9.54c4.93-3.16,11.68-.66,13.07,4.91.58,2.32,1.11,4.65,1.53,7,.63,3.59-.33,7-1.61,10.26-.16.41-.35.8-.53,1.2a10.81,10.81,0,0,1-3.41,4.6,40.6,40.6,0,0,1,4.69-1,1.44,1.44,0,0,1,1.13.27c1.51.45,3.08.66,4.43,1.66a8.78,8.78,0,0,1,3.67,7.89,8.32,8.32,0,0,1-5.19,7.43L216,114a2.3,2.3,0,0,1-1.41.59l-46.76,10.21a2.59,2.59,0,0,1-1.76.08Z" transform="translate(-7.62 -14.71)"/><path class="cls-2" d="M130.12,193.22a19,19,0,0,0,.17-3.69c0-.51-.43-.64-.73-.85-3.59-2.54-4-10.17.06-12.69a1.49,1.49,0,0,0,.74-1.48c0-4.23-.05-8.47,0-12.7a8.49,8.49,0,0,1,3.82-7.33,2.16,2.16,0,0,1,.94-.5c1.55,0,1.9-1.19,2.26-2.34a8.86,8.86,0,0,1,3.73-5.37c3.39-2.09,8.75-1.06,11,2.18a11.23,11.23,0,0,1,1.24,3.67c1.36-2,3.37-2.34,5.32-2.84,2.48,0,5,0,7.43-.06a15.24,15.24,0,0,1,4.7.79c.29.09.55.37.89.12,1.85-1.32,4-1.44,6.17-1.66a103.29,103.29,0,0,0,12.51-2.08,7,7,0,0,1,7.86,4.4c1,2.82,1.19,5.64-.62,8.24a6,6,0,0,1-3.69,2.49c-.7.15-1,.42-.95,1.18.07,1.52.05,3,0,4.56,0,.65.08,1,.86,1.05a7.12,7.12,0,0,1,5.41,2.9c2.76,4.06,1.76,11.54-4.78,12.57-1.19.19-1.57.56-1.51,1.76.11,2.17,0,2.14,2.16,2.86a6.29,6.29,0,0,1,3.83,3.58c1.57,3.68.7,8.76-3.06,10.6-.05,0-.08.12-.15.25a10.79,10.79,0,0,1,1.54.55c5.13,2.68,4.84,10.53.86,13.33a6.82,6.82,0,0,1-3.59,1.2c-9.09.51-17.87-.59-25.84-5.41-.63-.38-.88-.2-1.24.26a22,22,0,0,1-4.93,4.5,7,7,0,0,1-7.37.61,1.51,1.51,0,0,0-1.13-.2c-2.33.71-4.53,0-6.66-.78a23.63,23.63,0,0,1-5-2.18c-.38-.25-.55-.12-.77.17-3.5,4.49-9.92,2.66-12.17-1a7.73,7.73,0,0,1-.86-5.55A103.53,103.53,0,0,0,130.12,193.22Z" transform="translate(-7.62 -14.71)"/><path class="cls-2" d="M60.26,146.67l25.3.05c1,0,2.08,0,3.12.12,5.8.47,8.41,4.06,8.74,9.37.09,1.51,0,3,0,4.76a32.34,32.34,0,0,0,3.1-3.6,9.94,9.94,0,0,0,.79-1.05c2.86-4.32,8.49-4.61,12.23-.91a7.32,7.32,0,0,1,1,9.67A73.43,73.43,0,0,1,106,175.66a3.74,3.74,0,0,0-.31.4c2.6,1.4,5.09,2.92,7.62,4.37,3.86,2.21,4.74,7,2.56,10.86-.37.64-.43,1,.09,1.51a7.13,7.13,0,0,1,1.6,3.53c.4,3.36-.73,6.48-1.61,9.62a21.3,21.3,0,0,1-4.06,8.21,9.74,9.74,0,0,1-9.83,3.57c-7.19-1.4-12-5.95-15.67-12-3-4.92-4.14-10.42-5-16-.12-.75-.19-1.51-.28-2.26a10.92,10.92,0,0,1-.57-4.24c0-6.07,0-12.15,0-18.23,0-1.87,0-1.88-1.84-1.88-4.68,0-9.36,0-14,0a3.64,3.64,0,0,1-2-.36c-3,0-6.06,0-9.1,0a7,7,0,0,1-6.33-3.39c-2.3-3.71-1.65-9.23,2.23-11.53a8.62,8.62,0,0,1,4.36-1C56,146.7,58.11,146.7,60.26,146.67Z" transform="translate(-7.62 -14.71)"/><path class="cls-3" d="M166.05,124.85q8.17-1.81,16.36-3.63,16.31-3.57,32.63-7.11c.31-.07.63-.1.94-.14a25.45,25.45,0,0,1-5.63,12.48,26.5,26.5,0,0,1-14.6,9.43A27.16,27.16,0,0,1,171,130.32,22,22,0,0,1,166.05,124.85Z" transform="translate(-7.62 -14.71)"/><path class="cls-2" d="M127.9,35a8.69,8.69,0,0,1,6.52-8.43c12.32-2.65,24.62-5.39,36.94-8.08,5.57-1.22,11.14-2.45,16.72-3.63a8.62,8.62,0,0,1,9.26,5.05,8.9,8.9,0,0,1-3.55,11.27,14,14,0,0,1-4.45,1.32q-25.77,5.66-51.56,11.25c-3.7.8-8.31-2-9.31-5.71A10.48,10.48,0,0,1,127.9,35Z" transform="translate(-7.62 -14.71)"/><path class="cls-1" d="M62.64,162.75c5.79,0,11.57,0,17.36-.05,1,0,1,.48,1,1.18q0,9,0,18.08c0,1.83.08,3.67.12,5.5a21.41,21.41,0,0,1-4.15-3.17A49.44,49.44,0,0,1,62.8,163.07,2.39,2.39,0,0,0,62.64,162.75Z" transform="translate(-7.62 -14.71)"/><path class="cls-3" d="M195.6,82.09c.61,2,.36,2.47-1.67,2.91Q181,87.85,168,90.67a27.94,27.94,0,0,1,16.58-9,26.34,26.34,0,0,1,9.85.29C194.8,82,195.21,82,195.6,82.09Z" transform="translate(-7.62 -14.71)"/><path class="cls-3" d="M213.6,96.72c-2.19,0-4.21.82-6.67,1.14a22.27,22.27,0,0,0,4.26-5A21.9,21.9,0,0,1,213.6,96.72Z" transform="translate(-7.62 -14.71)"/><path class="cls-4" d="M76.39,110.63c-.12-1-1-2.21-.4-2.94s1.82-.57,2.79-.78,2-.42,3-.62c0,.07.11.19.1.19C80,107.8,78.37,109.42,76.39,110.63Z" transform="translate(-7.62 -14.71)"/><path class="cls-5" d="M30.73,86.88a4.73,4.73,0,0,0,1.42-1.66c0-.58.44-.7.8-.89a6.63,6.63,0,0,1,4.38-.56,6,6,0,0,1,2.86,2.45c2.11,3.28,4.23,6.57,6.31,9.88a1.74,1.74,0,0,0,2.19.85q16.55-3.67,33.1-7.29a6.08,6.08,0,0,0,1.8-.61c1-.79.55-2,.7-2.91.41-2.66.67-5.35,1-8a4,4,0,0,0,0-1.19A8.71,8.71,0,0,1,87,73a6.14,6.14,0,0,1,4.51-1.36A1.48,1.48,0,0,1,92.7,72a5.32,5.32,0,0,1,2.85,6.19c-.5,2.66-.69,5.38-1.11,8.06-.14.89.14.94.85.77,2.56-.58,5.13-1.14,7.7-1.71,4.07-.92,6.9,1.55,6.45,5.7-.08.78.2,1.6-.22,2.35-.28-.19-.18-.5-.25-.76a2.64,2.64,0,0,1-1.38,1.74,8.81,8.81,0,0,1-3,1.09l-26.95,5.93c-1,.21-2,.44-2.93.63-1.84.37-1.89.45-1.2,2.17-.48.21-.4.58-.31,1,.5,2.3,1,4.6,1.47,6.91.2,1,.85.53,1.29.43,3.75-.8,7.49-1.64,11.23-2.46q12.09-2.67,24.19-5.33a4.94,4.94,0,0,1,6.11,5.71c-.08.58.29,1.09.1,1.65-.16,0-.34,0-.43.16-1.14,1.86-3,2.36-5,2.79-11,2.4-22.08,4.87-33.14,7.23-2,.43-1.87,1.54-.75,2.57-.47.2-.82.34-.62,1.07.52,2,.81,4,1.35,6a6.11,6.11,0,0,1-.79,5.35c-1.62,2.65-6,2.6-7.86-.11A8.66,8.66,0,0,1,69.1,134c-.57-2.58-1.09-5.16-1.69-7.73-.28-1.23-.37-1.3-1.63-1-8.24,1.82-16.48,3.61-24.71,5.43-3.2.71-6.44,1.26-9.59,2.15-4,1.13-7.71-1.74-7-6.11.13-.14.34-.26.4-.43.89-2.49,2.92-3.19,5.27-3.69,10.87-2.32,21.72-4.75,32.58-7.14a5.3,5.3,0,0,0,.67-.23c1.5-.89,1.5-.89,1.08-2.68-.48-2.1-.89-4.22-1.37-6.32-.34-1.48-.42-1.53-2-1.19q-15,3.3-30.06,6.6a11.3,11.3,0,0,1-2.25.32,5.1,5.1,0,0,1-5.08-6.84,7.4,7.4,0,0,0,.66-.82A5.2,5.2,0,0,1,28,101.8l4.53-1c.34-.08.74,0,.86-.5a11.51,11.51,0,0,1,1.75-.34c1.09-.26,1.15-.37.59-1.32-1.24-2.08-2.55-4.13-3.88-6.16C30.71,90.76,30,89,30.73,86.88Z" transform="translate(-7.62 -14.71)"/><path class="cls-5" d="M63.36,59.52c.17,2.2.9,4.28,1.26,6.44.12.73.65.39,1,.3Q71.44,65,77.21,63.74c8.05-1.77,16.11-3.56,24.16-5.31a4.81,4.81,0,0,1,5.95,5.75c-.09.54.08,1.12-.25,1.63-1.42,1.84-3.45,2.39-5.61,2.86Q72.15,75,42.87,81.52,32.43,83.8,22,86.1a10.12,10.12,0,0,1-3.33.37,4.51,4.51,0,0,1-3.89-2.8,4.46,4.46,0,0,1,.31-4.77c1.41-2.08,3.68-2.33,5.86-2.81q15.52-3.39,31-6.81c.61-.13,1.34-.14,1.08-1.12,1.55.46,1.79.24,1.43-1.35s-.67-3.05-1-4.57c-.3-1.31-.4-1.38-1.7-1.09-7.58,1.68-15.16,3.3-22.73,5-2.81.63-5.64,1.17-8.44,1.84a5.13,5.13,0,0,1-5.51-1.71,5,5,0,0,1-.74-5.5,4.4,4.4,0,0,0,.26-.8c4.3-3.11,9.55-3,14.4-4.26,6.27-1.57,12.62-2.8,18.93-4.21.48-.11,1.33.1,1.28-.88a1.42,1.42,0,0,1,.58,0c.83.08,1.19-.22,1-1.1A7.19,7.19,0,0,1,50.51,47a5.1,5.1,0,0,1,.78-2.2l1.11-.9a4.88,4.88,0,0,1,8,2.75c.45,2,.45,2,2.44,1.57l31-6.79A5,5,0,0,1,99.76,48c-.17.52-.39,1-.58,1.55a5.6,5.6,0,0,1-3.51,2l-31,6.79C64,58.46,63.4,58.66,63.36,59.52Z" transform="translate(-7.62 -14.71)"/><path class="cls-6" d="M24.44,126.69c.44.33.26.81.27,1.22a4.83,4.83,0,0,0,6.07,4.68c11.87-2.63,23.75-5.2,35.62-7.85,1.08-.24,1.12.3,1.27,1,.61,2.83,1.33,5.65,1.81,8.51.73,4.44,5.19,6.34,8.74,3.07a4.9,4.9,0,0,1-4.52,5,5,5,0,0,1-5.27-3.94c-.74-3.23-1.48-6.46-2.12-9.71-.19-1-.54-1-1.37-.83q-18.18,4-36.37,8a5,5,0,0,1-6-2.87A4.92,4.92,0,0,1,24.44,126.69Z" transform="translate(-7.62 -14.71)"/><path class="cls-7" d="M15.1,78.9a7.84,7.84,0,0,0-.42,3.4,4.65,4.65,0,0,0,5.76,3.8C25.64,85,30.83,83.8,36,82.67l27-5.9q10.41-2.28,20.82-4.59,9.25-2,18.5-4a6.74,6.74,0,0,0,4.29-2.36c.17-.22.33-.58.44,0a5.66,5.66,0,0,1-4.78,4.08c-3.21.64-6.4,1.42-9.59,2.14a7,7,0,0,0-5.58,1.17,3.84,3.84,0,0,1-1.53.64C70.41,77.19,55.21,80.46,40,83.8a4.63,4.63,0,0,1-2.58.21c-1.87-.05-3.75-.16-5.3,1.21l-13.87,3c-.3.07-.62.1-.93.15a3,3,0,0,1-1.55,0c-1.68.12-3.85-2-4-4.14C11.53,81.56,12.9,79.43,15.1,78.9Z" transform="translate(-7.62 -14.71)"/><path class="cls-6" d="M23.72,105.09c.26.17.16.38.12.63-.58,3.88,2.36,6.6,6.2,5.75q15.89-3.51,31.78-7c.8-.17,1.24,0,1.43.87.55,2.77,1.11,5.54,1.82,8.27.31,1.17-.18,1.45-1.11,1.58-.2,0-.4,0-.6,0-.54-2.41-1.13-4.82-1.58-7.25-.17-.9-.44-1.09-1.31-.9Q49.31,109.54,38.14,112q-5.45,1.2-10.89,2.36a5,5,0,0,1-5.71-3.06A4.87,4.87,0,0,1,23.72,105.09Z" transform="translate(-7.62 -14.71)"/><path class="cls-6" d="M78.28,124.83c-1.39.13-1-1.06-1.2-1.74s.5-.82,1.07-.94q9.42-2,18.85-4.12c5.54-1.22,11.08-2.49,16.63-3.69A4.79,4.79,0,0,0,116.9,112c.48-.82.46,0,.66.12a4.78,4.78,0,0,1-4,5.07q-15.76,3.5-31.55,6.91C80.78,124.34,79.53,124.57,78.28,124.83Z" transform="translate(-7.62 -14.71)"/><path class="cls-6" d="M14.63,60c.71.19.18.56.08.8a4.91,4.91,0,0,0,3.72,7.07,6.77,6.77,0,0,0,2.82-.35l29-6.32a16,16,0,0,0,2.32-.53c.81-.31,1,.07,1.08.71.44,2.06.9,4.11,1.35,6.16.11.47.47,1-.38,1.21s-1.24.22-1.51-.58c-.4-1.75-.84-3.49-1.17-5.25-.14-.71-.38-.79-1-.65q-13.73,3-27.45,6c-1.91.42-3.81.86-5.72,1.26a5,5,0,0,1-6.1-3.33A4.94,4.94,0,0,1,14.63,60Z" transform="translate(-7.62 -14.71)"/><path class="cls-6" d="M73.48,104.19c-.92-.21-.8-1.06-.88-1.65s.68-.55,1.08-.64c8.66-1.91,17.31-3.78,26-5.68,2.1-.45,4.19-.92,6.27-1.44a4.66,4.66,0,0,0,3.2-2.68l.1,1.29c-.45,2.34-2,3.5-4.22,4L83.87,102C80.41,102.73,76.94,103.45,73.48,104.19Z" transform="translate(-7.62 -14.71)"/><path class="cls-8" d="M63.36,59.52c-.58-.81-.36-1.22.61-1.43L89.89,52.4C92,52,94,51.54,96.07,51.11a5.21,5.21,0,0,0,2.69-1.46c.12-.13.17-.42.42-.14a4.49,4.49,0,0,1-3.47,3Q79.54,56,63.36,59.52Z" transform="translate(-7.62 -14.71)"/><path class="cls-6" d="M30.73,86.88c.36,0,.35.25.24.51-.66,1.68,0,3.13.86,4.52,1.45,2.34,2.91,4.67,4.43,7,.56.85.42,1.17-.57,1.27-.76.08-1.49.6-2.29.18C32,98.13,30.58,96,29.21,93.76,27.65,91.25,28.25,88.62,30.73,86.88Z" transform="translate(-7.62 -14.71)"/><path class="cls-4" d="M51.29,44.82c.05.1.16.24.13.29a6,6,0,0,0-.32,4.59c.08.35.6.89-.07,1.12s-1.28.68-1.79-.18C48.54,48,49.21,46.13,51.29,44.82Z" transform="translate(-7.62 -14.71)"/><path class="cls-5" d="M15.8,88.34l1.55,0A1.7,1.7,0,0,1,15.8,88.34Z" transform="translate(-7.62 -14.71)"/><path class="cls-5" d="M133.39,64.38a7.89,7.89,0,0,1-1-3.75,4.72,4.72,0,0,1,3.83-4.49c7.24-1.62,14.5-3.2,21.74-4.79,12.48-2.75,25-5.43,37.41-8.28a7.44,7.44,0,0,1,6,1.32,6.19,6.19,0,0,1,1,3.06c0,.37,0,.74,0,1.1a5,5,0,0,1-4.09,4.32c-5,1.21-10.12,2.27-15.19,3.37-8.27,1.8-16.53,3.64-24.8,5.43A1.39,1.39,0,0,0,157,63.2c0,1.23-.21,2.46-.31,3.69a3.4,3.4,0,0,0-.13,1.38c0,1.46-.28,2.9-.33,4.35a3.51,3.51,0,0,0-.14,1.44c-.22,3.62-.54,7.23-.82,10.84-.15,1.86-.31,3.73-.46,5.59a4,4,0,0,0-.19,1.32,20.35,20.35,0,0,0,0,2.47c.87-.14.27-1.28,1.07-1.4a3,3,0,0,1,0,.6c-.18.86.17,1,1,.83q18.39-4.08,36.78-8.13a4.61,4.61,0,0,0,3.64-5.56c-.28-1.45-.62-2.88-.92-4.32a5,5,0,0,1,2.33-5.66,4.85,4.85,0,0,1,6,1c.36.35.82.47,1.16.8.37,2,.91,4,1.3,6a17,17,0,0,1,.17,5.13,14.47,14.47,0,0,1-10.77,12.31c-7.73,1.83-15.51,3.46-23.28,5.16s-15.67,3.47-23.52,5.15a4.75,4.75,0,0,1-4.86-1.54c-1.33-1.89-1.09-4-.9-6.12Q144.9,86.67,146,74.79c.24-2.63.48-5.25.71-7.88,0-.4.21-.93-.51-1a.89.89,0,0,1,.2-.55.76.76,0,0,0,.09-.79c-.22-.35-.58-.17-.87-.1-2.1.48-4.22.86-6.31,1.38S135,66.23,133.39,64.38Z" transform="translate(-7.62 -14.71)"/><path class="cls-9" d="M141.2,126.08a14.43,14.43,0,0,1-14.39-11.59c-3.86-17.35-7.6-34.73-11.41-52.1a16.83,16.83,0,0,1-.26-2.74,4.86,4.86,0,0,1,9.56-1.4c.81,3.28,1.52,6.58,2.24,9.88q3.54,16.19,7.06,32.38c.67,3.08,1.36,6.14,2.05,9.21a4.17,4.17,0,0,0,5.09,3.35c6.05-1.26,12.09-2.61,18.13-3.94l49.47-10.88a4.8,4.8,0,0,1,5.45,2.06,2,2,0,0,0,.81.68,5.23,5.23,0,0,1,2.9,5.66c-.32,2-1.89,3.47-4.27,4l-30.29,6.6q-19.76,4.3-39.52,8.61A19.46,19.46,0,0,1,141.2,126.08Z" transform="translate(-7.62 -14.71)"/><path class="cls-6" d="M139.7,108.7c-.8-3.45-1.62-6.9-2.38-10.37-2.22-10.11-4.43-20.23-6.71-30.71a10,10,0,0,0,6.06,3.7c2.45.46,4.61-.74,7.08-.91-.18,2.15-.36,4.32-.56,6.48q-.9,10-1.83,20c-.11,1.23-.13,2.47-.32,3.7-.67,4.26,0,8,3.87,10.63-.26.41-.62.29-.91.35a1.26,1.26,0,0,1-1.44-.25A25.76,25.76,0,0,1,139.7,108.7Z" transform="translate(-7.62 -14.71)"/><path class="cls-6" d="M144.71,104.66c.87.12,1.36.91,2.19,1.18,1.52.49,2.94,0,4.35-.31q17.59-3.86,35.16-7.79c3.34-.74,6.73-1.31,10-2.24a13.71,13.71,0,0,0,10.2-10.82c.87-3.82-.2-7.5-1.1-11.18-.08-.3-.69-.81.15-1a4.3,4.3,0,0,1,2.54,3,56,56,0,0,1,1.28,6c1.18,8.29-3.78,15-12.31,16.91l-46,10C147.75,109.13,145.22,107.67,144.71,104.66Z" transform="translate(-7.62 -14.71)"/><path class="cls-5" d="M110.38,39.17a9.56,9.56,0,0,1-.44-4.71,4.82,4.82,0,0,1,4.64-3.94,4.69,4.69,0,0,1,4.88,3.61c.64,2.58,1.17,5.19,1.73,7.79.34,1.55.63,3.1.93,4.66-.09,3.94-4.71,6-7.86,3.94a5.69,5.69,0,0,1-2-2.72c-.69-2.3-1.09-4.67-1.59-7,.24-.56-.16-1-.18-1.56,0-.16-.07-.25,0-.09Z" transform="translate(-7.62 -14.71)"/><path class="cls-10" d="M156,72.72c-.15-1.54.31-3,.25-4.56.29-.36,0-.84.23-1.21-.15-1.52.32-3,.25-4.52,0-.69.39-.87.95-1l27-5.92c4.54-1,9.08-2,13.61-3a4.59,4.59,0,0,0,3.81-4.06,1.37,1.37,0,0,0,0-1.2,3.63,3.63,0,0,0-.84-2.38c-.23-.26-.35-.45.13-.51a5.38,5.38,0,0,1,3.37,4.42c.36,2-1.63,4.7-3.89,5.2q-8.66,2-17.32,3.83-12.33,2.69-24.68,5.32a5.67,5.67,0,0,0-.66.22c-.36.45,0,1-.24,1.5l-.08,1.36c-.22.57.05,1.18-.17,1.74l-.08,1.39c-.19.48,0,1-.15,1.5l-.08,1.38c-.2.48,0,1-.16,1.51l-.08,1.36c-.22.57.05,1.17-.17,1.73L156.92,78c-.22.57.05,1.18-.17,1.75l-.07,1.38c-.2.48,0,1-.16,1.51L156.44,84c-.2.49,0,1-.16,1.51l-.08,1.36c-.22.57.05,1.18-.17,1.74L156,90c-.19.48,0,1-.15,1.5l-.08,1.37c-.34.38-.14.84-.23,1.26a.8.8,0,0,1-1,.62c-.57-.07-.29-.48-.25-.82.06-.67.06-1.35.08-2,.29-.36,0-.84.23-1.21.12-4.07.63-8.11.91-12.17a44.6,44.6,0,0,0,.3-4.62C156.05,73.56,155.73,73.08,156,72.72Z" transform="translate(-7.62 -14.71)"/><path class="cls-8" d="M133.39,64.38c.25-.31.42,0,.56.11,1.34,1.52,3.06,1.55,4.83,1.2,2.26-.45,4.49-1,6.74-1.5.43-.09,1.08-.55,1.32.12a1.17,1.17,0,0,1-.68,1.64c-2.44.54-4.87,1.11-7.31,1.61A4.8,4.8,0,0,1,133.39,64.38Z" transform="translate(-7.62 -14.71)"/><path class="cls-4" d="M112.28,47.8c.1-.08.19-.14.27,0,1,2.07,2.91,3.41,4.63,3.27,2.39-.19,4.59-2.09,4.76-4.23,0-.1.12-.2.18-.29a4.84,4.84,0,0,1-4.43,5.87C115,52.82,112.68,50.81,112.28,47.8Z" transform="translate(-7.62 -14.71)"/><path class="cls-11" d="M139.7,108.7a12.31,12.31,0,0,1,2.84,2.29,1.75,1.75,0,0,0,1.46.63,2.74,2.74,0,0,1-.54.21C140.22,112.32,139.92,112.07,139.7,108.7Z" transform="translate(-7.62 -14.71)"/><path class="cls-12" d="M110.38,39.17c0-.11.18-.34.19-.26.07.62.62,1.23.12,1.88Z" transform="translate(-7.62 -14.71)"/><path class="cls-5" d="M156,88.62c0-.58-.2-1.19.17-1.74A3.55,3.55,0,0,1,156,88.62Z" transform="translate(-7.62 -14.71)"/><path class="cls-5" d="M157.71,68c0-.59-.2-1.19.17-1.74A3.67,3.67,0,0,1,157.71,68Z" transform="translate(-7.62 -14.71)"/><path class="cls-5" d="M156.75,79.75c0-.59-.2-1.2.17-1.75A3.6,3.6,0,0,1,156.75,79.75Z" transform="translate(-7.62 -14.71)"/><path class="cls-5" d="M157,76.85c0-.58-.2-1.18.17-1.73A3.62,3.62,0,0,1,157,76.85Z" transform="translate(-7.62 -14.71)"/><path class="cls-5" d="M157.48,70.87c0-.51-.19-1,.15-1.5A2.84,2.84,0,0,1,157.48,70.87Z" transform="translate(-7.62 -14.71)"/><path class="cls-5" d="M157.24,73.76c0-.51-.19-1,.16-1.51A2.89,2.89,0,0,1,157.24,73.76Z" transform="translate(-7.62 -14.71)"/><path class="cls-5" d="M155.8,91.51c0-.51-.19-1,.15-1.5A2.84,2.84,0,0,1,155.8,91.51Z" transform="translate(-7.62 -14.71)"/><path class="cls-5" d="M158,64.88c0-.51-.27-1.07.24-1.5C158.08,63.87,158.23,64.41,158,64.88Z" transform="translate(-7.62 -14.71)"/><path class="cls-5" d="M156.52,82.64c0-.52-.19-1,.16-1.51A2.89,2.89,0,0,1,156.52,82.64Z" transform="translate(-7.62 -14.71)"/><path class="cls-5" d="M156.28,85.52c0-.51-.19-1,.16-1.51A2.78,2.78,0,0,1,156.28,85.52Z" transform="translate(-7.62 -14.71)"/><path class="cls-5" d="M155.81,159.05a8,8,0,0,1-.08-3.21c.46-1.67,1.36-2.62,3.1-2.67,3-.1,6-.14,9,0a3.54,3.54,0,0,1,3.55,4.09c-.2,3.33-1.3,6.48-2,9.71-.36,1.59-.8,3.17-1.2,4.76-.31,1.23-.22,1.41,1.09,1.36a4.76,4.76,0,0,1,3.79,1.09c.27.25.47.24.62-.11.83-1.89,2.47-2.07,4.23-2H178c1,0,2.31.5,2.85-.18s.2-1.91.21-2.9c.05-2.56,0-5.12.12-7.68,0-.87-.28-1.06-1.1-1-1.44,0-2.85.42-4.3.13-2-.4-3-1.68-3-4s.73-3.51,2.9-3.79c5.26-.68,10.52-1.42,15.71-2.56,1.76-.38,3.46,1.35,3.75,3.56.36,2.76-.51,4-3.31,4.58s-2.66.59-2.66,3.32c0,3.16,0,6.32,0,9.48,0,.81.28,1.06,1,1,1.12,0,2.25,0,3.36.05a3.27,3.27,0,0,1,3.31,3.14c.26,2.64-.59,4.21-2.58,4.77a14.1,14.1,0,0,1-4.05.18c-.71,0-1.08.1-1.06,1q.08,4.72,0,9.47c0,.85.3,1,1,1a9.7,9.7,0,0,1,3,.16c2,.5,2.91,2,2.7,4.56a3.41,3.41,0,0,1-3.39,3.36c-5.2,0-10.4,0-15.6,0a3.26,3.26,0,0,1-2.92-2.3c-1-3.31.68-5.68,4.12-5.77,1,0,2.28.47,2.9-.17s.2-2,.21-3c0-2.4,0-4.8,0-7.2,0-.79-.25-1.09-1-1s-1.36,0-2,.06a4.74,4.74,0,0,1-3.82-1.06c-.27,2.5-.5,4.82-.76,7.14a62,62,0,0,1-2.56,12,1.71,1.71,0,0,0,.59,2.05c3.19,3.09,7.16,4.39,11.42,5,3.6.56,7.23.74,10.86,1a3.34,3.34,0,0,1,3.44,3.63c.07,2.52-1,4-3.19,4.08-9.47.46-18.53-.72-26.26-6.89-.55-.44-.76-.26-1.1.21a26.7,26.7,0,0,1-5.64,6.17c-2.32,1.7-3.27,1.69-5.49-.16a.65.65,0,0,0-.92-.08,5.42,5.42,0,0,1-4.95.34q-2.44-.84-4.8-1.86a2.66,2.66,0,0,1-1.67-2.56c0-2.86,1.9-4.5,4.71-3.94.84.17,1.1-.14,1.1-.9q0-8.76,0-17.52c0-.49-.14-.71-.67-.71-2,0-4.08,0-6.12,0-.78,0-.69.44-.69.93,0,3.6,0,7.19-.24,10.79a63.27,63.27,0,0,1-2.22,13.32,3.11,3.11,0,0,1-3.33,2.49c-2-.37-3.67-1.72-3.63-3.38.06-2.34.65-4.58.93-6.87A154.56,154.56,0,0,0,134.17,187c0-.67-.28-.73-.82-.83-1.94-.36-2.8-1.57-2.83-3.83s.68-3.4,2.76-3.79c.82-.15.8-.68.81-1.21.07-2.32.13-4.64.14-7,0-2.84,0-5.68,0-8.52s1.37-4.33,4-4.68a1.62,1.62,0,0,0,1.51-1.12q.88-2.48,1.91-4.91c.66-1.6,2.25-2.33,4.41-2.11a3.36,3.36,0,0,1,3.32,2.76,5.78,5.78,0,0,1-.78,3.44c-.71,1.72-.71,1.74,1.15,1.72C151.94,156.94,154.1,157,155.81,159.05Z" transform="translate(-7.62 -14.71)"/><path class="cls-5" d="M147.86,198c0,.84,0,1.68,0,2.52a1.89,1.89,0,0,1-2,2.06c-1.74.12-2.48-.34-2.68-1.82-.25-2-.42-4-.61-6-.1-1.11-.19-2.23-.25-3.35a2,2,0,0,1,1.63-2.17,2.49,2.49,0,0,1,3.09,1.14c.78,1.65.5,3.46.74,5.19a17.3,17.3,0,0,1,0,2.39Z" transform="translate(-7.62 -14.71)"/><path class="cls-4" d="M172.59,169.32c.42-1.68.83-3.16,1.15-4.67.14-.68.44-.88,1.07-.67l.34.11c.68.28,1.83-.18,2,.52a11.36,11.36,0,0,1,.07,3.2c0,.4-.3.39-.59.43A17.13,17.13,0,0,0,172.59,169.32Z" transform="translate(-7.62 -14.71)"/><path class="cls-5" d="M70.66,150.55c5.52,0,11,0,16.56,0a12.38,12.38,0,0,1,2.5.23c2.38.49,3.85,2.52,3.87,5.36,0,5.56.08,11.12,0,16.68a2.39,2.39,0,0,0,1.81,2.65,103.67,103.67,0,0,1,15.86,8.15,3.74,3.74,0,0,1,2,4.11,4.88,4.88,0,0,1-3.76,3.91A3.43,3.43,0,0,1,107,191a97.45,97.45,0,0,0-12.1-6.56c-.91-.43-1.13-.28-1.1.73a30.62,30.62,0,0,0,2.39,12.25,15,15,0,0,0,5.16,6.34c1.14.78,1.64.61,2.1-.74a53.59,53.59,0,0,0,1.7-6.23c.44-2.08,2.49-3.3,4.91-3s4.06,1.94,3.82,4.21a30.15,30.15,0,0,1-4,12.45c-2.08,3.47-5,4.49-8.81,3.18-6.2-2.14-10.1-6.7-12.74-12.45a41,41,0,0,1-3.51-17c-.07-7.84,0-15.67,0-23.51,0-1.64-.14-1.77-1.79-1.77-9.76,0-19.52,0-29.27,0a3.53,3.53,0,0,1-3.66-2.31,4.87,4.87,0,0,1,.69-5.06,3.94,3.94,0,0,1,3-1Z" transform="translate(-7.62 -14.71)"/><path class="cls-5" d="M100.28,174.51a4.61,4.61,0,0,1-4.23-3,3.57,3.57,0,0,1,1-4.24,80.76,80.76,0,0,0,7.43-8.78,3.71,3.71,0,0,1,4.11-1.75,5.34,5.34,0,0,1,3.67,3.77,2.68,2.68,0,0,1-.47,1.93A59.77,59.77,0,0,1,103.29,173,4,4,0,0,1,100.28,174.51Z" transform="translate(-7.62 -14.71)"/><path class="cls-11" d="M99.63,195.61A14.51,14.51,0,0,1,98,190.13l4.28,2.38c.28.16.59.33.25.72a6.81,6.81,0,0,0-1.07,2.63A1.42,1.42,0,0,1,99.63,195.61Z" transform="translate(-7.62 -14.71)"/><path class="cls-13" d="M99.63,195.61l1.84.25c-.31.65,0,1.46-.6,2.13A9.82,9.82,0,0,1,99.63,195.61Z" transform="translate(-7.62 -14.71)"/><path class="cls-14" d="M137,40.08c-3.46.07-5.42-2.71-5.91-5.68-.42-2.51,1.41-4.74,4.22-5.36q25.24-5.55,50.5-11.08a8.21,8.21,0,0,1,6.89,1.93,4.52,4.52,0,0,1,1.44,5,4.93,4.93,0,0,1-4,3.66l-13,2.84-39.27,8.54A7.91,7.91,0,0,1,137,40.08Z" transform="translate(-7.62 -14.71)"/><path class="cls-2" d="M37.45,84l26.91-5.85,22.76-5a17.58,17.58,0,0,0-1.65,3.61c-.29,3.12-.73,6.22-1.15,9.32-.13,1.05,0,2.16-.59,3.11-.26.43-.69.48-1.13.57q-17.22,3.8-34.44,7.61a1.28,1.28,0,0,1-1.64-.67c-1.72-2.82-3.55-5.58-5.33-8.38C40.15,86.73,39.21,85,37.45,84Z" transform="translate(-7.62 -14.71)"/><path class="cls-15" d="M83.73,89.24q.66-5.59,1.34-11.2a6.3,6.3,0,0,1,.4-1.23c.35.32.24.75.2,1.12-.34,2.81-.66,5.63-1.08,8.43a11.14,11.14,0,0,1-.34,2.69C84.12,89.38,84.06,89.6,83.73,89.24Z" transform="translate(-7.62 -14.71)"/><path class="cls-16" d="M156,72.72c0,.4.17.86-.23,1.2C155.81,73.51,155.61,73.06,156,72.72Z" transform="translate(-7.62 -14.71)"/><path class="cls-17" d="M154.55,90.71c0,.41.17.87-.23,1.21C154.37,91.51,154.17,91.06,154.55,90.71Z" transform="translate(-7.62 -14.71)"/><path class="cls-18" d="M202.09,47.28a.83.83,0,0,1,0,1.2Z" transform="translate(-7.62 -14.71)"/><path class="cls-17" d="M156.47,67c0,.41.17.87-.23,1.21C156.29,67.75,156.09,67.3,156.47,67Z" transform="translate(-7.62 -14.71)"/><path class="cls-2" d="M156.48,206.76c-.09-15.94.05-31.62-.13-47,.78,1.19,2.38,1.09,4,1.1,2.18,0,2.19,0,1.63,2.15-1.1,4.13-2.19,8.26-3.51,12.32-1.1,3.38.59,5.61,4.15,5.6.68,0,1.36,0,2,0,.87-.08,1.09.32,1.08,1.13a34.62,34.62,0,0,1-.63,6.27,7.43,7.43,0,0,1-.65-2c-.72-2-2.07-2.55-4.48-1.9a3,3,0,0,0-2.08,3.67,41.75,41.75,0,0,0,3.59,10.88,1.54,1.54,0,0,1-.06,1.64A21.22,21.22,0,0,1,156.48,206.76Z" transform="translate(-7.62 -14.71)"/><path class="cls-19" d="M149,171.78c0,1.88,0,3.76,0,5.63,0,.63-.08.94-.83.93-1.95-.05-3.91,0-5.87,0-.55,0-.77-.15-.76-.74,0-3.87.07-7.74.07-11.62,0-.78.38-1.08,1.09-1.09H148c.78,0,1,.44,1,1.15C149,168,149,169.87,149,171.78Z" transform="translate(-7.62 -14.71)"/><path class="cls-6" d="M41.39,87l39.79-8.69c-.19,1.72-.37,3.33-.57,4.94s-.4,3-.56,4.51a1.11,1.11,0,0,1-1,1.16c-9,1.93-18,3.91-27,5.88-1.4.3-2.8.63-4.2.93-.46.09-.87.19-1.22-.38-1.67-2.67-3.4-5.31-5.1-8A2,2,0,0,1,41.39,87Z" transform="translate(-7.62 -14.71)"/><path class="cls-5" d="M148.15,173.92a2.4,2.4,0,0,1-1.75,2.67,2.33,2.33,0,0,1-3-1.52,27.64,27.64,0,0,1-1.13-6.81c-.15-1.31.79-2,2.56-2.27,1.33-.19,2,.22,2.38,1.58A40.14,40.14,0,0,1,148.15,173.92Z" transform="translate(-7.62 -14.71)"/></svg>