<svg id="圖層_1" data-name="圖層 1" xmlns="http://www.w3.org/2000/svg" viewBox="0 0 230.22 195.71"><defs><style>.cls-1{fill:#38322f;}.cls-2{fill:#eccff1;}.cls-3{fill:#ecd0f1;}.cls-4{fill:#debcf6;}.cls-5{fill:#fefefe;}.cls-6{fill:#fefdfe;}.cls-7{fill:#a774f4;}.cls-8{fill:#debcf5;}.cls-9{fill:#a773f4;}.cls-10{fill:#fafafa;}.cls-11{fill:#fdfdfd;}.cls-12{fill:#f9f8f9;}.cls-13{fill:#383230;}</style></defs><title>45</title><path class="cls-1" d="M155.47,33.85c.79-2.26,2.53-3.48,5.28-3.53,3.2-.06,6.4-.08,9.6,0,3.57.09,5.57,2.22,5.6,5.79,0,1.76,0,3.52,0,5.28,0,.63.11.94.84.92,2.4,0,4.8,0,7.2,0a1,1,0,0,0,1-.59,5.4,5.4,0,0,1,5.07-2.59c8.28,0,16.56,0,24.84,0,3.73,0,5.88,2.17,5.89,5.89q.06,12.17.09,24.35c0,.48.05.95.08,1.43a1.69,1.69,0,0,1,.4,1.22c0,1.91,0,3.81,0,5.72A1.73,1.73,0,0,1,221,79c0,1.63-.08,3.26-.08,4.89q0,7.75.07,15.52a2,2,0,0,1,.41,1.57c0,7.51.06,15,0,22.53,0,2-.14,4-.23,6a5.32,5.32,0,0,1-4.7,5.37,12.8,12.8,0,0,1-2.62.2c-8.07,0-16.14,0-24.21,0-1.83-.36-3.65.09-5.49,0-3.43-.08-6.86,0-10.29,0-.84-.07-1.68,0-2.52-.09a6.75,6.75,0,0,1-3.94-1.57c-.37-.34-.69-.46-1.13-.06a5.76,5.76,0,0,1-6.35,1.11c-1.56-.75-3.09-1.57-4.67-2.27s-3.07-1.54-4.6-2.3a5.26,5.26,0,0,1-3.07-5.36c0-1-.28-1.24-1.19-1.24-5.15,0-10.3,0-15.44,0-.94,0-1.27.33-1.25,1.26,0,1.76,0,3.51,0,5.27-.67,3.7-2.47,5.22-6.23,5.24H112.54a6.42,6.42,0,0,1-4-1.14,5.66,5.66,0,0,1-2.1-4.51c0-.83,0-1.65,0-2.69-1.74,2-3.34,3.89-4.9,5.8a6.4,6.4,0,0,1-3.09,2.16,9.78,9.78,0,0,1-1.5.32,6.33,6.33,0,0,1-4.16-1.61,1,1,0,0,0-1.55-.05,5.62,5.62,0,0,1-6.61-.18c-1.48-1.1-2.75-2.44-4.14-3.63-1.21-1-1.23-1-2.36.08s-2.34,2.18-3.57,3.2a5.64,5.64,0,0,1-6.89.68,1,1,0,0,0-1.37.14A5.54,5.54,0,0,1,62.25,135q-5.1,0-10.19,0a5.49,5.49,0,0,1-4.68-2c-.36-.46-.65-.47-1,0-2.06,2.39-5.84,2-8.44.3-1.53-.57-3-1.2-4.59-1.69a5.19,5.19,0,0,1-3.23-6,3.2,3.2,0,0,0,.13-2.11,5.53,5.53,0,0,1,.12-3.72,3.45,3.45,0,0,1,.18-.57c1.95-4.11,2.33-8.44,2.17-12.93-.18-5.23-.07-10.47-.08-15.7A2.3,2.3,0,0,1,32.28,89c0-1.59.1-3.18,0-4.76a12.54,12.54,0,0,1,2-7.45q0-8.82,0-17.63c0-.46,0-.79-.62-.91-3.31-.65-4-3-4.12-5.48-.13-3.83-.07-7.67,0-11.51.05-3.66,2.26-5.73,6.06-5.73q16.31,0,32.62,0c.93,0,1.33-.22,1.49-1.17.51-3,2.65-4,5.2-4.13,3-.09,6-.08,9,0,2.61.07,4.9,1.29,5.33,4.3.13.92.61,1,1.38,1,10.63,0,21.26,0,31.9,0a19.27,19.27,0,0,1,2.73.27A4,4,0,0,1,129,38.52a7,7,0,0,1,.36,1.26,1.31,1.31,0,0,0,1.52,1.16c2.42,0,4.85,0,7.27,0a3.38,3.38,0,0,1,1.74.32h3.59a3.47,3.47,0,0,1,1.85-.35c2.71,0,5.41,0,8.12,0,.89,0,1.22-.3,1.19-1.17,0-1.11,0-2.23,0-3.34A4,4,0,0,1,155.47,33.85Z" transform="translate(-9.22 -30.19)"/><path class="cls-1" d="M127,175.92c-1.46,1.45-3.32,1.72-5.41,1.72,1.72,3.1,3.38,6.07,5,9.05a14.54,14.54,0,0,1,1.82,4.35c.71,3.77-.45,6.44-3.87,8.17-1.87.94-3.56,2.28-5.69,2.72a4.79,4.79,0,0,1-5.12-2c-1.45-2.33-2.75-4.76-4.09-7.16s-2.6-4.71-4.08-7c0,2.45,0,4.91,0,7.37a24.12,24.12,0,0,1-.29,4.65c-.63,3.21-2.61,4.22-5.23,4.29-4.79.11-9.59,0-14.39,0A4.46,4.46,0,0,1,81.36,199a4.16,4.16,0,0,1-.37-1.73A10.26,10.26,0,0,1,78.63,201a5.76,5.76,0,0,1-6.52.55c-.82-.41-1.62-.87-2.41-1.33-2-1.14-2-1.14-3.81.24a9.27,9.27,0,0,1-2.21,1.42,5.68,5.68,0,0,1-6.88-2.09l-7.59-10.5c-.21-.29-.28-.8-.83-.68A48.39,48.39,0,0,0,45.52,193c-.71.93-1.24,2-1.9,2.95-.84,1.17-1.46,2.48-2.35,3.6-.74.94-1.42,2.06-2.87,2a6.25,6.25,0,0,1-5.81-1.27c-.43-.33-.73-.43-1.18.09A4.83,4.83,0,0,1,28,202a32.67,32.67,0,0,1-6.92-.07c-3.62-.5-4.65-2.83-4.68-5.88-.1-7.92-.07-15.84-.06-23.76a2.05,2.05,0,0,0-.84-1.79,35.55,35.55,0,0,1-5.32-5.51,4.45,4.45,0,0,1-.83-3.39c.13-1-.32-2,0-3.05a6.47,6.47,0,0,1,1.82-3.13A61.71,61.71,0,0,1,15.93,151c.44-.32.39-.73.39-1.16,0-2.76-.06-5.52,0-8.28.06-2.05.6-3.91,2.54-5.08a5.65,5.65,0,0,1,2.82-.79c2.57,0,5.18-.4,7.72.39a4.54,4.54,0,0,1,3.24,3.3,19.46,19.46,0,0,1,.45,4.53,20.36,20.36,0,0,1,5.43-.27c.87,0,1.28-.18,1.15-1.11a11.58,11.58,0,0,1,0-1.56,5,5,0,0,1,3.28-5,8.21,8.21,0,0,1,3-.46c1.52,0,3,0,4.56,0,3.8.06,6,2,6.25,5.83.13,1.81.12,1.84,2.07,1.85,2.68,0,5.38-.24,7.94.85.54.23.6-.17.61-.56a8.56,8.56,0,0,1,.46-2.46,4.91,4.91,0,0,1,3.57-3.4,13.3,13.3,0,0,1,3.44-.44c7.24,0,14.48,0,21.72,0,.93,0,1.86,0,2.79,0,3.47,0,7-.05,10.43,0a10.69,10.69,0,0,0,4.77-.91,7.43,7.43,0,0,1,3.37-.74,5.26,5.26,0,0,1,4.85,3.17,50.11,50.11,0,0,1,2.34,6,11.85,11.85,0,0,1,.15,5.46,4.63,4.63,0,0,1-2.73,3.71c-3.48,1.63-6.93,3.32-11,2.94a43.83,43.83,0,0,0-4.44,0c-.48,0-1,0-1,.69s.49.75,1,.75c4.08,0,8.15,0,12.23,0a1.47,1.47,0,0,0,1.25-.59c1.45-2,3.56-2.49,5.83-2.51,4.67,0,9.35,0,14,0a11.32,11.32,0,0,0,1.17,0c1.66,0,1.67,0,1.62-1.75,0-2.63,0-5.27,0-7.9.13-1.83-.22-3.68.29-5.48a5.64,5.64,0,0,1,5.76-4.54c.68,0,1.35,0,2,0,1.2,0,2.39-.05,3.59,0a5.79,5.79,0,0,1,5.08,2.86,10.38,10.38,0,0,1,.79,4c0,3.75,0,7.5,0,11.25,0,1.49.08,1.56,1.55,1.57,5.51,0,11-.08,16.52.06a1.91,1.91,0,0,0,1.58-.89c1.87-2.18,3.7-4.39,5.54-6.6,1.66-1.81,3.21-3.72,4.79-5.6,1.43-1.66,2.71-3.44,4.29-5a5.56,5.56,0,0,1,7.32-.52c1.46,1.11,2.86,2.31,4.23,3.53,1,.86,1.26.87,2.23,0,1.15-1,2.4-2,3.55-3a5.77,5.77,0,0,1,8.34.36,43.71,43.71,0,0,1,4.48,5.59c1.36,2,3,3.7,4.53,5.54,2.94,3.57,5.94,7.09,8.83,10.7a4.55,4.55,0,0,1,.88,3.9c-.19,1,.15,1.93-.15,2.94a5.19,5.19,0,0,1-1.55,2.5c-1.64,1.4-3.31,2.76-5,4.05a1.7,1.7,0,0,0-.77,1.58q0,9.6,0,19.2a21.73,21.73,0,0,1-.24,3.94c-.62,3.31-2.66,4.35-5.48,4.43-3.72.1-7.44,0-11.16,0a5.31,5.31,0,0,1-5.65-5.63q-.06-3.6,0-7.2c.05-3.63,1.28-5.59,5-6.14.62-.09.81-.24.78-.84,0-1.16,0-2.32,0-3.48,0-.7-.23-.87-.89-.86-2.48,0-5,0-7.44,0-.78,0-.91.27-.91,1,0,3.16,0,6.31-.1,9.47-.11,2.61-.87,4.62-3.22,6.11-3.33,2.11-6.48,4.52-9.74,6.76a5.18,5.18,0,0,1-7.37-1.31c-1.07-1.49-2.12-3-3.19-4.49a5,5,0,0,1-1.07-4.24c.1-.42-.16-.76-.26-1.14a4.5,4.5,0,0,1,1.77-4.56c1.26-1,2.64-1.89,3.93-2.86.31-.25.65-.45,1-.67a2.58,2.58,0,0,0,1.18-3c-.11-.47-.44-.61-.83-.73-.65-.18-1.32-.27-1.95-.51a5.13,5.13,0,0,1-2.69-2.93c-.34-.92-.82-1-1.64-.56a9.31,9.31,0,0,1-4.61,1.09H162.32c-1.55,0-1.63.09-1.64,1.63,0,3.51,0,7,0,10.55a3.5,3.5,0,0,1-.32,1.86c-.05,2.35-.05,4.71-.14,7.06-.08,2-.55,3.86-2.39,5.07a4.77,4.77,0,0,1-2.25.72,32.91,32.91,0,0,1-7.29,0c-3.52-.43-4.53-2.73-4.65-5.78-.26-6.78-.08-13.57-.08-20.36,0-1-.28-1.25-1.26-1.22-3.27.09-6.54.07-9.82.1a3.33,3.33,0,0,1-2.39.33A4.24,4.24,0,0,0,127,175.92Z" transform="translate(-9.22 -30.19)"/><path class="cls-2" d="M45.33,192.86l2.87-4.52c3.21,2.7,4.09,6.71,1.12,9.65a66.38,66.38,0,0,0-6,6.22,10.14,10.14,0,0,0-.83,1.15c.24.4.59.24.88.24,3.15,0,6.3-.09,9.45-.35a5.23,5.23,0,0,1,5.83,4.25,50.49,50.49,0,0,0,2.58,8.61c.16.39.22.86.73,1.17a23.92,23.92,0,0,0,2.18-3.4c1-1.83,1.77-3.77,2.7-5.62a5.31,5.31,0,0,1,6.25-3c1.61.33,3.15.89,4.72,1.35a27.21,27.21,0,0,0,4,.79c.49.07,1.13.31,1.45-.19s-.15-.9-.37-1.32a58.9,58.9,0,0,0-3.8-6c-.23-.32-.55-.59-.59-1a23.44,23.44,0,0,0,2.61-4.13c.33,3,1.79,4.77,4.56,5.33,1.49,2.5,3,5,3.67,7.88s-1.1,4.7-3.88,4.85A32.58,32.58,0,0,1,74.21,213c-2.57-.77-2.54-.82-3.57,1.66a30.52,30.52,0,0,1-5.51,9.19c-2.3,2.46-4.87,3.24-7.33-.76-2-3.24-2.92-6.87-3.8-10.52q-.14-.58-.24-1.17c-.13-.71-.43-.91-1.24-.82-4.24.46-8.51.83-12.73-.13-3.23-.73-4.21-2.73-3-5.79.25-.63.64-1.2.94-1.8.22-.42.64-.73.68-1.24,1.91-.69,2.77-2.39,3.79-3.93a10.59,10.59,0,0,1,1.23-1.87c.67-.44,1.09-1.15,1.74-1.61S45.14,193.3,45.33,192.86Z" transform="translate(-9.22 -30.19)"/><path class="cls-2" d="M225.09,143.09c-1.51-1.74-3-3.49-4.55-5.22a5.44,5.44,0,0,0-8.18-.43c-1.34,1.19-2.79,2.27-4.1,3.48-.57.52-.85.4-1.35,0-1.6-1.39-3.2-2.77-4.89-4a5.26,5.26,0,0,0-7.17.78c-1.35,1.57-2.69,3.15-4,4.72-.36-.33-.2-.74-.16-1.13a30.45,30.45,0,0,1,.7-4.13c.2-.87.08-1.47-.9-1.72-.35-.09-.81-.17-.86-.69l25.16-.05a7,7,0,0,0,3.56-.83c2-1.12,2.52-3,2.53-5.08q.06-14,.09-28c0-.44,0-.87.07-1.31,2,0,2.87,1.34,3.39,3a15.63,15.63,0,0,1,.4,6.16,61.69,61.69,0,0,1-1.22,7.76c-.14.66.21.73.66.88a68.39,68.39,0,0,1,7.92,3,13.89,13.89,0,0,1,5.1,3.66c1.54,1.89.9,3.62-.86,5.22-2.43,2.21-5.45,3.41-8.45,4.62-1.19.47-2.4.88-3.6,1.29-.49.17-.66.33-.54.94C224.29,138.32,224.67,140.71,225.09,143.09Z" transform="translate(-9.22 -30.19)"/><path class="cls-2" d="M96.49,137.49c-7.55,0-15.11,0-22.66.06-2.27,0-4.4.61-5.48,2.88A8.85,8.85,0,0,0,67.7,145c-3.18-2.08-6.64-1.27-10-1.36-1.08,0-1.4-.28-1.37-1.38.07-2.17-.35-4.2-2.36-5.52a4.8,4.8,0,0,0-2.12-.73,31.82,31.82,0,0,0-7.74,0c-2.54.33-3.86,2-4.29,4.42,0,.19,0,.4-.19.53-.59-.91-1.7-1.22-2.33-2.13-1.49-2.14-1.47-3.31.28-5.21a4.68,4.68,0,0,0,.29-.37c.68.22,1.37.43,2,.66,2.81,1,5.19.53,7-2.23,1.31,2.6,3.56,3.06,6.08,3,2.75,0,5.51,0,8.27,0,2,0,4-.15,5.4-2,.35-.44.56,0,.78.11a5.46,5.46,0,0,0,7.19-.57c1.37-1.28,2.81-2.49,4.18-3.78.5-.48.79-.4,1.26,0,1.37,1.29,2.81,2.5,4.17,3.79a5.53,5.53,0,0,0,7.4.3c.41-.38.63-.28,1,0a7.22,7.22,0,0,0,4.38,2A2,2,0,0,1,96.49,137.49Z" transform="translate(-9.22 -30.19)"/><path class="cls-2" d="M186.73,182.67c-1.08.79-2.12,1.63-3.24,2.36a5.67,5.67,0,0,0-2.57,4.82c-3.36-1.19-6.07-3.4-8.79-5.6a8.69,8.69,0,0,0-.83-.67c-.65-.39-1-1.45-1.74-1.33-.91.14-1.53,1.06-2.23,1.69a43.45,43.45,0,0,1-7,5.18c0-4.55,0-9.1-.07-13.65,0-.88.43-.84,1-.84,5.47,0,10.94,0,16.42,0a6.49,6.49,0,0,0,4.36-1.32c.68-.57,1.13-.34,1.29.41a5.39,5.39,0,0,0,2.86,3.63A6.87,6.87,0,0,1,186.73,182.67Z" transform="translate(-9.22 -30.19)"/><path class="cls-2" d="M34.28,76.79a1.82,1.82,0,0,1-.37,1.67,6.06,6.06,0,0,0-1.24,4c-.06,2.68-.05,5.35-.07,8a14.29,14.29,0,0,1-6.75-4.28A3.1,3.1,0,0,1,26,81.7,18.25,18.25,0,0,1,34.28,76.79Z" transform="translate(-9.22 -30.19)"/><path class="cls-2" d="M139.93,41.25c-3.31,0-6.62,0-9.93.08-.74,0-.73-.45-.8-.89a5.3,5.3,0,0,0-2.29-4c-.53-.33-1.13-.37-1.64-.66,1.85-1.77,3.89-1.66,6-.61A32.51,32.51,0,0,1,139.93,41.25Z" transform="translate(-9.22 -30.19)"/><path class="cls-2" d="M155.47,33.85c-.65,2.1-.38,4.28-.41,6.42,0,.85-.07,1.13-1.11,1.08-3.47-.14-6.95-.08-10.43-.09a29.84,29.84,0,0,1,9.91-6.82A12.46,12.46,0,0,0,155.47,33.85Z" transform="translate(-9.22 -30.19)"/><path class="cls-2" d="M221,79q-.2-4.08,0-8.16c1.56,1,3.09,2,3.1,4S222.69,78.06,221,79Z" transform="translate(-9.22 -30.19)"/><path class="cls-3" d="M127,175.92a2,2,0,0,1,2.3-1.3c1.05.11,2.12.07,3.17.09a3,3,0,0,1-3.51,1.6A7.75,7.75,0,0,0,127,175.92Z" transform="translate(-9.22 -30.19)"/><path class="cls-4" d="M187.16,86.18q0,18.66,0,37.32c0,1-.21,1.34-1.3,1.32-4.6-.07-9.2,0-13.8,0-.89,0-1.16-.22-1.14-1.13.06-2.83.06-5.68,0-8.51,0-.87.18-1.23,1.12-1.16,1.15.08,2.32,0,3.48,0,.58,0,.8-.21.75-.77a5.77,5.77,0,0,1,0-.72q0-26.52,0-53c0-1.1-.17-1.62-1.4-1.46s-3-.54-3.8.27-.2,2.44-.2,3.71q0,22.5,0,45a4.89,4.89,0,0,1-.55,2.4q-3.75,7.23-7.42,14.5c-.4.78-.69,1-1.51.52-2.58-1.36-5.2-2.65-7.83-3.89-.79-.36-.86-.68-.48-1.41,2.2-4.22,4.35-8.45,6.54-12.67a3.64,3.64,0,0,0,.42-1.71q0-22.8,0-45.6c0-.89-.2-1.15-1.11-1.12-2.28,0-2.28,0-2.28-2.29,0-2.47,0-5,0-7.43,0-.76.16-1,1-1,2.41,0,2.41,0,2.41-2.41,0-2.88,0-5.76,0-8.64,0-.74.2-1,.94-.95q4.5.06,9,0c.78,0,.92.29.92,1,0,3.24,0,6.48-.05,9.72,0,1.17.38,1.35,1.42,1.34,4.56-.05,9.12,0,13.68,0,.94,0,1.2.23,1.19,1.19Q187.14,67.34,187.16,86.18Z" transform="translate(-9.22 -30.19)"/><path class="cls-4" d="M189.32,84.35c0-12.92,0-25.83,0-38.75,0-1.26.36-1.47,1.52-1.46q11.94.07,23.87,0c1,0,1.19.25,1.19,1.19q0,39.17,0,78.33c0,1-.32,1.16-1.21,1.15q-12.06,0-24.11,0c-1,0-1.25-.26-1.25-1.25Q189.35,104,189.32,84.35Z" transform="translate(-9.22 -30.19)"/><path class="cls-4" d="M154.55,79.8q0,16,0,32c0,1-.19,1.27-1.22,1.27q-12.06-.08-24.11,0c-1.11,0-1.3-.33-1.29-1.34q0-32.1,0-64.19c0-1,.21-1.27,1.23-1.27q12.06.07,24.12,0c1.12,0,1.27.35,1.27,1.34Q154.52,63.73,154.55,79.8Z" transform="translate(-9.22 -30.19)"/><path class="cls-4" d="M79.54,59.42q-19.38,0-38.75,0c-1.19,0-1.47-.33-1.43-1.46.09-2.76,0-5.52,0-8.28,0-.75-.14-1.08-1-1-1,.07-2,0-3,0-.58,0-.87-.1-.86-.78,0-2.2.06-4.4,0-6.6,0-1.06.68-.77,1.21-.77h31c2.24,0,4.48,0,6.72,0,.87,0,1.09-.27,1-1.09-.06-1.15,0-2.31,0-3.47,0-.56.16-.78.75-.77q4.25,0,8.51,0c.59,0,.76.2.74.76,0,1.12.07,2.25,0,3.36s.33,1.21,1.27,1.21c6.76,0,13.52,0,20.28,0,5.72,0,11.44,0,17.16,0,.87,0,1.18.17,1.15,1.1-.08,2.08,0,4.16,0,6.24,0,.62-.17.9-.81.82a7.85,7.85,0,0,0-.84,0H49c-.46,0-1.19-.26-1.32.18a6.82,6.82,0,0,0-.06,2.26c0,.21.3.2.5.2h1q34.74,0,69.47,0c1.14,0,1.4.33,1.35,1.39q-.12,2.76,0,5.52c0,1-.27,1.2-1.21,1.19Q99.11,59.41,79.54,59.42Z" transform="translate(-9.22 -30.19)"/><path class="cls-4" d="M79.43,61.17q19.44,0,38.87,0c1,0,1.27.19,1.26,1.22-.06,5.36,0,10.72,0,16.08,0,.84-.23,1-1.06,1q-39,0-78,0c-.86,0-1.17-.16-1.16-1.1q.07-8,0-16.08c0-1,.29-1.17,1.21-1.17Q60,61.2,79.43,61.17Z" transform="translate(-9.22 -30.19)"/><path class="cls-4" d="M111.5,105.56c-1,1.1-2.1,2.17-3.09,3.3-.54.63-.89.55-1.39,0-.84-1-1.74-1.86-2.6-2.76-.51.29-.35.65-.35.93,0,2.76,0,5.52,0,8.28a2.58,2.58,0,0,1-.64,1.85q-3.07,3.52-6,7.13c-.43.51-.71.58-1.23.12-1.32-1.16-2.72-2.24-4-3.4-.48-.42-.75-.37-1.13.1-.74.89-1.58,1.71-2.3,2.61-.45.57-.74.49-1.22,0-2.4-2.22-4.86-4.39-7.25-6.64-.66-.62-1-.55-1.64,0-2.37,2.2-4.83,4.31-7.2,6.52-.64.6-.95.51-1.47-.1-1.32-1.55-2.68-3.07-4.09-4.54-.54-.57-.53-.88.07-1.4,3-2.58,5.84-5.22,8.79-7.8a2,2,0,0,0,.72-1.65c0-4.92,0-9.84,0-14.76,0-.85.24-1.08,1.07-1.06q3.06.09,6.12,0c.79,0,1,.22,1,1,0,4.92,0,9.84,0,14.76a2.08,2.08,0,0,0,.76,1.75c2.54,2.26,5.06,4.54,7.54,6.87.61.58.82.36,1.35-.12,2.25-2,2.88-4.42,2.8-7.44-.2-8.75,0-17.52-.09-26.27,0-1,.14-1.37,1.27-1.36,7.2.06,14.4,0,21.6,0,1,0,1.24.29,1.24,1.27,0,10.87,0,21.75,0,32.63,0,1.06.26,1.38,1.32,1.31s2.27-.45,2.88.18.16,1.9.18,2.89c0,1.44,0,2.88,0,4.32,0,.58-.18.76-.75.76-3.68,0-7.36,0-11,0-1,0-.73-.62-.73-1.13q0-8.58,0-17.16v-.83Z" transform="translate(-9.22 -30.19)"/><path class="cls-4" d="M54.72,112.41c-1.37,1.41-2.51,2.53-3.59,3.71-.51.56-.85.63-1.41,0-1.18-1.28-2.44-2.49-3.82-3.87.08,4.38-2.16,7.88-3.2,11.73-.15.54-.41.69-1,.48-2.1-.77-4.2-1.53-6.31-2.25-.48-.17-.7-.34-.43-.84a3.53,3.53,0,0,0,.15-.46c2.2-4.78,2.75-9.79,2.6-15-.23-7.71,0-15.44-.08-23.16,0-.92.22-1.2,1.17-1.19q11.46.06,22.92,0c.91,0,1.12.24,1.12,1.13q0,20.52,0,41c0,.93-.23,1.22-1.19,1.2-3.11-.06-6.23,0-9.35,0-.72,0-1-.18-1-.94.05-2.11,0-4.24,0-6.35,0-.69.23-.88.89-.9,2.46-.08,2.46-.1,2.46-2.61Z" transform="translate(-9.22 -30.19)"/><path class="cls-4" d="M79.43,81.57c4.32,0,8.64,0,12.95,0,.83,0,1.08.21,1.08,1.06q-.06,13,0,25.92c0,.91-.27,1.15-1.15,1.12-2-.06-3.92-.08-5.88,0-1,0-1.17-.35-1.17-1.24,0-5.84,0-11.68,0-17.52,0-.92-.21-1.22-1.18-1.2-3.23.06-6.48,0-9.71,0-.8,0-1,.24-1,1,0,5.92,0,11.84,0,17.75,0,1-.24,1.23-1.19,1.19-2-.07-4-.05-6,0-.8,0-1-.24-1-1q0-13,0-26c0-.87.27-1,1.08-1C70.71,81.59,75.07,81.57,79.43,81.57Z" transform="translate(-9.22 -30.19)"/><path class="cls-2" d="M140.41,155.49c-4.8,0-9.6,0-14.39.07-2.17,0-4.21.55-5.39,2.64-.26.45-.58.44-1,.44-4.4,0-8.8,0-13.2,0-.83,0-.93-.33-.87-1s-.2-1.2.83-1.16c2,.08,4,0,6,0a12.89,12.89,0,0,0,5.81-1.19c1.59-.71,3.33-1.09,4.77-2.16s1.87-2.76,2.06-4.59c.35-3.31-1.29-6-2.27-8.94s-3.74-4.83-7-3.39c-3,1.33-6.09,1.28-9.23,1.26l-7.19,0c-.7-.92-.47-2.13-1-3.11a7.14,7.14,0,0,0,3.08-2.35c1.5-1.82,3-3.61,4.54-5.41.2-.23.41-.44.71-.76.2,1.58,0,3,.2,4.42.57,3.31,2.63,4.29,5.24,4.39,3.94.15,7.9.11,11.85,0,3-.07,4.22-1.22,5.39-4.86a48.64,48.64,0,0,0,.07-5.79c0-.84.26-1.16,1.07-1a2.44,2.44,0,0,1,1.95,1.58c1.25,2.38,1.17,4.94,1,7.49a50,50,0,0,1-1.05,7c-.2.89.11,1.31,1,1.58a48,48,0,0,1,9,3.75,2.15,2.15,0,0,1,1.09,1.05v8.18C142.8,154.8,141.59,155.11,140.41,155.49Z" transform="translate(-9.22 -30.19)"/><path class="cls-5" d="M189.6,134.68s.05.07.08.08c2.29.93,2.28.93,1.82,3.41-.26,1.39-.46,2.79-.68,4.18-1.49,1.8-2.92,3.66-4.55,5.34-.44-.37-.33-.87-.26-1.33a17.43,17.43,0,0,0-.08-5.49,6.68,6.68,0,0,0-.69-2,2.85,2.85,0,0,0-3.27-1.61,12.79,12.79,0,0,0-5.1,2.28,45.13,45.13,0,0,0-5.89,4.7c-.26.25-.55.47-.81.71a1.38,1.38,0,0,1-2.16-.08,51.55,51.55,0,0,0-7.44-5.63c-.35-.21-.62-.51-.94-.74a6.06,6.06,0,0,0-5.69-2.64c-.91,0-1.82,0-2.73,0,0-.12-.05-.27,0-.34a26.34,26.34,0,0,1,4.27-3.47,31.6,31.6,0,0,1,4.33,2.13c2.36,1.62,4.58,3.46,7.28,4.55l.78.29c2.91.94,4.51,0,5.19-2.94.1-.46,0-1,.43-1.34q6.21,0,12.43,0C187.17,134.64,188.39,134.07,189.6,134.68Z" transform="translate(-9.22 -30.19)"/><path class="cls-2" d="M155.52,132c-1.31,1.4-2.88,2.53-4.31,3.81a22.88,22.88,0,0,0-2.87.1,5.16,5.16,0,0,0-4.6,4,3.05,3.05,0,0,1-4-1.42,9.06,9.06,0,0,1-1.16-4.72,42.87,42.87,0,0,1,.82-8.46c.31-1.84.32-1.84-1.6-1.84q-2.52,0-5,0a4.84,4.84,0,0,1-2-.35c-.9-.14-1.29.16-1.23,1.15.08,1.47,0,2.94,0,4.42,0,.38.13.8-.2,1.13,0-2,0-4.07,0-6.11,0-.73.29-.84.91-.84q8.5,0,17,0c.55,0,.9,0,.76.76-.51,2.83.41,4.65,2.94,6Z" transform="translate(-9.22 -30.19)"/><path class="cls-2" d="M173.53,134.68a6.33,6.33,0,0,1-.78,3.21,3.26,3.26,0,0,1-3.71,1.7,18,18,0,0,1-6.77-3.4,6.71,6.71,0,0,1-2.42-2.07c1.17.1,2.23.72,3.5.36a5.7,5.7,0,0,0,3-1.8c.17-.2.32-.69.69-.21,1.51,2,3.66,2.18,5.89,2.17A4,4,0,0,1,173.53,134.68Z" transform="translate(-9.22 -30.19)"/><path class="cls-6" d="M98.38,134.38c1.16.77.6,2.09,1,3.11H96.49a4.56,4.56,0,0,0,.47-2.81Z" transform="translate(-9.22 -30.19)"/><path class="cls-7" d="M92.84,142.34c5.4,0,10.8-.1,16.19,0a15.56,15.56,0,0,0,7.51-1.55c1-.48,1.65-.56,2,.75.45,1.53,1.13,3,1.7,4.47.23.62.24,1.1-.59,1.38-1.5.52-3,1.18-4.43,1.79a5,5,0,0,1-1.88.24q-16.2,0-32.4,0c-1.08,0-1.42.24-1.4,1.37.07,3.84,0,7.68,0,11.52,0,.81.19,1.1,1.06,1.09q6-.06,12,0c.83,0,1-.29,1-1,0-3.44,0-6.88,0-10.32,0-.81.18-1.13,1.06-1.1,1.68.07,3.36.08,5,0,.94,0,1.12.3,1.11,1.17,0,3.28,0,6.56,0,9.84,0,1.12.22,1.48,1.42,1.47,6.76-.07,13.52,0,20.28-.06.93,0,1.25.23,1.2,1.19a45.21,45.21,0,0,0,0,4.8c.06,1-.33,1.24-1.29,1.23-6.76,0-13.52,0-20.28,0-1,0-1.33.24-1.33,1.31.06,7.32,0,14.64,0,22,0,1-.24,1.28-1.25,1.26-4.2-.05-8.4,0-12.6,0-.8,0-1.13-.18-1.1-1.06.07-1.71.06-3.44,0-5.16,0-.8.25-1,1-1,1.88,0,3.76,0,5.64,0,.79,0,1.12-.13,1.11-1q-.06-7.62,0-15.24c0-.84-.24-1.07-1.08-1.07-6.24,0-12.48,0-18.72,0-1.07,0-1.43-.26-1.42-1.4q.08-12.78,0-25.56c0-1.07.28-1.33,1.34-1.32C80.12,142.37,86.48,142.34,92.84,142.34Z" transform="translate(-9.22 -30.19)"/><path class="cls-7" d="M227,164v29.23c0,1.53,0,1.53-1.6,1.53-3.44,0-6.88,0-10.31,0-.86,0-1.09-.25-1.07-1.08.06-1.68.07-3.36,0-5,0-.88.28-1.07,1.09-1,1.36.06,2.72,0,4.08,0,.63,0,.82-.2.82-.82q0-7.68,0-15.36c0-.67-.19-.89-.88-.89q-8.64,0-17.28,0c-.86,0-.85.42-.85,1,0,4.8,0,9.6,0,14.4a2,2,0,0,1-.95,1.86c-3.11,2.11-6.17,4.3-9.23,6.48-.86.62-1.48.7-2.12-.36a41.06,41.06,0,0,0-2.63-3.68c-.53-.7-.46-1.16.29-1.66,2.23-1.51,4.41-3.07,6.62-4.61a1.83,1.83,0,0,0,.91-1.72c-.06-3.56,0-7.12,0-10.68,0-.84-.21-1.11-1.06-1.06-1.31.07-2.64,0-4,0-.76,0-1-.16-1-1,.07-1.7,0-3.41,0-5.39-.66.76-1.15,1.3-1.62,1.86a.9.9,0,0,1-1.45.1c-1.34-1.12-2.68-2.25-4-3.36-.39-.32-.44-.6-.1-1,2.05-2.43,4.08-4.88,6.12-7.32l8.19-9.79c1-1.22,2.07-2.42,3.08-3.64.53-.65,1-.6,1.63-.08,1.19,1.06,2.35,2.15,3.63,3.09.77.57.61,1,.15,1.57-1.89,2.26-3.8,4.5-5.7,6.75l-9.32,11.08h38.14l-4.33-5.19-8.25-9.89c-.77-.92-1.57-1.81-2.35-2.72-.52-.6-.61-1.07.18-1.65a34.35,34.35,0,0,0,3.45-2.94c.74-.69,1.28-.62,1.89.12q3.44,4.13,6.89,8.23l8.14,9.69c.74.88,1.44,1.79,2.2,2.66.4.46.28.74-.14,1.08-1.3,1-2.57,2.13-3.88,3.18-.61.49-1.2.74-1.77-.17A18.07,18.07,0,0,0,227,164Z" transform="translate(-9.22 -30.19)"/><path class="cls-7" d="M55.29,174a6.91,6.91,0,0,0,1.41,2.22c3.25,4.55,6.57,9.06,9.88,13.58a1.4,1.4,0,0,1-.3,2.23c-1.27.93-2.6,1.78-3.86,2.73a1.26,1.26,0,0,1-2-.36c-1.78-2.46-3.52-4.94-5.29-7.4-2.24-3.1-4.49-6.19-6.79-9.38a37.92,37.92,0,0,0-2.77,4.19c-2.66,4.14-5.27,8.3-7.92,12.45a1.28,1.28,0,0,1-2,.37c-1.3-.8-2.61-1.61-3.9-2.44a1.44,1.44,0,0,1-.49-2.28c2.28-3.59,4.58-7.16,6.86-10.75,1.06-1.65,2.09-3.32,3.27-5.19-2,0-3.89,0-5.75,0-1.22,0-2.85.54-3.55-.25s-.18-2.27-.2-3.47c0-.88.05-1.76,0-2.64s.19-1.09,1-1.07c3.48,0,7,0,10.44,0,.86,0,1.06-.26,1-1.08,0-2.88-.06-5.76,0-8.64,0-.87-.19-1.16-1.11-1.14-2.8.07-5.6,0-8.4,0-.79,0-1.13-.13-1.09-1,.07-1.79.07-3.6,0-5.39,0-.88.27-1.06,1.08-1,2.84.05,5.68,0,8.52,0,.79,0,1-.22,1-1-.05-2,0-4,0-6,0-.72.17-1,.93-1,1.8.05,3.6.06,5.39,0,.79,0,.93.27.92,1,0,2,0,4,0,6,0,.81.26,1,1,1,3.56,0,7.12,0,10.67-.05,1.12,0,1.3.33,1.29,1.34,0,5.28,0,10.56,0,15.83,0,.91.23,1.14,1.13,1.13,2.73,0,2.73,0,2.73,2.69,0,1.12-.08,2.24,0,3.35S68,174,67,174c-3.68-.06-7.36,0-11,0Z" transform="translate(-9.22 -30.19)"/><path class="cls-8" d="M155.59,181.28c0,4.2,0,8.39,0,12.59,0,.81-.16,1.14-1,1.1-1.72-.07-3.44-.08-5.16,0-1,.05-1.19-.28-1.18-1.2,0-8.28,0-16.56,0-24.83,0-1.08-.24-1.39-1.35-1.38-7,.06-14,0-21,.05-.9,0-1.28-.16-1.23-1.16.09-1.72.08-3.44,0-5.16,0-.86.25-1.06,1.08-1.06,7.08,0,14.16,0,21.23,0,1,0,1.26-.21,1.26-1.23-.06-5.76,0-11.52-.05-17.27,0-.9.17-1.28,1.16-1.22,1.72.08,3.44.07,5.16,0,.86,0,1.06.26,1.06,1.08,0,5.8,0,11.6,0,17.4,0,1,.22,1.25,1.23,1.24,7,0,14.08,0,21.11,0,.9,0,1.28.17,1.22,1.16-.08,1.72-.07,3.44,0,5.16,0,.86-.26,1.06-1.08,1.06-7.08,0-14.16,0-21.24,0-1,0-1.26.22-1.25,1.23C155.63,173,155.59,177.12,155.59,181.28Z" transform="translate(-9.22 -30.19)"/><path class="cls-9" d="M20.94,163.16c-2.43,1.8-2.43,1.8-4.5-.28-.65-.65-1.33-1.28-2-2a1.58,1.58,0,0,1,.08-2.49c.95-1,1.92-1.92,2.88-2.88s1.48-1,2.57,0c.22.22.46.42.71.64.36-.37.2-.79.2-1.15,0-4.48,0-9,0-13.43,0-.9.15-1.28,1.16-1.22,1.67.09,3.36.07,5,0,.92,0,1.21.2,1.2,1.17,0,4.52,0,9,0,13.55v1.14c.59-.44,1.08-.79,1.57-1.14a1.29,1.29,0,0,1,1.9.18c1.13,1.23,2.29,2.43,3.41,3.67a1.15,1.15,0,0,1,0,1.71,33.2,33.2,0,0,1-3.92,3.67,1.28,1.28,0,0,1-1.88-.3c-.31-.33-.38-.89-1.09-1v1.28c0,9.83,0,19.66,0,29.5,0,1.1-.32,1.34-1.34,1.29a45,45,0,0,0-4.79,0c-1,0-1.28-.35-1.27-1.32,0-9.71,0-19.42,0-29.14Z" transform="translate(-9.22 -30.19)"/><path class="cls-2" d="M159.63,138.47a24.46,24.46,0,0,1,5.84,3.86c1.1.84,2.16,1.76,3.18,2.7.44.41.65.17,1-.1,2.08-1.72,4-3.6,6.27-5.13a21.29,21.29,0,0,1,4.8-2.62c3-1.06,5.06.39,5.57,3.63a34.39,34.39,0,0,1,0,6.88c-1.81,2.22-3.67,4.4-5.42,6.66a3.05,3.05,0,0,1-2.93,1.26c-5.35-.17-10.71-.07-16.06-.07-1.54,0-1.54,0-1.54-1.61,0-3.75,0-7.51,0-11.27A13.54,13.54,0,0,0,159.63,138.47Z" transform="translate(-9.22 -30.19)"/><path class="cls-5" d="M78.51,200.89a27.65,27.65,0,0,1,4,5.63A14.11,14.11,0,0,1,83.75,209c.28.72,0,.82-.59.81a22.93,22.93,0,0,1-6-1c-1.33-.38-2.66-.8-4-1.15A5.15,5.15,0,0,0,67,210.67a40.82,40.82,0,0,1-4.86,9,2.2,2.2,0,0,1-.33.28,39.42,39.42,0,0,1-2.95-8.47c-.2-.81-.33-1.64-.53-2.45a5.43,5.43,0,0,0-5.59-3.56c-3.55.63-7.13.38-10.9.41a15.1,15.1,0,0,1,2.58-3.43c1.62-1.71,3.33-3.34,5-5A5.27,5.27,0,0,0,50,191c-.58-.9-1.22-1.77-1.83-2.66.47-.92.67,0,.82.17,1.52,2.06,3,4.14,4.49,6.21,1.24,1.71,2.47,3.43,3.71,5.15a5.28,5.28,0,0,0,7.31,1.24c.85-.59,1.7-1.19,2.51-1.84a1,1,0,0,1,1.29-.08c1.1.64,2.25,1.19,3.35,1.84A5.92,5.92,0,0,0,78.51,200.89Z" transform="translate(-9.22 -30.19)"/><path class="cls-7" d="M74.64,195a5.81,5.81,0,0,1-.65-.29c-1.3-.68-2.58-1.42-3.9-2.07a1.26,1.26,0,0,1-.6-2c1.88-3.38,3.73-6.76,5.61-10.14,1.46-2.65,3-5.28,4.41-7.93.69-1.25,1-1.36,2.25-.68s2.38,1.3,3.57,1.94,1.37.91.67,2.22c-1,1.87-2,3.71-3,5.56l-7.12,12.85C75.65,194.73,75.53,195.15,74.64,195Z" transform="translate(-9.22 -30.19)"/><path class="cls-7" d="M112,171.63a.92.92,0,0,1,1.12.57q5.09,9.17,10.22,18.32c.47.84.4,1.46-.55,1.93-1.33.67-2.63,1.43-4,2.15-.72.4-1.22.44-1.71-.46q-5-9.18-10.07-18.28c-.49-.87-.62-1.42.53-1.91,1.34-.57,2.57-1.4,3.85-2.1A3.41,3.41,0,0,1,112,171.63Z" transform="translate(-9.22 -30.19)"/><path class="cls-5" d="M130.81,123.13c2.8,0,5.59,0,8.38,0,.8,0,1,.18.85,1a42,42,0,0,0-1.06,9.68,11.78,11.78,0,0,0,.36,2.71c.67,2.63,1.68,3.36,4.4,3.37a46,46,0,0,0-.26,5.51A38.61,38.61,0,0,0,133.23,141c-1.3-.39-1.44-1-1.18-2.09a39.79,39.79,0,0,0,1.13-10,11.87,11.87,0,0,0-.35-2.58A5.06,5.06,0,0,0,130.81,123.13Z" transform="translate(-9.22 -30.19)"/><path class="cls-5" d="M214.41,158.68H200.78c1.55-1.85,3-3.59,4.45-5.29a18,18,0,0,1,2.43-2.72l2.32,2.72Z" transform="translate(-9.22 -30.19)"/><path class="cls-5" d="M186.73,182.67a31.72,31.72,0,0,0-.48-5.33l2.47.42a.64.64,0,0,1,.32.1,6.47,6.47,0,0,1-.32,3.51C188.07,181.82,187.4,182.24,186.73,182.67Z" transform="translate(-9.22 -30.19)"/><path class="cls-10" d="M86.44,158.64h-1a1.2,1.2,0,0,1-1.19-1.81c.16-.37.44-.29.7-.29.83,0,1.67,0,2.5,0,1.31,0,1.61.43,1.33,1.72-.08.41-.31.39-.59.39Z" transform="translate(-9.22 -30.19)"/><path class="cls-11" d="M67.83,184c-.75-1.08-1.41-2-2.18-3.11a12.25,12.25,0,0,0,4.13-.43Z" transform="translate(-9.22 -30.19)"/><path class="cls-6" d="M140.41,155.49l3.07-1.88c.12,1.93.12,1.93-1.76,1.92C141.29,155.53,140.85,155.5,140.41,155.49Z" transform="translate(-9.22 -30.19)"/><path class="cls-12" d="M45.33,192.86c.7.82.57,1.46-.42,1.91-.56.26-.67,1.15-1.49,1Z" transform="translate(-9.22 -30.19)"/><path class="cls-1" d="M205,84.61c0,9.4,0,18.79,0,28.18,0,.91-.18,1.29-1.17,1.2a25,25,0,0,0-3,0c-.51,0-.75-.15-.69-.68,0-.23,0-.48,0-.72q0-28.11,0-56.23c0-1.05.19-1.54,1.34-1.38s2.66-.49,3.32.26.19,2.13.19,3.24Q205,71.55,205,84.61Z" transform="translate(-9.22 -30.19)"/><path class="cls-1" d="M138.86,79.73c0-7.07,0-14.14,0-21.21,0-1.14.33-1.47,1.4-1.36a10.7,10.7,0,0,0,2.4,0c1-.1,1.12.31,1.1,1.16-.06,2.12,0,4.24,0,6.36,0,12,0,24,0,36.07,0,1.31-.39,1.66-1.59,1.52a10.14,10.14,0,0,0-2.27,0c-.87.08-1-.27-1-1.08C138.88,94,138.86,86.89,138.86,79.73Z" transform="translate(-9.22 -30.19)"/><path class="cls-1" d="M79.31,71.33H48.73c-1.16,0-1.5-.49-1.2-1.61a.44.44,0,0,1,.49-.39h62.11c.66,0,1.32-.19,1.3,1,0,1-.36,1.08-1.19,1.07Q94.78,71.31,79.31,71.33Z" transform="translate(-9.22 -30.19)"/><path class="cls-1" d="M111.53,100.65c-1-1.09-2.13-2.15-3.15-3.27-.49-.53-.81-.6-1.31,0-.85,1-1.78,1.89-2.67,2.83l-.34-.16v-2c0-2.48,0-4.95,0-7.43,0-.61.08-1,.83-.93,2,0,4.07,0,6.11,0,.48,0,.84,0,.83.67,0,3.38,0,6.76,0,10.14Z" transform="translate(-9.22 -30.19)"/><path class="cls-1" d="M54.72,95.67c-1.33-1.34-2.48-2.43-3.54-3.6-.55-.6-.9-.68-1.49,0C48.54,93.31,47.3,94.5,45.84,96V90.17c0-.5.35-.44.66-.45,2.52,0,5,0,7.55,0,.66,0,.68.33.68.82C54.71,92.12,54.72,93.72,54.72,95.67Z" transform="translate(-9.22 -30.19)"/><path class="cls-13" d="M45.88,108.55v-9c1.49,1.46,2.83,2.79,4.19,4.1.36.35.11.52-.12.75Z" transform="translate(-9.22 -30.19)"/><path class="cls-1" d="M54.66,100.1v7.82l-.26.2c-1.19-1.27-2.38-2.54-3.59-3.79-.4-.42-.06-.61.18-.87l3.32-3.63Z" transform="translate(-9.22 -30.19)"/><path class="cls-1" d="M57.35,161.21c0,1.52,0,3,0,4.56,0,.64-.21.82-.83.81-1.36,0-2.72,0-4.08,0-.58,0-.86-.12-.85-.79q0-4.62,0-9.24c0-.63.21-.82.83-.81,1.36,0,2.72,0,4.08,0,.72,0,.86.26.85.91C57.32,158.17,57.35,159.69,57.35,161.21Z" transform="translate(-9.22 -30.19)"/></svg>