<svg id="圖層_1" data-name="圖層 1" xmlns="http://www.w3.org/2000/svg" viewBox="0 0 232.76 190.59"><defs><style>.cls-1{fill:#ec984e;}.cls-2{fill:#dbe598;}.cls-3{fill:#a9ba67;}.cls-4{fill:#d18cc8;}.cls-5{fill:#e7ecd5;}.cls-6{fill:#fefefe;}.cls-7{fill:#fefefd;}.cls-8{fill:#dbe599;}.cls-9{fill:#fcfbf7;}.cls-10{fill:#f5cca8;}.cls-11{fill:#aaba67;}.cls-12{fill:#fefdfd;}.cls-13{fill:#e8a85e;}.cls-14{fill:#d8e0b9;}.cls-15{fill:#acb966;}.cls-16{fill:#acba66;}.cls-17{fill:#abb966;}.cls-18{fill:#e1ca7d;}.cls-19{fill:#dfd285;}.cls-20{fill:#fdf6f1;}.cls-21{fill:#dce398;}.cls-22{fill:#dce295;}.cls-23{fill:#b2bc6a;}.cls-24{fill:#c5ac5c;}.cls-25{fill:#bbc675;}.cls-26{fill:#e9a75c;}.cls-27{fill:#e9a85d;}.cls-28{fill:#b4b764;}.cls-29{fill:#e8ab60;}.cls-30{fill:#ec994f;}.cls-31{fill:#dddd91;}.cls-32{fill:#dddc90;}.cls-33{fill:#b2b764;}.cls-34{fill:#b1b764;}.cls-35{fill:#dddc8f;}</style></defs><title>9</title><path class="cls-1" d="M128.39,55.23c.48,0,1-.07,1.44-.07,10.16,0,20.31,0,30.47,0,1,0,1.39-.24,1.26-1.26s.45-2.42-.25-3.11-2-.18-3-.18q-15.18,0-30.35,0c-1,0-1.32-.19-1.29-1.23.13-3.39-.34-6.77-.25-10.16,0-1.06.24-1.42,1.38-1.41,10.79,0,21.59,0,32.39,0,1.09,0,1.45-.26,1.4-1.38-.1-1.88,0-3.76,0-5.64,0-.68.21-.88.89-.88q10.86,0,21.71,0c.79,0,1,.29.91,1-.11,2,.13,4,.2,6,0,.85.35,1,1.07,1,4.8,0,9.6,0,14.4,0,6.08,0,12.16,0,18.23,0,.94,0,1.24.24,1.22,1.2-.1,3.47.34,6.93.24,10.4,0,1-.3,1.19-1.22,1.19-10.88,0-21.76,0-32.64,0-1.09,0-1.4.31-1.28,1.34s-.42,2.35.21,3,2,.21,3,.22q14.34,0,28.68,0c.94,0,1.19.25,1.21,1.2.49,20.06.09,40.13.21,60.19a12.71,12.71,0,0,1-2.6,8.53,9.34,9.34,0,0,1-7.28,3.59c-2.83.06-5.67,0-8.51,0a2,2,0,0,1-1.25.32c-1.88,0-3.75,0-5.62,0-1.35,0-1.68-.31-1.68-1.6,0-3.31-.41-6.6-.27-9.91.08-1.67.29-1.92,2-2a4.69,4.69,0,0,0,3-.59,2.1,2.1,0,0,0,.8-1.67c0-.44,0-.88,0-1.32V70.48c0-2.21,0-2.21-2.16-2.18-1.62,0-1.71.1-1.93,1.74a3.28,3.28,0,0,0,.29,2.54,1.78,1.78,0,0,1,.13,1.29c-.11.75-.19,1.5-.29,2.25-.23,1.64-.23,1.66,1.33,2a1.14,1.14,0,0,1,.94,1.21c0,3.59.46,7.18.26,10.78-.06,1.11-.37,1.38-1.64,1.4-2.83,0-5.67,0-8.51,0-.56,0-1.24-.17-1.53.59a17.53,17.53,0,0,0-.06,2.71c0,.7.32,1,1,1s1.26.05,1.9,0c2.35,0,4.71,0,7.07,0,1.2,0,1.54.34,1.54,1.51,0,3.39.43,6.77.26,10.17-.06,1.41-.22,1.6-1.53,1.76-2.76.08-5.52,0-8.28,0-1.94,0-1.94,0-2,1.9,0,5,0,9.92,0,14.88,0,2-.2,2.18-2.22,2.18H165.57c-2,0-2.17-.23-2.29-2.27-.28-5.07-.2-10.15-.23-15.22,0-1.3-.15-1.45-1.46-1.46-2.75,0-5.51,0-8.27,0-1.75,0-2-.28-2-2,0-3.12-.38-6.23-.25-9.35.08-1.84.26-2.08,2.09-2.09,2.8,0,5.6,0,8.39,0,1.4,0,1.52-.12,1.52-1.5,0-3.08.17-2.74-2.67-2.76-2.28,0-4.56,0-6.84,0-1.7,0-2-.29-2-1.94,0-3.12-.38-6.22-.26-9.34.07-1.83.06-1.9,1.87-2.21a.8.8,0,0,0,.79-1,15.4,15.4,0,0,0-.24-2c-.33-1.82.08-3.67-.24-5.49.14-1-.38-1.37-1.31-1.35a9.34,9.34,0,0,0-1.67.07.86.86,0,0,0-.79.9c0,.52,0,1,0,1.56v55.29c0,2.9,0,3-2.93,3h-15.6c-.44,0-.88,0-1.32,0-1.18-.09-1.55-.36-1.53-1.53,0-2-.28-4.06-.28-6.1,0-18.83-.07-37.66.07-56.49C128.1,61.68,128.11,58.44,128.39,55.23Z" transform="translate(-6.87 -29.98)"/><path class="cls-2" d="M196.56,115.21c-.6.76-1.45.7-2.29.71-2.53,0-2.46,0-2.55,2.58-.1,3.07.41,6.11.25,9.17,0,.83.3,1,1.05,1,2.39,0,4.78,0,7.17,0,.23,2.05.46,4.09.7,6.14.83,1.94.54,4,.71,6a7.78,7.78,0,0,0-.14,2.26,70.17,70.17,0,0,1-.73,9.61,1.59,1.59,0,0,1-.46,1.07c-.72.15-1-.33-1-.87.13-1.25-.58-1.4-1.53-1.39s-1.92,0-2.88,0c-1.35-.05-1.51-.31-.9-1.5,1.73-3.34,3.21-6.8,5-10.1.67-1.25.33-2.39.26-3.58,0-.5-.5-.6-.91-.61-2.91-.05-5.83-.07-8.75,0a1.9,1.9,0,0,0-1.67,1.35c-1.24,2.55-2.39,5.15-3.72,7.65-.67,1.28-1.4,1.67-2.58,1.47a1,1,0,0,1-1-.91,8.41,8.41,0,0,1-.07-2.5,16.35,16.35,0,0,0,.06-5.36c-.09-1-.56-1.28-1.47-1.27-2.2,0-4.4,0-6.6,0h-18.7c-1.94,0-2.13.17-2.09,2.14,0,2.44.42,4.85.56,7.28.13,2.07.18,4.15.33,6.22.13,1.75.34,3.49.39,5.25-.06.46-.49.62-.77.89-.58.57-.49,1.31-.54,2s.18,1.38-.41,1.92a2.72,2.72,0,0,1-2.39-.11,2.22,2.22,0,0,1-.3-1.38c0-3.27,0-6.55,0-9.83a1.94,1.94,0,0,1,1.07-2.08,1,1,0,0,0,.58-1,17.27,17.27,0,0,0-.26-4.42,1,1,0,0,0-.48-.79c-.85-.45-.92-1.23-.9-2.06a25.44,25.44,0,0,0-.22-3.7c-.12-.81-.49-1.25-1.31-1.27-3-.06-6.07,0-9.11,0a1.19,1.19,0,0,0-1.32,1.34c0,1.32,0,2.64,0,4s-.33,1.58-1.58,1.6c-3.39.06-6.79,0-10.19,0a1,1,0,0,1-1.18-1.15c0-.72-.12-1.43-.19-2.15a1.24,1.24,0,0,0-1.5-1.27c-.64,0-1.28,0-1.92,0H104.66c-2,0-2,.06-2,2,0,6.79,0,13.59,0,20.38a3.38,3.38,0,0,1-.29,2,2.67,2.67,0,0,1-3.08-.22,2.93,2.93,0,0,1-.25-1.52c0-3.2,0-6.39,0-9.59,0-.93.12-1.75,1.09-2.19.47-.21.54-.66.57-1.12a17.66,17.66,0,0,0-.25-4.17,1.05,1.05,0,0,0-.43-.83c-1-.49-1-1.37-1-2.27a21.85,21.85,0,0,0-.25-3.7,1.13,1.13,0,0,0-1.18-1.11q-4.68-.12-9.35,0c-.85,0-1.17.57-1.18,1.36,0,1.32,0,2.64,0,4s-.34,1.56-1.61,1.58c-3.39.05-6.79,0-10.19,0a1,1,0,0,1-1.15-1,19.6,19.6,0,0,0-.16-2c-.24-1.38-.31-1.46-1.67-1.49-.83,0-1.67,0-2.51,0h-15c-1.65,0-1.77.12-1.77,1.77,0,6.08,0,12.16,0,18.23a3.65,3.65,0,0,1-.24,1.88,1.15,1.15,0,0,1-1.09.35c-2.53-.22-5.07-.47-7.61-.58-.54,0-1.24.08-1.56-.62a1.74,1.74,0,0,1,2.07-.12A82.78,82.78,0,0,1,43,148.29c-.11-1-.05-2.08-.12-3.11s-.32-1.31-1.43-1.2c-.63.06-1.27.27-1.83-.21.43-.92,1.34-.69,2.06-.79,1.68-.24,1.7-.19,1.69-1.93a58.88,58.88,0,0,0-.12-5.94c.24-1.75.49-3.51.71-5.27a6.58,6.58,0,0,0,.23-2.12c.55-.58,1.27-.39,1.93-.39H78.82q15.9,0,31.79,0a7,7,0,0,0,6.83-4.21,7.15,7.15,0,0,0,.39-4.35,11.92,11.92,0,0,1-.14-2.86,8.88,8.88,0,0,0-.16-2.86c-2-8-3.85-16.1-5.8-24.15-.46-1.89-.48-1.89-2.4-1.89h-20c-1.65,0-1.72.09-1.33,1.73.15.66.34,1.31.48,2,.07.35.2.77,0,1.05-.7.87-.34,1.74-.13,2.63,1.52,6.17,3,12.37,4.45,18.55.43,1.79,0,2.36-1.88,2.37q-15.66,0-31.31,0c-1.6,0-1.81-.29-1.33-1.78,2.06-6.35,4.08-12.72,6.12-19.07,1.07-3.36,2.17-6.7,3.2-10.06A4.18,4.18,0,0,1,68,83.17a2.67,2.67,0,0,0,1.62-.92c1.85-1.73,3.91-3.21,5.89-4.79a1.26,1.26,0,0,1,.54-.24,12,12,0,0,1,2.16-.08h40.61c2.22,0,2.16,0,2.24-2.26.09-2.84-.35-5.66-.25-8.49,0-1.11-.63-1.2-1.47-1.2-4.32,0-8.63,0-12.94,0-.62,0-1.3.13-1.8-.42a37.88,37.88,0,0,1,7-1.36A91,91,0,0,1,123,62.68a34.51,34.51,0,0,1,3.93.22c1,.11,1.28-.32,1.24-1.28-.07-1.75,0-3.51,0-5.27,0-.38-.15-.8.2-1.12q0,33.21,0,66.43c0,2.07.34,4.13.22,6.2,0,.67.31.8.88.8h18.95c.62,0,.88-.22.83-.84,0-.32,0-.64,0-1q0-28.71,0-57.44c0-1.17.23-1.75,1.49-1.48,1.06.37,2.25.45,3.06,1.38.37,2.82,0,5.7.67,8.5.17.76-.38.63-.79.65-2,.09-1.95.09-2,2.17-.13,3.23.37,6.45.24,9.68,0,.81.38.9,1,.9,3.12,0,6.24,0,9.35,0,.93,0,1.32.22,1.23,1.2a16.62,16.62,0,0,0,0,2.64c.07.91-.2,1.25-1.18,1.23-3.2-.06-6.4,0-9.6,0-.95,0-1.28.2-1.31,1.23-.1,3.56.37,7.1.26,10.65,0,.81.39.89,1,.89,3.19,0,6.39,0,9.59,0,1,0,1.23.27,1.21,1.22-.06,2.59-.05,5.19,0,7.79,0,3,.18,6,.21,9.08,0,.83.41.88,1.05.88,5.92,0,11.83,0,17.75,0,.92,0,1.13-.29,1.13-1.16,0-5.48,0-11-.05-16.43,0-1.1.28-1.43,1.39-1.4,3.08.09,6.16.06,9.24.08A13.72,13.72,0,0,1,196.56,115.21Z" transform="translate(-6.87 -29.98)"/><path class="cls-2" d="M187.7,185.53A46,46,0,0,1,183,192a79,79,0,0,1-47.49,27.42,78.67,78.67,0,0,1-36.3-2.21,77.78,77.78,0,0,1-25.41-13.07,77,77,0,0,1-17.35-18.56c-.73-1.1-1.36-2.21-2.91-2.17.52-.53,1.19-.38,1.81-.39H68.05a6.71,6.71,0,0,0,2.81-.51A4.81,4.81,0,0,0,74,177.84c0-2.24,0-4.48,0-6.72a3.85,3.85,0,0,1,.2-1.65,1.22,1.22,0,0,1,1.61-.41c.81.64.56,1.61.72,2.44.3,1.54.37,1.65,1.91,1.66,1.88,0,3.76,0,5.64,0,1.18,0,1.37-.25,1.44-1.42,0-.7-.14-1.45.31-2.09a.69.69,0,0,1,.82,0A2.16,2.16,0,0,1,87,171c0,1.8,0,3.6,0,5.4,0,1.56-.42,2-2,2-.83,0-1.68,0-2.51,0s-1.21.32-1.21,1.14a29,29,0,0,0,.17,3.95,1.41,1.41,0,0,0,1.6,1.37c2.16,0,4.32,0,6.48,0a29.16,29.16,0,0,0,5-.19A5,5,0,0,0,99,179.48c0-2.56,0-5.12,0-7.68a2.53,2.53,0,0,1,.33-1.72,3.6,3.6,0,0,1,2.91,0,2.35,2.35,0,0,1,.36,1.71c0,2.64-.11,5.28,0,7.91.22,4.11.14,3.27,3.28,3.31,4,.05,8,0,12,0a6.25,6.25,0,0,0,3.73-1.11,4.59,4.59,0,0,0,2.09-3.84c0-1.92,0-3.83,0-5.75a3.71,3.71,0,0,1,.21-1.65,1.37,1.37,0,0,1,1.83-.36,2.62,2.62,0,0,1,.56,1.66,1.19,1.19,0,0,0,1.32,1.21H134c.9,0,1.3-.44,1.3-1.32a2.24,2.24,0,0,1,.31-1.49.71.71,0,0,1,.82,0,3.3,3.3,0,0,1,.3,2c0,1.39,0,2.79,0,4.19s-.44,1.82-1.88,1.9c-.88,0-1.76,0-2.64,0s-1.23.39-1.22,1.24a24.77,24.77,0,0,0,.19,3.94c.13.8.5,1.26,1.31,1.26,3.9,0,7.83.3,11.72-.19,2.9-.38,4.49-2.32,4.52-5.27,0-2.55,0-5.11,0-7.66a2.78,2.78,0,0,1,.28-1.63c1.11-.37,2.22-.76,3.35-.08a3.4,3.4,0,0,1,.2,1.64c0,3.31-.56,6.6-.49,9.9.1,4.09.2,3.56,3.33,3.55,1.66,0,3.35.28,5-.32a1.29,1.29,0,0,1,.82-.11,5.29,5.29,0,0,0,2.32.46c2,0,4.06,0,6.1,0a2.91,2.91,0,0,0,2.47-.9.46.46,0,0,1,.41.06,2.72,2.72,0,0,0,2.28.82c3.75,0,7.51-.12,11.26,0C186.58,185.18,187.21,185.05,187.7,185.53Z" transform="translate(-6.87 -29.98)"/><path class="cls-1" d="M68.38,83.05,64.06,96.47c-1.85,5.78-3.67,11.56-5.55,17.32-.31.93-.29,1.21.81,1.2q15.83,0,31.67,0c1.66,0,1.81-.2,1.42-1.81-1.55-6.51-3.12-13-4.65-19.53-.14-.61-.91-1.49.42-1.87.22-.06,0-.42,0-.65-.29-1.24-.53-2.5-.87-3.72-.18-.65,0-.8.61-.75.12,0,.24,0,.36,0,7.39,0,14.79,0,22.19,0a1.17,1.17,0,0,1,1.37,1.07c2,8.56,4.22,17.09,6.08,25.7a29.07,29.07,0,0,1,.31,8.39c-.25,3.19-3.61,5.83-6.9,5.9-1.64,0-3.28,0-4.92,0H45.58c-.48,0-1,0-1.44,0H29.64c.29-1.85,1.11-3.46,1.5-5.24l-1.83-.12,2.48-7.79c3.82-11.94,7.62-23.88,11.48-35.8.34-1,.17-1.25-.9-1.24-4.56,0-9.12,0-13.68,0-.88,0-1.17-.21-1.14-1.12.11-3.43-.35-6.85-.26-10.29,0-1.06.25-1.39,1.38-1.39q37.07.06,74.14,0c.6,0,1.2,0,1.8,0,5.07,0,10.14.06,15.22,0,1.09,0,1.43.27,1.39,1.39-.12,3.35.32,6.68.25,10,0,1.14-.37,1.37-1.43,1.37q-21.63,0-43.26,0c-.4,0-.8,0-1.19,0-1.11.54-2.29.24-3.43.28-1.8.05-1.83.07-2.39,1.83C69.4,80.83,69.33,82.13,68.38,83.05Z" transform="translate(-6.87 -29.98)"/><path class="cls-1" d="M160.56,185a2,2,0,0,1-1.45.45c-1.92,0-3.84,0-5.75,0-1,0-1.46-.32-1.58-1.54-.46-4.63.54-9.2.42-13.8a14.09,14.09,0,0,1,0-4.05,1.88,1.88,0,0,0-.27-1.48,3.31,3.31,0,0,1-.46-2.85c0-.87,0-1.75,0-2.62,0-.57-.05-1.22.68-1.48,2.67-.26,5.35,0,7.91-.11h-6.2c-.35,0-.74.09-.93-.35a9.35,9.35,0,0,1-.48-3c-.26-3.57-.35-7.16-.54-10.75-.1-1.9-.52-3.78-.46-5.7.05-1.7.19-1.89,1.83-1.89,8.67,0,17.35,0,26,0,1.17,0,1.66.22,1.74,1.56s.17,2.78.16,4.17c0,1-.51,2-.22,3,.14.47-.38,1.26.48,1.37s1.74.28,2.25-.82c.82-1.82,1.75-3.59,2.62-5.39.49-1,1-2,1.41-3a1.91,1.91,0,0,1,2.06-1.26c2.84,0,5.67,0,8.51,0,1.34,0,1.51.24,1.3,1.55,0,.08-.1.19-.08.22,1.19,1.63-.29,2.75-.84,4-1.5,3.35-3.16,6.62-4.84,10.09H198c1.68,0,1.7,0,1.57,1.69,0,.5.43.61.59,1,.31.34.08.66,0,1Q199,157,198,159.17c-.89,2.07-1.94,4.06-2.94,6.08a11,11,0,0,1-1.28,2.1.25.25,0,0,0,.09.07.22.22,0,0,0,.12,0l2.9,0c.64.07,1.32-.16,1.88.32.87.15,1.3.57.93,1.5-.06.14-.17.38-.12.43,1.09,1.05.11,1.91-.29,2.76-1.43,3.07-3,6.07-4.37,9.16a6,6,0,0,1-6.11,3.87,9.45,9.45,0,0,0-1.07.07l-13.7,0c-.81,0-1.66,0-1.71-1.16a3.33,3.33,0,0,1-.09-1.13,3.33,3.33,0,0,1-.09,1.13c-.14.87-.69,1.17-1.53,1.17-2.71,0-5.42,0-8.13,0a1.44,1.44,0,0,1-1.42-.68,2.61,2.61,0,0,1-.07-1.33C160.88,184,161,184.61,160.56,185Z" transform="translate(-6.87 -29.98)"/><path class="cls-1" d="M74.41,45.15H32.55c-1.79,0-1.57.21-1.57-1.62,0-3.35-.36-6.68-.27-10,0-.92.29-1.11,1.16-1.11q42.35,0,84.69,0c.65,0,1.14,0,1.11.91-.12,3.55.35,7.08.26,10.64,0,1-.33,1.24-1.3,1.24Q95.53,45.13,74.41,45.15Z" transform="translate(-6.87 -29.98)"/><path class="cls-3" d="M42.48,158.66a10,10,0,0,0,3.44.37l6.61.56a1.2,1.2,0,0,1,.39,1c0,2.15.06,4.3,0,6.45a1.38,1.38,0,0,1-.2.68,1.51,1.51,0,0,1-1.42.41,10.63,10.63,0,0,1-4.24-.81c-5-.36-9.92-1-14.86-1.71a88.18,88.18,0,0,1-15.65-3.37c-2.22-.75-4.53-1.32-6.31-3-3-2.84-3.77-6.31-3.17-10.27.74-4.87,3.92-7.3,8.31-8.71a99.4,99.4,0,0,1,18.46-3.9c3.13-.38,6.25-.79,9.38-1.19.57.1.47.55.47.93,0,2.11,0,4.21,0,6.31,0,.74-.26,1-1,.94a7.39,7.39,0,0,0-3.12.46,10.25,10.25,0,0,1-3.7.81,114.79,114.79,0,0,0-17,3.18,15.63,15.63,0,0,0-4.63,1.91c-1.37,1-1.37,1.82,0,2.78A15.42,15.42,0,0,0,19,154.38a120.13,120.13,0,0,0,17.65,3.22c1.5.19,3,.42,4.51.57A1.87,1.87,0,0,1,42.48,158.66Z" transform="translate(-6.87 -29.98)"/><path class="cls-3" d="M193.44,167.75c-.2,0-.46-.05-.23-.32,1.94-2.27,2.84-5.1,4.15-7.71.11-.21.26-.39.39-.59a6.78,6.78,0,0,1,2.9-.31,25.58,25.58,0,0,0,3.38-.42c3.76-.59,7.54-.93,11.29-1.54,5.13-.84,10.28-1.59,15.16-3.51a7.71,7.71,0,0,0,1.9-1c1.19-.92,1.19-1.69,0-2.58a7.72,7.72,0,0,0-2-1.08,58.52,58.52,0,0,0-11.14-2.83c-4.22-.73-8.46-1.25-12.7-1.86a16.93,16.93,0,0,0-2.92-.39c-2.29,0-2.59-.43-2.3-2.71-.28-1.66-.07-3.37-.45-5a1.32,1.32,0,0,1,0-1l.24.06c.52.3,1.14-.07,1.66.22,5.69.51,11.35,1.28,17,2.27a75,75,0,0,1,12.49,3.25c4,1.44,6.47,4.05,7.19,8.31.95,5.68-1.84,10.72-7.26,12.56a103.49,103.49,0,0,1-19.72,4.32l-5.58.75c-3.33.5-6.68.79-10,1.07A20.35,20.35,0,0,0,193.44,167.75Z" transform="translate(-6.87 -29.98)"/><path class="cls-1" d="M52.53,167.78v-8.19l0-20.62c0-1.7,0-1.7,1.74-1.7,6.12,0,12.23,0,18.35,0,1.09,0,1.67.25,1.56,1.45a8.73,8.73,0,0,0,.2,1.3c.14,1.84.13,1.84,1.93,1.84,3.08,0,6.16,0,9.23,0,.85,0,1.11-.26,1.08-1.09-.06-1.52,0-3,0-4.56a1.09,1.09,0,0,1,1.21-1.28q5,0,10.08,0c.76,0,1.18.38,1.25,1.27.11,1.35.24,2.69.22,4,0,.76-.25,1.63,1,1.79.3,0,.44.42.48.77a39.78,39.78,0,0,1,.25,5c0,.62-.24,1.05-.83,1.13s-.88.42-.87,1.11c0,3.91,0,7.83,0,11.75a2.68,2.68,0,0,1,.35,1.36c0,1.93,0,3.87,0,5.8a1.92,1.92,0,0,1-.34,1.23c0,2.92-.12,5.84,0,8.74.14,3.46-1.85,6.25-6,6.33-3.6.06-7.19,0-10.78,0-1,0-1.44-.37-1.56-1.47-.16-1.52-.14-3-.2-4.53,0-.88.33-1.23,1.21-1.19,1.12,0,2.24,0,3.35,0,.82,0,1.26-.25,1.25-1.18-.05-2.39,0-4.79,0-7.18a2.05,2.05,0,0,1-.35-1.36c0-2.26,0-4.52,0-6.78,0-3.51,0-7,0-10.53,0-1.53-.1-1.61-1.64-1.62-2.59,0-5.19,0-7.78,0a3.2,3.2,0,0,1-2.09-.48c0,4,0,7.93,0,11.89,0,2.29,0,4.59,0,6.88a3.44,3.44,0,0,1-.34,1.73c0,2.67-.15,5.36,0,8a5.77,5.77,0,0,1-6,5.93l-13.78,0c-.4,0-.8,0-1.2,0a.75.75,0,0,1-.73-.78c-.07-1.19-.18-2.37-.27-3.55a12.69,12.69,0,0,1-.35-4.16c0-1.84,0-3.68,0-5.52A2.22,2.22,0,0,1,52.53,167.78Z" transform="translate(-6.87 -29.98)"/><path class="cls-3" d="M30.23,192.7a8.52,8.52,0,0,1,8.6,8.44A8.61,8.61,0,0,1,21.62,201,8.45,8.45,0,0,1,30.23,192.7Z" transform="translate(-6.87 -29.98)"/><path class="cls-4" d="M219.64,187.72a8.26,8.26,0,0,1-8.57-8.28c0-4.68,3.36-8.37,8.59-8.44a8.36,8.36,0,1,1,0,16.72Z" transform="translate(-6.87 -29.98)"/><path class="cls-2" d="M52.53,167.78c0,3.76,0,7.52,0,11.28a68.09,68.09,0,0,1-4.78-10.55,2.36,2.36,0,0,0-.7-1.22A50.42,50.42,0,0,0,52.53,167.78Z" transform="translate(-6.87 -29.98)"/><path class="cls-5" d="M196.81,167.52l8.76-.92a11.41,11.41,0,0,1,1.31,0c-1.5.82-3.2.29-4.77.71-1.1.29-2.28.08-3.38.46l-1.94,0c-.07-.06-.09-.11-.07-.16S196.78,167.52,196.81,167.52Z" transform="translate(-6.87 -29.98)"/><path class="cls-2" d="M202.79,135.11c-.56,0-1.15.2-1.66-.22C201.69,134.9,202.28,134.7,202.79,135.11Z" transform="translate(-6.87 -29.98)"/><path class="cls-6" d="M173.15,66.48c-7.67,0-15.34,0-23,0-.88,0-1.16-.19-1.14-1.11,0-2.75,0-2.75,2.73-2.75q22.25,0,44.49,0c1.06,0,1.44.22,1.41,1.36-.09,2.5,0,2.5-2.52,2.5Z" transform="translate(-6.87 -29.98)"/><path class="cls-6" d="M196.56,115.21q-1.17-3.09-2.36-6.18c.93.09,1.24-.25,1.26-1.27.09-3.54-.36-7.06-.26-10.59,0-.73-.22-1-.95-1-2.51,0-5,0-7.52,0a11.73,11.73,0,0,1-3.11-4c-.15-.74.14-1,.89-1,3.07,0,6.15,0,9.23,0,1.56,0,1.51,0,1.58-1.51.14-3.47-.37-6.92-.24-10.39,0-1-.55-.93-1.15-.85-1.16.16-1.57-.17-1.26-1.4a26,26,0,0,0,.47-3.43c.06-.52.31-1.13-.51-1.34-.22-.06-.17-.33-.16-.53a3.3,3.3,0,0,1,.05-.71c.27-1-.16-2.52.6-2.94,1.12-.62,2.64-.15,4-.19.36,0,.46.24.46.55s0,.48,0,.72v43.27C197.59,113.51,197.65,114.58,196.56,115.21Z" transform="translate(-6.87 -29.98)"/><path class="cls-6" d="M201.82,49.19c-5.19,0-10.38,0-15.58,0-.86,0-1.25-.11-1.23-1.13.06-2.73,0-2.73,2.76-2.73,9.94,0,19.89,0,29.83,0,1.11,0,1.42.31,1.38,1.4-.07,2.47,0,2.48-2.54,2.48Z" transform="translate(-6.87 -29.98)"/><path class="cls-6" d="M144.72,49.19c-5.16,0-10.31,0-15.47,0-.88,0-1.17-.2-1.16-1.12,0-2.74,0-2.74,2.76-2.74,9.8,0,19.6,0,29.39,0,1,0,1.37.22,1.34,1.31-.08,2.55,0,2.56-2.58,2.56Z" transform="translate(-6.87 -29.98)"/><path class="cls-6" d="M217,119.06c-.33,4-3.76,8.35-8.85,8.2-4.56-.13-9.12-.05-13.67,0-.82,0-1.11-.2-1.1-1.06,0-2.8,0-2.8,2.82-2.8,3.87,0,7.75,0,11.63,0a9.67,9.67,0,0,0,8.91-5.06C217.32,118.39,217,118.78,217,119.06Z" transform="translate(-6.87 -29.98)"/><path class="cls-6" d="M173.32,67.92c1,0,2,0,3,0,.59,0,.89.11.8.79q-.59,4.51-1.11,9c-.07.52-.26.76-.83.74-1.23,0-2.48,0-3.71,0-.62,0-.81-.21-.88-.8-.35-3-.74-5.94-1.12-8.91-.08-.59.05-.88.73-.85C171.24,68,172.28,67.92,173.32,67.92Z" transform="translate(-6.87 -29.98)"/><path class="cls-6" d="M139,127.23c-2.67,0-5.34,0-8,0-.73,0-.94-.24-.95-1-.06-2.91-.09-2.9,2.83-2.9,4.62,0,9.25,0,13.88,0,.91,0,1.14.27,1.13,1.15,0,2.72,0,2.72-2.76,2.72Z" transform="translate(-6.87 -29.98)"/><path class="cls-6" d="M173.64,126.48c-2.52,0-5,0-7.56,0-.65,0-.89-.17-.91-.87-.1-3-.13-3,2.86-3,4.36,0,8.72,0,13.07,0,.82,0,1.09.2,1.08,1.06,0,2.8,0,2.8-2.79,2.8Z" transform="translate(-6.87 -29.98)"/><path class="cls-6" d="M188.52,107.57c-1.51,0-3,0-4.55,0-.47,0-.67-.1-.61-.57v-.12c-.18-3.18-.18-3.18,3-3.18,2.16,0,4.32,0,6.47,0,.84,0,1.2.15,1.19,1.1,0,2.76,0,2.76-2.74,2.76h-2.76Z" transform="translate(-6.87 -29.98)"/><path class="cls-6" d="M188.64,89.78c-1.47,0-2.95,0-4.42,0-.69,0-.86-.21-.88-.88-.07-3-.1-3,2.84-3,2.27,0,4.54,0,6.81,0,.68,0,.88.2.9.88.1,3,.12,3-2.86,3Z" transform="translate(-6.87 -29.98)"/><path class="cls-7" d="M158.27,107.56c-1.44,0-2.87,0-4.31,0-.67,0-.88-.21-.9-.88-.1-3-.12-3,2.88-3,2.23,0,4.46,0,6.7,0,.73,0,1,.24,1,1,.09,2.9.12,2.9-2.72,2.9Z" transform="translate(-6.87 -29.98)"/><path class="cls-6" d="M158.4,89.78c-1.43,0-2.86,0-4.3,0-.61,0-.8-.21-.83-.82-.16-3-.18-3,2.81-3,2.19,0,4.38,0,6.57,0,.74,0,.94.26,1,1,.09,2.89.11,2.89-2.83,2.89Z" transform="translate(-6.87 -29.98)"/><path class="cls-8" d="M183.62,92.16l3.11,4c-3.13.12-3.13.12-3.13-3C183.6,92.87,183.62,92.51,183.62,92.16Z" transform="translate(-6.87 -29.98)"/><path class="cls-9" d="M153.79,69.32a16.49,16.49,0,0,1-3.06-1.38,11.58,11.58,0,0,0,1.67,0C153.56,67.73,153.91,68.27,153.79,69.32Z" transform="translate(-6.87 -29.98)"/><path class="cls-10" d="M217,119.06c-.09-.24,0-.57-.26-.73l.36-.73A1.64,1.64,0,0,1,217,119.06Z" transform="translate(-6.87 -29.98)"/><path class="cls-1" d="M149.08,170.16c0,3-.11,5.92,0,8.87.12,3.26-1.79,6.14-6,6.21-3.6.06-7.19,0-10.79,0-1,0-1.43-.38-1.55-1.48-.16-1.52-.14-3-.2-4.53,0-.89.35-1.22,1.22-1.18,1.12,0,2.24,0,3.36,0,.82,0,1.25-.28,1.23-1.19-.05-2.16,0-4.31,0-6.47a2.13,2.13,0,0,1-.35-1.47c0-2.3,0-4.6,0-6.9-.05-3.63,0-7.27,0-10.91,0-1.63-.08-1.7-1.67-1.71-2.64,0-5.27,0-7.91,0a2.33,2.33,0,0,1-1.92-.55c0,4.37,0,8.76,0,13.16,0,2.29,0,4.58,0,6.88a3.41,3.41,0,0,1-.34,1.72c0,2.36-.12,4.72,0,7.06a5.52,5.52,0,0,1-5.46,5.65c-5,.14-10.06,0-15.09.06-.82,0-1-.35-1.13-1.15-.46-4-.07-8-.24-12.06a.92.92,0,0,1-.23-.42,43.07,43.07,0,0,1,0-7.36.92.92,0,0,1,.23-.42l0-23.13c0-1.58,0-1.58,1.62-1.58,6.16,0,12.31,0,18.46,0,1.09,0,1.68.24,1.57,1.45a8.41,8.41,0,0,0,.2,1.29c.14,1.85.13,1.85,2,1.85,3,0,6.07,0,9.11,0,.84,0,1.11-.25,1.08-1.09-.06-1.51,0-3,0-4.55a1.09,1.09,0,0,1,1.21-1.29q5,0,10.07,0a1.14,1.14,0,0,1,1.25,1.26c.06,1.27.29,2.52.23,3.8,0,.88-.28,1.86,1,2.1.25,0,.35.4.39.7a39.68,39.68,0,0,1,.25,5c0,.69-.3,1.1-.93,1.17s-.77.49-.77,1.06c0,3.92,0,7.84,0,11.75A21,21,0,0,1,149.08,170.16Z" transform="translate(-6.87 -29.98)"/><path class="cls-6" d="M206.65,143.75q7.56.78,15,2.21a46.3,46.3,0,0,1,9.31,2.6,8.89,8.89,0,0,1,1.86,1.09c1.22.91,1.21,1.88,0,2.81a15.43,15.43,0,0,1-5.37,2.29,120.19,120.19,0,0,1-17.76,3.19c-1.9.23-3.8.48-5.7.72-1.34.09-2.67.37-4,.36-.8,0-1-.31-.88-1a18.88,18.88,0,0,1,.82-3.23c.08-.31.15-.62.22-.93a32.86,32.86,0,0,0,.7-5.31c.2-1.81.21-3.65.3-5.47C203,143.49,204.83,143.36,206.65,143.75Z" transform="translate(-6.87 -29.98)"/><path class="cls-6" d="M42.48,158.66c-8.32-1-16.67-1.86-24.73-4.31a13.16,13.16,0,0,1-3.92-1.75c-1.46-1-1.46-2.11,0-3.12A19.27,19.27,0,0,1,20.15,147a150.39,150.39,0,0,1,19.45-3.27,5.67,5.67,0,0,0,2.13-.2c1-.23,1.39.2,1.44,1.15.07,1.35.08,2.69.2,4a89.33,89.33,0,0,0,1.49,9.92Z" transform="translate(-6.87 -29.98)"/><path class="cls-11" d="M149.08,170.16v-8.4h2.36c.46.68,0,1.57.41,2.19,1.43,2,.31,4.12.35,6.19Z" transform="translate(-6.87 -29.98)"/><path class="cls-11" d="M102.21,162v8.2H99.4c0-2.8,0-5.6,0-8.39A7.67,7.67,0,0,0,102.21,162Z" transform="translate(-6.87 -29.98)"/><path class="cls-12" d="M68.38,83.05c.48-1.52,1-3,1.42-4.56a1.12,1.12,0,0,1,1.36-.95c1.47,0,3,0,4.42,0-.16.6-.73.79-1.16,1.12-1.73,1.33-3.43,2.69-5,4.16C69.15,83.06,68.86,83.8,68.38,83.05Z" transform="translate(-6.87 -29.98)"/><path class="cls-13" d="M152.93,157.2a4.84,4.84,0,0,0,2.47.23,46.29,46.29,0,0,1,5.12.24h-8.37Z" transform="translate(-6.87 -29.98)"/><path class="cls-14" d="M206.65,143.75c-1.85-.18-3.73,0-5.51-.67.06-.73-.23-1.49.2-2.19.1,2.33.11,2.33,2.55,2.39A7.89,7.89,0,0,1,206.65,143.75Z" transform="translate(-6.87 -29.98)"/><path class="cls-1" d="M85.91,169.69c0,.83,0,1.67,0,2.5s-.35,1.33-1.26,1.33c-2.34,0-4.69,0-7,0-.89,0-1.29-.35-1.35-1.26s-.29-2-.45-3a2.1,2.1,0,0,1-.37-1.34c-.12-2.28-.22-4.56-.45-6.84-.11-2.83-.36-5.65-.37-8.49,0-1.5.39-1.92,1.91-2,2,0,4,0,6,0,1.72,0,2.26.49,2.48,2.24a78,78,0,0,1,.55,8.36c.22,2.36.35,4.73.46,7.09A3.55,3.55,0,0,1,85.91,169.69Z" transform="translate(-6.87 -29.98)"/><path class="cls-1" d="M135.6,170.39c0,3.27.53,3.15-3.18,3.13-1.68,0-3.36,0-5,0-.94,0-1.4-.36-1.41-1.34a12,12,0,0,0-.25-1.77,3.45,3.45,0,0,1-.54-2c0-2.1-.38-4.19-.3-6.3a25.26,25.26,0,0,1-.37-4.51,51.07,51.07,0,0,1-.18-5.25c0-1.17.4-1.65,1.53-1.69,2.31-.1,4.62-.06,6.93,0a1.74,1.74,0,0,1,1.8,1.6,28.35,28.35,0,0,1,.44,3.91c.09,2,.19,4,.38,6.07,0,2.48.35,4.94.37,7.41A1.15,1.15,0,0,1,135.6,170.39Z" transform="translate(-6.87 -29.98)"/><path class="cls-15" d="M125.23,162c.16,2.81.33,5.61.49,8.41a2.71,2.71,0,0,0-1.59.2V162A1.49,1.49,0,0,1,125.23,162Z" transform="translate(-6.87 -29.98)"/><path class="cls-15" d="M75.36,161a67.76,67.76,0,0,1,.48,8.18,2.31,2.31,0,0,0-1.39.21v-8.61A.76.76,0,0,1,75.36,161Z" transform="translate(-6.87 -29.98)"/><path class="cls-16" d="M85.91,169.69c-.51-1.37-.15-2.82-.41-4.24s0-2.77-.26-4.15a1.32,1.32,0,0,1,1.37.21v8.2Z" transform="translate(-6.87 -29.98)"/><path class="cls-17" d="M135.6,170.39a63.65,63.65,0,0,1-.49-8.17,1.06,1.06,0,0,1,1.18-.21v8.4Z" transform="translate(-6.87 -29.98)"/><path class="cls-18" d="M160.56,185l.36-1.75a4,4,0,0,1,.11,1.52Z" transform="translate(-6.87 -29.98)"/><path class="cls-19" d="M172.11,184.33a1.6,1.6,0,0,1,.09-1,1.6,1.6,0,0,1,.09,1h-.18Z" transform="translate(-6.87 -29.98)"/><path class="cls-6" d="M31.53,126.12l1-3.18a.62.62,0,0,1,.69-.52c.36,0,.72,0,1.08,0q37.67,0,75.33,0c2.85,0,5.26-.71,7.1-3,1,3-1.93,6.59-5.14,6.8-.56,0-1.12,0-1.68,0h-77A2.73,2.73,0,0,1,31.53,126.12Z" transform="translate(-6.87 -29.98)"/><path class="cls-6" d="M68.37,77.23c.44-1.45.87-2.9,1.3-4.35a.75.75,0,0,1,.88-.61c.2,0,.4,0,.6,0q23.73,0,47.47,0c1.08,0,1.44.24,1.4,1.37-.08,2.5,0,2.5-2.51,2.5q-23.13,0-46.27,0c-1.16,0-2.16.17-2.63,1.4C68.39,77.54,68.25,77.5,68.37,77.23Z" transform="translate(-6.87 -29.98)"/><path class="cls-6" d="M37.07,72.27c2.4,0,4.79,0,7.18,0,1,0,1,.28.77,1.09-.87,2.78-.85,2.78-3.72,2.78-3.75,0-7.5,0-11.25,0-.85,0-1.07-.25-1.07-1.08,0-2.79,0-2.79,2.71-2.79Z" transform="translate(-6.87 -29.98)"/><path class="cls-20" d="M68.37,77.23l.24.28Q66.26,85,63.88,92.45q-3.37,10.62-6.78,21.21c-.14.44-.14,1-.6,1.29-.34-.22-.12-.51,0-.71Q62.3,95.88,68.19,77.53A1.59,1.59,0,0,1,68.37,77.23Z" transform="translate(-6.87 -29.98)"/><path class="cls-6" d="M170.4,172.08c0,3,0,5.92,0,8.87,0,.87-.17,1.2-1.11,1.17-2-.08-4-.07-6,0-.91,0-1.15-.24-1.14-1.14,0-5.87,0-11.75,0-17.62,0-1.87-.17-2-2.06-2-2.11,0-4.23,0-6.35,0-1.09,0-.85-.67-.86-1.27s-.17-1.18.84-1.15c2.32.07,4.64,0,6.95,0,1,0,1.53-.37,1.47-1.38-.05-.69.22-.89.89-.88q3.22.06,6.47,0c.7,0,.92.24.86.9-.1,1.06.46,1.38,1.46,1.36,2.2,0,4.4,0,6.59,0,1,0,1.11.34,1.11,1.18s-.12,1.29-1.15,1.25c-2.2-.09-4.4,0-6.6,0-1,0-1.43.43-1.43,1.43C170.41,165.85,170.4,169,170.4,172.08Z" transform="translate(-6.87 -29.98)"/><path class="cls-6" d="M198.09,136.84c-1.85,3.79-3.56,7.34-5.33,10.87a3.57,3.57,0,0,1-3.32,2c-2.24.05-4.48,0-6.72,0-.75,0-.93-.34-.81-.94s-.5-1.48.77-1.45a2.46,2.46,0,0,0,2.35-1.72c1.25-2.67,2.54-5.33,3.82-8,.19-.38.28-.8.88-.8C192.44,136.86,195.15,136.84,198.09,136.84Z" transform="translate(-6.87 -29.98)"/><path class="cls-6" d="M198.06,169.22c-1.07,2.25-2.06,4.33-3.06,6.4-.6,1.26-1.25,2.5-1.81,3.77a4.22,4.22,0,0,1-4.14,2.7c-2.08,0-4.16,0-6.24,0-.63,0-1.05-.13-.9-.85.11-.57-.52-1.54.82-1.52a2.32,2.32,0,0,0,2.2-1.55c1.25-2.68,2.57-5.32,3.82-8a1.4,1.4,0,0,1,1.51-1C192.8,169.27,195.34,169.22,198.06,169.22Z" transform="translate(-6.87 -29.98)"/><path class="cls-6" d="M198.07,152.66l-1.74,3.58c-1.13,2.33-2.24,4.67-3.39,7a3.62,3.62,0,0,1-3.43,2.18c-2.24,0-4.47,0-6.71,0-.64,0-1-.15-.9-.86.1-.56-.42-1.43.81-1.43a2.42,2.42,0,0,0,2.27-1.64c1.25-2.67,2.57-5.31,3.83-8a1.25,1.25,0,0,1,1.33-.87C192.72,152.69,195.3,152.66,198.07,152.66Z" transform="translate(-6.87 -29.98)"/><path class="cls-6" d="M176.48,182.09c-3.1,0-3.06,0-3.19-3.06q-.3-6.59-.72-13.16c-.06-1,.16-1.35,1.2-1.27a34.7,34.7,0,0,0,3.95,0c.74,0,1,.27,1,1,.07,1.68.17,3.35.25,5,.17,3.43.3,6.86.52,10.28.07,1-.24,1.37-1.24,1.25A15.25,15.25,0,0,0,176.48,182.09Z" transform="translate(-6.87 -29.98)"/><path class="cls-6" d="M156.09,182.09c-3.08,0-3.11,0-2.93-3,.27-4.5.59-9,.85-13.49,0-.7.22-1,1-1,1.39.06,2.79.06,4.19,0,.76,0,1,.24.91,1-.3,4.74-.53,9.49-.87,14.22-.17,2.32-.26,2.31-2.64,2.31Z" transform="translate(-6.87 -29.98)"/><path class="cls-6" d="M157,154.06c-1,0-2.25.37-2.91-.1s-.27-1.86-.34-2.84c-.18-2.54-.28-5.09-.45-7.64,0-.66.14-.93.85-.91,1.55,0,3.11,0,4.67,0,.55,0,.77.17.8.75.18,3.38.38,6.77.6,10.15,0,.55-.22.69-.71.68-.83,0-1.67,0-2.51,0Z" transform="translate(-6.87 -29.98)"/><path class="cls-6" d="M166.43,154.15c-.8,0-1.6,0-2.39,0-.64,0-.81-.24-.84-.84-.14-3.23-.3-6.46-.5-9.68-.06-.87.23-1.1,1.06-1.06,1.47.06,3,0,4.43,0,.55,0,.77.16.8.74.2,3.31.41,6.61.66,9.91.06.77-.23,1-.94.94S167.19,154.15,166.43,154.15Z" transform="translate(-6.87 -29.98)"/><path class="cls-6" d="M175.25,154.14c-.79-.11-2,.44-2.69-.21s0-1.81,0-2.75c.09-2.6.31-5.18.44-7.77,0-.6.17-.86.82-.84,1.56,0,3.12,0,4.67,0,.64,0,.84.22.8.84q-.27,5-.51,10.05c0,.51-.22.7-.72.69C177.2,154.13,176.32,154.14,175.25,154.14Z" transform="translate(-6.87 -29.98)"/><path class="cls-6" d="M166.32,137.21c4,0,8.08,0,12.11,0,.91,0,1.14.27,1.14,1.15s-.21,1.16-1.13,1.15q-12.23,0-24.46,0c-.84,0-1.1-.24-1.08-1.08s.06-1.23,1.07-1.22C158.09,137.25,162.2,137.21,166.32,137.21Z" transform="translate(-6.87 -29.98)"/><path class="cls-2" d="M181,168.71c1.87,0,3.75.06,5.63,0,.94,0,1.25.16.76,1.13-1.24,2.45-2.46,4.92-3.59,7.44-.53,1.2-1.45,1-2.4,1-.45,0-.41-.39-.44-.71-.24-2.94-.42-5.88-.44-8.83A.31.31,0,0,1,181,168.71Z" transform="translate(-6.87 -29.98)"/><path class="cls-2" d="M181.24,160.53a8.08,8.08,0,0,1-.28-2.08.68.68,0,0,0-.68-.79c-.2-.13-.16-.29-.08-.46.47-1.11.22-2.29.3-3.44,0-.71.12-1,1.05-.79a25.22,25.22,0,0,0,4.18.14,3.7,3.7,0,0,1,1.62.14c-1.2,2.37-2.11,4.84-3.5,7.08A2.51,2.51,0,0,1,181.24,160.53Z" transform="translate(-6.87 -29.98)"/><path class="cls-21" d="M199.92,154.79a10.55,10.55,0,0,1-.47,3.05c-.16.74-.09,1.14.87,1.09a15.67,15.67,0,0,1,3.68-.27,19.62,19.62,0,0,1-6.25.47A24.78,24.78,0,0,1,199.92,154.79Z" transform="translate(-6.87 -29.98)"/><path class="cls-22" d="M171,150.18c-.05-2.27-.22-4.52-.49-6.76,0-.33,0-.57.37-.59s.68-.07.74.39a2.89,2.89,0,0,1,0,.72C171.24,146,171.54,148.14,171,150.18Z" transform="translate(-6.87 -29.98)"/><path class="cls-23" d="M181.24,160.53l2.61-.2c-.19.75-.46,1.38-1.42,1.44S181,161.56,181.24,160.53Z" transform="translate(-6.87 -29.98)"/><path class="cls-13" d="M180.2,157.2c0,.15.05.3.08.46h-8.13v-.22h6.43A2.71,2.71,0,0,0,180.2,157.2Z" transform="translate(-6.87 -29.98)"/><path class="cls-24" d="M180.47,168c-.53-1,.08-2.17-.38-3.22.67.56.15,1.43.62,2C180.43,167.17,180.77,167.65,180.47,168Z" transform="translate(-6.87 -29.98)"/><path class="cls-25" d="M196.81,167.52c0,.08,0,.16,0,.24h-3.35C194.53,167.27,195.69,167.63,196.81,167.52Z" transform="translate(-6.87 -29.98)"/><path class="cls-26" d="M161.72,149.39v2.48A4.36,4.36,0,0,1,161.72,149.39Z" transform="translate(-6.87 -29.98)"/><path class="cls-27" d="M161.33,147.32v-2.58h.13v2.55Z" transform="translate(-6.87 -29.98)"/><path class="cls-28" d="M180.47,168c.08-.4-.15-.86.24-1.2.06.64-.14,1.32.27,1.9l-.48,0Z" transform="translate(-6.87 -29.98)"/><path class="cls-29" d="M161.91,155a1.53,1.53,0,0,1-.06-1.19C162.15,154.23,161.91,154.63,161.91,155Z" transform="translate(-6.87 -29.98)"/><path class="cls-6" d="M74.39,43.71q-20.34,0-40.66,0c-1,0-1.38-.21-1.34-1.3.08-2.56,0-2.56,2.57-2.56h79.88c1.79,0,1.62-.21,1.62,1.58,0,2.26,0,2.26-2.25,2.26Z" transform="translate(-6.87 -29.98)"/><path class="cls-6" d="M54,159.37c0-6.51,0-13,0-19.54,0-.86.17-1.17,1.11-1.16q8.28.06,16.55,0c.87,0,1.17.19,1.16,1.12,0,12,0,24,0,36a4.06,4.06,0,0,1-4,4.22c-4.67.1-9.35,0-14,.06-.94,0-.74-.61-.74-1.13Q54,169.16,54,159.37Z" transform="translate(-6.87 -29.98)"/><path class="cls-6" d="M81.61,145.61c-1.64,0-3.28-.06-4.91,0-1,.05-1.14-.32-1.11-1.17s0-1.23,1.06-1.21c3.28.07,6.56,0,9.83,0,1.42,0,1.58-.16,1.58-1.59s0-2.88,0-4.32c0-.82.27-1,1-1,2.56,0,5.11,0,7.67,0,.72,0,1,.19,1,.95,0,1.51,0,3,0,4.55,0,.82.17,1.44,1.17,1.42.66,0,.55.5.49.85s.39,1.34-.39,1.41c-1.32.12-1.27.94-1.27,1.85,0,9.88-.07,19.75,0,29.62,0,2.89-1.65,4.92-4.87,4.85s-6.4-.06-9.59,0c-1,0-1.05-.48-1.05-1.24s0-1.24,1-1.16a17.66,17.66,0,0,0,2.52,0,2.21,2.21,0,0,0,2.31-2.37q0-15.1,0-30.22c0-.88-.37-1.31-1.3-1.29C85.05,145.64,83.33,145.62,81.61,145.61Z" transform="translate(-6.87 -29.98)"/><path class="cls-2" d="M86.61,161.51a2.23,2.23,0,0,1-1.37-.21c-.18-2.75-.34-5.49-.54-8.23-.15-1.93-.35-2.1-2.23-2.1-2,0-4.08,0-6.12,0-1.07,0-1.53.39-1.48,1.49.12,2.86.53,5.71.49,8.59a1.38,1.38,0,0,1-.91-.22V148.54a4,4,0,0,0,2,.48c3,0,6.07,0,9.11,0,.76,0,1,.2,1,1C86.61,153.84,86.62,157.67,86.61,161.51Z" transform="translate(-6.87 -29.98)"/><path class="cls-6" d="M103.67,159.36c0-6.52,0-13,0-19.55,0-.89.22-1.15,1.13-1.14q8.28.06,16.55,0c.89,0,1.15.24,1.14,1.14,0,12,0,24,0,36a4.06,4.06,0,0,1-4,4.2c-4.68.09-9.36,0-14,.06-1,0-.72-.64-.72-1.15Q103.67,169.14,103.67,159.36Z" transform="translate(-6.87 -29.98)"/><path class="cls-6" d="M147.38,162.48c0,5,0,10,0,15,0,2.57-1.37,4.21-3.95,4.31-3.59.15-7.19.05-10.79.08-1,0-.7-.69-.69-1.19s-.28-1.2.69-1.18,1.76,0,2.64,0a2.23,2.23,0,0,0,2.46-2.46q0-15,0-30c0-1.09-.45-1.47-1.52-1.45-3.32,0-6.64,0-10,0-1.09,0-1-.56-1-1.26s.12-1.13,1-1.11c3.32,0,6.64,0,10,0,1.08,0,1.54-.36,1.51-1.46,0-1.52,0-3,0-4.56,0-.66.18-.92.88-.91q3.94.06,7.91,0c.7,0,.89.25.87.91,0,1.52,0,3,0,4.56,0,.8.13,1.46,1.14,1.45.74,0,.57.57.52.94s.4,1.28-.47,1.35c-1.18.09-1.19.83-1.19,1.67Z" transform="translate(-6.87 -29.98)"/><path class="cls-2" d="M136.29,162a2,2,0,0,1-1.18.21,38.14,38.14,0,0,1-.43-5.45c-.13-1.54-.24-3.08-.45-4.62A1.17,1.17,0,0,0,132.9,151h-7.06c-.73,0-1.32.23-1.27,1.06.19,3.33.43,6.66.66,10a.87.87,0,0,1-1.1,0V148.54a4.13,4.13,0,0,0,2.3.48c3,0,5.92,0,8.87,0,.79,0,1,.24,1,1C136.29,154,136.3,158,136.29,162Z" transform="translate(-6.87 -29.98)"/><path class="cls-6" d="M79.8,152.49c1.08,0,2.43-.4,3.15.11s.29,2,.37,3.07c.31,4.41.57,8.83.91,13.24.07,1-.17,1.33-1.2,1.27-1.51-.09-3-.07-4.55,0-.76,0-1-.22-1.09-1-.16-2.74-.37-5.49-.55-8.23-.17-2.51-.31-5-.5-7.52-.06-.76.12-1.1,1-1s1.67,0,2.51,0Z" transform="translate(-6.87 -29.98)"/><path class="cls-6" d="M129.49,152.5c1.07,0,2.43-.4,3.14.11s.29,2,.37,3.06c.31,4.42.57,8.83.91,13.24.07,1-.19,1.32-1.21,1.27-1.51-.09-3-.07-4.54,0-.78,0-1-.24-1.09-1-.16-2.67-.36-5.33-.54-8s-.31-5.17-.51-7.75c-.06-.78.13-1.1,1-1s1.68,0,2.52,0Z" transform="translate(-6.87 -29.98)"/><path class="cls-30" d="M61.28,149.64c0-2.35,0-4.71,0-7.06,0-1.33.3-1.6,1.63-1.63H64c1,0,1.48.41,1.48,1.42,0,4.83,0,9.65,0,14.48,0,.93-.41,1.33-1.4,1.34-2.79,0-2.79,0-2.79-2.8Z" transform="translate(-6.87 -29.98)"/><path class="cls-30" d="M61.28,169c0-2.32,0-4.63,0-6.95,0-1.07.35-1.57,1.54-1.55,2.66.05,2.66,0,2.66,2.6,0,3.91,0,7.82,0,11.73,0,2-.85,2.79-2.71,2.85-1.13,0-1.48-.48-1.48-1.5C61.29,173.79,61.28,171.39,61.28,169Z" transform="translate(-6.87 -29.98)"/><path class="cls-30" d="M115.15,149.6q0,3.47,0,6.94c0,1.42-.2,1.62-1.55,1.63-2.63,0-2.63,0-2.63-2.59,0-4.23,0-8.46,0-12.69,0-.65-.21-1.49.62-1.76a4.1,4.1,0,0,1,3.15.1c.47.23.41.9.41,1.42Z" transform="translate(-6.87 -29.98)"/><path class="cls-30" d="M115.15,168.48c0,2.19,0,4.39,0,6.58,0,1.79-.92,2.56-2.71,2.62-1.11,0-1.48-.46-1.48-1.49,0-2.55,0-5.11,0-7.66,0-2.16,0-4.31,0-6.47,0-1.07.33-1.58,1.54-1.56,2.66.05,2.66,0,2.66,2.71Z" transform="translate(-6.87 -29.98)"/><path class="cls-31" d="M62.91,150.36c0-1.76,0-3.51,0-5.26,0-.34-.11-.78.44-.81s.71.28.71.75v11c0,.42-.12.69-.61.68s-.55-.35-.55-.74C62.91,154.11,62.91,152.23,62.91,150.36Z" transform="translate(-6.87 -29.98)"/><path class="cls-32" d="M64,168.73q0,3.06,0,6.11a2.76,2.76,0,0,1-.07.71c-.1.32-.25.62-.65.59s-.43-.4-.43-.71q0-3.36,0-6.71C63.31,168.06,63.67,168.34,64,168.73Z" transform="translate(-6.87 -29.98)"/><path class="cls-33" d="M64,168.73c-.37-.06-.74-.34-1.11,0,0-1.35,0-2.7,0-4.05,0-.38,0-.72.54-.75s.65.32.64.76Z" transform="translate(-6.87 -29.98)"/><path class="cls-31" d="M112.59,150.36c0-1.76,0-3.51,0-5.27,0-.33-.11-.77.45-.8s.7.28.7.75v11c0,.42-.12.69-.61.68s-.55-.35-.55-.74C112.59,154.11,112.59,152.23,112.59,150.36Z" transform="translate(-6.87 -29.98)"/><path class="cls-34" d="M112.61,170.62c0-1.94,0-3.89,0-5.84,0-.39-.07-.83.54-.86s.63.45.63.89l0,5.61A1,1,0,0,1,112.61,170.62Z" transform="translate(-6.87 -29.98)"/><path class="cls-35" d="M112.61,170.62a1.55,1.55,0,0,1,1.11-.21c0,1.48,0,3,0,4.44a2.38,2.38,0,0,1-.08.71c-.09.31-.25.61-.65.58s-.42-.41-.42-.72C112.59,173.82,112.6,172.22,112.61,170.62Z" transform="translate(-6.87 -29.98)"/></svg>